<?xml version="1.0" encoding="UTF-8" standalone="no" ?>
<!DOCTYPE sesx>
<sesx version="1.3">

  <session appBuild="10.0.2.27" appVersion="10.0" audioChannelType="stereo" bitDepth="32" duration="15079435" sampleRate="44100">
    <name>DialogueTrue.sesx</name>
    <tracks>
      <audioTrack automationLaneOpenState="false" id="10001" index="1" select="false" visible="true">
        <trackParameters trackHeight="173" trackHue="-1" trackMinimized="false">
          <name>Eddie</name>
        </trackParameters>
        <trackAudioParameters audioChannelType="stereo" automationMode="1" monitoring="false" recordArmed="false" solo="false" soloSafe="false">
          <trackOutput outputID="10000" type="trackID"/>
          <trackInput inputID="1"/>
          <component componentGuid="c885296b-1d46-4e8d-821d-5bc39faae835" componentID="Audition.Fader" id="trackFader" name="volume" powered="true">
            <parameter index="0" name="volume" parameterValue="1"/>
            <parameter index="1" name="static gain" parameterValue="1"/>
          </component>
          <component componentGuid="61912c8d-6be6-43f6-b610-fe27133945f3" componentID="Audition.Mute" id="trackMute" name="Mute" powered="true">
            <parameter index="0" parameterValue="0"/>
            <parameter index="1" name="mute" parameterValue="0"/>
          </component>
          <component componentGuid="2bdea669-c25f-485f-9429-f3e1b66d2711" componentID="Audition.StereoPanner" id="trackPan" name="StereoPanner" powered="true">
            <parameter index="0" name="Pan" parameterValue="0"/>
          </component>
          <component componentGuid="48da3735-9128-4a29-b0fe-28176b70153e" componentID="Audition.EQ" id="trackEQ" name="EQ" powered="false">
            <parameter index="0" name="Low Shelf Frequency" parameterValue="0.0009079"/>
            <parameter index="1" name="Low Shelf Gain" parameterValue="0.5"/>
            <parameter index="2" name="High Shelf Frequency" parameterValue="0.8161598"/>
            <parameter index="3" name="High Shelf Gain" parameterValue="0.5"/>
            <parameter index="4" name="EQ Band 1 Center Frequency" parameterValue="0.0013618"/>
            <parameter index="5" name="EQ Band 1 Q" parameterValue="0.0002"/>
            <parameter index="6" name="EQ Band 1 Gain" parameterValue="0.5"/>
            <parameter index="7" name="EQ Band 1 Enable" parameterValue="1"/>
            <parameter index="8" name="EQ Band 2 Center Frequency" parameterValue="0.0081707"/>
            <parameter index="9" name="EQ Band 2 Q" parameterValue="0.0002"/>
            <parameter index="10" name="EQ Band 2 Gain" parameterValue="0.5"/>
            <parameter index="11" name="EQ Band 2 Enable" parameterValue="1"/>
            <parameter index="12" name="EQ Band 3 Center Frequency" parameterValue="0.0354063"/>
            <parameter index="13" name="EQ Band 3 Q" parameterValue="0.0002"/>
            <parameter index="14" name="EQ Band 3 Gain" parameterValue="0.5"/>
            <parameter index="15" name="EQ Band 3 Enable" parameterValue="1"/>
            <parameter index="16" name="EQ Band 4 Center Frequency" parameterValue="0.1443486"/>
            <parameter index="17" name="EQ Band 4 Q" parameterValue="0.0002"/>
            <parameter index="18" name="EQ Band 4 Gain" parameterValue="0.5"/>
            <parameter index="19" name="EQ Band 4 Enable" parameterValue="1"/>
            <parameter index="20" name="EQ Band 5 Center Frequency" parameterValue="0.580118"/>
            <parameter index="21" name="EQ Band 5 Q" parameterValue="0.0002"/>
            <parameter index="22" name="EQ Band 5 Gain" parameterValue="0.5"/>
            <parameter index="23" name="EQ Band 5 Enable" parameterValue="1"/>
            <parameter index="24" name="Master Gain" parameterValue="0.6666667"/>
            <parameter index="25" name="ConstantQ" parameterValue="1"/>
            <parameter index="26" name="Low Shelf Filter Order" parameterValue="0"/>
            <parameter index="27" name="High Shelf Filter Order" parameterValue="0"/>
            <parameter index="28" name="Ultra-Quiet Mode" parameterValue="0"/>
            <parameter index="29" name="Low Shelf Enable" parameterValue="1"/>
            <parameter index="30" name="High Shelf Enable" parameterValue="1"/>
            <parameter index="31" name="Original Sample Rate" parameterValue="0.2296875"/>
            <parameter index="32" name="EQ Band 1 Bandwidth" parameterValue="0.0025"/>
            <parameter index="33" name="EQ Band 2 Bandwidth" parameterValue="0.01"/>
            <parameter index="34" name="EQ Band 3 Bandwidth" parameterValue="0.04"/>
            <parameter index="35" name="EQ Band 4 Bandwidth" parameterValue="0.16"/>
            <parameter index="36" name="EQ Band 5 Bandwidth" parameterValue="0.64"/>
            <parameter index="37" name="High-Pass Filter Enable" parameterValue="0"/>
            <parameter index="38" name="High-Pass Cutoff Frequency" parameterValue="0"/>
            <parameter index="39" name="High-Pass Slope" parameterValue="0.4"/>
            <parameter index="40" name="Low-Pass Filter Enable" parameterValue="0"/>
            <parameter index="41" name="Low-Pass Cutoff Frequency" parameterValue="0.906945"/>
            <parameter index="42" name="Low-Pass Slope" parameterValue="0.4"/>
            <parameter index="43" name="Bypass" parameterValue="0"/>
            <parameter index="44" name="LowGraphRange" parameterValue="1"/>
          </component>
        </trackAudioParameters>
        <editParameter parameterIndex="0" slotIndex="4294967280"/>
        <sendList>
          <sendSlot preFader="false" sendOutputID="0" slotIndex="0">
            <component componentGuid="6ffa5043-5345-48c1-b646-0a7d3e05d739" id="sendComponent" powered="false">
              <parameter index="0" name="Power On/Off" parameterValue="0"/>
              <parameter index="1" name="Level" parameterValue="0"/>
            </component>
            <component id="sendPan" powered="true"/>
          </sendSlot>
          <sendSlot preFader="false" sendOutputID="0" slotIndex="1">
            <component componentGuid="a7e3d780-a76f-4b33-a5ff-2ef610f23bb6" id="sendComponent" powered="false">
              <parameter index="0" name="Power On/Off" parameterValue="0"/>
              <parameter index="1" name="Level" parameterValue="0"/>
            </component>
            <component id="sendPan" powered="true"/>
          </sendSlot>
          <sendSlot preFader="false" sendOutputID="0" slotIndex="2">
            <component componentGuid="abbbafbb-08ed-49a3-85f4-ad1e3a8b67fd" id="sendComponent" powered="false">
              <parameter index="0" name="Power On/Off" parameterValue="0"/>
              <parameter index="1" name="Level" parameterValue="0"/>
            </component>
            <component id="sendPan" powered="true"/>
          </sendSlot>
          <sendSlot preFader="false" sendOutputID="0" slotIndex="3">
            <component componentGuid="58bff99d-20ae-4f9d-925a-63bc64c435e6" id="sendComponent" powered="false">
              <parameter index="0" name="Power On/Off" parameterValue="0"/>
              <parameter index="1" name="Level" parameterValue="0"/>
            </component>
            <component id="sendPan" powered="true"/>
          </sendSlot>
          <sendSlot preFader="false" sendOutputID="0" slotIndex="4">
            <component componentGuid="1fa98b5f-0375-481c-8069-a4d891fa25c3" id="sendComponent" powered="false">
              <parameter index="0" name="Power On/Off" parameterValue="0"/>
              <parameter index="1" name="Level" parameterValue="0"/>
            </component>
            <component id="sendPan" powered="true"/>
          </sendSlot>
          <sendSlot preFader="false" sendOutputID="0" slotIndex="5">
            <component componentGuid="e30af1e3-8a18-44b6-9e0f-1294f7289d95" id="sendComponent" powered="false">
              <parameter index="0" name="Power On/Off" parameterValue="0"/>
              <parameter index="1" name="Level" parameterValue="0"/>
            </component>
            <component id="sendPan" powered="true"/>
          </sendSlot>
          <sendSlot preFader="false" sendOutputID="0" slotIndex="6">
            <component componentGuid="d437b720-7f6a-4fd3-9910-c1635e42ae38" id="sendComponent" powered="false">
              <parameter index="0" name="Power On/Off" parameterValue="0"/>
              <parameter index="1" name="Level" parameterValue="0"/>
            </component>
            <component id="sendPan" powered="true"/>
          </sendSlot>
          <sendSlot preFader="false" sendOutputID="0" slotIndex="7">
            <component componentGuid="04c139a6-7e39-4573-926a-d066d6da3614" id="sendComponent" powered="false">
              <parameter index="0" name="Power On/Off" parameterValue="0"/>
              <parameter index="1" name="Level" parameterValue="0"/>
            </component>
            <component id="sendPan" powered="true"/>
          </sendSlot>
          <sendSlot preFader="false" sendOutputID="0" slotIndex="8">
            <component componentGuid="11930fc1-fdd9-4179-8788-045bb5d143cc" id="sendComponent" powered="false">
              <parameter index="0" name="Power On/Off" parameterValue="0"/>
              <parameter index="1" name="Level" parameterValue="0"/>
            </component>
            <component id="sendPan" powered="true"/>
          </sendSlot>
          <sendSlot preFader="false" sendOutputID="0" slotIndex="9">
            <component componentGuid="3842a552-573a-4a69-a7cf-d94c5e7f13b4" id="sendComponent" powered="false">
              <parameter index="0" name="Power On/Off" parameterValue="0"/>
              <parameter index="1" name="Level" parameterValue="0"/>
            </component>
            <component id="sendPan" powered="true"/>
          </sendSlot>
          <sendSlot preFader="false" sendOutputID="0" slotIndex="10">
            <component componentGuid="5ce01ed9-5405-4c6e-9842-dcee8bc84d9f" id="sendComponent" powered="false">
              <parameter index="0" name="Power On/Off" parameterValue="0"/>
              <parameter index="1" name="Level" parameterValue="0"/>
            </component>
            <component id="sendPan" powered="true"/>
          </sendSlot>
          <sendSlot preFader="false" sendOutputID="0" slotIndex="11">
            <component componentGuid="6bb7c519-264d-47a5-bea5-fafced5c1e0b" id="sendComponent" powered="false">
              <parameter index="0" name="Power On/Off" parameterValue="0"/>
              <parameter index="1" name="Level" parameterValue="0"/>
            </component>
            <component id="sendPan" powered="true"/>
          </sendSlot>
          <sendSlot preFader="false" sendOutputID="0" slotIndex="12">
            <component componentGuid="c06f282e-b96c-4600-8b63-a210b1cfd318" id="sendComponent" powered="false">
              <parameter index="0" name="Power On/Off" parameterValue="0"/>
              <parameter index="1" name="Level" parameterValue="0"/>
            </component>
            <component id="sendPan" powered="true"/>
          </sendSlot>
          <sendSlot preFader="false" sendOutputID="0" slotIndex="13">
            <component componentGuid="614f8a22-0a9a-4b60-b86c-51056e969473" id="sendComponent" powered="false">
              <parameter index="0" name="Power On/Off" parameterValue="0"/>
              <parameter index="1" name="Level" parameterValue="0"/>
            </component>
            <component id="sendPan" powered="true"/>
          </sendSlot>
          <sendSlot preFader="false" sendOutputID="0" slotIndex="14">
            <component componentGuid="d7efb969-4937-496a-a824-ac151b06e766" id="sendComponent" powered="false">
              <parameter index="0" name="Power On/Off" parameterValue="0"/>
              <parameter index="1" name="Level" parameterValue="0"/>
            </component>
            <component id="sendPan" powered="true"/>
          </sendSlot>
          <sendSlot preFader="false" sendOutputID="0" slotIndex="15">
            <component componentGuid="4d8da390-448b-4222-a3e1-e91d35e65302" id="sendComponent" powered="false">
              <parameter index="0" name="Power On/Off" parameterValue="0"/>
              <parameter index="1" name="Level" parameterValue="0"/>
            </component>
            <component id="sendPan" powered="true"/>
          </sendSlot>
        </sendList>
        <audioClip clipAutoCrossfade="true" crossFadeHeadClipID="-1" crossFadeTailClipID="-1" endPoint="33489" fileID="0" hue="-1" id="0" lockedInTime="false" looped="false" name="Track 3_014" offline="false" select="false" sourceInPoint="241366" sourceOutPoint="274855" startPoint="0" zOrder="2145914704">
          <component componentGuid="ca76ba52-c5cb-4a8c-8e09-4419fd3e7682" componentID="Audition.Fader" id="clipGain" name="volume" powered="true">
            <parameter index="0" name="volume" parameterValue="1"/>
            <parameter index="1" name="static gain" parameterValue="1"/>
          </component>
          <component componentGuid="00ce6ffa-2707-457f-9dcc-01c4d40d9584" componentID="Audition.Mute" id="clipMute" name="Mute" powered="true">
            <parameter index="0" parameterValue="0"/>
            <parameter index="1" name="mute" parameterValue="0"/>
          </component>
          <component componentGuid="1de8ad19-6256-461a-a407-aaecd996f99e" componentID="Audition.StereoPanner" id="clipPan" name="StereoPanner" powered="true">
            <parameter index="0" name="Pan" parameterValue="0"/>
          </component>
          <fadeIn crossFadeLinkType="linkedAsymmetric" endPoint="6627" shape="19" startPoint="0" type="log"/>
          <fadeOut crossFadeLinkType="linkedAsymmetric" endPoint="33489" shape="18" startPoint="33489" type="log"/>
          <clipStretch adaptiveWindowSize="37" pitchAdjustment="0" preserveFormants="true" stretchMode="realtime" stretchQuality="high" stretchRatio="0.8555101746240038" stretchType="solo" transientSensitivity="40"/>
          <editParameter parameterIndex="0" slotIndex="4294967281"/>
          <editParameter parameterIndex="0" slotIndex="4294967280"/>
          <channelMap>
            <channel index="0" sourceIndex="0"/>
          </channelMap>
        </audioClip>
        <audioClip clipAutoCrossfade="true" crossFadeHeadClipID="-1" crossFadeTailClipID="-1" endPoint="360685" fileID="1" hue="-1" id="1" lockedInTime="false" looped="false" name="Track 1_002" offline="false" select="false" sourceInPoint="76174" sourceOutPoint="403370" startPoint="33489" zOrder="2145914906">
          <component componentGuid="7fdb1426-fbe0-4e75-8171-8fe760a5aaf4" componentID="Audition.Fader" id="clipGain" name="volume" powered="true">
            <parameter index="0" name="volume" parameterValue="1.7502387">
              <parameterKeyframes enableSplines="false">
                <parameterKeyframe sampleOffset="74899" select="false" type="linear" value="0.4792337"/>
                <parameterKeyframe sampleOffset="75454" select="true" type="linear" value="0.65"/>
                <parameterKeyframe sampleOffset="96896" select="false" type="linear" value="0.7940901"/>
              </parameterKeyframes>
            </parameter>
            <parameter index="1" name="static gain" parameterValue="1"/>
          </component>
          <component componentGuid="dd98d646-0123-4d8c-94f1-340acece0663" componentID="Audition.Mute" id="clipMute" name="Mute" powered="true">
            <parameter index="0" parameterValue="0"/>
            <parameter index="1" name="mute" parameterValue="0"/>
          </component>
          <component componentGuid="b539a66f-b77a-4058-8d3c-cffcc19108d2" componentID="Audition.StereoPanner" id="clipPan" name="StereoPanner" powered="true">
            <parameter index="0" name="Pan" parameterValue="0"/>
          </component>
          <fadeIn crossFadeLinkType="linkedAsymmetric" endPoint="0" shape="14" startPoint="0" type="log"/>
          <fadeOut crossFadeLinkType="linkedAsymmetric" endPoint="327196" shape="19" startPoint="313125" type="log"/>
          <editParameter parameterIndex="0" slotIndex="4294967281"/>
          <editParameter parameterIndex="0" slotIndex="4294967280"/>
          <channelMap>
            <channel index="0" sourceIndex="0"/>
          </channelMap>
        </audioClip>
        <audioClip clipAutoCrossfade="true" crossFadeHeadClipID="-1" crossFadeTailClipID="-1" endPoint="706177" fileID="1" hue="-1" id="2" lockedInTime="false" looped="false" name="Track 1_002" offline="false" select="false" sourceInPoint="403370" sourceOutPoint="730953" startPoint="378594" zOrder="2145914913">
          <component componentGuid="1c38b538-5b86-4b2e-a39d-05919f9c9991" componentID="Audition.Fader" id="clipGain" name="volume" powered="true">
            <parameter index="0" name="volume" parameterValue="1.7502387">
              <parameterKeyframes enableSplines="false">
                <parameterKeyframe sampleOffset="74899" select="false" type="linear" value="0.4792337"/>
                <parameterKeyframe sampleOffset="75454" select="false" type="linear" value="0.65"/>
                <parameterKeyframe sampleOffset="96896" select="false" type="linear" value="0.7940901"/>
              </parameterKeyframes>
            </parameter>
            <parameter index="1" name="static gain" parameterValue="1"/>
          </component>
          <component componentGuid="460ff654-0fa4-4ce8-87a9-11c2ba8cfe63" componentID="Audition.Mute" id="clipMute" name="Mute" powered="true">
            <parameter index="0" parameterValue="0"/>
            <parameter index="1" name="mute" parameterValue="0"/>
          </component>
          <component componentGuid="3b2aa3c4-f2c9-41d9-af0d-e0d52411ba06" componentID="Audition.StereoPanner" id="clipPan" name="StereoPanner" powered="true">
            <parameter index="0" name="Pan" parameterValue="0"/>
          </component>
          <fadeIn crossFadeLinkType="linkedAsymmetric" endPoint="21746" shape="19" startPoint="0" type="log"/>
          <fadeOut crossFadeLinkType="linkedAsymmetric" endPoint="327583" shape="19" startPoint="312233" type="log"/>
          <editParameter parameterIndex="0" slotIndex="4294967281"/>
          <editParameter parameterIndex="0" slotIndex="4294967280"/>
          <channelMap>
            <channel index="0" sourceIndex="0"/>
          </channelMap>
        </audioClip>
        <audioClip clipAutoCrossfade="true" crossFadeHeadClipID="-1" crossFadeTailClipID="-1" endPoint="1063301" fileID="1" hue="-1" id="3" lockedInTime="false" looped="false" name="Track 1_002" offline="false" select="false" sourceInPoint="730953" sourceOutPoint="1067610" startPoint="726644" zOrder="2145914921">
          <component componentGuid="d4a8fac6-b1a8-4d29-99c3-39fed91ed402" componentID="Audition.Fader" id="clipGain" name="volume" powered="true">
            <parameter index="0" name="volume" parameterValue="1.7502387">
              <parameterKeyframes enableSplines="false">
                <parameterKeyframe sampleOffset="74899" select="false" type="linear" value="0.4792337"/>
                <parameterKeyframe sampleOffset="75454" select="false" type="linear" value="0.65"/>
                <parameterKeyframe sampleOffset="96896" select="false" type="linear" value="0.7940901"/>
              </parameterKeyframes>
            </parameter>
            <parameter index="1" name="static gain" parameterValue="1"/>
          </component>
          <component componentGuid="6c5062b2-6ee9-4f78-aaaf-c17b4a5a8644" componentID="Audition.Mute" id="clipMute" name="Mute" powered="true">
            <parameter index="0" parameterValue="0"/>
            <parameter index="1" name="mute" parameterValue="0"/>
          </component>
          <component componentGuid="f30635ff-9298-4f35-ac04-7ac8c3230621" componentID="Audition.StereoPanner" id="clipPan" name="StereoPanner" powered="true">
            <parameter index="0" name="Pan" parameterValue="0"/>
          </component>
          <fadeIn crossFadeLinkType="linkedAsymmetric" endPoint="17908" shape="19" startPoint="0" type="log"/>
          <fadeOut crossFadeLinkType="linkedAsymmetric" endPoint="336657" shape="19" startPoint="322586" type="log"/>
          <editParameter parameterIndex="0" slotIndex="4294967281"/>
          <editParameter parameterIndex="0" slotIndex="4294967280"/>
          <channelMap>
            <channel index="0" sourceIndex="0"/>
          </channelMap>
        </audioClip>
        <audioClip clipAutoCrossfade="true" crossFadeHeadClipID="-1" crossFadeTailClipID="-1" endPoint="1413008" fileID="1" hue="-1" id="4" lockedInTime="false" looped="false" name="Track 1_002" offline="false" select="false" sourceInPoint="1067610" sourceOutPoint="1407084" startPoint="1073534" zOrder="2145914926">
          <component componentGuid="413182bc-cb5e-4439-a31f-1ea5fd9a76ce" componentID="Audition.Fader" id="clipGain" name="volume" powered="true">
            <parameter index="0" name="volume" parameterValue="1.7502387">
              <parameterKeyframes enableSplines="false">
                <parameterKeyframe sampleOffset="74899" select="false" type="linear" value="0.4792337"/>
                <parameterKeyframe sampleOffset="75454" select="false" type="linear" value="0.65"/>
                <parameterKeyframe sampleOffset="96896" select="false" type="linear" value="0.7940901"/>
              </parameterKeyframes>
            </parameter>
            <parameter index="1" name="static gain" parameterValue="1"/>
          </component>
          <component componentGuid="ead94035-56cd-4faf-8b9a-8b009dd53654" componentID="Audition.Mute" id="clipMute" name="Mute" powered="true">
            <parameter index="0" parameterValue="0"/>
            <parameter index="1" name="mute" parameterValue="0"/>
          </component>
          <component componentGuid="d3450b1b-915a-489a-8d80-8eb641c2d897" componentID="Audition.StereoPanner" id="clipPan" name="StereoPanner" powered="true">
            <parameter index="0" name="Pan" parameterValue="0"/>
          </component>
          <fadeIn crossFadeLinkType="linkedAsymmetric" endPoint="14071" shape="19" startPoint="0" type="log"/>
          <fadeOut crossFadeLinkType="linkedAsymmetric" endPoint="339474" shape="19" startPoint="319007" type="log"/>
          <editParameter parameterIndex="0" slotIndex="4294967281"/>
          <editParameter parameterIndex="0" slotIndex="4294967280"/>
          <channelMap>
            <channel index="0" sourceIndex="0"/>
          </channelMap>
        </audioClip>
        <audioClip clipAutoCrossfade="true" crossFadeHeadClipID="-1" crossFadeTailClipID="-1" endPoint="1541560" fileID="1" hue="-1" id="5" lockedInTime="false" looped="false" name="Track 1_002" offline="false" select="false" sourceInPoint="1423795" sourceOutPoint="1552347" startPoint="1413008" zOrder="2145914929">
          <component componentGuid="e54ac464-25a6-4e43-8388-61e4cbc8c53d" componentID="Audition.Fader" id="clipGain" name="volume" powered="true">
            <parameter index="0" name="volume" parameterValue="1.7502387"/>
            <parameter index="1" name="static gain" parameterValue="1"/>
          </component>
          <component componentGuid="e647b34e-969d-4743-94c4-2cc41680ec51" componentID="Audition.Mute" id="clipMute" name="Mute" powered="true">
            <parameter index="0" parameterValue="0"/>
            <parameter index="1" name="mute" parameterValue="0"/>
          </component>
          <component componentGuid="80a68419-f122-4796-9a17-6e07f9b0fad7" componentID="Audition.StereoPanner" id="clipPan" name="StereoPanner" powered="true">
            <parameter index="0" name="Pan" parameterValue="0"/>
          </component>
          <fadeIn crossFadeLinkType="linkedAsymmetric" endPoint="16629" shape="19" startPoint="0" type="log"/>
          <fadeOut crossFadeLinkType="linkedAsymmetric" endPoint="128552" shape="12" startPoint="128552" type="log"/>
          <editParameter parameterIndex="0" slotIndex="4294967281"/>
          <editParameter parameterIndex="0" slotIndex="4294967280"/>
          <channelMap>
            <channel index="0" sourceIndex="0"/>
          </channelMap>
        </audioClip>
        <audioClip clipAutoCrossfade="true" crossFadeHeadClipID="-1" crossFadeTailClipID="-1" endPoint="1650311" fileID="1" hue="-1" id="6" lockedInTime="false" looped="false" name="Track 1_002" offline="false" select="false" sourceInPoint="1568955" sourceOutPoint="1677706" startPoint="1541560" zOrder="2145914709">
          <component componentGuid="a2e1bdf4-1bcf-4441-81f0-112fa824f528" componentID="Audition.Fader" id="clipGain" name="volume" powered="true">
            <parameter index="0" name="volume" parameterValue="1.6826049"/>
            <parameter index="1" name="static gain" parameterValue="1"/>
          </component>
          <component componentGuid="c3b3659e-eabd-4d99-9edf-8f1a33fcee29" componentID="Audition.Mute" id="clipMute" name="Mute" powered="true">
            <parameter index="0" parameterValue="0"/>
            <parameter index="1" name="mute" parameterValue="0"/>
          </component>
          <component componentGuid="8614b444-e59f-41a0-8550-fc22084f36b6" componentID="Audition.StereoPanner" id="clipPan" name="StereoPanner" powered="true">
            <parameter index="0" name="Pan" parameterValue="0"/>
          </component>
          <fadeIn crossFadeLinkType="linkedAsymmetric" endPoint="0" shape="19" startPoint="0" type="log"/>
          <fadeOut crossFadeLinkType="linkedAsymmetric" endPoint="108751" shape="12" startPoint="25121" type="log"/>
          <editParameter parameterIndex="0" slotIndex="4294967281"/>
          <editParameter parameterIndex="0" slotIndex="4294967280"/>
          <channelMap>
            <channel index="0" sourceIndex="0"/>
          </channelMap>
        </audioClip>
        <audioClip clipAutoCrossfade="true" crossFadeHeadClipID="-1" crossFadeTailClipID="-1" endPoint="1732623" fileID="2" hue="-1" id="7" lockedInTime="false" looped="false" name="Eddie_004" offline="false" select="false" sourceInPoint="64961" sourceOutPoint="111884" startPoint="1685700" zOrder="2145914930">
          <component componentGuid="123bcd79-29a7-4bbf-ba61-d113bbe72a82" componentID="Audition.Fader" id="clipGain" name="volume" powered="true">
            <parameter index="0" name="volume" parameterValue="1.8218802"/>
            <parameter index="1" name="static gain" parameterValue="1"/>
          </component>
          <component componentGuid="42b75f49-f6e3-4d9e-85dc-06b214d5f5a2" componentID="Audition.Mute" id="clipMute" name="Mute" powered="true">
            <parameter index="0" parameterValue="0"/>
            <parameter index="1" name="mute" parameterValue="0"/>
          </component>
          <component componentGuid="b0cc1118-b172-401c-b623-2635595fa7ee" componentID="Audition.StereoPanner" id="clipPan" name="StereoPanner" powered="true">
            <parameter index="0" name="Pan" parameterValue="0"/>
          </component>
          <fadeIn crossFadeLinkType="linkedAsymmetric" endPoint="10347" shape="14" startPoint="0" type="log"/>
          <fadeOut crossFadeLinkType="linkedAsymmetric" endPoint="46923" shape="0" startPoint="46923" type="cosine"/>
          <take sourceInPoint="0"/>
          <editParameter parameterIndex="0" slotIndex="4294967281"/>
          <editParameter parameterIndex="0" slotIndex="4294967280"/>
          <channelMap>
            <channel index="0" sourceIndex="0"/>
          </channelMap>
        </audioClip>
        <audioClip clipAutoCrossfade="true" crossFadeHeadClipID="-1" crossFadeTailClipID="-1" endPoint="1766054" fileID="3" hue="-1" id="8" lockedInTime="false" looped="false" name="Eddie_007" offline="false" select="false" sourceInPoint="102474" sourceOutPoint="135905" startPoint="1732623" zOrder="2145914522">
          <component componentGuid="1fe49bd1-7a89-4691-937a-d82fa008ba65" componentID="Audition.Fader" id="clipGain" name="volume" powered="true">
            <parameter index="0" name="volume" parameterValue="1.7502371"/>
            <parameter index="1" name="static gain" parameterValue="1"/>
          </component>
          <component componentGuid="4cc8cccf-f22c-4d4f-be76-bfbfc620ba46" componentID="Audition.Mute" id="clipMute" name="Mute" powered="true">
            <parameter index="0" parameterValue="0"/>
            <parameter index="1" name="mute" parameterValue="0"/>
          </component>
          <component componentGuid="f2ad5e91-f79c-42ce-a6ae-758dc66b52cc" componentID="Audition.StereoPanner" id="clipPan" name="StereoPanner" powered="true">
            <parameter index="0" name="Pan" parameterValue="0"/>
          </component>
          <fadeIn crossFadeLinkType="linkedAsymmetric" endPoint="0" shape="0" startPoint="0" type="cosine"/>
          <fadeOut crossFadeLinkType="linkedAsymmetric" endPoint="33431" shape="7" startPoint="15792" type="log"/>
          <editParameter parameterIndex="0" slotIndex="4294967281"/>
          <editParameter parameterIndex="0" slotIndex="4294967280"/>
          <channelMap>
            <channel index="0" sourceIndex="0"/>
          </channelMap>
        </audioClip>
        <audioClip clipAutoCrossfade="true" crossFadeHeadClipID="-1" crossFadeTailClipID="-1" endPoint="1885107" fileID="0" hue="-1" id="9" lockedInTime="false" looped="false" name="Track 3_014" offline="false" select="false" sourceInPoint="241366" sourceOutPoint="274855" startPoint="1851618" zOrder="2145914941">
          <component componentGuid="74252149-3b03-402c-99f5-16f29babf7da" componentID="Audition.Fader" id="clipGain" name="volume" powered="true">
            <parameter index="0" name="volume" parameterValue="1"/>
            <parameter index="1" name="static gain" parameterValue="1"/>
          </component>
          <component componentGuid="7029fac9-157e-44a2-8518-e70ed0770543" componentID="Audition.Mute" id="clipMute" name="Mute" powered="true">
            <parameter index="0" parameterValue="0"/>
            <parameter index="1" name="mute" parameterValue="0"/>
          </component>
          <component componentGuid="1dd4860d-6435-4ca7-a6fc-864b2c2e0140" componentID="Audition.StereoPanner" id="clipPan" name="StereoPanner" powered="true">
            <parameter index="0" name="Pan" parameterValue="0"/>
          </component>
          <fadeIn crossFadeLinkType="linkedAsymmetric" endPoint="6627" shape="19" startPoint="0" type="log"/>
          <fadeOut crossFadeLinkType="linkedAsymmetric" endPoint="33489" shape="19" startPoint="33489" type="log"/>
          <clipStretch adaptiveWindowSize="37" pitchAdjustment="0" preserveFormants="true" stretchMode="realtime" stretchQuality="high" stretchRatio="0.8555101746240038" stretchType="solo" transientSensitivity="40"/>
          <editParameter parameterIndex="0" slotIndex="4294967281"/>
          <editParameter parameterIndex="0" slotIndex="4294967280"/>
          <channelMap>
            <channel index="0" sourceIndex="0"/>
          </channelMap>
        </audioClip>
        <audioClip clipAutoCrossfade="true" crossFadeHeadClipID="-1" crossFadeTailClipID="11" endPoint="2002136" fileID="2" hue="-1" id="10" lockedInTime="false" looped="false" name="Eddie_004" offline="false" select="false" sourceInPoint="183828" sourceOutPoint="300857" startPoint="1885107" zOrder="2145914528">
          <component componentGuid="06178db1-2055-455d-acd0-eebe986e8dc2" componentID="Audition.Fader" id="clipGain" name="volume" powered="true">
            <parameter index="0" name="volume" parameterValue="1">
              <parameterKeyframes enableSplines="false">
                <parameterKeyframe sampleOffset="180554" select="false" type="linear" value="0.65"/>
                <parameterKeyframe sampleOffset="202678" select="true" type="linear" value="0.7670732"/>
              </parameterKeyframes>
            </parameter>
            <parameter index="1" name="static gain" parameterValue="1"/>
          </component>
          <component componentGuid="f57691e1-5c53-47c6-8bc0-58ee7af30b55" componentID="Audition.Mute" id="clipMute" name="Mute" powered="true">
            <parameter index="0" parameterValue="0"/>
            <parameter index="1" name="mute" parameterValue="0"/>
          </component>
          <component componentGuid="537625cf-e311-4cb0-9f41-ec3bcf467091" componentID="Audition.StereoPanner" id="clipPan" name="StereoPanner" powered="true">
            <parameter index="0" name="Pan" parameterValue="0"/>
          </component>
          <fadeIn crossFadeLinkType="linkedAsymmetric" endPoint="0" shape="18" startPoint="0" type="log"/>
          <fadeOut crossFadeLinkType="linkedAsymmetric" endPoint="117029" shape="18" startPoint="116366" type="log"/>
          <editParameter parameterIndex="0" slotIndex="4294967281"/>
          <editParameter parameterIndex="0" slotIndex="4294967280"/>
          <channelMap>
            <channel index="0" sourceIndex="0"/>
          </channelMap>
        </audioClip>
        <audioClip clipAutoCrossfade="true" crossFadeHeadClipID="10" crossFadeTailClipID="12" endPoint="2095986" fileID="2" hue="-1" id="11" lockedInTime="false" looped="false" name="Eddie_004" offline="false" select="false" sourceInPoint="303143" sourceOutPoint="397656" startPoint="2001473" zOrder="2145914942">
          <component componentGuid="078d8346-2433-4ca7-804c-aab6d258bdea" componentID="Audition.Fader" id="clipGain" name="volume" powered="true">
            <parameter index="0" name="volume" parameterValue="1.5009887"/>
            <parameter index="1" name="static gain" parameterValue="1"/>
          </component>
          <component componentGuid="971c2043-c4e9-4468-bc55-7568b4292d5c" componentID="Audition.Mute" id="clipMute" name="Mute" powered="true">
            <parameter index="0" parameterValue="0"/>
            <parameter index="1" name="mute" parameterValue="0"/>
          </component>
          <component componentGuid="344c9e6f-753a-4d91-b21c-965088257219" componentID="Audition.StereoPanner" id="clipPan" name="StereoPanner" powered="true">
            <parameter index="0" name="Pan" parameterValue="0"/>
          </component>
          <fadeIn crossFadeLinkType="linkedAsymmetric" endPoint="663" shape="19" startPoint="0" type="log"/>
          <fadeOut crossFadeLinkType="linkedAsymmetric" endPoint="94513" shape="18" startPoint="92574" type="log"/>
          <editParameter parameterIndex="0" slotIndex="4294967281"/>
          <editParameter parameterIndex="0" slotIndex="4294967280"/>
          <channelMap>
            <channel index="0" sourceIndex="0"/>
          </channelMap>
        </audioClip>
        <audioClip clipAutoCrossfade="true" crossFadeHeadClipID="11" crossFadeTailClipID="-1" endPoint="2252891" fileID="2" hue="-1" id="12" lockedInTime="false" looped="false" name="Eddie_004" offline="false" select="false" sourceInPoint="627567" sourceOutPoint="786411" startPoint="2094047" zOrder="2145914944">
          <component componentGuid="c0250048-687e-4d83-a36e-4c9e53b666f2" componentID="Audition.Fader" id="clipGain" name="volume" powered="true">
            <parameter index="0" name="volume" parameterValue="1.4467394"/>
            <parameter index="1" name="static gain" parameterValue="1"/>
          </component>
          <component componentGuid="3ac402db-1010-4561-b7e1-012a9c75a35e" componentID="Audition.Mute" id="clipMute" name="Mute" powered="true">
            <parameter index="0" parameterValue="0"/>
            <parameter index="1" name="mute" parameterValue="0"/>
          </component>
          <component componentGuid="e17ec80c-a50a-4d46-994d-abd86ade521c" componentID="Audition.StereoPanner" id="clipPan" name="StereoPanner" powered="true">
            <parameter index="0" name="Pan" parameterValue="0"/>
          </component>
          <fadeIn crossFadeLinkType="linkedAsymmetric" endPoint="1939" shape="19" startPoint="0" type="log"/>
          <fadeOut crossFadeLinkType="linkedAsymmetric" endPoint="158844" shape="6" startPoint="141909" type="log"/>
          <editParameter parameterIndex="0" slotIndex="4294967281"/>
          <editParameter parameterIndex="0" slotIndex="4294967280"/>
          <channelMap>
            <channel index="0" sourceIndex="0"/>
          </channelMap>
        </audioClip>
        <audioClip clipAutoCrossfade="true" crossFadeHeadClipID="-1" crossFadeTailClipID="-1" endPoint="2542594" fileID="2" hue="-1" id="13" lockedInTime="false" looped="false" name="Eddie_004" offline="false" select="false" sourceInPoint="814447" sourceOutPoint="1015997" startPoint="2341044" zOrder="2145914946">
          <component componentGuid="f0bd2955-daa9-41dd-988b-1325b18dcff2" componentID="Audition.Fader" id="clipGain" name="volume" powered="true">
            <parameter index="0" name="volume" parameterValue="1.6186898"/>
            <parameter index="1" name="static gain" parameterValue="1"/>
          </component>
          <component componentGuid="6bb03c9b-94c9-4f36-9fad-c985fa985b45" componentID="Audition.Mute" id="clipMute" name="Mute" powered="true">
            <parameter index="0" parameterValue="0"/>
            <parameter index="1" name="mute" parameterValue="0"/>
          </component>
          <component componentGuid="88b371fb-11f5-4f90-be5c-bcd2557027ba" componentID="Audition.StereoPanner" id="clipPan" name="StereoPanner" powered="true">
            <parameter index="0" name="Pan" parameterValue="0"/>
          </component>
          <fadeIn crossFadeLinkType="linkedAsymmetric" endPoint="35683" shape="13" startPoint="0" type="log"/>
          <fadeOut crossFadeLinkType="linkedAsymmetric" endPoint="201550" shape="19" startPoint="185563" type="log"/>
          <editParameter parameterIndex="0" slotIndex="4294967281"/>
          <editParameter parameterIndex="0" slotIndex="4294967280"/>
          <channelMap>
            <channel index="0" sourceIndex="0"/>
          </channelMap>
        </audioClip>
        <audioClip clipAutoCrossfade="true" crossFadeHeadClipID="-1" crossFadeTailClipID="-1" endPoint="2661332" fileID="0" hue="-1" id="14" lockedInTime="false" looped="false" name="Track 3_014" offline="false" select="false" sourceInPoint="241366" sourceOutPoint="274855" startPoint="2627843" zOrder="2145914536">
          <component componentGuid="9dad5bfb-7051-4c23-afc6-03008e7375b0" componentID="Audition.Fader" id="clipGain" name="volume" powered="true">
            <parameter index="0" name="volume" parameterValue="1"/>
            <parameter index="1" name="static gain" parameterValue="1"/>
          </component>
          <component componentGuid="e861895b-4e52-44ed-999e-d1a0168a3a4b" componentID="Audition.Mute" id="clipMute" name="Mute" powered="true">
            <parameter index="0" parameterValue="0"/>
            <parameter index="1" name="mute" parameterValue="0"/>
          </component>
          <component componentGuid="2264781a-1d36-4f65-8e70-e92b70c0136e" componentID="Audition.StereoPanner" id="clipPan" name="StereoPanner" powered="true">
            <parameter index="0" name="Pan" parameterValue="0"/>
          </component>
          <fadeIn crossFadeLinkType="linkedAsymmetric" endPoint="6627" shape="19" startPoint="0" type="log"/>
          <fadeOut crossFadeLinkType="linkedAsymmetric" endPoint="33489" shape="19" startPoint="33489" type="log"/>
          <clipStretch adaptiveWindowSize="37" pitchAdjustment="0" preserveFormants="true" stretchMode="realtime" stretchQuality="high" stretchRatio="0.8555101746240038" stretchType="solo" transientSensitivity="40"/>
          <editParameter parameterIndex="0" slotIndex="4294967281"/>
          <editParameter parameterIndex="0" slotIndex="4294967280"/>
          <channelMap>
            <channel index="0" sourceIndex="0"/>
          </channelMap>
        </audioClip>
        <audioClip clipAutoCrossfade="true" crossFadeHeadClipID="-1" crossFadeTailClipID="-1" endPoint="2702449" fileID="4" hue="-1" id="15" lockedInTime="false" looped="false" name="Eddie_010" offline="false" select="false" sourceInPoint="57246" sourceOutPoint="98363" startPoint="2661332" zOrder="2145914539">
          <component componentGuid="11afb27c-9517-4f44-b9d1-72abdc43a263" componentID="Audition.Fader" id="clipGain" name="volume" powered="true">
            <parameter index="0" name="volume" parameterValue="1">
              <parameterKeyframes enableSplines="false">
                <parameterKeyframe sampleOffset="55926" select="false" type="linear" value="0.65"/>
                <parameterKeyframe sampleOffset="67505" select="true" type="linear" value="0.7670732"/>
              </parameterKeyframes>
            </parameter>
            <parameter index="1" name="static gain" parameterValue="1"/>
          </component>
          <component componentGuid="1841125e-53df-49ef-b2e6-076f29869d3c" componentID="Audition.Mute" id="clipMute" name="Mute" powered="true">
            <parameter index="0" parameterValue="0"/>
            <parameter index="1" name="mute" parameterValue="0"/>
          </component>
          <component componentGuid="c0b93174-80da-4eee-9a90-291494a7065f" componentID="Audition.StereoPanner" id="clipPan" name="StereoPanner" powered="true">
            <parameter index="0" name="Pan" parameterValue="0"/>
          </component>
          <fadeIn crossFadeLinkType="linkedAsymmetric" endPoint="0" shape="18" startPoint="0" type="log"/>
          <fadeOut crossFadeLinkType="linkedAsymmetric" endPoint="41117" shape="0" startPoint="41117" type="cosine"/>
          <take sourceInPoint="0"/>
          <editParameter parameterIndex="0" slotIndex="4294967281"/>
          <editParameter parameterIndex="0" slotIndex="4294967280"/>
          <channelMap>
            <channel index="0" sourceIndex="0"/>
          </channelMap>
        </audioClip>
        <audioClip clipAutoCrossfade="true" crossFadeHeadClipID="-1" crossFadeTailClipID="-1" endPoint="2820408" fileID="5" hue="-1" id="16" lockedInTime="false" looped="false" name="Eddie_009" offline="false" select="false" sourceInPoint="240383" sourceOutPoint="358342" startPoint="2702449" zOrder="2145914947">
          <component componentGuid="6e789b87-5423-4c38-b9e3-91677d40c585" componentID="Audition.Fader" id="clipGain" name="volume" powered="true">
            <parameter index="0" name="volume" parameterValue="1.5009878"/>
            <parameter index="1" name="static gain" parameterValue="1"/>
          </component>
          <component componentGuid="a9e3254d-3adf-488e-9d55-7a01f83cfe52" componentID="Audition.Mute" id="clipMute" name="Mute" powered="true">
            <parameter index="0" parameterValue="0"/>
            <parameter index="1" name="mute" parameterValue="0"/>
          </component>
          <component componentGuid="f91b49cb-5ba1-41fa-920b-b41a0f782ee1" componentID="Audition.StereoPanner" id="clipPan" name="StereoPanner" powered="true">
            <parameter index="0" name="Pan" parameterValue="0"/>
          </component>
          <fadeIn crossFadeLinkType="linkedAsymmetric" endPoint="0" shape="19" startPoint="0" type="log"/>
          <fadeOut crossFadeLinkType="linkedAsymmetric" endPoint="117959" shape="19" startPoint="109966" type="log"/>
          <take sourceInPoint="0"/>
          <editParameter parameterIndex="0" slotIndex="4294967281"/>
          <editParameter parameterIndex="0" slotIndex="4294967280"/>
          <channelMap>
            <channel index="0" sourceIndex="0"/>
          </channelMap>
        </audioClip>
        <audioClip clipAutoCrossfade="true" crossFadeHeadClipID="-1" crossFadeTailClipID="-1" endPoint="2998800" fileID="5" hue="-1" id="17" lockedInTime="false" looped="false" name="Eddie_009" offline="false" select="false" sourceInPoint="359863" sourceOutPoint="497359" startPoint="2861304" zOrder="2145914949">
          <component componentGuid="cb6dba1e-7bef-4647-b257-8a081509c18a" componentID="Audition.Fader" id="clipGain" name="volume" powered="true">
            <parameter index="0" name="volume" parameterValue="1.5582311"/>
            <parameter index="1" name="static gain" parameterValue="1"/>
          </component>
          <component componentGuid="01edb886-5e94-45b3-87aa-70385e0d0a5d" componentID="Audition.Mute" id="clipMute" name="Mute" powered="true">
            <parameter index="0" parameterValue="0"/>
            <parameter index="1" name="mute" parameterValue="0"/>
          </component>
          <component componentGuid="ee2af94f-3001-4ce9-b27b-65e2844b838a" componentID="Audition.StereoPanner" id="clipPan" name="StereoPanner" powered="true">
            <parameter index="0" name="Pan" parameterValue="0"/>
          </component>
          <fadeIn crossFadeLinkType="linkedAsymmetric" endPoint="28966" shape="19" startPoint="0" type="log"/>
          <fadeOut crossFadeLinkType="linkedAsymmetric" endPoint="137496" shape="8" startPoint="123693" type="log"/>
          <editParameter parameterIndex="0" slotIndex="4294967281"/>
          <editParameter parameterIndex="0" slotIndex="4294967280"/>
          <channelMap>
            <channel index="0" sourceIndex="0"/>
          </channelMap>
        </audioClip>
        <audioClip clipAutoCrossfade="true" crossFadeHeadClipID="-1" crossFadeTailClipID="-1" endPoint="3050810" fileID="6" hue="-1" id="18" lockedInTime="false" looped="false" name="SomeoneCallingLevyDing 44100 1" offline="false" select="false" sourceInPoint="0" sourceOutPoint="21843" startPoint="3028967" zOrder="2145914950">
          <component componentGuid="3bcfd718-9300-4859-955e-af92c33ef61a" componentID="Audition.Fader" id="clipGain" name="volume" powered="true">
            <parameter index="0" name="volume" parameterValue="1"/>
            <parameter index="1" name="static gain" parameterValue="1"/>
          </component>
          <component componentGuid="b1e0778a-791c-4681-b1a3-740e228bbf98" componentID="Audition.Mute" id="clipMute" name="Mute" powered="true">
            <parameter index="0" parameterValue="0"/>
            <parameter index="1" name="mute" parameterValue="0"/>
          </component>
          <component componentGuid="f7c5c6bd-9dda-4596-83eb-aa86ca8dd31e" componentID="Audition.StereoPanner" id="clipPan" name="StereoPanner" powered="true">
            <parameter index="0" name="Pan" parameterValue="0"/>
          </component>
          <fadeIn crossFadeLinkType="linkedAsymmetric" endPoint="4102" shape="19" startPoint="0" type="log"/>
          <fadeOut crossFadeLinkType="linkedAsymmetric" endPoint="21843" shape="19" startPoint="21843" type="log"/>
          <editParameter parameterIndex="0" slotIndex="4294967281"/>
          <editParameter parameterIndex="0" slotIndex="4294967280"/>
          <channelMap>
            <channel index="0" sourceIndex="0"/>
            <channel index="1" sourceIndex="1"/>
          </channelMap>
        </audioClip>
        <audioClip clipAutoCrossfade="true" crossFadeHeadClipID="-1" crossFadeTailClipID="-1" endPoint="3220347" fileID="7" hue="-1" id="19" lockedInTime="false" looped="false" name="Eddie_011" offline="false" select="false" sourceInPoint="215222" sourceOutPoint="384759" startPoint="3050810" zOrder="2145914961">
          <component componentGuid="dc02495b-66ca-4873-85c6-edc5d731b2ba" componentID="Audition.Fader" id="clipGain" name="volume" powered="true">
            <parameter index="0" name="volume" parameterValue="1">
              <parameterKeyframes enableSplines="false">
                <parameterKeyframe sampleOffset="214567" select="false" type="linear" value="0.65"/>
                <parameterKeyframe sampleOffset="232742" select="false" type="linear" value="0.767073"/>
              </parameterKeyframes>
            </parameter>
            <parameter index="1" name="static gain" parameterValue="1"/>
          </component>
          <component componentGuid="ecc9ef93-933b-468f-9e5c-56fbdefde7f9" componentID="Audition.Mute" id="clipMute" name="Mute" powered="true">
            <parameter index="0" parameterValue="0"/>
            <parameter index="1" name="mute" parameterValue="0"/>
          </component>
          <component componentGuid="8c35e209-8d22-4abf-a3ac-b6848a84d35b" componentID="Audition.StereoPanner" id="clipPan" name="StereoPanner" powered="true">
            <parameter index="0" name="Pan" parameterValue="0"/>
          </component>
          <fadeIn crossFadeLinkType="linkedAsymmetric" endPoint="0" shape="18" startPoint="0" type="log"/>
          <fadeOut crossFadeLinkType="linkedAsymmetric" endPoint="169537" shape="7" startPoint="145322" type="log"/>
          <editParameter parameterIndex="0" slotIndex="4294967280"/>
          <editParameter parameterIndex="0" slotIndex="4294967281"/>
          <channelMap>
            <channel index="0" sourceIndex="0"/>
          </channelMap>
        </audioClip>
        <audioClip clipAutoCrossfade="true" crossFadeHeadClipID="-1" crossFadeTailClipID="-1" endPoint="3324381" fileID="0" hue="-1" id="20" lockedInTime="false" looped="false" name="Track 3_014" offline="false" select="false" sourceInPoint="241366" sourceOutPoint="274855" startPoint="3290892" zOrder="2145914552">
          <component componentGuid="688614be-0c78-4e79-a650-95be2ae2e94e" componentID="Audition.Fader" id="clipGain" name="volume" powered="true">
            <parameter index="0" name="volume" parameterValue="1"/>
            <parameter index="1" name="static gain" parameterValue="1"/>
          </component>
          <component componentGuid="8a7e8e31-8d99-4f4b-95ea-75152a0a1107" componentID="Audition.Mute" id="clipMute" name="Mute" powered="true">
            <parameter index="0" parameterValue="0"/>
            <parameter index="1" name="mute" parameterValue="0"/>
          </component>
          <component componentGuid="475cb76f-2d52-45e0-af51-3937d67c0258" componentID="Audition.StereoPanner" id="clipPan" name="StereoPanner" powered="true">
            <parameter index="0" name="Pan" parameterValue="0"/>
          </component>
          <fadeIn crossFadeLinkType="linkedAsymmetric" endPoint="6627" shape="19" startPoint="0" type="log"/>
          <fadeOut crossFadeLinkType="linkedAsymmetric" endPoint="33489" shape="18" startPoint="33489" type="log"/>
          <clipStretch adaptiveWindowSize="37" pitchAdjustment="0" preserveFormants="true" stretchMode="realtime" stretchQuality="high" stretchRatio="0.8555101746240038" stretchType="solo" transientSensitivity="40"/>
          <editParameter parameterIndex="0" slotIndex="4294967281"/>
          <editParameter parameterIndex="0" slotIndex="4294967280"/>
          <channelMap>
            <channel index="0" sourceIndex="0"/>
          </channelMap>
        </audioClip>
        <audioClip clipAutoCrossfade="true" crossFadeHeadClipID="-1" crossFadeTailClipID="-1" endPoint="3456531" fileID="8" hue="-1" id="21" lockedInTime="false" looped="false" name="Eddie_008" offline="false" select="false" sourceInPoint="638720" sourceOutPoint="770870" startPoint="3324381" zOrder="2145914988">
          <component componentGuid="223bb730-992a-461e-9095-4b9fa4f7d5cd" componentID="Audition.Fader" id="clipGain" name="volume" powered="true">
            <parameter index="0" name="volume" parameterValue="1">
              <parameterKeyframes enableSplines="false">
                <parameterKeyframe sampleOffset="640535" select="false" type="linear" value="0.65"/>
                <parameterKeyframe sampleOffset="655380" select="true" type="linear" value="0.7760787"/>
              </parameterKeyframes>
            </parameter>
            <parameter index="1" name="static gain" parameterValue="1"/>
          </component>
          <component componentGuid="e052ed47-28be-43c3-a413-6957cda0b94b" componentID="Audition.Mute" id="clipMute" name="Mute" powered="true">
            <parameter index="0" parameterValue="0"/>
            <parameter index="1" name="mute" parameterValue="0"/>
          </component>
          <component componentGuid="7bdec9b9-93ed-4316-88b2-b49a20ebbc42" componentID="Audition.StereoPanner" id="clipPan" name="StereoPanner" powered="true">
            <parameter index="0" name="Pan" parameterValue="0"/>
          </component>
          <fadeIn crossFadeLinkType="linkedAsymmetric" endPoint="0" shape="19" startPoint="0" type="log"/>
          <fadeOut crossFadeLinkType="linkedAsymmetric" endPoint="132150" shape="19" startPoint="120638" type="log"/>
          <editParameter parameterIndex="0" slotIndex="4294967281"/>
          <editParameter parameterIndex="0" slotIndex="4294967280"/>
          <channelMap>
            <channel index="0" sourceIndex="0"/>
          </channelMap>
        </audioClip>
        <audioClip clipAutoCrossfade="true" crossFadeHeadClipID="-1" crossFadeTailClipID="-1" endPoint="3541009" fileID="8" hue="-1" id="22" lockedInTime="false" looped="false" name="Eddie_008" offline="false" select="false" sourceInPoint="782975" sourceOutPoint="850824" startPoint="3473160" zOrder="2145914992">
          <component componentGuid="9d6c2a19-d852-44d7-95bf-a009b96bd2b1" componentID="Audition.Fader" id="clipGain" name="volume" powered="true">
            <parameter index="0" name="volume" parameterValue="0.5185999">
              <parameterKeyframes enableSplines="false">
                <parameterKeyframe sampleOffset="643249" select="false" type="linear" value="0.484437"/>
                <parameterKeyframe sampleOffset="657741" select="false" type="linear" value="0.65"/>
                <parameterKeyframe sampleOffset="782424" select="false" type="linear" value="0.0825342"/>
                <parameterKeyframe sampleOffset="804237" select="false" type="linear" value="0.7940901"/>
              </parameterKeyframes>
            </parameter>
            <parameter index="1" name="static gain" parameterValue="1"/>
          </component>
          <component componentGuid="a9bbd7bb-48fc-4f7d-bd17-9e42e485b14c" componentID="Audition.Mute" id="clipMute" name="Mute" powered="true">
            <parameter index="0" parameterValue="0"/>
            <parameter index="1" name="mute" parameterValue="0"/>
          </component>
          <component componentGuid="1406f33a-25d8-4cdd-939f-feb0acc0f449" componentID="Audition.StereoPanner" id="clipPan" name="StereoPanner" powered="true">
            <parameter index="0" name="Pan" parameterValue="0"/>
          </component>
          <fadeIn crossFadeLinkType="linkedAsymmetric" endPoint="0" shape="19" startPoint="0" type="log"/>
          <fadeOut crossFadeLinkType="linkedAsymmetric" endPoint="67849" shape="9" startPoint="54211" type="log"/>
          <editParameter parameterIndex="0" slotIndex="4294967281"/>
          <editParameter parameterIndex="0" slotIndex="4294967280"/>
          <channelMap>
            <channel index="0" sourceIndex="0"/>
          </channelMap>
        </audioClip>
        <audioClip clipAutoCrossfade="true" crossFadeHeadClipID="-1" crossFadeTailClipID="-1" endPoint="3607904" fileID="0" hue="-1" id="23" lockedInTime="false" looped="false" name="Track 3_014" offline="false" select="false" sourceInPoint="241366" sourceOutPoint="274855" startPoint="3574415" zOrder="2145914560">
          <component componentGuid="8dcf913d-c041-487d-adf0-17b56e2e967a" componentID="Audition.Fader" id="clipGain" name="volume" powered="true">
            <parameter index="0" name="volume" parameterValue="1"/>
            <parameter index="1" name="static gain" parameterValue="1"/>
          </component>
          <component componentGuid="0f3e8fb8-2679-4c15-8424-16d38ba33d00" componentID="Audition.Mute" id="clipMute" name="Mute" powered="true">
            <parameter index="0" parameterValue="0"/>
            <parameter index="1" name="mute" parameterValue="0"/>
          </component>
          <component componentGuid="42904323-1d52-4480-8a6a-0d3074f4a320" componentID="Audition.StereoPanner" id="clipPan" name="StereoPanner" powered="true">
            <parameter index="0" name="Pan" parameterValue="0"/>
          </component>
          <fadeIn crossFadeLinkType="linkedAsymmetric" endPoint="6627" shape="19" startPoint="0" type="log"/>
          <fadeOut crossFadeLinkType="linkedAsymmetric" endPoint="33489" shape="18" startPoint="33489" type="log"/>
          <clipStretch adaptiveWindowSize="37" pitchAdjustment="0" preserveFormants="true" stretchMode="realtime" stretchQuality="high" stretchRatio="0.8555101746240038" stretchType="solo" transientSensitivity="40"/>
          <editParameter parameterIndex="0" slotIndex="4294967281"/>
          <editParameter parameterIndex="0" slotIndex="4294967280"/>
          <channelMap>
            <channel index="0" sourceIndex="0"/>
          </channelMap>
        </audioClip>
        <audioClip clipAutoCrossfade="true" crossFadeHeadClipID="-1" crossFadeTailClipID="-1" endPoint="3730049" fileID="9" hue="-1" id="24" lockedInTime="false" looped="false" name="Eddie_013" offline="false" select="false" sourceInPoint="64445" sourceOutPoint="186590" startPoint="3607904" zOrder="2145914993">
          <component componentGuid="c7892ee2-dc46-49e9-93de-7e6e10c7b715" componentID="Audition.Fader" id="clipGain" name="volume" powered="true">
            <parameter index="0" name="volume" parameterValue="1">
              <parameterKeyframes enableSplines="false">
                <parameterKeyframe sampleOffset="62062" select="false" type="linear" value="0.65"/>
                <parameterKeyframe sampleOffset="79492" select="true" type="linear" value="0.7580674"/>
              </parameterKeyframes>
            </parameter>
            <parameter index="1" name="static gain" parameterValue="1"/>
          </component>
          <component componentGuid="9edc410f-5c76-4b23-9b95-888ecda17183" componentID="Audition.Mute" id="clipMute" name="Mute" powered="true">
            <parameter index="0" parameterValue="0"/>
            <parameter index="1" name="mute" parameterValue="0"/>
          </component>
          <component componentGuid="896fec68-0ea8-462a-952f-e5fd6a01ad5d" componentID="Audition.StereoPanner" id="clipPan" name="StereoPanner" powered="true">
            <parameter index="0" name="Pan" parameterValue="0"/>
          </component>
          <fadeIn crossFadeLinkType="linkedAsymmetric" endPoint="0" shape="18" startPoint="0" type="log"/>
          <fadeOut crossFadeLinkType="linkedAsymmetric" endPoint="122145" shape="12" startPoint="108854" type="log"/>
          <take sourceInPoint="0"/>
          <editParameter parameterIndex="0" slotIndex="4294967281"/>
          <editParameter parameterIndex="0" slotIndex="4294967280"/>
          <channelMap>
            <channel index="0" sourceIndex="0"/>
          </channelMap>
        </audioClip>
        <audioClip clipAutoCrossfade="true" crossFadeHeadClipID="-1" crossFadeTailClipID="-1" endPoint="3969000" fileID="9" hue="-1" id="25" lockedInTime="false" looped="false" name="Eddie_013" offline="false" select="false" sourceInPoint="214123" sourceOutPoint="368681" startPoint="3814442" zOrder="2145914994">
          <component componentGuid="b1026c96-2785-4ebe-a95c-f4183c2cce33" componentID="Audition.Fader" id="clipGain" name="volume" powered="true">
            <parameter index="0" name="volume" parameterValue="1.44674"/>
            <parameter index="1" name="static gain" parameterValue="1"/>
          </component>
          <component componentGuid="1d7e8d19-da62-40b2-97dc-a76034d079e8" componentID="Audition.Mute" id="clipMute" name="Mute" powered="true">
            <parameter index="0" parameterValue="0"/>
            <parameter index="1" name="mute" parameterValue="0"/>
          </component>
          <component componentGuid="b118430f-d196-4233-8fe3-5045fcb01c67" componentID="Audition.StereoPanner" id="clipPan" name="StereoPanner" powered="true">
            <parameter index="0" name="Pan" parameterValue="0"/>
          </component>
          <fadeIn crossFadeLinkType="linkedAsymmetric" endPoint="16140" shape="12" startPoint="0" type="log"/>
          <fadeOut crossFadeLinkType="linkedAsymmetric" endPoint="154558" shape="19" startPoint="128924" type="log"/>
          <editParameter parameterIndex="0" slotIndex="4294967281"/>
          <editParameter parameterIndex="0" slotIndex="4294967280"/>
          <channelMap>
            <channel index="0" sourceIndex="0"/>
          </channelMap>
        </audioClip>
        <audioClip clipAutoCrossfade="true" crossFadeHeadClipID="-1" crossFadeTailClipID="-1" endPoint="4062719" fileID="6" hue="-1" id="26" lockedInTime="false" looped="false" name="SomeoneCallingLevyDing 44100 1" offline="false" select="false" sourceInPoint="0" sourceOutPoint="21843" startPoint="4040876" zOrder="2145914567">
          <component componentGuid="4e13e1f4-3d36-47ce-87c3-64df9a5d7f94" componentID="Audition.Fader" id="clipGain" name="volume" powered="true">
            <parameter index="0" name="volume" parameterValue="1"/>
            <parameter index="1" name="static gain" parameterValue="1"/>
          </component>
          <component componentGuid="0aeb1562-39f4-4a86-ad76-076a78df14a3" componentID="Audition.Mute" id="clipMute" name="Mute" powered="true">
            <parameter index="0" parameterValue="0"/>
            <parameter index="1" name="mute" parameterValue="0"/>
          </component>
          <component componentGuid="9f220235-ce8e-4e4b-b338-c2587e03171f" componentID="Audition.StereoPanner" id="clipPan" name="StereoPanner" powered="true">
            <parameter index="0" name="Pan" parameterValue="0"/>
          </component>
          <fadeIn crossFadeLinkType="linkedAsymmetric" endPoint="4102" shape="19" startPoint="0" type="log"/>
          <fadeOut crossFadeLinkType="linkedAsymmetric" endPoint="21843" shape="19" startPoint="20228" type="log"/>
          <editParameter parameterIndex="0" slotIndex="4294967281"/>
          <editParameter parameterIndex="0" slotIndex="4294967280"/>
          <channelMap>
            <channel index="0" sourceIndex="0"/>
            <channel index="1" sourceIndex="1"/>
          </channelMap>
        </audioClip>
        <audioClip clipAutoCrossfade="true" crossFadeHeadClipID="-1" crossFadeTailClipID="-1" endPoint="4221081" fileID="9" hue="-1" id="27" lockedInTime="false" looped="false" name="Eddie_013" offline="false" select="false" sourceInPoint="387148" sourceOutPoint="545510" startPoint="4062719" zOrder="2145914995">
          <component componentGuid="1fa149af-097c-4253-8dc6-17a94ca9704d" componentID="Audition.Fader" id="clipGain" name="volume" powered="true">
            <parameter index="0" name="volume" parameterValue="1">
              <parameterKeyframes enableSplines="false">
                <parameterKeyframe sampleOffset="387379" select="false" type="linear" value="0.65"/>
                <parameterKeyframe sampleOffset="394648" select="true" type="linear" value="0.7940901"/>
              </parameterKeyframes>
            </parameter>
            <parameter index="1" name="static gain" parameterValue="1"/>
          </component>
          <component componentGuid="5992643e-e121-4812-8b7c-2dee67e13354" componentID="Audition.Mute" id="clipMute" name="Mute" powered="true">
            <parameter index="0" parameterValue="0"/>
            <parameter index="1" name="mute" parameterValue="0"/>
          </component>
          <component componentGuid="89eb7df4-4a6c-4e04-b112-3ecdcb78a0e7" componentID="Audition.StereoPanner" id="clipPan" name="StereoPanner" powered="true">
            <parameter index="0" name="Pan" parameterValue="0"/>
          </component>
          <fadeIn crossFadeLinkType="linkedAsymmetric" endPoint="0" shape="14" startPoint="0" type="log"/>
          <fadeOut crossFadeLinkType="linkedAsymmetric" endPoint="158362" shape="10" startPoint="146607" type="log"/>
          <editParameter parameterIndex="0" slotIndex="4294967281"/>
          <editParameter parameterIndex="0" slotIndex="4294967280"/>
          <channelMap>
            <channel index="0" sourceIndex="0"/>
          </channelMap>
        </audioClip>
        <audioClip clipAutoCrossfade="true" crossFadeHeadClipID="-1" crossFadeTailClipID="-1" endPoint="4334293" fileID="0" hue="-1" id="28" lockedInTime="false" looped="false" name="Track 3_014" offline="false" select="false" sourceInPoint="241366" sourceOutPoint="274855" startPoint="4300804" zOrder="2145914572">
          <component componentGuid="be7cb4de-20c7-4fd9-a243-7b929a4369f1" componentID="Audition.Fader" id="clipGain" name="volume" powered="true">
            <parameter index="0" name="volume" parameterValue="1"/>
            <parameter index="1" name="static gain" parameterValue="1"/>
          </component>
          <component componentGuid="e51cbcd7-4da9-4ec9-a6cb-3137eb1f8f82" componentID="Audition.Mute" id="clipMute" name="Mute" powered="true">
            <parameter index="0" parameterValue="0"/>
            <parameter index="1" name="mute" parameterValue="0"/>
          </component>
          <component componentGuid="a2bba9ab-5a83-4d9d-b6fc-084b3441d0d8" componentID="Audition.StereoPanner" id="clipPan" name="StereoPanner" powered="true">
            <parameter index="0" name="Pan" parameterValue="0"/>
          </component>
          <fadeIn crossFadeLinkType="linkedAsymmetric" endPoint="6627" shape="19" startPoint="0" type="log"/>
          <fadeOut crossFadeLinkType="linkedAsymmetric" endPoint="33489" shape="18" startPoint="33489" type="log"/>
          <clipStretch adaptiveWindowSize="37" pitchAdjustment="0" preserveFormants="true" stretchMode="realtime" stretchQuality="high" stretchRatio="0.8555101746240038" stretchType="solo" transientSensitivity="40"/>
          <editParameter parameterIndex="0" slotIndex="4294967281"/>
          <editParameter parameterIndex="0" slotIndex="4294967280"/>
          <channelMap>
            <channel index="0" sourceIndex="0"/>
          </channelMap>
        </audioClip>
        <audioClip clipAutoCrossfade="true" crossFadeHeadClipID="-1" crossFadeTailClipID="-1" endPoint="4431301" fileID="10" hue="-1" id="29" lockedInTime="false" looped="false" name="Eddie_016" offline="false" select="false" sourceInPoint="44326" sourceOutPoint="141334" startPoint="4334293" zOrder="2145914576">
          <component componentGuid="1b5d0545-fa42-405e-aa40-ae5ad53bab64" componentID="Audition.Fader" id="clipGain" name="volume" powered="true">
            <parameter index="0" name="volume" parameterValue="1">
              <parameterKeyframes enableSplines="false">
                <parameterKeyframe sampleOffset="45873" select="false" type="linear" value="0.65"/>
                <parameterKeyframe sampleOffset="57676" select="true" type="linear" value="0.7580675"/>
              </parameterKeyframes>
            </parameter>
            <parameter index="1" name="static gain" parameterValue="1"/>
          </component>
          <component componentGuid="71b96b5b-2b4e-46fe-9017-9226d6a9ef67" componentID="Audition.Mute" id="clipMute" name="Mute" powered="true">
            <parameter index="0" parameterValue="0"/>
            <parameter index="1" name="mute" parameterValue="0"/>
          </component>
          <component componentGuid="1f908a10-2322-422f-8f35-d64c60fdc3ed" componentID="Audition.StereoPanner" id="clipPan" name="StereoPanner" powered="true">
            <parameter index="0" name="Pan" parameterValue="0"/>
          </component>
          <fadeIn crossFadeLinkType="linkedAsymmetric" endPoint="0" shape="14" startPoint="0" type="log"/>
          <fadeOut crossFadeLinkType="linkedAsymmetric" endPoint="97008" shape="19" startPoint="97008" type="log"/>
          <take sourceInPoint="0"/>
          <editParameter parameterIndex="0" slotIndex="4294967281"/>
          <editParameter parameterIndex="0" slotIndex="4294967280"/>
          <channelMap>
            <channel index="0" sourceIndex="0"/>
          </channelMap>
        </audioClip>
        <audioClip clipAutoCrossfade="true" crossFadeHeadClipID="-1" crossFadeTailClipID="-1" endPoint="4557757" fileID="9" hue="-1" id="30" lockedInTime="false" looped="false" name="Eddie_013" offline="false" select="false" sourceInPoint="849843" sourceOutPoint="976299" startPoint="4431301" zOrder="2145914996">
          <component componentGuid="d380706f-2483-4060-af1a-e1fe9409c85e" componentID="Audition.Fader" id="clipGain" name="volume" powered="true">
            <parameter index="0" name="volume" parameterValue="1.5009887"/>
            <parameter index="1" name="static gain" parameterValue="1"/>
          </component>
          <component componentGuid="458917a4-b4b4-4840-96e8-3fbaf56ce1cf" componentID="Audition.Mute" id="clipMute" name="Mute" powered="true">
            <parameter index="0" parameterValue="0"/>
            <parameter index="1" name="mute" parameterValue="0"/>
          </component>
          <component componentGuid="885e233c-c964-484c-8378-f1098c448116" componentID="Audition.StereoPanner" id="clipPan" name="StereoPanner" powered="true">
            <parameter index="0" name="Pan" parameterValue="0"/>
          </component>
          <fadeIn crossFadeLinkType="linkedAsymmetric" endPoint="0" shape="19" startPoint="0" type="log"/>
          <fadeOut crossFadeLinkType="linkedAsymmetric" endPoint="126456" shape="8" startPoint="109448" type="log"/>
          <editParameter parameterIndex="0" slotIndex="4294967281"/>
          <editParameter parameterIndex="0" slotIndex="4294967280"/>
          <channelMap>
            <channel index="0" sourceIndex="0"/>
          </channelMap>
        </audioClip>
        <audioClip clipAutoCrossfade="true" crossFadeHeadClipID="-1" crossFadeTailClipID="-1" endPoint="4691174" fileID="0" hue="-1" id="31" lockedInTime="false" looped="false" name="Track 3_014" offline="false" select="false" sourceInPoint="241366" sourceOutPoint="274855" startPoint="4657685" zOrder="2145914580">
          <component componentGuid="22fcfc14-8cc5-4b71-9933-b2df40b1f188" componentID="Audition.Fader" id="clipGain" name="volume" powered="true">
            <parameter index="0" name="volume" parameterValue="1"/>
            <parameter index="1" name="static gain" parameterValue="1"/>
          </component>
          <component componentGuid="b67734d9-84dd-434c-8893-285d5bc4b1a3" componentID="Audition.Mute" id="clipMute" name="Mute" powered="true">
            <parameter index="0" parameterValue="0"/>
            <parameter index="1" name="mute" parameterValue="0"/>
          </component>
          <component componentGuid="6b7c930d-5d4a-4c59-a011-3b12e5101c4a" componentID="Audition.StereoPanner" id="clipPan" name="StereoPanner" powered="true">
            <parameter index="0" name="Pan" parameterValue="0"/>
          </component>
          <fadeIn crossFadeLinkType="linkedAsymmetric" endPoint="6627" shape="19" startPoint="0" type="log"/>
          <fadeOut crossFadeLinkType="linkedAsymmetric" endPoint="33489" shape="18" startPoint="33489" type="log"/>
          <clipStretch adaptiveWindowSize="37" pitchAdjustment="0" preserveFormants="true" stretchMode="realtime" stretchQuality="high" stretchRatio="0.8555101746240038" stretchType="solo" transientSensitivity="40"/>
          <editParameter parameterIndex="0" slotIndex="4294967281"/>
          <editParameter parameterIndex="0" slotIndex="4294967280"/>
          <channelMap>
            <channel index="0" sourceIndex="0"/>
          </channelMap>
        </audioClip>
        <audioClip clipAutoCrossfade="true" crossFadeHeadClipID="-1" crossFadeTailClipID="-1" endPoint="4831771" fileID="10" hue="-1" id="32" lockedInTime="false" looped="false" name="Eddie_016" offline="false" select="false" sourceInPoint="311053" sourceOutPoint="451650" startPoint="4691174" zOrder="2145914583">
          <component componentGuid="a8e77ce0-f4c7-4a7c-883a-e003e41df070" componentID="Audition.Fader" id="clipGain" name="volume" powered="true">
            <parameter index="0" name="volume" parameterValue="1">
              <parameterKeyframes enableSplines="false">
                <parameterKeyframe sampleOffset="311937" select="false" type="linear" value="0.65"/>
                <parameterKeyframe sampleOffset="338465" select="true" type="linear" value="0.7760787"/>
              </parameterKeyframes>
            </parameter>
            <parameter index="1" name="static gain" parameterValue="1"/>
          </component>
          <component componentGuid="ee7c8227-8c55-487d-a1fd-e32f90ed4486" componentID="Audition.Mute" id="clipMute" name="Mute" powered="true">
            <parameter index="0" parameterValue="0"/>
            <parameter index="1" name="mute" parameterValue="0"/>
          </component>
          <component componentGuid="1bf1ac15-04c5-4b54-98e5-bfbea640bd22" componentID="Audition.StereoPanner" id="clipPan" name="StereoPanner" powered="true">
            <parameter index="0" name="Pan" parameterValue="0"/>
          </component>
          <fadeIn crossFadeLinkType="linkedAsymmetric" endPoint="0" shape="13" startPoint="0" type="log"/>
          <fadeOut crossFadeLinkType="linkedAsymmetric" endPoint="140597" shape="18" startPoint="140597" type="log"/>
          <editParameter parameterIndex="0" slotIndex="4294967281"/>
          <editParameter parameterIndex="0" slotIndex="4294967280"/>
          <channelMap>
            <channel index="0" sourceIndex="0"/>
          </channelMap>
        </audioClip>
        <audioClip clipAutoCrossfade="true" crossFadeHeadClipID="-1" crossFadeTailClipID="34" endPoint="4855432" fileID="9" hue="-1" id="33" lockedInTime="false" looped="false" name="Eddie_013" offline="false" select="false" sourceInPoint="1175415" sourceOutPoint="1199076" startPoint="4831771" zOrder="2145914585">
          <component componentGuid="77afb9a2-5161-4007-b35d-9ac06883e8ab" componentID="Audition.Fader" id="clipGain" name="volume" powered="true">
            <parameter index="0" name="volume" parameterValue="1.5582311"/>
            <parameter index="1" name="static gain" parameterValue="1"/>
          </component>
          <component componentGuid="814d78a2-4876-4ba2-857d-6119da7b4ec5" componentID="Audition.Mute" id="clipMute" name="Mute" powered="true">
            <parameter index="0" parameterValue="0"/>
            <parameter index="1" name="mute" parameterValue="0"/>
          </component>
          <component componentGuid="bcdbf4c6-2679-47d3-86f5-f87f4936151d" componentID="Audition.StereoPanner" id="clipPan" name="StereoPanner" powered="true">
            <parameter index="0" name="Pan" parameterValue="0"/>
          </component>
          <fadeIn crossFadeLinkType="linkedAsymmetric" endPoint="0" shape="19" startPoint="0" type="log"/>
          <fadeOut crossFadeLinkType="linkedAsymmetric" endPoint="23661" shape="18" startPoint="23083" type="log"/>
          <editParameter parameterIndex="0" slotIndex="4294967281"/>
          <editParameter parameterIndex="0" slotIndex="4294967280"/>
          <channelMap>
            <channel index="0" sourceIndex="0"/>
          </channelMap>
        </audioClip>
        <audioClip clipAutoCrossfade="true" crossFadeHeadClipID="33" crossFadeTailClipID="35" endPoint="5027400" fileID="10" hue="-1" id="34" lockedInTime="false" looped="false" name="Eddie_016" offline="false" select="false" sourceInPoint="476184" sourceOutPoint="648730" startPoint="4854854" zOrder="2145914998">
          <component componentGuid="66fab4f8-fd6a-4409-acf0-a86d680da052" componentID="Audition.Fader" id="clipGain" name="volume" powered="true">
            <parameter index="0" name="volume" parameterValue="1.5582311"/>
            <parameter index="1" name="static gain" parameterValue="1"/>
          </component>
          <component componentGuid="5e31e2a5-ef75-48ba-8562-c427d3a5f01a" componentID="Audition.Mute" id="clipMute" name="Mute" powered="true">
            <parameter index="0" parameterValue="0"/>
            <parameter index="1" name="mute" parameterValue="0"/>
          </component>
          <component componentGuid="9703a173-4417-47e5-ad8b-3a35a73a1c1a" componentID="Audition.StereoPanner" id="clipPan" name="StereoPanner" powered="true">
            <parameter index="0" name="Pan" parameterValue="0"/>
          </component>
          <fadeIn crossFadeLinkType="linkedAsymmetric" endPoint="578" shape="19" startPoint="0" type="log"/>
          <fadeOut crossFadeLinkType="linkedAsymmetric" endPoint="172546" shape="18" startPoint="152810" type="log"/>
          <editParameter parameterIndex="0" slotIndex="4294967281"/>
          <editParameter parameterIndex="0" slotIndex="4294967280"/>
          <channelMap>
            <channel index="0" sourceIndex="0"/>
          </channelMap>
        </audioClip>
        <audioClip clipAutoCrossfade="true" crossFadeHeadClipID="34" crossFadeTailClipID="-1" endPoint="5029507" fileID="6" hue="-1" id="35" lockedInTime="false" looped="false" name="SomeoneCallingLevyDing 44100 1" offline="false" select="false" sourceInPoint="0" sourceOutPoint="21843" startPoint="5007664" zOrder="2145914958">
          <component componentGuid="7f321bfb-41f9-4b57-80fd-eb018d0c88fd" componentID="Audition.Fader" id="clipGain" name="volume" powered="true">
            <parameter index="0" name="volume" parameterValue="0.3281467"/>
            <parameter index="1" name="static gain" parameterValue="1"/>
          </component>
          <component componentGuid="cac3e0dc-b9ff-4544-b78b-d828db8b8f72" componentID="Audition.Mute" id="clipMute" name="Mute" powered="true">
            <parameter index="0" parameterValue="0"/>
            <parameter index="1" name="mute" parameterValue="0"/>
          </component>
          <component componentGuid="4f04e3df-0d46-4e61-a7d5-319bf56de795" componentID="Audition.StereoPanner" id="clipPan" name="StereoPanner" powered="true">
            <parameter index="0" name="Pan" parameterValue="0"/>
          </component>
          <fadeIn crossFadeLinkType="linkedAsymmetric" endPoint="19736" shape="19" startPoint="0" type="log"/>
          <fadeOut crossFadeLinkType="linkedAsymmetric" endPoint="21843" shape="19" startPoint="20228" type="log"/>
          <editParameter parameterIndex="0" slotIndex="4294967281"/>
          <editParameter parameterIndex="0" slotIndex="4294967280"/>
          <channelMap>
            <channel index="0" sourceIndex="0"/>
            <channel index="1" sourceIndex="1"/>
          </channelMap>
        </audioClip>
        <audioClip clipAutoCrossfade="true" crossFadeHeadClipID="-1" crossFadeTailClipID="-1" endPoint="5338264" fileID="10" hue="-1" id="36" lockedInTime="false" looped="false" name="Eddie_016" offline="false" select="false" sourceInPoint="648730" sourceOutPoint="792993" startPoint="5194001" zOrder="2145914999">
          <component componentGuid="0924100b-4769-473b-9bba-98eda778d0b5" componentID="Audition.Fader" id="clipGain" name="volume" powered="true">
            <parameter index="0" name="volume" parameterValue="1.7112215"/>
            <parameter index="1" name="static gain" parameterValue="1"/>
          </component>
          <component componentGuid="fb9fe3d6-10b1-4c41-8e7e-dc14585838e1" componentID="Audition.Mute" id="clipMute" name="Mute" powered="true">
            <parameter index="0" parameterValue="0"/>
            <parameter index="1" name="mute" parameterValue="0"/>
          </component>
          <component componentGuid="456c6517-5eff-462a-bc55-d03c9357b3e9" componentID="Audition.StereoPanner" id="clipPan" name="StereoPanner" powered="true">
            <parameter index="0" name="Pan" parameterValue="0"/>
          </component>
          <fadeIn crossFadeLinkType="linkedAsymmetric" endPoint="28745" shape="11" startPoint="0" type="log"/>
          <fadeOut crossFadeLinkType="linkedAsymmetric" endPoint="144263" shape="6" startPoint="111685" type="log"/>
          <editParameter parameterIndex="0" slotIndex="4294967281"/>
          <editParameter parameterIndex="0" slotIndex="4294967280"/>
          <channelMap>
            <channel index="0" sourceIndex="0"/>
          </channelMap>
        </audioClip>
        <audioClip clipAutoCrossfade="true" crossFadeHeadClipID="-1" crossFadeTailClipID="-1" endPoint="5480429" fileID="0" hue="-1" id="37" lockedInTime="false" looped="false" name="Track 3_014" offline="false" select="false" sourceInPoint="241366" sourceOutPoint="274855" startPoint="5446940" zOrder="2145914593">
          <component componentGuid="d59e518b-a51c-4c7b-8350-ffc578d125b6" componentID="Audition.Fader" id="clipGain" name="volume" powered="true">
            <parameter index="0" name="volume" parameterValue="1"/>
            <parameter index="1" name="static gain" parameterValue="1"/>
          </component>
          <component componentGuid="100374f5-4dd1-4e11-a194-79bfcebe1378" componentID="Audition.Mute" id="clipMute" name="Mute" powered="true">
            <parameter index="0" parameterValue="0"/>
            <parameter index="1" name="mute" parameterValue="0"/>
          </component>
          <component componentGuid="fef53a43-26c8-4ad5-a14e-ed0df22f6303" componentID="Audition.StereoPanner" id="clipPan" name="StereoPanner" powered="true">
            <parameter index="0" name="Pan" parameterValue="0"/>
          </component>
          <fadeIn crossFadeLinkType="linkedAsymmetric" endPoint="6627" shape="19" startPoint="0" type="log"/>
          <fadeOut crossFadeLinkType="linkedAsymmetric" endPoint="33489" shape="18" startPoint="33489" type="log"/>
          <clipStretch adaptiveWindowSize="37" pitchAdjustment="0" preserveFormants="true" stretchMode="realtime" stretchQuality="high" stretchRatio="0.8555101746240038" stretchType="solo" transientSensitivity="40"/>
          <editParameter parameterIndex="0" slotIndex="4294967281"/>
          <editParameter parameterIndex="0" slotIndex="4294967280"/>
          <channelMap>
            <channel index="0" sourceIndex="0"/>
          </channelMap>
        </audioClip>
        <audioClip clipAutoCrossfade="true" crossFadeHeadClipID="-1" crossFadeTailClipID="-1" endPoint="5703881" fileID="10" hue="-1" id="38" lockedInTime="false" looped="false" name="Eddie_016" offline="false" select="false" sourceInPoint="848516" sourceOutPoint="1071968" startPoint="5480429" zOrder="2145915000">
          <component componentGuid="1c19ef19-9e69-4266-8df9-2f62be2a84a1" componentID="Audition.Fader" id="clipGain" name="volume" powered="true">
            <parameter index="0" name="volume" parameterValue="0.5028986">
              <parameterKeyframes enableSplines="false">
                <parameterKeyframe sampleOffset="837057" select="false" type="linear" value="0.4778145"/>
                <parameterKeyframe sampleOffset="847256" select="false" type="linear" value="0.65"/>
                <parameterKeyframe sampleOffset="865127" select="true" type="linear" value="0.7968981"/>
              </parameterKeyframes>
            </parameter>
            <parameter index="1" name="static gain" parameterValue="1"/>
          </component>
          <component componentGuid="80c02025-936e-4aa4-9823-ef32c5c451b1" componentID="Audition.Mute" id="clipMute" name="Mute" powered="true">
            <parameter index="0" parameterValue="0"/>
            <parameter index="1" name="mute" parameterValue="0"/>
          </component>
          <component componentGuid="e2577ef3-3c63-4a35-a0c9-671dd6225362" componentID="Audition.StereoPanner" id="clipPan" name="StereoPanner" powered="true">
            <parameter index="0" name="Pan" parameterValue="0"/>
          </component>
          <fadeIn crossFadeLinkType="linkedAsymmetric" endPoint="0" shape="7" startPoint="0" type="log"/>
          <fadeOut crossFadeLinkType="linkedAsymmetric" endPoint="223452" shape="12" startPoint="212573" type="log"/>
          <editParameter parameterIndex="0" slotIndex="4294967281"/>
          <editParameter parameterIndex="0" slotIndex="4294967280"/>
          <channelMap>
            <channel index="0" sourceIndex="0"/>
          </channelMap>
        </audioClip>
        <audioClip clipAutoCrossfade="true" crossFadeHeadClipID="-1" crossFadeTailClipID="-1" endPoint="5933160" fileID="9" hue="-1" id="39" lockedInTime="false" looped="false" name="Eddie_013" offline="false" select="false" sourceInPoint="1972167" sourceOutPoint="2152510" startPoint="5752817" zOrder="2145915001">
          <component componentGuid="a844bfcc-41cf-4ce5-b7fd-332c406aebe5" componentID="Audition.Fader" id="clipGain" name="volume" powered="true">
            <parameter index="0" name="volume" parameterValue="1.7721336"/>
            <parameter index="1" name="static gain" parameterValue="1"/>
          </component>
          <component componentGuid="dbe96def-8bb0-4780-b3d4-325c414572e1" componentID="Audition.Mute" id="clipMute" name="Mute" powered="true">
            <parameter index="0" parameterValue="0"/>
            <parameter index="1" name="mute" parameterValue="0"/>
          </component>
          <component componentGuid="31dcbda9-46a9-4d48-aa26-fdf3ee2c3181" componentID="Audition.StereoPanner" id="clipPan" name="StereoPanner" powered="true">
            <parameter index="0" name="Pan" parameterValue="0"/>
          </component>
          <fadeIn crossFadeLinkType="linkedAsymmetric" endPoint="35683" shape="19" startPoint="0" type="log"/>
          <fadeOut crossFadeLinkType="linkedAsymmetric" endPoint="180343" shape="8" startPoint="157404" type="log"/>
          <editParameter parameterIndex="0" slotIndex="4294967281"/>
          <editParameter parameterIndex="0" slotIndex="4294967280"/>
          <channelMap>
            <channel index="0" sourceIndex="0"/>
          </channelMap>
        </audioClip>
        <audioClip clipAutoCrossfade="true" crossFadeHeadClipID="-1" crossFadeTailClipID="-1" endPoint="6028732" fileID="11" hue="-1" id="40" lockedInTime="false" looped="false" name="Eddie_017" offline="false" select="false" sourceInPoint="478940" sourceOutPoint="526517" startPoint="5981155" zOrder="2145914600">
          <component componentGuid="2065f000-3b19-4e24-b1d0-fa36baa76608" componentID="Audition.Fader" id="clipGain" name="volume" powered="true">
            <parameter index="0" name="volume" parameterValue="1.7721328"/>
            <parameter index="1" name="static gain" parameterValue="1"/>
          </component>
          <component componentGuid="5288ebc0-1a29-4b11-947f-d5f28f0ca389" componentID="Audition.Mute" id="clipMute" name="Mute" powered="true">
            <parameter index="0" parameterValue="0"/>
            <parameter index="1" name="mute" parameterValue="0"/>
          </component>
          <component componentGuid="c4c62ee2-dda4-46b7-bb53-2731ecc2f090" componentID="Audition.StereoPanner" id="clipPan" name="StereoPanner" powered="true">
            <parameter index="0" name="Pan" parameterValue="0"/>
          </component>
          <fadeIn crossFadeLinkType="linkedAsymmetric" endPoint="0" shape="18" startPoint="0" type="log"/>
          <fadeOut crossFadeLinkType="linkedAsymmetric" endPoint="47577" shape="19" startPoint="47577" type="log"/>
          <editParameter parameterIndex="0" slotIndex="4294967281"/>
          <editParameter parameterIndex="0" slotIndex="4294967280"/>
          <channelMap>
            <channel index="0" sourceIndex="0"/>
          </channelMap>
        </audioClip>
        <audioClip clipAutoCrossfade="true" crossFadeHeadClipID="-1" crossFadeTailClipID="-1" endPoint="6085800" fileID="9" hue="-1" id="41" lockedInTime="false" looped="false" name="Eddie_013" offline="false" select="false" sourceInPoint="2240168" sourceOutPoint="2297236" startPoint="6028732" zOrder="2145915002">
          <component componentGuid="884182a8-c1f3-405b-b9b1-1caac0e3532e" componentID="Audition.Fader" id="clipGain" name="volume" powered="true">
            <parameter index="0" name="volume" parameterValue="1.7721336"/>
            <parameter index="1" name="static gain" parameterValue="1"/>
          </component>
          <component componentGuid="18b5f8fa-1f99-47e3-85d6-b5745c07f041" componentID="Audition.Mute" id="clipMute" name="Mute" powered="true">
            <parameter index="0" parameterValue="0"/>
            <parameter index="1" name="mute" parameterValue="0"/>
          </component>
          <component componentGuid="dbeb5315-bf64-4099-976d-55c53a41e369" componentID="Audition.StereoPanner" id="clipPan" name="StereoPanner" powered="true">
            <parameter index="0" name="Pan" parameterValue="0"/>
          </component>
          <fadeIn crossFadeLinkType="linkedAsymmetric" endPoint="0" shape="19" startPoint="0" type="log"/>
          <fadeOut crossFadeLinkType="linkedAsymmetric" endPoint="57068" shape="5" startPoint="47294" type="log"/>
          <editParameter parameterIndex="0" slotIndex="4294967281"/>
          <editParameter parameterIndex="0" slotIndex="4294967280"/>
          <channelMap>
            <channel index="0" sourceIndex="0"/>
          </channelMap>
        </audioClip>
        <audioClip clipAutoCrossfade="true" crossFadeHeadClipID="-1" crossFadeTailClipID="-1" endPoint="6185285" fileID="6" hue="-1" id="42" lockedInTime="false" looped="false" name="SomeoneCallingLevyDing 44100 1" offline="false" select="false" sourceInPoint="0" sourceOutPoint="21843" startPoint="6163442" zOrder="2145914639">
          <component componentGuid="e01b7ff2-2e98-48ce-98fc-37f8bfaf5110" componentID="Audition.Fader" id="clipGain" name="volume" powered="true">
            <parameter index="0" name="volume" parameterValue="1.4224733">
              <parameterKeyframes enableSplines="false">
                <parameterKeyframe sampleOffset="21843" select="true" type="linear" value="0.7448734"/>
              </parameterKeyframes>
            </parameter>
            <parameter index="1" name="static gain" parameterValue="1"/>
          </component>
          <component componentGuid="a5b800d7-6d0b-46d2-b624-2e942e17bc87" componentID="Audition.Mute" id="clipMute" name="Mute" powered="true">
            <parameter index="0" parameterValue="0"/>
            <parameter index="1" name="mute" parameterValue="0"/>
          </component>
          <component componentGuid="079eec9c-c2e6-4ca4-aee1-9f8434ccf9ba" componentID="Audition.StereoPanner" id="clipPan" name="StereoPanner" powered="true">
            <parameter index="0" name="Pan" parameterValue="17.4690018"/>
          </component>
          <fadeIn crossFadeLinkType="linkedAsymmetric" endPoint="4102" shape="19" startPoint="0" type="log"/>
          <fadeOut crossFadeLinkType="linkedAsymmetric" endPoint="21843" shape="19" startPoint="20228" type="log"/>
          <editParameter parameterIndex="0" slotIndex="4294967281"/>
          <editParameter parameterIndex="0" slotIndex="4294967280"/>
          <channelMap>
            <channel index="0" sourceIndex="0"/>
            <channel index="1" sourceIndex="1"/>
          </channelMap>
        </audioClip>
        <audioClip clipAutoCrossfade="true" crossFadeHeadClipID="-1" crossFadeTailClipID="-1" endPoint="6319324" fileID="10" hue="-1" id="43" lockedInTime="false" looped="false" name="Eddie_016" offline="false" select="false" sourceInPoint="1615790" sourceOutPoint="1749829" startPoint="6185285" zOrder="2145914641">
          <component componentGuid="59503df9-b749-4403-93b6-cc3eca63bf5e" componentID="Audition.Fader" id="clipGain" name="volume" powered="true">
            <parameter index="0" name="volume" parameterValue="1.625392"/>
            <parameter index="1" name="static gain" parameterValue="1"/>
          </component>
          <component componentGuid="d7ff21a7-8f0c-4b48-8452-7b6f6f8ac0a5" componentID="Audition.Mute" id="clipMute" name="Mute" powered="true">
            <parameter index="0" parameterValue="0"/>
            <parameter index="1" name="mute" parameterValue="0"/>
          </component>
          <component componentGuid="1a27cbfa-cae5-4121-bc18-bfe4149dd539" componentID="Audition.StereoPanner" id="clipPan" name="StereoPanner" powered="true">
            <parameter index="0" name="Pan" parameterValue="0"/>
          </component>
          <fadeIn crossFadeLinkType="linkedAsymmetric" endPoint="25667" shape="19" startPoint="0" type="log"/>
          <fadeOut crossFadeLinkType="linkedAsymmetric" endPoint="134039" shape="18" startPoint="134039" type="log"/>
          <editParameter parameterIndex="0" slotIndex="4294967281"/>
          <editParameter parameterIndex="0" slotIndex="4294967280"/>
          <channelMap>
            <channel index="0" sourceIndex="0"/>
          </channelMap>
        </audioClip>
        <audioClip clipAutoCrossfade="true" crossFadeHeadClipID="-1" crossFadeTailClipID="-1" endPoint="6332107" fileID="11" hue="-1" id="44" lockedInTime="false" looped="false" name="Eddie_017" offline="false" select="false" sourceInPoint="592491" sourceOutPoint="605274" startPoint="6319324" zOrder="2145914645">
          <component componentGuid="bea46f20-ca9a-4b1a-925a-4eb5970bde4d" componentID="Audition.Fader" id="clipGain" name="volume" powered="true">
            <parameter index="0" name="volume" parameterValue="1.5981658"/>
            <parameter index="1" name="static gain" parameterValue="1"/>
          </component>
          <component componentGuid="0723377c-d707-4cc3-83d4-74b824a6fd3b" componentID="Audition.Mute" id="clipMute" name="Mute" powered="true">
            <parameter index="0" parameterValue="0"/>
            <parameter index="1" name="mute" parameterValue="0"/>
          </component>
          <component componentGuid="8e6751ff-78ff-47a2-a437-137fb9193436" componentID="Audition.StereoPanner" id="clipPan" name="StereoPanner" powered="true">
            <parameter index="0" name="Pan" parameterValue="0"/>
          </component>
          <fadeIn crossFadeLinkType="linkedAsymmetric" endPoint="0" shape="0" startPoint="0" type="cosine"/>
          <fadeOut crossFadeLinkType="linkedAsymmetric" endPoint="12783" shape="19" startPoint="12783" type="log"/>
          <editParameter parameterIndex="0" slotIndex="4294967281"/>
          <editParameter parameterIndex="0" slotIndex="4294967280"/>
          <channelMap>
            <channel index="0" sourceIndex="0"/>
          </channelMap>
        </audioClip>
        <audioClip clipAutoCrossfade="true" crossFadeHeadClipID="-1" crossFadeTailClipID="-1" endPoint="6412289" fileID="10" hue="-1" id="45" lockedInTime="false" looped="false" name="Eddie_016" offline="false" select="false" sourceInPoint="1902610" sourceOutPoint="1982792" startPoint="6332107" zOrder="2145915003">
          <component componentGuid="916498d0-646f-4341-aa32-80ff0ab3f19a" componentID="Audition.Fader" id="clipGain" name="volume" powered="true">
            <parameter index="0" name="volume" parameterValue="1.5715941"/>
            <parameter index="1" name="static gain" parameterValue="1"/>
          </component>
          <component componentGuid="f989ca2b-a520-40a3-baec-8093d9321210" componentID="Audition.Mute" id="clipMute" name="Mute" powered="true">
            <parameter index="0" parameterValue="0"/>
            <parameter index="1" name="mute" parameterValue="0"/>
          </component>
          <component componentGuid="76e7256b-0aca-4a60-b066-176805ff028b" componentID="Audition.StereoPanner" id="clipPan" name="StereoPanner" powered="true">
            <parameter index="0" name="Pan" parameterValue="0"/>
          </component>
          <fadeIn crossFadeLinkType="linkedAsymmetric" endPoint="0" shape="18" startPoint="0" type="log"/>
          <fadeOut crossFadeLinkType="linkedAsymmetric" endPoint="80182" shape="0" startPoint="66099" type="log"/>
          <editParameter parameterIndex="0" slotIndex="4294967281"/>
          <editParameter parameterIndex="0" slotIndex="4294967280"/>
          <channelMap>
            <channel index="0" sourceIndex="0"/>
          </channelMap>
        </audioClip>
        <audioClip clipAutoCrossfade="true" crossFadeHeadClipID="-1" crossFadeTailClipID="-1" endPoint="6526169" fileID="0" hue="-1" id="46" lockedInTime="false" looped="false" name="Track 3_014" offline="false" select="false" sourceInPoint="241366" sourceOutPoint="274855" startPoint="6492680" zOrder="2145914648">
          <component componentGuid="05302448-bf6f-4d0d-8fa6-58a31739a224" componentID="Audition.Fader" id="clipGain" name="volume" powered="true">
            <parameter index="0" name="volume" parameterValue="1"/>
            <parameter index="1" name="static gain" parameterValue="1"/>
          </component>
          <component componentGuid="2c718e84-ed62-45ab-ab17-d1c666cda3c0" componentID="Audition.Mute" id="clipMute" name="Mute" powered="true">
            <parameter index="0" parameterValue="0"/>
            <parameter index="1" name="mute" parameterValue="0"/>
          </component>
          <component componentGuid="75f27b22-20e1-4e81-b862-e6b4c975f586" componentID="Audition.StereoPanner" id="clipPan" name="StereoPanner" powered="true">
            <parameter index="0" name="Pan" parameterValue="0"/>
          </component>
          <fadeIn crossFadeLinkType="linkedAsymmetric" endPoint="6627" shape="19" startPoint="0" type="log"/>
          <fadeOut crossFadeLinkType="linkedAsymmetric" endPoint="33489" shape="18" startPoint="33489" type="log"/>
          <clipStretch adaptiveWindowSize="37" pitchAdjustment="0" preserveFormants="true" stretchMode="realtime" stretchQuality="high" stretchRatio="0.8555101746240038" stretchType="solo" transientSensitivity="40"/>
          <editParameter parameterIndex="0" slotIndex="4294967281"/>
          <editParameter parameterIndex="0" slotIndex="4294967280"/>
          <channelMap>
            <channel index="0" sourceIndex="0"/>
          </channelMap>
        </audioClip>
        <audioClip clipAutoCrossfade="true" crossFadeHeadClipID="-1" crossFadeTailClipID="-1" endPoint="6638427" fileID="10" hue="-1" id="47" lockedInTime="false" looped="false" name="Eddie_016" offline="false" select="false" sourceInPoint="2067924" sourceOutPoint="2180182" startPoint="6526169" zOrder="2145914651">
          <component componentGuid="28e3eaa5-74e6-493d-9ba8-2e41da35cebe" componentID="Audition.Fader" id="clipGain" name="volume" powered="true">
            <parameter index="0" name="volume" parameterValue="1">
              <parameterKeyframes enableSplines="false">
                <parameterKeyframe sampleOffset="2066649" select="false" type="linear" value="0.65"/>
                <parameterKeyframe sampleOffset="2081289" select="true" type="linear" value="0.7849876"/>
              </parameterKeyframes>
            </parameter>
            <parameter index="1" name="static gain" parameterValue="1"/>
          </component>
          <component componentGuid="6a028d14-0e92-4742-ab58-62f00305ffa7" componentID="Audition.Mute" id="clipMute" name="Mute" powered="true">
            <parameter index="0" parameterValue="0"/>
            <parameter index="1" name="mute" parameterValue="0"/>
          </component>
          <component componentGuid="6d311865-6c38-4595-bf70-09a91fb52a8c" componentID="Audition.StereoPanner" id="clipPan" name="StereoPanner" powered="true">
            <parameter index="0" name="Pan" parameterValue="0"/>
          </component>
          <fadeIn crossFadeLinkType="linkedAsymmetric" endPoint="0" shape="19" startPoint="0" type="log"/>
          <fadeOut crossFadeLinkType="linkedAsymmetric" endPoint="112258" shape="18" startPoint="112258" type="log"/>
          <editParameter parameterIndex="0" slotIndex="4294967281"/>
          <editParameter parameterIndex="0" slotIndex="4294967280"/>
          <channelMap>
            <channel index="0" sourceIndex="0"/>
          </channelMap>
        </audioClip>
        <audioClip clipAutoCrossfade="true" crossFadeHeadClipID="-1" crossFadeTailClipID="-1" endPoint="6835500" fileID="11" hue="-1" id="48" lockedInTime="false" looped="false" name="Eddie_017" offline="false" select="false" sourceInPoint="995160" sourceOutPoint="1192233" startPoint="6638427" zOrder="2145915004">
          <component componentGuid="2861113f-c045-4fe8-84f0-d13076204d4b" componentID="Audition.Fader" id="clipGain" name="volume" powered="true">
            <parameter index="0" name="volume" parameterValue="1.653295"/>
            <parameter index="1" name="static gain" parameterValue="1"/>
          </component>
          <component componentGuid="91baca0b-7bf6-49c3-8455-379f461326d8" componentID="Audition.Mute" id="clipMute" name="Mute" powered="true">
            <parameter index="0" parameterValue="0"/>
            <parameter index="1" name="mute" parameterValue="0"/>
          </component>
          <component componentGuid="091c4a1e-ce62-4c29-888b-5114b5ce49bc" componentID="Audition.StereoPanner" id="clipPan" name="StereoPanner" powered="true">
            <parameter index="0" name="Pan" parameterValue="0"/>
          </component>
          <fadeIn crossFadeLinkType="linkedAsymmetric" endPoint="0" shape="19" startPoint="0" type="log"/>
          <fadeOut crossFadeLinkType="linkedAsymmetric" endPoint="197073" shape="0" startPoint="182665" type="log"/>
          <editParameter parameterIndex="0" slotIndex="4294967281"/>
          <editParameter parameterIndex="0" slotIndex="4294967280"/>
          <channelMap>
            <channel index="0" sourceIndex="0"/>
          </channelMap>
        </audioClip>
        <audioClip clipAutoCrossfade="true" crossFadeHeadClipID="-1" crossFadeTailClipID="50" endPoint="6981696" fileID="0" hue="-1" id="49" lockedInTime="false" looped="false" name="Track 3_014" offline="false" select="false" sourceInPoint="241366" sourceOutPoint="274855" startPoint="6948207" zOrder="2145914656">
          <component componentGuid="b03b7615-eb70-4309-878b-19b836eff254" componentID="Audition.Fader" id="clipGain" name="volume" powered="true">
            <parameter index="0" name="volume" parameterValue="1"/>
            <parameter index="1" name="static gain" parameterValue="1"/>
          </component>
          <component componentGuid="c0e11e9e-dbfd-4a1f-9055-b2da6894b8c8" componentID="Audition.Mute" id="clipMute" name="Mute" powered="true">
            <parameter index="0" parameterValue="0"/>
            <parameter index="1" name="mute" parameterValue="0"/>
          </component>
          <component componentGuid="170e48a7-830a-4ea3-841a-33c3b62927ea" componentID="Audition.StereoPanner" id="clipPan" name="StereoPanner" powered="true">
            <parameter index="0" name="Pan" parameterValue="0"/>
          </component>
          <fadeIn crossFadeLinkType="linkedAsymmetric" endPoint="6627" shape="19" startPoint="0" type="log"/>
          <fadeOut crossFadeLinkType="linkedAsymmetric" endPoint="33489" shape="19" startPoint="33243" type="log"/>
          <clipStretch adaptiveWindowSize="37" pitchAdjustment="0" preserveFormants="true" stretchMode="realtime" stretchQuality="high" stretchRatio="0.8555101746240038" stretchType="solo" transientSensitivity="40"/>
          <editParameter parameterIndex="0" slotIndex="4294967281"/>
          <editParameter parameterIndex="0" slotIndex="4294967280"/>
          <channelMap>
            <channel index="0" sourceIndex="0"/>
          </channelMap>
        </audioClip>
        <audioClip clipAutoCrossfade="true" crossFadeHeadClipID="49" crossFadeTailClipID="-1" endPoint="7106445" fileID="12" hue="-1" id="50" lockedInTime="false" looped="false" name="Eddie_018" offline="false" select="false" sourceInPoint="51142" sourceOutPoint="176137" startPoint="6981450" zOrder="2145915005">
          <component componentGuid="970c6101-c04b-4098-ac3d-871c4683510b" componentID="Audition.Fader" id="clipGain" name="volume" powered="true">
            <parameter index="0" name="volume" parameterValue="0.2988154">
              <parameterKeyframes enableSplines="false">
                <parameterKeyframe sampleOffset="50181" select="false" type="linear" value="0.3784768"/>
                <parameterKeyframe sampleOffset="51748" select="false" type="linear" value="0.65"/>
                <parameterKeyframe sampleOffset="72506" select="true" type="linear" value="0.7651365"/>
              </parameterKeyframes>
            </parameter>
            <parameter index="1" name="static gain" parameterValue="1"/>
          </component>
          <component componentGuid="59116ef0-0080-4806-ba00-a7dac9ea64ce" componentID="Audition.Mute" id="clipMute" name="Mute" powered="true">
            <parameter index="0" parameterValue="0"/>
            <parameter index="1" name="mute" parameterValue="0"/>
          </component>
          <component componentGuid="7d5136b3-6707-4e63-ac2e-b9a1ef67d91f" componentID="Audition.StereoPanner" id="clipPan" name="StereoPanner" powered="true">
            <parameter index="0" name="Pan" parameterValue="0"/>
          </component>
          <fadeIn crossFadeLinkType="linkedAsymmetric" endPoint="246" shape="18" startPoint="0" type="log"/>
          <fadeOut crossFadeLinkType="linkedAsymmetric" endPoint="124995" shape="10" startPoint="94737" type="log"/>
          <take sourceInPoint="0"/>
          <editParameter parameterIndex="0" slotIndex="4294967281"/>
          <editParameter parameterIndex="0" slotIndex="4294967280"/>
          <channelMap>
            <channel index="0" sourceIndex="0"/>
          </channelMap>
        </audioClip>
        <audioClip clipAutoCrossfade="true" crossFadeHeadClipID="-1" crossFadeTailClipID="-1" endPoint="7397671" fileID="12" hue="-1" id="51" lockedInTime="false" looped="false" name="Eddie_018" offline="false" select="false" sourceInPoint="181235" sourceOutPoint="382132" startPoint="7196774" zOrder="2145915006">
          <component componentGuid="4a6eb70a-5324-4a8d-a569-a5e2a34547e6" componentID="Audition.Fader" id="clipGain" name="volume" powered="true">
            <parameter index="0" name="volume" parameterValue="1.4714638"/>
            <parameter index="1" name="static gain" parameterValue="1"/>
          </component>
          <component componentGuid="8f44e759-1c7d-453d-907d-8f39906b7ef8" componentID="Audition.Mute" id="clipMute" name="Mute" powered="true">
            <parameter index="0" parameterValue="0"/>
            <parameter index="1" name="mute" parameterValue="0"/>
          </component>
          <component componentGuid="517cffe0-877f-4b51-9b65-32662869d77c" componentID="Audition.StereoPanner" id="clipPan" name="StereoPanner" powered="true">
            <parameter index="0" name="Pan" parameterValue="0"/>
          </component>
          <fadeIn crossFadeLinkType="linkedAsymmetric" endPoint="38232" shape="19" startPoint="0" type="log"/>
          <fadeOut crossFadeLinkType="linkedAsymmetric" endPoint="200897" shape="7" startPoint="160117" type="log"/>
          <editParameter parameterIndex="0" slotIndex="4294967281"/>
          <editParameter parameterIndex="0" slotIndex="4294967280"/>
          <channelMap>
            <channel index="0" sourceIndex="0"/>
          </channelMap>
        </audioClip>
        <audioClip clipAutoCrossfade="true" crossFadeHeadClipID="-1" crossFadeTailClipID="-1" endPoint="7524304" fileID="0" hue="-1" id="52" lockedInTime="false" looped="false" name="Track 3_014" offline="false" select="false" sourceInPoint="241366" sourceOutPoint="274855" startPoint="7490815" zOrder="2145914670">
          <component componentGuid="c614a357-f1c9-4a7a-a062-f90026f9e24d" componentID="Audition.Fader" id="clipGain" name="volume" powered="true">
            <parameter index="0" name="volume" parameterValue="1"/>
            <parameter index="1" name="static gain" parameterValue="1"/>
          </component>
          <component componentGuid="207dbcfa-2a75-40c5-8e5b-032a37b01509" componentID="Audition.Mute" id="clipMute" name="Mute" powered="true">
            <parameter index="0" parameterValue="0"/>
            <parameter index="1" name="mute" parameterValue="0"/>
          </component>
          <component componentGuid="47fa25bb-4bcc-488e-b5e5-ca4432110f6b" componentID="Audition.StereoPanner" id="clipPan" name="StereoPanner" powered="true">
            <parameter index="0" name="Pan" parameterValue="0"/>
          </component>
          <fadeIn crossFadeLinkType="linkedAsymmetric" endPoint="6627" shape="19" startPoint="0" type="log"/>
          <fadeOut crossFadeLinkType="linkedAsymmetric" endPoint="33489" shape="18" startPoint="33489" type="log"/>
          <clipStretch adaptiveWindowSize="37" pitchAdjustment="0" preserveFormants="true" stretchMode="realtime" stretchQuality="high" stretchRatio="0.8555101746240038" stretchType="solo" transientSensitivity="40"/>
          <editParameter parameterIndex="0" slotIndex="4294967281"/>
          <editParameter parameterIndex="0" slotIndex="4294967280"/>
          <channelMap>
            <channel index="0" sourceIndex="0"/>
          </channelMap>
        </audioClip>
        <audioClip clipAutoCrossfade="true" crossFadeHeadClipID="-1" crossFadeTailClipID="-1" endPoint="7679825" fileID="13" hue="-1" id="53" lockedInTime="false" looped="false" name="Eddie_020" offline="false" select="false" sourceInPoint="302854" sourceOutPoint="458375" startPoint="7524304" zOrder="2145914673">
          <component componentGuid="6fc97b16-5412-492c-940a-304e92b77a2c" componentID="Audition.Fader" id="clipGain" name="volume" powered="true">
            <parameter index="0" name="volume" parameterValue="1">
              <parameterKeyframes enableSplines="false">
                <parameterKeyframe sampleOffset="302854" select="false" type="linear" value="0.65"/>
                <parameterKeyframe sampleOffset="327149" select="true" type="linear" value="0.7492555"/>
              </parameterKeyframes>
            </parameter>
            <parameter index="1" name="static gain" parameterValue="1"/>
          </component>
          <component componentGuid="1c5438d7-e681-4b3b-9547-3e1bafd16807" componentID="Audition.Mute" id="clipMute" name="Mute" powered="true">
            <parameter index="0" parameterValue="0"/>
            <parameter index="1" name="mute" parameterValue="0"/>
          </component>
          <component componentGuid="e2acb08c-160d-4672-ba4f-70c16a49aa16" componentID="Audition.StereoPanner" id="clipPan" name="StereoPanner" powered="true">
            <parameter index="0" name="Pan" parameterValue="0"/>
          </component>
          <fadeIn crossFadeLinkType="linkedAsymmetric" endPoint="0" shape="0" startPoint="0" type="log"/>
          <fadeOut crossFadeLinkType="linkedAsymmetric" endPoint="155521" shape="0" startPoint="155521" type="cosine"/>
          <take sourceInPoint="0"/>
          <editParameter parameterIndex="0" slotIndex="4294967281"/>
          <editParameter parameterIndex="0" slotIndex="4294967280"/>
          <channelMap>
            <channel index="0" sourceIndex="0"/>
          </channelMap>
        </audioClip>
        <audioClip clipAutoCrossfade="true" crossFadeHeadClipID="-1" crossFadeTailClipID="-1" endPoint="7729651" fileID="13" hue="-1" id="54" lockedInTime="false" looped="false" name="Eddie_020" offline="false" select="false" sourceInPoint="471216" sourceOutPoint="521042" startPoint="7679825" zOrder="2145914675">
          <component componentGuid="4d5056c1-0968-4ea2-990a-6b16f998d700" componentID="Audition.Fader" id="clipGain" name="volume" powered="true">
            <parameter index="0" name="volume" parameterValue="1.4248341"/>
            <parameter index="1" name="static gain" parameterValue="1"/>
          </component>
          <component componentGuid="3e71362b-6a2c-40ab-832f-820ca5016ca9" componentID="Audition.Mute" id="clipMute" name="Mute" powered="true">
            <parameter index="0" parameterValue="0"/>
            <parameter index="1" name="mute" parameterValue="0"/>
          </component>
          <component componentGuid="8d277bf5-c270-4d00-b773-fc5264e772ba" componentID="Audition.StereoPanner" id="clipPan" name="StereoPanner" powered="true">
            <parameter index="0" name="Pan" parameterValue="0"/>
          </component>
          <fadeIn crossFadeLinkType="linkedAsymmetric" endPoint="0" shape="0" startPoint="0" type="cosine"/>
          <fadeOut crossFadeLinkType="linkedAsymmetric" endPoint="49826" shape="18" startPoint="49826" type="log"/>
          <editParameter parameterIndex="0" slotIndex="4294967281"/>
          <editParameter parameterIndex="0" slotIndex="4294967280"/>
          <channelMap>
            <channel index="0" sourceIndex="0"/>
          </channelMap>
        </audioClip>
        <audioClip clipAutoCrossfade="true" crossFadeHeadClipID="-1" crossFadeTailClipID="-1" endPoint="7820554" fileID="14" hue="-1" id="55" lockedInTime="false" looped="false" name="Eddie_019" offline="false" select="false" sourceInPoint="816142" sourceOutPoint="907045" startPoint="7729651" zOrder="2145914677">
          <component componentGuid="d263ed12-19c6-4366-b9db-93a60324ca50" componentID="Audition.Fader" id="clipGain" name="volume" powered="true">
            <parameter index="0" name="volume" parameterValue="1.5203364"/>
            <parameter index="1" name="static gain" parameterValue="1"/>
          </component>
          <component componentGuid="5f55e159-3441-43ab-a554-02b1a19314c6" componentID="Audition.Mute" id="clipMute" name="Mute" powered="true">
            <parameter index="0" parameterValue="0"/>
            <parameter index="1" name="mute" parameterValue="0"/>
          </component>
          <component componentGuid="2ae2968d-6098-4c2d-9e29-e145bb79a7a3" componentID="Audition.StereoPanner" id="clipPan" name="StereoPanner" powered="true">
            <parameter index="0" name="Pan" parameterValue="0"/>
          </component>
          <fadeIn crossFadeLinkType="linkedAsymmetric" endPoint="0" shape="19" startPoint="0" type="log"/>
          <fadeOut crossFadeLinkType="linkedAsymmetric" endPoint="90903" shape="0" startPoint="90903" type="cosine"/>
          <editParameter parameterIndex="0" slotIndex="4294967281"/>
          <editParameter parameterIndex="0" slotIndex="4294967280"/>
          <channelMap>
            <channel index="0" sourceIndex="0"/>
          </channelMap>
        </audioClip>
        <audioClip clipAutoCrossfade="true" crossFadeHeadClipID="-1" crossFadeTailClipID="-1" endPoint="7913909" fileID="14" hue="-1" id="56" lockedInTime="false" looped="false" name="Eddie_019" offline="false" select="false" sourceInPoint="923940" sourceOutPoint="1017295" startPoint="7820554" zOrder="2145915010">
          <component componentGuid="df049174-3c95-490e-861f-0a3a30017662" componentID="Audition.Fader" id="clipGain" name="volume" powered="true">
            <parameter index="0" name="volume" parameterValue="1.5456573"/>
            <parameter index="1" name="static gain" parameterValue="1"/>
          </component>
          <component componentGuid="d59c50b0-99a8-436c-8a7a-37cc4b35daf4" componentID="Audition.Mute" id="clipMute" name="Mute" powered="true">
            <parameter index="0" parameterValue="0"/>
            <parameter index="1" name="mute" parameterValue="0"/>
          </component>
          <component componentGuid="3ba65aa0-7742-4708-8993-5b7ed73df02e" componentID="Audition.StereoPanner" id="clipPan" name="StereoPanner" powered="true">
            <parameter index="0" name="Pan" parameterValue="0"/>
          </component>
          <fadeIn crossFadeLinkType="linkedAsymmetric" endPoint="0" shape="0" startPoint="0" type="cosine"/>
          <fadeOut crossFadeLinkType="linkedAsymmetric" endPoint="93355" shape="19" startPoint="79284" type="log"/>
          <editParameter parameterIndex="0" slotIndex="4294967281"/>
          <editParameter parameterIndex="0" slotIndex="4294967280"/>
          <channelMap>
            <channel index="0" sourceIndex="0"/>
          </channelMap>
        </audioClip>
        <audioClip clipAutoCrossfade="true" crossFadeHeadClipID="-1" crossFadeTailClipID="-1" endPoint="8124441" fileID="14" hue="-1" id="57" lockedInTime="false" looped="false" name="Eddie_019" offline="false" select="false" sourceInPoint="1033346" sourceOutPoint="1243878" startPoint="7913909" zOrder="2145915012">
          <component componentGuid="5191d29b-7043-45ec-a8b5-feecfac479a7" componentID="Audition.Fader" id="clipGain" name="volume" powered="true">
            <parameter index="0" name="volume" parameterValue="1.4956106"/>
            <parameter index="1" name="static gain" parameterValue="1"/>
          </component>
          <component componentGuid="62106c63-e0b8-4882-9260-1784d5565cca" componentID="Audition.Mute" id="clipMute" name="Mute" powered="true">
            <parameter index="0" parameterValue="0"/>
            <parameter index="1" name="mute" parameterValue="0"/>
          </component>
          <component componentGuid="2d588909-1541-4cfc-b6e4-bb39b142b6e3" componentID="Audition.StereoPanner" id="clipPan" name="StereoPanner" powered="true">
            <parameter index="0" name="Pan" parameterValue="0"/>
          </component>
          <fadeIn crossFadeLinkType="linkedAsymmetric" endPoint="17908" shape="19" startPoint="0" type="log"/>
          <fadeOut crossFadeLinkType="linkedAsymmetric" endPoint="210532" shape="18" startPoint="210532" type="log"/>
          <editParameter parameterIndex="0" slotIndex="4294967281"/>
          <editParameter parameterIndex="0" slotIndex="4294967280"/>
          <channelMap>
            <channel index="0" sourceIndex="0"/>
          </channelMap>
        </audioClip>
        <audioClip clipAutoCrossfade="true" crossFadeHeadClipID="-1" crossFadeTailClipID="59" endPoint="8262015" fileID="15" hue="-1" id="58" lockedInTime="false" looped="false" name="Eddie_021" offline="false" select="false" sourceInPoint="1069041" sourceOutPoint="1206615" startPoint="8124441" zOrder="2145914687">
          <component componentGuid="246bd602-e4da-4b4f-be35-54819d4bd6fc" componentID="Audition.Fader" id="clipGain" name="volume" powered="true">
            <parameter index="0" name="volume" parameterValue="1.5456573"/>
            <parameter index="1" name="static gain" parameterValue="1"/>
          </component>
          <component componentGuid="dcc90588-d569-4fe8-9bb7-ab16043cd961" componentID="Audition.Mute" id="clipMute" name="Mute" powered="true">
            <parameter index="0" parameterValue="0"/>
            <parameter index="1" name="mute" parameterValue="0"/>
          </component>
          <component componentGuid="f173bd49-4be1-4878-9549-387e9e3a75d9" componentID="Audition.StereoPanner" id="clipPan" name="StereoPanner" powered="true">
            <parameter index="0" name="Pan" parameterValue="0"/>
          </component>
          <fadeIn crossFadeLinkType="linkedAsymmetric" endPoint="0" shape="19" startPoint="0" type="log"/>
          <fadeOut crossFadeLinkType="linkedAsymmetric" endPoint="137574" shape="18" startPoint="130388" type="log"/>
          <editParameter parameterIndex="0" slotIndex="4294967281"/>
          <editParameter parameterIndex="0" slotIndex="4294967280"/>
          <channelMap>
            <channel index="0" sourceIndex="0"/>
          </channelMap>
        </audioClip>
        <audioClip clipAutoCrossfade="true" crossFadeHeadClipID="58" crossFadeTailClipID="-1" endPoint="8307581" fileID="14" hue="-1" id="59" lockedInTime="false" looped="false" name="Eddie_019" offline="false" select="false" sourceInPoint="1417059" sourceOutPoint="1469811" startPoint="8254829" zOrder="2145914685">
          <component componentGuid="f61060e9-ba78-4bd8-84a3-8fae56bd91ea" componentID="Audition.Fader" id="clipGain" name="volume" powered="true">
            <parameter index="0" name="volume" parameterValue="1.5203364"/>
            <parameter index="1" name="static gain" parameterValue="1"/>
          </component>
          <component componentGuid="27aefd10-ee3d-42e3-94b5-e73c6301a0ed" componentID="Audition.Mute" id="clipMute" name="Mute" powered="true">
            <parameter index="0" parameterValue="0"/>
            <parameter index="1" name="mute" parameterValue="0"/>
          </component>
          <component componentGuid="ad0a12de-8a6c-4623-bb96-55f9aadfe993" componentID="Audition.StereoPanner" id="clipPan" name="StereoPanner" powered="true">
            <parameter index="0" name="Pan" parameterValue="0"/>
          </component>
          <fadeIn crossFadeLinkType="linkedAsymmetric" endPoint="7186" shape="19" startPoint="0" type="log"/>
          <fadeOut crossFadeLinkType="linkedAsymmetric" endPoint="52752" shape="10" startPoint="38090" type="log"/>
          <editParameter parameterIndex="0" slotIndex="4294967281"/>
          <editParameter parameterIndex="0" slotIndex="4294967280"/>
          <channelMap>
            <channel index="0" sourceIndex="0"/>
          </channelMap>
        </audioClip>
        <audioClip clipAutoCrossfade="true" crossFadeHeadClipID="-1" crossFadeTailClipID="-1" endPoint="8417997" fileID="0" hue="-1" id="60" lockedInTime="false" looped="false" name="Track 3_014" offline="false" select="false" sourceInPoint="241366" sourceOutPoint="274855" startPoint="8384508" zOrder="2145914691">
          <component componentGuid="e9643aaa-9ac2-4c79-a7d5-6dde71c1e378" componentID="Audition.Fader" id="clipGain" name="volume" powered="true">
            <parameter index="0" name="volume" parameterValue="1"/>
            <parameter index="1" name="static gain" parameterValue="1"/>
          </component>
          <component componentGuid="da8bab15-4f6e-4212-8abb-00b92fff4bd4" componentID="Audition.Mute" id="clipMute" name="Mute" powered="true">
            <parameter index="0" parameterValue="0"/>
            <parameter index="1" name="mute" parameterValue="0"/>
          </component>
          <component componentGuid="51ec8702-ba8a-4846-b99f-c4b27f50a9f1" componentID="Audition.StereoPanner" id="clipPan" name="StereoPanner" powered="true">
            <parameter index="0" name="Pan" parameterValue="0"/>
          </component>
          <fadeIn crossFadeLinkType="linkedAsymmetric" endPoint="6627" shape="19" startPoint="0" type="log"/>
          <fadeOut crossFadeLinkType="linkedAsymmetric" endPoint="33489" shape="18" startPoint="33489" type="log"/>
          <clipStretch adaptiveWindowSize="37" pitchAdjustment="0" preserveFormants="true" stretchMode="realtime" stretchQuality="high" stretchRatio="0.8555101746240038" stretchType="solo" transientSensitivity="40"/>
          <editParameter parameterIndex="0" slotIndex="4294967281"/>
          <editParameter parameterIndex="0" slotIndex="4294967280"/>
          <channelMap>
            <channel index="0" sourceIndex="0"/>
          </channelMap>
        </audioClip>
        <audioClip clipAutoCrossfade="true" crossFadeHeadClipID="-1" crossFadeTailClipID="-1" endPoint="8481534" fileID="12" hue="-1" id="61" lockedInTime="false" looped="false" name="Eddie_018" offline="false" select="false" sourceInPoint="1574715" sourceOutPoint="1638252" startPoint="8417997" zOrder="2145915013">
          <component componentGuid="63a15321-7696-48e4-b8d4-8da724e1544a" componentID="Audition.Fader" id="clipGain" name="volume" powered="true">
            <parameter index="0" name="volume" parameterValue="0.3867961">
              <parameterKeyframes enableSplines="false">
                <parameterKeyframe sampleOffset="1573752" select="false" type="linear" value="0.4248344"/>
                <parameterKeyframe sampleOffset="1573753" select="false" type="linear" value="0.65"/>
                <parameterKeyframe sampleOffset="1589721" select="true" type="linear" value="0.7770471"/>
              </parameterKeyframes>
            </parameter>
            <parameter index="1" name="static gain" parameterValue="1"/>
          </component>
          <component componentGuid="a92cdf65-fec4-4f2f-bfd8-bd3449f8c1fb" componentID="Audition.Mute" id="clipMute" name="Mute" powered="true">
            <parameter index="0" parameterValue="0"/>
            <parameter index="1" name="mute" parameterValue="0"/>
          </component>
          <component componentGuid="1d5b733e-4db6-4724-9a18-7b2f501ddbdc" componentID="Audition.StereoPanner" id="clipPan" name="StereoPanner" powered="true">
            <parameter index="0" name="Pan" parameterValue="0"/>
          </component>
          <fadeIn crossFadeLinkType="linkedAsymmetric" endPoint="0" shape="5" startPoint="0" type="log"/>
          <fadeOut crossFadeLinkType="linkedAsymmetric" endPoint="63537" shape="18" startPoint="63537" type="log"/>
          <editParameter parameterIndex="0" slotIndex="4294967281"/>
          <editParameter parameterIndex="0" slotIndex="4294967280"/>
          <channelMap>
            <channel index="0" sourceIndex="0"/>
          </channelMap>
        </audioClip>
        <audioClip clipAutoCrossfade="true" crossFadeHeadClipID="-1" crossFadeTailClipID="-1" endPoint="8541987" fileID="12" hue="-1" id="62" lockedInTime="false" looped="false" name="Eddie_018" offline="false" select="false" sourceInPoint="1645965" sourceOutPoint="1706418" startPoint="8481534" zOrder="2145914696">
          <component componentGuid="6dc465a3-cf1e-454a-a326-4fc4ac4694f3" componentID="Audition.Fader" id="clipGain" name="volume" powered="true">
            <parameter index="0" name="volume" parameterValue="1.5981658"/>
            <parameter index="1" name="static gain" parameterValue="1"/>
          </component>
          <component componentGuid="2de54876-ddd2-4fde-a2ef-8fbfcf77621e" componentID="Audition.Mute" id="clipMute" name="Mute" powered="true">
            <parameter index="0" parameterValue="0"/>
            <parameter index="1" name="mute" parameterValue="0"/>
          </component>
          <component componentGuid="19c45f32-40d9-467a-8472-5742c094ae6b" componentID="Audition.StereoPanner" id="clipPan" name="StereoPanner" powered="true">
            <parameter index="0" name="Pan" parameterValue="0"/>
          </component>
          <fadeIn crossFadeLinkType="linkedAsymmetric" endPoint="0" shape="0" startPoint="0" type="cosine"/>
          <fadeOut crossFadeLinkType="linkedAsymmetric" endPoint="60453" shape="18" startPoint="60453" type="log"/>
          <editParameter parameterIndex="0" slotIndex="4294967281"/>
          <editParameter parameterIndex="0" slotIndex="4294967280"/>
          <channelMap>
            <channel index="0" sourceIndex="0"/>
          </channelMap>
        </audioClip>
        <audioClip clipAutoCrossfade="true" crossFadeHeadClipID="-1" crossFadeTailClipID="-1" endPoint="8689158" fileID="14" hue="-1" id="63" lockedInTime="false" looped="false" name="Eddie_019" offline="false" select="false" sourceInPoint="1633532" sourceOutPoint="1780703" startPoint="8541987" zOrder="2145914698">
          <component componentGuid="e634fb7b-776e-40ba-9f43-54046d8d058a" componentID="Audition.Fader" id="clipGain" name="volume" powered="true">
            <parameter index="0" name="volume" parameterValue="1.5981658"/>
            <parameter index="1" name="static gain" parameterValue="1"/>
          </component>
          <component componentGuid="62c0c258-e2f3-4b00-ab35-595975be0034" componentID="Audition.Mute" id="clipMute" name="Mute" powered="true">
            <parameter index="0" parameterValue="0"/>
            <parameter index="1" name="mute" parameterValue="0"/>
          </component>
          <component componentGuid="c741a491-3e82-48be-aa58-a0b79686f3da" componentID="Audition.StereoPanner" id="clipPan" name="StereoPanner" powered="true">
            <parameter index="0" name="Pan" parameterValue="0"/>
          </component>
          <fadeIn crossFadeLinkType="linkedAsymmetric" endPoint="0" shape="0" startPoint="0" type="cosine"/>
          <fadeOut crossFadeLinkType="linkedAsymmetric" endPoint="147171" shape="0" startPoint="125318" type="log"/>
          <editParameter parameterIndex="0" slotIndex="4294967281"/>
          <editParameter parameterIndex="0" slotIndex="4294967280"/>
          <channelMap>
            <channel index="0" sourceIndex="0"/>
          </channelMap>
        </audioClip>
      </audioTrack>
      <audioTrack automationLaneOpenState="false" id="10002" index="2" select="true" visible="true">
        <trackParameters trackHeight="173" trackHue="355.1494503021240234" trackMinimized="false">
          <name>James</name>
        </trackParameters>
        <trackAudioParameters audioChannelType="stereo" automationMode="1" monitoring="false" recordArmed="false" solo="false" soloSafe="false">
          <trackOutput outputID="10000" type="trackID"/>
          <trackInput inputID="1"/>
          <component componentGuid="fc2d59f8-ce2b-4e3c-a57d-39c640a44759" componentID="Audition.Fader" id="trackFader" name="volume" powered="true">
            <parameter index="0" name="volume" parameterValue="1"/>
            <parameter index="1" name="static gain" parameterValue="1"/>
          </component>
          <component componentGuid="14d70493-dc21-47e8-b661-3a27aed6d098" componentID="Audition.Mute" id="trackMute" name="Mute" powered="true">
            <parameter index="0" parameterValue="0"/>
            <parameter index="1" name="mute" parameterValue="0"/>
          </component>
          <component componentGuid="dc9306e5-e128-4ebc-a245-a701a58bdad1" componentID="Audition.StereoPanner" id="trackPan" name="StereoPanner" powered="true">
            <parameter index="0" name="Pan" parameterValue="0"/>
          </component>
          <component componentGuid="7937b365-bf4f-4bb6-b6b4-273bde7d833d" componentID="Audition.EQ" id="trackEQ" name="EQ" powered="false">
            <parameter index="0" name="Low Shelf Frequency" parameterValue="0.0009079"/>
            <parameter index="1" name="Low Shelf Gain" parameterValue="0.5"/>
            <parameter index="2" name="High Shelf Frequency" parameterValue="0.8161598"/>
            <parameter index="3" name="High Shelf Gain" parameterValue="0.5"/>
            <parameter index="4" name="EQ Band 1 Center Frequency" parameterValue="0.0013618"/>
            <parameter index="5" name="EQ Band 1 Q" parameterValue="0.0002"/>
            <parameter index="6" name="EQ Band 1 Gain" parameterValue="0.5"/>
            <parameter index="7" name="EQ Band 1 Enable" parameterValue="1"/>
            <parameter index="8" name="EQ Band 2 Center Frequency" parameterValue="0.0081707"/>
            <parameter index="9" name="EQ Band 2 Q" parameterValue="0.0002"/>
            <parameter index="10" name="EQ Band 2 Gain" parameterValue="0.5"/>
            <parameter index="11" name="EQ Band 2 Enable" parameterValue="1"/>
            <parameter index="12" name="EQ Band 3 Center Frequency" parameterValue="0.0354063"/>
            <parameter index="13" name="EQ Band 3 Q" parameterValue="0.0002"/>
            <parameter index="14" name="EQ Band 3 Gain" parameterValue="0.5"/>
            <parameter index="15" name="EQ Band 3 Enable" parameterValue="1"/>
            <parameter index="16" name="EQ Band 4 Center Frequency" parameterValue="0.1443486"/>
            <parameter index="17" name="EQ Band 4 Q" parameterValue="0.0002"/>
            <parameter index="18" name="EQ Band 4 Gain" parameterValue="0.5"/>
            <parameter index="19" name="EQ Band 4 Enable" parameterValue="1"/>
            <parameter index="20" name="EQ Band 5 Center Frequency" parameterValue="0.580118"/>
            <parameter index="21" name="EQ Band 5 Q" parameterValue="0.0002"/>
            <parameter index="22" name="EQ Band 5 Gain" parameterValue="0.5"/>
            <parameter index="23" name="EQ Band 5 Enable" parameterValue="1"/>
            <parameter index="24" name="Master Gain" parameterValue="0.6666667"/>
            <parameter index="25" name="ConstantQ" parameterValue="1"/>
            <parameter index="26" name="Low Shelf Filter Order" parameterValue="0"/>
            <parameter index="27" name="High Shelf Filter Order" parameterValue="0"/>
            <parameter index="28" name="Ultra-Quiet Mode" parameterValue="0"/>
            <parameter index="29" name="Low Shelf Enable" parameterValue="1"/>
            <parameter index="30" name="High Shelf Enable" parameterValue="1"/>
            <parameter index="31" name="Original Sample Rate" parameterValue="0.2296875"/>
            <parameter index="32" name="EQ Band 1 Bandwidth" parameterValue="0.0025"/>
            <parameter index="33" name="EQ Band 2 Bandwidth" parameterValue="0.01"/>
            <parameter index="34" name="EQ Band 3 Bandwidth" parameterValue="0.04"/>
            <parameter index="35" name="EQ Band 4 Bandwidth" parameterValue="0.16"/>
            <parameter index="36" name="EQ Band 5 Bandwidth" parameterValue="0.64"/>
            <parameter index="37" name="High-Pass Filter Enable" parameterValue="0"/>
            <parameter index="38" name="High-Pass Cutoff Frequency" parameterValue="0"/>
            <parameter index="39" name="High-Pass Slope" parameterValue="0.4"/>
            <parameter index="40" name="Low-Pass Filter Enable" parameterValue="0"/>
            <parameter index="41" name="Low-Pass Cutoff Frequency" parameterValue="0.906945"/>
            <parameter index="42" name="Low-Pass Slope" parameterValue="0.4"/>
            <parameter index="43" name="Bypass" parameterValue="0"/>
            <parameter index="44" name="LowGraphRange" parameterValue="1"/>
          </component>
        </trackAudioParameters>
        <editParameter parameterIndex="0" slotIndex="4294967280"/>
        <sendList>
          <sendSlot preFader="false" sendOutputID="0" slotIndex="0">
            <component componentGuid="f5522fd5-9f4f-4481-a189-5e3fbda4ddfd" id="sendComponent" powered="false">
              <parameter index="0" name="Power On/Off" parameterValue="0"/>
              <parameter index="1" name="Level" parameterValue="0"/>
            </component>
            <component id="sendPan" powered="true"/>
          </sendSlot>
          <sendSlot preFader="false" sendOutputID="0" slotIndex="1">
            <component componentGuid="a15d2da8-658e-417a-aead-04273efdd1aa" id="sendComponent" powered="false">
              <parameter index="0" name="Power On/Off" parameterValue="0"/>
              <parameter index="1" name="Level" parameterValue="0"/>
            </component>
            <component id="sendPan" powered="true"/>
          </sendSlot>
          <sendSlot preFader="false" sendOutputID="0" slotIndex="2">
            <component componentGuid="a588b0bd-1f44-4212-851c-795b3d53914c" id="sendComponent" powered="false">
              <parameter index="0" name="Power On/Off" parameterValue="0"/>
              <parameter index="1" name="Level" parameterValue="0"/>
            </component>
            <component id="sendPan" powered="true"/>
          </sendSlot>
          <sendSlot preFader="false" sendOutputID="0" slotIndex="3">
            <component componentGuid="7c20b6bd-9742-46c3-aa82-7c64d9779b15" id="sendComponent" powered="false">
              <parameter index="0" name="Power On/Off" parameterValue="0"/>
              <parameter index="1" name="Level" parameterValue="0"/>
            </component>
            <component id="sendPan" powered="true"/>
          </sendSlot>
          <sendSlot preFader="false" sendOutputID="0" slotIndex="4">
            <component componentGuid="8dd527ae-196e-4027-a572-457679734428" id="sendComponent" powered="false">
              <parameter index="0" name="Power On/Off" parameterValue="0"/>
              <parameter index="1" name="Level" parameterValue="0"/>
            </component>
            <component id="sendPan" powered="true"/>
          </sendSlot>
          <sendSlot preFader="false" sendOutputID="0" slotIndex="5">
            <component componentGuid="e1662e39-b418-4c16-b093-595180fa6175" id="sendComponent" powered="false">
              <parameter index="0" name="Power On/Off" parameterValue="0"/>
              <parameter index="1" name="Level" parameterValue="0"/>
            </component>
            <component id="sendPan" powered="true"/>
          </sendSlot>
          <sendSlot preFader="false" sendOutputID="0" slotIndex="6">
            <component componentGuid="099d4c47-d3c8-428f-a076-ca5f6d7663e6" id="sendComponent" powered="false">
              <parameter index="0" name="Power On/Off" parameterValue="0"/>
              <parameter index="1" name="Level" parameterValue="0"/>
            </component>
            <component id="sendPan" powered="true"/>
          </sendSlot>
          <sendSlot preFader="false" sendOutputID="0" slotIndex="7">
            <component componentGuid="0b7241fa-4382-4d98-8a16-4ccfae4571fd" id="sendComponent" powered="false">
              <parameter index="0" name="Power On/Off" parameterValue="0"/>
              <parameter index="1" name="Level" parameterValue="0"/>
            </component>
            <component id="sendPan" powered="true"/>
          </sendSlot>
          <sendSlot preFader="false" sendOutputID="0" slotIndex="8">
            <component componentGuid="252769e8-ad55-4e33-848f-b1c1ce376b3b" id="sendComponent" powered="false">
              <parameter index="0" name="Power On/Off" parameterValue="0"/>
              <parameter index="1" name="Level" parameterValue="0"/>
            </component>
            <component id="sendPan" powered="true"/>
          </sendSlot>
          <sendSlot preFader="false" sendOutputID="0" slotIndex="9">
            <component componentGuid="88576e3c-1286-499b-8e59-33e8b575152b" id="sendComponent" powered="false">
              <parameter index="0" name="Power On/Off" parameterValue="0"/>
              <parameter index="1" name="Level" parameterValue="0"/>
            </component>
            <component id="sendPan" powered="true"/>
          </sendSlot>
          <sendSlot preFader="false" sendOutputID="0" slotIndex="10">
            <component componentGuid="d741f3eb-194a-4dee-9d6c-1e2f89b90d14" id="sendComponent" powered="false">
              <parameter index="0" name="Power On/Off" parameterValue="0"/>
              <parameter index="1" name="Level" parameterValue="0"/>
            </component>
            <component id="sendPan" powered="true"/>
          </sendSlot>
          <sendSlot preFader="false" sendOutputID="0" slotIndex="11">
            <component componentGuid="cf8fe766-e290-434f-a591-f0b2f98c54ad" id="sendComponent" powered="false">
              <parameter index="0" name="Power On/Off" parameterValue="0"/>
              <parameter index="1" name="Level" parameterValue="0"/>
            </component>
            <component id="sendPan" powered="true"/>
          </sendSlot>
          <sendSlot preFader="false" sendOutputID="0" slotIndex="12">
            <component componentGuid="3c16febb-8437-4e54-9b40-fd2c0621bcdc" id="sendComponent" powered="false">
              <parameter index="0" name="Power On/Off" parameterValue="0"/>
              <parameter index="1" name="Level" parameterValue="0"/>
            </component>
            <component id="sendPan" powered="true"/>
          </sendSlot>
          <sendSlot preFader="false" sendOutputID="0" slotIndex="13">
            <component componentGuid="60f13522-4445-4536-82a5-684dd9b9506e" id="sendComponent" powered="false">
              <parameter index="0" name="Power On/Off" parameterValue="0"/>
              <parameter index="1" name="Level" parameterValue="0"/>
            </component>
            <component id="sendPan" powered="true"/>
          </sendSlot>
          <sendSlot preFader="false" sendOutputID="0" slotIndex="14">
            <component componentGuid="123175d9-39f6-424d-b49e-24a43ec4f7b3" id="sendComponent" powered="false">
              <parameter index="0" name="Power On/Off" parameterValue="0"/>
              <parameter index="1" name="Level" parameterValue="0"/>
            </component>
            <component id="sendPan" powered="true"/>
          </sendSlot>
          <sendSlot preFader="false" sendOutputID="0" slotIndex="15">
            <component componentGuid="9e3fc352-f86e-43af-bf56-99e5aefa13a7" id="sendComponent" powered="false">
              <parameter index="0" name="Power On/Off" parameterValue="0"/>
              <parameter index="1" name="Level" parameterValue="0"/>
            </component>
            <component id="sendPan" powered="true"/>
          </sendSlot>
        </sendList>
        <audioClip clipAutoCrossfade="true" crossFadeHeadClipID="-1" crossFadeTailClipID="-1" endPoint="47575" fileID="16" hue="-1" id="0" lockedInTime="false" looped="false" name="Track 3_013" offline="false" select="false" sourceInPoint="142590" sourceOutPoint="175558" startPoint="14607" zOrder="2145914497">
          <component componentGuid="93c77cce-ef96-4ff7-94bd-8138edad3897" componentID="Audition.Fader" id="clipGain" name="volume" powered="true">
            <parameter index="0" name="volume" parameterValue="1"/>
            <parameter index="1" name="static gain" parameterValue="1"/>
          </component>
          <component componentGuid="40a0c2ee-c1a3-4545-88cc-939d1412f591" componentID="Audition.Mute" id="clipMute" name="Mute" powered="true">
            <parameter index="0" parameterValue="0"/>
            <parameter index="1" name="mute" parameterValue="0"/>
          </component>
          <component componentGuid="15440463-72dd-4f80-8ae6-2ff904408eff" componentID="Audition.StereoPanner" id="clipPan" name="StereoPanner" powered="true">
            <parameter index="0" name="Pan" parameterValue="0"/>
          </component>
          <fadeIn crossFadeLinkType="linkedAsymmetric" endPoint="7431" shape="19" startPoint="0" type="log"/>
          <fadeOut crossFadeLinkType="linkedAsymmetric" endPoint="32968" shape="19" startPoint="32968" type="log"/>
          <clipStretch adaptiveWindowSize="37" pitchAdjustment="0" preserveFormants="true" stretchMode="realtime" stretchQuality="high" stretchRatio="0.8185076705651025" stretchType="solo" transientSensitivity="40"/>
          <editParameter parameterIndex="0" slotIndex="4294967281"/>
          <editParameter parameterIndex="0" slotIndex="4294967280"/>
          <channelMap>
            <channel index="0" sourceIndex="0"/>
          </channelMap>
        </audioClip>
        <audioClip clipAutoCrossfade="true" crossFadeHeadClipID="-1" crossFadeTailClipID="-1" endPoint="354876" fileID="17" hue="-1" id="1" lockedInTime="false" looped="false" name="James_030" offline="false" select="false" sourceInPoint="167114" sourceOutPoint="474415" startPoint="47575" zOrder="2145914508">
          <component componentGuid="66376497-23d6-4603-bf11-0619c8227da9" componentID="Audition.Fader" id="clipGain" name="volume" powered="true">
            <parameter index="0" name="volume" parameterValue="1.6826049">
              <parameterKeyframes enableSplines="false">
                <parameterKeyframe sampleOffset="163422" select="false" type="linear" value="0.65"/>
                <parameterKeyframe sampleOffset="177932" select="true" type="linear" value="0.7850844"/>
              </parameterKeyframes>
            </parameter>
            <parameter index="1" name="static gain" parameterValue="1"/>
          </component>
          <component componentGuid="f6d447c1-98f8-41da-a99e-4745e1d22d16" componentID="Audition.Mute" id="clipMute" name="Mute" powered="true">
            <parameter index="0" parameterValue="0"/>
            <parameter index="1" name="mute" parameterValue="0"/>
          </component>
          <component componentGuid="1e2b91cb-f6ac-49ae-9d35-ae1fa66464d5" componentID="Audition.StereoPanner" id="clipPan" name="StereoPanner" powered="true">
            <parameter index="0" name="Pan" parameterValue="0"/>
          </component>
          <fadeIn crossFadeLinkType="linkedAsymmetric" endPoint="0" shape="18" startPoint="0" type="log"/>
          <fadeOut crossFadeLinkType="linkedAsymmetric" endPoint="307301" shape="19" startPoint="297427" type="log"/>
          <take sourceInPoint="0"/>
          <editParameter parameterIndex="0" slotIndex="4294967281"/>
          <editParameter parameterIndex="0" slotIndex="4294967280"/>
          <channelMap>
            <channel index="0" sourceIndex="0"/>
          </channelMap>
        </audioClip>
        <audioClip clipAutoCrossfade="true" crossFadeHeadClipID="-1" crossFadeTailClipID="-1" endPoint="473609" fileID="16" hue="-1" id="2" lockedInTime="false" looped="false" name="Track 3_013" offline="false" select="false" sourceInPoint="142590" sourceOutPoint="175558" startPoint="440641" zOrder="2145914504">
          <component componentGuid="03b20c7f-7534-4b07-aa47-e75e4ffff11b" componentID="Audition.Fader" id="clipGain" name="volume" powered="true">
            <parameter index="0" name="volume" parameterValue="1"/>
            <parameter index="1" name="static gain" parameterValue="1"/>
          </component>
          <component componentGuid="e826c74b-2f98-41a3-ac10-403a2805ef4a" componentID="Audition.Mute" id="clipMute" name="Mute" powered="true">
            <parameter index="0" parameterValue="0"/>
            <parameter index="1" name="mute" parameterValue="0"/>
          </component>
          <component componentGuid="26dcc7b8-272f-4e01-abec-042338359955" componentID="Audition.StereoPanner" id="clipPan" name="StereoPanner" powered="true">
            <parameter index="0" name="Pan" parameterValue="0"/>
          </component>
          <fadeIn crossFadeLinkType="linkedAsymmetric" endPoint="7431" shape="19" startPoint="0" type="log"/>
          <fadeOut crossFadeLinkType="linkedAsymmetric" endPoint="32968" shape="19" startPoint="32968" type="log"/>
          <clipStretch adaptiveWindowSize="37" pitchAdjustment="0" preserveFormants="true" stretchMode="realtime" stretchQuality="high" stretchRatio="0.8185076705651025" stretchType="solo" transientSensitivity="40"/>
          <editParameter parameterIndex="0" slotIndex="4294967281"/>
          <editParameter parameterIndex="0" slotIndex="4294967280"/>
          <channelMap>
            <channel index="0" sourceIndex="0"/>
          </channelMap>
        </audioClip>
        <audioClip clipAutoCrossfade="true" crossFadeHeadClipID="-1" crossFadeTailClipID="-1" endPoint="701461" fileID="18" hue="-1" id="3" lockedInTime="false" looped="false" name="James_029" offline="false" select="false" sourceInPoint="380474" sourceOutPoint="608326" startPoint="473609" zOrder="2145914509">
          <component componentGuid="09979d39-7d26-48f5-84d1-bed57aaa80e9" componentID="Audition.Fader" id="clipGain" name="volume" powered="true">
            <parameter index="0" name="volume" parameterValue="1.5009903">
              <parameterKeyframes enableSplines="false">
                <parameterKeyframe sampleOffset="379397" select="false" type="linear" value="0.65"/>
                <parameterKeyframe sampleOffset="400866" select="true" type="linear" value="0.7580678"/>
              </parameterKeyframes>
            </parameter>
            <parameter index="1" name="static gain" parameterValue="1"/>
          </component>
          <component componentGuid="23511e26-2169-42ae-923e-8376b226d69c" componentID="Audition.Mute" id="clipMute" name="Mute" powered="true">
            <parameter index="0" parameterValue="0"/>
            <parameter index="1" name="mute" parameterValue="0"/>
          </component>
          <component componentGuid="0e380a4f-c72e-4c7e-bcf6-2556427f957c" componentID="Audition.StereoPanner" id="clipPan" name="StereoPanner" powered="true">
            <parameter index="0" name="Pan" parameterValue="0"/>
          </component>
          <fadeIn crossFadeLinkType="linkedAsymmetric" endPoint="0" shape="14" startPoint="0" type="log"/>
          <fadeOut crossFadeLinkType="linkedAsymmetric" endPoint="227852" shape="7" startPoint="213260" type="log"/>
          <editParameter parameterIndex="0" slotIndex="4294967281"/>
          <editParameter parameterIndex="0" slotIndex="4294967280"/>
          <channelMap>
            <channel index="0" sourceIndex="0"/>
          </channelMap>
        </audioClip>
        <audioClip clipAutoCrossfade="true" crossFadeHeadClipID="-1" crossFadeTailClipID="-1" endPoint="827199" fileID="16" hue="-1" id="4" lockedInTime="false" looped="false" name="Track 3_013" offline="false" select="false" sourceInPoint="142590" sourceOutPoint="175558" startPoint="794231" zOrder="2145913085">
          <component componentGuid="8781c3c7-e9fa-4f65-b0d8-e4b5a2b24468" componentID="Audition.Fader" id="clipGain" name="volume" powered="true">
            <parameter index="0" name="volume" parameterValue="1"/>
            <parameter index="1" name="static gain" parameterValue="1"/>
          </component>
          <component componentGuid="64c403a2-82dd-4881-92b2-a18a1895294c" componentID="Audition.Mute" id="clipMute" name="Mute" powered="true">
            <parameter index="0" parameterValue="0"/>
            <parameter index="1" name="mute" parameterValue="0"/>
          </component>
          <component componentGuid="9500a11a-e325-4904-b4c5-dc43b01b8fc7" componentID="Audition.StereoPanner" id="clipPan" name="StereoPanner" powered="true">
            <parameter index="0" name="Pan" parameterValue="0"/>
          </component>
          <fadeIn crossFadeLinkType="linkedAsymmetric" endPoint="7431" shape="19" startPoint="0" type="log"/>
          <fadeOut crossFadeLinkType="linkedAsymmetric" endPoint="32968" shape="19" startPoint="32968" type="log"/>
          <clipStretch adaptiveWindowSize="37" pitchAdjustment="0" preserveFormants="true" stretchMode="realtime" stretchQuality="high" stretchRatio="0.8185076705651025" stretchType="solo" transientSensitivity="40"/>
          <editParameter parameterIndex="0" slotIndex="4294967281"/>
          <editParameter parameterIndex="0" slotIndex="4294967280"/>
          <channelMap>
            <channel index="0" sourceIndex="0"/>
          </channelMap>
        </audioClip>
        <audioClip clipAutoCrossfade="true" crossFadeHeadClipID="-1" crossFadeTailClipID="6" endPoint="957703" fileID="17" hue="-1" id="5" lockedInTime="false" looped="false" name="James_030" offline="false" select="false" sourceInPoint="956572" sourceOutPoint="1087076" startPoint="827199" zOrder="2145913358">
          <component componentGuid="9b10508d-2971-4fde-a394-c573d1a26e0b" componentID="Audition.Fader" id="clipGain" name="volume" powered="true">
            <parameter index="0" name="volume" parameterValue="1">
              <parameterKeyframes enableSplines="false">
                <parameterKeyframe sampleOffset="956959" select="false" type="linear" value="0.65"/>
                <parameterKeyframe sampleOffset="969288" select="true" type="linear" value="0.8728114"/>
              </parameterKeyframes>
            </parameter>
            <parameter index="1" name="static gain" parameterValue="1"/>
          </component>
          <component componentGuid="a38c225b-dcf2-47a1-b316-883c380d1e65" componentID="Audition.Mute" id="clipMute" name="Mute" powered="true">
            <parameter index="0" parameterValue="0"/>
            <parameter index="1" name="mute" parameterValue="0"/>
          </component>
          <component componentGuid="69f8afe4-92a4-4381-9e23-158edd3e0a9b" componentID="Audition.StereoPanner" id="clipPan" name="StereoPanner" powered="true">
            <parameter index="0" name="Pan" parameterValue="0"/>
          </component>
          <fadeIn crossFadeLinkType="linkedAsymmetric" endPoint="0" shape="0" startPoint="0" type="cosine"/>
          <fadeOut crossFadeLinkType="linkedAsymmetric" endPoint="130504" shape="18" startPoint="129739" type="log"/>
          <editParameter parameterIndex="0" slotIndex="4294967281"/>
          <editParameter parameterIndex="0" slotIndex="4294967280"/>
          <channelMap>
            <channel index="0" sourceIndex="0"/>
          </channelMap>
        </audioClip>
        <audioClip clipAutoCrossfade="true" crossFadeHeadClipID="5" crossFadeTailClipID="-1" endPoint="1062496" fileID="17" hue="-1" id="6" lockedInTime="false" looped="false" name="James_030" offline="false" select="false" sourceInPoint="1116931" sourceOutPoint="1222489" startPoint="956938" zOrder="2145913357">
          <component componentGuid="61ae41be-10be-49fe-94b6-d21d7833b69d" componentID="Audition.Fader" id="clipGain" name="volume" powered="true">
            <parameter index="0" name="volume" parameterValue="2.5536273">
              <parameterKeyframes enableSplines="false">
                <parameterKeyframe sampleOffset="956613" select="false" type="linear" value="0.4336538"/>
                <parameterKeyframe sampleOffset="969786" select="false" type="linear" value="0.65"/>
                <parameterKeyframe sampleOffset="1142664" select="true" type="linear" value="0.8728114"/>
              </parameterKeyframes>
            </parameter>
            <parameter index="1" name="static gain" parameterValue="1"/>
          </component>
          <component componentGuid="908f4e5b-611d-4cf7-aa12-27d551a3a7fc" componentID="Audition.Mute" id="clipMute" name="Mute" powered="true">
            <parameter index="0" parameterValue="0"/>
            <parameter index="1" name="mute" parameterValue="0"/>
          </component>
          <component componentGuid="9ab4bcf6-5b29-4849-88bb-49097a515d86" componentID="Audition.StereoPanner" id="clipPan" name="StereoPanner" powered="true">
            <parameter index="0" name="Pan" parameterValue="0"/>
          </component>
          <fadeIn crossFadeLinkType="linkedAsymmetric" endPoint="765" shape="19" startPoint="0" type="log"/>
          <fadeOut crossFadeLinkType="linkedAsymmetric" endPoint="105558" shape="27" startPoint="79920" type="log"/>
          <editParameter parameterIndex="0" slotIndex="4294967281"/>
          <editParameter parameterIndex="0" slotIndex="4294967280"/>
          <channelMap>
            <channel index="0" sourceIndex="0"/>
          </channelMap>
        </audioClip>
        <audioClip clipAutoCrossfade="true" crossFadeHeadClipID="-1" crossFadeTailClipID="-1" endPoint="1161720" fileID="16" hue="-1" id="7" lockedInTime="false" looped="false" name="Track 3_013" offline="false" select="false" sourceInPoint="142590" sourceOutPoint="175558" startPoint="1128752" zOrder="2145913335">
          <component componentGuid="aef2d15d-6c68-4aa7-9ad4-0a0fe38886ef" componentID="Audition.Fader" id="clipGain" name="volume" powered="true">
            <parameter index="0" name="volume" parameterValue="1"/>
            <parameter index="1" name="static gain" parameterValue="1"/>
          </component>
          <component componentGuid="1700e8e3-4a51-4787-8ba2-3c6b73ddd190" componentID="Audition.Mute" id="clipMute" name="Mute" powered="true">
            <parameter index="0" parameterValue="0"/>
            <parameter index="1" name="mute" parameterValue="0"/>
          </component>
          <component componentGuid="52fe0549-10e4-470a-8dd1-3f3a56be5e72" componentID="Audition.StereoPanner" id="clipPan" name="StereoPanner" powered="true">
            <parameter index="0" name="Pan" parameterValue="0"/>
          </component>
          <fadeIn crossFadeLinkType="linkedAsymmetric" endPoint="7431" shape="19" startPoint="0" type="log"/>
          <fadeOut crossFadeLinkType="linkedAsymmetric" endPoint="32968" shape="19" startPoint="32968" type="log"/>
          <clipStretch adaptiveWindowSize="37" pitchAdjustment="0" preserveFormants="true" stretchMode="realtime" stretchQuality="high" stretchRatio="0.8185076705651025" stretchType="solo" transientSensitivity="40"/>
          <editParameter parameterIndex="0" slotIndex="4294967281"/>
          <editParameter parameterIndex="0" slotIndex="4294967280"/>
          <channelMap>
            <channel index="0" sourceIndex="0"/>
          </channelMap>
        </audioClip>
        <audioClip clipAutoCrossfade="true" crossFadeHeadClipID="-1" crossFadeTailClipID="-1" endPoint="1476246" fileID="19" hue="-1" id="8" lockedInTime="false" looped="false" name="James_031" offline="false" select="false" sourceInPoint="961445" sourceOutPoint="1275971" startPoint="1161720" zOrder="2145913359">
          <component componentGuid="8b70b91b-5319-46d3-8e53-ba05f274171a" componentID="Audition.Fader" id="clipGain" name="volume" powered="true">
            <parameter index="0" name="volume" parameterValue="2.2438509">
              <parameterKeyframes enableSplines="false">
                <parameterKeyframe sampleOffset="961718" select="false" type="linear" value="0.65"/>
                <parameterKeyframe sampleOffset="975172" select="true" type="linear" value="0.8473471"/>
              </parameterKeyframes>
            </parameter>
            <parameter index="1" name="static gain" parameterValue="1"/>
          </component>
          <component componentGuid="00f31fb5-d5bb-4e2e-96d2-91ca949c52a6" componentID="Audition.Mute" id="clipMute" name="Mute" powered="true">
            <parameter index="0" parameterValue="0"/>
            <parameter index="1" name="mute" parameterValue="0"/>
          </component>
          <component componentGuid="cdc88a77-eea6-4382-ac95-d30cf400ef35" componentID="Audition.StereoPanner" id="clipPan" name="StereoPanner" powered="true">
            <parameter index="0" name="Pan" parameterValue="0"/>
          </component>
          <fadeIn crossFadeLinkType="linkedAsymmetric" endPoint="0" shape="0" startPoint="0" type="cosine"/>
          <fadeOut crossFadeLinkType="linkedAsymmetric" endPoint="314526" shape="13" startPoint="299019" type="log"/>
          <editParameter parameterIndex="0" slotIndex="4294967281"/>
          <editParameter parameterIndex="0" slotIndex="4294967280"/>
          <channelMap>
            <channel index="0" sourceIndex="0"/>
          </channelMap>
        </audioClip>
        <audioClip clipAutoCrossfade="true" crossFadeHeadClipID="-1" crossFadeTailClipID="-1" endPoint="1645340" fileID="16" hue="-1" id="9" lockedInTime="false" looped="false" name="Track 3_013" offline="false" select="false" sourceInPoint="142590" sourceOutPoint="175558" startPoint="1612372" zOrder="2145913340">
          <component componentGuid="9e77538b-29ae-4f12-befb-185d97f5da0a" componentID="Audition.Fader" id="clipGain" name="volume" powered="true">
            <parameter index="0" name="volume" parameterValue="1"/>
            <parameter index="1" name="static gain" parameterValue="1"/>
          </component>
          <component componentGuid="ef0cfd12-2350-4715-b8ec-6cc13aff419a" componentID="Audition.Mute" id="clipMute" name="Mute" powered="true">
            <parameter index="0" parameterValue="0"/>
            <parameter index="1" name="mute" parameterValue="0"/>
          </component>
          <component componentGuid="753c1dd4-1bf8-453f-bba3-70a691868bff" componentID="Audition.StereoPanner" id="clipPan" name="StereoPanner" powered="true">
            <parameter index="0" name="Pan" parameterValue="0"/>
          </component>
          <fadeIn crossFadeLinkType="linkedAsymmetric" endPoint="7431" shape="19" startPoint="0" type="log"/>
          <fadeOut crossFadeLinkType="linkedAsymmetric" endPoint="32968" shape="18" startPoint="32968" type="log"/>
          <clipStretch adaptiveWindowSize="37" pitchAdjustment="0" preserveFormants="true" stretchMode="realtime" stretchQuality="high" stretchRatio="0.8185076705651025" stretchType="solo" transientSensitivity="40"/>
          <editParameter parameterIndex="0" slotIndex="4294967281"/>
          <editParameter parameterIndex="0" slotIndex="4294967280"/>
          <channelMap>
            <channel index="0" sourceIndex="0"/>
          </channelMap>
        </audioClip>
        <audioClip clipAutoCrossfade="true" crossFadeHeadClipID="-1" crossFadeTailClipID="-1" endPoint="1874489" fileID="20" hue="-1" id="10" lockedInTime="false" looped="false" name="James_034" offline="false" select="false" sourceInPoint="23384" sourceOutPoint="252533" startPoint="1645340" zOrder="2145913361">
          <component componentGuid="063ba65d-7713-4328-88f2-1cfed1b2dbff" componentID="Audition.Fader" id="clipGain" name="volume" powered="true">
            <parameter index="0" name="volume" parameterValue="0.3114809">
              <parameterKeyframes enableSplines="false">
                <parameterKeyframe sampleOffset="21556" select="false" type="linear" value="0.3855769"/>
                <parameterKeyframe sampleOffset="23844" select="false" type="linear" value="0.65"/>
                <parameterKeyframe sampleOffset="40551" select="false" type="linear" value="0.8409813"/>
                <parameterKeyframe sampleOffset="193134" select="false" type="linear" value="0.8409813"/>
                <parameterKeyframe sampleOffset="203380" select="true" type="linear" value="0.7200265"/>
                <parameterKeyframe sampleOffset="213270" select="false" type="linear" value="0.8409813"/>
              </parameterKeyframes>
            </parameter>
            <parameter index="1" name="static gain" parameterValue="1"/>
          </component>
          <component componentGuid="fe75dba3-9b73-4a60-8050-cbeeca93a242" componentID="Audition.Mute" id="clipMute" name="Mute" powered="true">
            <parameter index="0" parameterValue="0"/>
            <parameter index="1" name="mute" parameterValue="0"/>
          </component>
          <component componentGuid="9bbfefb1-196f-46ba-bf05-a4c14bc6437b" componentID="Audition.StereoPanner" id="clipPan" name="StereoPanner" powered="true">
            <parameter index="0" name="Pan" parameterValue="0"/>
          </component>
          <fadeIn crossFadeLinkType="linkedAsymmetric" endPoint="0" shape="19" startPoint="0" type="log"/>
          <fadeOut crossFadeLinkType="linkedAsymmetric" endPoint="229149" shape="31" startPoint="204670" type="log"/>
          <take sourceInPoint="0"/>
          <editParameter parameterIndex="0" slotIndex="4294967281"/>
          <editParameter parameterIndex="0" slotIndex="4294967280"/>
          <channelMap>
            <channel index="0" sourceIndex="0"/>
          </channelMap>
        </audioClip>
        <audioClip clipAutoCrossfade="true" crossFadeHeadClipID="-1" crossFadeTailClipID="-1" endPoint="2003795" fileID="16" hue="-1" id="11" lockedInTime="false" looped="false" name="Track 3_013" offline="false" select="false" sourceInPoint="142590" sourceOutPoint="175558" startPoint="1970827" zOrder="2145913367">
          <component componentGuid="2587eabd-8a0a-447a-bbfe-5c5b05c8ff93" componentID="Audition.Fader" id="clipGain" name="volume" powered="true">
            <parameter index="0" name="volume" parameterValue="1"/>
            <parameter index="1" name="static gain" parameterValue="1"/>
          </component>
          <component componentGuid="c7b165b6-a4f4-4201-a023-6e01ef036f01" componentID="Audition.Mute" id="clipMute" name="Mute" powered="true">
            <parameter index="0" parameterValue="0"/>
            <parameter index="1" name="mute" parameterValue="0"/>
          </component>
          <component componentGuid="3fcad664-57a6-4978-bea4-4edfcc70ae75" componentID="Audition.StereoPanner" id="clipPan" name="StereoPanner" powered="true">
            <parameter index="0" name="Pan" parameterValue="0"/>
          </component>
          <fadeIn crossFadeLinkType="linkedAsymmetric" endPoint="7431" shape="19" startPoint="0" type="log"/>
          <fadeOut crossFadeLinkType="linkedAsymmetric" endPoint="32968" shape="18" startPoint="32968" type="log"/>
          <clipStretch adaptiveWindowSize="37" pitchAdjustment="0" preserveFormants="true" stretchMode="realtime" stretchQuality="high" stretchRatio="0.8185076705651025" stretchType="solo" transientSensitivity="40"/>
          <editParameter parameterIndex="0" slotIndex="4294967281"/>
          <editParameter parameterIndex="0" slotIndex="4294967280"/>
          <channelMap>
            <channel index="0" sourceIndex="0"/>
          </channelMap>
        </audioClip>
        <audioClip clipAutoCrossfade="true" crossFadeHeadClipID="-1" crossFadeTailClipID="-1" endPoint="2369091" fileID="21" hue="-1" id="12" lockedInTime="false" looped="false" name="James_039" offline="false" select="false" sourceInPoint="48547" sourceOutPoint="413700" startPoint="2003938" zOrder="2145913374">
          <component componentGuid="04d77f33-cd5d-4f9e-bdd1-70211e9f1962" componentID="Audition.Fader" id="clipGain" name="volume" powered="true">
            <parameter index="0" name="volume" parameterValue="0.3565296">
              <parameterKeyframes enableSplines="false">
                <parameterKeyframe sampleOffset="45683" select="false" type="linear" value="0.4096154"/>
                <parameterKeyframe sampleOffset="48309" select="false" type="linear" value="0.65"/>
                <parameterKeyframe sampleOffset="61632" select="true" type="linear" value="0.8600793"/>
              </parameterKeyframes>
            </parameter>
            <parameter index="1" name="static gain" parameterValue="1"/>
          </component>
          <component componentGuid="2528987b-41b7-4a93-8b58-2dd62ae862dc" componentID="Audition.Mute" id="clipMute" name="Mute" powered="true">
            <parameter index="0" parameterValue="0"/>
            <parameter index="1" name="mute" parameterValue="0"/>
          </component>
          <component componentGuid="fa71ed07-be6e-410e-881e-fe35c1960595" componentID="Audition.StereoPanner" id="clipPan" name="StereoPanner" powered="true">
            <parameter index="0" name="Pan" parameterValue="0"/>
          </component>
          <fadeIn crossFadeLinkType="linkedAsymmetric" endPoint="0" shape="19" startPoint="0" type="log"/>
          <fadeOut crossFadeLinkType="linkedAsymmetric" endPoint="365153" shape="9" startPoint="347974" type="log"/>
          <take sourceInPoint="0"/>
          <editParameter parameterIndex="0" slotIndex="4294967281"/>
          <editParameter parameterIndex="0" slotIndex="4294967280"/>
          <channelMap>
            <channel index="0" sourceIndex="0"/>
          </channelMap>
        </audioClip>
        <audioClip clipAutoCrossfade="true" crossFadeHeadClipID="-1" crossFadeTailClipID="14" endPoint="2563379" fileID="16" hue="-1" id="13" lockedInTime="false" looped="false" name="Track 3_013" offline="false" select="false" sourceInPoint="142590" sourceOutPoint="175558" startPoint="2530411" zOrder="2145913377">
          <component componentGuid="de93a117-7f90-4abf-b904-ae2081b4cad8" componentID="Audition.Fader" id="clipGain" name="volume" powered="true">
            <parameter index="0" name="volume" parameterValue="1"/>
            <parameter index="1" name="static gain" parameterValue="1"/>
          </component>
          <component componentGuid="698d4d37-f6e6-4322-842d-49f968220cbc" componentID="Audition.Mute" id="clipMute" name="Mute" powered="true">
            <parameter index="0" parameterValue="0"/>
            <parameter index="1" name="mute" parameterValue="0"/>
          </component>
          <component componentGuid="843d7364-c4d6-4d5f-9689-39bd976bf41b" componentID="Audition.StereoPanner" id="clipPan" name="StereoPanner" powered="true">
            <parameter index="0" name="Pan" parameterValue="0"/>
          </component>
          <fadeIn crossFadeLinkType="linkedAsymmetric" endPoint="7431" shape="19" startPoint="0" type="log"/>
          <fadeOut crossFadeLinkType="linkedAsymmetric" endPoint="32968" shape="19" startPoint="32415" type="log"/>
          <clipStretch adaptiveWindowSize="37" pitchAdjustment="0" preserveFormants="true" stretchMode="realtime" stretchQuality="high" stretchRatio="0.8185076705651025" stretchType="solo" transientSensitivity="40"/>
          <editParameter parameterIndex="0" slotIndex="4294967281"/>
          <editParameter parameterIndex="0" slotIndex="4294967280"/>
          <channelMap>
            <channel index="0" sourceIndex="0"/>
          </channelMap>
        </audioClip>
        <audioClip clipAutoCrossfade="true" crossFadeHeadClipID="13" crossFadeTailClipID="-1" endPoint="2854206" fileID="22" hue="-1" id="14" lockedInTime="false" looped="false" name="James_041" offline="false" select="false" sourceInPoint="403401" sourceOutPoint="694781" startPoint="2562826" zOrder="2145913383">
          <component componentGuid="538c1369-99cf-4788-a825-554184d8e355" componentID="Audition.Fader" id="clipGain" name="volume" powered="true">
            <parameter index="0" name="volume" parameterValue="1">
              <parameterKeyframes enableSplines="false">
                <parameterKeyframe sampleOffset="405762" select="false" type="linear" value="0.65"/>
                <parameterKeyframe sampleOffset="438155" select="true" type="linear" value="0.8155168"/>
              </parameterKeyframes>
            </parameter>
            <parameter index="1" name="static gain" parameterValue="1"/>
          </component>
          <component componentGuid="cf79ef1b-5f97-4e34-bc69-7053a5f15cc9" componentID="Audition.Mute" id="clipMute" name="Mute" powered="true">
            <parameter index="0" parameterValue="0"/>
            <parameter index="1" name="mute" parameterValue="0"/>
          </component>
          <component componentGuid="317d94e0-32e2-48f1-8a71-1950591a67fd" componentID="Audition.StereoPanner" id="clipPan" name="StereoPanner" powered="true">
            <parameter index="0" name="Pan" parameterValue="0"/>
          </component>
          <fadeIn crossFadeLinkType="linkedAsymmetric" endPoint="553" shape="18" startPoint="0" type="log"/>
          <fadeOut crossFadeLinkType="linkedAsymmetric" endPoint="291380" shape="19" startPoint="268404" type="log"/>
          <editParameter parameterIndex="0" slotIndex="4294967281"/>
          <editParameter parameterIndex="0" slotIndex="4294967280"/>
          <channelMap>
            <channel index="0" sourceIndex="0"/>
          </channelMap>
        </audioClip>
        <audioClip clipAutoCrossfade="true" crossFadeHeadClipID="-1" crossFadeTailClipID="16" endPoint="2968073" fileID="16" hue="-1" id="15" lockedInTime="false" looped="false" name="Track 3_013" offline="false" select="false" sourceInPoint="142590" sourceOutPoint="175558" startPoint="2935105" zOrder="2145913385">
          <component componentGuid="5dff4297-5303-442e-93fb-28bcb0810983" componentID="Audition.Fader" id="clipGain" name="volume" powered="true">
            <parameter index="0" name="volume" parameterValue="1"/>
            <parameter index="1" name="static gain" parameterValue="1"/>
          </component>
          <component componentGuid="8ebddd34-8dd0-41e1-9d25-351fc1b46a2b" componentID="Audition.Mute" id="clipMute" name="Mute" powered="true">
            <parameter index="0" parameterValue="0"/>
            <parameter index="1" name="mute" parameterValue="0"/>
          </component>
          <component componentGuid="9445f79a-20db-41a3-be89-2f04909593ee" componentID="Audition.StereoPanner" id="clipPan" name="StereoPanner" powered="true">
            <parameter index="0" name="Pan" parameterValue="0"/>
          </component>
          <fadeIn crossFadeLinkType="linkedAsymmetric" endPoint="7431" shape="19" startPoint="0" type="log"/>
          <fadeOut crossFadeLinkType="linkedAsymmetric" endPoint="32968" shape="18" startPoint="32415" type="log"/>
          <clipStretch adaptiveWindowSize="37" pitchAdjustment="0" preserveFormants="true" stretchMode="realtime" stretchQuality="high" stretchRatio="0.8185076705651025" stretchType="solo" transientSensitivity="40"/>
          <editParameter parameterIndex="0" slotIndex="4294967281"/>
          <editParameter parameterIndex="0" slotIndex="4294967280"/>
          <channelMap>
            <channel index="0" sourceIndex="0"/>
          </channelMap>
        </audioClip>
        <audioClip clipAutoCrossfade="true" crossFadeHeadClipID="15" crossFadeTailClipID="-1" endPoint="3354292" fileID="22" hue="-1" id="16" lockedInTime="false" looped="false" name="James_041" offline="false" select="false" sourceInPoint="715871" sourceOutPoint="1102643" startPoint="2967520" zOrder="2145913408">
          <component componentGuid="214a697e-f85c-40aa-9833-2d1347fe52d3" componentID="Audition.Fader" id="clipGain" name="volume" powered="true">
            <parameter index="0" name="volume" parameterValue="0.3290974">
              <parameterKeyframes enableSplines="false">
                <parameterKeyframe sampleOffset="709416" select="false" type="linear" value="0.3951923"/>
                <parameterKeyframe sampleOffset="716424" select="false" type="linear" value="0.65"/>
                <parameterKeyframe sampleOffset="738412" select="false" type="linear" value="0.8409813"/>
                <parameterKeyframe sampleOffset="927172" select="false" type="linear" value="0.8537132"/>
                <parameterKeyframe sampleOffset="933735" select="false" type="linear" value="0.7709545"/>
                <parameterKeyframe sampleOffset="1007914" select="false" type="linear" value="0.7773203"/>
                <parameterKeyframe sampleOffset="1027553" select="true" type="linear" value="0.65"/>
                <parameterKeyframe sampleOffset="1047907" select="false" type="linear" value="0.8346152"/>
              </parameterKeyframes>
            </parameter>
            <parameter index="1" name="static gain" parameterValue="1"/>
          </component>
          <component componentGuid="6b8ade3f-fbc1-466f-8045-d04b42d26866" componentID="Audition.Mute" id="clipMute" name="Mute" powered="true">
            <parameter index="0" parameterValue="0"/>
            <parameter index="1" name="mute" parameterValue="0"/>
          </component>
          <component componentGuid="7f1b6f87-232e-4891-b8da-3271a72a90c1" componentID="Audition.StereoPanner" id="clipPan" name="StereoPanner" powered="true">
            <parameter index="0" name="Pan" parameterValue="0"/>
          </component>
          <fadeIn crossFadeLinkType="linkedAsymmetric" endPoint="553" shape="19" startPoint="0" type="log"/>
          <fadeOut crossFadeLinkType="linkedAsymmetric" endPoint="386772" shape="30" startPoint="352777" type="log"/>
          <editParameter parameterIndex="0" slotIndex="4294967281"/>
          <editParameter parameterIndex="0" slotIndex="4294967280"/>
          <channelMap>
            <channel index="0" sourceIndex="0"/>
          </channelMap>
        </audioClip>
        <audioClip clipAutoCrossfade="true" crossFadeHeadClipID="-1" crossFadeTailClipID="-1" endPoint="3482035" fileID="16" hue="-1" id="17" lockedInTime="false" looped="false" name="Track 3_013" offline="false" select="false" sourceInPoint="142590" sourceOutPoint="175558" startPoint="3449067" zOrder="2145913410">
          <component componentGuid="4f193085-5002-44ca-8310-5aa9a7365e11" componentID="Audition.Fader" id="clipGain" name="volume" powered="true">
            <parameter index="0" name="volume" parameterValue="1"/>
            <parameter index="1" name="static gain" parameterValue="1"/>
          </component>
          <component componentGuid="1399beb6-93ff-43c0-9316-a08a9d2c54a1" componentID="Audition.Mute" id="clipMute" name="Mute" powered="true">
            <parameter index="0" parameterValue="0"/>
            <parameter index="1" name="mute" parameterValue="0"/>
          </component>
          <component componentGuid="a4535fd0-9710-4e02-9a51-447f8d6554e8" componentID="Audition.StereoPanner" id="clipPan" name="StereoPanner" powered="true">
            <parameter index="0" name="Pan" parameterValue="0"/>
          </component>
          <fadeIn crossFadeLinkType="linkedAsymmetric" endPoint="7431" shape="19" startPoint="0" type="log"/>
          <fadeOut crossFadeLinkType="linkedAsymmetric" endPoint="32968" shape="19" startPoint="32968" type="log"/>
          <clipStretch adaptiveWindowSize="37" pitchAdjustment="0" preserveFormants="true" stretchMode="realtime" stretchQuality="high" stretchRatio="0.8185076705651025" stretchType="solo" transientSensitivity="40"/>
          <editParameter parameterIndex="0" slotIndex="4294967281"/>
          <editParameter parameterIndex="0" slotIndex="4294967280"/>
          <channelMap>
            <channel index="0" sourceIndex="0"/>
          </channelMap>
        </audioClip>
        <audioClip clipAutoCrossfade="true" crossFadeHeadClipID="-1" crossFadeTailClipID="-1" endPoint="3644020" fileID="22" hue="-1" id="18" lockedInTime="false" looped="false" name="James_041" offline="false" select="false" sourceInPoint="1116636" sourceOutPoint="1278621" startPoint="3482035" zOrder="2145913418">
          <component componentGuid="39f61631-8350-4065-98b2-d937bccc3525" componentID="Audition.Fader" id="clipGain" name="volume" powered="true">
            <parameter index="0" name="volume" parameterValue="1">
              <parameterKeyframes enableSplines="false">
                <parameterKeyframe sampleOffset="1116132" select="false" type="linear" value="0.65"/>
                <parameterKeyframe sampleOffset="1144834" select="true" type="linear" value="0.8409813"/>
              </parameterKeyframes>
            </parameter>
            <parameter index="1" name="static gain" parameterValue="1"/>
          </component>
          <component componentGuid="88ce540d-211c-4cd6-808d-4abd387fedff" componentID="Audition.Mute" id="clipMute" name="Mute" powered="true">
            <parameter index="0" parameterValue="0"/>
            <parameter index="1" name="mute" parameterValue="0"/>
          </component>
          <component componentGuid="82ade981-a75b-4560-9d49-af8c74ed089d" componentID="Audition.StereoPanner" id="clipPan" name="StereoPanner" powered="true">
            <parameter index="0" name="Pan" parameterValue="0"/>
          </component>
          <fadeIn crossFadeLinkType="linkedAsymmetric" endPoint="0" shape="0" startPoint="0" type="cosine"/>
          <fadeOut crossFadeLinkType="linkedAsymmetric" endPoint="161985" shape="13" startPoint="161985" type="log"/>
          <editParameter parameterIndex="0" slotIndex="4294967281"/>
          <editParameter parameterIndex="0" slotIndex="4294967280"/>
          <channelMap>
            <channel index="0" sourceIndex="0"/>
          </channelMap>
        </audioClip>
        <audioClip clipAutoCrossfade="true" crossFadeHeadClipID="-1" crossFadeTailClipID="-1" endPoint="3717441" fileID="22" hue="-1" id="19" lockedInTime="false" looped="false" name="James_041" offline="false" select="false" sourceInPoint="1291229" sourceOutPoint="1364650" startPoint="3644020" zOrder="2145913417">
          <component componentGuid="38de7d39-abd5-44ca-b609-c6295ae027d8" componentID="Audition.Fader" id="clipGain" name="volume" powered="true">
            <parameter index="0" name="volume" parameterValue="0.3290974">
              <parameterKeyframes enableSplines="false">
                <parameterKeyframe sampleOffset="1119507" select="false" type="linear" value="0.3951923"/>
                <parameterKeyframe sampleOffset="1148221" select="false" type="linear" value="0.65"/>
                <parameterKeyframe sampleOffset="1315780" select="true" type="linear" value="0.8346152"/>
              </parameterKeyframes>
            </parameter>
            <parameter index="1" name="static gain" parameterValue="1"/>
          </component>
          <component componentGuid="64047b6e-af2c-4986-9014-3077de60380b" componentID="Audition.Mute" id="clipMute" name="Mute" powered="true">
            <parameter index="0" parameterValue="0"/>
            <parameter index="1" name="mute" parameterValue="0"/>
          </component>
          <component componentGuid="01b9b5c9-3f93-4941-bca6-7671bd16bac0" componentID="Audition.StereoPanner" id="clipPan" name="StereoPanner" powered="true">
            <parameter index="0" name="Pan" parameterValue="0"/>
          </component>
          <fadeIn crossFadeLinkType="linkedAsymmetric" endPoint="0" shape="0" startPoint="0" type="cosine"/>
          <fadeOut crossFadeLinkType="linkedAsymmetric" endPoint="73421" shape="38" startPoint="54876" type="log"/>
          <editParameter parameterIndex="0" slotIndex="4294967281"/>
          <editParameter parameterIndex="0" slotIndex="4294967280"/>
          <channelMap>
            <channel index="0" sourceIndex="0"/>
          </channelMap>
        </audioClip>
        <audioClip clipAutoCrossfade="true" crossFadeHeadClipID="-1" crossFadeTailClipID="-1" endPoint="3900505" fileID="16" hue="-1" id="20" lockedInTime="false" looped="false" name="Track 3_013" offline="false" select="false" sourceInPoint="142590" sourceOutPoint="175558" startPoint="3867537" zOrder="2145913420">
          <component componentGuid="ab6a21e5-7ba6-48b4-be50-a8e9b419bc88" componentID="Audition.Fader" id="clipGain" name="volume" powered="true">
            <parameter index="0" name="volume" parameterValue="1"/>
            <parameter index="1" name="static gain" parameterValue="1"/>
          </component>
          <component componentGuid="44aea300-89cf-49bf-bd73-f53d65fb98a2" componentID="Audition.Mute" id="clipMute" name="Mute" powered="true">
            <parameter index="0" parameterValue="0"/>
            <parameter index="1" name="mute" parameterValue="0"/>
          </component>
          <component componentGuid="447dd83f-864c-47da-9318-ec28aeb2c03f" componentID="Audition.StereoPanner" id="clipPan" name="StereoPanner" powered="true">
            <parameter index="0" name="Pan" parameterValue="0"/>
          </component>
          <fadeIn crossFadeLinkType="linkedAsymmetric" endPoint="7431" shape="19" startPoint="0" type="log"/>
          <fadeOut crossFadeLinkType="linkedAsymmetric" endPoint="32968" shape="19" startPoint="32968" type="log"/>
          <clipStretch adaptiveWindowSize="37" pitchAdjustment="0" preserveFormants="true" stretchMode="realtime" stretchQuality="high" stretchRatio="0.8185076705651025" stretchType="solo" transientSensitivity="40"/>
          <editParameter parameterIndex="0" slotIndex="4294967281"/>
          <editParameter parameterIndex="0" slotIndex="4294967280"/>
          <channelMap>
            <channel index="0" sourceIndex="0"/>
          </channelMap>
        </audioClip>
        <audioClip clipAutoCrossfade="true" crossFadeHeadClipID="-1" crossFadeTailClipID="-1" endPoint="4010847" fileID="23" hue="-1" id="21" lockedInTime="false" looped="false" name="James_037" offline="false" select="false" sourceInPoint="1428888" sourceOutPoint="1539230" startPoint="3900505" zOrder="2145913428">
          <component componentGuid="2be83ed9-af5c-4bfa-b4b0-d72923d69194" componentID="Audition.Fader" id="clipGain" name="volume" powered="true">
            <parameter index="0" name="volume" parameterValue="1">
              <parameterKeyframes enableSplines="false">
                <parameterKeyframe sampleOffset="1430816" select="false" type="linear" value="0.65"/>
                <parameterKeyframe sampleOffset="1449114" select="true" type="linear" value="0.8664454"/>
              </parameterKeyframes>
            </parameter>
            <parameter index="1" name="static gain" parameterValue="1"/>
          </component>
          <component componentGuid="08ee6264-3ca4-46ff-b4c2-29d2ebb1f3e5" componentID="Audition.Mute" id="clipMute" name="Mute" powered="true">
            <parameter index="0" parameterValue="0"/>
            <parameter index="1" name="mute" parameterValue="0"/>
          </component>
          <component componentGuid="9a11bcf8-a5d9-4423-8405-6e765b112b52" componentID="Audition.StereoPanner" id="clipPan" name="StereoPanner" powered="true">
            <parameter index="0" name="Pan" parameterValue="0"/>
          </component>
          <fadeIn crossFadeLinkType="linkedAsymmetric" endPoint="0" shape="19" startPoint="0" type="log"/>
          <fadeOut crossFadeLinkType="linkedAsymmetric" endPoint="110342" shape="0" startPoint="110342" type="cosine"/>
          <editParameter parameterIndex="0" slotIndex="4294967281"/>
          <editParameter parameterIndex="0" slotIndex="4294967280"/>
          <channelMap>
            <channel index="0" sourceIndex="0"/>
          </channelMap>
        </audioClip>
        <audioClip clipAutoCrossfade="true" crossFadeHeadClipID="-1" crossFadeTailClipID="-1" endPoint="4084494" fileID="23" hue="-1" id="22" lockedInTime="false" looped="false" name="James_037" offline="false" select="false" sourceInPoint="1555367" sourceOutPoint="1629014" startPoint="4010847" zOrder="2145913425">
          <component componentGuid="d95dd333-28fd-4e46-bc7f-995be91240e5" componentID="Audition.Fader" id="clipGain" name="volume" powered="true">
            <parameter index="0" name="volume" parameterValue="0.3754936">
              <parameterKeyframes enableSplines="false">
                <parameterKeyframe sampleOffset="1430322" select="false" type="linear" value="0.4192308"/>
                <parameterKeyframe sampleOffset="1448310" select="false" type="linear" value="0.65"/>
                <parameterKeyframe sampleOffset="1555341" select="true" type="linear" value="0.8664454"/>
              </parameterKeyframes>
            </parameter>
            <parameter index="1" name="static gain" parameterValue="1"/>
          </component>
          <component componentGuid="b16effa6-24bc-4cb9-a939-4bd425320955" componentID="Audition.Mute" id="clipMute" name="Mute" powered="true">
            <parameter index="0" parameterValue="0"/>
            <parameter index="1" name="mute" parameterValue="0"/>
          </component>
          <component componentGuid="2a10cdaf-a61a-408a-becd-015fbccde1e9" componentID="Audition.StereoPanner" id="clipPan" name="StereoPanner" powered="true">
            <parameter index="0" name="Pan" parameterValue="0"/>
          </component>
          <fadeIn crossFadeLinkType="linkedAsymmetric" endPoint="0" shape="0" startPoint="0" type="cosine"/>
          <fadeOut crossFadeLinkType="linkedAsymmetric" endPoint="73647" shape="0" startPoint="73647" type="cosine"/>
          <editParameter parameterIndex="0" slotIndex="4294967281"/>
          <editParameter parameterIndex="0" slotIndex="4294967280"/>
          <channelMap>
            <channel index="0" sourceIndex="0"/>
          </channelMap>
        </audioClip>
        <audioClip clipAutoCrossfade="true" crossFadeHeadClipID="-1" crossFadeTailClipID="-1" endPoint="4211763" fileID="23" hue="-1" id="23" lockedInTime="false" looped="false" name="James_037" offline="false" select="false" sourceInPoint="1645820" sourceOutPoint="1773089" startPoint="4084494" zOrder="2145913427">
          <component componentGuid="985e538b-2501-42a6-9683-829965b023c0" componentID="Audition.Fader" id="clipGain" name="volume" powered="true">
            <parameter index="0" name="volume" parameterValue="0.3754936">
              <parameterKeyframes enableSplines="false">
                <parameterKeyframe sampleOffset="1430322" select="false" type="linear" value="0.4192308"/>
                <parameterKeyframe sampleOffset="1448310" select="false" type="linear" value="0.65"/>
                <parameterKeyframe sampleOffset="1646365" select="true" type="linear" value="0.8728114"/>
              </parameterKeyframes>
            </parameter>
            <parameter index="1" name="static gain" parameterValue="1"/>
          </component>
          <component componentGuid="35dc4f7c-7180-4af2-a730-a3dd788454b0" componentID="Audition.Mute" id="clipMute" name="Mute" powered="true">
            <parameter index="0" parameterValue="0"/>
            <parameter index="1" name="mute" parameterValue="0"/>
          </component>
          <component componentGuid="5b93f690-a214-44b9-b62e-fd140e30dc26" componentID="Audition.StereoPanner" id="clipPan" name="StereoPanner" powered="true">
            <parameter index="0" name="Pan" parameterValue="0"/>
          </component>
          <fadeIn crossFadeLinkType="linkedAsymmetric" endPoint="0" shape="0" startPoint="0" type="cosine"/>
          <fadeOut crossFadeLinkType="linkedAsymmetric" endPoint="127269" shape="12" startPoint="111522" type="log"/>
          <editParameter parameterIndex="0" slotIndex="4294967281"/>
          <editParameter parameterIndex="0" slotIndex="4294967280"/>
          <channelMap>
            <channel index="0" sourceIndex="0"/>
          </channelMap>
        </audioClip>
        <audioClip clipAutoCrossfade="true" crossFadeHeadClipID="-1" crossFadeTailClipID="-1" endPoint="4335952" fileID="16" hue="-1" id="24" lockedInTime="false" looped="false" name="Track 3_013" offline="false" select="false" sourceInPoint="142590" sourceOutPoint="175558" startPoint="4302984" zOrder="2145913430">
          <component componentGuid="f183639b-afe1-47eb-beaf-f09ef7fa7282" componentID="Audition.Fader" id="clipGain" name="volume" powered="true">
            <parameter index="0" name="volume" parameterValue="1"/>
            <parameter index="1" name="static gain" parameterValue="1"/>
          </component>
          <component componentGuid="0e718bf9-669e-4e89-85cd-b38631124a98" componentID="Audition.Mute" id="clipMute" name="Mute" powered="true">
            <parameter index="0" parameterValue="0"/>
            <parameter index="1" name="mute" parameterValue="0"/>
          </component>
          <component componentGuid="724d72f4-dc49-4dbf-ab78-64e4994dfad8" componentID="Audition.StereoPanner" id="clipPan" name="StereoPanner" powered="true">
            <parameter index="0" name="Pan" parameterValue="0"/>
          </component>
          <fadeIn crossFadeLinkType="linkedAsymmetric" endPoint="7431" shape="19" startPoint="0" type="log"/>
          <fadeOut crossFadeLinkType="linkedAsymmetric" endPoint="32968" shape="18" startPoint="32968" type="log"/>
          <clipStretch adaptiveWindowSize="37" pitchAdjustment="0" preserveFormants="true" stretchMode="realtime" stretchQuality="high" stretchRatio="0.8185076705651025" stretchType="solo" transientSensitivity="40"/>
          <editParameter parameterIndex="0" slotIndex="4294967281"/>
          <editParameter parameterIndex="0" slotIndex="4294967280"/>
          <channelMap>
            <channel index="0" sourceIndex="0"/>
          </channelMap>
        </audioClip>
        <audioClip clipAutoCrossfade="true" crossFadeHeadClipID="-1" crossFadeTailClipID="-1" endPoint="4469880" fileID="22" hue="-1" id="25" lockedInTime="false" looped="false" name="James_041" offline="false" select="false" sourceInPoint="1777476" sourceOutPoint="1911404" startPoint="4335952" zOrder="2145913448">
          <component componentGuid="2a5cb082-85ce-4f8f-b28d-2ab2701f4f88" componentID="Audition.Fader" id="clipGain" name="volume" powered="true">
            <parameter index="0" name="volume" parameterValue="0.3565296">
              <parameterKeyframes enableSplines="false">
                <parameterKeyframe sampleOffset="1776042" select="false" type="linear" value="0.4096154"/>
                <parameterKeyframe sampleOffset="1778872" select="false" type="linear" value="0.65"/>
                <parameterKeyframe sampleOffset="1794658" select="false" type="linear" value="0.7327581"/>
              </parameterKeyframes>
            </parameter>
            <parameter index="1" name="static gain" parameterValue="1"/>
          </component>
          <component componentGuid="5bbce19d-3eef-48b9-802b-3b4c352d6b73" componentID="Audition.Mute" id="clipMute" name="Mute" powered="true">
            <parameter index="0" parameterValue="0"/>
            <parameter index="1" name="mute" parameterValue="0"/>
          </component>
          <component componentGuid="2747885f-965b-4201-82af-ba6cad3d99a4" componentID="Audition.StereoPanner" id="clipPan" name="StereoPanner" powered="true">
            <parameter index="0" name="Pan" parameterValue="0"/>
          </component>
          <fadeIn crossFadeLinkType="linkedAsymmetric" endPoint="0" shape="19" startPoint="0" type="log"/>
          <fadeOut crossFadeLinkType="linkedAsymmetric" endPoint="133928" shape="0" startPoint="133928" type="cosine"/>
          <editParameter parameterIndex="0" slotIndex="4294967281"/>
          <editParameter parameterIndex="0" slotIndex="4294967280"/>
          <channelMap>
            <channel index="0" sourceIndex="0"/>
          </channelMap>
        </audioClip>
        <audioClip clipAutoCrossfade="true" crossFadeHeadClipID="-1" crossFadeTailClipID="-1" endPoint="4555461" fileID="22" hue="-1" id="26" lockedInTime="false" looped="false" name="James_041" offline="false" select="false" sourceInPoint="1935404" sourceOutPoint="2020985" startPoint="4469880" zOrder="2145913443">
          <component componentGuid="9b33f182-b372-4a0b-b453-46164d0dea00" componentID="Audition.Fader" id="clipGain" name="volume" powered="true">
            <parameter index="0" name="volume" parameterValue="0.3565296">
              <parameterKeyframes enableSplines="false">
                <parameterKeyframe sampleOffset="1776042" select="false" type="linear" value="0.4096154"/>
                <parameterKeyframe sampleOffset="1794680" select="false" type="linear" value="0.65"/>
                <parameterKeyframe sampleOffset="1937482" select="true" type="linear" value="0.7709545"/>
              </parameterKeyframes>
            </parameter>
            <parameter index="1" name="static gain" parameterValue="1"/>
          </component>
          <component componentGuid="535bb8c3-488b-4d87-887e-c7268e6273d3" componentID="Audition.Mute" id="clipMute" name="Mute" powered="true">
            <parameter index="0" parameterValue="0"/>
            <parameter index="1" name="mute" parameterValue="0"/>
          </component>
          <component componentGuid="319560fa-46b7-4b58-90eb-4108f7870fc5" componentID="Audition.StereoPanner" id="clipPan" name="StereoPanner" powered="true">
            <parameter index="0" name="Pan" parameterValue="0"/>
          </component>
          <fadeIn crossFadeLinkType="linkedAsymmetric" endPoint="0" shape="0" startPoint="0" type="cosine"/>
          <fadeOut crossFadeLinkType="linkedAsymmetric" endPoint="85581" shape="0" startPoint="85581" type="cosine"/>
          <editParameter parameterIndex="0" slotIndex="4294967281"/>
          <editParameter parameterIndex="0" slotIndex="4294967280"/>
          <channelMap>
            <channel index="0" sourceIndex="0"/>
          </channelMap>
        </audioClip>
        <audioClip clipAutoCrossfade="true" crossFadeHeadClipID="-1" crossFadeTailClipID="-1" endPoint="4595536" fileID="22" hue="-1" id="27" lockedInTime="false" looped="false" name="James_041" offline="false" select="false" sourceInPoint="2039437" sourceOutPoint="2079512" startPoint="4555461" zOrder="2145913438">
          <component componentGuid="160f1ff1-93c5-40c9-9235-533942782a47" componentID="Audition.Fader" id="clipGain" name="volume" powered="true">
            <parameter index="0" name="volume" parameterValue="0.3565296">
              <parameterKeyframes enableSplines="false">
                <parameterKeyframe sampleOffset="1776042" select="false" type="linear" value="0.4096154"/>
                <parameterKeyframe sampleOffset="1794680" select="false" type="linear" value="0.65"/>
                <parameterKeyframe sampleOffset="2040867" select="true" type="linear" value="0.815517"/>
              </parameterKeyframes>
            </parameter>
            <parameter index="1" name="static gain" parameterValue="1"/>
          </component>
          <component componentGuid="e7c9564b-1c09-4c68-a34a-65fd47290c86" componentID="Audition.Mute" id="clipMute" name="Mute" powered="true">
            <parameter index="0" parameterValue="0"/>
            <parameter index="1" name="mute" parameterValue="0"/>
          </component>
          <component componentGuid="0049b3fb-fc9d-4d1e-9184-a59e20a89457" componentID="Audition.StereoPanner" id="clipPan" name="StereoPanner" powered="true">
            <parameter index="0" name="Pan" parameterValue="0"/>
          </component>
          <fadeIn crossFadeLinkType="linkedAsymmetric" endPoint="0" shape="0" startPoint="0" type="cosine"/>
          <fadeOut crossFadeLinkType="linkedAsymmetric" endPoint="40075" shape="0" startPoint="40075" type="cosine"/>
          <editParameter parameterIndex="0" slotIndex="4294967281"/>
          <editParameter parameterIndex="0" slotIndex="4294967280"/>
          <channelMap>
            <channel index="0" sourceIndex="0"/>
          </channelMap>
        </audioClip>
        <audioClip clipAutoCrossfade="true" crossFadeHeadClipID="-1" crossFadeTailClipID="-1" endPoint="4683575" fileID="22" hue="-1" id="28" lockedInTime="false" looped="false" name="James_041" offline="false" select="false" sourceInPoint="2095657" sourceOutPoint="2183696" startPoint="4595536" zOrder="2145913441">
          <component componentGuid="6e5bd3d0-625f-4d6f-89c6-377e56261586" componentID="Audition.Fader" id="clipGain" name="volume" powered="true">
            <parameter index="0" name="volume" parameterValue="0.3565296">
              <parameterKeyframes enableSplines="false">
                <parameterKeyframe sampleOffset="1776042" select="false" type="linear" value="0.4096154"/>
                <parameterKeyframe sampleOffset="1794680" select="false" type="linear" value="0.65"/>
                <parameterKeyframe sampleOffset="2096764" select="true" type="linear" value="0.7709545"/>
              </parameterKeyframes>
            </parameter>
            <parameter index="1" name="static gain" parameterValue="1"/>
          </component>
          <component componentGuid="377d7618-ad1d-4828-8697-d60d95330c11" componentID="Audition.Mute" id="clipMute" name="Mute" powered="true">
            <parameter index="0" parameterValue="0"/>
            <parameter index="1" name="mute" parameterValue="0"/>
          </component>
          <component componentGuid="d4d2dc36-11ce-4308-85f0-d9519c760d8f" componentID="Audition.StereoPanner" id="clipPan" name="StereoPanner" powered="true">
            <parameter index="0" name="Pan" parameterValue="0"/>
          </component>
          <fadeIn crossFadeLinkType="linkedAsymmetric" endPoint="0" shape="0" startPoint="0" type="cosine"/>
          <fadeOut crossFadeLinkType="linkedAsymmetric" endPoint="88039" shape="0" startPoint="77518" type="log"/>
          <editParameter parameterIndex="0" slotIndex="4294967281"/>
          <editParameter parameterIndex="0" slotIndex="4294967280"/>
          <channelMap>
            <channel index="0" sourceIndex="0"/>
          </channelMap>
        </audioClip>
        <audioClip clipAutoCrossfade="true" crossFadeHeadClipID="-1" crossFadeTailClipID="-1" endPoint="4778505" fileID="16" hue="-1" id="29" lockedInTime="false" looped="false" name="Track 3_013" offline="false" select="false" sourceInPoint="142590" sourceOutPoint="175558" startPoint="4745537" zOrder="2145913450">
          <component componentGuid="e07f86a5-1737-41fd-9566-001b000367cb" componentID="Audition.Fader" id="clipGain" name="volume" powered="true">
            <parameter index="0" name="volume" parameterValue="1"/>
            <parameter index="1" name="static gain" parameterValue="1"/>
          </component>
          <component componentGuid="fb5ebc7b-3b68-4909-b443-df844aa6678d" componentID="Audition.Mute" id="clipMute" name="Mute" powered="true">
            <parameter index="0" parameterValue="0"/>
            <parameter index="1" name="mute" parameterValue="0"/>
          </component>
          <component componentGuid="4c9020ad-5d70-485b-ab70-10482fb3c693" componentID="Audition.StereoPanner" id="clipPan" name="StereoPanner" powered="true">
            <parameter index="0" name="Pan" parameterValue="0"/>
          </component>
          <fadeIn crossFadeLinkType="linkedAsymmetric" endPoint="7431" shape="19" startPoint="0" type="log"/>
          <fadeOut crossFadeLinkType="linkedAsymmetric" endPoint="32968" shape="19" startPoint="32968" type="log"/>
          <clipStretch adaptiveWindowSize="37" pitchAdjustment="0" preserveFormants="true" stretchMode="realtime" stretchQuality="high" stretchRatio="0.8185076705651025" stretchType="solo" transientSensitivity="40"/>
          <editParameter parameterIndex="0" slotIndex="4294967281"/>
          <editParameter parameterIndex="0" slotIndex="4294967280"/>
          <channelMap>
            <channel index="0" sourceIndex="0"/>
          </channelMap>
        </audioClip>
        <audioClip clipAutoCrossfade="true" crossFadeHeadClipID="-1" crossFadeTailClipID="-1" endPoint="4859763" fileID="24" hue="-1" id="30" lockedInTime="false" looped="false" name="James_042" offline="false" select="false" sourceInPoint="56675" sourceOutPoint="137933" startPoint="4778505" zOrder="2145913474">
          <component componentGuid="ecb07e54-8299-42e7-bf0f-e5303b75ef7f" componentID="Audition.Fader" id="clipGain" name="volume" powered="true">
            <parameter index="0" name="volume" parameterValue="0.3472507">
              <parameterKeyframes enableSplines="false">
                <parameterKeyframe sampleOffset="49527" select="false" type="linear" value="0.4048077"/>
                <parameterKeyframe sampleOffset="58807" select="false" type="linear" value="0.65"/>
                <parameterKeyframe sampleOffset="89778" select="true" type="linear" value="0.6054375"/>
                <parameterKeyframe sampleOffset="111603" select="false" type="linear" value="0.7454903"/>
              </parameterKeyframes>
            </parameter>
            <parameter index="1" name="static gain" parameterValue="1"/>
          </component>
          <component componentGuid="963e3976-cd84-470e-9891-391e58f453b5" componentID="Audition.Mute" id="clipMute" name="Mute" powered="true">
            <parameter index="0" parameterValue="0"/>
            <parameter index="1" name="mute" parameterValue="0"/>
          </component>
          <component componentGuid="fa1b5acc-a899-449b-bec1-2be80570ea59" componentID="Audition.StereoPanner" id="clipPan" name="StereoPanner" powered="true">
            <parameter index="0" name="Pan" parameterValue="0"/>
          </component>
          <fadeIn crossFadeLinkType="linkedAsymmetric" endPoint="0" shape="18" startPoint="0" type="log"/>
          <fadeOut crossFadeLinkType="linkedAsymmetric" endPoint="81258" shape="0" startPoint="81258" type="cosine"/>
          <take sourceInPoint="0"/>
          <editParameter parameterIndex="0" slotIndex="4294967281"/>
          <editParameter parameterIndex="0" slotIndex="4294967280"/>
          <channelMap>
            <channel index="0" sourceIndex="0"/>
          </channelMap>
        </audioClip>
        <audioClip clipAutoCrossfade="true" crossFadeHeadClipID="-1" crossFadeTailClipID="-1" endPoint="4907223" fileID="24" hue="-1" id="31" lockedInTime="false" looped="false" name="James_042" offline="false" select="false" sourceInPoint="147453" sourceOutPoint="194913" startPoint="4859763" zOrder="2145913461">
          <component componentGuid="2d333fc5-d5b1-43b1-ad54-0a12a3524174" componentID="Audition.Fader" id="clipGain" name="volume" powered="true">
            <parameter index="0" name="volume" parameterValue="0.3472507">
              <parameterKeyframes enableSplines="false">
                <parameterKeyframe sampleOffset="49527" select="false" type="linear" value="0.4048077"/>
                <parameterKeyframe sampleOffset="68195" select="false" type="linear" value="0.4961539"/>
                <parameterKeyframe sampleOffset="83990" select="false" type="linear" value="0.5490385"/>
                <parameterKeyframe sampleOffset="109838" select="false" type="linear" value="0.65"/>
                <parameterKeyframe sampleOffset="154316" select="true" type="linear" value="0.7836867"/>
              </parameterKeyframes>
            </parameter>
            <parameter index="1" name="static gain" parameterValue="1"/>
          </component>
          <component componentGuid="9ed6a377-625e-4515-a678-7c793d8c560b" componentID="Audition.Mute" id="clipMute" name="Mute" powered="true">
            <parameter index="0" parameterValue="0"/>
            <parameter index="1" name="mute" parameterValue="0"/>
          </component>
          <component componentGuid="14065662-d830-445c-aa97-e016baae5fd4" componentID="Audition.StereoPanner" id="clipPan" name="StereoPanner" powered="true">
            <parameter index="0" name="Pan" parameterValue="0"/>
          </component>
          <fadeIn crossFadeLinkType="linkedAsymmetric" endPoint="0" shape="0" startPoint="0" type="cosine"/>
          <fadeOut crossFadeLinkType="linkedAsymmetric" endPoint="47460" shape="0" startPoint="47460" type="cosine"/>
          <editParameter parameterIndex="0" slotIndex="4294967281"/>
          <editParameter parameterIndex="0" slotIndex="4294967280"/>
          <channelMap>
            <channel index="0" sourceIndex="0"/>
          </channelMap>
        </audioClip>
        <audioClip clipAutoCrossfade="true" crossFadeHeadClipID="-1" crossFadeTailClipID="-1" endPoint="5015957" fileID="24" hue="-1" id="32" lockedInTime="false" looped="false" name="James_042" offline="false" select="false" sourceInPoint="206356" sourceOutPoint="315090" startPoint="4907223" zOrder="2145913463">
          <component componentGuid="79bd5999-5ae5-4d30-8a3e-4d57ebdc4a4c" componentID="Audition.Fader" id="clipGain" name="volume" powered="true">
            <parameter index="0" name="volume" parameterValue="0.3472507">
              <parameterKeyframes enableSplines="false">
                <parameterKeyframe sampleOffset="49527" select="false" type="linear" value="0.4048077"/>
                <parameterKeyframe sampleOffset="68195" select="false" type="linear" value="0.4961539"/>
                <parameterKeyframe sampleOffset="83990" select="false" type="linear" value="0.5490385"/>
                <parameterKeyframe sampleOffset="109838" select="false" type="linear" value="0.65"/>
                <parameterKeyframe sampleOffset="212126" select="true" type="linear" value="0.7900528"/>
              </parameterKeyframes>
            </parameter>
            <parameter index="1" name="static gain" parameterValue="1"/>
          </component>
          <component componentGuid="2bc8dfee-99fb-40b1-a676-994742aaa641" componentID="Audition.Mute" id="clipMute" name="Mute" powered="true">
            <parameter index="0" parameterValue="0"/>
            <parameter index="1" name="mute" parameterValue="0"/>
          </component>
          <component componentGuid="e5162e2e-91dc-42e5-bac5-83e994895e78" componentID="Audition.StereoPanner" id="clipPan" name="StereoPanner" powered="true">
            <parameter index="0" name="Pan" parameterValue="0"/>
          </component>
          <fadeIn crossFadeLinkType="linkedAsymmetric" endPoint="0" shape="0" startPoint="0" type="cosine"/>
          <fadeOut crossFadeLinkType="linkedAsymmetric" endPoint="108734" shape="19" startPoint="108734" type="log"/>
          <editParameter parameterIndex="0" slotIndex="4294967281"/>
          <editParameter parameterIndex="0" slotIndex="4294967280"/>
          <channelMap>
            <channel index="0" sourceIndex="0"/>
          </channelMap>
        </audioClip>
        <audioClip clipAutoCrossfade="true" crossFadeHeadClipID="-1" crossFadeTailClipID="-1" endPoint="5129330" fileID="23" hue="-1" id="33" lockedInTime="false" looped="false" name="James_037" offline="false" select="false" sourceInPoint="2432534" sourceOutPoint="2545907" startPoint="5015957" zOrder="2145913470">
          <component componentGuid="d73ebbf3-ab3b-46dd-bcef-d0f5c3cdb4bc" componentID="Audition.Fader" id="clipGain" name="volume" powered="true">
            <parameter index="0" name="volume" parameterValue="1.6272925">
              <parameterKeyframes enableSplines="false">
                <parameterKeyframe sampleOffset="2439485" select="false" type="linear" value="0.7773206"/>
              </parameterKeyframes>
            </parameter>
            <parameter index="1" name="static gain" parameterValue="1"/>
          </component>
          <component componentGuid="8f7044e3-852b-42a6-93f5-c935e5e5ce54" componentID="Audition.Mute" id="clipMute" name="Mute" powered="true">
            <parameter index="0" parameterValue="0"/>
            <parameter index="1" name="mute" parameterValue="0"/>
          </component>
          <component componentGuid="5b6ee9d2-2c2d-40ce-a408-f30b2ad84d2a" componentID="Audition.StereoPanner" id="clipPan" name="StereoPanner" powered="true">
            <parameter index="0" name="Pan" parameterValue="0"/>
          </component>
          <fadeIn crossFadeLinkType="linkedAsymmetric" endPoint="0" shape="0" startPoint="0" type="cosine"/>
          <fadeOut crossFadeLinkType="linkedAsymmetric" endPoint="113373" shape="10" startPoint="100045" type="log"/>
          <editParameter parameterIndex="0" slotIndex="4294967281"/>
          <editParameter parameterIndex="0" slotIndex="4294967280"/>
          <channelMap>
            <channel index="0" sourceIndex="0"/>
          </channelMap>
        </audioClip>
        <audioClip clipAutoCrossfade="true" crossFadeHeadClipID="-1" crossFadeTailClipID="-1" endPoint="5292000" fileID="16" hue="-1" id="34" lockedInTime="false" looped="false" name="Track 3_013" offline="false" select="false" sourceInPoint="142590" sourceOutPoint="175558" startPoint="5259032" zOrder="2145913476">
          <component componentGuid="d1ed85f9-6583-42d2-b1cd-4214e97b13a2" componentID="Audition.Fader" id="clipGain" name="volume" powered="true">
            <parameter index="0" name="volume" parameterValue="1"/>
            <parameter index="1" name="static gain" parameterValue="1"/>
          </component>
          <component componentGuid="9a139798-22b8-451c-afa3-eebaf9a00510" componentID="Audition.Mute" id="clipMute" name="Mute" powered="true">
            <parameter index="0" parameterValue="0"/>
            <parameter index="1" name="mute" parameterValue="0"/>
          </component>
          <component componentGuid="cb403793-9a84-4d86-95bf-159a0ace191a" componentID="Audition.StereoPanner" id="clipPan" name="StereoPanner" powered="true">
            <parameter index="0" name="Pan" parameterValue="0"/>
          </component>
          <fadeIn crossFadeLinkType="linkedAsymmetric" endPoint="7431" shape="19" startPoint="0" type="log"/>
          <fadeOut crossFadeLinkType="linkedAsymmetric" endPoint="32968" shape="19" startPoint="32968" type="log"/>
          <clipStretch adaptiveWindowSize="37" pitchAdjustment="0" preserveFormants="true" stretchMode="realtime" stretchQuality="high" stretchRatio="0.8185076705651025" stretchType="solo" transientSensitivity="40"/>
          <editParameter parameterIndex="0" slotIndex="4294967281"/>
          <editParameter parameterIndex="0" slotIndex="4294967280"/>
          <channelMap>
            <channel index="0" sourceIndex="0"/>
          </channelMap>
        </audioClip>
        <audioClip clipAutoCrossfade="true" crossFadeHeadClipID="-1" crossFadeTailClipID="-1" endPoint="5395561" fileID="22" hue="-1" id="35" lockedInTime="false" looped="false" name="James_041" offline="false" select="false" sourceInPoint="2613238" sourceOutPoint="2716799" startPoint="5292000" zOrder="2145913485">
          <component componentGuid="cc7937c1-3420-4102-898e-62bfa85bd32f" componentID="Audition.Fader" id="clipGain" name="volume" powered="true">
            <parameter index="0" name="volume" parameterValue="1">
              <parameterKeyframes enableSplines="false">
                <parameterKeyframe sampleOffset="2613528" select="false" type="linear" value="0.65"/>
                <parameterKeyframe sampleOffset="2635535" select="true" type="linear" value="0.7518563"/>
              </parameterKeyframes>
            </parameter>
            <parameter index="1" name="static gain" parameterValue="1"/>
          </component>
          <component componentGuid="2aa90f35-eb92-463c-a6cf-d17719de7fae" componentID="Audition.Mute" id="clipMute" name="Mute" powered="true">
            <parameter index="0" parameterValue="0"/>
            <parameter index="1" name="mute" parameterValue="0"/>
          </component>
          <component componentGuid="e1f5f8c5-922b-4687-91f6-5bc140f65609" componentID="Audition.StereoPanner" id="clipPan" name="StereoPanner" powered="true">
            <parameter index="0" name="Pan" parameterValue="0"/>
          </component>
          <fadeIn crossFadeLinkType="linkedAsymmetric" endPoint="0" shape="0" startPoint="0" type="cosine"/>
          <fadeOut crossFadeLinkType="linkedAsymmetric" endPoint="103561" shape="0" startPoint="103561" type="cosine"/>
          <editParameter parameterIndex="0" slotIndex="4294967281"/>
          <editParameter parameterIndex="0" slotIndex="4294967280"/>
          <channelMap>
            <channel index="0" sourceIndex="0"/>
          </channelMap>
        </audioClip>
        <audioClip clipAutoCrossfade="true" crossFadeHeadClipID="-1" crossFadeTailClipID="-1" endPoint="5551779" fileID="23" hue="-1" id="36" lockedInTime="false" looped="false" name="James_037" offline="false" select="false" sourceInPoint="2711710" sourceOutPoint="2867928" startPoint="5395561" zOrder="2145913486">
          <component componentGuid="88c148f5-62f7-4a3c-a75e-678da316ffd5" componentID="Audition.Fader" id="clipGain" name="volume" powered="true">
            <parameter index="0" name="volume" parameterValue="1.5019472"/>
            <parameter index="1" name="static gain" parameterValue="1"/>
          </component>
          <component componentGuid="0f726ff9-1fd9-44c8-b79a-edff0211c210" componentID="Audition.Mute" id="clipMute" name="Mute" powered="true">
            <parameter index="0" parameterValue="0"/>
            <parameter index="1" name="mute" parameterValue="0"/>
          </component>
          <component componentGuid="43259462-7012-440d-9daa-60960e7b5b48" componentID="Audition.StereoPanner" id="clipPan" name="StereoPanner" powered="true">
            <parameter index="0" name="Pan" parameterValue="0"/>
          </component>
          <fadeIn crossFadeLinkType="linkedAsymmetric" endPoint="0" shape="0" startPoint="0" type="cosine"/>
          <fadeOut crossFadeLinkType="linkedAsymmetric" endPoint="156218" shape="10" startPoint="142104" type="log"/>
          <editParameter parameterIndex="0" slotIndex="4294967281"/>
          <editParameter parameterIndex="0" slotIndex="4294967280"/>
          <channelMap>
            <channel index="0" sourceIndex="0"/>
          </channelMap>
        </audioClip>
        <audioClip clipAutoCrossfade="true" crossFadeHeadClipID="-1" crossFadeTailClipID="-1" endPoint="5717148" fileID="16" hue="-1" id="37" lockedInTime="false" looped="false" name="Track 3_013" offline="false" select="false" sourceInPoint="142590" sourceOutPoint="175558" startPoint="5684180" zOrder="2145913488">
          <component componentGuid="b253d755-2235-4d81-af8d-d5b0062864b5" componentID="Audition.Fader" id="clipGain" name="volume" powered="true">
            <parameter index="0" name="volume" parameterValue="1"/>
            <parameter index="1" name="static gain" parameterValue="1"/>
          </component>
          <component componentGuid="045db8d3-333d-4230-8231-b153fb74ea22" componentID="Audition.Mute" id="clipMute" name="Mute" powered="true">
            <parameter index="0" parameterValue="0"/>
            <parameter index="1" name="mute" parameterValue="0"/>
          </component>
          <component componentGuid="af715879-8706-4b96-9315-7e677782eb6a" componentID="Audition.StereoPanner" id="clipPan" name="StereoPanner" powered="true">
            <parameter index="0" name="Pan" parameterValue="0"/>
          </component>
          <fadeIn crossFadeLinkType="linkedAsymmetric" endPoint="7431" shape="19" startPoint="0" type="log"/>
          <fadeOut crossFadeLinkType="linkedAsymmetric" endPoint="32968" shape="19" startPoint="32968" type="log"/>
          <clipStretch adaptiveWindowSize="37" pitchAdjustment="0" preserveFormants="true" stretchMode="realtime" stretchQuality="high" stretchRatio="0.8185076705651025" stretchType="solo" transientSensitivity="40"/>
          <editParameter parameterIndex="0" slotIndex="4294967281"/>
          <editParameter parameterIndex="0" slotIndex="4294967280"/>
          <channelMap>
            <channel index="0" sourceIndex="0"/>
          </channelMap>
        </audioClip>
        <audioClip clipAutoCrossfade="true" crossFadeHeadClipID="-1" crossFadeTailClipID="-1" endPoint="5947482" fileID="23" hue="-1" id="38" lockedInTime="false" looped="false" name="James_037" offline="false" select="false" sourceInPoint="2908918" sourceOutPoint="3139252" startPoint="5717148" zOrder="2145913498">
          <component componentGuid="43f23d34-e08b-45cb-af26-366607c440d7" componentID="Audition.Fader" id="clipGain" name="volume" powered="true">
            <parameter index="0" name="volume" parameterValue="0.3565296">
              <parameterKeyframes enableSplines="false">
                <parameterKeyframe sampleOffset="2904841" select="false" type="linear" value="0.4096154"/>
                <parameterKeyframe sampleOffset="2911303" select="false" type="linear" value="0.65"/>
                <parameterKeyframe sampleOffset="2923740" select="false" type="linear" value="0.8282492"/>
                <parameterKeyframe sampleOffset="2936423" select="false" type="linear" value="0.8409813"/>
                <parameterKeyframe sampleOffset="2950623" select="true" type="linear" value="0.7136599"/>
                <parameterKeyframe sampleOffset="2971561" select="false" type="linear" value="0.8282492"/>
              </parameterKeyframes>
            </parameter>
            <parameter index="1" name="static gain" parameterValue="1"/>
          </component>
          <component componentGuid="33832714-8b01-46dd-9d12-749769bbaf9a" componentID="Audition.Mute" id="clipMute" name="Mute" powered="true">
            <parameter index="0" parameterValue="0"/>
            <parameter index="1" name="mute" parameterValue="0"/>
          </component>
          <component componentGuid="0664af63-5651-4394-8362-74eb87ebe29c" componentID="Audition.StereoPanner" id="clipPan" name="StereoPanner" powered="true">
            <parameter index="0" name="Pan" parameterValue="0"/>
          </component>
          <fadeIn crossFadeLinkType="linkedAsymmetric" endPoint="0" shape="0" startPoint="0" type="cosine"/>
          <fadeOut crossFadeLinkType="linkedAsymmetric" endPoint="230334" shape="19" startPoint="219353" type="log"/>
          <editParameter parameterIndex="0" slotIndex="4294967281"/>
          <editParameter parameterIndex="0" slotIndex="4294967280"/>
          <channelMap>
            <channel index="0" sourceIndex="0"/>
          </channelMap>
        </audioClip>
        <audioClip clipAutoCrossfade="true" crossFadeHeadClipID="-1" crossFadeTailClipID="-1" endPoint="6133082" fileID="16" hue="-1" id="39" lockedInTime="false" looped="false" name="Track 3_013" offline="false" select="false" sourceInPoint="142590" sourceOutPoint="175558" startPoint="6100114" zOrder="2145913500">
          <component componentGuid="34aa6bc8-a7db-41cc-9779-abbf4acbbb29" componentID="Audition.Fader" id="clipGain" name="volume" powered="true">
            <parameter index="0" name="volume" parameterValue="1"/>
            <parameter index="1" name="static gain" parameterValue="1"/>
          </component>
          <component componentGuid="46370aee-96d1-4ffd-86c9-ef8e12ea9d45" componentID="Audition.Mute" id="clipMute" name="Mute" powered="true">
            <parameter index="0" parameterValue="0"/>
            <parameter index="1" name="mute" parameterValue="0"/>
          </component>
          <component componentGuid="118f9dee-6baa-4263-ae9a-c5b9244a0145" componentID="Audition.StereoPanner" id="clipPan" name="StereoPanner" powered="true">
            <parameter index="0" name="Pan" parameterValue="0"/>
          </component>
          <fadeIn crossFadeLinkType="linkedAsymmetric" endPoint="7431" shape="19" startPoint="0" type="log"/>
          <fadeOut crossFadeLinkType="linkedAsymmetric" endPoint="32968" shape="19" startPoint="32968" type="log"/>
          <clipStretch adaptiveWindowSize="37" pitchAdjustment="0" preserveFormants="true" stretchMode="realtime" stretchQuality="high" stretchRatio="0.8185076705651025" stretchType="solo" transientSensitivity="40"/>
          <editParameter parameterIndex="0" slotIndex="4294967281"/>
          <editParameter parameterIndex="0" slotIndex="4294967280"/>
          <channelMap>
            <channel index="0" sourceIndex="0"/>
          </channelMap>
        </audioClip>
        <audioClip clipAutoCrossfade="true" crossFadeHeadClipID="-1" crossFadeTailClipID="-1" endPoint="6688728" fileID="23" hue="-1" id="40" lockedInTime="false" looped="false" name="James_037" offline="false" select="false" sourceInPoint="3180170" sourceOutPoint="3735816" startPoint="6133082" zOrder="2145913504">
          <component componentGuid="a766d571-e09c-416e-8523-7c5cb9148591" componentID="Audition.Fader" id="clipGain" name="volume" powered="true">
            <parameter index="0" name="volume" parameterValue="1">
              <parameterKeyframes enableSplines="false">
                <parameterKeyframe sampleOffset="3180340" select="false" type="linear" value="0.65"/>
                <parameterKeyframe sampleOffset="3196253" select="true" type="linear" value="0.8091509"/>
              </parameterKeyframes>
            </parameter>
            <parameter index="1" name="static gain" parameterValue="1"/>
          </component>
          <component componentGuid="15c38812-c580-4de3-bff5-5246d0c47f0e" componentID="Audition.Mute" id="clipMute" name="Mute" powered="true">
            <parameter index="0" parameterValue="0"/>
            <parameter index="1" name="mute" parameterValue="0"/>
          </component>
          <component componentGuid="f38af48b-444a-4f3f-82d9-4b4e68d02c70" componentID="Audition.StereoPanner" id="clipPan" name="StereoPanner" powered="true">
            <parameter index="0" name="Pan" parameterValue="0"/>
          </component>
          <fadeIn crossFadeLinkType="linkedAsymmetric" endPoint="0" shape="0" startPoint="0" type="cosine"/>
          <fadeOut crossFadeLinkType="linkedAsymmetric" endPoint="555646" shape="19" startPoint="541197" type="log"/>
          <editParameter parameterIndex="0" slotIndex="4294967281"/>
          <editParameter parameterIndex="0" slotIndex="4294967280"/>
          <channelMap>
            <channel index="0" sourceIndex="0"/>
          </channelMap>
        </audioClip>
        <audioClip clipAutoCrossfade="true" crossFadeHeadClipID="-1" crossFadeTailClipID="-1" endPoint="6837463" fileID="16" hue="-1" id="41" lockedInTime="false" looped="false" name="Track 3_013" offline="false" select="false" sourceInPoint="142590" sourceOutPoint="175558" startPoint="6804495" zOrder="2145913506">
          <component componentGuid="0fd48a8e-aae2-4510-94ec-136db3b666e2" componentID="Audition.Fader" id="clipGain" name="volume" powered="true">
            <parameter index="0" name="volume" parameterValue="1"/>
            <parameter index="1" name="static gain" parameterValue="1"/>
          </component>
          <component componentGuid="2230afb0-5b93-497b-9f7d-0c49389a134f" componentID="Audition.Mute" id="clipMute" name="Mute" powered="true">
            <parameter index="0" parameterValue="0"/>
            <parameter index="1" name="mute" parameterValue="0"/>
          </component>
          <component componentGuid="f26c125a-ed05-453d-b992-3079063fe91d" componentID="Audition.StereoPanner" id="clipPan" name="StereoPanner" powered="true">
            <parameter index="0" name="Pan" parameterValue="0"/>
          </component>
          <fadeIn crossFadeLinkType="linkedAsymmetric" endPoint="7431" shape="19" startPoint="0" type="log"/>
          <fadeOut crossFadeLinkType="linkedAsymmetric" endPoint="32968" shape="19" startPoint="32968" type="log"/>
          <clipStretch adaptiveWindowSize="37" pitchAdjustment="0" preserveFormants="true" stretchMode="realtime" stretchQuality="high" stretchRatio="0.8185076705651025" stretchType="solo" transientSensitivity="40"/>
          <editParameter parameterIndex="0" slotIndex="4294967281"/>
          <editParameter parameterIndex="0" slotIndex="4294967280"/>
          <channelMap>
            <channel index="0" sourceIndex="0"/>
          </channelMap>
        </audioClip>
        <audioClip clipAutoCrossfade="true" crossFadeHeadClipID="-1" crossFadeTailClipID="-1" endPoint="7023070" fileID="22" hue="-1" id="42" lockedInTime="false" looped="false" name="James_041" offline="false" select="false" sourceInPoint="4641788" sourceOutPoint="4827395" startPoint="6837463" zOrder="2145913512">
          <component componentGuid="70170ba0-2651-4807-8eb6-5edc657e5b56" componentID="Audition.Fader" id="clipGain" name="volume" powered="true">
            <parameter index="0" name="volume" parameterValue="1">
              <parameterKeyframes enableSplines="false">
                <parameterKeyframe sampleOffset="4643067" select="false" type="linear" value="0.65"/>
                <parameterKeyframe sampleOffset="4662706" select="true" type="linear" value="0.8027849"/>
              </parameterKeyframes>
            </parameter>
            <parameter index="1" name="static gain" parameterValue="1"/>
          </component>
          <component componentGuid="2dc37e9d-8414-496e-8334-4571248f4367" componentID="Audition.Mute" id="clipMute" name="Mute" powered="true">
            <parameter index="0" parameterValue="0"/>
            <parameter index="1" name="mute" parameterValue="0"/>
          </component>
          <component componentGuid="632f3c79-9337-4ef5-b862-55ac8aba0f7d" componentID="Audition.StereoPanner" id="clipPan" name="StereoPanner" powered="true">
            <parameter index="0" name="Pan" parameterValue="0"/>
          </component>
          <fadeIn crossFadeLinkType="linkedAsymmetric" endPoint="0" shape="0" startPoint="0" type="cosine"/>
          <fadeOut crossFadeLinkType="linkedAsymmetric" endPoint="185607" shape="0" startPoint="185607" type="cosine"/>
          <editParameter parameterIndex="0" slotIndex="4294967281"/>
          <editParameter parameterIndex="0" slotIndex="4294967280"/>
          <channelMap>
            <channel index="0" sourceIndex="0"/>
          </channelMap>
        </audioClip>
        <audioClip clipAutoCrossfade="true" crossFadeHeadClipID="-1" crossFadeTailClipID="-1" endPoint="7226075" fileID="22" hue="-1" id="43" lockedInTime="false" looped="false" name="James_041" offline="false" select="false" sourceInPoint="4860325" sourceOutPoint="5063330" startPoint="7023070" zOrder="2145913511">
          <component componentGuid="f4d167d2-ee9a-4bbf-b0f3-8a144e4fd7dd" componentID="Audition.Fader" id="clipGain" name="volume" powered="true">
            <parameter index="0" name="volume" parameterValue="0.3472507">
              <parameterKeyframes enableSplines="false">
                <parameterKeyframe sampleOffset="4645287" select="false" type="linear" value="0.4048077"/>
                <parameterKeyframe sampleOffset="4672109" select="false" type="linear" value="0.65"/>
                <parameterKeyframe sampleOffset="4861355" select="true" type="linear" value="0.815517"/>
              </parameterKeyframes>
            </parameter>
            <parameter index="1" name="static gain" parameterValue="1"/>
          </component>
          <component componentGuid="a38fe7db-ea01-4241-8eab-b52026ce36d2" componentID="Audition.Mute" id="clipMute" name="Mute" powered="true">
            <parameter index="0" parameterValue="0"/>
            <parameter index="1" name="mute" parameterValue="0"/>
          </component>
          <component componentGuid="e96fbf02-5b5b-4cdb-9dbd-d62d9e7a8b6c" componentID="Audition.StereoPanner" id="clipPan" name="StereoPanner" powered="true">
            <parameter index="0" name="Pan" parameterValue="0"/>
          </component>
          <fadeIn crossFadeLinkType="linkedAsymmetric" endPoint="0" shape="0" startPoint="0" type="cosine"/>
          <fadeOut crossFadeLinkType="linkedAsymmetric" endPoint="203005" shape="10" startPoint="181097" type="log"/>
          <editParameter parameterIndex="0" slotIndex="4294967281"/>
          <editParameter parameterIndex="0" slotIndex="4294967280"/>
          <channelMap>
            <channel index="0" sourceIndex="0"/>
          </channelMap>
        </audioClip>
        <audioClip clipAutoCrossfade="true" crossFadeHeadClipID="-1" crossFadeTailClipID="-1" endPoint="7401340" fileID="16" hue="-1" id="44" lockedInTime="false" looped="false" name="Track 3_013" offline="false" select="false" sourceInPoint="142590" sourceOutPoint="175558" startPoint="7368372" zOrder="2145913514">
          <component componentGuid="7604ab2e-7038-4c83-a6bf-f8a7245261e6" componentID="Audition.Fader" id="clipGain" name="volume" powered="true">
            <parameter index="0" name="volume" parameterValue="1"/>
            <parameter index="1" name="static gain" parameterValue="1"/>
          </component>
          <component componentGuid="e70e53ce-8743-4c44-9c1c-da121e70e3e3" componentID="Audition.Mute" id="clipMute" name="Mute" powered="true">
            <parameter index="0" parameterValue="0"/>
            <parameter index="1" name="mute" parameterValue="0"/>
          </component>
          <component componentGuid="af35a228-a32b-46b1-8c5d-776cb068c981" componentID="Audition.StereoPanner" id="clipPan" name="StereoPanner" powered="true">
            <parameter index="0" name="Pan" parameterValue="0"/>
          </component>
          <fadeIn crossFadeLinkType="linkedAsymmetric" endPoint="7431" shape="19" startPoint="0" type="log"/>
          <fadeOut crossFadeLinkType="linkedAsymmetric" endPoint="32968" shape="18" startPoint="32968" type="log"/>
          <clipStretch adaptiveWindowSize="37" pitchAdjustment="0" preserveFormants="true" stretchMode="realtime" stretchQuality="high" stretchRatio="0.8185076705651025" stretchType="solo" transientSensitivity="40"/>
          <editParameter parameterIndex="0" slotIndex="4294967281"/>
          <editParameter parameterIndex="0" slotIndex="4294967280"/>
          <channelMap>
            <channel index="0" sourceIndex="0"/>
          </channelMap>
        </audioClip>
        <audioClip clipAutoCrossfade="true" crossFadeHeadClipID="-1" crossFadeTailClipID="-1" endPoint="7484797" fileID="22" hue="-1" id="45" lockedInTime="false" looped="false" name="James_041" offline="false" select="false" sourceInPoint="5522377" sourceOutPoint="5605834" startPoint="7401340" zOrder="2145913558">
          <component componentGuid="88b6577d-68b8-4778-8ab3-27fb75b5b805" componentID="Audition.Fader" id="clipGain" name="volume" powered="true">
            <parameter index="0" name="volume" parameterValue="1">
              <parameterKeyframes enableSplines="false">
                <parameterKeyframe sampleOffset="5525013" select="false" type="linear" value="0.65"/>
                <parameterKeyframe sampleOffset="5546156" select="false" type="linear" value="0.7454903"/>
                <parameterKeyframe sampleOffset="5594005" select="true" type="linear" value="0.8027844"/>
              </parameterKeyframes>
            </parameter>
            <parameter index="1" name="static gain" parameterValue="1"/>
          </component>
          <component componentGuid="3f7a690b-4f86-4325-853a-e7ee56679c72" componentID="Audition.Mute" id="clipMute" name="Mute" powered="true">
            <parameter index="0" parameterValue="0"/>
            <parameter index="1" name="mute" parameterValue="0"/>
          </component>
          <component componentGuid="f08e93b4-e555-4b41-bad5-f7569446a01c" componentID="Audition.StereoPanner" id="clipPan" name="StereoPanner" powered="true">
            <parameter index="0" name="Pan" parameterValue="0"/>
          </component>
          <fadeIn crossFadeLinkType="linkedAsymmetric" endPoint="0" shape="19" startPoint="0" type="log"/>
          <fadeOut crossFadeLinkType="linkedAsymmetric" endPoint="83457" shape="0" startPoint="83457" type="cosine"/>
          <editParameter parameterIndex="0" slotIndex="4294967281"/>
          <editParameter parameterIndex="0" slotIndex="4294967280"/>
          <channelMap>
            <channel index="0" sourceIndex="0"/>
          </channelMap>
        </audioClip>
        <audioClip clipAutoCrossfade="true" crossFadeHeadClipID="-1" crossFadeTailClipID="47" endPoint="7566466" fileID="22" hue="-1" id="46" lockedInTime="false" looped="false" name="James_041" offline="false" select="false" sourceInPoint="5618037" sourceOutPoint="5699706" startPoint="7484797" zOrder="2145913542">
          <component componentGuid="6d4323fe-e294-4c92-9cf1-a76f2ca1460b" componentID="Audition.Fader" id="clipGain" name="volume" powered="true">
            <parameter index="0" name="volume" parameterValue="0.3851794">
              <parameterKeyframes enableSplines="false">
                <parameterKeyframe sampleOffset="5524763" select="false" type="linear" value="0.4240384"/>
                <parameterKeyframe sampleOffset="5550497" select="false" type="linear" value="0.65"/>
                <parameterKeyframe sampleOffset="5620986" select="true" type="linear" value="0.8027849"/>
              </parameterKeyframes>
            </parameter>
            <parameter index="1" name="static gain" parameterValue="1"/>
          </component>
          <component componentGuid="60ae02d3-9cd8-4605-a1d0-ff8140d234c7" componentID="Audition.Mute" id="clipMute" name="Mute" powered="true">
            <parameter index="0" parameterValue="0"/>
            <parameter index="1" name="mute" parameterValue="0"/>
          </component>
          <component componentGuid="3d5667a8-adf9-4da4-930f-7a4e3f904a62" componentID="Audition.StereoPanner" id="clipPan" name="StereoPanner" powered="true">
            <parameter index="0" name="Pan" parameterValue="0"/>
          </component>
          <fadeIn crossFadeLinkType="linkedAsymmetric" endPoint="0" shape="0" startPoint="0" type="cosine"/>
          <fadeOut crossFadeLinkType="linkedAsymmetric" endPoint="81669" shape="18" startPoint="79783" type="log"/>
          <editParameter parameterIndex="0" slotIndex="4294967281"/>
          <editParameter parameterIndex="0" slotIndex="4294967280"/>
          <channelMap>
            <channel index="0" sourceIndex="0"/>
          </channelMap>
        </audioClip>
        <audioClip clipAutoCrossfade="true" crossFadeHeadClipID="46" crossFadeTailClipID="-1" endPoint="7643893" fileID="22" hue="-1" id="47" lockedInTime="false" looped="false" name="James_041" offline="false" select="false" sourceInPoint="5706699" sourceOutPoint="5786012" startPoint="7564580" zOrder="2145913557">
          <component componentGuid="d836fa1e-4138-4f4a-8614-176cdb2d7b18" componentID="Audition.Fader" id="clipGain" name="volume" powered="true">
            <parameter index="0" name="volume" parameterValue="0.3851794">
              <parameterKeyframes enableSplines="false">
                <parameterKeyframe sampleOffset="5524763" select="false" type="linear" value="0.4240384"/>
                <parameterKeyframe sampleOffset="5550497" select="false" type="linear" value="0.65"/>
                <parameterKeyframe sampleOffset="5669599" select="false" type="linear" value="0.7836867"/>
                <parameterKeyframe sampleOffset="5709498" select="true" type="linear" value="0.7964185"/>
              </parameterKeyframes>
            </parameter>
            <parameter index="1" name="static gain" parameterValue="1"/>
          </component>
          <component componentGuid="18310900-42fb-4634-89d2-98a539d62557" componentID="Audition.Mute" id="clipMute" name="Mute" powered="true">
            <parameter index="0" parameterValue="0"/>
            <parameter index="1" name="mute" parameterValue="0"/>
          </component>
          <component componentGuid="98aa0976-ef22-4813-8c40-0c6081ad4c93" componentID="Audition.StereoPanner" id="clipPan" name="StereoPanner" powered="true">
            <parameter index="0" name="Pan" parameterValue="0"/>
          </component>
          <fadeIn crossFadeLinkType="linkedAsymmetric" endPoint="1886" shape="19" startPoint="0" type="log"/>
          <fadeOut crossFadeLinkType="linkedAsymmetric" endPoint="79313" shape="12" startPoint="67439" type="log"/>
          <editParameter parameterIndex="0" slotIndex="4294967281"/>
          <editParameter parameterIndex="0" slotIndex="4294967280"/>
          <channelMap>
            <channel index="0" sourceIndex="0"/>
          </channelMap>
        </audioClip>
        <audioClip clipAutoCrossfade="true" crossFadeHeadClipID="-1" crossFadeTailClipID="-1" endPoint="7731479" fileID="16" hue="-1" id="48" lockedInTime="false" looped="false" name="Track 3_013" offline="false" select="false" sourceInPoint="142590" sourceOutPoint="175558" startPoint="7698511" zOrder="2145913544">
          <component componentGuid="abca994d-660f-4725-8b30-47bad8d7a4d2" componentID="Audition.Fader" id="clipGain" name="volume" powered="true">
            <parameter index="0" name="volume" parameterValue="1"/>
            <parameter index="1" name="static gain" parameterValue="1"/>
          </component>
          <component componentGuid="eb43172a-ee78-4021-91be-4e488f888ecd" componentID="Audition.Mute" id="clipMute" name="Mute" powered="true">
            <parameter index="0" parameterValue="0"/>
            <parameter index="1" name="mute" parameterValue="0"/>
          </component>
          <component componentGuid="e211026a-9bc8-44d3-8679-34c1d134af67" componentID="Audition.StereoPanner" id="clipPan" name="StereoPanner" powered="true">
            <parameter index="0" name="Pan" parameterValue="0"/>
          </component>
          <fadeIn crossFadeLinkType="linkedAsymmetric" endPoint="7431" shape="19" startPoint="0" type="log"/>
          <fadeOut crossFadeLinkType="linkedAsymmetric" endPoint="32968" shape="19" startPoint="32968" type="log"/>
          <clipStretch adaptiveWindowSize="37" pitchAdjustment="0" preserveFormants="true" stretchMode="realtime" stretchQuality="high" stretchRatio="0.8185076705651025" stretchType="solo" transientSensitivity="40"/>
          <editParameter parameterIndex="0" slotIndex="4294967281"/>
          <editParameter parameterIndex="0" slotIndex="4294967280"/>
          <channelMap>
            <channel index="0" sourceIndex="0"/>
          </channelMap>
        </audioClip>
        <audioClip clipAutoCrossfade="true" crossFadeHeadClipID="-1" crossFadeTailClipID="-1" endPoint="8003483" fileID="25" hue="-1" id="49" lockedInTime="false" looped="false" name="James_047" offline="false" select="false" sourceInPoint="28182" sourceOutPoint="300186" startPoint="7731479" zOrder="2145913551">
          <component componentGuid="32792df1-1df6-45b8-9ded-49983d3953fb" componentID="Audition.Fader" id="clipGain" name="volume" powered="true">
            <parameter index="0" name="volume" parameterValue="1">
              <parameterKeyframes enableSplines="false">
                <parameterKeyframe sampleOffset="29145" select="false" type="linear" value="0.65"/>
                <parameterKeyframe sampleOffset="44801" select="false" type="linear" value="0.7327581"/>
              </parameterKeyframes>
            </parameter>
            <parameter index="1" name="static gain" parameterValue="1"/>
          </component>
          <component componentGuid="27cbe1d6-2ee8-41b8-b67a-1a658c57196d" componentID="Audition.Mute" id="clipMute" name="Mute" powered="true">
            <parameter index="0" parameterValue="0"/>
            <parameter index="1" name="mute" parameterValue="0"/>
          </component>
          <component componentGuid="3e297a24-9b9f-4317-9d29-7b3042e71c90" componentID="Audition.StereoPanner" id="clipPan" name="StereoPanner" powered="true">
            <parameter index="0" name="Pan" parameterValue="0"/>
          </component>
          <fadeIn crossFadeLinkType="linkedAsymmetric" endPoint="0" shape="0" startPoint="0" type="cosine"/>
          <fadeOut crossFadeLinkType="linkedAsymmetric" endPoint="272004" shape="12" startPoint="265407" type="log"/>
          <take sourceInPoint="0"/>
          <editParameter parameterIndex="0" slotIndex="4294967281"/>
          <editParameter parameterIndex="0" slotIndex="4294967280"/>
          <channelMap>
            <channel index="0" sourceIndex="0"/>
          </channelMap>
        </audioClip>
        <audioClip clipAutoCrossfade="true" crossFadeHeadClipID="-1" crossFadeTailClipID="-1" endPoint="8091771" fileID="16" hue="-1" id="50" lockedInTime="false" looped="false" name="Track 3_013" offline="false" select="false" sourceInPoint="142590" sourceOutPoint="175558" startPoint="8058803" zOrder="2145913560">
          <component componentGuid="1a403c87-2fff-4e51-8fcf-112628d0d99d" componentID="Audition.Fader" id="clipGain" name="volume" powered="true">
            <parameter index="0" name="volume" parameterValue="1"/>
            <parameter index="1" name="static gain" parameterValue="1"/>
          </component>
          <component componentGuid="927da8e4-acf6-4dec-92fc-f64a9e664f8c" componentID="Audition.Mute" id="clipMute" name="Mute" powered="true">
            <parameter index="0" parameterValue="0"/>
            <parameter index="1" name="mute" parameterValue="0"/>
          </component>
          <component componentGuid="b67ac09d-f824-482b-869b-c7b360732bcc" componentID="Audition.StereoPanner" id="clipPan" name="StereoPanner" powered="true">
            <parameter index="0" name="Pan" parameterValue="0"/>
          </component>
          <fadeIn crossFadeLinkType="linkedAsymmetric" endPoint="7431" shape="19" startPoint="0" type="log"/>
          <fadeOut crossFadeLinkType="linkedAsymmetric" endPoint="32968" shape="19" startPoint="32968" type="log"/>
          <clipStretch adaptiveWindowSize="37" pitchAdjustment="0" preserveFormants="true" stretchMode="realtime" stretchQuality="high" stretchRatio="0.8185076705651025" stretchType="solo" transientSensitivity="40"/>
          <editParameter parameterIndex="0" slotIndex="4294967281"/>
          <editParameter parameterIndex="0" slotIndex="4294967280"/>
          <channelMap>
            <channel index="0" sourceIndex="0"/>
          </channelMap>
        </audioClip>
        <audioClip clipAutoCrossfade="true" crossFadeHeadClipID="-1" crossFadeTailClipID="-1" endPoint="8326064" fileID="22" hue="-1" id="51" lockedInTime="false" looped="false" name="James_041" offline="false" select="false" sourceInPoint="5825781" sourceOutPoint="6060074" startPoint="8091771" zOrder="2145913624">
          <component componentGuid="3ce39b66-e006-4673-8abe-60021aea3b79" componentID="Audition.Fader" id="clipGain" name="volume" powered="true">
            <parameter index="0" name="volume" parameterValue="1">
              <parameterKeyframes enableSplines="false">
                <parameterKeyframe sampleOffset="5825951" select="false" type="linear" value="0.65"/>
                <parameterKeyframe sampleOffset="5843940" select="false" type="linear" value="0.7964188"/>
                <parameterKeyframe sampleOffset="5972305" select="false" type="linear" value="0.8027846"/>
                <parameterKeyframe sampleOffset="5980315" select="true" type="linear" value="0.74549"/>
              </parameterKeyframes>
            </parameter>
            <parameter index="1" name="static gain" parameterValue="1"/>
          </component>
          <component componentGuid="b82f61b2-b806-4b70-878e-62682e06d166" componentID="Audition.Mute" id="clipMute" name="Mute" powered="true">
            <parameter index="0" parameterValue="0"/>
            <parameter index="1" name="mute" parameterValue="0"/>
          </component>
          <component componentGuid="4f939f0d-095f-4ace-971b-d24ab0c7dc07" componentID="Audition.StereoPanner" id="clipPan" name="StereoPanner" powered="true">
            <parameter index="0" name="Pan" parameterValue="0"/>
          </component>
          <fadeIn crossFadeLinkType="linkedAsymmetric" endPoint="0" shape="0" startPoint="0" type="cosine"/>
          <fadeOut crossFadeLinkType="linkedAsymmetric" endPoint="234293" shape="0" startPoint="226125" type="log"/>
          <editParameter parameterIndex="0" slotIndex="4294967281"/>
          <editParameter parameterIndex="0" slotIndex="4294967280"/>
          <channelMap>
            <channel index="0" sourceIndex="0"/>
          </channelMap>
        </audioClip>
        <audioClip clipAutoCrossfade="true" crossFadeHeadClipID="-1" crossFadeTailClipID="-1" endPoint="8426857" fileID="16" hue="-1" id="52" lockedInTime="false" looped="false" name="Track 3_013" offline="false" select="false" sourceInPoint="142590" sourceOutPoint="175558" startPoint="8393889" zOrder="2145913571">
          <component componentGuid="e0edcc82-0f68-447d-9eb3-56ed3dc55f85" componentID="Audition.Fader" id="clipGain" name="volume" powered="true">
            <parameter index="0" name="volume" parameterValue="1"/>
            <parameter index="1" name="static gain" parameterValue="1"/>
          </component>
          <component componentGuid="dd57256f-537f-4ad9-b513-f1ee3d201594" componentID="Audition.Mute" id="clipMute" name="Mute" powered="true">
            <parameter index="0" parameterValue="0"/>
            <parameter index="1" name="mute" parameterValue="0"/>
          </component>
          <component componentGuid="95e6d7d9-1d5d-4e79-9c69-e71c70f9e50e" componentID="Audition.StereoPanner" id="clipPan" name="StereoPanner" powered="true">
            <parameter index="0" name="Pan" parameterValue="0"/>
          </component>
          <fadeIn crossFadeLinkType="linkedAsymmetric" endPoint="7431" shape="19" startPoint="0" type="log"/>
          <fadeOut crossFadeLinkType="linkedAsymmetric" endPoint="32968" shape="19" startPoint="32968" type="log"/>
          <clipStretch adaptiveWindowSize="37" pitchAdjustment="0" preserveFormants="true" stretchMode="realtime" stretchQuality="high" stretchRatio="0.8185076705651025" stretchType="solo" transientSensitivity="40"/>
          <editParameter parameterIndex="0" slotIndex="4294967281"/>
          <editParameter parameterIndex="0" slotIndex="4294967280"/>
          <channelMap>
            <channel index="0" sourceIndex="0"/>
          </channelMap>
        </audioClip>
        <audioClip clipAutoCrossfade="true" crossFadeHeadClipID="-1" crossFadeTailClipID="-1" endPoint="8843036" fileID="22" hue="-1" id="53" lockedInTime="false" looped="false" name="James_041" offline="false" select="false" sourceInPoint="6671809" sourceOutPoint="7087988" startPoint="8426857" zOrder="2145913583">
          <component componentGuid="6bbef222-514c-4771-b6c3-055f57954ad1" componentID="Audition.Fader" id="clipGain" name="volume" powered="true">
            <parameter index="0" name="volume" parameterValue="0.3290974">
              <parameterKeyframes enableSplines="false">
                <parameterKeyframe sampleOffset="6670932" select="false" type="linear" value="0.3951923"/>
                <parameterKeyframe sampleOffset="6671979" select="false" type="linear" value="0.65"/>
                <parameterKeyframe sampleOffset="6692695" select="false" type="linear" value="0.815517"/>
                <parameterKeyframe sampleOffset="6903347" select="false" type="linear" value="0.815517"/>
                <parameterKeyframe sampleOffset="6909784" select="false" type="linear" value="0.7200262"/>
                <parameterKeyframe sampleOffset="7026770" select="false" type="linear" value="0.7200262"/>
                <parameterKeyframe sampleOffset="7032356" select="false" type="linear" value="0.65"/>
                <parameterKeyframe sampleOffset="7054970" select="false" type="linear" value="0.65"/>
                <parameterKeyframe sampleOffset="7059763" select="true" type="linear" value="0.7136604"/>
              </parameterKeyframes>
            </parameter>
            <parameter index="1" name="static gain" parameterValue="1"/>
          </component>
          <component componentGuid="9cdc54da-e761-4d74-a410-7a0afa861124" componentID="Audition.Mute" id="clipMute" name="Mute" powered="true">
            <parameter index="0" parameterValue="0"/>
            <parameter index="1" name="mute" parameterValue="0"/>
          </component>
          <component componentGuid="3bb61389-40b9-4903-8ddd-50856feabfa9" componentID="Audition.StereoPanner" id="clipPan" name="StereoPanner" powered="true">
            <parameter index="0" name="Pan" parameterValue="0"/>
          </component>
          <fadeIn crossFadeLinkType="linkedAsymmetric" endPoint="0" shape="0" startPoint="0" type="cosine"/>
          <fadeOut crossFadeLinkType="linkedAsymmetric" endPoint="416179" shape="19" startPoint="405315" type="log"/>
          <editParameter parameterIndex="0" slotIndex="4294967281"/>
          <editParameter parameterIndex="0" slotIndex="4294967280"/>
          <channelMap>
            <channel index="0" sourceIndex="0"/>
          </channelMap>
        </audioClip>
        <audioClip clipAutoCrossfade="true" crossFadeHeadClipID="-1" crossFadeTailClipID="-1" endPoint="8979269" fileID="16" hue="-1" id="54" lockedInTime="false" looped="false" name="Track 3_013" offline="false" select="false" sourceInPoint="142590" sourceOutPoint="175558" startPoint="8946301" zOrder="2145913585">
          <component componentGuid="7c9c2cfb-429a-4de6-97ae-2bc2bb38de54" componentID="Audition.Fader" id="clipGain" name="volume" powered="true">
            <parameter index="0" name="volume" parameterValue="1"/>
            <parameter index="1" name="static gain" parameterValue="1"/>
          </component>
          <component componentGuid="4c0f23f0-4f58-4f4e-a648-b2c0edcf6ab6" componentID="Audition.Mute" id="clipMute" name="Mute" powered="true">
            <parameter index="0" parameterValue="0"/>
            <parameter index="1" name="mute" parameterValue="0"/>
          </component>
          <component componentGuid="20e43dbe-4605-4b2d-baac-2b7fbc4dcc7a" componentID="Audition.StereoPanner" id="clipPan" name="StereoPanner" powered="true">
            <parameter index="0" name="Pan" parameterValue="0"/>
          </component>
          <fadeIn crossFadeLinkType="linkedAsymmetric" endPoint="7431" shape="19" startPoint="0" type="log"/>
          <fadeOut crossFadeLinkType="linkedAsymmetric" endPoint="32968" shape="19" startPoint="32968" type="log"/>
          <clipStretch adaptiveWindowSize="37" pitchAdjustment="0" preserveFormants="true" stretchMode="realtime" stretchQuality="high" stretchRatio="0.8185076705651025" stretchType="solo" transientSensitivity="40"/>
          <editParameter parameterIndex="0" slotIndex="4294967281"/>
          <editParameter parameterIndex="0" slotIndex="4294967280"/>
          <channelMap>
            <channel index="0" sourceIndex="0"/>
          </channelMap>
        </audioClip>
        <audioClip clipAutoCrossfade="true" crossFadeHeadClipID="-1" crossFadeTailClipID="-1" endPoint="9076496" fileID="22" hue="-1" id="55" lockedInTime="false" looped="false" name="James_041" offline="false" select="false" sourceInPoint="7135708" sourceOutPoint="7232935" startPoint="8979269" zOrder="2145913599">
          <component componentGuid="86cab4b3-b333-45e4-87d2-632cae8e3a88" componentID="Audition.Fader" id="clipGain" name="volume" powered="true">
            <parameter index="0" name="volume" parameterValue="0.3381068">
              <parameterKeyframes enableSplines="false">
                <parameterKeyframe sampleOffset="7134537" select="false" type="linear" value="0.4"/>
                <parameterKeyframe sampleOffset="7137930" select="false" type="linear" value="0.65"/>
                <parameterKeyframe sampleOffset="7152256" select="true" type="linear" value="0.65"/>
              </parameterKeyframes>
            </parameter>
            <parameter index="1" name="static gain" parameterValue="1"/>
          </component>
          <component componentGuid="13cecb70-d337-41de-99e6-43f122f6f092" componentID="Audition.Mute" id="clipMute" name="Mute" powered="true">
            <parameter index="0" parameterValue="0"/>
            <parameter index="1" name="mute" parameterValue="0"/>
          </component>
          <component componentGuid="2c5675ea-08ef-4ff9-9f0c-b382e2d0f924" componentID="Audition.StereoPanner" id="clipPan" name="StereoPanner" powered="true">
            <parameter index="0" name="Pan" parameterValue="0"/>
          </component>
          <fadeIn crossFadeLinkType="linkedAsymmetric" endPoint="0" shape="0" startPoint="0" type="cosine"/>
          <fadeOut crossFadeLinkType="linkedAsymmetric" endPoint="97227" shape="19" startPoint="97227" type="log"/>
          <editParameter parameterIndex="0" slotIndex="4294967281"/>
          <editParameter parameterIndex="0" slotIndex="4294967280"/>
          <channelMap>
            <channel index="0" sourceIndex="0"/>
          </channelMap>
        </audioClip>
        <audioClip clipAutoCrossfade="true" crossFadeHeadClipID="-1" crossFadeTailClipID="-1" endPoint="9154951" fileID="22" hue="-1" id="56" lockedInTime="false" looped="false" name="James_041" offline="false" select="false" sourceInPoint="7247314" sourceOutPoint="7325769" startPoint="9076496" zOrder="2145913598">
          <component componentGuid="2cc6ee8e-3e7a-4a15-8576-bfd7ad69bc72" componentID="Audition.Fader" id="clipGain" name="volume" powered="true">
            <parameter index="0" name="volume" parameterValue="1"/>
            <parameter index="1" name="static gain" parameterValue="1"/>
          </component>
          <component componentGuid="bc4b143a-e160-43d7-a949-20327286c43d" componentID="Audition.Mute" id="clipMute" name="Mute" powered="true">
            <parameter index="0" parameterValue="0"/>
            <parameter index="1" name="mute" parameterValue="0"/>
          </component>
          <component componentGuid="4a3e2890-a523-4d72-921b-08ba076e3330" componentID="Audition.StereoPanner" id="clipPan" name="StereoPanner" powered="true">
            <parameter index="0" name="Pan" parameterValue="0"/>
          </component>
          <fadeIn crossFadeLinkType="linkedAsymmetric" endPoint="0" shape="0" startPoint="0" type="cosine"/>
          <fadeOut crossFadeLinkType="linkedAsymmetric" endPoint="78455" shape="7" startPoint="62689" type="log"/>
          <editParameter parameterIndex="0" slotIndex="4294967281"/>
          <editParameter parameterIndex="0" slotIndex="4294967280"/>
          <channelMap>
            <channel index="0" sourceIndex="0"/>
          </channelMap>
        </audioClip>
        <audioClip clipAutoCrossfade="true" crossFadeHeadClipID="-1" crossFadeTailClipID="58" endPoint="9275610" fileID="16" hue="-1" id="57" lockedInTime="false" looped="false" name="Track 3_013" offline="false" select="false" sourceInPoint="142590" sourceOutPoint="175558" startPoint="9242642" zOrder="2145913602">
          <component componentGuid="27c19d9b-8cd2-4f41-9b8e-ed6d24126e9f" componentID="Audition.Fader" id="clipGain" name="volume" powered="true">
            <parameter index="0" name="volume" parameterValue="1"/>
            <parameter index="1" name="static gain" parameterValue="1"/>
          </component>
          <component componentGuid="2de7760b-b937-4742-8b0d-b581765811bc" componentID="Audition.Mute" id="clipMute" name="Mute" powered="true">
            <parameter index="0" parameterValue="0"/>
            <parameter index="1" name="mute" parameterValue="0"/>
          </component>
          <component componentGuid="23497c98-743d-4cff-aed2-cbb84eed7dde" componentID="Audition.StereoPanner" id="clipPan" name="StereoPanner" powered="true">
            <parameter index="0" name="Pan" parameterValue="0"/>
          </component>
          <fadeIn crossFadeLinkType="linkedAsymmetric" endPoint="7431" shape="19" startPoint="0" type="log"/>
          <fadeOut crossFadeLinkType="linkedAsymmetric" endPoint="32968" shape="19" startPoint="32415" type="log"/>
          <clipStretch adaptiveWindowSize="37" pitchAdjustment="0" preserveFormants="true" stretchMode="realtime" stretchQuality="high" stretchRatio="0.8185076705651025" stretchType="solo" transientSensitivity="40"/>
          <editParameter parameterIndex="0" slotIndex="4294967281"/>
          <editParameter parameterIndex="0" slotIndex="4294967280"/>
          <channelMap>
            <channel index="0" sourceIndex="0"/>
          </channelMap>
        </audioClip>
        <audioClip clipAutoCrossfade="true" crossFadeHeadClipID="57" crossFadeTailClipID="-1" endPoint="9417206" fileID="23" hue="-1" id="58" lockedInTime="false" looped="false" name="James_037" offline="false" select="false" sourceInPoint="5952458" sourceOutPoint="6094607" startPoint="9275057" zOrder="2145913609">
          <component componentGuid="52fe118c-e0bd-4b48-bbff-7ba2087a94bf" componentID="Audition.Fader" id="clipGain" name="volume" powered="true">
            <parameter index="0" name="volume" parameterValue="0.3659435">
              <parameterKeyframes enableSplines="false">
                <parameterKeyframe sampleOffset="5951243" select="false" type="linear" value="0.414423"/>
                <parameterKeyframe sampleOffset="5953039" select="false" type="linear" value="0.65"/>
                <parameterKeyframe sampleOffset="5967015" select="true" type="linear" value="0.7645887"/>
              </parameterKeyframes>
            </parameter>
            <parameter index="1" name="static gain" parameterValue="1"/>
          </component>
          <component componentGuid="b4b9476c-6ebd-4646-aafa-75bf8fe8bf52" componentID="Audition.Mute" id="clipMute" name="Mute" powered="true">
            <parameter index="0" parameterValue="0"/>
            <parameter index="1" name="mute" parameterValue="0"/>
          </component>
          <component componentGuid="f387c4c8-0b99-4c1a-9f64-e7e515a94f92" componentID="Audition.StereoPanner" id="clipPan" name="StereoPanner" powered="true">
            <parameter index="0" name="Pan" parameterValue="0"/>
          </component>
          <fadeIn crossFadeLinkType="linkedAsymmetric" endPoint="553" shape="18" startPoint="0" type="log"/>
          <fadeOut crossFadeLinkType="linkedAsymmetric" endPoint="142149" shape="19" startPoint="142149" type="log"/>
          <editParameter parameterIndex="0" slotIndex="4294967281"/>
          <editParameter parameterIndex="0" slotIndex="4294967280"/>
          <channelMap>
            <channel index="0" sourceIndex="0"/>
          </channelMap>
        </audioClip>
        <audioClip clipAutoCrossfade="true" crossFadeHeadClipID="-1" crossFadeTailClipID="-1" endPoint="9575211" fileID="22" hue="-1" id="59" lockedInTime="false" looped="false" name="James_041" offline="false" select="false" sourceInPoint="7517684" sourceOutPoint="7675689" startPoint="9417206" zOrder="2145913608">
          <component componentGuid="d19f713a-3ef1-4fa5-8340-dabb09ff1fdb" componentID="Audition.Fader" id="clipGain" name="volume" powered="true">
            <parameter index="0" name="volume" parameterValue="1.672448"/>
            <parameter index="1" name="static gain" parameterValue="1"/>
          </component>
          <component componentGuid="e1b4b254-9b8f-4b1d-aa3a-1a8a224500c9" componentID="Audition.Mute" id="clipMute" name="Mute" powered="true">
            <parameter index="0" parameterValue="0"/>
            <parameter index="1" name="mute" parameterValue="0"/>
          </component>
          <component componentGuid="75ff5fff-6926-4d98-8723-8e89c258d840" componentID="Audition.StereoPanner" id="clipPan" name="StereoPanner" powered="true">
            <parameter index="0" name="Pan" parameterValue="0"/>
          </component>
          <fadeIn crossFadeLinkType="linkedAsymmetric" endPoint="0" shape="0" startPoint="0" type="cosine"/>
          <fadeOut crossFadeLinkType="linkedAsymmetric" endPoint="158005" shape="7" startPoint="147587" type="log"/>
          <editParameter parameterIndex="0" slotIndex="4294967281"/>
          <editParameter parameterIndex="0" slotIndex="4294967280"/>
          <channelMap>
            <channel index="0" sourceIndex="0"/>
          </channelMap>
        </audioClip>
        <audioClip clipAutoCrossfade="true" crossFadeHeadClipID="-1" crossFadeTailClipID="61" endPoint="9710322" fileID="16" hue="-1" id="60" lockedInTime="false" looped="false" name="Track 3_013" offline="false" select="false" sourceInPoint="142590" sourceOutPoint="175558" startPoint="9677354" zOrder="2145913611">
          <component componentGuid="cd947108-9466-41b4-988e-9f0ed63cd9f9" componentID="Audition.Fader" id="clipGain" name="volume" powered="true">
            <parameter index="0" name="volume" parameterValue="1"/>
            <parameter index="1" name="static gain" parameterValue="1"/>
          </component>
          <component componentGuid="ba7e6801-41ac-47b7-b781-2ecd28c27ead" componentID="Audition.Mute" id="clipMute" name="Mute" powered="true">
            <parameter index="0" parameterValue="0"/>
            <parameter index="1" name="mute" parameterValue="0"/>
          </component>
          <component componentGuid="8720c3ec-48ec-4dbd-84a1-bd7ebb4972d8" componentID="Audition.StereoPanner" id="clipPan" name="StereoPanner" powered="true">
            <parameter index="0" name="Pan" parameterValue="0"/>
          </component>
          <fadeIn crossFadeLinkType="linkedAsymmetric" endPoint="7431" shape="19" startPoint="0" type="log"/>
          <fadeOut crossFadeLinkType="linkedAsymmetric" endPoint="32968" shape="18" startPoint="32360" type="log"/>
          <clipStretch adaptiveWindowSize="37" pitchAdjustment="0" preserveFormants="true" stretchMode="realtime" stretchQuality="high" stretchRatio="0.8185076705651025" stretchType="solo" transientSensitivity="40"/>
          <editParameter parameterIndex="0" slotIndex="4294967281"/>
          <editParameter parameterIndex="0" slotIndex="4294967280"/>
          <channelMap>
            <channel index="0" sourceIndex="0"/>
          </channelMap>
        </audioClip>
        <audioClip clipAutoCrossfade="true" crossFadeHeadClipID="60" crossFadeTailClipID="-1" endPoint="10006293" fileID="22" hue="-1" id="61" lockedInTime="false" looped="false" name="James_041" offline="false" select="false" sourceInPoint="7703859" sourceOutPoint="8000438" startPoint="9709714" zOrder="2145913623">
          <component componentGuid="0036b977-ea5d-4c9e-9e46-b8142e980877" componentID="Audition.Fader" id="clipGain" name="volume" powered="true">
            <parameter index="0" name="volume" parameterValue="0.3754936">
              <parameterKeyframes enableSplines="false">
                <parameterKeyframe sampleOffset="7702652" select="false" type="linear" value="0.4192308"/>
                <parameterKeyframe sampleOffset="7705400" select="false" type="linear" value="0.65"/>
                <parameterKeyframe sampleOffset="7727652" select="false" type="linear" value="0.815517"/>
                <parameterKeyframe sampleOffset="7889102" select="false" type="linear" value="0.7709545"/>
                <parameterKeyframe sampleOffset="7903871" select="false" type="linear" value="0.65"/>
                <parameterKeyframe sampleOffset="7915372" select="false" type="linear" value="0.65"/>
              </parameterKeyframes>
            </parameter>
            <parameter index="1" name="static gain" parameterValue="1"/>
          </component>
          <component componentGuid="378cbfd6-0091-475e-9419-1233a755bfc6" componentID="Audition.Mute" id="clipMute" name="Mute" powered="true">
            <parameter index="0" parameterValue="0"/>
            <parameter index="1" name="mute" parameterValue="0"/>
          </component>
          <component componentGuid="49692219-3c7b-420e-95ba-e966263c7f04" componentID="Audition.StereoPanner" id="clipPan" name="StereoPanner" powered="true">
            <parameter index="0" name="Pan" parameterValue="0"/>
          </component>
          <fadeIn crossFadeLinkType="linkedAsymmetric" endPoint="608" shape="19" startPoint="0" type="log"/>
          <fadeOut crossFadeLinkType="linkedAsymmetric" endPoint="296579" shape="6" startPoint="277285" type="log"/>
          <editParameter parameterIndex="0" slotIndex="4294967281"/>
          <editParameter parameterIndex="0" slotIndex="4294967280"/>
          <channelMap>
            <channel index="0" sourceIndex="0"/>
          </channelMap>
        </audioClip>
        <audioClip clipAutoCrossfade="true" crossFadeHeadClipID="-1" crossFadeTailClipID="-1" endPoint="10231200" fileID="16" hue="-1" id="62" lockedInTime="false" looped="false" name="Track 3_013" offline="false" select="false" sourceInPoint="142590" sourceOutPoint="175558" startPoint="10198232" zOrder="2145912987">
          <component componentGuid="564ea58e-8ce8-4703-af94-a5161053cc60" componentID="Audition.Fader" id="clipGain" name="volume" powered="true">
            <parameter index="0" name="volume" parameterValue="1"/>
            <parameter index="1" name="static gain" parameterValue="1"/>
          </component>
          <component componentGuid="7ef3b032-77c6-46d7-b01a-c105dd5ac7a6" componentID="Audition.Mute" id="clipMute" name="Mute" powered="true">
            <parameter index="0" parameterValue="0"/>
            <parameter index="1" name="mute" parameterValue="0"/>
          </component>
          <component componentGuid="e40f4fc3-5c63-4b74-a50f-e59d3c630382" componentID="Audition.StereoPanner" id="clipPan" name="StereoPanner" powered="true">
            <parameter index="0" name="Pan" parameterValue="0"/>
          </component>
          <fadeIn crossFadeLinkType="linkedAsymmetric" endPoint="7431" shape="19" startPoint="0" type="log"/>
          <fadeOut crossFadeLinkType="linkedAsymmetric" endPoint="32968" shape="19" startPoint="32968" type="log"/>
          <clipStretch adaptiveWindowSize="37" pitchAdjustment="0" preserveFormants="true" stretchMode="realtime" stretchQuality="high" stretchRatio="0.8185076705651025" stretchType="solo" transientSensitivity="40"/>
          <editParameter parameterIndex="0" slotIndex="4294967281"/>
          <editParameter parameterIndex="0" slotIndex="4294967280"/>
          <channelMap>
            <channel index="0" sourceIndex="0"/>
          </channelMap>
        </audioClip>
        <audioClip clipAutoCrossfade="true" crossFadeHeadClipID="-1" crossFadeTailClipID="-1" endPoint="10695882" fileID="26" hue="-1" id="63" lockedInTime="false" looped="false" name="James_053" offline="false" select="false" sourceInPoint="29038" sourceOutPoint="493720" startPoint="10231200" zOrder="2145913007">
          <component componentGuid="27c37840-43bd-4620-96ce-973fb185b4f5" componentID="Audition.Fader" id="clipGain" name="volume" powered="true">
            <parameter index="0" name="volume" parameterValue="1.6269591"/>
            <parameter index="1" name="static gain" parameterValue="1"/>
          </component>
          <component componentGuid="44e658ef-f6b6-4b3f-9a68-f861fc371f3d" componentID="Audition.Mute" id="clipMute" name="Mute" powered="true">
            <parameter index="0" parameterValue="0"/>
            <parameter index="1" name="mute" parameterValue="0"/>
          </component>
          <component componentGuid="930bd84c-be11-4430-923d-8af99474e75b" componentID="Audition.StereoPanner" id="clipPan" name="StereoPanner" powered="true">
            <parameter index="0" name="Pan" parameterValue="0"/>
          </component>
          <fadeIn crossFadeLinkType="linkedAsymmetric" endPoint="38731" shape="19" startPoint="0" type="log"/>
          <fadeOut crossFadeLinkType="linkedAsymmetric" endPoint="464682" shape="19" startPoint="439507" type="log"/>
          <take sourceInPoint="0"/>
          <editParameter parameterIndex="0" slotIndex="4294967280"/>
          <editParameter parameterIndex="0" slotIndex="4294967281"/>
          <channelMap>
            <channel index="0" sourceIndex="0"/>
          </channelMap>
        </audioClip>
        <audioClip clipAutoCrossfade="true" crossFadeHeadClipID="-1" crossFadeTailClipID="65" endPoint="11022589" fileID="26" hue="-1" id="64" lockedInTime="false" looped="false" name="James_053" offline="false" select="false" sourceInPoint="493720" sourceOutPoint="820427" startPoint="10695882" zOrder="2145913056">
          <component componentGuid="0ca80d50-84da-416f-b789-66339f3c13d6" componentID="Audition.Fader" id="clipGain" name="volume" powered="true">
            <parameter index="0" name="volume" parameterValue="0.3754936">
              <parameterKeyframes enableSplines="false">
                <parameterKeyframe sampleOffset="33640" select="false" type="linear" value="0.4192308"/>
                <parameterKeyframe sampleOffset="59331" select="false" type="linear" value="0.6211538"/>
                <parameterKeyframe sampleOffset="496489" select="false" type="linear" value="0.7960737"/>
              </parameterKeyframes>
            </parameter>
            <parameter index="1" name="static gain" parameterValue="1"/>
          </component>
          <component componentGuid="d0a51a99-5616-432c-af2f-437d255358a4" componentID="Audition.Mute" id="clipMute" name="Mute" powered="true">
            <parameter index="0" parameterValue="0"/>
            <parameter index="1" name="mute" parameterValue="0"/>
          </component>
          <component componentGuid="71642677-af77-4dda-ae4d-060051005934" componentID="Audition.StereoPanner" id="clipPan" name="StereoPanner" powered="true">
            <parameter index="0" name="Pan" parameterValue="0"/>
          </component>
          <fadeIn crossFadeLinkType="linkedAsymmetric" endPoint="52911" shape="7" startPoint="0" type="log"/>
          <fadeOut crossFadeLinkType="linkedAsymmetric" endPoint="326707" shape="18" startPoint="323685" type="log"/>
          <editParameter parameterIndex="0" slotIndex="4294967281"/>
          <editParameter parameterIndex="0" slotIndex="4294967280"/>
          <channelMap>
            <channel index="0" sourceIndex="0"/>
          </channelMap>
        </audioClip>
        <audioClip clipAutoCrossfade="true" crossFadeHeadClipID="64" crossFadeTailClipID="-1" endPoint="11170236" fileID="27" hue="-1" id="65" lockedInTime="false" looped="false" name="James_050" offline="false" select="false" sourceInPoint="844227" sourceOutPoint="994896" startPoint="11019567" zOrder="2145913055">
          <component componentGuid="b7871582-6816-4e24-8ae5-9dd9615b69be" componentID="Audition.Fader" id="clipGain" name="volume" powered="true">
            <parameter index="0" name="volume" parameterValue="1.765628"/>
            <parameter index="1" name="static gain" parameterValue="1"/>
          </component>
          <component componentGuid="527e6b89-daa1-4f5b-98e9-f0574b61573d" componentID="Audition.Mute" id="clipMute" name="Mute" powered="true">
            <parameter index="0" parameterValue="0"/>
            <parameter index="1" name="mute" parameterValue="0"/>
          </component>
          <component componentGuid="0c248823-4e6c-4621-b0b1-2d256faabedc" componentID="Audition.StereoPanner" id="clipPan" name="StereoPanner" powered="true">
            <parameter index="0" name="Pan" parameterValue="0"/>
          </component>
          <fadeIn crossFadeLinkType="linkedAsymmetric" endPoint="3022" shape="19" startPoint="0" type="log"/>
          <fadeOut crossFadeLinkType="linkedAsymmetric" endPoint="150669" shape="19" startPoint="118922" type="log"/>
          <editParameter parameterIndex="0" slotIndex="4294967281"/>
          <editParameter parameterIndex="0" slotIndex="4294967280"/>
          <channelMap>
            <channel index="0" sourceIndex="0"/>
          </channelMap>
        </audioClip>
        <audioClip clipAutoCrossfade="true" crossFadeHeadClipID="-1" crossFadeTailClipID="-1" endPoint="11593274" fileID="27" hue="-1" id="66" lockedInTime="false" looped="false" name="James_050" offline="false" select="false" sourceInPoint="994896" sourceOutPoint="1414912" startPoint="11173258" zOrder="2145913066">
          <component componentGuid="34e25efd-b669-42b0-9228-d9cbadf23ca2" componentID="Audition.Fader" id="clipGain" name="volume" powered="true">
            <parameter index="0" name="volume" parameterValue="2.2602062"/>
            <parameter index="1" name="static gain" parameterValue="1"/>
          </component>
          <component componentGuid="7d79ad6e-7538-4a19-a4a0-5db7b1911c5b" componentID="Audition.Mute" id="clipMute" name="Mute" powered="true">
            <parameter index="0" parameterValue="0"/>
            <parameter index="1" name="mute" parameterValue="0"/>
          </component>
          <component componentGuid="a5684829-8336-4f26-a2f3-5361634d32d6" componentID="Audition.StereoPanner" id="clipPan" name="StereoPanner" powered="true">
            <parameter index="0" name="Pan" parameterValue="0"/>
          </component>
          <fadeIn crossFadeLinkType="linkedAsymmetric" endPoint="46865" shape="19" startPoint="0" type="log"/>
          <fadeOut crossFadeLinkType="linkedAsymmetric" endPoint="420016" shape="19" startPoint="385246" type="log"/>
          <editParameter parameterIndex="0" slotIndex="4294967281"/>
          <editParameter parameterIndex="0" slotIndex="4294967280"/>
          <channelMap>
            <channel index="0" sourceIndex="0"/>
          </channelMap>
        </audioClip>
        <audioClip clipAutoCrossfade="true" crossFadeHeadClipID="-1" crossFadeTailClipID="-1" endPoint="12051769" fileID="28" hue="-1" id="67" lockedInTime="false" looped="false" name="James_051" offline="false" select="false" sourceInPoint="0" sourceOutPoint="458495" startPoint="11593274" zOrder="2145913076">
          <component componentGuid="4b9c7e1d-4db9-4636-a39d-4f7a3ff6a339" componentID="Audition.Fader" id="clipGain" name="volume" powered="true">
            <parameter index="0" name="volume" parameterValue="1.899564"/>
            <parameter index="1" name="static gain" parameterValue="1"/>
          </component>
          <component componentGuid="bf787eff-af42-414a-ad70-50960750bbce" componentID="Audition.Mute" id="clipMute" name="Mute" powered="true">
            <parameter index="0" parameterValue="0"/>
            <parameter index="1" name="mute" parameterValue="0"/>
          </component>
          <component componentGuid="1a5000fc-2eff-4275-87c8-3d7938b718f8" componentID="Audition.StereoPanner" id="clipPan" name="StereoPanner" powered="true">
            <parameter index="0" name="Pan" parameterValue="0"/>
          </component>
          <fadeIn crossFadeLinkType="linkedAsymmetric" endPoint="58959" shape="19" startPoint="0" type="log"/>
          <fadeOut crossFadeLinkType="linkedAsymmetric" endPoint="458495" shape="19" startPoint="393489" type="log"/>
          <editParameter parameterIndex="0" slotIndex="4294967281"/>
          <editParameter parameterIndex="0" slotIndex="4294967280"/>
          <channelMap>
            <channel index="0" sourceIndex="0"/>
          </channelMap>
        </audioClip>
        <audioClip clipAutoCrossfade="true" crossFadeHeadClipID="-1" crossFadeTailClipID="-1" endPoint="12242093" fileID="16" hue="-1" id="68" lockedInTime="false" looped="false" name="Track 3_013" offline="false" select="false" sourceInPoint="142590" sourceOutPoint="175558" startPoint="12209125" zOrder="2145914430">
          <component componentGuid="f7ec575a-48ea-4a17-bdb2-681358bcc816" componentID="Audition.Fader" id="clipGain" name="volume" powered="true">
            <parameter index="0" name="volume" parameterValue="1"/>
            <parameter index="1" name="static gain" parameterValue="1"/>
          </component>
          <component componentGuid="7d6a3166-ca61-48d7-ada1-41ae64f7976e" componentID="Audition.Mute" id="clipMute" name="Mute" powered="true">
            <parameter index="0" parameterValue="0"/>
            <parameter index="1" name="mute" parameterValue="0"/>
          </component>
          <component componentGuid="b21ce884-9a75-4278-b86c-751191011244" componentID="Audition.StereoPanner" id="clipPan" name="StereoPanner" powered="true">
            <parameter index="0" name="Pan" parameterValue="0"/>
          </component>
          <fadeIn crossFadeLinkType="linkedAsymmetric" endPoint="7431" shape="19" startPoint="0" type="log"/>
          <fadeOut crossFadeLinkType="linkedAsymmetric" endPoint="32968" shape="19" startPoint="32968" type="log"/>
          <clipStretch adaptiveWindowSize="37" pitchAdjustment="0" preserveFormants="true" stretchMode="realtime" stretchQuality="high" stretchRatio="0.8185076705651025" stretchType="solo" transientSensitivity="40"/>
          <editParameter parameterIndex="0" slotIndex="4294967281"/>
          <editParameter parameterIndex="0" slotIndex="4294967280"/>
          <channelMap>
            <channel index="0" sourceIndex="0"/>
          </channelMap>
        </audioClip>
        <audioClip clipAutoCrossfade="true" crossFadeHeadClipID="-1" crossFadeTailClipID="-1" endPoint="12291321" fileID="29" hue="-1" id="69" lockedInTime="false" looped="false" name="James_058" offline="false" select="false" sourceInPoint="48455" sourceOutPoint="97683" startPoint="12242093" zOrder="2145914428">
          <component componentGuid="d39cf8e5-517b-4561-9498-4290aff5ba91" componentID="Audition.Fader" id="clipGain" name="volume" powered="true">
            <parameter index="0" name="volume" parameterValue="1.8709555">
              <parameterKeyframes enableSplines="false">
                <parameterKeyframe sampleOffset="46517" select="false" type="linear" value="0.8089741"/>
                <parameterKeyframe sampleOffset="46518" select="true" type="linear" value="0.65"/>
                <parameterKeyframe sampleOffset="66326" select="false" type="linear" value="0.8479597"/>
              </parameterKeyframes>
            </parameter>
            <parameter index="1" name="static gain" parameterValue="1"/>
          </component>
          <component componentGuid="0c0eeab2-6e21-4d92-8aa9-1de6b58e0270" componentID="Audition.Mute" id="clipMute" name="Mute" powered="true">
            <parameter index="0" parameterValue="0"/>
            <parameter index="1" name="mute" parameterValue="0"/>
          </component>
          <component componentGuid="e056b960-e025-4172-8c5a-112d14d91e9f" componentID="Audition.StereoPanner" id="clipPan" name="StereoPanner" powered="true">
            <parameter index="0" name="Pan" parameterValue="0"/>
          </component>
          <fadeIn crossFadeLinkType="linkedAsymmetric" endPoint="0" shape="0" startPoint="0" type="cosine"/>
          <fadeOut crossFadeLinkType="linkedAsymmetric" endPoint="49228" shape="18" startPoint="49228" type="log"/>
          <take sourceInPoint="0"/>
          <editParameter parameterIndex="0" slotIndex="4294967281"/>
          <editParameter parameterIndex="0" slotIndex="4294967280"/>
          <channelMap>
            <channel index="0" sourceIndex="0"/>
          </channelMap>
        </audioClip>
        <audioClip clipAutoCrossfade="true" crossFadeHeadClipID="-1" crossFadeTailClipID="-1" endPoint="12348000" fileID="29" hue="-1" id="70" lockedInTime="false" looped="false" name="James_058" offline="false" select="false" sourceInPoint="110948" sourceOutPoint="167627" startPoint="12291321" zOrder="2145914432">
          <component componentGuid="52049204-c930-4b78-9bed-9539b95d8ce2" componentID="Audition.Fader" id="clipGain" name="volume" powered="true">
            <parameter index="0" name="volume" parameterValue="0.3754936">
              <parameterKeyframes enableSplines="false">
                <parameterKeyframe sampleOffset="51646" select="false" type="linear" value="0.4192308"/>
                <parameterKeyframe sampleOffset="58920" select="false" type="linear" value="0.65"/>
                <parameterKeyframe sampleOffset="108012" select="false" type="linear" value="0.8551279"/>
                <parameterKeyframe sampleOffset="109898" select="false" type="linear" value="0.9064098"/>
                <parameterKeyframe sampleOffset="109899" select="false" type="linear" value="0.8551269"/>
                <parameterKeyframe sampleOffset="118466" select="true" type="linear" value="0.8150901"/>
              </parameterKeyframes>
            </parameter>
            <parameter index="1" name="static gain" parameterValue="1"/>
          </component>
          <component componentGuid="bfe0f264-a773-43d9-85bf-951df2bc9e80" componentID="Audition.Mute" id="clipMute" name="Mute" powered="true">
            <parameter index="0" parameterValue="0"/>
            <parameter index="1" name="mute" parameterValue="0"/>
          </component>
          <component componentGuid="5a8d68ec-9d35-4037-98f7-6135a79a066d" componentID="Audition.StereoPanner" id="clipPan" name="StereoPanner" powered="true">
            <parameter index="0" name="Pan" parameterValue="0"/>
          </component>
          <fadeIn crossFadeLinkType="linkedAsymmetric" endPoint="0" shape="0" startPoint="0" type="cosine"/>
          <fadeOut crossFadeLinkType="linkedAsymmetric" endPoint="56679" shape="18" startPoint="56679" type="log"/>
          <editParameter parameterIndex="0" slotIndex="4294967281"/>
          <editParameter parameterIndex="0" slotIndex="4294967280"/>
          <channelMap>
            <channel index="0" sourceIndex="0"/>
          </channelMap>
        </audioClip>
        <audioClip clipAutoCrossfade="true" crossFadeHeadClipID="-1" crossFadeTailClipID="72" endPoint="12387952" fileID="30" hue="-1" id="71" lockedInTime="false" looped="false" name="James_055" offline="false" select="false" sourceInPoint="226646" sourceOutPoint="266598" startPoint="12348000" zOrder="2145914434">
          <component componentGuid="542efe90-6030-4e2e-bed4-059a5655671a" componentID="Audition.Fader" id="clipGain" name="volume" powered="true">
            <parameter index="0" name="volume" parameterValue="2.018178"/>
            <parameter index="1" name="static gain" parameterValue="1"/>
          </component>
          <component componentGuid="2c74dfd6-29a2-4864-995e-4809377aaca4" componentID="Audition.Mute" id="clipMute" name="Mute" powered="true">
            <parameter index="0" parameterValue="0"/>
            <parameter index="1" name="mute" parameterValue="0"/>
          </component>
          <component componentGuid="2f796c5a-d962-47fb-a564-ca18bc97b1ff" componentID="Audition.StereoPanner" id="clipPan" name="StereoPanner" powered="true">
            <parameter index="0" name="Pan" parameterValue="0"/>
          </component>
          <fadeIn crossFadeLinkType="linkedAsymmetric" endPoint="0" shape="0" startPoint="0" type="cosine"/>
          <fadeOut crossFadeLinkType="linkedAsymmetric" endPoint="39952" shape="19" startPoint="33817" type="log"/>
          <take sourceInPoint="0"/>
          <editParameter parameterIndex="0" slotIndex="4294967281"/>
          <editParameter parameterIndex="0" slotIndex="4294967280"/>
          <channelMap>
            <channel index="0" sourceIndex="0"/>
          </channelMap>
        </audioClip>
        <audioClip clipAutoCrossfade="true" crossFadeHeadClipID="71" crossFadeTailClipID="-1" endPoint="12565445" fileID="30" hue="-1" id="72" lockedInTime="false" looped="false" name="James_055" offline="false" select="false" sourceInPoint="276660" sourceOutPoint="460288" startPoint="12381817" zOrder="2145914437">
          <component componentGuid="38c74035-bb3f-478d-a1a3-c57fd27fd803" componentID="Audition.Fader" id="clipGain" name="volume" powered="true">
            <parameter index="0" name="volume" parameterValue="1.9891465">
              <parameterKeyframes enableSplines="false">
                <parameterKeyframe sampleOffset="309155" select="true" type="linear" value="0.822258"/>
              </parameterKeyframes>
            </parameter>
            <parameter index="1" name="static gain" parameterValue="1"/>
          </component>
          <component componentGuid="2a4f835f-d14d-41d2-b8bc-0771b8f54fe5" componentID="Audition.Mute" id="clipMute" name="Mute" powered="true">
            <parameter index="0" parameterValue="0"/>
            <parameter index="1" name="mute" parameterValue="0"/>
          </component>
          <component componentGuid="91a65bfd-f9b4-4efa-aa5a-9a1df54b5b1c" componentID="Audition.StereoPanner" id="clipPan" name="StereoPanner" powered="true">
            <parameter index="0" name="Pan" parameterValue="0"/>
          </component>
          <fadeIn crossFadeLinkType="linkedAsymmetric" endPoint="6135" shape="18" startPoint="0" type="log"/>
          <fadeOut crossFadeLinkType="linkedAsymmetric" endPoint="183628" shape="18" startPoint="183628" type="log"/>
          <editParameter parameterIndex="0" slotIndex="4294967281"/>
          <editParameter parameterIndex="0" slotIndex="4294967280"/>
          <channelMap>
            <channel index="0" sourceIndex="0"/>
          </channelMap>
        </audioClip>
        <audioClip clipAutoCrossfade="true" crossFadeHeadClipID="-1" crossFadeTailClipID="-1" endPoint="12681224" fileID="31" hue="-1" id="73" lockedInTime="false" looped="false" name="James_060" offline="false" select="false" sourceInPoint="396324" sourceOutPoint="512103" startPoint="12565445" zOrder="2145914440">
          <component componentGuid="cfe782b8-a316-4cce-8c25-9f75c00a0598" componentID="Audition.Fader" id="clipGain" name="volume" powered="true">
            <parameter index="0" name="volume" parameterValue="1.9197061"/>
            <parameter index="1" name="static gain" parameterValue="1"/>
          </component>
          <component componentGuid="b9573838-aaee-45e6-ad50-c30c8996065e" componentID="Audition.Mute" id="clipMute" name="Mute" powered="true">
            <parameter index="0" parameterValue="0"/>
            <parameter index="1" name="mute" parameterValue="0"/>
          </component>
          <component componentGuid="d944a64e-d1e7-41b1-8f0a-cf1e4fbf8a72" componentID="Audition.StereoPanner" id="clipPan" name="StereoPanner" powered="true">
            <parameter index="0" name="Pan" parameterValue="0"/>
          </component>
          <fadeIn crossFadeLinkType="linkedAsymmetric" endPoint="0" shape="19" startPoint="0" type="log"/>
          <fadeOut crossFadeLinkType="linkedAsymmetric" endPoint="115779" shape="-10" startPoint="107338" type="log"/>
          <editParameter parameterIndex="0" slotIndex="4294967281"/>
          <editParameter parameterIndex="0" slotIndex="4294967280"/>
          <channelMap>
            <channel index="0" sourceIndex="0"/>
          </channelMap>
        </audioClip>
        <audioClip clipAutoCrossfade="true" crossFadeHeadClipID="-1" crossFadeTailClipID="-1" endPoint="12821968" fileID="16" hue="-1" id="74" lockedInTime="false" looped="false" name="Track 3_013" offline="false" select="false" sourceInPoint="142590" sourceOutPoint="175558" startPoint="12789000" zOrder="2145914442">
          <component componentGuid="58e83525-2804-4137-82a5-16fbbff7b60b" componentID="Audition.Fader" id="clipGain" name="volume" powered="true">
            <parameter index="0" name="volume" parameterValue="1"/>
            <parameter index="1" name="static gain" parameterValue="1"/>
          </component>
          <component componentGuid="1ad70741-d4e0-46dd-8659-71e2570607f8" componentID="Audition.Mute" id="clipMute" name="Mute" powered="true">
            <parameter index="0" parameterValue="0"/>
            <parameter index="1" name="mute" parameterValue="0"/>
          </component>
          <component componentGuid="8c7b98b3-c46f-4c3c-9a43-edc490153f98" componentID="Audition.StereoPanner" id="clipPan" name="StereoPanner" powered="true">
            <parameter index="0" name="Pan" parameterValue="0"/>
          </component>
          <fadeIn crossFadeLinkType="linkedAsymmetric" endPoint="7431" shape="19" startPoint="0" type="log"/>
          <fadeOut crossFadeLinkType="linkedAsymmetric" endPoint="32968" shape="19" startPoint="32968" type="log"/>
          <clipStretch adaptiveWindowSize="37" pitchAdjustment="0" preserveFormants="true" stretchMode="realtime" stretchQuality="high" stretchRatio="0.8185076705651025" stretchType="solo" transientSensitivity="40"/>
          <editParameter parameterIndex="0" slotIndex="4294967281"/>
          <editParameter parameterIndex="0" slotIndex="4294967280"/>
          <channelMap>
            <channel index="0" sourceIndex="0"/>
          </channelMap>
        </audioClip>
        <audioClip clipAutoCrossfade="true" crossFadeHeadClipID="-1" crossFadeTailClipID="-1" endPoint="13025530" fileID="29" hue="-1" id="75" lockedInTime="false" looped="false" name="James_058" offline="false" select="false" sourceInPoint="514062" sourceOutPoint="717624" startPoint="12821968" zOrder="2145914446">
          <component componentGuid="57c656d5-2ccc-4658-83d4-20f21b4bfd21" componentID="Audition.Fader" id="clipGain" name="volume" powered="true">
            <parameter index="0" name="volume" parameterValue="0.4252908">
              <parameterKeyframes enableSplines="false">
                <parameterKeyframe sampleOffset="506848" select="false" type="linear" value="0.4432692"/>
                <parameterKeyframe sampleOffset="512917" select="false" type="linear" value="0.65"/>
                <parameterKeyframe sampleOffset="532655" select="true" type="linear" value="0.7834568"/>
              </parameterKeyframes>
            </parameter>
            <parameter index="1" name="static gain" parameterValue="1"/>
          </component>
          <component componentGuid="f2e79be2-0fbc-417d-8061-6629e0ae0420" componentID="Audition.Mute" id="clipMute" name="Mute" powered="true">
            <parameter index="0" parameterValue="0"/>
            <parameter index="1" name="mute" parameterValue="0"/>
          </component>
          <component componentGuid="deb731d2-e802-41b9-92e9-a33d6b706e4b" componentID="Audition.StereoPanner" id="clipPan" name="StereoPanner" powered="true">
            <parameter index="0" name="Pan" parameterValue="0"/>
          </component>
          <fadeIn crossFadeLinkType="linkedAsymmetric" endPoint="0" shape="0" startPoint="0" type="cosine"/>
          <fadeOut crossFadeLinkType="linkedAsymmetric" endPoint="203562" shape="10" startPoint="199945" type="log"/>
          <editParameter parameterIndex="0" slotIndex="4294967281"/>
          <editParameter parameterIndex="0" slotIndex="4294967280"/>
          <channelMap>
            <channel index="0" sourceIndex="0"/>
          </channelMap>
        </audioClip>
        <audioClip clipAutoCrossfade="true" crossFadeHeadClipID="-1" crossFadeTailClipID="-1" endPoint="13230000" fileID="16" hue="-1" id="76" lockedInTime="false" looped="false" name="Track 3_013" offline="false" select="false" sourceInPoint="142590" sourceOutPoint="175558" startPoint="13197032" zOrder="2145914449">
          <component componentGuid="d9f0ce39-1f95-4f26-b9d9-c2178caa40c5" componentID="Audition.Fader" id="clipGain" name="volume" powered="true">
            <parameter index="0" name="volume" parameterValue="1"/>
            <parameter index="1" name="static gain" parameterValue="1"/>
          </component>
          <component componentGuid="b034ebc6-ba6a-4e5f-b7fe-a66a7630c801" componentID="Audition.Mute" id="clipMute" name="Mute" powered="true">
            <parameter index="0" parameterValue="0"/>
            <parameter index="1" name="mute" parameterValue="0"/>
          </component>
          <component componentGuid="50eb62c1-1fb5-40b2-a116-eae88160ffb1" componentID="Audition.StereoPanner" id="clipPan" name="StereoPanner" powered="true">
            <parameter index="0" name="Pan" parameterValue="0"/>
          </component>
          <fadeIn crossFadeLinkType="linkedAsymmetric" endPoint="7431" shape="19" startPoint="0" type="log"/>
          <fadeOut crossFadeLinkType="linkedAsymmetric" endPoint="32968" shape="19" startPoint="32968" type="log"/>
          <clipStretch adaptiveWindowSize="37" pitchAdjustment="0" preserveFormants="true" stretchMode="realtime" stretchQuality="high" stretchRatio="0.8185076705651025" stretchType="solo" transientSensitivity="40"/>
          <editParameter parameterIndex="0" slotIndex="4294967281"/>
          <editParameter parameterIndex="0" slotIndex="4294967280"/>
          <channelMap>
            <channel index="0" sourceIndex="0"/>
          </channelMap>
        </audioClip>
        <audioClip clipAutoCrossfade="true" crossFadeHeadClipID="-1" crossFadeTailClipID="-1" endPoint="13539898" fileID="29" hue="-1" id="77" lockedInTime="false" looped="false" name="James_058" offline="false" select="false" sourceInPoint="799106" sourceOutPoint="1109004" startPoint="13230000" zOrder="2145914481">
          <component componentGuid="cf4069ee-4841-4adf-a970-67d8b26b635d" componentID="Audition.Fader" id="clipGain" name="volume" powered="true">
            <parameter index="0" name="volume" parameterValue="1">
              <parameterKeyframes enableSplines="false">
                <parameterKeyframe sampleOffset="798956" select="false" type="linear" value="0.65"/>
                <parameterKeyframe sampleOffset="812387" select="true" type="linear" value="0.7478684"/>
              </parameterKeyframes>
            </parameter>
            <parameter index="1" name="static gain" parameterValue="1"/>
          </component>
          <component componentGuid="ecb93d82-65ea-4c0d-bff8-99cd0dc692c6" componentID="Audition.Mute" id="clipMute" name="Mute" powered="true">
            <parameter index="0" parameterValue="0"/>
            <parameter index="1" name="mute" parameterValue="0"/>
          </component>
          <component componentGuid="7008b621-21b1-43eb-bbbd-76351a265e35" componentID="Audition.StereoPanner" id="clipPan" name="StereoPanner" powered="true">
            <parameter index="0" name="Pan" parameterValue="0"/>
          </component>
          <fadeIn crossFadeLinkType="linkedAsymmetric" endPoint="0" shape="0" startPoint="0" type="cosine"/>
          <fadeOut crossFadeLinkType="linkedAsymmetric" endPoint="309898" shape="0" startPoint="309898" type="cosine"/>
          <editParameter parameterIndex="0" slotIndex="4294967281"/>
          <editParameter parameterIndex="0" slotIndex="4294967280"/>
          <channelMap>
            <channel index="0" sourceIndex="0"/>
          </channelMap>
        </audioClip>
        <audioClip clipAutoCrossfade="true" crossFadeHeadClipID="-1" crossFadeTailClipID="-1" endPoint="13624502" fileID="29" hue="-1" id="78" lockedInTime="false" looped="false" name="James_058" offline="false" select="false" sourceInPoint="1126258" sourceOutPoint="1210862" startPoint="13539898" zOrder="2145914473">
          <component componentGuid="93872afe-5e65-46bc-bce1-91e8cb37df72" componentID="Audition.Fader" id="clipGain" name="volume" powered="true">
            <parameter index="0" name="volume" parameterValue="0.3565296">
              <parameterKeyframes enableSplines="false">
                <parameterKeyframe sampleOffset="803853" select="false" type="linear" value="0.4096154"/>
                <parameterKeyframe sampleOffset="815028" select="false" type="linear" value="0.65"/>
                <parameterKeyframe sampleOffset="1137219" select="true" type="linear" value="0.7567657"/>
              </parameterKeyframes>
            </parameter>
            <parameter index="1" name="static gain" parameterValue="1"/>
          </component>
          <component componentGuid="c3cac6fb-4e10-4576-958f-a219840b9336" componentID="Audition.Mute" id="clipMute" name="Mute" powered="true">
            <parameter index="0" parameterValue="0"/>
            <parameter index="1" name="mute" parameterValue="0"/>
          </component>
          <component componentGuid="6f6b389e-e9ae-4d62-afcd-e9a194f63f38" componentID="Audition.StereoPanner" id="clipPan" name="StereoPanner" powered="true">
            <parameter index="0" name="Pan" parameterValue="0"/>
          </component>
          <fadeIn crossFadeLinkType="linkedAsymmetric" endPoint="0" shape="0" startPoint="0" type="cosine"/>
          <fadeOut crossFadeLinkType="linkedAsymmetric" endPoint="84604" shape="0" startPoint="84604" type="cosine"/>
          <editParameter parameterIndex="0" slotIndex="4294967281"/>
          <editParameter parameterIndex="0" slotIndex="4294967280"/>
          <channelMap>
            <channel index="0" sourceIndex="0"/>
          </channelMap>
        </audioClip>
        <audioClip clipAutoCrossfade="true" crossFadeHeadClipID="-1" crossFadeTailClipID="-1" endPoint="13894356" fileID="29" hue="-1" id="79" lockedInTime="false" looped="false" name="James_058" offline="false" select="false" sourceInPoint="1221715" sourceOutPoint="1491569" startPoint="13624502" zOrder="2145914495">
          <component componentGuid="40a4e126-cf00-49ef-acb0-4d08f42ab40d" componentID="Audition.Fader" id="clipGain" name="volume" powered="true">
            <parameter index="0" name="volume" parameterValue="0.3565296">
              <parameterKeyframes enableSplines="false">
                <parameterKeyframe sampleOffset="803853" select="false" type="linear" value="0.4096154"/>
                <parameterKeyframe sampleOffset="815028" select="false" type="linear" value="0.65"/>
                <parameterKeyframe sampleOffset="1240654" select="false" type="linear" value="0.7523171"/>
                <parameterKeyframe sampleOffset="1368709" select="false" type="linear" value="0.7523171"/>
                <parameterKeyframe sampleOffset="1395824" select="false" type="linear" value="0.6055143"/>
                <parameterKeyframe sampleOffset="1424014" select="true" type="linear" value="0.7523171"/>
              </parameterKeyframes>
            </parameter>
            <parameter index="1" name="static gain" parameterValue="1"/>
          </component>
          <component componentGuid="52361923-8753-46e9-b8c0-a7728c753af1" componentID="Audition.Mute" id="clipMute" name="Mute" powered="true">
            <parameter index="0" parameterValue="0"/>
            <parameter index="1" name="mute" parameterValue="0"/>
          </component>
          <component componentGuid="32d59355-cc8c-435d-b571-478a49cc8b94" componentID="Audition.StereoPanner" id="clipPan" name="StereoPanner" powered="true">
            <parameter index="0" name="Pan" parameterValue="0"/>
          </component>
          <fadeIn crossFadeLinkType="linkedAsymmetric" endPoint="0" shape="0" startPoint="0" type="cosine"/>
          <fadeOut crossFadeLinkType="linkedAsymmetric" endPoint="269854" shape="11" startPoint="250608" type="log"/>
          <editParameter parameterIndex="0" slotIndex="4294967281"/>
          <editParameter parameterIndex="0" slotIndex="4294967280"/>
          <channelMap>
            <channel index="0" sourceIndex="0"/>
          </channelMap>
        </audioClip>
        <audioClip clipAutoCrossfade="true" crossFadeHeadClipID="-1" crossFadeTailClipID="-1" endPoint="14180601" fileID="32" hue="-1" id="80" lockedInTime="false" looped="false" name="James_062" offline="false" select="false" sourceInPoint="26458" sourceOutPoint="201254" startPoint="14005805" zOrder="2145914478">
          <component componentGuid="84be56eb-36a0-4be7-abec-fe4583272586" componentID="Audition.Fader" id="clipGain" name="volume" powered="true">
            <parameter index="0" name="volume" parameterValue="1.4141887"/>
            <parameter index="1" name="static gain" parameterValue="1"/>
          </component>
          <component componentGuid="5baf50c0-846f-45e1-b6db-f70ecc0bbefc" componentID="Audition.Mute" id="clipMute" name="Mute" powered="true">
            <parameter index="0" parameterValue="0"/>
            <parameter index="1" name="mute" parameterValue="0"/>
          </component>
          <component componentGuid="4dfd3cc9-21a6-4ef1-ac52-b2adefa617ff" componentID="Audition.StereoPanner" id="clipPan" name="StereoPanner" powered="true">
            <parameter index="0" name="Pan" parameterValue="0"/>
          </component>
          <fadeIn crossFadeLinkType="linkedAsymmetric" endPoint="17642" shape="14" startPoint="0" type="log"/>
          <fadeOut crossFadeLinkType="linkedAsymmetric" endPoint="174796" shape="0" startPoint="166777" type="log"/>
          <take sourceInPoint="0"/>
          <editParameter parameterIndex="0" slotIndex="4294967281"/>
          <editParameter parameterIndex="0" slotIndex="4294967280"/>
          <channelMap>
            <channel index="0" sourceIndex="0"/>
          </channelMap>
        </audioClip>
        <audioClip clipAutoCrossfade="true" crossFadeHeadClipID="-1" crossFadeTailClipID="-1" endPoint="14365468" fileID="16" hue="-1" id="81" lockedInTime="false" looped="false" name="Track 3_013" offline="false" select="false" sourceInPoint="142590" sourceOutPoint="175558" startPoint="14332500" zOrder="2145914462">
          <component componentGuid="def4a9d2-f507-4d32-813f-7b8ff61db7fa" componentID="Audition.Fader" id="clipGain" name="volume" powered="true">
            <parameter index="0" name="volume" parameterValue="1"/>
            <parameter index="1" name="static gain" parameterValue="1"/>
          </component>
          <component componentGuid="df18b0bb-cbe4-4f29-b545-40c14f265e10" componentID="Audition.Mute" id="clipMute" name="Mute" powered="true">
            <parameter index="0" parameterValue="0"/>
            <parameter index="1" name="mute" parameterValue="0"/>
          </component>
          <component componentGuid="37e97ba2-5406-47a7-a009-dbc11f33a059" componentID="Audition.StereoPanner" id="clipPan" name="StereoPanner" powered="true">
            <parameter index="0" name="Pan" parameterValue="0"/>
          </component>
          <fadeIn crossFadeLinkType="linkedAsymmetric" endPoint="7431" shape="19" startPoint="0" type="log"/>
          <fadeOut crossFadeLinkType="linkedAsymmetric" endPoint="32968" shape="19" startPoint="32968" type="log"/>
          <clipStretch adaptiveWindowSize="37" pitchAdjustment="0" preserveFormants="true" stretchMode="realtime" stretchQuality="high" stretchRatio="0.8185076705651025" stretchType="solo" transientSensitivity="40"/>
          <editParameter parameterIndex="0" slotIndex="4294967281"/>
          <editParameter parameterIndex="0" slotIndex="4294967280"/>
          <channelMap>
            <channel index="0" sourceIndex="0"/>
          </channelMap>
        </audioClip>
        <audioClip clipAutoCrossfade="true" crossFadeHeadClipID="-1" crossFadeTailClipID="-1" endPoint="14470249" fileID="32" hue="-1" id="82" lockedInTime="false" looped="false" name="James_062" offline="false" select="false" sourceInPoint="363589" sourceOutPoint="468370" startPoint="14365468" zOrder="2145914465">
          <component componentGuid="afb1c94d-d519-4a32-ab17-751c5a9c875b" componentID="Audition.Fader" id="clipGain" name="volume" powered="true">
            <parameter index="0" name="volume" parameterValue="1">
              <parameterKeyframes enableSplines="false">
                <parameterKeyframe sampleOffset="363821" select="false" type="linear" value="0.65"/>
                <parameterKeyframe sampleOffset="374900" select="true" type="linear" value="0.7612141"/>
              </parameterKeyframes>
            </parameter>
            <parameter index="1" name="static gain" parameterValue="1"/>
          </component>
          <component componentGuid="f9f2985b-fc73-48c3-93ab-4f5d38a497a8" componentID="Audition.Mute" id="clipMute" name="Mute" powered="true">
            <parameter index="0" parameterValue="0"/>
            <parameter index="1" name="mute" parameterValue="0"/>
          </component>
          <component componentGuid="2e8e565c-f161-4c1f-9754-3f0305edaa79" componentID="Audition.StereoPanner" id="clipPan" name="StereoPanner" powered="true">
            <parameter index="0" name="Pan" parameterValue="0"/>
          </component>
          <fadeIn crossFadeLinkType="linkedAsymmetric" endPoint="0" shape="18" startPoint="0" type="log"/>
          <fadeOut crossFadeLinkType="linkedAsymmetric" endPoint="104781" shape="0" startPoint="104781" type="cosine"/>
          <editParameter parameterIndex="0" slotIndex="4294967281"/>
          <editParameter parameterIndex="0" slotIndex="4294967280"/>
          <channelMap>
            <channel index="0" sourceIndex="0"/>
          </channelMap>
        </audioClip>
        <audioClip clipAutoCrossfade="true" crossFadeHeadClipID="-1" crossFadeTailClipID="-1" endPoint="14697414" fileID="33" hue="-1" id="83" lockedInTime="false" looped="false" name="James_063" offline="false" select="false" sourceInPoint="489723" sourceOutPoint="716888" startPoint="14470249" zOrder="2145914467">
          <component componentGuid="df56d936-fdff-4625-8c81-4fa04fd196ca" componentID="Audition.Fader" id="clipGain" name="volume" powered="true">
            <parameter index="0" name="volume" parameterValue="1.5490597"/>
            <parameter index="1" name="static gain" parameterValue="1"/>
          </component>
          <component componentGuid="60f34a17-50c7-4caf-b993-7edda0601f37" componentID="Audition.Mute" id="clipMute" name="Mute" powered="true">
            <parameter index="0" parameterValue="0"/>
            <parameter index="1" name="mute" parameterValue="0"/>
          </component>
          <component componentGuid="399d20c3-60f9-4d17-b624-5c9e372cc0a1" componentID="Audition.StereoPanner" id="clipPan" name="StereoPanner" powered="true">
            <parameter index="0" name="Pan" parameterValue="0"/>
          </component>
          <fadeIn crossFadeLinkType="linkedAsymmetric" endPoint="0" shape="0" startPoint="0" type="cosine"/>
          <fadeOut crossFadeLinkType="linkedAsymmetric" endPoint="227165" shape="0" startPoint="227165" type="cosine"/>
          <editParameter parameterIndex="0" slotIndex="4294967281"/>
          <editParameter parameterIndex="0" slotIndex="4294967280"/>
          <channelMap>
            <channel index="0" sourceIndex="0"/>
          </channelMap>
        </audioClip>
        <audioClip clipAutoCrossfade="true" crossFadeHeadClipID="-1" crossFadeTailClipID="-1" endPoint="14798411" fileID="34" hue="-1" id="84" lockedInTime="false" looped="false" name="James_065" offline="false" select="false" sourceInPoint="330924" sourceOutPoint="431921" startPoint="14697414" zOrder="2145914480">
          <component componentGuid="f651429e-c40d-4135-89b5-ec870796c60b" componentID="Audition.Fader" id="clipGain" name="volume" powered="true">
            <parameter index="0" name="volume" parameterValue="1.578257"/>
            <parameter index="1" name="static gain" parameterValue="1"/>
          </component>
          <component componentGuid="08a7eb93-8f6a-44b8-a21e-5d9e45d69c40" componentID="Audition.Mute" id="clipMute" name="Mute" powered="true">
            <parameter index="0" parameterValue="0"/>
            <parameter index="1" name="mute" parameterValue="0"/>
          </component>
          <component componentGuid="37a40347-7756-4b0e-ab74-7590ecedd8e1" componentID="Audition.StereoPanner" id="clipPan" name="StereoPanner" powered="true">
            <parameter index="0" name="Pan" parameterValue="0"/>
          </component>
          <fadeIn crossFadeLinkType="linkedAsymmetric" endPoint="0" shape="0" startPoint="0" type="cosine"/>
          <fadeOut crossFadeLinkType="linkedAsymmetric" endPoint="100997" shape="8" startPoint="78543" type="log"/>
          <editParameter parameterIndex="0" slotIndex="4294967281"/>
          <editParameter parameterIndex="0" slotIndex="4294967280"/>
          <channelMap>
            <channel index="0" sourceIndex="0"/>
          </channelMap>
        </audioClip>
      </audioTrack>
      <audioTrack automationLaneOpenState="false" id="10003" index="3" select="false" visible="true">
        <trackParameters trackHeight="173" trackHue="282.9197072982788086" trackMinimized="false">
          <name>William</name>
        </trackParameters>
        <trackAudioParameters audioChannelType="stereo" automationMode="1" monitoring="false" recordArmed="false" solo="false" soloSafe="false">
          <trackOutput outputID="10000" type="trackID"/>
          <trackInput inputID="1"/>
          <component componentGuid="81c275fa-cb18-4a9d-8e7a-0730018e38f8" componentID="Audition.Fader" id="trackFader" name="volume" powered="true">
            <parameter index="0" name="volume" parameterValue="1"/>
            <parameter index="1" name="static gain" parameterValue="1"/>
          </component>
          <component componentGuid="288a34df-1af7-457b-b47a-5931ba9cdea1" componentID="Audition.Mute" id="trackMute" name="Mute" powered="true">
            <parameter index="0" parameterValue="0"/>
            <parameter index="1" name="mute" parameterValue="0"/>
          </component>
          <component componentGuid="2e41fa1e-1bd1-475d-9ac7-98518326be26" componentID="Audition.StereoPanner" id="trackPan" name="StereoPanner" powered="true">
            <parameter index="0" name="Pan" parameterValue="0"/>
          </component>
          <component componentGuid="8dcf55b4-1474-483b-a708-fbf042d196bc" componentID="Audition.EQ" id="trackEQ" name="EQ" powered="false">
            <parameter index="0" name="Low Shelf Frequency" parameterValue="0.0009079"/>
            <parameter index="1" name="Low Shelf Gain" parameterValue="0.5"/>
            <parameter index="2" name="High Shelf Frequency" parameterValue="0.8161598"/>
            <parameter index="3" name="High Shelf Gain" parameterValue="0.5"/>
            <parameter index="4" name="EQ Band 1 Center Frequency" parameterValue="0.0013618"/>
            <parameter index="5" name="EQ Band 1 Q" parameterValue="0.0002"/>
            <parameter index="6" name="EQ Band 1 Gain" parameterValue="0.5"/>
            <parameter index="7" name="EQ Band 1 Enable" parameterValue="1"/>
            <parameter index="8" name="EQ Band 2 Center Frequency" parameterValue="0.0081707"/>
            <parameter index="9" name="EQ Band 2 Q" parameterValue="0.0002"/>
            <parameter index="10" name="EQ Band 2 Gain" parameterValue="0.5"/>
            <parameter index="11" name="EQ Band 2 Enable" parameterValue="1"/>
            <parameter index="12" name="EQ Band 3 Center Frequency" parameterValue="0.0354063"/>
            <parameter index="13" name="EQ Band 3 Q" parameterValue="0.0002"/>
            <parameter index="14" name="EQ Band 3 Gain" parameterValue="0.5"/>
            <parameter index="15" name="EQ Band 3 Enable" parameterValue="1"/>
            <parameter index="16" name="EQ Band 4 Center Frequency" parameterValue="0.1443486"/>
            <parameter index="17" name="EQ Band 4 Q" parameterValue="0.0002"/>
            <parameter index="18" name="EQ Band 4 Gain" parameterValue="0.5"/>
            <parameter index="19" name="EQ Band 4 Enable" parameterValue="1"/>
            <parameter index="20" name="EQ Band 5 Center Frequency" parameterValue="0.580118"/>
            <parameter index="21" name="EQ Band 5 Q" parameterValue="0.0002"/>
            <parameter index="22" name="EQ Band 5 Gain" parameterValue="0.5"/>
            <parameter index="23" name="EQ Band 5 Enable" parameterValue="1"/>
            <parameter index="24" name="Master Gain" parameterValue="0.6666667"/>
            <parameter index="25" name="ConstantQ" parameterValue="1"/>
            <parameter index="26" name="Low Shelf Filter Order" parameterValue="0"/>
            <parameter index="27" name="High Shelf Filter Order" parameterValue="0"/>
            <parameter index="28" name="Ultra-Quiet Mode" parameterValue="0"/>
            <parameter index="29" name="Low Shelf Enable" parameterValue="1"/>
            <parameter index="30" name="High Shelf Enable" parameterValue="1"/>
            <parameter index="31" name="Original Sample Rate" parameterValue="0.2296875"/>
            <parameter index="32" name="EQ Band 1 Bandwidth" parameterValue="0.0025"/>
            <parameter index="33" name="EQ Band 2 Bandwidth" parameterValue="0.01"/>
            <parameter index="34" name="EQ Band 3 Bandwidth" parameterValue="0.04"/>
            <parameter index="35" name="EQ Band 4 Bandwidth" parameterValue="0.16"/>
            <parameter index="36" name="EQ Band 5 Bandwidth" parameterValue="0.64"/>
            <parameter index="37" name="High-Pass Filter Enable" parameterValue="0"/>
            <parameter index="38" name="High-Pass Cutoff Frequency" parameterValue="0"/>
            <parameter index="39" name="High-Pass Slope" parameterValue="0.4"/>
            <parameter index="40" name="Low-Pass Filter Enable" parameterValue="0"/>
            <parameter index="41" name="Low-Pass Cutoff Frequency" parameterValue="0.906945"/>
            <parameter index="42" name="Low-Pass Slope" parameterValue="0.4"/>
            <parameter index="43" name="Bypass" parameterValue="0"/>
            <parameter index="44" name="LowGraphRange" parameterValue="1"/>
          </component>
        </trackAudioParameters>
        <editParameter parameterIndex="0" slotIndex="4294967280"/>
        <sendList>
          <sendSlot preFader="false" sendOutputID="0" slotIndex="0">
            <component componentGuid="e2138ef5-9231-47f5-9d31-4929ec8d80ad" id="sendComponent" powered="false">
              <parameter index="0" name="Power On/Off" parameterValue="0"/>
              <parameter index="1" name="Level" parameterValue="0"/>
            </component>
            <component id="sendPan" powered="true"/>
          </sendSlot>
          <sendSlot preFader="false" sendOutputID="0" slotIndex="1">
            <component componentGuid="adc55f8b-11cf-4b44-b222-540110efff53" id="sendComponent" powered="false">
              <parameter index="0" name="Power On/Off" parameterValue="0"/>
              <parameter index="1" name="Level" parameterValue="0"/>
            </component>
            <component id="sendPan" powered="true"/>
          </sendSlot>
          <sendSlot preFader="false" sendOutputID="0" slotIndex="2">
            <component componentGuid="ad0a1be1-c9ed-4df7-8630-745663c97d31" id="sendComponent" powered="false">
              <parameter index="0" name="Power On/Off" parameterValue="0"/>
              <parameter index="1" name="Level" parameterValue="0"/>
            </component>
            <component id="sendPan" powered="true"/>
          </sendSlot>
          <sendSlot preFader="false" sendOutputID="0" slotIndex="3">
            <component componentGuid="c669cf5e-7d24-4e3a-8c56-66758fdff674" id="sendComponent" powered="false">
              <parameter index="0" name="Power On/Off" parameterValue="0"/>
              <parameter index="1" name="Level" parameterValue="0"/>
            </component>
            <component id="sendPan" powered="true"/>
          </sendSlot>
          <sendSlot preFader="false" sendOutputID="0" slotIndex="4">
            <component componentGuid="a2b53085-6cd1-4d64-ab02-e7e88b65de6a" id="sendComponent" powered="false">
              <parameter index="0" name="Power On/Off" parameterValue="0"/>
              <parameter index="1" name="Level" parameterValue="0"/>
            </component>
            <component id="sendPan" powered="true"/>
          </sendSlot>
          <sendSlot preFader="false" sendOutputID="0" slotIndex="5">
            <component componentGuid="b5567551-1d6f-4713-a2e4-35202c82eb28" id="sendComponent" powered="false">
              <parameter index="0" name="Power On/Off" parameterValue="0"/>
              <parameter index="1" name="Level" parameterValue="0"/>
            </component>
            <component id="sendPan" powered="true"/>
          </sendSlot>
          <sendSlot preFader="false" sendOutputID="0" slotIndex="6">
            <component componentGuid="069795ff-6c0e-4138-8d73-165f1815c4e5" id="sendComponent" powered="false">
              <parameter index="0" name="Power On/Off" parameterValue="0"/>
              <parameter index="1" name="Level" parameterValue="0"/>
            </component>
            <component id="sendPan" powered="true"/>
          </sendSlot>
          <sendSlot preFader="false" sendOutputID="0" slotIndex="7">
            <component componentGuid="d205e9b0-532c-404a-af09-c650d7eaabc2" id="sendComponent" powered="false">
              <parameter index="0" name="Power On/Off" parameterValue="0"/>
              <parameter index="1" name="Level" parameterValue="0"/>
            </component>
            <component id="sendPan" powered="true"/>
          </sendSlot>
          <sendSlot preFader="false" sendOutputID="0" slotIndex="8">
            <component componentGuid="dfe6827f-b68b-42ac-a8af-f7f179fc719d" id="sendComponent" powered="false">
              <parameter index="0" name="Power On/Off" parameterValue="0"/>
              <parameter index="1" name="Level" parameterValue="0"/>
            </component>
            <component id="sendPan" powered="true"/>
          </sendSlot>
          <sendSlot preFader="false" sendOutputID="0" slotIndex="9">
            <component componentGuid="2bffb0bf-e868-4e96-8999-446de1b6fec3" id="sendComponent" powered="false">
              <parameter index="0" name="Power On/Off" parameterValue="0"/>
              <parameter index="1" name="Level" parameterValue="0"/>
            </component>
            <component id="sendPan" powered="true"/>
          </sendSlot>
          <sendSlot preFader="false" sendOutputID="0" slotIndex="10">
            <component componentGuid="8fd91f06-bfce-42f8-8894-62a37a80bdeb" id="sendComponent" powered="false">
              <parameter index="0" name="Power On/Off" parameterValue="0"/>
              <parameter index="1" name="Level" parameterValue="0"/>
            </component>
            <component id="sendPan" powered="true"/>
          </sendSlot>
          <sendSlot preFader="false" sendOutputID="0" slotIndex="11">
            <component componentGuid="d4c7e18c-4bd2-442c-a484-5b460bd03616" id="sendComponent" powered="false">
              <parameter index="0" name="Power On/Off" parameterValue="0"/>
              <parameter index="1" name="Level" parameterValue="0"/>
            </component>
            <component id="sendPan" powered="true"/>
          </sendSlot>
          <sendSlot preFader="false" sendOutputID="0" slotIndex="12">
            <component componentGuid="844d7c63-985c-4b18-912a-12dd98dead6c" id="sendComponent" powered="false">
              <parameter index="0" name="Power On/Off" parameterValue="0"/>
              <parameter index="1" name="Level" parameterValue="0"/>
            </component>
            <component id="sendPan" powered="true"/>
          </sendSlot>
          <sendSlot preFader="false" sendOutputID="0" slotIndex="13">
            <component componentGuid="b020c039-22c4-4dad-84fb-349980082922" id="sendComponent" powered="false">
              <parameter index="0" name="Power On/Off" parameterValue="0"/>
              <parameter index="1" name="Level" parameterValue="0"/>
            </component>
            <component id="sendPan" powered="true"/>
          </sendSlot>
          <sendSlot preFader="false" sendOutputID="0" slotIndex="14">
            <component componentGuid="794c7918-dc03-4e17-a5fa-9d7e4139f530" id="sendComponent" powered="false">
              <parameter index="0" name="Power On/Off" parameterValue="0"/>
              <parameter index="1" name="Level" parameterValue="0"/>
            </component>
            <component id="sendPan" powered="true"/>
          </sendSlot>
          <sendSlot preFader="false" sendOutputID="0" slotIndex="15">
            <component componentGuid="d91d2cab-b578-4911-8db9-0d3eec16fd3d" id="sendComponent" powered="false">
              <parameter index="0" name="Power On/Off" parameterValue="0"/>
              <parameter index="1" name="Level" parameterValue="0"/>
            </component>
            <component id="sendPan" powered="true"/>
          </sendSlot>
        </sendList>
        <audioClip clipAutoCrossfade="true" crossFadeHeadClipID="-1" crossFadeTailClipID="-1" endPoint="40151" fileID="35" hue="-1" id="0" lockedInTime="false" looped="false" name="Track 3_016" offline="false" select="false" sourceInPoint="407549" sourceOutPoint="447700" startPoint="0" zOrder="2145915032">
          <component componentGuid="83a35578-51fd-4f2d-9ee2-2b180a32ca90" componentID="Audition.Fader" id="clipGain" name="volume" powered="true">
            <parameter index="0" name="volume" parameterValue="1.6606121"/>
            <parameter index="1" name="static gain" parameterValue="1"/>
          </component>
          <component componentGuid="21233777-6d50-4d77-b8e6-a559e9113c66" componentID="Audition.Mute" id="clipMute" name="Mute" powered="true">
            <parameter index="0" parameterValue="0"/>
            <parameter index="1" name="mute" parameterValue="0"/>
          </component>
          <component componentGuid="d2103dcd-0600-4176-9bf0-f400e770c6e6" componentID="Audition.StereoPanner" id="clipPan" name="StereoPanner" powered="true">
            <parameter index="0" name="Pan" parameterValue="0"/>
          </component>
          <fadeIn crossFadeLinkType="linkedAsymmetric" endPoint="9978" shape="10" startPoint="0" type="log"/>
          <fadeOut crossFadeLinkType="linkedAsymmetric" endPoint="40151" shape="19" startPoint="40151" type="log"/>
          <clipStretch adaptiveWindowSize="37" pitchAdjustment="0" preserveFormants="true" stretchMode="realtime" stretchQuality="high" stretchRatio="0.798145063434332" stretchType="solo" transientSensitivity="40"/>
          <editParameter parameterIndex="0" slotIndex="4294967281"/>
          <editParameter parameterIndex="0" slotIndex="4294967280"/>
          <channelMap>
            <channel index="0" sourceIndex="0"/>
          </channelMap>
        </audioClip>
        <audioClip clipAutoCrossfade="true" crossFadeHeadClipID="-1" crossFadeTailClipID="-1" endPoint="181313" fileID="36" hue="-1" id="1" lockedInTime="false" looped="false" name="William_184" offline="false" select="false" sourceInPoint="159810" sourceOutPoint="300972" startPoint="40151" zOrder="2145915132">
          <component componentGuid="ba828e2f-19d6-44d4-965a-9fd63f82cf2a" componentID="Audition.Fader" id="clipGain" name="volume" powered="true">
            <parameter index="0" name="volume" parameterValue="1.3214508">
              <parameterKeyframes enableSplines="false">
                <parameterKeyframe sampleOffset="111630" select="false" type="linear" value="0.5046099"/>
                <parameterKeyframe sampleOffset="156240" select="false" type="linear" value="0.5640157"/>
                <parameterKeyframe sampleOffset="157460" select="true" type="linear" value="0.7824019"/>
                <parameterKeyframe sampleOffset="168765" select="false" type="linear" value="0.7262588"/>
              </parameterKeyframes>
            </parameter>
            <parameter index="1" name="static gain" parameterValue="1"/>
          </component>
          <component componentGuid="4dc69823-f1d2-429d-8d73-7c69b99ebdba" componentID="Audition.Mute" id="clipMute" name="Mute" powered="true">
            <parameter index="0" parameterValue="0"/>
            <parameter index="1" name="mute" parameterValue="0"/>
          </component>
          <component componentGuid="75adab62-cb90-481b-a8bd-f723b50047f0" componentID="Audition.StereoPanner" id="clipPan" name="StereoPanner" powered="true">
            <parameter index="0" name="Pan" parameterValue="0"/>
          </component>
          <fadeIn crossFadeLinkType="linkedAsymmetric" endPoint="0" shape="0" startPoint="0" type="cosine"/>
          <fadeOut crossFadeLinkType="linkedAsymmetric" endPoint="141162" shape="10" startPoint="125456" type="log"/>
          <take sourceInPoint="0"/>
          <editParameter parameterIndex="0" slotIndex="4294967281"/>
          <editParameter parameterIndex="0" slotIndex="4294967280"/>
          <channelMap>
            <channel index="0" sourceIndex="0"/>
          </channelMap>
        </audioClip>
        <audioClip clipAutoCrossfade="true" crossFadeHeadClipID="-1" crossFadeTailClipID="-1" endPoint="257417" fileID="35" hue="-1" id="2" lockedInTime="false" looped="false" name="Track 3_016" offline="false" select="false" sourceInPoint="407549" sourceOutPoint="447700" startPoint="217266" zOrder="2145915034">
          <component componentGuid="806597b3-731c-462c-9709-77adbc0b5e7f" componentID="Audition.Fader" id="clipGain" name="volume" powered="true">
            <parameter index="0" name="volume" parameterValue="1.6629776"/>
            <parameter index="1" name="static gain" parameterValue="1"/>
          </component>
          <component componentGuid="6b6bcb59-f845-4f2b-8c30-34e84de90b2c" componentID="Audition.Mute" id="clipMute" name="Mute" powered="true">
            <parameter index="0" parameterValue="0"/>
            <parameter index="1" name="mute" parameterValue="0"/>
          </component>
          <component componentGuid="b538de8f-c3c0-454b-99b3-2b1c4fa4b953" componentID="Audition.StereoPanner" id="clipPan" name="StereoPanner" powered="true">
            <parameter index="0" name="Pan" parameterValue="0"/>
          </component>
          <fadeIn crossFadeLinkType="linkedAsymmetric" endPoint="0" shape="19" startPoint="0" type="log"/>
          <fadeOut crossFadeLinkType="linkedAsymmetric" endPoint="40151" shape="19" startPoint="40151" type="log"/>
          <clipStretch adaptiveWindowSize="37" pitchAdjustment="0" preserveFormants="true" stretchMode="realtime" stretchQuality="high" stretchRatio="0.798145063434332" stretchType="solo" transientSensitivity="40"/>
          <editParameter parameterIndex="0" slotIndex="4294967281"/>
          <editParameter parameterIndex="0" slotIndex="4294967280"/>
          <channelMap>
            <channel index="0" sourceIndex="0"/>
          </channelMap>
        </audioClip>
        <audioClip clipAutoCrossfade="true" crossFadeHeadClipID="-1" crossFadeTailClipID="-1" endPoint="469983" fileID="36" hue="-1" id="3" lockedInTime="false" looped="false" name="William_184" offline="false" select="false" sourceInPoint="331262" sourceOutPoint="543828" startPoint="257417" zOrder="2145915133">
          <component componentGuid="643e8f6a-5ed0-465a-9fed-08b777b97a2c" componentID="Audition.Fader" id="clipGain" name="volume" powered="true">
            <parameter index="0" name="volume" parameterValue="0.7105311">
              <parameterKeyframes enableSplines="false">
                <parameterKeyframe sampleOffset="329845" select="false" type="linear" value="0.3864009"/>
                <parameterKeyframe sampleOffset="330137" select="false" type="linear" value="0.7772938"/>
                <parameterKeyframe sampleOffset="340880" select="true" type="linear" value="0.557781"/>
              </parameterKeyframes>
            </parameter>
            <parameter index="1" name="static gain" parameterValue="1"/>
          </component>
          <component componentGuid="34f6d78f-a8be-4bce-91c0-ac538476c012" componentID="Audition.Mute" id="clipMute" name="Mute" powered="true">
            <parameter index="0" parameterValue="0"/>
            <parameter index="1" name="mute" parameterValue="0"/>
          </component>
          <component componentGuid="0d9451b3-43b7-4954-89df-a9c23583baf5" componentID="Audition.StereoPanner" id="clipPan" name="StereoPanner" powered="true">
            <parameter index="0" name="Pan" parameterValue="0"/>
          </component>
          <fadeIn crossFadeLinkType="linkedAsymmetric" endPoint="0" shape="0" startPoint="0" type="log"/>
          <fadeOut crossFadeLinkType="linkedAsymmetric" endPoint="212566" shape="18" startPoint="212566" type="log"/>
          <editParameter parameterIndex="0" slotIndex="4294967281"/>
          <editParameter parameterIndex="0" slotIndex="4294967280"/>
          <channelMap>
            <channel index="0" sourceIndex="0"/>
          </channelMap>
        </audioClip>
        <audioClip clipAutoCrossfade="true" crossFadeHeadClipID="-1" crossFadeTailClipID="-1" endPoint="538431" fileID="35" hue="-1" id="4" lockedInTime="false" looped="false" name="Track 3_016" offline="false" select="false" sourceInPoint="407549" sourceOutPoint="447700" startPoint="498280" zOrder="2145915047">
          <component componentGuid="e35a2206-711b-4bb1-91cd-19792f08ed63" componentID="Audition.Fader" id="clipGain" name="volume" powered="true">
            <parameter index="0" name="volume" parameterValue="1.6629786"/>
            <parameter index="1" name="static gain" parameterValue="1"/>
          </component>
          <component componentGuid="b48805fd-cd40-449f-8e73-bb0d23897778" componentID="Audition.Mute" id="clipMute" name="Mute" powered="true">
            <parameter index="0" parameterValue="0"/>
            <parameter index="1" name="mute" parameterValue="0"/>
          </component>
          <component componentGuid="ffa40b3f-2008-4a3b-95b7-8b72a0ac2ddc" componentID="Audition.StereoPanner" id="clipPan" name="StereoPanner" powered="true">
            <parameter index="0" name="Pan" parameterValue="0"/>
          </component>
          <fadeIn crossFadeLinkType="linkedAsymmetric" endPoint="9978" shape="10" startPoint="0" type="log"/>
          <fadeOut crossFadeLinkType="linkedAsymmetric" endPoint="40151" shape="19" startPoint="40151" type="log"/>
          <clipStretch adaptiveWindowSize="37" pitchAdjustment="0" preserveFormants="true" stretchMode="realtime" stretchQuality="high" stretchRatio="0.798145063434332" stretchType="solo" transientSensitivity="40"/>
          <editParameter parameterIndex="0" slotIndex="4294967281"/>
          <editParameter parameterIndex="0" slotIndex="4294967280"/>
          <channelMap>
            <channel index="0" sourceIndex="0"/>
          </channelMap>
        </audioClip>
        <audioClip clipAutoCrossfade="true" crossFadeHeadClipID="-1" crossFadeTailClipID="-1" endPoint="665551" fileID="37" hue="-1" id="5" lockedInTime="false" looped="false" name="William_185" offline="false" select="false" sourceInPoint="665381" sourceOutPoint="792501" startPoint="538431" zOrder="2145915134">
          <component componentGuid="92949302-c15b-487d-a50d-58f4698a356d" componentID="Audition.Fader" id="clipGain" name="volume" powered="true">
            <parameter index="0" name="volume" parameterValue="0.2718176">
              <parameterKeyframes enableSplines="false">
                <parameterKeyframe sampleOffset="663297" select="false" type="linear" value="0.3627659"/>
                <parameterKeyframe sampleOffset="664966" select="true" type="linear" value="0.787217"/>
                <parameterKeyframe sampleOffset="676226" select="false" type="linear" value="0.65"/>
              </parameterKeyframes>
            </parameter>
            <parameter index="1" name="static gain" parameterValue="1"/>
          </component>
          <component componentGuid="cce14e6a-c12a-4c49-a702-05d71926f9eb" componentID="Audition.Mute" id="clipMute" name="Mute" powered="true">
            <parameter index="0" parameterValue="0"/>
            <parameter index="1" name="mute" parameterValue="0"/>
          </component>
          <component componentGuid="8c371652-a78c-437a-8527-7af72ad9045a" componentID="Audition.StereoPanner" id="clipPan" name="StereoPanner" powered="true">
            <parameter index="0" name="Pan" parameterValue="0"/>
          </component>
          <fadeIn crossFadeLinkType="linkedAsymmetric" endPoint="0" shape="0" startPoint="0" type="cosine"/>
          <fadeOut crossFadeLinkType="linkedAsymmetric" endPoint="127120" shape="0" startPoint="108615" type="log"/>
          <editParameter parameterIndex="0" slotIndex="4294967281"/>
          <editParameter parameterIndex="0" slotIndex="4294967280"/>
          <channelMap>
            <channel index="0" sourceIndex="0"/>
          </channelMap>
        </audioClip>
        <audioClip clipAutoCrossfade="true" crossFadeHeadClipID="-1" crossFadeTailClipID="-1" endPoint="747136" fileID="35" hue="-1" id="6" lockedInTime="false" looped="false" name="Track 3_016" offline="false" select="false" sourceInPoint="407549" sourceOutPoint="447700" startPoint="706985" zOrder="2145915038">
          <component componentGuid="8c598223-4e9c-4df6-8dab-058d037dd129" componentID="Audition.Fader" id="clipGain" name="volume" powered="true">
            <parameter index="0" name="volume" parameterValue="1.6629786"/>
            <parameter index="1" name="static gain" parameterValue="1"/>
          </component>
          <component componentGuid="c7c15710-67b4-4301-97b6-033183d3af37" componentID="Audition.Mute" id="clipMute" name="Mute" powered="true">
            <parameter index="0" parameterValue="0"/>
            <parameter index="1" name="mute" parameterValue="0"/>
          </component>
          <component componentGuid="af34935a-ed5e-4770-a1c1-c37445c13951" componentID="Audition.StereoPanner" id="clipPan" name="StereoPanner" powered="true">
            <parameter index="0" name="Pan" parameterValue="0"/>
          </component>
          <fadeIn crossFadeLinkType="linkedAsymmetric" endPoint="9978" shape="10" startPoint="0" type="log"/>
          <fadeOut crossFadeLinkType="linkedAsymmetric" endPoint="40151" shape="19" startPoint="40151" type="log"/>
          <clipStretch adaptiveWindowSize="37" pitchAdjustment="0" preserveFormants="true" stretchMode="realtime" stretchQuality="high" stretchRatio="0.798145063434332" stretchType="solo" transientSensitivity="40"/>
          <editParameter parameterIndex="0" slotIndex="4294967281"/>
          <editParameter parameterIndex="0" slotIndex="4294967280"/>
          <channelMap>
            <channel index="0" sourceIndex="0"/>
          </channelMap>
        </audioClip>
        <audioClip clipAutoCrossfade="true" crossFadeHeadClipID="-1" crossFadeTailClipID="-1" endPoint="833333" fileID="38" hue="-1" id="7" lockedInTime="false" looped="false" name="William_186" offline="false" select="false" sourceInPoint="913022" sourceOutPoint="999219" startPoint="747136" zOrder="2145915135">
          <component componentGuid="62331e79-40ed-4435-aa19-b99b66d03e3e" componentID="Audition.Fader" id="clipGain" name="volume" powered="true">
            <parameter index="0" name="volume" parameterValue="1.6895665">
              <parameterKeyframes enableSplines="false">
                <parameterKeyframe sampleOffset="912307" select="false" type="linear" value="0.7860354"/>
                <parameterKeyframe sampleOffset="919802" select="true" type="linear" value="0.610876"/>
              </parameterKeyframes>
            </parameter>
            <parameter index="1" name="static gain" parameterValue="1"/>
          </component>
          <component componentGuid="0682eb7d-b1e2-4594-8cd2-a082509ea17a" componentID="Audition.Mute" id="clipMute" name="Mute" powered="true">
            <parameter index="0" parameterValue="0"/>
            <parameter index="1" name="mute" parameterValue="0"/>
          </component>
          <component componentGuid="5f51e866-6c43-49dc-ae9d-75feffecb2a5" componentID="Audition.StereoPanner" id="clipPan" name="StereoPanner" powered="true">
            <parameter index="0" name="Pan" parameterValue="0"/>
          </component>
          <fadeIn crossFadeLinkType="linkedAsymmetric" endPoint="0" shape="18" startPoint="0" type="log"/>
          <fadeOut crossFadeLinkType="linkedAsymmetric" endPoint="86197" shape="0" startPoint="75710" type="log"/>
          <editParameter parameterIndex="0" slotIndex="4294967281"/>
          <editParameter parameterIndex="0" slotIndex="4294967280"/>
          <channelMap>
            <channel index="0" sourceIndex="0"/>
          </channelMap>
        </audioClip>
        <audioClip clipAutoCrossfade="true" crossFadeHeadClipID="-1" crossFadeTailClipID="-1" endPoint="958262" fileID="39" hue="-1" id="8" lockedInTime="false" looped="false" name="William_188" offline="false" select="false" sourceInPoint="96707" sourceOutPoint="111229" startPoint="943740" zOrder="2145915138">
          <component componentGuid="d494923a-9986-44ff-ad5f-4a3c678c6eaa" componentID="Audition.Fader" id="clipGain" name="volume" powered="true">
            <parameter index="0" name="volume" parameterValue="0.7847292">
              <parameterKeyframes enableSplines="false">
                <parameterKeyframe sampleOffset="95281" select="true" type="linear" value="0.5831456"/>
              </parameterKeyframes>
            </parameter>
            <parameter index="1" name="static gain" parameterValue="1"/>
          </component>
          <component componentGuid="dcc98f18-b23d-4d2a-9b30-984b788c6fac" componentID="Audition.Mute" id="clipMute" name="Mute" powered="true">
            <parameter index="0" parameterValue="0"/>
            <parameter index="1" name="mute" parameterValue="0"/>
          </component>
          <component componentGuid="b77dfad6-9224-40c2-b24c-aba502bc1e04" componentID="Audition.StereoPanner" id="clipPan" name="StereoPanner" powered="true">
            <parameter index="0" name="Pan" parameterValue="0"/>
          </component>
          <fadeIn crossFadeLinkType="linkedAsymmetric" endPoint="3314" shape="8" startPoint="0" type="log"/>
          <fadeOut crossFadeLinkType="linkedAsymmetric" endPoint="14522" shape="19" startPoint="14522" type="log"/>
          <editParameter parameterIndex="0" slotIndex="4294967281"/>
          <editParameter parameterIndex="0" slotIndex="4294967280"/>
          <channelMap>
            <channel index="0" sourceIndex="0"/>
          </channelMap>
        </audioClip>
        <audioClip clipAutoCrossfade="true" crossFadeHeadClipID="-1" crossFadeTailClipID="-1" endPoint="1024593" fileID="39" hue="-1" id="9" lockedInTime="false" looped="false" name="William_188" offline="false" select="false" sourceInPoint="0" sourceOutPoint="66331" startPoint="958262" zOrder="2145915139">
          <component componentGuid="e37ef7b5-f3b6-40c8-9d8d-c3a9a13480dd" componentID="Audition.Fader" id="clipGain" name="volume" powered="true">
            <parameter index="0" name="volume" parameterValue="0.7938491"/>
            <parameter index="1" name="static gain" parameterValue="1"/>
          </component>
          <component componentGuid="d7c3fb54-7ab6-4df6-8b0f-069a1f4b8da4" componentID="Audition.Mute" id="clipMute" name="Mute" powered="true">
            <parameter index="0" parameterValue="0"/>
            <parameter index="1" name="mute" parameterValue="0"/>
          </component>
          <component componentGuid="ec3e8d18-5b39-4efe-81a6-652d4a0e79b8" componentID="Audition.StereoPanner" id="clipPan" name="StereoPanner" powered="true">
            <parameter index="0" name="Pan" parameterValue="0"/>
          </component>
          <fadeIn crossFadeLinkType="linkedAsymmetric" endPoint="0" shape="18" startPoint="0" type="log"/>
          <fadeOut crossFadeLinkType="linkedAsymmetric" endPoint="66331" shape="5" startPoint="54503" type="log"/>
          <take sourceInPoint="0"/>
          <editParameter parameterIndex="0" slotIndex="4294967281"/>
          <editParameter parameterIndex="0" slotIndex="4294967280"/>
          <channelMap>
            <channel index="0" sourceIndex="0"/>
          </channelMap>
        </audioClip>
        <audioClip clipAutoCrossfade="true" crossFadeHeadClipID="-1" crossFadeTailClipID="-1" endPoint="1179038" fileID="40" hue="-1" id="10" lockedInTime="false" looped="false" name="William_187" offline="false" select="true" sourceInPoint="963931" sourceOutPoint="1020283" startPoint="1122686" zOrder="2145915140">
          <component componentGuid="1065c7fa-4d65-42c5-9a02-085d4a819b21" componentID="Audition.Fader" id="clipGain" name="volume" powered="true">
            <parameter index="0" name="volume" parameterValue="0.8373964">
              <parameterKeyframes enableSplines="false">
                <parameterKeyframe sampleOffset="962533" select="false" type="linear" value="0.3911347"/>
                <parameterKeyframe sampleOffset="968356" select="false" type="linear" value="0.6003546"/>
              </parameterKeyframes>
            </parameter>
            <parameter index="1" name="static gain" parameterValue="1"/>
          </component>
          <component componentGuid="2501ffc9-2f6c-4d1b-a0b8-ef9b2472da2a" componentID="Audition.Mute" id="clipMute" name="Mute" powered="true">
            <parameter index="0" parameterValue="0"/>
            <parameter index="1" name="mute" parameterValue="0"/>
          </component>
          <component componentGuid="b1fce666-dfd1-4e18-83dc-62070f5c98b4" componentID="Audition.StereoPanner" id="clipPan" name="StereoPanner" powered="true">
            <parameter index="0" name="Pan" parameterValue="0"/>
          </component>
          <fadeIn crossFadeLinkType="linkedAsymmetric" endPoint="9929" shape="0" startPoint="0" type="log"/>
          <fadeOut crossFadeLinkType="linkedAsymmetric" endPoint="56352" shape="5" startPoint="44524" type="log"/>
          <editParameter parameterIndex="0" slotIndex="4294967281"/>
          <editParameter parameterIndex="0" slotIndex="4294967280"/>
          <channelMap>
            <channel index="0" sourceIndex="0"/>
          </channelMap>
        </audioClip>
        <audioClip clipAutoCrossfade="true" crossFadeHeadClipID="-1" crossFadeTailClipID="-1" endPoint="1339273" fileID="35" hue="-1" id="11" lockedInTime="false" looped="false" name="Track 3_016" offline="false" select="false" sourceInPoint="407549" sourceOutPoint="447700" startPoint="1299122" zOrder="2145894233">
          <component componentGuid="8014e45d-388d-489a-a1fe-7f2e4344d2b6" componentID="Audition.Fader" id="clipGain" name="volume" powered="true">
            <parameter index="0" name="volume" parameterValue="1.5129091">
              <parameterKeyframes enableSplines="false">
                <parameterKeyframe sampleOffset="430310" select="true" type="linear" value="0.7599835"/>
              </parameterKeyframes>
            </parameter>
            <parameter index="1" name="static gain" parameterValue="1"/>
          </component>
          <component componentGuid="260beba4-b061-4232-996f-db7ae163d9bb" componentID="Audition.Mute" id="clipMute" name="Mute" powered="true">
            <parameter index="0" parameterValue="0"/>
            <parameter index="1" name="mute" parameterValue="0"/>
          </component>
          <component componentGuid="e682b111-3dd8-4fa7-af8b-841e0b8de239" componentID="Audition.StereoPanner" id="clipPan" name="StereoPanner" powered="true">
            <parameter index="0" name="Pan" parameterValue="0"/>
          </component>
          <fadeIn crossFadeLinkType="linkedAsymmetric" endPoint="9978" shape="10" startPoint="0" type="log"/>
          <fadeOut crossFadeLinkType="linkedAsymmetric" endPoint="40151" shape="19" startPoint="40151" type="log"/>
          <clipStretch adaptiveWindowSize="37" pitchAdjustment="0" preserveFormants="true" stretchMode="realtime" stretchQuality="high" stretchRatio="0.798145063434332" stretchType="solo" transientSensitivity="40"/>
          <editParameter parameterIndex="0" slotIndex="4294967281"/>
          <editParameter parameterIndex="0" slotIndex="4294967280"/>
          <channelMap>
            <channel index="0" sourceIndex="0"/>
          </channelMap>
        </audioClip>
        <audioClip clipAutoCrossfade="true" crossFadeHeadClipID="-1" crossFadeTailClipID="-1" endPoint="1526953" fileID="41" hue="-1" id="12" lockedInTime="false" looped="false" name="William_189" offline="false" select="false" sourceInPoint="713057" sourceOutPoint="900737" startPoint="1339273" zOrder="2145894215">
          <component componentGuid="3f0647c5-00f8-4d25-b1da-4fbfc8d510e0" componentID="Audition.Fader" id="clipGain" name="volume" powered="true">
            <parameter index="0" name="volume" parameterValue="1.9944882"/>
            <parameter index="1" name="static gain" parameterValue="1"/>
          </component>
          <component componentGuid="e96e3464-6df7-45cb-9963-81e066d00797" componentID="Audition.Mute" id="clipMute" name="Mute" powered="true">
            <parameter index="0" parameterValue="0"/>
            <parameter index="1" name="mute" parameterValue="0"/>
          </component>
          <component componentGuid="f2079250-ca36-499f-9921-0dbfe2252a22" componentID="Audition.StereoPanner" id="clipPan" name="StereoPanner" powered="true">
            <parameter index="0" name="Pan" parameterValue="0"/>
          </component>
          <fadeIn crossFadeLinkType="linkedAsymmetric" endPoint="10034" shape="19" startPoint="0" type="log"/>
          <fadeOut crossFadeLinkType="linkedAsymmetric" endPoint="187680" shape="5" startPoint="172028" type="log"/>
          <take sourceInPoint="0"/>
          <editParameter parameterIndex="0" slotIndex="4294967281"/>
          <editParameter parameterIndex="0" slotIndex="4294967280"/>
          <channelMap>
            <channel index="0" sourceIndex="0"/>
          </channelMap>
        </audioClip>
        <audioClip clipAutoCrossfade="true" crossFadeHeadClipID="-1" crossFadeTailClipID="-1" endPoint="1743872" fileID="41" hue="-1" id="13" lockedInTime="false" looped="false" name="William_189" offline="false" select="false" sourceInPoint="2864400" sourceOutPoint="2962902" startPoint="1645370" zOrder="2145894227">
          <component componentGuid="274480bd-0294-4596-8146-90f41253ba8d" componentID="Audition.Fader" id="clipGain" name="volume" powered="true">
            <parameter index="0" name="volume" parameterValue="1.6160456"/>
            <parameter index="1" name="static gain" parameterValue="1"/>
          </component>
          <component componentGuid="4793aefe-a294-4bad-8ad5-ed78c9cb812f" componentID="Audition.Mute" id="clipMute" name="Mute" powered="true">
            <parameter index="0" parameterValue="0"/>
            <parameter index="1" name="mute" parameterValue="0"/>
          </component>
          <component componentGuid="d4640ade-c0df-4fe8-b654-9cf19aeabdc2" componentID="Audition.StereoPanner" id="clipPan" name="StereoPanner" powered="true">
            <parameter index="0" name="Pan" parameterValue="0"/>
          </component>
          <fadeIn crossFadeLinkType="linkedAsymmetric" endPoint="17435" shape="14" startPoint="0" type="log"/>
          <fadeOut crossFadeLinkType="linkedAsymmetric" endPoint="98502" shape="0" startPoint="98502" type="cosine"/>
          <editParameter parameterIndex="0" slotIndex="4294967281"/>
          <editParameter parameterIndex="0" slotIndex="4294967280"/>
          <channelMap>
            <channel index="0" sourceIndex="0"/>
          </channelMap>
        </audioClip>
        <audioClip clipAutoCrossfade="true" crossFadeHeadClipID="-1" crossFadeTailClipID="-1" endPoint="1885107" fileID="41" hue="-1" id="14" lockedInTime="false" looped="false" name="William_189" offline="false" select="false" sourceInPoint="1026685" sourceOutPoint="1167920" startPoint="1743872" zOrder="2145894229">
          <component componentGuid="8167f677-94b8-40b7-a424-55b0df5df06a" componentID="Audition.Fader" id="clipGain" name="volume" powered="true">
            <parameter index="0" name="volume" parameterValue="1.6160456"/>
            <parameter index="1" name="static gain" parameterValue="1"/>
          </component>
          <component componentGuid="9cf4e888-6ec3-4c38-a975-faff33f6fbdd" componentID="Audition.Mute" id="clipMute" name="Mute" powered="true">
            <parameter index="0" parameterValue="0"/>
            <parameter index="1" name="mute" parameterValue="0"/>
          </component>
          <component componentGuid="be180179-1921-4ef7-b210-176605363dfd" componentID="Audition.StereoPanner" id="clipPan" name="StereoPanner" powered="true">
            <parameter index="0" name="Pan" parameterValue="0"/>
          </component>
          <fadeIn crossFadeLinkType="linkedAsymmetric" endPoint="0" shape="0" startPoint="0" type="cosine"/>
          <fadeOut crossFadeLinkType="linkedAsymmetric" endPoint="141235" shape="0" startPoint="141235" type="cosine"/>
          <editParameter parameterIndex="0" slotIndex="4294967280"/>
          <editParameter parameterIndex="0" slotIndex="4294967281"/>
          <channelMap>
            <channel index="0" sourceIndex="0"/>
          </channelMap>
        </audioClip>
        <audioClip clipAutoCrossfade="true" crossFadeHeadClipID="-1" crossFadeTailClipID="-1" endPoint="1973505" fileID="41" hue="-1" id="15" lockedInTime="false" looped="false" name="William_189" offline="false" select="false" sourceInPoint="1991675" sourceOutPoint="2080073" startPoint="1885107" zOrder="2145894225">
          <component componentGuid="3bc98b0d-857f-46ab-b171-7805f13e2af5" componentID="Audition.Fader" id="clipGain" name="volume" powered="true">
            <parameter index="0" name="volume" parameterValue="1.6160489"/>
            <parameter index="1" name="static gain" parameterValue="1"/>
          </component>
          <component componentGuid="234d98e8-b954-451d-a333-40a1db40adbe" componentID="Audition.Mute" id="clipMute" name="Mute" powered="true">
            <parameter index="0" parameterValue="0"/>
            <parameter index="1" name="mute" parameterValue="0"/>
          </component>
          <component componentGuid="f37a06b3-ebdc-4857-b09b-8e90438c54ca" componentID="Audition.StereoPanner" id="clipPan" name="StereoPanner" powered="true">
            <parameter index="0" name="Pan" parameterValue="0"/>
          </component>
          <fadeIn crossFadeLinkType="linkedAsymmetric" endPoint="0" shape="0" startPoint="0" type="cosine"/>
          <fadeOut crossFadeLinkType="linkedAsymmetric" endPoint="88398" shape="19" startPoint="69800" type="log"/>
          <editParameter parameterIndex="0" slotIndex="4294967281"/>
          <editParameter parameterIndex="0" slotIndex="4294967280"/>
          <channelMap>
            <channel index="0" sourceIndex="0"/>
          </channelMap>
        </audioClip>
        <audioClip clipAutoCrossfade="true" crossFadeHeadClipID="-1" crossFadeTailClipID="-1" endPoint="2108424" fileID="35" hue="-1" id="16" lockedInTime="false" looped="false" name="Track 3_016" offline="false" select="false" sourceInPoint="407549" sourceOutPoint="447700" startPoint="2068273" zOrder="2145894235">
          <component componentGuid="2b0bf4a9-a0e8-4b00-9567-b3f37aa89858" componentID="Audition.Fader" id="clipGain" name="volume" powered="true">
            <parameter index="0" name="volume" parameterValue="1.4863961"/>
            <parameter index="1" name="static gain" parameterValue="1"/>
          </component>
          <component componentGuid="9f0f9e30-72e0-4ed9-bf93-e86f6ed548cd" componentID="Audition.Mute" id="clipMute" name="Mute" powered="true">
            <parameter index="0" parameterValue="0"/>
            <parameter index="1" name="mute" parameterValue="0"/>
          </component>
          <component componentGuid="a6916da4-3f0d-4bd4-8dba-73249060d8ac" componentID="Audition.StereoPanner" id="clipPan" name="StereoPanner" powered="true">
            <parameter index="0" name="Pan" parameterValue="0"/>
          </component>
          <fadeIn crossFadeLinkType="linkedAsymmetric" endPoint="9978" shape="10" startPoint="0" type="log"/>
          <fadeOut crossFadeLinkType="linkedAsymmetric" endPoint="40151" shape="19" startPoint="40151" type="log"/>
          <clipStretch adaptiveWindowSize="37" pitchAdjustment="0" preserveFormants="true" stretchMode="realtime" stretchQuality="high" stretchRatio="0.798145063434332" stretchType="solo" transientSensitivity="40"/>
          <editParameter parameterIndex="0" slotIndex="4294967281"/>
          <editParameter parameterIndex="0" slotIndex="4294967280"/>
          <channelMap>
            <channel index="0" sourceIndex="0"/>
          </channelMap>
        </audioClip>
        <audioClip clipAutoCrossfade="true" crossFadeHeadClipID="-1" crossFadeTailClipID="-1" endPoint="2275274" fileID="42" hue="-1" id="17" lockedInTime="false" looped="false" name="William_190" offline="false" select="false" sourceInPoint="902433" sourceOutPoint="1069283" startPoint="2108424" zOrder="2145894243">
          <component componentGuid="e7f4b24a-1590-49f1-abfa-d9675d8c2082" componentID="Audition.Fader" id="clipGain" name="volume" powered="true">
            <parameter index="0" name="volume" parameterValue="0.3215981">
              <parameterKeyframes enableSplines="false">
                <parameterKeyframe sampleOffset="898984" select="false" type="linear" value="0.3911347"/>
                <parameterKeyframe sampleOffset="901955" select="false" type="linear" value="0.7711225"/>
              </parameterKeyframes>
            </parameter>
            <parameter index="1" name="static gain" parameterValue="1"/>
          </component>
          <component componentGuid="04b84cae-4804-4fe5-ad85-56c631b9cfa6" componentID="Audition.Mute" id="clipMute" name="Mute" powered="true">
            <parameter index="0" parameterValue="0"/>
            <parameter index="1" name="mute" parameterValue="0"/>
          </component>
          <component componentGuid="3284da80-b5ff-4d71-9bc5-66b5734679cb" componentID="Audition.StereoPanner" id="clipPan" name="StereoPanner" powered="true">
            <parameter index="0" name="Pan" parameterValue="0"/>
          </component>
          <fadeIn crossFadeLinkType="linkedAsymmetric" endPoint="0" shape="0" startPoint="0" type="cosine"/>
          <fadeOut crossFadeLinkType="linkedAsymmetric" endPoint="166850" shape="0" startPoint="166850" type="cosine"/>
          <editParameter parameterIndex="0" slotIndex="4294967281"/>
          <editParameter parameterIndex="0" slotIndex="4294967280"/>
          <channelMap>
            <channel index="0" sourceIndex="0"/>
          </channelMap>
        </audioClip>
        <audioClip clipAutoCrossfade="true" crossFadeHeadClipID="-1" crossFadeTailClipID="-1" endPoint="2435099" fileID="42" hue="-1" id="18" lockedInTime="false" looped="false" name="William_190" offline="false" select="false" sourceInPoint="1084848" sourceOutPoint="1244673" startPoint="2275274" zOrder="2145894242">
          <component componentGuid="b8e4c713-fdb2-49f3-b02d-10f8ddcde67a" componentID="Audition.Fader" id="clipGain" name="volume" powered="true">
            <parameter index="0" name="volume" parameterValue="1.587661"/>
            <parameter index="1" name="static gain" parameterValue="1"/>
          </component>
          <component componentGuid="b9bc5df2-9776-4e32-94d9-a24e57c5a182" componentID="Audition.Mute" id="clipMute" name="Mute" powered="true">
            <parameter index="0" parameterValue="0"/>
            <parameter index="1" name="mute" parameterValue="0"/>
          </component>
          <component componentGuid="31230f9d-528f-40b9-9a12-442131437bc1" componentID="Audition.StereoPanner" id="clipPan" name="StereoPanner" powered="true">
            <parameter index="0" name="Pan" parameterValue="0"/>
          </component>
          <fadeIn crossFadeLinkType="linkedAsymmetric" endPoint="0" shape="0" startPoint="0" type="cosine"/>
          <fadeOut crossFadeLinkType="linkedAsymmetric" endPoint="159825" shape="19" startPoint="146402" type="log"/>
          <editParameter parameterIndex="0" slotIndex="4294967281"/>
          <editParameter parameterIndex="0" slotIndex="4294967280"/>
          <channelMap>
            <channel index="0" sourceIndex="0"/>
          </channelMap>
        </audioClip>
        <audioClip clipAutoCrossfade="true" crossFadeHeadClipID="-1" crossFadeTailClipID="-1" endPoint="2562826" fileID="42" hue="-1" id="19" lockedInTime="false" looped="false" name="William_190" offline="false" select="false" sourceInPoint="1280593" sourceOutPoint="1333601" startPoint="2509818" zOrder="2145894247">
          <component componentGuid="c60a1f1b-c3e3-4404-ab35-3006e29a4e9f" componentID="Audition.Fader" id="clipGain" name="volume" powered="true">
            <parameter index="0" name="volume" parameterValue="1.5876628"/>
            <parameter index="1" name="static gain" parameterValue="1"/>
          </component>
          <component componentGuid="718fdf61-9579-4219-8f70-dbf7a8535fab" componentID="Audition.Mute" id="clipMute" name="Mute" powered="true">
            <parameter index="0" parameterValue="0"/>
            <parameter index="1" name="mute" parameterValue="0"/>
          </component>
          <component componentGuid="a4064908-6eed-4d96-aa99-4884ecd14b80" componentID="Audition.StereoPanner" id="clipPan" name="StereoPanner" powered="true">
            <parameter index="0" name="Pan" parameterValue="0"/>
          </component>
          <fadeIn crossFadeLinkType="linkedAsymmetric" endPoint="15731" shape="8" startPoint="0" type="log"/>
          <fadeOut crossFadeLinkType="linkedAsymmetric" endPoint="53008" shape="0" startPoint="53008" type="cosine"/>
          <editParameter parameterIndex="0" slotIndex="4294967281"/>
          <editParameter parameterIndex="0" slotIndex="4294967280"/>
          <channelMap>
            <channel index="0" sourceIndex="0"/>
          </channelMap>
        </audioClip>
        <audioClip clipAutoCrossfade="true" crossFadeHeadClipID="-1" crossFadeTailClipID="-1" endPoint="2687832" fileID="42" hue="-1" id="20" lockedInTime="false" looped="false" name="William_190" offline="false" select="false" sourceInPoint="1333601" sourceOutPoint="1458607" startPoint="2562826" zOrder="2145894251">
          <component componentGuid="4ab54864-1c4f-4f88-9fdd-61327e005054" componentID="Audition.Fader" id="clipGain" name="volume" powered="true">
            <parameter index="0" name="volume" parameterValue="1.5876628"/>
            <parameter index="1" name="static gain" parameterValue="1"/>
          </component>
          <component componentGuid="b9a08239-eb1a-4fde-b964-76144cbf4d44" componentID="Audition.Mute" id="clipMute" name="Mute" powered="true">
            <parameter index="0" parameterValue="0"/>
            <parameter index="1" name="mute" parameterValue="0"/>
          </component>
          <component componentGuid="597b76e9-1e0e-4b54-b527-6f12f515ab6a" componentID="Audition.StereoPanner" id="clipPan" name="StereoPanner" powered="true">
            <parameter index="0" name="Pan" parameterValue="0"/>
          </component>
          <fadeIn crossFadeLinkType="linkedAsymmetric" endPoint="0" shape="0" startPoint="0" type="cosine"/>
          <fadeOut crossFadeLinkType="linkedAsymmetric" endPoint="125006" shape="8" startPoint="117486" type="log"/>
          <editParameter parameterIndex="0" slotIndex="4294967281"/>
          <editParameter parameterIndex="0" slotIndex="4294967280"/>
          <channelMap>
            <channel index="0" sourceIndex="0"/>
          </channelMap>
        </audioClip>
        <audioClip clipAutoCrossfade="true" crossFadeHeadClipID="-1" crossFadeTailClipID="-1" endPoint="2835783" fileID="35" hue="-1" id="21" lockedInTime="false" looped="false" name="Track 3_016" offline="false" select="false" sourceInPoint="407549" sourceOutPoint="447700" startPoint="2795632" zOrder="2145914258">
          <component componentGuid="ff1d7705-7ef7-46ee-8930-0cf81e13a343" componentID="Audition.Fader" id="clipGain" name="volume" powered="true">
            <parameter index="0" name="volume" parameterValue="1.4309281">
              <parameterKeyframes enableSplines="false">
                <parameterKeyframe sampleOffset="439811" select="true" type="linear" value="0.7463444"/>
              </parameterKeyframes>
            </parameter>
            <parameter index="1" name="static gain" parameterValue="1"/>
          </component>
          <component componentGuid="28ac5f02-71d0-409d-89bc-7b31303bfe38" componentID="Audition.Mute" id="clipMute" name="Mute" powered="true">
            <parameter index="0" parameterValue="0"/>
            <parameter index="1" name="mute" parameterValue="0"/>
          </component>
          <component componentGuid="1ae330c7-aeb1-4fb4-a019-6c97af24f810" componentID="Audition.StereoPanner" id="clipPan" name="StereoPanner" powered="true">
            <parameter index="0" name="Pan" parameterValue="0"/>
          </component>
          <fadeIn crossFadeLinkType="linkedAsymmetric" endPoint="9978" shape="10" startPoint="0" type="log"/>
          <fadeOut crossFadeLinkType="linkedAsymmetric" endPoint="40151" shape="19" startPoint="40151" type="log"/>
          <clipStretch adaptiveWindowSize="37" pitchAdjustment="0" preserveFormants="true" stretchMode="realtime" stretchQuality="high" stretchRatio="0.798145063434332" stretchType="solo" transientSensitivity="40"/>
          <editParameter parameterIndex="0" slotIndex="4294967281"/>
          <editParameter parameterIndex="0" slotIndex="4294967280"/>
          <channelMap>
            <channel index="0" sourceIndex="0"/>
          </channelMap>
        </audioClip>
        <audioClip clipAutoCrossfade="true" crossFadeHeadClipID="-1" crossFadeTailClipID="-1" endPoint="2918478" fileID="43" hue="-1" id="22" lockedInTime="false" looped="false" name="William_192" offline="false" select="false" sourceInPoint="26143" sourceOutPoint="108838" startPoint="2835783" zOrder="2145914121">
          <component componentGuid="5aaf327b-a00d-4216-b0ce-f91531a83d81" componentID="Audition.Fader" id="clipGain" name="volume" powered="true">
            <parameter index="0" name="volume" parameterValue="1.354055">
              <parameterKeyframes enableSplines="false">
                <parameterKeyframe sampleOffset="25349" select="false" type="linear" value="0.7324857"/>
                <parameterKeyframe sampleOffset="36978" select="true" type="linear" value="0.7715191"/>
              </parameterKeyframes>
            </parameter>
            <parameter index="1" name="static gain" parameterValue="1"/>
          </component>
          <component componentGuid="7a5e50df-b41e-4f02-bf9f-db28b66f7a62" componentID="Audition.Mute" id="clipMute" name="Mute" powered="true">
            <parameter index="0" parameterValue="0"/>
            <parameter index="1" name="mute" parameterValue="0"/>
          </component>
          <component componentGuid="0a323a07-129d-43d3-9a1e-e6d5ff905464" componentID="Audition.StereoPanner" id="clipPan" name="StereoPanner" powered="true">
            <parameter index="0" name="Pan" parameterValue="0"/>
          </component>
          <fadeIn crossFadeLinkType="linkedAsymmetric" endPoint="0" shape="19" startPoint="0" type="log"/>
          <fadeOut crossFadeLinkType="linkedAsymmetric" endPoint="82695" shape="19" startPoint="82695" type="log"/>
          <take sourceInPoint="0"/>
          <editParameter parameterIndex="0" slotIndex="4294967281"/>
          <editParameter parameterIndex="0" slotIndex="4294967280"/>
          <channelMap>
            <channel index="0" sourceIndex="0"/>
          </channelMap>
        </audioClip>
        <audioClip clipAutoCrossfade="true" crossFadeHeadClipID="-1" crossFadeTailClipID="-1" endPoint="3023178" fileID="44" hue="-1" id="23" lockedInTime="false" looped="false" name="William_194" offline="false" select="false" sourceInPoint="105557" sourceOutPoint="210257" startPoint="2918478" zOrder="2145914120">
          <component componentGuid="bb0c6b28-7e9f-4682-95b3-1ff5b3b9a850" componentID="Audition.Fader" id="clipGain" name="volume" powered="true">
            <parameter index="0" name="volume" parameterValue="1.587661"/>
            <parameter index="1" name="static gain" parameterValue="1"/>
          </component>
          <component componentGuid="f384a358-edee-41d3-b7ce-46fbfee107de" componentID="Audition.Mute" id="clipMute" name="Mute" powered="true">
            <parameter index="0" parameterValue="0"/>
            <parameter index="1" name="mute" parameterValue="0"/>
          </component>
          <component componentGuid="f54a5488-3314-4233-bbf0-eaa140c0fcf0" componentID="Audition.StereoPanner" id="clipPan" name="StereoPanner" powered="true">
            <parameter index="0" name="Pan" parameterValue="0"/>
          </component>
          <fadeIn crossFadeLinkType="linkedAsymmetric" endPoint="0" shape="19" startPoint="0" type="log"/>
          <fadeOut crossFadeLinkType="linkedAsymmetric" endPoint="104700" shape="9" startPoint="90752" type="log"/>
          <take sourceInPoint="0"/>
          <editParameter parameterIndex="0" slotIndex="4294967281"/>
          <editParameter parameterIndex="0" slotIndex="4294967280"/>
          <channelMap>
            <channel index="0" sourceIndex="0"/>
          </channelMap>
        </audioClip>
        <audioClip clipAutoCrossfade="true" crossFadeHeadClipID="-1" crossFadeTailClipID="-1" endPoint="3159929" fileID="44" hue="-1" id="24" lockedInTime="false" looped="false" name="William_194" offline="false" select="false" sourceInPoint="239073" sourceOutPoint="312002" startPoint="3087000" zOrder="2145914124">
          <component componentGuid="7d1b13e2-5c2d-4525-a519-5ffb761cddbe" componentID="Audition.Fader" id="clipGain" name="volume" powered="true">
            <parameter index="0" name="volume" parameterValue="1.5876639"/>
            <parameter index="1" name="static gain" parameterValue="1"/>
          </component>
          <component componentGuid="793ebb79-692c-4bdf-9fb9-43f1dec0cec3" componentID="Audition.Mute" id="clipMute" name="Mute" powered="true">
            <parameter index="0" parameterValue="0"/>
            <parameter index="1" name="mute" parameterValue="0"/>
          </component>
          <component componentGuid="29386df1-b68b-4a32-8d91-4fae3ed33b89" componentID="Audition.StereoPanner" id="clipPan" name="StereoPanner" powered="true">
            <parameter index="0" name="Pan" parameterValue="0"/>
          </component>
          <fadeIn crossFadeLinkType="linkedAsymmetric" endPoint="23247" shape="12" startPoint="0" type="log"/>
          <fadeOut crossFadeLinkType="linkedAsymmetric" endPoint="72929" shape="19" startPoint="72929" type="log"/>
          <editParameter parameterIndex="0" slotIndex="4294967281"/>
          <editParameter parameterIndex="0" slotIndex="4294967280"/>
          <channelMap>
            <channel index="0" sourceIndex="0"/>
          </channelMap>
        </audioClip>
        <audioClip clipAutoCrossfade="true" crossFadeHeadClipID="-1" crossFadeTailClipID="-1" endPoint="3295041" fileID="44" hue="-1" id="25" lockedInTime="false" looped="false" name="William_194" offline="false" select="false" sourceInPoint="780755" sourceOutPoint="915867" startPoint="3159929" zOrder="2145914128">
          <component componentGuid="2b80d224-fc18-4611-9201-6cfa70d36259" componentID="Audition.Fader" id="clipGain" name="volume" powered="true">
            <parameter index="0" name="volume" parameterValue="1.587661"/>
            <parameter index="1" name="static gain" parameterValue="1"/>
          </component>
          <component componentGuid="a342d27b-faf6-4dc1-8d2f-ad86d4b88f9c" componentID="Audition.Mute" id="clipMute" name="Mute" powered="true">
            <parameter index="0" parameterValue="0"/>
            <parameter index="1" name="mute" parameterValue="0"/>
          </component>
          <component componentGuid="f3dd266c-1c98-4d59-83bf-64a30f1f8b37" componentID="Audition.StereoPanner" id="clipPan" name="StereoPanner" powered="true">
            <parameter index="0" name="Pan" parameterValue="0"/>
          </component>
          <fadeIn crossFadeLinkType="linkedAsymmetric" endPoint="0" shape="19" startPoint="0" type="log"/>
          <fadeOut crossFadeLinkType="linkedAsymmetric" endPoint="135112" shape="0" startPoint="126719" type="log"/>
          <editParameter parameterIndex="0" slotIndex="4294967281"/>
          <editParameter parameterIndex="0" slotIndex="4294967280"/>
          <channelMap>
            <channel index="0" sourceIndex="0"/>
          </channelMap>
        </audioClip>
        <audioClip clipAutoCrossfade="true" crossFadeHeadClipID="-1" crossFadeTailClipID="-1" endPoint="3506299" fileID="35" hue="-1" id="26" lockedInTime="false" looped="false" name="Track 3_016" offline="false" select="false" sourceInPoint="407549" sourceOutPoint="447700" startPoint="3466148" zOrder="2145914271">
          <component componentGuid="2078de82-5c88-43a9-a309-cd167b1611ce" componentID="Audition.Fader" id="clipGain" name="volume" powered="true">
            <parameter index="0" name="volume" parameterValue="1.4282845">
              <parameterKeyframes enableSplines="false">
                <parameterKeyframe sampleOffset="436722" select="true" type="linear" value="0.7458858"/>
              </parameterKeyframes>
            </parameter>
            <parameter index="1" name="static gain" parameterValue="1"/>
          </component>
          <component componentGuid="932cb196-af09-4eee-a8f4-f8187a72a8e6" componentID="Audition.Mute" id="clipMute" name="Mute" powered="true">
            <parameter index="0" parameterValue="0"/>
            <parameter index="1" name="mute" parameterValue="0"/>
          </component>
          <component componentGuid="fe3c539b-8dbc-4ddd-9e5f-ba817bbbca31" componentID="Audition.StereoPanner" id="clipPan" name="StereoPanner" powered="true">
            <parameter index="0" name="Pan" parameterValue="0"/>
          </component>
          <fadeIn crossFadeLinkType="linkedAsymmetric" endPoint="9978" shape="10" startPoint="0" type="log"/>
          <fadeOut crossFadeLinkType="linkedAsymmetric" endPoint="40151" shape="19" startPoint="40151" type="log"/>
          <clipStretch adaptiveWindowSize="37" pitchAdjustment="0" preserveFormants="true" stretchMode="realtime" stretchQuality="high" stretchRatio="0.798145063434332" stretchType="solo" transientSensitivity="40"/>
          <editParameter parameterIndex="0" slotIndex="4294967281"/>
          <editParameter parameterIndex="0" slotIndex="4294967280"/>
          <channelMap>
            <channel index="0" sourceIndex="0"/>
          </channelMap>
        </audioClip>
        <audioClip clipAutoCrossfade="true" crossFadeHeadClipID="-1" crossFadeTailClipID="-1" endPoint="3796239" fileID="45" hue="-1" id="27" lockedInTime="false" looped="false" name="William_195" offline="false" select="false" sourceInPoint="501326" sourceOutPoint="791266" startPoint="3506299" zOrder="2145914268">
          <component componentGuid="e00c799b-f3a8-475b-ae32-16ad50ff80b2" componentID="Audition.Fader" id="clipGain" name="volume" powered="true">
            <parameter index="0" name="volume" parameterValue="0.3414632">
              <parameterKeyframes enableSplines="false">
                <parameterKeyframe sampleOffset="498225" select="false" type="linear" value="0.401773"/>
                <parameterKeyframe sampleOffset="500241" select="false" type="linear" value="0.7455501"/>
                <parameterKeyframe sampleOffset="516212" select="true" type="linear" value="0.7839367"/>
              </parameterKeyframes>
            </parameter>
            <parameter index="1" name="static gain" parameterValue="1"/>
          </component>
          <component componentGuid="3e4af574-cdbc-4b0e-87d5-8723f0729f68" componentID="Audition.Mute" id="clipMute" name="Mute" powered="true">
            <parameter index="0" parameterValue="0"/>
            <parameter index="1" name="mute" parameterValue="0"/>
          </component>
          <component componentGuid="05085ae3-7d35-4f4c-a884-a149eba364b9" componentID="Audition.StereoPanner" id="clipPan" name="StereoPanner" powered="true">
            <parameter index="0" name="Pan" parameterValue="0"/>
          </component>
          <fadeIn crossFadeLinkType="linkedAsymmetric" endPoint="0" shape="0" startPoint="0" type="cosine"/>
          <fadeOut crossFadeLinkType="linkedAsymmetric" endPoint="289940" shape="13" startPoint="269379" type="log"/>
          <take sourceInPoint="0"/>
          <editParameter parameterIndex="0" slotIndex="4294967281"/>
          <editParameter parameterIndex="0" slotIndex="4294967280"/>
          <channelMap>
            <channel index="0" sourceIndex="0"/>
          </channelMap>
        </audioClip>
        <audioClip clipAutoCrossfade="true" crossFadeHeadClipID="-1" crossFadeTailClipID="-1" endPoint="3966768" fileID="46" hue="-1" id="28" lockedInTime="false" looped="false" name="William_196" offline="false" select="false" sourceInPoint="699061" sourceOutPoint="798292" startPoint="3867537" zOrder="2145914269">
          <component componentGuid="d4ad2305-1eac-483f-b077-23dd7940a830" componentID="Audition.Fader" id="clipGain" name="volume" powered="true">
            <parameter index="0" name="volume" parameterValue="1.6742579"/>
            <parameter index="1" name="static gain" parameterValue="1"/>
          </component>
          <component componentGuid="0206ff8a-2c21-4f61-9abe-421d7665952f" componentID="Audition.Mute" id="clipMute" name="Mute" powered="true">
            <parameter index="0" parameterValue="0"/>
            <parameter index="1" name="mute" parameterValue="0"/>
          </component>
          <component componentGuid="ab4a643d-e46f-4955-9931-e323b35cc2db" componentID="Audition.StereoPanner" id="clipPan" name="StereoPanner" powered="true">
            <parameter index="0" name="Pan" parameterValue="0"/>
          </component>
          <fadeIn crossFadeLinkType="linkedAsymmetric" endPoint="11361" shape="19" startPoint="0" type="log"/>
          <fadeOut crossFadeLinkType="linkedAsymmetric" endPoint="99231" shape="10" startPoint="85248" type="log"/>
          <take sourceInPoint="0"/>
          <editParameter parameterIndex="0" slotIndex="4294967281"/>
          <editParameter parameterIndex="0" slotIndex="4294967280"/>
          <channelMap>
            <channel index="0" sourceIndex="0"/>
          </channelMap>
        </audioClip>
        <audioClip clipAutoCrossfade="true" crossFadeHeadClipID="-1" crossFadeTailClipID="-1" endPoint="4097351" fileID="35" hue="-1" id="29" lockedInTime="false" looped="false" name="Track 3_016" offline="false" select="false" sourceInPoint="407549" sourceOutPoint="447700" startPoint="4057200" zOrder="2145914273">
          <component componentGuid="fca260fb-dec9-4722-86f5-3dbe085777bb" componentID="Audition.Fader" id="clipGain" name="volume" powered="true">
            <parameter index="0" name="volume" parameterValue="1.4282845"/>
            <parameter index="1" name="static gain" parameterValue="1"/>
          </component>
          <component componentGuid="834ff2eb-e81a-43d7-ad8c-68c5c5153908" componentID="Audition.Mute" id="clipMute" name="Mute" powered="true">
            <parameter index="0" parameterValue="0"/>
            <parameter index="1" name="mute" parameterValue="0"/>
          </component>
          <component componentGuid="33a8ac90-c86f-43f0-9fa4-46eb703a149f" componentID="Audition.StereoPanner" id="clipPan" name="StereoPanner" powered="true">
            <parameter index="0" name="Pan" parameterValue="0"/>
          </component>
          <fadeIn crossFadeLinkType="linkedAsymmetric" endPoint="9978" shape="10" startPoint="0" type="log"/>
          <fadeOut crossFadeLinkType="linkedAsymmetric" endPoint="40151" shape="19" startPoint="40151" type="log"/>
          <clipStretch adaptiveWindowSize="37" pitchAdjustment="0" preserveFormants="true" stretchMode="realtime" stretchQuality="high" stretchRatio="0.798145063434332" stretchType="solo" transientSensitivity="40"/>
          <editParameter parameterIndex="0" slotIndex="4294967281"/>
          <editParameter parameterIndex="0" slotIndex="4294967280"/>
          <channelMap>
            <channel index="0" sourceIndex="0"/>
          </channelMap>
        </audioClip>
        <audioClip clipAutoCrossfade="true" crossFadeHeadClipID="-1" crossFadeTailClipID="-1" endPoint="4231416" fileID="47" hue="-1" id="30" lockedInTime="false" looped="false" name="William_197" offline="false" select="false" sourceInPoint="1020351" sourceOutPoint="1154416" startPoint="4097351" zOrder="2145914283">
          <component componentGuid="038cb4aa-2961-4b35-a3ba-2008ca661031" componentID="Audition.Fader" id="clipGain" name="volume" powered="true">
            <parameter index="0" name="volume" parameterValue="0.3550728">
              <parameterKeyframes enableSplines="false">
                <parameterKeyframe sampleOffset="1016226" select="false" type="linear" value="0.4088652"/>
                <parameterKeyframe sampleOffset="1019425" select="false" type="linear" value="0.7457201"/>
                <parameterKeyframe sampleOffset="1038285" select="true" type="linear" value="0.7766968"/>
              </parameterKeyframes>
            </parameter>
            <parameter index="1" name="static gain" parameterValue="1"/>
          </component>
          <component componentGuid="4c873da6-2033-4bf3-9e96-0e9d09c6880e" componentID="Audition.Mute" id="clipMute" name="Mute" powered="true">
            <parameter index="0" parameterValue="0"/>
            <parameter index="1" name="mute" parameterValue="0"/>
          </component>
          <component componentGuid="a484180a-5fdc-4f55-b459-654b33d8df09" componentID="Audition.StereoPanner" id="clipPan" name="StereoPanner" powered="true">
            <parameter index="0" name="Pan" parameterValue="0"/>
          </component>
          <fadeIn crossFadeLinkType="linkedAsymmetric" endPoint="0" shape="0" startPoint="0" type="cosine"/>
          <fadeOut crossFadeLinkType="linkedAsymmetric" endPoint="134065" shape="0" startPoint="134065" type="cosine"/>
          <editParameter parameterIndex="0" slotIndex="4294967281"/>
          <editParameter parameterIndex="0" slotIndex="4294967280"/>
          <channelMap>
            <channel index="0" sourceIndex="0"/>
          </channelMap>
        </audioClip>
        <audioClip clipAutoCrossfade="true" crossFadeHeadClipID="-1" crossFadeTailClipID="-1" endPoint="4330424" fileID="47" hue="-1" id="31" lockedInTime="false" looped="false" name="William_197" offline="false" select="false" sourceInPoint="1170538" sourceOutPoint="1269546" startPoint="4231416" zOrder="2145914280">
          <component componentGuid="79b3d44c-7304-4757-8e8e-93abaa56aa80" componentID="Audition.Fader" id="clipGain" name="volume" powered="true">
            <parameter index="0" name="volume" parameterValue="1.5981658"/>
            <parameter index="1" name="static gain" parameterValue="1"/>
          </component>
          <component componentGuid="06652222-46a3-4888-b6a0-166cc04f0412" componentID="Audition.Mute" id="clipMute" name="Mute" powered="true">
            <parameter index="0" parameterValue="0"/>
            <parameter index="1" name="mute" parameterValue="0"/>
          </component>
          <component componentGuid="5b5f20a6-d975-437f-a10c-276845b04af7" componentID="Audition.StereoPanner" id="clipPan" name="StereoPanner" powered="true">
            <parameter index="0" name="Pan" parameterValue="0"/>
          </component>
          <fadeIn crossFadeLinkType="linkedAsymmetric" endPoint="0" shape="0" startPoint="0" type="cosine"/>
          <fadeOut crossFadeLinkType="linkedAsymmetric" endPoint="99008" shape="10" startPoint="79781" type="log"/>
          <editParameter parameterIndex="0" slotIndex="4294967281"/>
          <editParameter parameterIndex="0" slotIndex="4294967280"/>
          <channelMap>
            <channel index="0" sourceIndex="0"/>
          </channelMap>
        </audioClip>
        <audioClip clipAutoCrossfade="true" crossFadeHeadClipID="-1" crossFadeTailClipID="-1" endPoint="4555461" fileID="47" hue="-1" id="32" lockedInTime="false" looped="false" name="William_197" offline="false" select="false" sourceInPoint="1561870" sourceOutPoint="1713969" startPoint="4403362" zOrder="2145914284">
          <component componentGuid="7cde8b14-453b-4545-a1cf-5dfbd762abe1" componentID="Audition.Fader" id="clipGain" name="volume" powered="true">
            <parameter index="0" name="volume" parameterValue="1.6229631"/>
            <parameter index="1" name="static gain" parameterValue="1"/>
          </component>
          <component componentGuid="e1ca4ae6-12c2-4fff-b814-a8fb725451e9" componentID="Audition.Mute" id="clipMute" name="Mute" powered="true">
            <parameter index="0" parameterValue="0"/>
            <parameter index="1" name="mute" parameterValue="0"/>
          </component>
          <component componentGuid="289d6a64-6d12-4210-9dcf-39213f808860" componentID="Audition.StereoPanner" id="clipPan" name="StereoPanner" powered="true">
            <parameter index="0" name="Pan" parameterValue="0"/>
          </component>
          <fadeIn crossFadeLinkType="linkedAsymmetric" endPoint="32898" shape="19" startPoint="0" type="log"/>
          <fadeOut crossFadeLinkType="linkedAsymmetric" endPoint="152099" shape="9" startPoint="127426" type="log"/>
          <editParameter parameterIndex="0" slotIndex="4294967281"/>
          <editParameter parameterIndex="0" slotIndex="4294967280"/>
          <channelMap>
            <channel index="0" sourceIndex="0"/>
          </channelMap>
        </audioClip>
        <audioClip clipAutoCrossfade="true" crossFadeHeadClipID="-1" crossFadeTailClipID="34" endPoint="4714751" fileID="35" hue="-1" id="33" lockedInTime="false" looped="false" name="Track 3_016" offline="false" select="false" sourceInPoint="407549" sourceOutPoint="447700" startPoint="4674600" zOrder="2145914286">
          <component componentGuid="53d56c84-0dea-4220-ac6c-8f65f350e510" componentID="Audition.Fader" id="clipGain" name="volume" powered="true">
            <parameter index="0" name="volume" parameterValue="1.4282845"/>
            <parameter index="1" name="static gain" parameterValue="1"/>
          </component>
          <component componentGuid="762c690c-6b75-4006-8956-b91ffec47fa5" componentID="Audition.Mute" id="clipMute" name="Mute" powered="true">
            <parameter index="0" parameterValue="0"/>
            <parameter index="1" name="mute" parameterValue="0"/>
          </component>
          <component componentGuid="5d5f86cf-edcc-4415-87a8-cad6134f060f" componentID="Audition.StereoPanner" id="clipPan" name="StereoPanner" powered="true">
            <parameter index="0" name="Pan" parameterValue="0"/>
          </component>
          <fadeIn crossFadeLinkType="linkedAsymmetric" endPoint="9978" shape="10" startPoint="0" type="log"/>
          <fadeOut crossFadeLinkType="linkedAsymmetric" endPoint="40151" shape="19" startPoint="39367" type="log"/>
          <clipStretch adaptiveWindowSize="37" pitchAdjustment="0" preserveFormants="true" stretchMode="realtime" stretchQuality="high" stretchRatio="0.798145063434332" stretchType="solo" transientSensitivity="40"/>
          <editParameter parameterIndex="0" slotIndex="4294967281"/>
          <editParameter parameterIndex="0" slotIndex="4294967280"/>
          <channelMap>
            <channel index="0" sourceIndex="0"/>
          </channelMap>
        </audioClip>
        <audioClip clipAutoCrossfade="true" crossFadeHeadClipID="33" crossFadeTailClipID="-1" endPoint="4804651" fileID="48" hue="-1" id="34" lockedInTime="false" looped="false" name="William_199" offline="false" select="false" sourceInPoint="823191" sourceOutPoint="913875" startPoint="4713967" zOrder="2145914297">
          <component componentGuid="a6425719-a391-42be-a351-c4c1b5a1e3ba" componentID="Audition.Fader" id="clipGain" name="volume" powered="true">
            <parameter index="0" name="volume" parameterValue="0.3281468">
              <parameterKeyframes enableSplines="false">
                <parameterKeyframe sampleOffset="806376" select="false" type="linear" value="0.3946808"/>
                <parameterKeyframe sampleOffset="822750" select="false" type="linear" value="0.7466513"/>
                <parameterKeyframe sampleOffset="847844" select="true" type="linear" value="0.7585972"/>
              </parameterKeyframes>
            </parameter>
            <parameter index="1" name="static gain" parameterValue="1"/>
          </component>
          <component componentGuid="80f694c1-2ed1-4d8a-a946-49600915e281" componentID="Audition.Mute" id="clipMute" name="Mute" powered="true">
            <parameter index="0" parameterValue="0"/>
            <parameter index="1" name="mute" parameterValue="0"/>
          </component>
          <component componentGuid="7f66f495-fee1-495b-9bb8-9e2b2e3521c0" componentID="Audition.StereoPanner" id="clipPan" name="StereoPanner" powered="true">
            <parameter index="0" name="Pan" parameterValue="0"/>
          </component>
          <fadeIn crossFadeLinkType="linkedAsymmetric" endPoint="784" shape="18" startPoint="0" type="log"/>
          <fadeOut crossFadeLinkType="linkedAsymmetric" endPoint="90684" shape="10" startPoint="69041" type="log"/>
          <editParameter parameterIndex="0" slotIndex="4294967281"/>
          <editParameter parameterIndex="0" slotIndex="4294967280"/>
          <channelMap>
            <channel index="0" sourceIndex="0"/>
          </channelMap>
        </audioClip>
        <audioClip clipAutoCrossfade="true" crossFadeHeadClipID="-1" crossFadeTailClipID="-1" endPoint="4939200" fileID="48" hue="-1" id="35" lockedInTime="false" looped="false" name="William_199" offline="false" select="false" sourceInPoint="1136847" sourceOutPoint="1205797" startPoint="4870250" zOrder="2145914298">
          <component componentGuid="7021e1d4-56ba-48bc-ac15-d244897b06cf" componentID="Audition.Fader" id="clipGain" name="volume" powered="true">
            <parameter index="0" name="volume" parameterValue="1.4820474"/>
            <parameter index="1" name="static gain" parameterValue="1"/>
          </component>
          <component componentGuid="42612116-3bc9-4e1e-bf0d-0f58d76f9659" componentID="Audition.Mute" id="clipMute" name="Mute" powered="true">
            <parameter index="0" parameterValue="0"/>
            <parameter index="1" name="mute" parameterValue="0"/>
          </component>
          <component componentGuid="03f41c0f-58a1-43ac-b547-8ff5a5a937a2" componentID="Audition.StereoPanner" id="clipPan" name="StereoPanner" powered="true">
            <parameter index="0" name="Pan" parameterValue="0"/>
          </component>
          <fadeIn crossFadeLinkType="linkedAsymmetric" endPoint="10074" shape="14" startPoint="0" type="log"/>
          <fadeOut crossFadeLinkType="linkedAsymmetric" endPoint="68950" shape="-20" startPoint="63036" type="log"/>
          <editParameter parameterIndex="0" slotIndex="4294967281"/>
          <editParameter parameterIndex="0" slotIndex="4294967280"/>
          <channelMap>
            <channel index="0" sourceIndex="0"/>
          </channelMap>
        </audioClip>
        <audioClip clipAutoCrossfade="true" crossFadeHeadClipID="-1" crossFadeTailClipID="-1" endPoint="5088410" fileID="35" hue="-1" id="36" lockedInTime="false" looped="false" name="Track 3_016" offline="false" select="false" sourceInPoint="407549" sourceOutPoint="447700" startPoint="5048259" zOrder="2145914300">
          <component componentGuid="43ca1204-7c1f-4dbf-9233-af8c7d7fe16e" componentID="Audition.Fader" id="clipGain" name="volume" powered="true">
            <parameter index="0" name="volume" parameterValue="1.4282855"/>
            <parameter index="1" name="static gain" parameterValue="1"/>
          </component>
          <component componentGuid="8f8167c5-248e-4efc-9ccf-3621e4dd4096" componentID="Audition.Mute" id="clipMute" name="Mute" powered="true">
            <parameter index="0" parameterValue="0"/>
            <parameter index="1" name="mute" parameterValue="0"/>
          </component>
          <component componentGuid="0c07cd10-4a05-4540-a9ec-bb4dd3b6bda2" componentID="Audition.StereoPanner" id="clipPan" name="StereoPanner" powered="true">
            <parameter index="0" name="Pan" parameterValue="0"/>
          </component>
          <fadeIn crossFadeLinkType="linkedAsymmetric" endPoint="9978" shape="10" startPoint="0" type="log"/>
          <fadeOut crossFadeLinkType="linkedAsymmetric" endPoint="40151" shape="19" startPoint="40151" type="log"/>
          <clipStretch adaptiveWindowSize="37" pitchAdjustment="0" preserveFormants="true" stretchMode="realtime" stretchQuality="high" stretchRatio="0.798145063434332" stretchType="solo" transientSensitivity="40"/>
          <editParameter parameterIndex="0" slotIndex="4294967281"/>
          <editParameter parameterIndex="0" slotIndex="4294967280"/>
          <channelMap>
            <channel index="0" sourceIndex="0"/>
          </channelMap>
        </audioClip>
        <audioClip clipAutoCrossfade="true" crossFadeHeadClipID="-1" crossFadeTailClipID="-1" endPoint="5252770" fileID="49" hue="-1" id="37" lockedInTime="false" looped="false" name="William_202" offline="false" select="false" sourceInPoint="457009" sourceOutPoint="621369" startPoint="5088410" zOrder="2145914310">
          <component componentGuid="ba095865-f0c1-4afc-8064-ed7578a72c1c" componentID="Audition.Fader" id="clipGain" name="volume" powered="true">
            <parameter index="0" name="volume" parameterValue="0.4050319">
              <parameterKeyframes enableSplines="false">
                <parameterKeyframe sampleOffset="452357" select="false" type="linear" value="0.4336879"/>
                <parameterKeyframe sampleOffset="454094" select="false" type="linear" value="0.7415589"/>
                <parameterKeyframe sampleOffset="482664" select="true" type="linear" value="0.769457"/>
              </parameterKeyframes>
            </parameter>
            <parameter index="1" name="static gain" parameterValue="1"/>
          </component>
          <component componentGuid="34e4283c-87d5-4453-90b9-147a0b9f03cd" componentID="Audition.Mute" id="clipMute" name="Mute" powered="true">
            <parameter index="0" parameterValue="0"/>
            <parameter index="1" name="mute" parameterValue="0"/>
          </component>
          <component componentGuid="e378727b-f689-4d81-a94f-2740ae5e47d4" componentID="Audition.StereoPanner" id="clipPan" name="StereoPanner" powered="true">
            <parameter index="0" name="Pan" parameterValue="0"/>
          </component>
          <fadeIn crossFadeLinkType="linkedAsymmetric" endPoint="0" shape="0" startPoint="0" type="cosine"/>
          <fadeOut crossFadeLinkType="linkedAsymmetric" endPoint="164360" shape="13" startPoint="138788" type="log"/>
          <editParameter parameterIndex="0" slotIndex="4294967281"/>
          <editParameter parameterIndex="0" slotIndex="4294967280"/>
          <channelMap>
            <channel index="0" sourceIndex="0"/>
          </channelMap>
        </audioClip>
        <audioClip clipAutoCrossfade="true" crossFadeHeadClipID="-1" crossFadeTailClipID="-1" endPoint="5344456" fileID="49" hue="-1" id="38" lockedInTime="false" looped="false" name="William_202" offline="false" select="false" sourceInPoint="997433" sourceOutPoint="1043772" startPoint="5298117" zOrder="2145914305">
          <component componentGuid="764d0d41-cd25-4524-bf6e-3fa8520ad5c3" componentID="Audition.Fader" id="clipGain" name="volume" powered="true">
            <parameter index="0" name="volume" parameterValue="1.5269811"/>
            <parameter index="1" name="static gain" parameterValue="1"/>
          </component>
          <component componentGuid="01e6505b-017e-4946-8833-6cfae1a9850b" componentID="Audition.Mute" id="clipMute" name="Mute" powered="true">
            <parameter index="0" parameterValue="0"/>
            <parameter index="1" name="mute" parameterValue="0"/>
          </component>
          <component componentGuid="b3df219a-5f0c-43eb-b345-b554b8247329" componentID="Audition.StereoPanner" id="clipPan" name="StereoPanner" powered="true">
            <parameter index="0" name="Pan" parameterValue="0"/>
          </component>
          <fadeIn crossFadeLinkType="linkedAsymmetric" endPoint="18659" shape="19" startPoint="0" type="log"/>
          <fadeOut crossFadeLinkType="linkedAsymmetric" endPoint="46339" shape="8" startPoint="46339" type="log"/>
          <editParameter parameterIndex="0" slotIndex="4294967281"/>
          <editParameter parameterIndex="0" slotIndex="4294967280"/>
          <channelMap>
            <channel index="0" sourceIndex="0"/>
          </channelMap>
        </audioClip>
        <audioClip clipAutoCrossfade="true" crossFadeHeadClipID="-1" crossFadeTailClipID="-1" endPoint="5407382" fileID="49" hue="-1" id="39" lockedInTime="false" looped="false" name="William_202" offline="false" select="false" sourceInPoint="1053385" sourceOutPoint="1116311" startPoint="5344456" zOrder="2145914307">
          <component componentGuid="5cb276f3-a6c7-4988-8804-318d0e8f1e1f" componentID="Audition.Fader" id="clipGain" name="volume" powered="true">
            <parameter index="0" name="volume" parameterValue="1.5501904"/>
            <parameter index="1" name="static gain" parameterValue="1"/>
          </component>
          <component componentGuid="ec5ab240-43ef-4744-8846-d005af94ae44" componentID="Audition.Mute" id="clipMute" name="Mute" powered="true">
            <parameter index="0" parameterValue="0"/>
            <parameter index="1" name="mute" parameterValue="0"/>
          </component>
          <component componentGuid="778af41e-c10e-4aa2-8fb3-0fd45edc2066" componentID="Audition.StereoPanner" id="clipPan" name="StereoPanner" powered="true">
            <parameter index="0" name="Pan" parameterValue="0"/>
          </component>
          <fadeIn crossFadeLinkType="linkedAsymmetric" endPoint="0" shape="0" startPoint="0" type="cosine"/>
          <fadeOut crossFadeLinkType="linkedAsymmetric" endPoint="62926" shape="8" startPoint="62926" type="log"/>
          <editParameter parameterIndex="0" slotIndex="4294967281"/>
          <editParameter parameterIndex="0" slotIndex="4294967280"/>
          <channelMap>
            <channel index="0" sourceIndex="0"/>
          </channelMap>
        </audioClip>
        <audioClip clipAutoCrossfade="true" crossFadeHeadClipID="-1" crossFadeTailClipID="-1" endPoint="5462472" fileID="49" hue="-1" id="40" lockedInTime="false" looped="false" name="William_202" offline="false" select="false" sourceInPoint="1124655" sourceOutPoint="1179745" startPoint="5407382" zOrder="2145914311">
          <component componentGuid="1a45ff2f-4ec6-4e78-b0ed-64dc48b8129e" componentID="Audition.Fader" id="clipGain" name="volume" powered="true">
            <parameter index="0" name="volume" parameterValue="1.5981658"/>
            <parameter index="1" name="static gain" parameterValue="1"/>
          </component>
          <component componentGuid="db981c1c-ca4e-4f3d-9174-664a5de3bf0d" componentID="Audition.Mute" id="clipMute" name="Mute" powered="true">
            <parameter index="0" parameterValue="0"/>
            <parameter index="1" name="mute" parameterValue="0"/>
          </component>
          <component componentGuid="12fa85c2-882c-4ee3-85c7-0c52ea55c1d0" componentID="Audition.StereoPanner" id="clipPan" name="StereoPanner" powered="true">
            <parameter index="0" name="Pan" parameterValue="0"/>
          </component>
          <fadeIn crossFadeLinkType="linkedAsymmetric" endPoint="0" shape="0" startPoint="0" type="cosine"/>
          <fadeOut crossFadeLinkType="linkedAsymmetric" endPoint="55090" shape="8" startPoint="44960" type="log"/>
          <editParameter parameterIndex="0" slotIndex="4294967281"/>
          <editParameter parameterIndex="0" slotIndex="4294967280"/>
          <channelMap>
            <channel index="0" sourceIndex="0"/>
          </channelMap>
        </audioClip>
        <audioClip clipAutoCrossfade="true" crossFadeHeadClipID="-1" crossFadeTailClipID="-1" endPoint="5813726" fileID="35" hue="-1" id="41" lockedInTime="false" looped="false" name="Track 3_016" offline="false" select="false" sourceInPoint="407549" sourceOutPoint="447700" startPoint="5773575" zOrder="2145914313">
          <component componentGuid="c640f851-eff0-401f-a8a4-7c26292574f8" componentID="Audition.Fader" id="clipGain" name="volume" powered="true">
            <parameter index="0" name="volume" parameterValue="1.3387828"/>
            <parameter index="1" name="static gain" parameterValue="1"/>
          </component>
          <component componentGuid="56aad1a2-df6c-4f7d-a79e-9ae8b280ee9e" componentID="Audition.Mute" id="clipMute" name="Mute" powered="true">
            <parameter index="0" parameterValue="0"/>
            <parameter index="1" name="mute" parameterValue="0"/>
          </component>
          <component componentGuid="79a61bce-c6e0-4ccb-85a6-cbf18a7e2d81" componentID="Audition.StereoPanner" id="clipPan" name="StereoPanner" powered="true">
            <parameter index="0" name="Pan" parameterValue="0"/>
          </component>
          <fadeIn crossFadeLinkType="linkedAsymmetric" endPoint="9978" shape="10" startPoint="0" type="log"/>
          <fadeOut crossFadeLinkType="linkedAsymmetric" endPoint="40151" shape="19" startPoint="40151" type="log"/>
          <clipStretch adaptiveWindowSize="37" pitchAdjustment="0" preserveFormants="true" stretchMode="realtime" stretchQuality="high" stretchRatio="0.798145063434332" stretchType="solo" transientSensitivity="40"/>
          <editParameter parameterIndex="0" slotIndex="4294967281"/>
          <editParameter parameterIndex="0" slotIndex="4294967280"/>
          <channelMap>
            <channel index="0" sourceIndex="0"/>
          </channelMap>
        </audioClip>
        <audioClip clipAutoCrossfade="true" crossFadeHeadClipID="-1" crossFadeTailClipID="-1" endPoint="6094520" fileID="50" hue="-1" id="42" lockedInTime="false" looped="false" name="William_207" offline="false" select="false" sourceInPoint="467872" sourceOutPoint="748666" startPoint="5813726" zOrder="2145914319">
          <component componentGuid="26330895-6691-4178-986c-63df335be1d7" componentID="Audition.Fader" id="clipGain" name="volume" powered="true">
            <parameter index="0" name="volume" parameterValue="0.3689767">
              <parameterKeyframes enableSplines="false">
                <parameterKeyframe sampleOffset="457300" select="false" type="linear" value="0.4159574"/>
                <parameterKeyframe sampleOffset="467435" select="false" type="linear" value="0.7327464"/>
                <parameterKeyframe sampleOffset="493127" select="true" type="linear" value="0.8038463"/>
              </parameterKeyframes>
            </parameter>
            <parameter index="1" name="static gain" parameterValue="1"/>
          </component>
          <component componentGuid="3c480569-f247-4b2c-9b22-16e57e030d71" componentID="Audition.Mute" id="clipMute" name="Mute" powered="true">
            <parameter index="0" parameterValue="0"/>
            <parameter index="1" name="mute" parameterValue="0"/>
          </component>
          <component componentGuid="6d7b1a19-9d77-4a7a-a367-503dec81c043" componentID="Audition.StereoPanner" id="clipPan" name="StereoPanner" powered="true">
            <parameter index="0" name="Pan" parameterValue="0"/>
          </component>
          <fadeIn crossFadeLinkType="linkedAsymmetric" endPoint="0" shape="18" startPoint="0" type="log"/>
          <fadeOut crossFadeLinkType="linkedAsymmetric" endPoint="280794" shape="0" startPoint="268330" type="log"/>
          <editParameter parameterIndex="0" slotIndex="4294967281"/>
          <editParameter parameterIndex="0" slotIndex="4294967280"/>
          <channelMap>
            <channel index="0" sourceIndex="0"/>
          </channelMap>
        </audioClip>
        <audioClip clipAutoCrossfade="true" crossFadeHeadClipID="-1" crossFadeTailClipID="-1" endPoint="6629158" fileID="51" hue="-1" id="43" lockedInTime="false" looped="false" name="William_211" offline="false" select="false" sourceInPoint="24611" sourceOutPoint="437369" startPoint="6216400" zOrder="2145914334">
          <component componentGuid="738e00dc-05f8-4a5e-995b-fe5f676eaa68" componentID="Audition.Fader" id="clipGain" name="volume" powered="true">
            <parameter index="0" name="volume" parameterValue="1.8280414"/>
            <parameter index="1" name="static gain" parameterValue="1"/>
          </component>
          <component componentGuid="99edacce-d4e0-4d3e-8f98-0afe9c6838db" componentID="Audition.Mute" id="clipMute" name="Mute" powered="true">
            <parameter index="0" parameterValue="0"/>
            <parameter index="1" name="mute" parameterValue="0"/>
          </component>
          <component componentGuid="10d64c3a-f1b8-40b4-8013-ab91313c46c3" componentID="Audition.StereoPanner" id="clipPan" name="StereoPanner" powered="true">
            <parameter index="0" name="Pan" parameterValue="0"/>
          </component>
          <fadeIn crossFadeLinkType="linkedAsymmetric" endPoint="41020" shape="7" startPoint="0" type="log"/>
          <fadeOut crossFadeLinkType="linkedAsymmetric" endPoint="412758" shape="19" startPoint="395733" type="log"/>
          <take sourceInPoint="0"/>
          <editParameter parameterIndex="0" slotIndex="4294967281"/>
          <editParameter parameterIndex="0" slotIndex="4294967280"/>
          <channelMap>
            <channel index="0" sourceIndex="0"/>
          </channelMap>
        </audioClip>
        <audioClip clipAutoCrossfade="true" crossFadeHeadClipID="-1" crossFadeTailClipID="-1" endPoint="6955938" fileID="52" hue="-1" id="44" lockedInTime="false" looped="false" name="William_210" offline="false" select="false" sourceInPoint="426923" sourceOutPoint="753703" startPoint="6629158" zOrder="2145914342">
          <component componentGuid="6a3fde2b-d839-448c-932a-aecffe780cd6" componentID="Audition.Fader" id="clipGain" name="volume" powered="true">
            <parameter index="0" name="volume" parameterValue="1.9153501"/>
            <parameter index="1" name="static gain" parameterValue="1"/>
          </component>
          <component componentGuid="33b34153-e796-42a5-bc43-571c7c76e2fa" componentID="Audition.Mute" id="clipMute" name="Mute" powered="true">
            <parameter index="0" parameterValue="0"/>
            <parameter index="1" name="mute" parameterValue="0"/>
          </component>
          <component componentGuid="5b8b8958-aaab-4b17-9b3f-539bfdeb1ced" componentID="Audition.StereoPanner" id="clipPan" name="StereoPanner" powered="true">
            <parameter index="0" name="Pan" parameterValue="0"/>
          </component>
          <fadeIn crossFadeLinkType="linkedAsymmetric" endPoint="21565" shape="19" startPoint="0" type="log"/>
          <fadeOut crossFadeLinkType="linkedAsymmetric" endPoint="326780" shape="19" startPoint="307485" type="log"/>
          <take sourceInPoint="0"/>
          <editParameter parameterIndex="0" slotIndex="4294967281"/>
          <editParameter parameterIndex="0" slotIndex="4294967280"/>
          <channelMap>
            <channel index="0" sourceIndex="0"/>
          </channelMap>
        </audioClip>
        <audioClip clipAutoCrossfade="true" crossFadeHeadClipID="-1" crossFadeTailClipID="-1" endPoint="7372665" fileID="52" hue="-1" id="45" lockedInTime="false" looped="false" name="William_210" offline="false" select="false" sourceInPoint="753703" sourceOutPoint="1170430" startPoint="6955938" zOrder="2145914345">
          <component componentGuid="4acaf41c-4665-462b-b7d6-5ccf1d3f11ec" componentID="Audition.Fader" id="clipGain" name="volume" powered="true">
            <parameter index="0" name="volume" parameterValue="1.9153501"/>
            <parameter index="1" name="static gain" parameterValue="1"/>
          </component>
          <component componentGuid="6f256d7e-b020-4f2d-91f3-d3e2a5c6d556" componentID="Audition.Mute" id="clipMute" name="Mute" powered="true">
            <parameter index="0" parameterValue="0"/>
            <parameter index="1" name="mute" parameterValue="0"/>
          </component>
          <component componentGuid="8b9ce7c4-60b6-416f-a10d-23f8fdc3ca97" componentID="Audition.StereoPanner" id="clipPan" name="StereoPanner" powered="true">
            <parameter index="0" name="Pan" parameterValue="0"/>
          </component>
          <fadeIn crossFadeLinkType="linkedAsymmetric" endPoint="22700" shape="19" startPoint="0" type="log"/>
          <fadeOut crossFadeLinkType="linkedAsymmetric" endPoint="416727" shape="24" startPoint="386235" type="log"/>
          <editParameter parameterIndex="0" slotIndex="4294967281"/>
          <editParameter parameterIndex="0" slotIndex="4294967280"/>
          <channelMap>
            <channel index="0" sourceIndex="0"/>
          </channelMap>
        </audioClip>
        <audioClip clipAutoCrossfade="true" crossFadeHeadClipID="-1" crossFadeTailClipID="-1" endPoint="7848455" fileID="53" hue="-1" id="46" lockedInTime="false" looped="false" name="William_213" offline="false" select="false" sourceInPoint="71440" sourceOutPoint="435098" startPoint="7484797" zOrder="2145914354">
          <component componentGuid="0810be78-55fd-453c-8836-11525dc6ac81" componentID="Audition.Fader" id="clipGain" name="volume" powered="true">
            <parameter index="0" name="volume" parameterValue="2.1090512">
              <parameterKeyframes enableSplines="false">
                <parameterKeyframe sampleOffset="143874" select="true" type="linear" value="0.8346152"/>
              </parameterKeyframes>
            </parameter>
            <parameter index="1" name="static gain" parameterValue="1"/>
          </component>
          <component componentGuid="d0a0e7b6-fa0a-4c95-a04f-31301185808c" componentID="Audition.Mute" id="clipMute" name="Mute" powered="true">
            <parameter index="0" parameterValue="0"/>
            <parameter index="1" name="mute" parameterValue="0"/>
          </component>
          <component componentGuid="16b05893-5d7c-4e00-b9b0-cc2ea6e40b1d" componentID="Audition.StereoPanner" id="clipPan" name="StereoPanner" powered="true">
            <parameter index="0" name="Pan" parameterValue="0"/>
          </component>
          <fadeIn crossFadeLinkType="linkedAsymmetric" endPoint="61830" shape="14" startPoint="0" type="log"/>
          <fadeOut crossFadeLinkType="linkedAsymmetric" endPoint="363658" shape="14" startPoint="330979" type="log"/>
          <take sourceInPoint="0"/>
          <editParameter parameterIndex="0" slotIndex="4294967281"/>
          <editParameter parameterIndex="0" slotIndex="4294967280"/>
          <channelMap>
            <channel index="0" sourceIndex="0"/>
          </channelMap>
        </audioClip>
        <audioClip clipAutoCrossfade="true" crossFadeHeadClipID="-1" crossFadeTailClipID="-1" endPoint="8151420" fileID="54" hue="-1" id="47" lockedInTime="false" looped="false" name="William_216" offline="false" select="false" sourceInPoint="109347" sourceOutPoint="257284" startPoint="8003483" zOrder="2145914361">
          <component componentGuid="2b7fa491-c58c-4159-a34d-b7774977b377" componentID="Audition.Fader" id="clipGain" name="volume" powered="true">
            <parameter index="0" name="volume" parameterValue="2.1090512"/>
            <parameter index="1" name="static gain" parameterValue="1"/>
          </component>
          <component componentGuid="2f1b773d-3e50-4a4b-8899-83f083a9865c" componentID="Audition.Mute" id="clipMute" name="Mute" powered="true">
            <parameter index="0" parameterValue="0"/>
            <parameter index="1" name="mute" parameterValue="0"/>
          </component>
          <component componentGuid="5e4d2815-4d5b-44d0-83ee-b1497951f781" componentID="Audition.StereoPanner" id="clipPan" name="StereoPanner" powered="true">
            <parameter index="0" name="Pan" parameterValue="0"/>
          </component>
          <fadeIn crossFadeLinkType="linkedAsymmetric" endPoint="20922" shape="19" startPoint="0" type="log"/>
          <fadeOut crossFadeLinkType="linkedAsymmetric" endPoint="147937" shape="19" startPoint="147937" type="log"/>
          <take sourceInPoint="0"/>
          <editParameter parameterIndex="0" slotIndex="4294967281"/>
          <editParameter parameterIndex="0" slotIndex="4294967280"/>
          <channelMap>
            <channel index="0" sourceIndex="0"/>
          </channelMap>
        </audioClip>
        <audioClip clipAutoCrossfade="true" crossFadeHeadClipID="-1" crossFadeTailClipID="-1" endPoint="8244350" fileID="55" hue="-1" id="48" lockedInTime="false" looped="false" name="William_214" offline="false" select="false" sourceInPoint="758693" sourceOutPoint="851623" startPoint="8151420" zOrder="2145914358">
          <component componentGuid="d2884065-2b3c-48b3-be2f-cd683e942498" componentID="Audition.Fader" id="clipGain" name="volume" powered="true">
            <parameter index="0" name="volume" parameterValue="2.0088222"/>
            <parameter index="1" name="static gain" parameterValue="1"/>
          </component>
          <component componentGuid="2594fff4-cde4-4dc7-a86d-3c253ee7b6cd" componentID="Audition.Mute" id="clipMute" name="Mute" powered="true">
            <parameter index="0" parameterValue="0"/>
            <parameter index="1" name="mute" parameterValue="0"/>
          </component>
          <component componentGuid="c01e24c6-5b68-4325-88d4-7cf4ad0fb4fa" componentID="Audition.StereoPanner" id="clipPan" name="StereoPanner" powered="true">
            <parameter index="0" name="Pan" parameterValue="0"/>
          </component>
          <fadeIn crossFadeLinkType="linkedAsymmetric" endPoint="0" shape="19" startPoint="0" type="log"/>
          <fadeOut crossFadeLinkType="linkedAsymmetric" endPoint="92930" shape="19" startPoint="73635" type="log"/>
          <take sourceInPoint="0"/>
          <editParameter parameterIndex="0" slotIndex="4294967281"/>
          <editParameter parameterIndex="0" slotIndex="4294967280"/>
          <channelMap>
            <channel index="0" sourceIndex="0"/>
          </channelMap>
        </audioClip>
        <audioClip clipAutoCrossfade="true" crossFadeHeadClipID="-1" crossFadeTailClipID="-1" endPoint="8512490" fileID="55" hue="-1" id="49" lockedInTime="false" looped="false" name="William_214" offline="false" select="false" sourceInPoint="851623" sourceOutPoint="1119763" startPoint="8244350" zOrder="2145914363">
          <component componentGuid="fde9f2a8-71b1-4f07-b395-ca6253fba1d4" componentID="Audition.Fader" id="clipGain" name="volume" powered="true">
            <parameter index="0" name="volume" parameterValue="2.0088222"/>
            <parameter index="1" name="static gain" parameterValue="1"/>
          </component>
          <component componentGuid="f343514d-cce0-479d-90df-95a1369c666c" componentID="Audition.Mute" id="clipMute" name="Mute" powered="true">
            <parameter index="0" parameterValue="0"/>
            <parameter index="1" name="mute" parameterValue="0"/>
          </component>
          <component componentGuid="839e3b87-c698-47d1-96d4-14d1d0cde3b8" componentID="Audition.StereoPanner" id="clipPan" name="StereoPanner" powered="true">
            <parameter index="0" name="Pan" parameterValue="0"/>
          </component>
          <fadeIn crossFadeLinkType="linkedAsymmetric" endPoint="19295" shape="19" startPoint="0" type="log"/>
          <fadeOut crossFadeLinkType="linkedAsymmetric" endPoint="268140" shape="9" startPoint="249542" type="log"/>
          <editParameter parameterIndex="0" slotIndex="4294967281"/>
          <editParameter parameterIndex="0" slotIndex="4294967280"/>
          <channelMap>
            <channel index="0" sourceIndex="0"/>
          </channelMap>
        </audioClip>
        <audioClip clipAutoCrossfade="true" crossFadeHeadClipID="-1" crossFadeTailClipID="-1" endPoint="8857419" fileID="56" hue="-1" id="50" lockedInTime="false" looped="false" name="William_219" offline="false" select="false" sourceInPoint="61647" sourceOutPoint="309451" startPoint="8609615" zOrder="2145914388">
          <component componentGuid="c15dff11-346c-4b38-94a6-10a15d490137" componentID="Audition.Fader" id="clipGain" name="volume" powered="true">
            <parameter index="0" name="volume" parameterValue="1.8280414"/>
            <parameter index="1" name="static gain" parameterValue="1"/>
          </component>
          <component componentGuid="e3970c7c-db51-41f6-989f-e0f138c83097" componentID="Audition.Mute" id="clipMute" name="Mute" powered="true">
            <parameter index="0" parameterValue="0"/>
            <parameter index="1" name="mute" parameterValue="0"/>
          </component>
          <component componentGuid="2aa18ab9-50c5-48bd-88fc-3a35104e4405" componentID="Audition.StereoPanner" id="clipPan" name="StereoPanner" powered="true">
            <parameter index="0" name="Pan" parameterValue="0"/>
          </component>
          <fadeIn crossFadeLinkType="linkedAsymmetric" endPoint="141539" shape="14" startPoint="0" type="log"/>
          <fadeOut crossFadeLinkType="linkedAsymmetric" endPoint="247804" shape="19" startPoint="235319" type="log"/>
          <take sourceInPoint="0"/>
          <editParameter parameterIndex="0" slotIndex="4294967281"/>
          <editParameter parameterIndex="0" slotIndex="4294967280"/>
          <channelMap>
            <channel index="0" sourceIndex="0"/>
          </channelMap>
        </audioClip>
        <audioClip clipAutoCrossfade="true" crossFadeHeadClipID="-1" crossFadeTailClipID="-1" endPoint="9177199" fileID="56" hue="-1" id="51" lockedInTime="false" looped="false" name="William_219" offline="false" select="false" sourceInPoint="309451" sourceOutPoint="629231" startPoint="8857419" zOrder="2145914399">
          <component componentGuid="e0647658-44cc-45ad-a725-1682e875aeb5" componentID="Audition.Fader" id="clipGain" name="volume" powered="true">
            <parameter index="0" name="volume" parameterValue="1.8280414"/>
            <parameter index="1" name="static gain" parameterValue="1"/>
          </component>
          <component componentGuid="ebf07fb9-f5a7-4562-8e69-d38c5e183729" componentID="Audition.Mute" id="clipMute" name="Mute" powered="true">
            <parameter index="0" parameterValue="0"/>
            <parameter index="1" name="mute" parameterValue="0"/>
          </component>
          <component componentGuid="dcbdb250-8dbf-4035-8c3d-b6ea7297b229" componentID="Audition.StereoPanner" id="clipPan" name="StereoPanner" powered="true">
            <parameter index="0" name="Pan" parameterValue="0"/>
          </component>
          <fadeIn crossFadeLinkType="linkedAsymmetric" endPoint="17025" shape="19" startPoint="0" type="log"/>
          <fadeOut crossFadeLinkType="linkedAsymmetric" endPoint="319780" shape="19" startPoint="302755" type="log"/>
          <editParameter parameterIndex="0" slotIndex="4294967281"/>
          <editParameter parameterIndex="0" slotIndex="4294967280"/>
          <channelMap>
            <channel index="0" sourceIndex="0"/>
          </channelMap>
        </audioClip>
        <audioClip clipAutoCrossfade="true" crossFadeHeadClipID="-1" crossFadeTailClipID="-1" endPoint="9383269" fileID="56" hue="-1" id="52" lockedInTime="false" looped="false" name="William_219" offline="false" select="false" sourceInPoint="629231" sourceOutPoint="835301" startPoint="9177199" zOrder="2145914400">
          <component componentGuid="977b75c5-802a-4fd5-a4dc-55ef2d163c27" componentID="Audition.Fader" id="clipGain" name="volume" powered="true">
            <parameter index="0" name="volume" parameterValue="1.8280414"/>
            <parameter index="1" name="static gain" parameterValue="1"/>
          </component>
          <component componentGuid="48dc1e66-cf7c-43e0-bc0c-25b9b69ea94d" componentID="Audition.Mute" id="clipMute" name="Mute" powered="true">
            <parameter index="0" parameterValue="0"/>
            <parameter index="1" name="mute" parameterValue="0"/>
          </component>
          <component componentGuid="bcb67e0c-6fe7-4829-9372-be09d4bc3c82" componentID="Audition.StereoPanner" id="clipPan" name="StereoPanner" powered="true">
            <parameter index="0" name="Pan" parameterValue="0"/>
          </component>
          <fadeIn crossFadeLinkType="linkedAsymmetric" endPoint="18160" shape="19" startPoint="0" type="log"/>
          <fadeOut crossFadeLinkType="linkedAsymmetric" endPoint="206070" shape="19" startPoint="206070" type="log"/>
          <editParameter parameterIndex="0" slotIndex="4294967281"/>
          <editParameter parameterIndex="0" slotIndex="4294967280"/>
          <channelMap>
            <channel index="0" sourceIndex="0"/>
          </channelMap>
        </audioClip>
        <audioClip clipAutoCrossfade="true" crossFadeHeadClipID="-1" crossFadeTailClipID="-1" endPoint="9618487" fileID="56" hue="-1" id="53" lockedInTime="false" looped="false" name="William_219" offline="false" select="false" sourceInPoint="1050781" sourceOutPoint="1285999" startPoint="9383269" zOrder="2145914405">
          <component componentGuid="3e2ba547-e97b-4559-8f60-0440c6428423" componentID="Audition.Fader" id="clipGain" name="volume" powered="true">
            <parameter index="0" name="volume" parameterValue="1.8280414"/>
            <parameter index="1" name="static gain" parameterValue="1"/>
          </component>
          <component componentGuid="abc4f92b-bdc3-4aeb-96f9-5d7b93aefed6" componentID="Audition.Mute" id="clipMute" name="Mute" powered="true">
            <parameter index="0" parameterValue="0"/>
            <parameter index="1" name="mute" parameterValue="0"/>
          </component>
          <component componentGuid="d887d6f9-f7ed-4539-a939-c7f07d4f7bba" componentID="Audition.StereoPanner" id="clipPan" name="StereoPanner" powered="true">
            <parameter index="0" name="Pan" parameterValue="0"/>
          </component>
          <fadeIn crossFadeLinkType="linkedAsymmetric" endPoint="0" shape="19" startPoint="0" type="log"/>
          <fadeOut crossFadeLinkType="linkedAsymmetric" endPoint="235218" shape="19" startPoint="218193" type="log"/>
          <editParameter parameterIndex="0" slotIndex="4294967281"/>
          <editParameter parameterIndex="0" slotIndex="4294967280"/>
          <channelMap>
            <channel index="0" sourceIndex="0"/>
          </channelMap>
        </audioClip>
        <audioClip clipAutoCrossfade="true" crossFadeHeadClipID="-1" crossFadeTailClipID="-1" endPoint="9995462" fileID="57" hue="-1" id="54" lockedInTime="false" looped="false" name="William_221" offline="false" select="false" sourceInPoint="39207" sourceOutPoint="416182" startPoint="9618487" zOrder="2145914408">
          <component componentGuid="b248ce7a-6793-4bec-bc03-cd49a03a2020" componentID="Audition.Fader" id="clipGain" name="volume" powered="true">
            <parameter index="0" name="volume" parameterValue="1.8280414"/>
            <parameter index="1" name="static gain" parameterValue="1"/>
          </component>
          <component componentGuid="28c1faa8-d0b2-46a2-bbfa-96c68712d558" componentID="Audition.Mute" id="clipMute" name="Mute" powered="true">
            <parameter index="0" parameterValue="0"/>
            <parameter index="1" name="mute" parameterValue="0"/>
          </component>
          <component componentGuid="42742127-eac6-4dfb-aa38-4db4687024cb" componentID="Audition.StereoPanner" id="clipPan" name="StereoPanner" powered="true">
            <parameter index="0" name="Pan" parameterValue="0"/>
          </component>
          <fadeIn crossFadeLinkType="linkedAsymmetric" endPoint="22700" shape="19" startPoint="0" type="log"/>
          <fadeOut crossFadeLinkType="linkedAsymmetric" endPoint="376975" shape="8" startPoint="350718" type="log"/>
          <take sourceInPoint="0"/>
          <editParameter parameterIndex="0" slotIndex="4294967281"/>
          <editParameter parameterIndex="0" slotIndex="4294967280"/>
          <channelMap>
            <channel index="0" sourceIndex="0"/>
          </channelMap>
        </audioClip>
        <audioClip clipAutoCrossfade="true" crossFadeHeadClipID="-1" crossFadeTailClipID="-1" endPoint="10663310" fileID="58" hue="-1" id="55" lockedInTime="false" looped="false" name="William_223" offline="false" select="false" sourceInPoint="1271483" sourceOutPoint="1791793" startPoint="10143000" zOrder="2145914410">
          <component componentGuid="cc575ca4-6285-4041-a53f-b8625873cfca" componentID="Audition.Fader" id="clipGain" name="volume" powered="true">
            <parameter index="0" name="volume" parameterValue="1.7463791">
              <parameterKeyframes enableSplines="false">
                <parameterKeyframe sampleOffset="1389527" select="false" type="linear" value="0.7935898"/>
                <parameterKeyframe sampleOffset="1481058" select="true" type="linear" value="0.65"/>
                <parameterKeyframe sampleOffset="1557767" select="false" type="linear" value="0.7833338"/>
              </parameterKeyframes>
            </parameter>
            <parameter index="1" name="static gain" parameterValue="1"/>
          </component>
          <component componentGuid="33911a06-09d0-4d16-a495-b3bf5f330e0c" componentID="Audition.Mute" id="clipMute" name="Mute" powered="true">
            <parameter index="0" parameterValue="0"/>
            <parameter index="1" name="mute" parameterValue="0"/>
          </component>
          <component componentGuid="f9ccb8a5-97c6-48dd-aba2-72bcd23efab7" componentID="Audition.StereoPanner" id="clipPan" name="StereoPanner" powered="true">
            <parameter index="0" name="Pan" parameterValue="0"/>
          </component>
          <fadeIn crossFadeLinkType="linkedAsymmetric" endPoint="61830" shape="11" startPoint="0" type="log"/>
          <fadeOut crossFadeLinkType="linkedAsymmetric" endPoint="520310" shape="8" startPoint="440295" type="log"/>
          <editParameter parameterIndex="0" slotIndex="4294967281"/>
          <editParameter parameterIndex="0" slotIndex="4294967280"/>
          <channelMap>
            <channel index="0" sourceIndex="0"/>
          </channelMap>
        </audioClip>
      </audioTrack>
      <audioTrack automationLaneOpenState="false" id="10004" index="4" select="false" visible="true">
        <trackParameters trackHeight="173" trackHue="152.1575546264648438" trackMinimized="false">
          <name>Leon</name>
        </trackParameters>
        <trackAudioParameters audioChannelType="stereo" automationMode="1" monitoring="false" recordArmed="false" solo="false" soloSafe="false">
          <trackOutput outputID="10000" type="trackID"/>
          <trackInput inputID="1"/>
          <component componentGuid="277548af-1aa9-4d49-b377-c6c2d93f4f08" componentID="Audition.Fader" id="trackFader" name="volume" powered="true">
            <parameter index="0" name="volume" parameterValue="1"/>
            <parameter index="1" name="static gain" parameterValue="1"/>
          </component>
          <component componentGuid="77ddb50c-6d00-4aaf-963a-0691407dd285" componentID="Audition.Mute" id="trackMute" name="Mute" powered="true">
            <parameter index="0" parameterValue="0"/>
            <parameter index="1" name="mute" parameterValue="0"/>
          </component>
          <component componentGuid="7dd0cafd-7771-4ae1-b54c-f708c076fbd2" componentID="Audition.StereoPanner" id="trackPan" name="StereoPanner" powered="true">
            <parameter index="0" name="Pan" parameterValue="0"/>
          </component>
          <component componentGuid="07c235f5-ea18-44dd-afb4-fd2d38ecf9b8" componentID="Audition.EQ" id="trackEQ" name="EQ" powered="false">
            <parameter index="0" name="Low Shelf Frequency" parameterValue="0.0009079"/>
            <parameter index="1" name="Low Shelf Gain" parameterValue="0.5"/>
            <parameter index="2" name="High Shelf Frequency" parameterValue="0.8161598"/>
            <parameter index="3" name="High Shelf Gain" parameterValue="0.5"/>
            <parameter index="4" name="EQ Band 1 Center Frequency" parameterValue="0.0013618"/>
            <parameter index="5" name="EQ Band 1 Q" parameterValue="0.0002"/>
            <parameter index="6" name="EQ Band 1 Gain" parameterValue="0.5"/>
            <parameter index="7" name="EQ Band 1 Enable" parameterValue="1"/>
            <parameter index="8" name="EQ Band 2 Center Frequency" parameterValue="0.0081707"/>
            <parameter index="9" name="EQ Band 2 Q" parameterValue="0.0002"/>
            <parameter index="10" name="EQ Band 2 Gain" parameterValue="0.5"/>
            <parameter index="11" name="EQ Band 2 Enable" parameterValue="1"/>
            <parameter index="12" name="EQ Band 3 Center Frequency" parameterValue="0.0354063"/>
            <parameter index="13" name="EQ Band 3 Q" parameterValue="0.0002"/>
            <parameter index="14" name="EQ Band 3 Gain" parameterValue="0.5"/>
            <parameter index="15" name="EQ Band 3 Enable" parameterValue="1"/>
            <parameter index="16" name="EQ Band 4 Center Frequency" parameterValue="0.1443486"/>
            <parameter index="17" name="EQ Band 4 Q" parameterValue="0.0002"/>
            <parameter index="18" name="EQ Band 4 Gain" parameterValue="0.5"/>
            <parameter index="19" name="EQ Band 4 Enable" parameterValue="1"/>
            <parameter index="20" name="EQ Band 5 Center Frequency" parameterValue="0.580118"/>
            <parameter index="21" name="EQ Band 5 Q" parameterValue="0.0002"/>
            <parameter index="22" name="EQ Band 5 Gain" parameterValue="0.5"/>
            <parameter index="23" name="EQ Band 5 Enable" parameterValue="1"/>
            <parameter index="24" name="Master Gain" parameterValue="0.6666667"/>
            <parameter index="25" name="ConstantQ" parameterValue="1"/>
            <parameter index="26" name="Low Shelf Filter Order" parameterValue="0"/>
            <parameter index="27" name="High Shelf Filter Order" parameterValue="0"/>
            <parameter index="28" name="Ultra-Quiet Mode" parameterValue="0"/>
            <parameter index="29" name="Low Shelf Enable" parameterValue="1"/>
            <parameter index="30" name="High Shelf Enable" parameterValue="1"/>
            <parameter index="31" name="Original Sample Rate" parameterValue="0.2296875"/>
            <parameter index="32" name="EQ Band 1 Bandwidth" parameterValue="0.0025"/>
            <parameter index="33" name="EQ Band 2 Bandwidth" parameterValue="0.01"/>
            <parameter index="34" name="EQ Band 3 Bandwidth" parameterValue="0.04"/>
            <parameter index="35" name="EQ Band 4 Bandwidth" parameterValue="0.16"/>
            <parameter index="36" name="EQ Band 5 Bandwidth" parameterValue="0.64"/>
            <parameter index="37" name="High-Pass Filter Enable" parameterValue="0"/>
            <parameter index="38" name="High-Pass Cutoff Frequency" parameterValue="0"/>
            <parameter index="39" name="High-Pass Slope" parameterValue="0.4"/>
            <parameter index="40" name="Low-Pass Filter Enable" parameterValue="0"/>
            <parameter index="41" name="Low-Pass Cutoff Frequency" parameterValue="0.906945"/>
            <parameter index="42" name="Low-Pass Slope" parameterValue="0.4"/>
            <parameter index="43" name="Bypass" parameterValue="0"/>
            <parameter index="44" name="LowGraphRange" parameterValue="1"/>
          </component>
        </trackAudioParameters>
        <editParameter parameterIndex="0" slotIndex="4294967280"/>
        <sendList>
          <sendSlot preFader="false" sendOutputID="0" slotIndex="0">
            <component componentGuid="07a2e153-ada4-441a-9435-699972c88597" id="sendComponent" powered="false">
              <parameter index="0" name="Power On/Off" parameterValue="0"/>
              <parameter index="1" name="Level" parameterValue="0"/>
            </component>
            <component id="sendPan" powered="true"/>
          </sendSlot>
          <sendSlot preFader="false" sendOutputID="0" slotIndex="1">
            <component componentGuid="8b7215e0-0638-4126-ad8f-39f8f462b83c" id="sendComponent" powered="false">
              <parameter index="0" name="Power On/Off" parameterValue="0"/>
              <parameter index="1" name="Level" parameterValue="0"/>
            </component>
            <component id="sendPan" powered="true"/>
          </sendSlot>
          <sendSlot preFader="false" sendOutputID="0" slotIndex="2">
            <component componentGuid="d3540cf8-d6b8-47fa-ba7c-374711406d61" id="sendComponent" powered="false">
              <parameter index="0" name="Power On/Off" parameterValue="0"/>
              <parameter index="1" name="Level" parameterValue="0"/>
            </component>
            <component id="sendPan" powered="true"/>
          </sendSlot>
          <sendSlot preFader="false" sendOutputID="0" slotIndex="3">
            <component componentGuid="972f8828-1cde-45e5-8fb1-b718708269a8" id="sendComponent" powered="false">
              <parameter index="0" name="Power On/Off" parameterValue="0"/>
              <parameter index="1" name="Level" parameterValue="0"/>
            </component>
            <component id="sendPan" powered="true"/>
          </sendSlot>
          <sendSlot preFader="false" sendOutputID="0" slotIndex="4">
            <component componentGuid="b1234a3f-378d-4756-81f9-901b7464e46c" id="sendComponent" powered="false">
              <parameter index="0" name="Power On/Off" parameterValue="0"/>
              <parameter index="1" name="Level" parameterValue="0"/>
            </component>
            <component id="sendPan" powered="true"/>
          </sendSlot>
          <sendSlot preFader="false" sendOutputID="0" slotIndex="5">
            <component componentGuid="f2a6a5e1-3e57-461d-828d-3372f82ba5b1" id="sendComponent" powered="false">
              <parameter index="0" name="Power On/Off" parameterValue="0"/>
              <parameter index="1" name="Level" parameterValue="0"/>
            </component>
            <component id="sendPan" powered="true"/>
          </sendSlot>
          <sendSlot preFader="false" sendOutputID="0" slotIndex="6">
            <component componentGuid="97b7d98a-7c47-4832-b983-d26b7e239652" id="sendComponent" powered="false">
              <parameter index="0" name="Power On/Off" parameterValue="0"/>
              <parameter index="1" name="Level" parameterValue="0"/>
            </component>
            <component id="sendPan" powered="true"/>
          </sendSlot>
          <sendSlot preFader="false" sendOutputID="0" slotIndex="7">
            <component componentGuid="faa1a923-df01-443e-b8c9-bedda9789d43" id="sendComponent" powered="false">
              <parameter index="0" name="Power On/Off" parameterValue="0"/>
              <parameter index="1" name="Level" parameterValue="0"/>
            </component>
            <component id="sendPan" powered="true"/>
          </sendSlot>
          <sendSlot preFader="false" sendOutputID="0" slotIndex="8">
            <component componentGuid="7e01bca2-857f-481b-ba96-b6fa19eaed8f" id="sendComponent" powered="false">
              <parameter index="0" name="Power On/Off" parameterValue="0"/>
              <parameter index="1" name="Level" parameterValue="0"/>
            </component>
            <component id="sendPan" powered="true"/>
          </sendSlot>
          <sendSlot preFader="false" sendOutputID="0" slotIndex="9">
            <component componentGuid="893f67e2-5731-4b2c-8b69-64a5d561d281" id="sendComponent" powered="false">
              <parameter index="0" name="Power On/Off" parameterValue="0"/>
              <parameter index="1" name="Level" parameterValue="0"/>
            </component>
            <component id="sendPan" powered="true"/>
          </sendSlot>
          <sendSlot preFader="false" sendOutputID="0" slotIndex="10">
            <component componentGuid="c2e0cc24-2a5f-46bc-8f43-def2d930b3ff" id="sendComponent" powered="false">
              <parameter index="0" name="Power On/Off" parameterValue="0"/>
              <parameter index="1" name="Level" parameterValue="0"/>
            </component>
            <component id="sendPan" powered="true"/>
          </sendSlot>
          <sendSlot preFader="false" sendOutputID="0" slotIndex="11">
            <component componentGuid="f59f48e7-0859-4765-bc24-d52e0f9e5baf" id="sendComponent" powered="false">
              <parameter index="0" name="Power On/Off" parameterValue="0"/>
              <parameter index="1" name="Level" parameterValue="0"/>
            </component>
            <component id="sendPan" powered="true"/>
          </sendSlot>
          <sendSlot preFader="false" sendOutputID="0" slotIndex="12">
            <component componentGuid="70b8d2bc-3f15-40af-93fa-39ccbdba3b4e" id="sendComponent" powered="false">
              <parameter index="0" name="Power On/Off" parameterValue="0"/>
              <parameter index="1" name="Level" parameterValue="0"/>
            </component>
            <component id="sendPan" powered="true"/>
          </sendSlot>
          <sendSlot preFader="false" sendOutputID="0" slotIndex="13">
            <component componentGuid="b0e24167-c7cc-45c1-a36b-0c89cf0964bd" id="sendComponent" powered="false">
              <parameter index="0" name="Power On/Off" parameterValue="0"/>
              <parameter index="1" name="Level" parameterValue="0"/>
            </component>
            <component id="sendPan" powered="true"/>
          </sendSlot>
          <sendSlot preFader="false" sendOutputID="0" slotIndex="14">
            <component componentGuid="6c6ee1b2-11d3-4f74-b63a-50dc92aaa180" id="sendComponent" powered="false">
              <parameter index="0" name="Power On/Off" parameterValue="0"/>
              <parameter index="1" name="Level" parameterValue="0"/>
            </component>
            <component id="sendPan" powered="true"/>
          </sendSlot>
          <sendSlot preFader="false" sendOutputID="0" slotIndex="15">
            <component componentGuid="ceec9253-5bcf-478f-8a39-fbe2223114c0" id="sendComponent" powered="false">
              <parameter index="0" name="Power On/Off" parameterValue="0"/>
              <parameter index="1" name="Level" parameterValue="0"/>
            </component>
            <component id="sendPan" powered="true"/>
          </sendSlot>
        </sendList>
        <audioClip clipAutoCrossfade="true" crossFadeHeadClipID="-1" crossFadeTailClipID="1" endPoint="41060" fileID="35" hue="-1" id="0" lockedInTime="false" looped="false" name="Track 3_016" offline="false" select="false" sourceInPoint="528341" sourceOutPoint="564414" startPoint="4987" zOrder="2145915122">
          <component componentGuid="b6c99b43-95b0-46be-afda-ffa6947628b6" componentID="Audition.Fader" id="clipGain" name="volume" powered="true">
            <parameter index="0" name="volume" parameterValue="2.2901905">
              <parameterKeyframes enableSplines="false">
                <parameterKeyframe sampleOffset="527621" select="true" type="linear" value="0.4509172"/>
                <parameterKeyframe sampleOffset="535901" select="false" type="linear" value="0.8514709"/>
              </parameterKeyframes>
            </parameter>
            <parameter index="1" name="static gain" parameterValue="1"/>
          </component>
          <component componentGuid="640960c5-b3c4-45fc-9da7-1dadb58c7600" componentID="Audition.Mute" id="clipMute" name="Mute" powered="true">
            <parameter index="0" parameterValue="0"/>
            <parameter index="1" name="mute" parameterValue="0"/>
          </component>
          <component componentGuid="c2ce1ff8-6261-468d-af5b-88ff88fa2e59" componentID="Audition.StereoPanner" id="clipPan" name="StereoPanner" powered="true">
            <parameter index="0" name="Pan" parameterValue="0"/>
          </component>
          <fadeIn crossFadeLinkType="linkedAsymmetric" endPoint="0" shape="19" startPoint="0" type="log"/>
          <fadeOut crossFadeLinkType="linkedAsymmetric" endPoint="36073" shape="19" startPoint="34975" type="log"/>
          <clipStretch adaptiveWindowSize="37" pitchAdjustment="0" preserveFormants="true" stretchMode="realtime" stretchQuality="high" stretchRatio="0.9147552991805153" stretchType="solo" transientSensitivity="40"/>
          <editParameter parameterIndex="0" slotIndex="4294967281"/>
          <editParameter parameterIndex="0" slotIndex="4294967280"/>
          <channelMap>
            <channel index="0" sourceIndex="0"/>
          </channelMap>
        </audioClip>
        <audioClip clipAutoCrossfade="true" crossFadeHeadClipID="0" crossFadeTailClipID="-1" endPoint="163650" fileID="59" hue="-1" id="1" lockedInTime="false" looped="false" name="Leon_024" offline="false" select="false" sourceInPoint="37292" sourceOutPoint="160980" startPoint="39962" zOrder="2145915123">
          <component componentGuid="d0526e40-4742-4e7d-b2a2-3b262ea604c5" componentID="Audition.Fader" id="clipGain" name="volume" powered="true">
            <parameter index="0" name="volume" parameterValue="2.0453472">
              <parameterKeyframes enableSplines="false">
                <parameterKeyframe sampleOffset="35446" select="false" type="linear" value="0.3982269"/>
                <parameterKeyframe sampleOffset="35449" select="false" type="linear" value="0.8509608"/>
                <parameterKeyframe sampleOffset="44755" select="false" type="linear" value="0.8281805"/>
              </parameterKeyframes>
            </parameter>
            <parameter index="1" name="static gain" parameterValue="1"/>
          </component>
          <component componentGuid="88e7daa7-4456-4149-8bb4-5a8c8c65170f" componentID="Audition.Mute" id="clipMute" name="Mute" powered="true">
            <parameter index="0" parameterValue="0"/>
            <parameter index="1" name="mute" parameterValue="0"/>
          </component>
          <component componentGuid="f450e231-23e7-414a-93ad-dc669bbdcece" componentID="Audition.StereoPanner" id="clipPan" name="StereoPanner" powered="true">
            <parameter index="0" name="Pan" parameterValue="0"/>
          </component>
          <fadeIn crossFadeLinkType="linkedAsymmetric" endPoint="1098" shape="18" startPoint="0" type="log"/>
          <fadeOut crossFadeLinkType="linkedAsymmetric" endPoint="123688" shape="19" startPoint="107338" type="log"/>
          <take sourceInPoint="0"/>
          <editParameter parameterIndex="0" slotIndex="4294967281"/>
          <editParameter parameterIndex="0" slotIndex="4294967280"/>
          <channelMap>
            <channel index="0" sourceIndex="0"/>
          </channelMap>
        </audioClip>
        <audioClip clipAutoCrossfade="true" crossFadeHeadClipID="-1" crossFadeTailClipID="-1" endPoint="225350" fileID="35" hue="-1" id="2" lockedInTime="false" looped="false" name="Track 3_016" offline="false" select="false" sourceInPoint="528341" sourceOutPoint="564414" startPoint="189277" zOrder="2145915124">
          <component componentGuid="ad330d84-915d-47a0-9413-f1bc054c08b0" componentID="Audition.Fader" id="clipGain" name="volume" powered="true">
            <parameter index="0" name="volume" parameterValue="2.2059069"/>
            <parameter index="1" name="static gain" parameterValue="1"/>
          </component>
          <component componentGuid="1cacbc27-3c0f-461a-b007-086c7918d9fb" componentID="Audition.Mute" id="clipMute" name="Mute" powered="true">
            <parameter index="0" parameterValue="0"/>
            <parameter index="1" name="mute" parameterValue="0"/>
          </component>
          <component componentGuid="bce5ae72-bca3-4207-86cb-79698dd01e59" componentID="Audition.StereoPanner" id="clipPan" name="StereoPanner" powered="true">
            <parameter index="0" name="Pan" parameterValue="0"/>
          </component>
          <fadeIn crossFadeLinkType="linkedAsymmetric" endPoint="9557" shape="12" startPoint="0" type="log"/>
          <fadeOut crossFadeLinkType="linkedAsymmetric" endPoint="36073" shape="19" startPoint="36073" type="log"/>
          <clipStretch adaptiveWindowSize="37" pitchAdjustment="0" preserveFormants="true" stretchMode="realtime" stretchQuality="high" stretchRatio="0.9147552991805153" stretchType="solo" transientSensitivity="40"/>
          <editParameter parameterIndex="0" slotIndex="4294967281"/>
          <editParameter parameterIndex="0" slotIndex="4294967280"/>
          <channelMap>
            <channel index="0" sourceIndex="0"/>
          </channelMap>
        </audioClip>
        <audioClip clipAutoCrossfade="true" crossFadeHeadClipID="-1" crossFadeTailClipID="-1" endPoint="257417" fileID="60" hue="-1" id="3" lockedInTime="false" looped="false" name="Leon_025" offline="false" select="false" sourceInPoint="51740" sourceOutPoint="83807" startPoint="225350" zOrder="2145915102">
          <component componentGuid="1349decb-04fe-4d94-8272-b83f47cfd277" componentID="Audition.Fader" id="clipGain" name="volume" powered="true">
            <parameter index="0" name="volume" parameterValue="1.9587595">
              <parameterKeyframes enableSplines="false">
                <parameterKeyframe sampleOffset="59050" select="true" type="linear" value="0.8189538"/>
              </parameterKeyframes>
            </parameter>
            <parameter index="1" name="static gain" parameterValue="1"/>
          </component>
          <component componentGuid="2c43d623-cb82-4ab8-8ebb-03559b13abae" componentID="Audition.Mute" id="clipMute" name="Mute" powered="true">
            <parameter index="0" parameterValue="0"/>
            <parameter index="1" name="mute" parameterValue="0"/>
          </component>
          <component componentGuid="ff3cfd9d-19bd-4fe9-9e49-1879caeb2cf6" componentID="Audition.StereoPanner" id="clipPan" name="StereoPanner" powered="true">
            <parameter index="0" name="Pan" parameterValue="0"/>
          </component>
          <fadeIn crossFadeLinkType="linkedAsymmetric" endPoint="0" shape="18" startPoint="0" type="log"/>
          <fadeOut crossFadeLinkType="linkedAsymmetric" endPoint="32067" shape="18" startPoint="32067" type="log"/>
          <editParameter parameterIndex="0" slotIndex="4294967281"/>
          <editParameter parameterIndex="0" slotIndex="4294967280"/>
          <channelMap>
            <channel index="0" sourceIndex="0"/>
          </channelMap>
        </audioClip>
        <audioClip clipAutoCrossfade="true" crossFadeHeadClipID="-1" crossFadeTailClipID="-1" endPoint="270294" fileID="60" hue="-1" id="4" lockedInTime="false" looped="false" name="Leon_025" offline="false" select="false" sourceInPoint="8832" sourceOutPoint="21709" startPoint="257417" zOrder="2145915106">
          <component componentGuid="5397aa37-1413-4f34-b7a7-645e3279b8f2" componentID="Audition.Fader" id="clipGain" name="volume" powered="true">
            <parameter index="0" name="volume" parameterValue="1.9587595"/>
            <parameter index="1" name="static gain" parameterValue="1"/>
          </component>
          <component componentGuid="d547d451-4fe7-4624-821c-d3a0b816a2e3" componentID="Audition.Mute" id="clipMute" name="Mute" powered="true">
            <parameter index="0" parameterValue="0"/>
            <parameter index="1" name="mute" parameterValue="0"/>
          </component>
          <component componentGuid="62aec81d-a627-46b3-a3e7-0da422095fad" componentID="Audition.StereoPanner" id="clipPan" name="StereoPanner" powered="true">
            <parameter index="0" name="Pan" parameterValue="0"/>
          </component>
          <fadeIn crossFadeLinkType="linkedAsymmetric" endPoint="0" shape="18" startPoint="0" type="log"/>
          <fadeOut crossFadeLinkType="linkedAsymmetric" endPoint="12877" shape="19" startPoint="12877" type="log"/>
          <take sourceInPoint="0"/>
          <editParameter parameterIndex="0" slotIndex="4294967281"/>
          <editParameter parameterIndex="0" slotIndex="4294967280"/>
          <channelMap>
            <channel index="0" sourceIndex="0"/>
          </channelMap>
        </audioClip>
        <audioClip clipAutoCrossfade="true" crossFadeHeadClipID="-1" crossFadeTailClipID="-1" endPoint="357203" fileID="61" hue="-1" id="5" lockedInTime="false" looped="false" name="Leon_026" offline="false" select="false" sourceInPoint="197670" sourceOutPoint="284579" startPoint="270294" zOrder="2145915126">
          <component componentGuid="bc84c3d1-de64-433e-b780-390ac7d8e63b" componentID="Audition.Fader" id="clipGain" name="volume" powered="true">
            <parameter index="0" name="volume" parameterValue="1.9587597"/>
            <parameter index="1" name="static gain" parameterValue="1"/>
          </component>
          <component componentGuid="83b73fb0-616b-410c-9179-6c4508ebe635" componentID="Audition.Mute" id="clipMute" name="Mute" powered="true">
            <parameter index="0" parameterValue="0"/>
            <parameter index="1" name="mute" parameterValue="0"/>
          </component>
          <component componentGuid="c760e3d9-cbb9-4342-89f7-e9d7d3253338" componentID="Audition.StereoPanner" id="clipPan" name="StereoPanner" powered="true">
            <parameter index="0" name="Pan" parameterValue="0"/>
          </component>
          <fadeIn crossFadeLinkType="linkedAsymmetric" endPoint="0" shape="18" startPoint="0" type="log"/>
          <fadeOut crossFadeLinkType="linkedAsymmetric" endPoint="86909" shape="8" startPoint="77775" type="log"/>
          <editParameter parameterIndex="0" slotIndex="4294967281"/>
          <editParameter parameterIndex="0" slotIndex="4294967280"/>
          <channelMap>
            <channel index="0" sourceIndex="0"/>
          </channelMap>
        </audioClip>
        <audioClip clipAutoCrossfade="true" crossFadeHeadClipID="-1" crossFadeTailClipID="-1" endPoint="422020" fileID="35" hue="-1" id="6" lockedInTime="false" looped="false" name="Track 3_016" offline="false" select="false" sourceInPoint="528341" sourceOutPoint="564414" startPoint="385947" zOrder="2145915109">
          <component componentGuid="15d6fd74-ac21-4d66-a927-0895393d1a85" componentID="Audition.Fader" id="clipGain" name="volume" powered="true">
            <parameter index="0" name="volume" parameterValue="2.3119891"/>
            <parameter index="1" name="static gain" parameterValue="1"/>
          </component>
          <component componentGuid="a87ccc71-ea5a-4391-bcc0-41d402650f31" componentID="Audition.Mute" id="clipMute" name="Mute" powered="true">
            <parameter index="0" parameterValue="0"/>
            <parameter index="1" name="mute" parameterValue="0"/>
          </component>
          <component componentGuid="53c4760c-b91f-4d86-8e9e-8ae749105b23" componentID="Audition.StereoPanner" id="clipPan" name="StereoPanner" powered="true">
            <parameter index="0" name="Pan" parameterValue="0"/>
          </component>
          <fadeIn crossFadeLinkType="linkedAsymmetric" endPoint="9557" shape="12" startPoint="0" type="log"/>
          <fadeOut crossFadeLinkType="linkedAsymmetric" endPoint="36073" shape="19" startPoint="36073" type="log"/>
          <clipStretch adaptiveWindowSize="37" pitchAdjustment="0" preserveFormants="true" stretchMode="realtime" stretchQuality="high" stretchRatio="0.9147552991805153" stretchType="solo" transientSensitivity="40"/>
          <editParameter parameterIndex="0" slotIndex="4294967281"/>
          <editParameter parameterIndex="0" slotIndex="4294967280"/>
          <channelMap>
            <channel index="0" sourceIndex="0"/>
          </channelMap>
        </audioClip>
        <audioClip clipAutoCrossfade="true" crossFadeHeadClipID="-1" crossFadeTailClipID="-1" endPoint="508080" fileID="62" hue="-1" id="7" lockedInTime="false" looped="false" name="Leon_028" offline="false" select="false" sourceInPoint="35191" sourceOutPoint="119497" startPoint="423774" zOrder="2145915127">
          <component componentGuid="4e2e125b-efdd-4141-8d31-c7e6c22c0b85" componentID="Audition.Fader" id="clipGain" name="volume" powered="true">
            <parameter index="0" name="volume" parameterValue="1.9853472">
              <parameterKeyframes enableSplines="false">
                <parameterKeyframe sampleOffset="34042" select="false" type="linear" value="0.4478723"/>
                <parameterKeyframe sampleOffset="34043" select="false" type="linear" value="0.854121"/>
                <parameterKeyframe sampleOffset="34714" select="true" type="linear" value="0.8218489"/>
              </parameterKeyframes>
            </parameter>
            <parameter index="1" name="static gain" parameterValue="1"/>
          </component>
          <component componentGuid="e2dfbc41-6a99-487c-a2cf-9c4c2d843f4b" componentID="Audition.Mute" id="clipMute" name="Mute" powered="true">
            <parameter index="0" parameterValue="0"/>
            <parameter index="1" name="mute" parameterValue="0"/>
          </component>
          <component componentGuid="731a141d-d731-4c36-8b27-571fa8a72edf" componentID="Audition.StereoPanner" id="clipPan" name="StereoPanner" powered="true">
            <parameter index="0" name="Pan" parameterValue="0"/>
          </component>
          <fadeIn crossFadeLinkType="linkedAsymmetric" endPoint="69" shape="19" startPoint="0" type="log"/>
          <fadeOut crossFadeLinkType="linkedAsymmetric" endPoint="84306" shape="0" startPoint="63950" type="log"/>
          <take sourceInPoint="0"/>
          <editParameter parameterIndex="0" slotIndex="4294967281"/>
          <editParameter parameterIndex="0" slotIndex="4294967280"/>
          <channelMap>
            <channel index="0" sourceIndex="0"/>
          </channelMap>
        </audioClip>
        <audioClip clipAutoCrossfade="true" crossFadeHeadClipID="-1" crossFadeTailClipID="-1" endPoint="577141" fileID="35" hue="-1" id="8" lockedInTime="false" looped="false" name="Track 3_016" offline="false" select="false" sourceInPoint="528341" sourceOutPoint="564414" startPoint="541068" zOrder="2145915088">
          <component componentGuid="c1ba18fe-e1f2-4582-94bc-7c6b352dc231" componentID="Audition.Fader" id="clipGain" name="volume" powered="true">
            <parameter index="0" name="volume" parameterValue="2.2901905"/>
            <parameter index="1" name="static gain" parameterValue="1"/>
          </component>
          <component componentGuid="c75383d6-eee7-4a92-863e-7c679487f6af" componentID="Audition.Mute" id="clipMute" name="Mute" powered="true">
            <parameter index="0" parameterValue="0"/>
            <parameter index="1" name="mute" parameterValue="0"/>
          </component>
          <component componentGuid="805a24b3-85f0-41b4-985b-28f99a5124dc" componentID="Audition.StereoPanner" id="clipPan" name="StereoPanner" powered="true">
            <parameter index="0" name="Pan" parameterValue="0"/>
          </component>
          <fadeIn crossFadeLinkType="linkedAsymmetric" endPoint="9557" shape="12" startPoint="0" type="log"/>
          <fadeOut crossFadeLinkType="linkedAsymmetric" endPoint="36073" shape="19" startPoint="36073" type="log"/>
          <clipStretch adaptiveWindowSize="37" pitchAdjustment="0" preserveFormants="true" stretchMode="realtime" stretchQuality="high" stretchRatio="0.9147552991805153" stretchType="solo" transientSensitivity="40"/>
          <editParameter parameterIndex="0" slotIndex="4294967281"/>
          <editParameter parameterIndex="0" slotIndex="4294967280"/>
          <channelMap>
            <channel index="0" sourceIndex="0"/>
          </channelMap>
        </audioClip>
        <audioClip clipAutoCrossfade="true" crossFadeHeadClipID="-1" crossFadeTailClipID="-1" endPoint="706985" fileID="63" hue="-1" id="9" lockedInTime="false" looped="false" name="Leon_031" offline="false" select="false" sourceInPoint="148897" sourceOutPoint="278741" startPoint="577141" zOrder="2145915128">
          <component componentGuid="48af0d21-cd10-406c-bb2d-bd0249f11711" componentID="Audition.Fader" id="clipGain" name="volume" powered="true">
            <parameter index="0" name="volume" parameterValue="1.9937358"/>
            <parameter index="1" name="static gain" parameterValue="1"/>
          </component>
          <component componentGuid="38962f4f-7a94-4871-a143-2344a0233b98" componentID="Audition.Mute" id="clipMute" name="Mute" powered="true">
            <parameter index="0" parameterValue="0"/>
            <parameter index="1" name="mute" parameterValue="0"/>
          </component>
          <component componentGuid="44b83cd6-3243-4091-869e-a7a61c7e6f3d" componentID="Audition.StereoPanner" id="clipPan" name="StereoPanner" powered="true">
            <parameter index="0" name="Pan" parameterValue="0"/>
          </component>
          <fadeIn crossFadeLinkType="linkedAsymmetric" endPoint="0" shape="18" startPoint="0" type="log"/>
          <fadeOut crossFadeLinkType="linkedAsymmetric" endPoint="129844" shape="0" startPoint="115806" type="log"/>
          <editParameter parameterIndex="0" slotIndex="4294967281"/>
          <editParameter parameterIndex="0" slotIndex="4294967280"/>
          <channelMap>
            <channel index="0" sourceIndex="0"/>
          </channelMap>
        </audioClip>
        <audioClip clipAutoCrossfade="true" crossFadeHeadClipID="-1" crossFadeTailClipID="-1" endPoint="859310" fileID="64" hue="-1" id="10" lockedInTime="false" looped="false" name="Leon_037" offline="false" select="false" sourceInPoint="226479" sourceOutPoint="302580" startPoint="783209" zOrder="2145915137">
          <component componentGuid="0ea11622-0c10-45d8-b0e4-b4aa06eff009" componentID="Audition.Fader" id="clipGain" name="volume" powered="true">
            <parameter index="0" name="volume" parameterValue="1.5926583"/>
            <parameter index="1" name="static gain" parameterValue="1"/>
          </component>
          <component componentGuid="1277acc9-9127-458d-bdab-b663c5d19c3a" componentID="Audition.Mute" id="clipMute" name="Mute" powered="true">
            <parameter index="0" parameterValue="0"/>
            <parameter index="1" name="mute" parameterValue="0"/>
          </component>
          <component componentGuid="76523501-043f-414b-b3ff-039d681e798d" componentID="Audition.StereoPanner" id="clipPan" name="StereoPanner" powered="true">
            <parameter index="0" name="Pan" parameterValue="0"/>
          </component>
          <fadeIn crossFadeLinkType="linkedAsymmetric" endPoint="26853" shape="10" startPoint="0" type="log"/>
          <fadeOut crossFadeLinkType="linkedAsymmetric" endPoint="76101" shape="13" startPoint="62402" type="log"/>
          <take sourceInPoint="0"/>
          <editParameter parameterIndex="0" slotIndex="4294967281"/>
          <editParameter parameterIndex="0" slotIndex="4294967280"/>
          <channelMap>
            <channel index="0" sourceIndex="0"/>
          </channelMap>
        </audioClip>
        <audioClip clipAutoCrossfade="true" crossFadeHeadClipID="-1" crossFadeTailClipID="-1" endPoint="943740" fileID="65" hue="-1" id="11" lockedInTime="false" looped="false" name="Leon_038" offline="false" select="false" sourceInPoint="303469" sourceOutPoint="336686" startPoint="910523" zOrder="2145915139">
          <component componentGuid="7469c5c4-571c-46c5-bc27-de30af2d214d" componentID="Audition.Fader" id="clipGain" name="volume" powered="true">
            <parameter index="0" name="volume" parameterValue="0.3831761">
              <parameterKeyframes enableSplines="false">
                <parameterKeyframe sampleOffset="300701" select="false" type="linear" value="0.4230496"/>
                <parameterKeyframe sampleOffset="301275" select="true" type="linear" value="0.7653829"/>
              </parameterKeyframes>
            </parameter>
            <parameter index="1" name="static gain" parameterValue="1"/>
          </component>
          <component componentGuid="c9b520e4-1cbd-4a10-838c-e93e3c958b06" componentID="Audition.Mute" id="clipMute" name="Mute" powered="true">
            <parameter index="0" parameterValue="0"/>
            <parameter index="1" name="mute" parameterValue="0"/>
          </component>
          <component componentGuid="207358cf-977c-4be1-84bf-ca98a7afc37d" componentID="Audition.StereoPanner" id="clipPan" name="StereoPanner" powered="true">
            <parameter index="0" name="Pan" parameterValue="0"/>
          </component>
          <fadeIn crossFadeLinkType="linkedAsymmetric" endPoint="13296" shape="0" startPoint="0" type="log"/>
          <fadeOut crossFadeLinkType="linkedAsymmetric" endPoint="33217" shape="11" startPoint="29117" type="log"/>
          <editParameter parameterIndex="0" slotIndex="4294967281"/>
          <editParameter parameterIndex="0" slotIndex="4294967280"/>
          <channelMap>
            <channel index="0" sourceIndex="0"/>
          </channelMap>
        </audioClip>
        <audioClip clipAutoCrossfade="true" crossFadeHeadClipID="-1" crossFadeTailClipID="-1" endPoint="1058298" fileID="35" hue="-1" id="12" lockedInTime="false" looped="false" name="Track 3_016" offline="false" select="false" sourceInPoint="528341" sourceOutPoint="563303" startPoint="1023336" zOrder="2145915065">
          <component componentGuid="23f64e64-281e-46c4-9496-42fb35733132" componentID="Audition.Fader" id="clipGain" name="volume" powered="true">
            <parameter index="0" name="volume" parameterValue="2.2883472">
              <parameterKeyframes enableSplines="false">
                <parameterKeyframe sampleOffset="549438" select="true" type="linear" value="0.8513092"/>
              </parameterKeyframes>
            </parameter>
            <parameter index="1" name="static gain" parameterValue="1"/>
          </component>
          <component componentGuid="b8eb3b74-05fd-4818-9e66-4b627186d9e3" componentID="Audition.Mute" id="clipMute" name="Mute" powered="true">
            <parameter index="0" parameterValue="0"/>
            <parameter index="1" name="mute" parameterValue="0"/>
          </component>
          <component componentGuid="05e21564-172e-4320-bdd4-00a9e5ac7909" componentID="Audition.StereoPanner" id="clipPan" name="StereoPanner" powered="true">
            <parameter index="0" name="Pan" parameterValue="0"/>
          </component>
          <fadeIn crossFadeLinkType="linkedAsymmetric" endPoint="9557" shape="12" startPoint="0" type="log"/>
          <fadeOut crossFadeLinkType="linkedAsymmetric" endPoint="34962" shape="18" startPoint="34962" type="log"/>
          <clipStretch adaptiveWindowSize="37" pitchAdjustment="0" preserveFormants="true" stretchMode="realtime" stretchQuality="high" stretchRatio="0.9147552991805153" stretchType="solo" transientSensitivity="40"/>
          <editParameter parameterIndex="0" slotIndex="4294967281"/>
          <editParameter parameterIndex="0" slotIndex="4294967280"/>
          <channelMap>
            <channel index="0" sourceIndex="0"/>
          </channelMap>
        </audioClip>
        <audioClip clipAutoCrossfade="true" crossFadeHeadClipID="-1" crossFadeTailClipID="-1" endPoint="1278900" fileID="66" hue="-1" id="13" lockedInTime="false" looped="false" name="Leon_041" offline="false" select="false" sourceInPoint="81467" sourceOutPoint="302069" startPoint="1058298" zOrder="2145913289">
          <component componentGuid="7f9f7d8a-33a0-4d56-b41d-8f3abd6573d7" componentID="Audition.Fader" id="clipGain" name="volume" powered="true">
            <parameter index="0" name="volume" parameterValue="2.5160527">
              <parameterKeyframes enableSplines="false">
                <parameterKeyframe sampleOffset="79636" select="false" type="linear" value="0.4301418"/>
                <parameterKeyframe sampleOffset="81057" select="false" type="linear" value="0.8304667"/>
                <parameterKeyframe sampleOffset="87180" select="true" type="linear" value="0.8699668"/>
              </parameterKeyframes>
            </parameter>
            <parameter index="1" name="static gain" parameterValue="1"/>
          </component>
          <component componentGuid="54317492-a5c4-4936-9b45-914f11167c03" componentID="Audition.Mute" id="clipMute" name="Mute" powered="true">
            <parameter index="0" parameterValue="0"/>
            <parameter index="1" name="mute" parameterValue="0"/>
          </component>
          <component componentGuid="715029dc-b37b-4c6b-b12a-7229481e898b" componentID="Audition.StereoPanner" id="clipPan" name="StereoPanner" powered="true">
            <parameter index="0" name="Pan" parameterValue="0"/>
          </component>
          <fadeIn crossFadeLinkType="linkedAsymmetric" endPoint="0" shape="19" startPoint="0" type="log"/>
          <fadeOut crossFadeLinkType="linkedAsymmetric" endPoint="220602" shape="13" startPoint="189890" type="log"/>
          <take sourceInPoint="0"/>
          <editParameter parameterIndex="0" slotIndex="4294967281"/>
          <editParameter parameterIndex="0" slotIndex="4294967280"/>
          <channelMap>
            <channel index="0" sourceIndex="0"/>
          </channelMap>
        </audioClip>
        <audioClip clipAutoCrossfade="true" crossFadeHeadClipID="-1" crossFadeTailClipID="15" endPoint="1477180" fileID="67" hue="-1" id="14" lockedInTime="false" looped="false" name="Leon_040" offline="false" select="false" sourceInPoint="288601" sourceOutPoint="443955" startPoint="1321826" zOrder="2145913291">
          <component componentGuid="513cc419-c41d-41d8-b8b7-784997ee738a" componentID="Audition.Fader" id="clipGain" name="volume" powered="true">
            <parameter index="0" name="volume" parameterValue="2.5160568"/>
            <parameter index="1" name="static gain" parameterValue="1"/>
          </component>
          <component componentGuid="1b0b0ec8-07fa-4893-a97e-55e5b082f4fc" componentID="Audition.Mute" id="clipMute" name="Mute" powered="true">
            <parameter index="0" parameterValue="0"/>
            <parameter index="1" name="mute" parameterValue="0"/>
          </component>
          <component componentGuid="d7f3193b-2a96-43dd-9dad-4d438da0abd0" componentID="Audition.StereoPanner" id="clipPan" name="StereoPanner" powered="true">
            <parameter index="0" name="Pan" parameterValue="0"/>
          </component>
          <fadeIn crossFadeLinkType="linkedAsymmetric" endPoint="23697" shape="19" startPoint="0" type="log"/>
          <fadeOut crossFadeLinkType="linkedAsymmetric" endPoint="155354" shape="19" startPoint="154707" type="log"/>
          <editParameter parameterIndex="0" slotIndex="4294967281"/>
          <editParameter parameterIndex="0" slotIndex="4294967280"/>
          <channelMap>
            <channel index="0" sourceIndex="0"/>
          </channelMap>
        </audioClip>
        <audioClip clipAutoCrossfade="true" crossFadeHeadClipID="14" crossFadeTailClipID="-1" endPoint="1567327" fileID="66" hue="-1" id="15" lockedInTime="false" looped="false" name="Leon_041" offline="false" select="false" sourceInPoint="477114" sourceOutPoint="567908" startPoint="1476533" zOrder="2145913293">
          <component componentGuid="d7f81de5-f793-4f7f-bdd1-b530adc7f1fe" componentID="Audition.Fader" id="clipGain" name="volume" powered="true">
            <parameter index="0" name="volume" parameterValue="2.9807389"/>
            <parameter index="1" name="static gain" parameterValue="1"/>
          </component>
          <component componentGuid="1b86c5bd-d4b0-4f70-bb03-a3b1e6ff0e0f" componentID="Audition.Mute" id="clipMute" name="Mute" powered="true">
            <parameter index="0" parameterValue="0"/>
            <parameter index="1" name="mute" parameterValue="0"/>
          </component>
          <component componentGuid="43556ce5-c48d-497e-a4ef-5609bde826c5" componentID="Audition.StereoPanner" id="clipPan" name="StereoPanner" powered="true">
            <parameter index="0" name="Pan" parameterValue="0"/>
          </component>
          <fadeIn crossFadeLinkType="linkedAsymmetric" endPoint="647" shape="18" startPoint="0" type="log"/>
          <fadeOut crossFadeLinkType="linkedAsymmetric" endPoint="90794" shape="19" startPoint="90794" type="log"/>
          <editParameter parameterIndex="0" slotIndex="4294967281"/>
          <editParameter parameterIndex="0" slotIndex="4294967280"/>
          <channelMap>
            <channel index="0" sourceIndex="0"/>
          </channelMap>
        </audioClip>
        <audioClip clipAutoCrossfade="true" crossFadeHeadClipID="-1" crossFadeTailClipID="-1" endPoint="1665182" fileID="66" hue="-1" id="16" lockedInTime="false" looped="false" name="Leon_041" offline="false" select="false" sourceInPoint="594062" sourceOutPoint="691917" startPoint="1567327" zOrder="2145913305">
          <component componentGuid="352d7b18-d86f-4af9-ac57-e7b6cbd746b0" componentID="Audition.Fader" id="clipGain" name="volume" powered="true">
            <parameter index="0" name="volume" parameterValue="0.5133013">
              <parameterKeyframes enableSplines="false">
                <parameterKeyframe sampleOffset="591879" select="false" type="linear" value="0.4822147"/>
                <parameterKeyframe sampleOffset="593674" select="false" type="linear" value="0.8346113"/>
                <parameterKeyframe sampleOffset="599809" select="false" type="linear" value="0.65"/>
                <parameterKeyframe sampleOffset="621435" select="true" type="linear" value="0.7756931"/>
              </parameterKeyframes>
            </parameter>
            <parameter index="1" name="static gain" parameterValue="1"/>
          </component>
          <component componentGuid="751e28ff-5b27-4160-9bb8-0e18e5c05cab" componentID="Audition.Mute" id="clipMute" name="Mute" powered="true">
            <parameter index="0" parameterValue="0"/>
            <parameter index="1" name="mute" parameterValue="0"/>
          </component>
          <component componentGuid="7d6348fb-9888-43cb-8d94-0a378c39cebc" componentID="Audition.StereoPanner" id="clipPan" name="StereoPanner" powered="true">
            <parameter index="0" name="Pan" parameterValue="0"/>
          </component>
          <fadeIn crossFadeLinkType="linkedAsymmetric" endPoint="0" shape="19" startPoint="0" type="log"/>
          <fadeOut crossFadeLinkType="linkedAsymmetric" endPoint="97855" shape="9" startPoint="79100" type="log"/>
          <editParameter parameterIndex="0" slotIndex="4294967281"/>
          <editParameter parameterIndex="0" slotIndex="4294967280"/>
          <channelMap>
            <channel index="0" sourceIndex="0"/>
          </channelMap>
        </audioClip>
        <audioClip clipAutoCrossfade="true" crossFadeHeadClipID="-1" crossFadeTailClipID="-1" endPoint="1743872" fileID="35" hue="-1" id="17" lockedInTime="false" looped="false" name="Track 3_016" offline="false" select="false" sourceInPoint="528341" sourceOutPoint="564414" startPoint="1707799" zOrder="2145913309">
          <component componentGuid="0e3e89f5-4de9-4117-80a4-b8a61f8a4b31" componentID="Audition.Fader" id="clipGain" name="volume" powered="true">
            <parameter index="0" name="volume" parameterValue="2.1832416"/>
            <parameter index="1" name="static gain" parameterValue="1"/>
          </component>
          <component componentGuid="56703a75-7f2b-46c9-a8e9-9be3f71d8b1a" componentID="Audition.Mute" id="clipMute" name="Mute" powered="true">
            <parameter index="0" parameterValue="0"/>
            <parameter index="1" name="mute" parameterValue="0"/>
          </component>
          <component componentGuid="9f662c6d-d02d-4670-832c-15f5d25cad58" componentID="Audition.StereoPanner" id="clipPan" name="StereoPanner" powered="true">
            <parameter index="0" name="Pan" parameterValue="0"/>
          </component>
          <fadeIn crossFadeLinkType="linkedAsymmetric" endPoint="9557" shape="12" startPoint="0" type="log"/>
          <fadeOut crossFadeLinkType="linkedAsymmetric" endPoint="36073" shape="18" startPoint="36073" type="log"/>
          <clipStretch adaptiveWindowSize="37" pitchAdjustment="0" preserveFormants="true" stretchMode="realtime" stretchQuality="high" stretchRatio="0.9147552991805153" stretchType="solo" transientSensitivity="40"/>
          <editParameter parameterIndex="0" slotIndex="4294967281"/>
          <editParameter parameterIndex="0" slotIndex="4294967280"/>
          <channelMap>
            <channel index="0" sourceIndex="0"/>
          </channelMap>
        </audioClip>
        <audioClip clipAutoCrossfade="true" crossFadeHeadClipID="-1" crossFadeTailClipID="-1" endPoint="1863885" fileID="68" hue="-1" id="18" lockedInTime="false" looped="false" name="Leon_043" offline="false" select="false" sourceInPoint="66270" sourceOutPoint="186283" startPoint="1743872" zOrder="2145913315">
          <component componentGuid="375bf8d9-c6eb-417f-8920-779cbe2123f8" componentID="Audition.Fader" id="clipGain" name="volume" powered="true">
            <parameter index="0" name="volume" parameterValue="0.4507617">
              <parameterKeyframes enableSplines="false">
                <parameterKeyframe sampleOffset="61744" select="false" type="linear" value="0.4549645"/>
                <parameterKeyframe sampleOffset="64389" select="false" type="linear" value="0.8763561"/>
                <parameterKeyframe sampleOffset="80203" select="true" type="linear" value="0.8182573"/>
              </parameterKeyframes>
            </parameter>
            <parameter index="1" name="static gain" parameterValue="1"/>
          </component>
          <component componentGuid="c7a187a9-e574-448e-8038-842c43e4a5bf" componentID="Audition.Mute" id="clipMute" name="Mute" powered="true">
            <parameter index="0" parameterValue="0"/>
            <parameter index="1" name="mute" parameterValue="0"/>
          </component>
          <component componentGuid="0480eefc-5f6c-4ad1-b96a-81c4cda6ef71" componentID="Audition.StereoPanner" id="clipPan" name="StereoPanner" powered="true">
            <parameter index="0" name="Pan" parameterValue="0"/>
          </component>
          <fadeIn crossFadeLinkType="linkedAsymmetric" endPoint="0" shape="19" startPoint="0" type="log"/>
          <fadeOut crossFadeLinkType="linkedAsymmetric" endPoint="120013" shape="0" startPoint="120013" type="cosine"/>
          <take sourceInPoint="0"/>
          <editParameter parameterIndex="0" slotIndex="4294967281"/>
          <editParameter parameterIndex="0" slotIndex="4294967280"/>
          <channelMap>
            <channel index="0" sourceIndex="0"/>
          </channelMap>
        </audioClip>
        <audioClip clipAutoCrossfade="true" crossFadeHeadClipID="-1" crossFadeTailClipID="-1" endPoint="1915622" fileID="69" hue="-1" id="19" lockedInTime="false" looped="false" name="Leon_045" offline="false" select="false" sourceInPoint="211385" sourceOutPoint="263122" startPoint="1863885" zOrder="2145913314">
          <component componentGuid="a6c07297-e415-4a89-87b8-6dafd09d792e" componentID="Audition.Fader" id="clipGain" name="volume" powered="true">
            <parameter index="0" name="volume" parameterValue="1.8704067"/>
            <parameter index="1" name="static gain" parameterValue="1"/>
          </component>
          <component componentGuid="73bafee8-eef2-4ad8-80c1-a9b8454e1522" componentID="Audition.Mute" id="clipMute" name="Mute" powered="true">
            <parameter index="0" parameterValue="0"/>
            <parameter index="1" name="mute" parameterValue="0"/>
          </component>
          <component componentGuid="c1184888-3b98-4efd-932f-aaf050ab58ba" componentID="Audition.StereoPanner" id="clipPan" name="StereoPanner" powered="true">
            <parameter index="0" name="Pan" parameterValue="0"/>
          </component>
          <fadeIn crossFadeLinkType="linkedAsymmetric" endPoint="0" shape="19" startPoint="0" type="log"/>
          <fadeOut crossFadeLinkType="linkedAsymmetric" endPoint="51737" shape="12" startPoint="38833" type="log"/>
          <take sourceInPoint="0"/>
          <editParameter parameterIndex="0" slotIndex="4294967281"/>
          <editParameter parameterIndex="0" slotIndex="4294967280"/>
          <channelMap>
            <channel index="0" sourceIndex="0"/>
          </channelMap>
        </audioClip>
        <audioClip clipAutoCrossfade="true" crossFadeHeadClipID="-1" crossFadeTailClipID="-1" endPoint="1992014" fileID="35" hue="-1" id="20" lockedInTime="false" looped="false" name="Track 3_016" offline="false" select="false" sourceInPoint="528341" sourceOutPoint="564414" startPoint="1955941" zOrder="2145914100">
          <component componentGuid="52b2b4fd-d2d5-4762-955f-537c30674a71" componentID="Audition.Fader" id="clipGain" name="volume" powered="true">
            <parameter index="0" name="volume" parameterValue="2.0869501"/>
            <parameter index="1" name="static gain" parameterValue="1"/>
          </component>
          <component componentGuid="845108e9-62ca-4bcc-b9ed-261e7fe0dab1" componentID="Audition.Mute" id="clipMute" name="Mute" powered="true">
            <parameter index="0" parameterValue="0"/>
            <parameter index="1" name="mute" parameterValue="0"/>
          </component>
          <component componentGuid="a0582780-c80a-4770-9ed7-4d5b2152b6cb" componentID="Audition.StereoPanner" id="clipPan" name="StereoPanner" powered="true">
            <parameter index="0" name="Pan" parameterValue="0"/>
          </component>
          <fadeIn crossFadeLinkType="linkedAsymmetric" endPoint="9557" shape="12" startPoint="0" type="log"/>
          <fadeOut crossFadeLinkType="linkedAsymmetric" endPoint="36073" shape="18" startPoint="36073" type="log"/>
          <clipStretch adaptiveWindowSize="37" pitchAdjustment="0" preserveFormants="true" stretchMode="realtime" stretchQuality="high" stretchRatio="0.9147552991805153" stretchType="solo" transientSensitivity="40"/>
          <editParameter parameterIndex="0" slotIndex="4294967281"/>
          <editParameter parameterIndex="0" slotIndex="4294967280"/>
          <channelMap>
            <channel index="0" sourceIndex="0"/>
          </channelMap>
        </audioClip>
        <audioClip clipAutoCrossfade="true" crossFadeHeadClipID="-1" crossFadeTailClipID="-1" endPoint="2022605" fileID="69" hue="-1" id="21" lockedInTime="false" looped="false" name="Leon_045" offline="false" select="false" sourceInPoint="299095" sourceOutPoint="329686" startPoint="1992014" zOrder="2145914103">
          <component componentGuid="28469d08-1e49-47e7-b1a9-88fb04949abf" componentID="Audition.Fader" id="clipGain" name="volume" powered="true">
            <parameter index="0" name="volume" parameterValue="0.4909433">
              <parameterKeyframes enableSplines="false">
                <parameterKeyframe sampleOffset="297726" select="false" type="linear" value="0.472695"/>
                <parameterKeyframe sampleOffset="298470" select="false" type="linear" value="0.8351987"/>
                <parameterKeyframe sampleOffset="309663" select="true" type="linear" value="0.8836905"/>
              </parameterKeyframes>
            </parameter>
            <parameter index="1" name="static gain" parameterValue="1"/>
          </component>
          <component componentGuid="5196edb7-c792-4466-98b5-41a6bbb8ca95" componentID="Audition.Mute" id="clipMute" name="Mute" powered="true">
            <parameter index="0" parameterValue="0"/>
            <parameter index="1" name="mute" parameterValue="0"/>
          </component>
          <component componentGuid="12e420bd-d6ad-426c-8bf3-1e80fcf4d2d4" componentID="Audition.StereoPanner" id="clipPan" name="StereoPanner" powered="true">
            <parameter index="0" name="Pan" parameterValue="0"/>
          </component>
          <fadeIn crossFadeLinkType="linkedAsymmetric" endPoint="0" shape="19" startPoint="0" type="log"/>
          <fadeOut crossFadeLinkType="linkedAsymmetric" endPoint="30591" shape="18" startPoint="30591" type="log"/>
          <editParameter parameterIndex="0" slotIndex="4294967281"/>
          <editParameter parameterIndex="0" slotIndex="4294967280"/>
          <channelMap>
            <channel index="0" sourceIndex="0"/>
          </channelMap>
        </audioClip>
        <audioClip clipAutoCrossfade="true" crossFadeHeadClipID="-1" crossFadeTailClipID="23" endPoint="2129450" fileID="69" hue="-1" id="22" lockedInTime="false" looped="false" name="Leon_045" offline="false" select="false" sourceInPoint="343125" sourceOutPoint="449970" startPoint="2022605" zOrder="2145914108">
          <component componentGuid="1991b7e8-57c7-4285-96cb-04b9de2bff01" componentID="Audition.Fader" id="clipGain" name="volume" powered="true">
            <parameter index="0" name="volume" parameterValue="2.5741932"/>
            <parameter index="1" name="static gain" parameterValue="1"/>
          </component>
          <component componentGuid="93a67d62-e371-4abe-b7a5-55ae9c091889" componentID="Audition.Mute" id="clipMute" name="Mute" powered="true">
            <parameter index="0" parameterValue="0"/>
            <parameter index="1" name="mute" parameterValue="0"/>
          </component>
          <component componentGuid="47106b15-6d24-484a-9ad9-011e4da10917" componentID="Audition.StereoPanner" id="clipPan" name="StereoPanner" powered="true">
            <parameter index="0" name="Pan" parameterValue="0"/>
          </component>
          <fadeIn crossFadeLinkType="linkedAsymmetric" endPoint="0" shape="0" startPoint="0" type="cosine"/>
          <fadeOut crossFadeLinkType="linkedAsymmetric" endPoint="106845" shape="18" startPoint="103873" type="log"/>
          <editParameter parameterIndex="0" slotIndex="4294967281"/>
          <editParameter parameterIndex="0" slotIndex="4294967280"/>
          <channelMap>
            <channel index="0" sourceIndex="0"/>
          </channelMap>
        </audioClip>
        <audioClip clipAutoCrossfade="true" crossFadeHeadClipID="22" crossFadeTailClipID="-1" endPoint="2146684" fileID="70" hue="-1" id="23" lockedInTime="false" looped="false" name="Leon_042" offline="false" select="false" sourceInPoint="487891" sourceOutPoint="508097" startPoint="2126478" zOrder="2145914107">
          <component componentGuid="5434a97f-db23-4329-a31b-019fb9ddf6f8" componentID="Audition.Fader" id="clipGain" name="volume" powered="true">
            <parameter index="0" name="volume" parameterValue="2.7050815"/>
            <parameter index="1" name="static gain" parameterValue="1"/>
          </component>
          <component componentGuid="9b9a4f6f-cdb4-4d72-bf25-8fffdbcfc62f" componentID="Audition.Mute" id="clipMute" name="Mute" powered="true">
            <parameter index="0" parameterValue="0"/>
            <parameter index="1" name="mute" parameterValue="0"/>
          </component>
          <component componentGuid="7ad591ac-c457-4a39-98f1-30fb2ec26652" componentID="Audition.StereoPanner" id="clipPan" name="StereoPanner" powered="true">
            <parameter index="0" name="Pan" parameterValue="0"/>
          </component>
          <fadeIn crossFadeLinkType="linkedAsymmetric" endPoint="2972" shape="19" startPoint="0" type="log"/>
          <fadeOut crossFadeLinkType="linkedAsymmetric" endPoint="20206" shape="0" startPoint="12695" type="log"/>
          <editParameter parameterIndex="0" slotIndex="4294967281"/>
          <editParameter parameterIndex="0" slotIndex="4294967280"/>
          <channelMap>
            <channel index="0" sourceIndex="0"/>
          </channelMap>
        </audioClip>
        <audioClip clipAutoCrossfade="true" crossFadeHeadClipID="-1" crossFadeTailClipID="-1" endPoint="2225136" fileID="35" hue="-1" id="24" lockedInTime="false" looped="false" name="Track 3_016" offline="false" select="false" sourceInPoint="528341" sourceOutPoint="564414" startPoint="2189063" zOrder="2145914110">
          <component componentGuid="029fcb67-269e-4f64-88a2-1917459a75df" componentID="Audition.Fader" id="clipGain" name="volume" powered="true">
            <parameter index="0" name="volume" parameterValue="2.4533381"/>
            <parameter index="1" name="static gain" parameterValue="1"/>
          </component>
          <component componentGuid="7b446c2c-2ec0-4d75-8fc4-e1c559bfe98c" componentID="Audition.Mute" id="clipMute" name="Mute" powered="true">
            <parameter index="0" parameterValue="0"/>
            <parameter index="1" name="mute" parameterValue="0"/>
          </component>
          <component componentGuid="bcd2caa1-8d64-4770-bafe-6d189199b49d" componentID="Audition.StereoPanner" id="clipPan" name="StereoPanner" powered="true">
            <parameter index="0" name="Pan" parameterValue="0"/>
          </component>
          <fadeIn crossFadeLinkType="linkedAsymmetric" endPoint="9557" shape="12" startPoint="0" type="log"/>
          <fadeOut crossFadeLinkType="linkedAsymmetric" endPoint="36073" shape="19" startPoint="36073" type="log"/>
          <clipStretch adaptiveWindowSize="37" pitchAdjustment="0" preserveFormants="true" stretchMode="realtime" stretchQuality="high" stretchRatio="0.9147552991805153" stretchType="solo" transientSensitivity="40"/>
          <editParameter parameterIndex="0" slotIndex="4294967281"/>
          <editParameter parameterIndex="0" slotIndex="4294967280"/>
          <channelMap>
            <channel index="0" sourceIndex="0"/>
          </channelMap>
        </audioClip>
        <audioClip clipAutoCrossfade="true" crossFadeHeadClipID="-1" crossFadeTailClipID="-1" endPoint="2371058" fileID="71" hue="-1" id="25" lockedInTime="false" looped="false" name="Leon_046" offline="false" select="false" sourceInPoint="13673" sourceOutPoint="159595" startPoint="2225136" zOrder="2145914121">
          <component componentGuid="b8799dd6-1d39-4d06-9330-6ac9bd870bf2" componentID="Audition.Fader" id="clipGain" name="volume" powered="true">
            <parameter index="0" name="volume" parameterValue="0.4199752">
              <parameterKeyframes enableSplines="false">
                <parameterKeyframe sampleOffset="12052" select="false" type="linear" value="0.4407801"/>
                <parameterKeyframe sampleOffset="12053" select="false" type="linear" value="0.8264526"/>
                <parameterKeyframe sampleOffset="14796" select="true" type="linear" value="0.8670679"/>
              </parameterKeyframes>
            </parameter>
            <parameter index="1" name="static gain" parameterValue="1"/>
          </component>
          <component componentGuid="cfd24e34-a22d-4e7d-b3b8-ef35920565ec" componentID="Audition.Mute" id="clipMute" name="Mute" powered="true">
            <parameter index="0" parameterValue="0"/>
            <parameter index="1" name="mute" parameterValue="0"/>
          </component>
          <component componentGuid="b8370453-dfc4-46d0-92d2-4906c32caa89" componentID="Audition.StereoPanner" id="clipPan" name="StereoPanner" powered="true">
            <parameter index="0" name="Pan" parameterValue="0"/>
          </component>
          <fadeIn crossFadeLinkType="linkedAsymmetric" endPoint="0" shape="18" startPoint="0" type="log"/>
          <fadeOut crossFadeLinkType="linkedAsymmetric" endPoint="145922" shape="10" startPoint="126972" type="log"/>
          <take sourceInPoint="0"/>
          <editParameter parameterIndex="0" slotIndex="4294967281"/>
          <editParameter parameterIndex="0" slotIndex="4294967280"/>
          <channelMap>
            <channel index="0" sourceIndex="0"/>
          </channelMap>
        </audioClip>
        <audioClip clipAutoCrossfade="true" crossFadeHeadClipID="-1" crossFadeTailClipID="-1" endPoint="2561860" fileID="72" hue="-1" id="26" lockedInTime="false" looped="false" name="Leon_047" offline="false" select="false" sourceInPoint="206676" sourceOutPoint="370695" startPoint="2397841" zOrder="2145914124">
          <component componentGuid="d05bf445-5699-489d-9230-8b7ca43fba00" componentID="Audition.Fader" id="clipGain" name="volume" powered="true">
            <parameter index="0" name="volume" parameterValue="2.3961418"/>
            <parameter index="1" name="static gain" parameterValue="1"/>
          </component>
          <component componentGuid="6009b74b-cc9e-4572-911e-6da7d61da32c" componentID="Audition.Mute" id="clipMute" name="Mute" powered="true">
            <parameter index="0" parameterValue="0"/>
            <parameter index="1" name="mute" parameterValue="0"/>
          </component>
          <component componentGuid="0bf420c9-4d2c-4181-8f5d-122f5fb46d8f" componentID="Audition.StereoPanner" id="clipPan" name="StereoPanner" powered="true">
            <parameter index="0" name="Pan" parameterValue="0"/>
          </component>
          <fadeIn crossFadeLinkType="linkedAsymmetric" endPoint="24635" shape="19" startPoint="0" type="log"/>
          <fadeOut crossFadeLinkType="linkedAsymmetric" endPoint="164019" shape="10" startPoint="141335" type="log"/>
          <take sourceInPoint="0"/>
          <editParameter parameterIndex="0" slotIndex="4294967281"/>
          <editParameter parameterIndex="0" slotIndex="4294967280"/>
          <channelMap>
            <channel index="0" sourceIndex="0"/>
          </channelMap>
        </audioClip>
        <audioClip clipAutoCrossfade="true" crossFadeHeadClipID="-1" crossFadeTailClipID="28" endPoint="2646926" fileID="35" hue="-1" id="27" lockedInTime="false" looped="false" name="Track 3_016" offline="false" select="false" sourceInPoint="528341" sourceOutPoint="564414" startPoint="2610853" zOrder="2145914126">
          <component componentGuid="d3df0ce1-6601-417a-9fbc-2d59787636b4" componentID="Audition.Fader" id="clipGain" name="volume" powered="true">
            <parameter index="0" name="volume" parameterValue="1.971579"/>
            <parameter index="1" name="static gain" parameterValue="1"/>
          </component>
          <component componentGuid="e6afaa0e-dddf-43f0-a9e4-19f1b33481f9" componentID="Audition.Mute" id="clipMute" name="Mute" powered="true">
            <parameter index="0" parameterValue="0"/>
            <parameter index="1" name="mute" parameterValue="0"/>
          </component>
          <component componentGuid="61942c16-3b11-4bed-a88d-194e4fa4a6c9" componentID="Audition.StereoPanner" id="clipPan" name="StereoPanner" powered="true">
            <parameter index="0" name="Pan" parameterValue="0"/>
          </component>
          <fadeIn crossFadeLinkType="linkedAsymmetric" endPoint="9557" shape="12" startPoint="0" type="log"/>
          <fadeOut crossFadeLinkType="linkedAsymmetric" endPoint="36073" shape="19" startPoint="35147" type="log"/>
          <clipStretch adaptiveWindowSize="37" pitchAdjustment="0" preserveFormants="true" stretchMode="realtime" stretchQuality="high" stretchRatio="0.9147552991805153" stretchType="solo" transientSensitivity="40"/>
          <editParameter parameterIndex="0" slotIndex="4294967281"/>
          <editParameter parameterIndex="0" slotIndex="4294967280"/>
          <channelMap>
            <channel index="0" sourceIndex="0"/>
          </channelMap>
        </audioClip>
        <audioClip clipAutoCrossfade="true" crossFadeHeadClipID="27" crossFadeTailClipID="-1" endPoint="2713355" fileID="73" hue="-1" id="28" lockedInTime="false" looped="false" name="Leon_048" offline="false" select="false" sourceInPoint="34519" sourceOutPoint="101874" startPoint="2646000" zOrder="2145914132">
          <component componentGuid="aebf320c-8cc4-439d-a07e-0cdc9bdd0603" componentID="Audition.Fader" id="clipGain" name="volume" powered="true">
            <parameter index="0" name="volume" parameterValue="1.9380983">
              <parameterKeyframes enableSplines="false">
                <parameterKeyframe sampleOffset="32043" select="false" type="linear" value="0.8166645"/>
                <parameterKeyframe sampleOffset="47920" select="true" type="linear" value="0.8641538"/>
              </parameterKeyframes>
            </parameter>
            <parameter index="1" name="static gain" parameterValue="1"/>
          </component>
          <component componentGuid="ff66d16f-85ef-46d0-8ab1-2b0b7b4c9480" componentID="Audition.Mute" id="clipMute" name="Mute" powered="true">
            <parameter index="0" parameterValue="0"/>
            <parameter index="1" name="mute" parameterValue="0"/>
          </component>
          <component componentGuid="da2736cc-d105-41b5-93fb-cc4ecc8f3bee" componentID="Audition.StereoPanner" id="clipPan" name="StereoPanner" powered="true">
            <parameter index="0" name="Pan" parameterValue="0"/>
          </component>
          <fadeIn crossFadeLinkType="linkedAsymmetric" endPoint="926" shape="18" startPoint="0" type="log"/>
          <fadeOut crossFadeLinkType="linkedAsymmetric" endPoint="67355" shape="13" startPoint="54467" type="log"/>
          <take sourceInPoint="0"/>
          <editParameter parameterIndex="0" slotIndex="4294967281"/>
          <editParameter parameterIndex="0" slotIndex="4294967280"/>
          <channelMap>
            <channel index="0" sourceIndex="0"/>
          </channelMap>
        </audioClip>
        <audioClip clipAutoCrossfade="true" crossFadeHeadClipID="-1" crossFadeTailClipID="-1" endPoint="2935105" fileID="74" hue="-1" id="29" lockedInTime="false" looped="false" name="Leon_049" offline="false" select="false" sourceInPoint="109919" sourceOutPoint="291538" startPoint="2753486" zOrder="2145914134">
          <component componentGuid="eb7a8f5c-86a9-4bd5-b2ac-e153ae4947f2" componentID="Audition.Fader" id="clipGain" name="volume" powered="true">
            <parameter index="0" name="volume" parameterValue="2.3961418"/>
            <parameter index="1" name="static gain" parameterValue="1"/>
          </component>
          <component componentGuid="738b42ca-f361-4d12-862f-a30b54c9b13a" componentID="Audition.Mute" id="clipMute" name="Mute" powered="true">
            <parameter index="0" parameterValue="0"/>
            <parameter index="1" name="mute" parameterValue="0"/>
          </component>
          <component componentGuid="f8ebab41-bd5e-401d-b2e4-24799d874ce8" componentID="Audition.StereoPanner" id="clipPan" name="StereoPanner" powered="true">
            <parameter index="0" name="Pan" parameterValue="0"/>
          </component>
          <fadeIn crossFadeLinkType="linkedAsymmetric" endPoint="19948" shape="19" startPoint="0" type="log"/>
          <fadeOut crossFadeLinkType="linkedAsymmetric" endPoint="181619" shape="7" startPoint="158822" type="log"/>
          <editParameter parameterIndex="0" slotIndex="4294967281"/>
          <editParameter parameterIndex="0" slotIndex="4294967280"/>
          <channelMap>
            <channel index="0" sourceIndex="0"/>
          </channelMap>
        </audioClip>
        <audioClip clipAutoCrossfade="true" crossFadeHeadClipID="-1" crossFadeTailClipID="-1" endPoint="3012191" fileID="35" hue="-1" id="30" lockedInTime="false" looped="false" name="Track 3_016" offline="false" select="false" sourceInPoint="528341" sourceOutPoint="564414" startPoint="2976118" zOrder="2145914136">
          <component componentGuid="b4cf9030-cb07-4ccd-ac74-09e05a4b0825" componentID="Audition.Fader" id="clipGain" name="volume" powered="true">
            <parameter index="0" name="volume" parameterValue="1.9054331"/>
            <parameter index="1" name="static gain" parameterValue="1"/>
          </component>
          <component componentGuid="c58bc0eb-0e1a-4af9-94bb-c392b87f6eaa" componentID="Audition.Mute" id="clipMute" name="Mute" powered="true">
            <parameter index="0" parameterValue="0"/>
            <parameter index="1" name="mute" parameterValue="0"/>
          </component>
          <component componentGuid="086c2f23-407c-4af3-b41f-651f8b86f3c1" componentID="Audition.StereoPanner" id="clipPan" name="StereoPanner" powered="true">
            <parameter index="0" name="Pan" parameterValue="0"/>
          </component>
          <fadeIn crossFadeLinkType="linkedAsymmetric" endPoint="9557" shape="12" startPoint="0" type="log"/>
          <fadeOut crossFadeLinkType="linkedAsymmetric" endPoint="36073" shape="19" startPoint="36073" type="log"/>
          <clipStretch adaptiveWindowSize="37" pitchAdjustment="0" preserveFormants="true" stretchMode="realtime" stretchQuality="high" stretchRatio="0.9147552991805153" stretchType="solo" transientSensitivity="40"/>
          <editParameter parameterIndex="0" slotIndex="4294967281"/>
          <editParameter parameterIndex="0" slotIndex="4294967280"/>
          <channelMap>
            <channel index="0" sourceIndex="0"/>
          </channelMap>
        </audioClip>
        <audioClip clipAutoCrossfade="true" crossFadeHeadClipID="-1" crossFadeTailClipID="-1" endPoint="3122877" fileID="75" hue="-1" id="31" lockedInTime="false" looped="false" name="Leon_052" offline="false" select="false" sourceInPoint="56968" sourceOutPoint="167654" startPoint="3012191" zOrder="2145914142">
          <component componentGuid="0886a6a7-f9be-4c14-94b6-8200508d5d90" componentID="Audition.Fader" id="clipGain" name="volume" powered="true">
            <parameter index="0" name="volume" parameterValue="1.8567855">
              <parameterKeyframes enableSplines="false">
                <parameterKeyframe sampleOffset="53597" select="false" type="linear" value="0.8073"/>
                <parameterKeyframe sampleOffset="71504" select="true" type="linear" value="0.8530769"/>
              </parameterKeyframes>
            </parameter>
            <parameter index="1" name="static gain" parameterValue="1"/>
          </component>
          <component componentGuid="206db791-7268-4d7b-87b7-2428d302c5c2" componentID="Audition.Mute" id="clipMute" name="Mute" powered="true">
            <parameter index="0" parameterValue="0"/>
            <parameter index="1" name="mute" parameterValue="0"/>
          </component>
          <component componentGuid="0165730f-a160-40c0-b0be-90d7e902d0c6" componentID="Audition.StereoPanner" id="clipPan" name="StereoPanner" powered="true">
            <parameter index="0" name="Pan" parameterValue="0"/>
          </component>
          <fadeIn crossFadeLinkType="linkedAsymmetric" endPoint="0" shape="18" startPoint="0" type="log"/>
          <fadeOut crossFadeLinkType="linkedAsymmetric" endPoint="110686" shape="10" startPoint="96756" type="log"/>
          <take sourceInPoint="0"/>
          <editParameter parameterIndex="0" slotIndex="4294967281"/>
          <editParameter parameterIndex="0" slotIndex="4294967280"/>
          <channelMap>
            <channel index="0" sourceIndex="0"/>
          </channelMap>
        </audioClip>
        <audioClip clipAutoCrossfade="true" crossFadeHeadClipID="-1" crossFadeTailClipID="-1" endPoint="3274389" fileID="75" hue="-1" id="32" lockedInTime="false" looped="false" name="Leon_052" offline="false" select="false" sourceInPoint="187470" sourceOutPoint="311759" startPoint="3150100" zOrder="2145914143">
          <component componentGuid="566284ac-ee86-43e7-b5ff-5b0bfe7910b0" componentID="Audition.Fader" id="clipGain" name="volume" powered="true">
            <parameter index="0" name="volume" parameterValue="2.3086131"/>
            <parameter index="1" name="static gain" parameterValue="1"/>
          </component>
          <component componentGuid="a49bd197-8a5d-46e4-96c3-531a9a6c6bac" componentID="Audition.Mute" id="clipMute" name="Mute" powered="true">
            <parameter index="0" parameterValue="0"/>
            <parameter index="1" name="mute" parameterValue="0"/>
          </component>
          <component componentGuid="7f7ef037-1e6b-4e11-b6ad-4e203f5b9648" componentID="Audition.StereoPanner" id="clipPan" name="StereoPanner" powered="true">
            <parameter index="0" name="Pan" parameterValue="0"/>
          </component>
          <fadeIn crossFadeLinkType="linkedAsymmetric" endPoint="16069" shape="19" startPoint="0" type="log"/>
          <fadeOut crossFadeLinkType="linkedAsymmetric" endPoint="124289" shape="10" startPoint="111434" type="log"/>
          <editParameter parameterIndex="0" slotIndex="4294967281"/>
          <editParameter parameterIndex="0" slotIndex="4294967280"/>
          <channelMap>
            <channel index="0" sourceIndex="0"/>
          </channelMap>
        </audioClip>
        <audioClip clipAutoCrossfade="true" crossFadeHeadClipID="-1" crossFadeTailClipID="-1" endPoint="3350000" fileID="35" hue="-1" id="33" lockedInTime="false" looped="false" name="Track 3_016" offline="false" select="false" sourceInPoint="528341" sourceOutPoint="564414" startPoint="3313927" zOrder="2145914165">
          <component componentGuid="87627f4b-fbde-4fe5-b4b2-5e1b24f3296f" componentID="Audition.Fader" id="clipGain" name="volume" powered="true">
            <parameter index="0" name="volume" parameterValue="1.9054331">
              <parameterKeyframes enableSplines="false">
                <parameterKeyframe sampleOffset="548374" select="true" type="linear" value="0.8129721"/>
              </parameterKeyframes>
            </parameter>
            <parameter index="1" name="static gain" parameterValue="1"/>
          </component>
          <component componentGuid="dd1f7112-9c3a-4fe2-8b85-a645168124ee" componentID="Audition.Mute" id="clipMute" name="Mute" powered="true">
            <parameter index="0" parameterValue="0"/>
            <parameter index="1" name="mute" parameterValue="0"/>
          </component>
          <component componentGuid="abf16629-5acb-4719-9f45-85f6f87b386e" componentID="Audition.StereoPanner" id="clipPan" name="StereoPanner" powered="true">
            <parameter index="0" name="Pan" parameterValue="0"/>
          </component>
          <fadeIn crossFadeLinkType="linkedAsymmetric" endPoint="9557" shape="12" startPoint="0" type="log"/>
          <fadeOut crossFadeLinkType="linkedAsymmetric" endPoint="36073" shape="18" startPoint="36073" type="log"/>
          <clipStretch adaptiveWindowSize="37" pitchAdjustment="0" preserveFormants="true" stretchMode="realtime" stretchQuality="high" stretchRatio="0.9147552991805153" stretchType="solo" transientSensitivity="40"/>
          <editParameter parameterIndex="0" slotIndex="4294967281"/>
          <editParameter parameterIndex="0" slotIndex="4294967280"/>
          <channelMap>
            <channel index="0" sourceIndex="0"/>
          </channelMap>
        </audioClip>
        <audioClip clipAutoCrossfade="true" crossFadeHeadClipID="-1" crossFadeTailClipID="-1" endPoint="3569570" fileID="76" hue="-1" id="34" lockedInTime="false" looped="false" name="Leon_055" offline="false" select="false" sourceInPoint="59747" sourceOutPoint="279317" startPoint="3350000" zOrder="2145914155">
          <component componentGuid="dba09fe5-6891-4b7e-a5fd-0b4c37b6b8b0" componentID="Audition.Fader" id="clipGain" name="volume" powered="true">
            <parameter index="0" name="volume" parameterValue="0.4377122">
              <parameterKeyframes enableSplines="false">
                <parameterKeyframe sampleOffset="55200" select="false" type="linear" value="0.4490196"/>
                <parameterKeyframe sampleOffset="58364" select="false" type="linear" value="0.8055245"/>
                <parameterKeyframe sampleOffset="79927" select="true" type="linear" value="0.8493846"/>
              </parameterKeyframes>
            </parameter>
            <parameter index="1" name="static gain" parameterValue="1"/>
          </component>
          <component componentGuid="0598b00d-ad83-46eb-bf38-7cfebec8df88" componentID="Audition.Mute" id="clipMute" name="Mute" powered="true">
            <parameter index="0" parameterValue="0"/>
            <parameter index="1" name="mute" parameterValue="0"/>
          </component>
          <component componentGuid="8b66548c-9362-4aad-9ed6-63b1d632f355" componentID="Audition.StereoPanner" id="clipPan" name="StereoPanner" powered="true">
            <parameter index="0" name="Pan" parameterValue="0"/>
          </component>
          <fadeIn crossFadeLinkType="linkedAsymmetric" endPoint="0" shape="19" startPoint="0" type="log"/>
          <fadeOut crossFadeLinkType="linkedAsymmetric" endPoint="219570" shape="8" startPoint="201927" type="log"/>
          <take sourceInPoint="0"/>
          <editParameter parameterIndex="0" slotIndex="4294967281"/>
          <editParameter parameterIndex="0" slotIndex="4294967280"/>
          <channelMap>
            <channel index="0" sourceIndex="0"/>
          </channelMap>
        </audioClip>
        <audioClip clipAutoCrossfade="true" crossFadeHeadClipID="-1" crossFadeTailClipID="-1" endPoint="3773838" fileID="77" hue="-1" id="35" lockedInTime="false" looped="false" name="Leon_057" offline="false" select="false" sourceInPoint="17643" sourceOutPoint="191481" startPoint="3600000" zOrder="2145914156">
          <component componentGuid="07b1e462-debc-4e31-9da0-ecdeb1152d36" componentID="Audition.Fader" id="clipGain" name="volume" powered="true">
            <parameter index="0" name="volume" parameterValue="2.1857612"/>
            <parameter index="1" name="static gain" parameterValue="1"/>
          </component>
          <component componentGuid="7c1bc27f-d000-4505-808f-b9b4043035a0" componentID="Audition.Mute" id="clipMute" name="Mute" powered="true">
            <parameter index="0" parameterValue="0"/>
            <parameter index="1" name="mute" parameterValue="0"/>
          </component>
          <component componentGuid="3dc1a1d2-ddf8-4ac1-892d-208717474ba5" componentID="Audition.StereoPanner" id="clipPan" name="StereoPanner" powered="true">
            <parameter index="0" name="Pan" parameterValue="0"/>
          </component>
          <fadeIn crossFadeLinkType="linkedAsymmetric" endPoint="26436" shape="24" startPoint="0" type="log"/>
          <fadeOut crossFadeLinkType="linkedAsymmetric" endPoint="173838" shape="6" startPoint="151192" type="log"/>
          <take sourceInPoint="0"/>
          <editParameter parameterIndex="0" slotIndex="4294967281"/>
          <editParameter parameterIndex="0" slotIndex="4294967280"/>
          <channelMap>
            <channel index="0" sourceIndex="0"/>
          </channelMap>
        </audioClip>
        <audioClip clipAutoCrossfade="true" crossFadeHeadClipID="-1" crossFadeTailClipID="-1" endPoint="3920892" fileID="35" hue="-1" id="36" lockedInTime="false" looped="false" name="Track 3_016" offline="false" select="false" sourceInPoint="528341" sourceOutPoint="564414" startPoint="3884819" zOrder="2145914167">
          <component componentGuid="4ebe8e65-c4b1-49ca-8c2b-6d28b0ab754e" componentID="Audition.Fader" id="clipGain" name="volume" powered="true">
            <parameter index="0" name="volume" parameterValue="1.9454712"/>
            <parameter index="1" name="static gain" parameterValue="1"/>
          </component>
          <component componentGuid="db2dc82e-e873-47b5-a19d-d699dcecc655" componentID="Audition.Mute" id="clipMute" name="Mute" powered="true">
            <parameter index="0" parameterValue="0"/>
            <parameter index="1" name="mute" parameterValue="0"/>
          </component>
          <component componentGuid="0c2ec39c-b9b7-4e3f-8502-9f5cbe2dbb71" componentID="Audition.StereoPanner" id="clipPan" name="StereoPanner" powered="true">
            <parameter index="0" name="Pan" parameterValue="0"/>
          </component>
          <fadeIn crossFadeLinkType="linkedAsymmetric" endPoint="9557" shape="12" startPoint="0" type="log"/>
          <fadeOut crossFadeLinkType="linkedAsymmetric" endPoint="36073" shape="19" startPoint="36073" type="log"/>
          <clipStretch adaptiveWindowSize="37" pitchAdjustment="0" preserveFormants="true" stretchMode="realtime" stretchQuality="high" stretchRatio="0.9147552991805153" stretchType="solo" transientSensitivity="40"/>
          <editParameter parameterIndex="0" slotIndex="4294967281"/>
          <editParameter parameterIndex="0" slotIndex="4294967280"/>
          <channelMap>
            <channel index="0" sourceIndex="0"/>
          </channelMap>
        </audioClip>
        <audioClip clipAutoCrossfade="true" crossFadeHeadClipID="-1" crossFadeTailClipID="-1" endPoint="4264472" fileID="78" hue="-1" id="37" lockedInTime="false" looped="false" name="Leon_061" offline="false" select="false" sourceInPoint="25107" sourceOutPoint="368687" startPoint="3920892" zOrder="2145914175">
          <component componentGuid="ea86cedf-a3d9-4baa-b48c-4a2cb2e1ff9d" componentID="Audition.Fader" id="clipGain" name="volume" powered="true">
            <parameter index="0" name="volume" parameterValue="1.8181528">
              <parameterKeyframes enableSplines="false">
                <parameterKeyframe sampleOffset="22044" select="true" type="linear" value="0.8026399"/>
                <parameterKeyframe sampleOffset="40194" select="false" type="linear" value="0.8448717"/>
              </parameterKeyframes>
            </parameter>
            <parameter index="1" name="static gain" parameterValue="1"/>
          </component>
          <component componentGuid="b8765d54-db57-446b-a14a-25586467f22a" componentID="Audition.Mute" id="clipMute" name="Mute" powered="true">
            <parameter index="0" parameterValue="0"/>
            <parameter index="1" name="mute" parameterValue="0"/>
          </component>
          <component componentGuid="af06dd1b-6bb7-498e-929d-39bb5a9c3be9" componentID="Audition.StereoPanner" id="clipPan" name="StereoPanner" powered="true">
            <parameter index="0" name="Pan" parameterValue="0"/>
          </component>
          <fadeIn crossFadeLinkType="linkedAsymmetric" endPoint="460" shape="0" startPoint="0" type="log"/>
          <fadeOut crossFadeLinkType="linkedAsymmetric" endPoint="343580" shape="0" startPoint="343580" type="cosine"/>
          <take sourceInPoint="0"/>
          <editParameter parameterIndex="0" slotIndex="4294967281"/>
          <editParameter parameterIndex="0" slotIndex="4294967280"/>
          <channelMap>
            <channel index="0" sourceIndex="0"/>
          </channelMap>
        </audioClip>
        <audioClip clipAutoCrossfade="true" crossFadeHeadClipID="-1" crossFadeTailClipID="-1" endPoint="4451845" fileID="79" hue="-1" id="38" lockedInTime="false" looped="false" name="Leon_059" offline="false" select="false" sourceInPoint="353046" sourceOutPoint="540419" startPoint="4264472" zOrder="2145914176">
          <component componentGuid="a11ba927-0465-4070-a4c8-ff7301418963" componentID="Audition.Fader" id="clipGain" name="volume" powered="true">
            <parameter index="0" name="volume" parameterValue="2.0586259">
              <parameterKeyframes enableSplines="false">
                <parameterKeyframe sampleOffset="487832" select="false" type="linear" value="0.8295456"/>
                <parameterKeyframe sampleOffset="524171" select="true" type="linear" value="0.8750001"/>
              </parameterKeyframes>
            </parameter>
            <parameter index="1" name="static gain" parameterValue="1"/>
          </component>
          <component componentGuid="769ddf5b-ac28-4284-8b3c-51260bf470a6" componentID="Audition.Mute" id="clipMute" name="Mute" powered="true">
            <parameter index="0" parameterValue="0"/>
            <parameter index="1" name="mute" parameterValue="0"/>
          </component>
          <component componentGuid="afba1f01-2047-4db5-a74e-49383a1eec26" componentID="Audition.StereoPanner" id="clipPan" name="StereoPanner" powered="true">
            <parameter index="0" name="Pan" parameterValue="0"/>
          </component>
          <fadeIn crossFadeLinkType="linkedAsymmetric" endPoint="0" shape="0" startPoint="0" type="cosine"/>
          <fadeOut crossFadeLinkType="linkedAsymmetric" endPoint="187373" shape="18" startPoint="187373" type="log"/>
          <editParameter parameterIndex="0" slotIndex="4294967281"/>
          <editParameter parameterIndex="0" slotIndex="4294967280"/>
          <channelMap>
            <channel index="0" sourceIndex="0"/>
          </channelMap>
        </audioClip>
        <audioClip clipAutoCrossfade="true" crossFadeHeadClipID="-1" crossFadeTailClipID="-1" endPoint="4538292" fileID="78" hue="-1" id="39" lockedInTime="false" looped="false" name="Leon_061" offline="false" select="false" sourceInPoint="569909" sourceOutPoint="656356" startPoint="4451845" zOrder="2145914174">
          <component componentGuid="0e0e7785-d2e0-4511-890e-1a75da6016ed" componentID="Audition.Fader" id="clipGain" name="volume" powered="true">
            <parameter index="0" name="volume" parameterValue="2.4571888"/>
            <parameter index="1" name="static gain" parameterValue="1"/>
          </component>
          <component componentGuid="7fe1a225-85cc-45c5-9e67-b7d064fdc1a3" componentID="Audition.Mute" id="clipMute" name="Mute" powered="true">
            <parameter index="0" parameterValue="0"/>
            <parameter index="1" name="mute" parameterValue="0"/>
          </component>
          <component componentGuid="64638bfb-1f8e-4272-8216-7646be842463" componentID="Audition.StereoPanner" id="clipPan" name="StereoPanner" powered="true">
            <parameter index="0" name="Pan" parameterValue="0"/>
          </component>
          <fadeIn crossFadeLinkType="linkedAsymmetric" endPoint="0" shape="19" startPoint="0" type="log"/>
          <fadeOut crossFadeLinkType="linkedAsymmetric" endPoint="86447" shape="14" startPoint="75208" type="log"/>
          <editParameter parameterIndex="0" slotIndex="4294967281"/>
          <editParameter parameterIndex="0" slotIndex="4294967280"/>
          <channelMap>
            <channel index="0" sourceIndex="0"/>
          </channelMap>
        </audioClip>
      </audioTrack>
      <audioTrack automationLaneOpenState="false" id="10005" index="5" select="false" visible="true">
        <trackParameters trackHeight="173" trackHue="230.9999994851806093" trackMinimized="false">
          <name>Akira</name>
        </trackParameters>
        <trackAudioParameters audioChannelType="stereo" automationMode="1" monitoring="false" recordArmed="false" solo="false" soloSafe="false">
          <trackOutput outputID="10000" type="trackID"/>
          <trackInput inputID="1"/>
          <component componentGuid="95740bc8-cdf9-41e5-8078-38b1ab101f0c" componentID="Audition.Fader" id="trackFader" name="volume" powered="true">
            <parameter index="0" name="volume" parameterValue="1"/>
            <parameter index="1" name="static gain" parameterValue="1"/>
          </component>
          <component componentGuid="9268bdf7-7418-4c57-97e5-ebb193a6e968" componentID="Audition.Mute" id="trackMute" name="Mute" powered="true">
            <parameter index="0" parameterValue="0"/>
            <parameter index="1" name="mute" parameterValue="0"/>
          </component>
          <component componentGuid="9386c823-30c5-452a-ae8f-6057f1728bb3" componentID="Audition.StereoPanner" id="trackPan" name="StereoPanner" powered="true">
            <parameter index="0" name="Pan" parameterValue="0"/>
          </component>
          <component componentGuid="3c06f46f-c073-4b0b-b050-95757c8aed3d" componentID="Audition.EQ" id="trackEQ" name="EQ" powered="false">
            <parameter index="0" name="Low Shelf Frequency" parameterValue="0.0009079"/>
            <parameter index="1" name="Low Shelf Gain" parameterValue="0.5"/>
            <parameter index="2" name="High Shelf Frequency" parameterValue="0.8161598"/>
            <parameter index="3" name="High Shelf Gain" parameterValue="0.5"/>
            <parameter index="4" name="EQ Band 1 Center Frequency" parameterValue="0.0013618"/>
            <parameter index="5" name="EQ Band 1 Q" parameterValue="0.0002"/>
            <parameter index="6" name="EQ Band 1 Gain" parameterValue="0.5"/>
            <parameter index="7" name="EQ Band 1 Enable" parameterValue="1"/>
            <parameter index="8" name="EQ Band 2 Center Frequency" parameterValue="0.0081707"/>
            <parameter index="9" name="EQ Band 2 Q" parameterValue="0.0002"/>
            <parameter index="10" name="EQ Band 2 Gain" parameterValue="0.5"/>
            <parameter index="11" name="EQ Band 2 Enable" parameterValue="1"/>
            <parameter index="12" name="EQ Band 3 Center Frequency" parameterValue="0.0354063"/>
            <parameter index="13" name="EQ Band 3 Q" parameterValue="0.0002"/>
            <parameter index="14" name="EQ Band 3 Gain" parameterValue="0.5"/>
            <parameter index="15" name="EQ Band 3 Enable" parameterValue="1"/>
            <parameter index="16" name="EQ Band 4 Center Frequency" parameterValue="0.1443486"/>
            <parameter index="17" name="EQ Band 4 Q" parameterValue="0.0002"/>
            <parameter index="18" name="EQ Band 4 Gain" parameterValue="0.5"/>
            <parameter index="19" name="EQ Band 4 Enable" parameterValue="1"/>
            <parameter index="20" name="EQ Band 5 Center Frequency" parameterValue="0.580118"/>
            <parameter index="21" name="EQ Band 5 Q" parameterValue="0.0002"/>
            <parameter index="22" name="EQ Band 5 Gain" parameterValue="0.5"/>
            <parameter index="23" name="EQ Band 5 Enable" parameterValue="1"/>
            <parameter index="24" name="Master Gain" parameterValue="0.6666667"/>
            <parameter index="25" name="ConstantQ" parameterValue="1"/>
            <parameter index="26" name="Low Shelf Filter Order" parameterValue="0"/>
            <parameter index="27" name="High Shelf Filter Order" parameterValue="0"/>
            <parameter index="28" name="Ultra-Quiet Mode" parameterValue="0"/>
            <parameter index="29" name="Low Shelf Enable" parameterValue="1"/>
            <parameter index="30" name="High Shelf Enable" parameterValue="1"/>
            <parameter index="31" name="Original Sample Rate" parameterValue="0.2296875"/>
            <parameter index="32" name="EQ Band 1 Bandwidth" parameterValue="0.0025"/>
            <parameter index="33" name="EQ Band 2 Bandwidth" parameterValue="0.01"/>
            <parameter index="34" name="EQ Band 3 Bandwidth" parameterValue="0.04"/>
            <parameter index="35" name="EQ Band 4 Bandwidth" parameterValue="0.16"/>
            <parameter index="36" name="EQ Band 5 Bandwidth" parameterValue="0.64"/>
            <parameter index="37" name="High-Pass Filter Enable" parameterValue="0"/>
            <parameter index="38" name="High-Pass Cutoff Frequency" parameterValue="0"/>
            <parameter index="39" name="High-Pass Slope" parameterValue="0.4"/>
            <parameter index="40" name="Low-Pass Filter Enable" parameterValue="0"/>
            <parameter index="41" name="Low-Pass Cutoff Frequency" parameterValue="0.906945"/>
            <parameter index="42" name="Low-Pass Slope" parameterValue="0.4"/>
            <parameter index="43" name="Bypass" parameterValue="0"/>
            <parameter index="44" name="LowGraphRange" parameterValue="1"/>
          </component>
        </trackAudioParameters>
        <editParameter parameterIndex="0" slotIndex="4294967280"/>
        <sendList>
          <sendSlot preFader="false" sendOutputID="0" slotIndex="0">
            <component componentGuid="d6dd38a2-6881-4a43-91dd-3a8579bf0a40" id="sendComponent" powered="false">
              <parameter index="0" name="Power On/Off" parameterValue="0"/>
              <parameter index="1" name="Level" parameterValue="0"/>
            </component>
            <component id="sendPan" powered="true"/>
          </sendSlot>
          <sendSlot preFader="false" sendOutputID="0" slotIndex="1">
            <component componentGuid="25371c46-ee66-4859-af71-ae0f0736e2b7" id="sendComponent" powered="false">
              <parameter index="0" name="Power On/Off" parameterValue="0"/>
              <parameter index="1" name="Level" parameterValue="0"/>
            </component>
            <component id="sendPan" powered="true"/>
          </sendSlot>
          <sendSlot preFader="false" sendOutputID="0" slotIndex="2">
            <component componentGuid="7cd73f54-12dc-45c0-8105-fd9330ec810e" id="sendComponent" powered="false">
              <parameter index="0" name="Power On/Off" parameterValue="0"/>
              <parameter index="1" name="Level" parameterValue="0"/>
            </component>
            <component id="sendPan" powered="true"/>
          </sendSlot>
          <sendSlot preFader="false" sendOutputID="0" slotIndex="3">
            <component componentGuid="3a52a1d3-e9a6-4c45-9b42-9da0443cc018" id="sendComponent" powered="false">
              <parameter index="0" name="Power On/Off" parameterValue="0"/>
              <parameter index="1" name="Level" parameterValue="0"/>
            </component>
            <component id="sendPan" powered="true"/>
          </sendSlot>
          <sendSlot preFader="false" sendOutputID="0" slotIndex="4">
            <component componentGuid="ac279816-f3e9-44f8-bdef-4c3f41f150db" id="sendComponent" powered="false">
              <parameter index="0" name="Power On/Off" parameterValue="0"/>
              <parameter index="1" name="Level" parameterValue="0"/>
            </component>
            <component id="sendPan" powered="true"/>
          </sendSlot>
          <sendSlot preFader="false" sendOutputID="0" slotIndex="5">
            <component componentGuid="a781538c-5225-4d2b-9248-4ce3d75201d6" id="sendComponent" powered="false">
              <parameter index="0" name="Power On/Off" parameterValue="0"/>
              <parameter index="1" name="Level" parameterValue="0"/>
            </component>
            <component id="sendPan" powered="true"/>
          </sendSlot>
          <sendSlot preFader="false" sendOutputID="0" slotIndex="6">
            <component componentGuid="52c27b07-91b5-42f7-a3d3-490ba04ad51b" id="sendComponent" powered="false">
              <parameter index="0" name="Power On/Off" parameterValue="0"/>
              <parameter index="1" name="Level" parameterValue="0"/>
            </component>
            <component id="sendPan" powered="true"/>
          </sendSlot>
          <sendSlot preFader="false" sendOutputID="0" slotIndex="7">
            <component componentGuid="6470acb4-ca3b-47d4-9a02-a3f5775b45a0" id="sendComponent" powered="false">
              <parameter index="0" name="Power On/Off" parameterValue="0"/>
              <parameter index="1" name="Level" parameterValue="0"/>
            </component>
            <component id="sendPan" powered="true"/>
          </sendSlot>
          <sendSlot preFader="false" sendOutputID="0" slotIndex="8">
            <component componentGuid="e16f9f94-6e82-4c6d-b8fd-1f1e9e340691" id="sendComponent" powered="false">
              <parameter index="0" name="Power On/Off" parameterValue="0"/>
              <parameter index="1" name="Level" parameterValue="0"/>
            </component>
            <component id="sendPan" powered="true"/>
          </sendSlot>
          <sendSlot preFader="false" sendOutputID="0" slotIndex="9">
            <component componentGuid="cf1aaf77-7d23-4465-8deb-c505640fc5cd" id="sendComponent" powered="false">
              <parameter index="0" name="Power On/Off" parameterValue="0"/>
              <parameter index="1" name="Level" parameterValue="0"/>
            </component>
            <component id="sendPan" powered="true"/>
          </sendSlot>
          <sendSlot preFader="false" sendOutputID="0" slotIndex="10">
            <component componentGuid="5b0f0be3-da05-4eb6-91fa-dea2852ef1b2" id="sendComponent" powered="false">
              <parameter index="0" name="Power On/Off" parameterValue="0"/>
              <parameter index="1" name="Level" parameterValue="0"/>
            </component>
            <component id="sendPan" powered="true"/>
          </sendSlot>
          <sendSlot preFader="false" sendOutputID="0" slotIndex="11">
            <component componentGuid="6d5cebef-3b5f-4c24-aba8-a2cc92feac90" id="sendComponent" powered="false">
              <parameter index="0" name="Power On/Off" parameterValue="0"/>
              <parameter index="1" name="Level" parameterValue="0"/>
            </component>
            <component id="sendPan" powered="true"/>
          </sendSlot>
          <sendSlot preFader="false" sendOutputID="0" slotIndex="12">
            <component componentGuid="e1b62d3c-664d-479b-b494-57691d88b7b5" id="sendComponent" powered="false">
              <parameter index="0" name="Power On/Off" parameterValue="0"/>
              <parameter index="1" name="Level" parameterValue="0"/>
            </component>
            <component id="sendPan" powered="true"/>
          </sendSlot>
          <sendSlot preFader="false" sendOutputID="0" slotIndex="13">
            <component componentGuid="f00692f0-4025-46c2-8704-14962f9da3ec" id="sendComponent" powered="false">
              <parameter index="0" name="Power On/Off" parameterValue="0"/>
              <parameter index="1" name="Level" parameterValue="0"/>
            </component>
            <component id="sendPan" powered="true"/>
          </sendSlot>
          <sendSlot preFader="false" sendOutputID="0" slotIndex="14">
            <component componentGuid="42ce81f0-9173-42c2-8668-d0375a1035dc" id="sendComponent" powered="false">
              <parameter index="0" name="Power On/Off" parameterValue="0"/>
              <parameter index="1" name="Level" parameterValue="0"/>
            </component>
            <component id="sendPan" powered="true"/>
          </sendSlot>
          <sendSlot preFader="false" sendOutputID="0" slotIndex="15">
            <component componentGuid="95b482cb-e871-4877-98aa-8c5612143747" id="sendComponent" powered="false">
              <parameter index="0" name="Power On/Off" parameterValue="0"/>
              <parameter index="1" name="Level" parameterValue="0"/>
            </component>
            <component id="sendPan" powered="true"/>
          </sendSlot>
        </sendList>
        <audioClip clipAutoCrossfade="true" crossFadeHeadClipID="-1" crossFadeTailClipID="-1" endPoint="40151" fileID="16" hue="-1" id="0" lockedInTime="false" looped="false" name="Akira" offline="false" select="false" sourceInPoint="68720" sourceOutPoint="108871" startPoint="0" zOrder="2145914370">
          <component componentGuid="c78ced21-36a7-42f8-9938-aafce8b42789" componentID="Audition.Fader" id="clipGain" name="volume" powered="true">
            <parameter index="0" name="volume" parameterValue="0.797435"/>
            <parameter index="1" name="static gain" parameterValue="1"/>
          </component>
          <component componentGuid="5e6d3a21-36f9-4416-b501-423d4eb11777" componentID="Audition.Mute" id="clipMute" name="Mute" powered="true">
            <parameter index="0" parameterValue="0"/>
            <parameter index="1" name="mute" parameterValue="0"/>
          </component>
          <component componentGuid="fa133947-1682-454c-8b07-5203788c7baf" componentID="Audition.StereoPanner" id="clipPan" name="StereoPanner" powered="true">
            <parameter index="0" name="Pan" parameterValue="0"/>
          </component>
          <fadeIn crossFadeLinkType="linkedAsymmetric" endPoint="5909" shape="19" startPoint="0" type="log"/>
          <fadeOut crossFadeLinkType="linkedAsymmetric" endPoint="40151" shape="19" startPoint="40151" type="log"/>
          <clipStretch adaptiveWindowSize="37" pitchAdjustment="0" preserveFormants="true" stretchMode="realtime" stretchQuality="high" stretchRatio="0.843951655281135" stretchType="solo" transientSensitivity="40"/>
          <editParameter parameterIndex="0" slotIndex="4294967281"/>
          <editParameter parameterIndex="0" slotIndex="4294967280"/>
          <channelMap>
            <channel index="0" sourceIndex="0"/>
          </channelMap>
        </audioClip>
        <audioClip clipAutoCrossfade="true" crossFadeHeadClipID="-1" crossFadeTailClipID="-1" endPoint="79378" fileID="80" hue="-1" id="1" lockedInTime="false" looped="false" name="Akira_064" offline="false" select="false" sourceInPoint="63284" sourceOutPoint="102511" startPoint="40151" zOrder="2145915050">
          <component componentGuid="d6a047e5-09ad-4ca0-905c-5bd594b41cc7" componentID="Audition.Fader" id="clipGain" name="volume" powered="true">
            <parameter index="0" name="volume" parameterValue="1.3394892">
              <parameterKeyframes enableSplines="false">
                <parameterKeyframe sampleOffset="61794" select="false" type="linear" value="0.3150246"/>
                <parameterKeyframe sampleOffset="63163" select="false" type="linear" value="0.5918818"/>
                <parameterKeyframe sampleOffset="73091" select="true" type="linear" value="0.729731"/>
              </parameterKeyframes>
            </parameter>
            <parameter index="1" name="static gain" parameterValue="1"/>
          </component>
          <component componentGuid="de54134e-ed82-4e9a-ad53-8856aa4978cf" componentID="Audition.Mute" id="clipMute" name="Mute" powered="true">
            <parameter index="0" parameterValue="0"/>
            <parameter index="1" name="mute" parameterValue="0"/>
          </component>
          <component componentGuid="dab0872a-b0c6-43c8-af25-d43a6ce13d72" componentID="Audition.StereoPanner" id="clipPan" name="StereoPanner" powered="true">
            <parameter index="0" name="Pan" parameterValue="0"/>
          </component>
          <fadeIn crossFadeLinkType="linkedAsymmetric" endPoint="0" shape="18" startPoint="0" type="log"/>
          <fadeOut crossFadeLinkType="linkedAsymmetric" endPoint="39227" shape="19" startPoint="39227" type="log"/>
          <take sourceInPoint="0"/>
          <editParameter parameterIndex="0" slotIndex="4294967281"/>
          <editParameter parameterIndex="0" slotIndex="4294967280"/>
          <channelMap>
            <channel index="0" sourceIndex="0"/>
          </channelMap>
        </audioClip>
        <audioClip clipAutoCrossfade="true" crossFadeHeadClipID="-1" crossFadeTailClipID="-1" endPoint="136015" fileID="81" hue="-1" id="2" lockedInTime="false" looped="false" name="Akira_063" offline="false" select="false" sourceInPoint="74050" sourceOutPoint="130687" startPoint="79378" zOrder="2145915026">
          <component componentGuid="c48d79ed-82eb-42bc-9943-89478653a37c" componentID="Audition.Fader" id="clipGain" name="volume" powered="true">
            <parameter index="0" name="volume" parameterValue="1.3394892"/>
            <parameter index="1" name="static gain" parameterValue="1"/>
          </component>
          <component componentGuid="5cc506ad-d7d2-418f-a498-3466cdbf8b11" componentID="Audition.Mute" id="clipMute" name="Mute" powered="true">
            <parameter index="0" parameterValue="0"/>
            <parameter index="1" name="mute" parameterValue="0"/>
          </component>
          <component componentGuid="21363a5b-2042-496c-9415-1789c2aba7aa" componentID="Audition.StereoPanner" id="clipPan" name="StereoPanner" powered="true">
            <parameter index="0" name="Pan" parameterValue="0"/>
          </component>
          <fadeIn crossFadeLinkType="linkedAsymmetric" endPoint="0" shape="0" startPoint="0" type="cosine"/>
          <fadeOut crossFadeLinkType="linkedAsymmetric" endPoint="56637" shape="9" startPoint="50236" type="log"/>
          <editParameter parameterIndex="0" slotIndex="4294967281"/>
          <editParameter parameterIndex="0" slotIndex="4294967280"/>
          <channelMap>
            <channel index="0" sourceIndex="0"/>
          </channelMap>
        </audioClip>
        <audioClip clipAutoCrossfade="true" crossFadeHeadClipID="-1" crossFadeTailClipID="-1" endPoint="189277" fileID="16" hue="-1" id="3" lockedInTime="false" looped="false" name="Akira" offline="false" select="false" sourceInPoint="68720" sourceOutPoint="108871" startPoint="149126" zOrder="2145915027">
          <component componentGuid="e3354dcd-8675-47d0-a975-be17efeaca66" componentID="Audition.Fader" id="clipGain" name="volume" powered="true">
            <parameter index="0" name="volume" parameterValue="0.8005739"/>
            <parameter index="1" name="static gain" parameterValue="1"/>
          </component>
          <component componentGuid="d328ba65-1697-45d2-83d6-7a6b657ef6c2" componentID="Audition.Mute" id="clipMute" name="Mute" powered="true">
            <parameter index="0" parameterValue="0"/>
            <parameter index="1" name="mute" parameterValue="0"/>
          </component>
          <component componentGuid="6a34c2a0-c3df-4696-b864-3ecd1d616674" componentID="Audition.StereoPanner" id="clipPan" name="StereoPanner" powered="true">
            <parameter index="0" name="Pan" parameterValue="0"/>
          </component>
          <fadeIn crossFadeLinkType="linkedAsymmetric" endPoint="5909" shape="19" startPoint="0" type="log"/>
          <fadeOut crossFadeLinkType="linkedAsymmetric" endPoint="40151" shape="19" startPoint="40151" type="log"/>
          <clipStretch adaptiveWindowSize="37" pitchAdjustment="0" preserveFormants="true" stretchMode="realtime" stretchQuality="high" stretchRatio="0.843951655281135" stretchType="solo" transientSensitivity="40"/>
          <editParameter parameterIndex="0" slotIndex="4294967281"/>
          <editParameter parameterIndex="0" slotIndex="4294967280"/>
          <channelMap>
            <channel index="0" sourceIndex="0"/>
          </channelMap>
        </audioClip>
        <audioClip clipAutoCrossfade="true" crossFadeHeadClipID="-1" crossFadeTailClipID="-1" endPoint="249807" fileID="81" hue="-1" id="4" lockedInTime="false" looped="false" name="Akira_063" offline="false" select="false" sourceInPoint="174310" sourceOutPoint="234840" startPoint="189277" zOrder="2145915051">
          <component componentGuid="937d4689-c423-4dda-a530-33e8ce01a5e1" componentID="Audition.Fader" id="clipGain" name="volume" powered="true">
            <parameter index="0" name="volume" parameterValue="1.3100871">
              <parameterKeyframes enableSplines="false">
                <parameterKeyframe sampleOffset="173123" select="true" type="linear" value="0.5841349"/>
                <parameterKeyframe sampleOffset="186236" select="false" type="linear" value="0.7240359"/>
              </parameterKeyframes>
            </parameter>
            <parameter index="1" name="static gain" parameterValue="1"/>
          </component>
          <component componentGuid="3ecc1cb8-851e-4303-89b0-781519da84db" componentID="Audition.Mute" id="clipMute" name="Mute" powered="true">
            <parameter index="0" parameterValue="0"/>
            <parameter index="1" name="mute" parameterValue="0"/>
          </component>
          <component componentGuid="f92f0a11-d31c-49b1-8b87-4a1d895d7378" componentID="Audition.StereoPanner" id="clipPan" name="StereoPanner" powered="true">
            <parameter index="0" name="Pan" parameterValue="0"/>
          </component>
          <fadeIn crossFadeLinkType="linkedAsymmetric" endPoint="0" shape="18" startPoint="0" type="log"/>
          <fadeOut crossFadeLinkType="linkedAsymmetric" endPoint="60530" shape="0" startPoint="45262" type="log"/>
          <editParameter parameterIndex="0" slotIndex="4294967281"/>
          <editParameter parameterIndex="0" slotIndex="4294967280"/>
          <channelMap>
            <channel index="0" sourceIndex="0"/>
          </channelMap>
        </audioClip>
        <audioClip clipAutoCrossfade="true" crossFadeHeadClipID="-1" crossFadeTailClipID="-1" endPoint="319790" fileID="16" hue="-1" id="5" lockedInTime="false" looped="false" name="Akira" offline="false" select="false" sourceInPoint="68720" sourceOutPoint="108871" startPoint="279639" zOrder="2145915052">
          <component componentGuid="47f5c980-4db9-493c-93e8-d0dc493cf2f0" componentID="Audition.Fader" id="clipGain" name="volume" powered="true">
            <parameter index="0" name="volume" parameterValue="0.7833698"/>
            <parameter index="1" name="static gain" parameterValue="1"/>
          </component>
          <component componentGuid="9bec444f-140e-4eb1-a5a9-263bc94d638f" componentID="Audition.Mute" id="clipMute" name="Mute" powered="true">
            <parameter index="0" parameterValue="0"/>
            <parameter index="1" name="mute" parameterValue="0"/>
          </component>
          <component componentGuid="9044bdc9-fc81-4308-99ad-54021e35a7bc" componentID="Audition.StereoPanner" id="clipPan" name="StereoPanner" powered="true">
            <parameter index="0" name="Pan" parameterValue="0"/>
          </component>
          <fadeIn crossFadeLinkType="linkedAsymmetric" endPoint="5909" shape="19" startPoint="0" type="log"/>
          <fadeOut crossFadeLinkType="linkedAsymmetric" endPoint="40151" shape="19" startPoint="40151" type="log"/>
          <clipStretch adaptiveWindowSize="37" pitchAdjustment="0" preserveFormants="true" stretchMode="realtime" stretchQuality="high" stretchRatio="0.843951655281135" stretchType="solo" transientSensitivity="40"/>
          <editParameter parameterIndex="0" slotIndex="4294967281"/>
          <editParameter parameterIndex="0" slotIndex="4294967280"/>
          <channelMap>
            <channel index="0" sourceIndex="0"/>
          </channelMap>
        </audioClip>
        <audioClip clipAutoCrossfade="true" crossFadeHeadClipID="-1" crossFadeTailClipID="-1" endPoint="384794" fileID="82" hue="-1" id="6" lockedInTime="false" looped="false" name="Akira_068" offline="false" select="false" sourceInPoint="0" sourceOutPoint="65004" startPoint="319790" zOrder="2145915053">
          <component componentGuid="56463839-0337-4236-a6f0-7ae7b6e96502" componentID="Audition.Fader" id="clipGain" name="volume" powered="true">
            <parameter index="0" name="volume" parameterValue="1.1845207">
              <parameterKeyframes enableSplines="false">
                <parameterKeyframe sampleOffset="0" select="true" type="linear" value="0.5883883"/>
                <parameterKeyframe sampleOffset="12568" select="false" type="linear" value="0.6974589"/>
              </parameterKeyframes>
            </parameter>
            <parameter index="1" name="static gain" parameterValue="1"/>
          </component>
          <component componentGuid="dd06ee96-ba52-492f-b595-c14130daa68f" componentID="Audition.Mute" id="clipMute" name="Mute" powered="true">
            <parameter index="0" parameterValue="0"/>
            <parameter index="1" name="mute" parameterValue="0"/>
          </component>
          <component componentGuid="8e30732d-1a81-4486-b719-f26f5fd99eb5" componentID="Audition.StereoPanner" id="clipPan" name="StereoPanner" powered="true">
            <parameter index="0" name="Pan" parameterValue="0"/>
          </component>
          <fadeIn crossFadeLinkType="linkedAsymmetric" endPoint="0" shape="18" startPoint="0" type="log"/>
          <fadeOut crossFadeLinkType="linkedAsymmetric" endPoint="65004" shape="0" startPoint="56267" type="log"/>
          <editParameter parameterIndex="0" slotIndex="4294967281"/>
          <editParameter parameterIndex="0" slotIndex="4294967280"/>
          <channelMap>
            <channel index="0" sourceIndex="0"/>
          </channelMap>
        </audioClip>
        <audioClip clipAutoCrossfade="true" crossFadeHeadClipID="-1" crossFadeTailClipID="-1" endPoint="443076" fileID="16" hue="-1" id="7" lockedInTime="false" looped="false" name="Akira" offline="false" select="false" sourceInPoint="68720" sourceOutPoint="108871" startPoint="402925" zOrder="2145914376">
          <component componentGuid="cd2d8ead-e9fa-4171-8a31-01cb97b54cab" componentID="Audition.Fader" id="clipGain" name="volume" powered="true">
            <parameter index="0" name="volume" parameterValue="0.7890816"/>
            <parameter index="1" name="static gain" parameterValue="1"/>
          </component>
          <component componentGuid="d84b878c-e365-4a7f-8cfa-9c57bd489569" componentID="Audition.Mute" id="clipMute" name="Mute" powered="true">
            <parameter index="0" parameterValue="0"/>
            <parameter index="1" name="mute" parameterValue="0"/>
          </component>
          <component componentGuid="420e2828-4761-4ec3-bf16-8123ddccbf37" componentID="Audition.StereoPanner" id="clipPan" name="StereoPanner" powered="true">
            <parameter index="0" name="Pan" parameterValue="0"/>
          </component>
          <fadeIn crossFadeLinkType="linkedAsymmetric" endPoint="5909" shape="19" startPoint="0" type="log"/>
          <fadeOut crossFadeLinkType="linkedAsymmetric" endPoint="40151" shape="19" startPoint="40151" type="log"/>
          <clipStretch adaptiveWindowSize="37" pitchAdjustment="0" preserveFormants="true" stretchMode="realtime" stretchQuality="high" stretchRatio="0.843951655281135" stretchType="solo" transientSensitivity="40"/>
          <editParameter parameterIndex="0" slotIndex="4294967281"/>
          <editParameter parameterIndex="0" slotIndex="4294967280"/>
          <channelMap>
            <channel index="0" sourceIndex="0"/>
          </channelMap>
        </audioClip>
        <audioClip clipAutoCrossfade="true" crossFadeHeadClipID="-1" crossFadeTailClipID="-1" endPoint="508080" fileID="82" hue="-1" id="8" lockedInTime="false" looped="false" name="Akira_068" offline="false" select="false" sourceInPoint="0" sourceOutPoint="65004" startPoint="443076" zOrder="2145915054">
          <component componentGuid="6fe4dcb7-82fe-4044-9d29-7bc8af11ff71" componentID="Audition.Fader" id="clipGain" name="volume" powered="true">
            <parameter index="0" name="volume" parameterValue="1.1762275">
              <parameterKeyframes enableSplines="false">
                <parameterKeyframe sampleOffset="0" select="false" type="linear" value="0.581612"/>
                <parameterKeyframe sampleOffset="9702" select="true" type="linear" value="0.6955606"/>
              </parameterKeyframes>
            </parameter>
            <parameter index="1" name="static gain" parameterValue="1"/>
          </component>
          <component componentGuid="065b087d-9036-4074-8e64-d419eaada0c4" componentID="Audition.Mute" id="clipMute" name="Mute" powered="true">
            <parameter index="0" parameterValue="0"/>
            <parameter index="1" name="mute" parameterValue="0"/>
          </component>
          <component componentGuid="bc7b26d2-0049-4ec3-91fd-f537f4cfe453" componentID="Audition.StereoPanner" id="clipPan" name="StereoPanner" powered="true">
            <parameter index="0" name="Pan" parameterValue="0"/>
          </component>
          <fadeIn crossFadeLinkType="linkedAsymmetric" endPoint="0" shape="14" startPoint="0" type="log"/>
          <fadeOut crossFadeLinkType="linkedAsymmetric" endPoint="65004" shape="0" startPoint="56267" type="log"/>
          <editParameter parameterIndex="0" slotIndex="4294967281"/>
          <editParameter parameterIndex="0" slotIndex="4294967280"/>
          <channelMap>
            <channel index="0" sourceIndex="0"/>
          </channelMap>
        </audioClip>
        <audioClip clipAutoCrossfade="true" crossFadeHeadClipID="-1" crossFadeTailClipID="-1" endPoint="627327" fileID="83" hue="-1" id="9" lockedInTime="false" looped="false" name="Akira_065" offline="false" select="false" sourceInPoint="55577" sourceOutPoint="141836" startPoint="541068" zOrder="2145915062">
          <component componentGuid="c55686df-0484-4761-859c-ba674db3b9a5" componentID="Audition.Fader" id="clipGain" name="volume" powered="true">
            <parameter index="0" name="volume" parameterValue="1"/>
            <parameter index="1" name="static gain" parameterValue="1"/>
          </component>
          <component componentGuid="4b9763cc-38a5-464e-9e2d-9a37d3d80653" componentID="Audition.Mute" id="clipMute" name="Mute" powered="true">
            <parameter index="0" parameterValue="0"/>
            <parameter index="1" name="mute" parameterValue="0"/>
          </component>
          <component componentGuid="584e947a-a1de-4740-920e-99d6eb2f9f3e" componentID="Audition.StereoPanner" id="clipPan" name="StereoPanner" powered="true">
            <parameter index="0" name="Pan" parameterValue="0"/>
          </component>
          <fadeIn crossFadeLinkType="linkedAsymmetric" endPoint="17533" shape="13" startPoint="0" type="log"/>
          <fadeOut crossFadeLinkType="linkedAsymmetric" endPoint="86259" shape="0" startPoint="70620" type="log"/>
          <take sourceInPoint="0"/>
          <editParameter parameterIndex="0" slotIndex="4294967281"/>
          <editParameter parameterIndex="0" slotIndex="4294967280"/>
          <channelMap>
            <channel index="0" sourceIndex="0"/>
          </channelMap>
        </audioClip>
        <audioClip clipAutoCrossfade="true" crossFadeHeadClipID="-1" crossFadeTailClipID="-1" endPoint="673092" fileID="83" hue="-1" id="10" lockedInTime="false" looped="false" name="Akira_065" offline="false" select="false" sourceInPoint="843743" sourceOutPoint="870103" startPoint="646732" zOrder="2145915064">
          <component componentGuid="1d4d55af-ec61-4893-a724-c7a828a750ac" componentID="Audition.Fader" id="clipGain" name="volume" powered="true">
            <parameter index="0" name="volume" parameterValue="1"/>
            <parameter index="1" name="static gain" parameterValue="1"/>
          </component>
          <component componentGuid="0c9ceee0-5890-4d00-8434-72ee72635265" componentID="Audition.Mute" id="clipMute" name="Mute" powered="true">
            <parameter index="0" parameterValue="0"/>
            <parameter index="1" name="mute" parameterValue="0"/>
          </component>
          <component componentGuid="8d004168-5665-4cb7-9f76-6ca4d5a2f576" componentID="Audition.StereoPanner" id="clipPan" name="StereoPanner" powered="true">
            <parameter index="0" name="Pan" parameterValue="0"/>
          </component>
          <fadeIn crossFadeLinkType="linkedAsymmetric" endPoint="6100" shape="19" startPoint="0" type="log"/>
          <fadeOut crossFadeLinkType="linkedAsymmetric" endPoint="26360" shape="0" startPoint="20363" type="log"/>
          <editParameter parameterIndex="0" slotIndex="4294967281"/>
          <editParameter parameterIndex="0" slotIndex="4294967280"/>
          <channelMap>
            <channel index="0" sourceIndex="0"/>
          </channelMap>
        </audioClip>
        <audioClip clipAutoCrossfade="true" crossFadeHeadClipID="-1" crossFadeTailClipID="-1" endPoint="737952" fileID="16" hue="-1" id="11" lockedInTime="false" looped="false" name="Akira" offline="false" select="false" sourceInPoint="68720" sourceOutPoint="108871" startPoint="697801" zOrder="2145915056">
          <component componentGuid="918ef861-2742-4b9c-8362-4f830489298b" componentID="Audition.Fader" id="clipGain" name="volume" powered="true">
            <parameter index="0" name="volume" parameterValue="0.7948164">
              <parameterKeyframes enableSplines="false">
                <parameterKeyframe sampleOffset="91108" select="true" type="linear" value="0.5864899"/>
              </parameterKeyframes>
            </parameter>
            <parameter index="1" name="static gain" parameterValue="1"/>
          </component>
          <component componentGuid="322d3ff5-e8c6-4572-85ef-2a7e42e18408" componentID="Audition.Mute" id="clipMute" name="Mute" powered="true">
            <parameter index="0" parameterValue="0"/>
            <parameter index="1" name="mute" parameterValue="0"/>
          </component>
          <component componentGuid="4c293db7-e2ab-454a-b21f-96efa518f501" componentID="Audition.StereoPanner" id="clipPan" name="StereoPanner" powered="true">
            <parameter index="0" name="Pan" parameterValue="0"/>
          </component>
          <fadeIn crossFadeLinkType="linkedAsymmetric" endPoint="5909" shape="19" startPoint="0" type="log"/>
          <fadeOut crossFadeLinkType="linkedAsymmetric" endPoint="40151" shape="19" startPoint="40151" type="log"/>
          <clipStretch adaptiveWindowSize="37" pitchAdjustment="0" preserveFormants="true" stretchMode="realtime" stretchQuality="high" stretchRatio="0.843951655281135" stretchType="solo" transientSensitivity="40"/>
          <editParameter parameterIndex="0" slotIndex="4294967281"/>
          <editParameter parameterIndex="0" slotIndex="4294967280"/>
          <channelMap>
            <channel index="0" sourceIndex="0"/>
          </channelMap>
        </audioClip>
        <audioClip clipAutoCrossfade="true" crossFadeHeadClipID="-1" crossFadeTailClipID="-1" endPoint="821961" fileID="84" hue="-1" id="12" lockedInTime="false" looped="false" name="Akira_070" offline="false" select="false" sourceInPoint="27293" sourceOutPoint="111302" startPoint="737952" zOrder="2145915060">
          <component componentGuid="af06a145-f9ec-404a-acfa-fe8a5203133f" componentID="Audition.Fader" id="clipGain" name="volume" powered="true">
            <parameter index="0" name="volume" parameterValue="1.1359968">
              <parameterKeyframes enableSplines="false">
                <parameterKeyframe sampleOffset="17459" select="false" type="linear" value="0.2903941"/>
                <parameterKeyframe sampleOffset="24693" select="false" type="linear" value="0.585026"/>
                <parameterKeyframe sampleOffset="44674" select="true" type="linear" value="0.6860687"/>
              </parameterKeyframes>
            </parameter>
            <parameter index="1" name="static gain" parameterValue="1"/>
          </component>
          <component componentGuid="ebc3f7d5-caf9-46e6-8294-1b1b5fe8fb18" componentID="Audition.Mute" id="clipMute" name="Mute" powered="true">
            <parameter index="0" parameterValue="0"/>
            <parameter index="1" name="mute" parameterValue="0"/>
          </component>
          <component componentGuid="f80b00ef-93bd-484d-abbb-36adc27f721e" componentID="Audition.StereoPanner" id="clipPan" name="StereoPanner" powered="true">
            <parameter index="0" name="Pan" parameterValue="0"/>
          </component>
          <fadeIn crossFadeLinkType="linkedAsymmetric" endPoint="0" shape="19" startPoint="0" type="log"/>
          <fadeOut crossFadeLinkType="linkedAsymmetric" endPoint="84009" shape="7" startPoint="76773" type="log"/>
          <take sourceInPoint="0"/>
          <editParameter parameterIndex="0" slotIndex="4294967281"/>
          <editParameter parameterIndex="0" slotIndex="4294967280"/>
          <channelMap>
            <channel index="0" sourceIndex="0"/>
          </channelMap>
        </audioClip>
        <audioClip clipAutoCrossfade="true" crossFadeHeadClipID="-1" crossFadeTailClipID="-1" endPoint="899622" fileID="16" hue="-1" id="13" lockedInTime="false" looped="false" name="Akira" offline="false" select="false" sourceInPoint="68720" sourceOutPoint="108871" startPoint="859471" zOrder="2136708843">
          <component componentGuid="6d5d7395-1b7a-411f-82f4-a069a401b5fa" componentID="Audition.Fader" id="clipGain" name="volume" powered="true">
            <parameter index="0" name="volume" parameterValue="0.7795777"/>
            <parameter index="1" name="static gain" parameterValue="1"/>
          </component>
          <component componentGuid="47337a24-3986-4d52-ae6c-7c4f9d5e9e73" componentID="Audition.Mute" id="clipMute" name="Mute" powered="true">
            <parameter index="0" parameterValue="0"/>
            <parameter index="1" name="mute" parameterValue="0"/>
          </component>
          <component componentGuid="9d873f4c-bec2-4a38-a3fc-09d4bab0afb9" componentID="Audition.StereoPanner" id="clipPan" name="StereoPanner" powered="true">
            <parameter index="0" name="Pan" parameterValue="0"/>
          </component>
          <fadeIn crossFadeLinkType="linkedAsymmetric" endPoint="5909" shape="19" startPoint="0" type="log"/>
          <fadeOut crossFadeLinkType="linkedAsymmetric" endPoint="40151" shape="19" startPoint="31900" type="log"/>
          <clipStretch adaptiveWindowSize="37" pitchAdjustment="0" preserveFormants="true" stretchMode="realtime" stretchQuality="high" stretchRatio="0.843951655281135" stretchType="solo" transientSensitivity="40"/>
          <editParameter parameterIndex="0" slotIndex="4294967281"/>
          <editParameter parameterIndex="0" slotIndex="4294967280"/>
          <channelMap>
            <channel index="0" sourceIndex="0"/>
          </channelMap>
        </audioClip>
        <audioClip clipAutoCrossfade="true" crossFadeHeadClipID="-1" crossFadeTailClipID="-1" endPoint="957703" fileID="85" hue="-1" id="14" lockedInTime="false" looped="false" name="Akira_076" offline="false" select="false" sourceInPoint="154515" sourceOutPoint="212230" startPoint="899988" zOrder="2136708838">
          <component componentGuid="2d0eb918-b9eb-4ee5-9f40-daf5963daad0" componentID="Audition.Fader" id="clipGain" name="volume" powered="true">
            <parameter index="0" name="volume" parameterValue="0.1914762">
              <parameterKeyframes enableSplines="false">
                <parameterKeyframe sampleOffset="153203" select="false" type="linear" value="0.3100985"/>
                <parameterKeyframe sampleOffset="156204" select="true" type="linear" value="0.8217467"/>
              </parameterKeyframes>
            </parameter>
            <parameter index="1" name="static gain" parameterValue="1"/>
          </component>
          <component componentGuid="a3d42147-6c7e-43a3-9757-0899b26f3b2a" componentID="Audition.Mute" id="clipMute" name="Mute" powered="true">
            <parameter index="0" parameterValue="0"/>
            <parameter index="1" name="mute" parameterValue="0"/>
          </component>
          <component componentGuid="8c70a102-e3c2-411f-b32f-543152d7cf76" componentID="Audition.StereoPanner" id="clipPan" name="StereoPanner" powered="true">
            <parameter index="0" name="Pan" parameterValue="0"/>
          </component>
          <fadeIn crossFadeLinkType="linkedAsymmetric" endPoint="23945" shape="10" startPoint="0" type="log"/>
          <fadeOut crossFadeLinkType="linkedAsymmetric" endPoint="57715" shape="8" startPoint="42981" type="log"/>
          <take sourceInPoint="0"/>
          <editParameter parameterIndex="0" slotIndex="4294967281"/>
          <editParameter parameterIndex="0" slotIndex="4294967280"/>
          <channelMap>
            <channel index="0" sourceIndex="0"/>
          </channelMap>
        </audioClip>
        <audioClip clipAutoCrossfade="true" crossFadeHeadClipID="-1" crossFadeTailClipID="-1" endPoint="1062056" fileID="86" hue="-1" id="15" lockedInTime="false" looped="false" name="Akira_074" offline="false" select="false" sourceInPoint="126647" sourceOutPoint="192467" startPoint="996236" zOrder="2145913153">
          <component componentGuid="a2618651-b779-4fc9-9d2c-e2cb5e375ab2" componentID="Audition.Fader" id="clipGain" name="volume" powered="true">
            <parameter index="0" name="volume" parameterValue="1.2080739"/>
            <parameter index="1" name="static gain" parameterValue="1"/>
          </component>
          <component componentGuid="e1961196-05cd-459c-ac72-02d4839d9883" componentID="Audition.Mute" id="clipMute" name="Mute" powered="true">
            <parameter index="0" parameterValue="0"/>
            <parameter index="1" name="mute" parameterValue="0"/>
          </component>
          <component componentGuid="72b4d758-88aa-44f0-9e15-a61dccd7baf9" componentID="Audition.StereoPanner" id="clipPan" name="StereoPanner" powered="true">
            <parameter index="0" name="Pan" parameterValue="0"/>
          </component>
          <fadeIn crossFadeLinkType="linkedAsymmetric" endPoint="16276" shape="14" startPoint="0" type="log"/>
          <fadeOut crossFadeLinkType="linkedAsymmetric" endPoint="65820" shape="19" startPoint="65820" type="log"/>
          <take sourceInPoint="0"/>
          <editParameter parameterIndex="0" slotIndex="4294967281"/>
          <editParameter parameterIndex="0" slotIndex="4294967280"/>
          <channelMap>
            <channel index="0" sourceIndex="0"/>
          </channelMap>
        </audioClip>
        <audioClip clipAutoCrossfade="true" crossFadeHeadClipID="-1" crossFadeTailClipID="-1" endPoint="1113556" fileID="87" hue="-1" id="16" lockedInTime="false" looped="false" name="Akira_077" offline="false" select="false" sourceInPoint="262178" sourceOutPoint="313678" startPoint="1062056" zOrder="2145913159">
          <component componentGuid="7e24942b-3a6d-481c-8dde-059d16d429a8" componentID="Audition.Fader" id="clipGain" name="volume" powered="true">
            <parameter index="0" name="volume" parameterValue="1.8208268"/>
            <parameter index="1" name="static gain" parameterValue="1"/>
          </component>
          <component componentGuid="a6512748-d01a-46ae-a0c6-1907ae711a3f" componentID="Audition.Mute" id="clipMute" name="Mute" powered="true">
            <parameter index="0" parameterValue="0"/>
            <parameter index="1" name="mute" parameterValue="0"/>
          </component>
          <component componentGuid="cd1c7f53-b056-4fae-af9f-f7356830d49a" componentID="Audition.StereoPanner" id="clipPan" name="StereoPanner" powered="true">
            <parameter index="0" name="Pan" parameterValue="0"/>
          </component>
          <fadeIn crossFadeLinkType="linkedAsymmetric" endPoint="0" shape="19" startPoint="0" type="log"/>
          <fadeOut crossFadeLinkType="linkedAsymmetric" endPoint="51500" shape="19" startPoint="51500" type="log"/>
          <take sourceInPoint="0"/>
          <editParameter parameterIndex="0" slotIndex="4294967281"/>
          <editParameter parameterIndex="0" slotIndex="4294967280"/>
          <channelMap>
            <channel index="0" sourceIndex="0"/>
          </channelMap>
        </audioClip>
        <audioClip clipAutoCrossfade="true" crossFadeHeadClipID="-1" crossFadeTailClipID="-1" endPoint="1201430" fileID="87" hue="-1" id="17" lockedInTime="false" looped="false" name="Akira_077" offline="false" select="false" sourceInPoint="326664" sourceOutPoint="414020" startPoint="1114074" zOrder="2145913165">
          <component componentGuid="39558f69-ca17-48dd-873b-f241a355bc99" componentID="Audition.Fader" id="clipGain" name="volume" powered="true">
            <parameter index="0" name="volume" parameterValue="1.6593652"/>
            <parameter index="1" name="static gain" parameterValue="1"/>
          </component>
          <component componentGuid="1fdc79e5-ec57-4261-9fdb-650d94dea164" componentID="Audition.Mute" id="clipMute" name="Mute" powered="true">
            <parameter index="0" parameterValue="0"/>
            <parameter index="1" name="mute" parameterValue="0"/>
          </component>
          <component componentGuid="db1dc384-02cb-4298-a221-1769c89b8968" componentID="Audition.StereoPanner" id="clipPan" name="StereoPanner" powered="true">
            <parameter index="0" name="Pan" parameterValue="0"/>
          </component>
          <fadeIn crossFadeLinkType="linkedAsymmetric" endPoint="0" shape="19" startPoint="0" type="log"/>
          <fadeOut crossFadeLinkType="linkedAsymmetric" endPoint="87356" shape="6" startPoint="69307" type="log"/>
          <editParameter parameterIndex="0" slotIndex="4294967281"/>
          <editParameter parameterIndex="0" slotIndex="4294967280"/>
          <channelMap>
            <channel index="0" sourceIndex="0"/>
          </channelMap>
        </audioClip>
        <audioClip clipAutoCrossfade="true" crossFadeHeadClipID="-1" crossFadeTailClipID="-1" endPoint="1278932" fileID="16" hue="-1" id="18" lockedInTime="false" looped="false" name="Akira" offline="false" select="false" sourceInPoint="68720" sourceOutPoint="108871" startPoint="1238781" zOrder="2145913172">
          <component componentGuid="985021e1-c0a1-452f-bd49-783ae6deea06" componentID="Audition.Fader" id="clipGain" name="volume" powered="true">
            <parameter index="0" name="volume" parameterValue="0.6187936"/>
            <parameter index="1" name="static gain" parameterValue="1"/>
          </component>
          <component componentGuid="d10a8f7b-582e-43dd-a10a-ae7c8f82bd56" componentID="Audition.Mute" id="clipMute" name="Mute" powered="true">
            <parameter index="0" parameterValue="0"/>
            <parameter index="1" name="mute" parameterValue="0"/>
          </component>
          <component componentGuid="f5a703e1-c381-447a-a2f6-66b7db02bbe5" componentID="Audition.StereoPanner" id="clipPan" name="StereoPanner" powered="true">
            <parameter index="0" name="Pan" parameterValue="0"/>
          </component>
          <fadeIn crossFadeLinkType="linkedAsymmetric" endPoint="5909" shape="19" startPoint="0" type="log"/>
          <fadeOut crossFadeLinkType="linkedAsymmetric" endPoint="40151" shape="19" startPoint="40151" type="log"/>
          <clipStretch adaptiveWindowSize="37" pitchAdjustment="0" preserveFormants="true" stretchMode="realtime" stretchQuality="high" stretchRatio="0.843951655281135" stretchType="solo" transientSensitivity="40"/>
          <editParameter parameterIndex="0" slotIndex="4294967281"/>
          <editParameter parameterIndex="0" slotIndex="4294967280"/>
          <channelMap>
            <channel index="0" sourceIndex="0"/>
          </channelMap>
        </audioClip>
        <audioClip clipAutoCrossfade="true" crossFadeHeadClipID="-1" crossFadeTailClipID="-1" endPoint="1411200" fileID="88" hue="-1" id="19" lockedInTime="false" looped="false" name="Akira_078" offline="false" select="false" sourceInPoint="360535" sourceOutPoint="492488" startPoint="1279247" zOrder="2145913315">
          <component componentGuid="4e43294a-ce3c-4602-a352-1a906ecbd70d" componentID="Audition.Fader" id="clipGain" name="volume" powered="true">
            <parameter index="0" name="volume" parameterValue="0.2197213">
              <parameterKeyframes enableSplines="false">
                <parameterKeyframe sampleOffset="359378" select="false" type="linear" value="0.3298029"/>
                <parameterKeyframe sampleOffset="360923" select="false" type="linear" value="0.4928799"/>
                <parameterKeyframe sampleOffset="381838" select="true" type="linear" value="0.7756947"/>
              </parameterKeyframes>
            </parameter>
            <parameter index="1" name="static gain" parameterValue="1"/>
          </component>
          <component componentGuid="2f1b21b6-be5e-4840-901e-d2cb138731cd" componentID="Audition.Mute" id="clipMute" name="Mute" powered="true">
            <parameter index="0" parameterValue="0"/>
            <parameter index="1" name="mute" parameterValue="0"/>
          </component>
          <component componentGuid="e1ea03d7-8eb0-4996-b88c-eda7466a35d8" componentID="Audition.StereoPanner" id="clipPan" name="StereoPanner" powered="true">
            <parameter index="0" name="Pan" parameterValue="0"/>
          </component>
          <fadeIn crossFadeLinkType="linkedAsymmetric" endPoint="44" shape="12" startPoint="0" type="log"/>
          <fadeOut crossFadeLinkType="linkedAsymmetric" endPoint="131953" shape="5" startPoint="113615" type="log"/>
          <take sourceInPoint="0"/>
          <editParameter parameterIndex="0" slotIndex="4294967281"/>
          <editParameter parameterIndex="0" slotIndex="4294967280"/>
          <channelMap>
            <channel index="0" sourceIndex="0"/>
          </channelMap>
        </audioClip>
        <audioClip clipAutoCrossfade="true" crossFadeHeadClipID="-1" crossFadeTailClipID="-1" endPoint="1488598" fileID="16" hue="-1" id="20" lockedInTime="false" looped="false" name="Akira" offline="false" select="false" sourceInPoint="68720" sourceOutPoint="108871" startPoint="1448447" zOrder="2145913327">
          <component componentGuid="9836fee0-b14b-4ee1-ba2a-398d9e780275" componentID="Audition.Fader" id="clipGain" name="volume" powered="true">
            <parameter index="0" name="volume" parameterValue="0.7563486"/>
            <parameter index="1" name="static gain" parameterValue="1"/>
          </component>
          <component componentGuid="1791031c-dcba-459f-a24d-8d4c03af4dcb" componentID="Audition.Mute" id="clipMute" name="Mute" powered="true">
            <parameter index="0" parameterValue="0"/>
            <parameter index="1" name="mute" parameterValue="0"/>
          </component>
          <component componentGuid="2fa7c7b8-a281-47f5-aba2-7e2013188582" componentID="Audition.StereoPanner" id="clipPan" name="StereoPanner" powered="true">
            <parameter index="0" name="Pan" parameterValue="0"/>
          </component>
          <fadeIn crossFadeLinkType="linkedAsymmetric" endPoint="5909" shape="19" startPoint="0" type="log"/>
          <fadeOut crossFadeLinkType="linkedAsymmetric" endPoint="40151" shape="19" startPoint="40151" type="log"/>
          <clipStretch adaptiveWindowSize="37" pitchAdjustment="0" preserveFormants="true" stretchMode="realtime" stretchQuality="high" stretchRatio="0.843951655281135" stretchType="solo" transientSensitivity="40"/>
          <editParameter parameterIndex="0" slotIndex="4294967281"/>
          <editParameter parameterIndex="0" slotIndex="4294967280"/>
          <channelMap>
            <channel index="0" sourceIndex="0"/>
          </channelMap>
        </audioClip>
        <audioClip clipAutoCrossfade="true" crossFadeHeadClipID="-1" crossFadeTailClipID="-1" endPoint="1553602" fileID="82" hue="-1" id="21" lockedInTime="false" looped="false" name="Akira_068" offline="false" select="false" sourceInPoint="0" sourceOutPoint="65004" startPoint="1488598" zOrder="2145913326">
          <component componentGuid="b7adf025-1241-487c-afdd-c4e1fbf409fb" componentID="Audition.Fader" id="clipGain" name="volume" powered="true">
            <parameter index="0" name="volume" parameterValue="0.7893246">
              <parameterKeyframes enableSplines="false">
                <parameterKeyframe sampleOffset="0" select="false" type="linear" value="0.5846721"/>
                <parameterKeyframe sampleOffset="12444" select="true" type="linear" value="0.7582224"/>
              </parameterKeyframes>
            </parameter>
            <parameter index="1" name="static gain" parameterValue="1"/>
          </component>
          <component componentGuid="de352e00-219e-4844-9434-2ecd8a784e6f" componentID="Audition.Mute" id="clipMute" name="Mute" powered="true">
            <parameter index="0" parameterValue="0"/>
            <parameter index="1" name="mute" parameterValue="0"/>
          </component>
          <component componentGuid="6c6dd54a-244c-41c1-a0a1-b154faa78811" componentID="Audition.StereoPanner" id="clipPan" name="StereoPanner" powered="true">
            <parameter index="0" name="Pan" parameterValue="0"/>
          </component>
          <fadeIn crossFadeLinkType="linkedAsymmetric" endPoint="0" shape="14" startPoint="0" type="log"/>
          <fadeOut crossFadeLinkType="linkedAsymmetric" endPoint="65004" shape="0" startPoint="56267" type="log"/>
          <editParameter parameterIndex="0" slotIndex="4294967281"/>
          <editParameter parameterIndex="0" slotIndex="4294967280"/>
          <channelMap>
            <channel index="0" sourceIndex="0"/>
          </channelMap>
        </audioClip>
        <audioClip clipAutoCrossfade="true" crossFadeHeadClipID="-1" crossFadeTailClipID="23" endPoint="1621130" fileID="16" hue="-1" id="22" lockedInTime="false" looped="false" name="Akira" offline="false" select="false" sourceInPoint="68720" sourceOutPoint="108871" startPoint="1580979" zOrder="2145913330">
          <component componentGuid="6f40d5c5-ff19-43b9-82cc-fa267b741d8d" componentID="Audition.Fader" id="clipGain" name="volume" powered="true">
            <parameter index="0" name="volume" parameterValue="0.7638697"/>
            <parameter index="1" name="static gain" parameterValue="1"/>
          </component>
          <component componentGuid="3b0ccb8e-28f1-4774-82f0-b7fd65c0c541" componentID="Audition.Mute" id="clipMute" name="Mute" powered="true">
            <parameter index="0" parameterValue="0"/>
            <parameter index="1" name="mute" parameterValue="0"/>
          </component>
          <component componentGuid="f83b672b-1216-48c7-80ec-039358156ca1" componentID="Audition.StereoPanner" id="clipPan" name="StereoPanner" powered="true">
            <parameter index="0" name="Pan" parameterValue="0"/>
          </component>
          <fadeIn crossFadeLinkType="linkedAsymmetric" endPoint="5909" shape="19" startPoint="0" type="log"/>
          <fadeOut crossFadeLinkType="linkedAsymmetric" endPoint="40151" shape="18" startPoint="39598" type="log"/>
          <clipStretch adaptiveWindowSize="37" pitchAdjustment="0" preserveFormants="true" stretchMode="realtime" stretchQuality="high" stretchRatio="0.843951655281135" stretchType="solo" transientSensitivity="40"/>
          <editParameter parameterIndex="0" slotIndex="4294967281"/>
          <editParameter parameterIndex="0" slotIndex="4294967280"/>
          <channelMap>
            <channel index="0" sourceIndex="0"/>
          </channelMap>
        </audioClip>
        <audioClip clipAutoCrossfade="true" crossFadeHeadClipID="22" crossFadeTailClipID="-1" endPoint="1707246" fileID="89" hue="-1" id="23" lockedInTime="false" looped="false" name="Akira_082" offline="false" select="false" sourceInPoint="10570" sourceOutPoint="97239" startPoint="1620577" zOrder="2145914007">
          <component componentGuid="976ae91a-d20d-45ce-b434-757893b5cf0c" componentID="Audition.Fader" id="clipGain" name="volume" powered="true">
            <parameter index="0" name="volume" parameterValue="0.2346525">
              <parameterKeyframes enableSplines="false">
                <parameterKeyframe sampleOffset="9535" select="false" type="linear" value="0.3396552"/>
                <parameterKeyframe sampleOffset="11297" select="false" type="linear" value="0.5665205"/>
                <parameterKeyframe sampleOffset="26682" select="true" type="linear" value="0.8069231"/>
              </parameterKeyframes>
            </parameter>
            <parameter index="1" name="static gain" parameterValue="1"/>
          </component>
          <component componentGuid="322d7703-b851-4b27-aeb8-c9d5e7004b7c" componentID="Audition.Mute" id="clipMute" name="Mute" powered="true">
            <parameter index="0" parameterValue="0"/>
            <parameter index="1" name="mute" parameterValue="0"/>
          </component>
          <component componentGuid="42c85acd-5187-4aac-a67a-94659879d911" componentID="Audition.StereoPanner" id="clipPan" name="StereoPanner" powered="true">
            <parameter index="0" name="Pan" parameterValue="0"/>
          </component>
          <fadeIn crossFadeLinkType="linkedAsymmetric" endPoint="553" shape="19" startPoint="0" type="log"/>
          <fadeOut crossFadeLinkType="linkedAsymmetric" endPoint="86669" shape="9" startPoint="73714" type="log"/>
          <take sourceInPoint="0"/>
          <editParameter parameterIndex="0" slotIndex="4294967281"/>
          <editParameter parameterIndex="0" slotIndex="4294967280"/>
          <channelMap>
            <channel index="0" sourceIndex="0"/>
          </channelMap>
        </audioClip>
        <audioClip clipAutoCrossfade="true" crossFadeHeadClipID="-1" crossFadeTailClipID="-1" endPoint="1769687" fileID="16" hue="-1" id="24" lockedInTime="false" looped="false" name="Akira" offline="false" select="false" sourceInPoint="68720" sourceOutPoint="108871" startPoint="1729536" zOrder="2145914013">
          <component componentGuid="148f5345-2e39-4ec8-a8df-61db9f1667b4" componentID="Audition.Fader" id="clipGain" name="volume" powered="true">
            <parameter index="0" name="volume" parameterValue="0.7559929"/>
            <parameter index="1" name="static gain" parameterValue="1"/>
          </component>
          <component componentGuid="227a1349-7b8d-4d83-8b18-d3be3df7474e" componentID="Audition.Mute" id="clipMute" name="Mute" powered="true">
            <parameter index="0" parameterValue="0"/>
            <parameter index="1" name="mute" parameterValue="0"/>
          </component>
          <component componentGuid="06f4ec87-75d1-41b3-af0b-489c9610656e" componentID="Audition.StereoPanner" id="clipPan" name="StereoPanner" powered="true">
            <parameter index="0" name="Pan" parameterValue="0"/>
          </component>
          <fadeIn crossFadeLinkType="linkedAsymmetric" endPoint="5909" shape="19" startPoint="0" type="log"/>
          <fadeOut crossFadeLinkType="linkedAsymmetric" endPoint="40151" shape="19" startPoint="40151" type="log"/>
          <clipStretch adaptiveWindowSize="37" pitchAdjustment="0" preserveFormants="true" stretchMode="realtime" stretchQuality="high" stretchRatio="0.843951655281135" stretchType="solo" transientSensitivity="40"/>
          <editParameter parameterIndex="0" slotIndex="4294967281"/>
          <editParameter parameterIndex="0" slotIndex="4294967280"/>
          <channelMap>
            <channel index="0" sourceIndex="0"/>
          </channelMap>
        </audioClip>
        <audioClip clipAutoCrossfade="true" crossFadeHeadClipID="-1" crossFadeTailClipID="-1" endPoint="1834691" fileID="82" hue="-1" id="25" lockedInTime="false" looped="false" name="Akira_068" offline="false" select="false" sourceInPoint="0" sourceOutPoint="65004" startPoint="1769687" zOrder="2145914027">
          <component componentGuid="6a7563d7-651a-43c2-9c14-8132b4bcdb05" componentID="Audition.Fader" id="clipGain" name="volume" powered="true">
            <parameter index="0" name="volume" parameterValue="0.7559927">
              <parameterKeyframes enableSplines="false">
                <parameterKeyframe sampleOffset="0" select="false" type="linear" value="0.5734861"/>
                <parameterKeyframe sampleOffset="13744" select="true" type="linear" value="0.7607691"/>
              </parameterKeyframes>
            </parameter>
            <parameter index="1" name="static gain" parameterValue="1"/>
          </component>
          <component componentGuid="2809c289-5ea0-41ab-9986-d97ccd3ee73e" componentID="Audition.Mute" id="clipMute" name="Mute" powered="true">
            <parameter index="0" parameterValue="0"/>
            <parameter index="1" name="mute" parameterValue="0"/>
          </component>
          <component componentGuid="0d931f4e-34a2-4b71-a68d-37e6de37d86a" componentID="Audition.StereoPanner" id="clipPan" name="StereoPanner" powered="true">
            <parameter index="0" name="Pan" parameterValue="0"/>
          </component>
          <fadeIn crossFadeLinkType="linkedAsymmetric" endPoint="0" shape="18" startPoint="0" type="log"/>
          <fadeOut crossFadeLinkType="linkedAsymmetric" endPoint="65004" shape="0" startPoint="56267" type="log"/>
          <editParameter parameterIndex="0" slotIndex="4294967281"/>
          <editParameter parameterIndex="0" slotIndex="4294967280"/>
          <channelMap>
            <channel index="0" sourceIndex="0"/>
          </channelMap>
        </audioClip>
        <audioClip clipAutoCrossfade="true" crossFadeHeadClipID="-1" crossFadeTailClipID="-1" endPoint="1887748" fileID="16" hue="-1" id="26" lockedInTime="false" looped="false" name="Akira" offline="false" select="false" sourceInPoint="68720" sourceOutPoint="108871" startPoint="1847597" zOrder="2145914032">
          <component componentGuid="f4da7f7a-6af4-471d-a5d8-1e84de73e8f1" componentID="Audition.Fader" id="clipGain" name="volume" powered="true">
            <parameter index="0" name="volume" parameterValue="0.7834409"/>
            <parameter index="1" name="static gain" parameterValue="1"/>
          </component>
          <component componentGuid="f7488616-8a25-4d1c-bec2-717e63d316ab" componentID="Audition.Mute" id="clipMute" name="Mute" powered="true">
            <parameter index="0" parameterValue="0"/>
            <parameter index="1" name="mute" parameterValue="0"/>
          </component>
          <component componentGuid="5b53fd66-3ad3-4117-be94-27c6530f41b8" componentID="Audition.StereoPanner" id="clipPan" name="StereoPanner" powered="true">
            <parameter index="0" name="Pan" parameterValue="0"/>
          </component>
          <fadeIn crossFadeLinkType="linkedAsymmetric" endPoint="5909" shape="19" startPoint="0" type="log"/>
          <fadeOut crossFadeLinkType="linkedAsymmetric" endPoint="40151" shape="19" startPoint="40151" type="log"/>
          <clipStretch adaptiveWindowSize="37" pitchAdjustment="0" preserveFormants="true" stretchMode="realtime" stretchQuality="high" stretchRatio="0.843951655281135" stretchType="solo" transientSensitivity="40"/>
          <editParameter parameterIndex="0" slotIndex="4294967281"/>
          <editParameter parameterIndex="0" slotIndex="4294967280"/>
          <channelMap>
            <channel index="0" sourceIndex="0"/>
          </channelMap>
        </audioClip>
        <audioClip clipAutoCrossfade="true" crossFadeHeadClipID="-1" crossFadeTailClipID="-1" endPoint="1918013" fileID="90" hue="-1" id="27" lockedInTime="false" looped="false" name="Akira_083" offline="false" select="false" sourceInPoint="13815" sourceOutPoint="44080" startPoint="1887748" zOrder="2145914020">
          <component componentGuid="efd8e956-bf2a-4440-a26a-47c2a490eb84" componentID="Audition.Fader" id="clipGain" name="volume" powered="true">
            <parameter index="0" name="volume" parameterValue="0.7541644">
              <parameterKeyframes enableSplines="false">
                <parameterKeyframe sampleOffset="12987" select="false" type="linear" value="0.5728647"/>
                <parameterKeyframe sampleOffset="23877" select="true" type="linear" value="0.8346146"/>
              </parameterKeyframes>
            </parameter>
            <parameter index="1" name="static gain" parameterValue="1"/>
          </component>
          <component componentGuid="c37eb4d1-56c3-4f3a-8029-017112510425" componentID="Audition.Mute" id="clipMute" name="Mute" powered="true">
            <parameter index="0" parameterValue="0"/>
            <parameter index="1" name="mute" parameterValue="0"/>
          </component>
          <component componentGuid="8e824dd6-05e2-42e7-a718-d1fb2efc09b9" componentID="Audition.StereoPanner" id="clipPan" name="StereoPanner" powered="true">
            <parameter index="0" name="Pan" parameterValue="0"/>
          </component>
          <fadeIn crossFadeLinkType="linkedAsymmetric" endPoint="0" shape="18" startPoint="0" type="log"/>
          <fadeOut crossFadeLinkType="linkedAsymmetric" endPoint="30265" shape="0" startPoint="22740" type="log"/>
          <take sourceInPoint="0"/>
          <editParameter parameterIndex="0" slotIndex="4294967281"/>
          <editParameter parameterIndex="0" slotIndex="4294967280"/>
          <channelMap>
            <channel index="0" sourceIndex="0"/>
          </channelMap>
        </audioClip>
        <audioClip clipAutoCrossfade="true" crossFadeHeadClipID="-1" crossFadeTailClipID="-1" endPoint="1988833" fileID="91" hue="-1" id="28" lockedInTime="false" looped="false" name="Akira_084" offline="false" select="false" sourceInPoint="10111" sourceOutPoint="62778" startPoint="1936166" zOrder="2145914022">
          <component componentGuid="37669d83-5bf2-46a3-9b46-02112009724c" componentID="Audition.Fader" id="clipGain" name="volume" powered="true">
            <parameter index="0" name="volume" parameterValue="1.9335313"/>
            <parameter index="1" name="static gain" parameterValue="1"/>
          </component>
          <component componentGuid="eeaee4ab-2656-46fc-8bbd-f372a5d24fb1" componentID="Audition.Mute" id="clipMute" name="Mute" powered="true">
            <parameter index="0" parameterValue="0"/>
            <parameter index="1" name="mute" parameterValue="0"/>
          </component>
          <component componentGuid="7ba8c510-928f-4e67-9d48-b67321b11c98" componentID="Audition.StereoPanner" id="clipPan" name="StereoPanner" powered="true">
            <parameter index="0" name="Pan" parameterValue="0"/>
          </component>
          <fadeIn crossFadeLinkType="linkedAsymmetric" endPoint="18384" shape="12" startPoint="0" type="log"/>
          <fadeOut crossFadeLinkType="linkedAsymmetric" endPoint="52667" shape="0" startPoint="52667" type="cosine"/>
          <take sourceInPoint="0"/>
          <editParameter parameterIndex="0" slotIndex="4294967281"/>
          <editParameter parameterIndex="0" slotIndex="4294967280"/>
          <channelMap>
            <channel index="0" sourceIndex="0"/>
          </channelMap>
        </audioClip>
        <audioClip clipAutoCrossfade="true" crossFadeHeadClipID="-1" crossFadeTailClipID="-1" endPoint="2055946" fileID="91" hue="-1" id="29" lockedInTime="false" looped="false" name="Akira_084" offline="false" select="false" sourceInPoint="204595" sourceOutPoint="271708" startPoint="1988833" zOrder="2145914041">
          <component componentGuid="95f09173-615a-4fdb-9bc8-96a5dbad9b86" componentID="Audition.Fader" id="clipGain" name="volume" powered="true">
            <parameter index="0" name="volume" parameterValue="1.58766"/>
            <parameter index="1" name="static gain" parameterValue="1"/>
          </component>
          <component componentGuid="c47969a5-5d6b-4a9e-a517-b056a5386308" componentID="Audition.Mute" id="clipMute" name="Mute" powered="true">
            <parameter index="0" parameterValue="0"/>
            <parameter index="1" name="mute" parameterValue="0"/>
          </component>
          <component componentGuid="0d2629ed-0298-4c4d-a84c-646cf8dd8ca3" componentID="Audition.StereoPanner" id="clipPan" name="StereoPanner" powered="true">
            <parameter index="0" name="Pan" parameterValue="0"/>
          </component>
          <fadeIn crossFadeLinkType="linkedAsymmetric" endPoint="0" shape="0" startPoint="0" type="cosine"/>
          <fadeOut crossFadeLinkType="linkedAsymmetric" endPoint="67113" shape="6" startPoint="52818" type="log"/>
          <editParameter parameterIndex="0" slotIndex="4294967281"/>
          <editParameter parameterIndex="0" slotIndex="4294967280"/>
          <channelMap>
            <channel index="0" sourceIndex="0"/>
          </channelMap>
        </audioClip>
        <audioClip clipAutoCrossfade="true" crossFadeHeadClipID="-1" crossFadeTailClipID="31" endPoint="2117706" fileID="16" hue="-1" id="30" lockedInTime="false" looped="false" name="Akira" offline="false" select="false" sourceInPoint="68720" sourceOutPoint="108871" startPoint="2077555" zOrder="2145914034">
          <component componentGuid="e1341cb8-54ee-42b2-b4f7-7e77beb389ea" componentID="Audition.Fader" id="clipGain" name="volume" powered="true">
            <parameter index="0" name="volume" parameterValue="0.7890061"/>
            <parameter index="1" name="static gain" parameterValue="1"/>
          </component>
          <component componentGuid="f09861a8-6a2d-4a21-bf04-3f78aa9c763d" componentID="Audition.Mute" id="clipMute" name="Mute" powered="true">
            <parameter index="0" parameterValue="0"/>
            <parameter index="1" name="mute" parameterValue="0"/>
          </component>
          <component componentGuid="297633c1-338e-4994-9cbb-3d5e64501b73" componentID="Audition.StereoPanner" id="clipPan" name="StereoPanner" powered="true">
            <parameter index="0" name="Pan" parameterValue="0"/>
          </component>
          <fadeIn crossFadeLinkType="linkedAsymmetric" endPoint="5909" shape="19" startPoint="0" type="log"/>
          <fadeOut crossFadeLinkType="linkedAsymmetric" endPoint="40151" shape="19" startPoint="38692" type="log"/>
          <clipStretch adaptiveWindowSize="37" pitchAdjustment="0" preserveFormants="true" stretchMode="realtime" stretchQuality="high" stretchRatio="0.843951655281135" stretchType="solo" transientSensitivity="40"/>
          <editParameter parameterIndex="0" slotIndex="4294967281"/>
          <editParameter parameterIndex="0" slotIndex="4294967280"/>
          <channelMap>
            <channel index="0" sourceIndex="0"/>
          </channelMap>
        </audioClip>
        <audioClip clipAutoCrossfade="true" crossFadeHeadClipID="30" crossFadeTailClipID="-1" endPoint="2225136" fileID="92" hue="-1" id="31" lockedInTime="false" looped="false" name="Akira_085" offline="false" select="false" sourceInPoint="16396" sourceOutPoint="125285" startPoint="2116247" zOrder="2145914042">
          <component componentGuid="8a572d30-af39-4d81-9c66-bcd47926903e" componentID="Audition.Fader" id="clipGain" name="volume" powered="true">
            <parameter index="0" name="volume" parameterValue="0.2124586">
              <parameterKeyframes enableSplines="false">
                <parameterKeyframe sampleOffset="14992" select="false" type="linear" value="0.3248768"/>
                <parameterKeyframe sampleOffset="15772" select="false" type="linear" value="0.5607578"/>
                <parameterKeyframe sampleOffset="26251" select="true" type="linear" value="0.8276045"/>
              </parameterKeyframes>
            </parameter>
            <parameter index="1" name="static gain" parameterValue="1"/>
          </component>
          <component componentGuid="314001fe-8d2a-4c8c-8273-e0122100a74e" componentID="Audition.Mute" id="clipMute" name="Mute" powered="true">
            <parameter index="0" parameterValue="0"/>
            <parameter index="1" name="mute" parameterValue="0"/>
          </component>
          <component componentGuid="c422de7b-1d06-43f9-8262-5b26a9e16dfe" componentID="Audition.StereoPanner" id="clipPan" name="StereoPanner" powered="true">
            <parameter index="0" name="Pan" parameterValue="0"/>
          </component>
          <fadeIn crossFadeLinkType="linkedAsymmetric" endPoint="1459" shape="18" startPoint="0" type="log"/>
          <fadeOut crossFadeLinkType="linkedAsymmetric" endPoint="108889" shape="0" startPoint="95122" type="log"/>
          <take sourceInPoint="0"/>
          <editParameter parameterIndex="0" slotIndex="4294967281"/>
          <editParameter parameterIndex="0" slotIndex="4294967280"/>
          <channelMap>
            <channel index="0" sourceIndex="0"/>
          </channelMap>
        </audioClip>
        <audioClip clipAutoCrossfade="true" crossFadeHeadClipID="-1" crossFadeTailClipID="33" endPoint="2291905" fileID="92" hue="-1" id="32" lockedInTime="false" looped="false" name="Akira_085" offline="false" select="false" sourceInPoint="235151" sourceOutPoint="280944" startPoint="2246112" zOrder="2145914044">
          <component componentGuid="16ddc658-45a4-4abd-a657-68c0ee0aea4a" componentID="Audition.Fader" id="clipGain" name="volume" powered="true">
            <parameter index="0" name="volume" parameterValue="1.9524362"/>
            <parameter index="1" name="static gain" parameterValue="1"/>
          </component>
          <component componentGuid="50cb3c10-daa5-45ca-81bd-89624cd205cb" componentID="Audition.Mute" id="clipMute" name="Mute" powered="true">
            <parameter index="0" parameterValue="0"/>
            <parameter index="1" name="mute" parameterValue="0"/>
          </component>
          <component componentGuid="629a868d-e80f-4b84-b62b-217cc9e08cc2" componentID="Audition.StereoPanner" id="clipPan" name="StereoPanner" powered="true">
            <parameter index="0" name="Pan" parameterValue="0"/>
          </component>
          <fadeIn crossFadeLinkType="linkedAsymmetric" endPoint="8974" shape="12" startPoint="0" type="log"/>
          <fadeOut crossFadeLinkType="linkedAsymmetric" endPoint="45793" shape="18" startPoint="45324" type="log"/>
          <editParameter parameterIndex="0" slotIndex="4294967281"/>
          <editParameter parameterIndex="0" slotIndex="4294967280"/>
          <channelMap>
            <channel index="0" sourceIndex="0"/>
          </channelMap>
        </audioClip>
        <audioClip clipAutoCrossfade="true" crossFadeHeadClipID="32" crossFadeTailClipID="-1" endPoint="2350577" fileID="92" hue="-1" id="33" lockedInTime="false" looped="false" name="Akira_085" offline="false" select="false" sourceInPoint="741864" sourceOutPoint="801005" startPoint="2291436" zOrder="2145914047">
          <component componentGuid="95cc01ec-ff38-463a-ac56-11dc488a583b" componentID="Audition.Fader" id="clipGain" name="volume" powered="true">
            <parameter index="0" name="volume" parameterValue="1.8704031"/>
            <parameter index="1" name="static gain" parameterValue="1"/>
          </component>
          <component componentGuid="db7d3375-a40e-4273-8d70-07e10d624b05" componentID="Audition.Mute" id="clipMute" name="Mute" powered="true">
            <parameter index="0" parameterValue="0"/>
            <parameter index="1" name="mute" parameterValue="0"/>
          </component>
          <component componentGuid="d9e16aed-7052-4cea-91ad-efc3ffb13e8c" componentID="Audition.StereoPanner" id="clipPan" name="StereoPanner" powered="true">
            <parameter index="0" name="Pan" parameterValue="0"/>
          </component>
          <fadeIn crossFadeLinkType="linkedAsymmetric" endPoint="469" shape="19" startPoint="0" type="log"/>
          <fadeOut crossFadeLinkType="linkedAsymmetric" endPoint="59141" shape="11" startPoint="50167" type="log"/>
          <editParameter parameterIndex="0" slotIndex="4294967281"/>
          <editParameter parameterIndex="0" slotIndex="4294967280"/>
          <channelMap>
            <channel index="0" sourceIndex="0"/>
          </channelMap>
        </audioClip>
        <audioClip clipAutoCrossfade="true" crossFadeHeadClipID="-1" crossFadeTailClipID="-1" endPoint="2429928" fileID="16" hue="-1" id="34" lockedInTime="false" looped="false" name="Akira" offline="false" select="false" sourceInPoint="68720" sourceOutPoint="108871" startPoint="2389777" zOrder="2145914172">
          <component componentGuid="225e85bc-154c-4fdc-a21e-805b89322ebd" componentID="Audition.Fader" id="clipGain" name="volume" powered="true">
            <parameter index="0" name="volume" parameterValue="0.7669078">
              <parameterKeyframes enableSplines="false">
                <parameterKeyframe sampleOffset="88028" select="true" type="linear" value="0.5771786"/>
              </parameterKeyframes>
            </parameter>
            <parameter index="1" name="static gain" parameterValue="1"/>
          </component>
          <component componentGuid="76278bfa-db56-465f-ace8-4a75171a8883" componentID="Audition.Mute" id="clipMute" name="Mute" powered="true">
            <parameter index="0" parameterValue="0"/>
            <parameter index="1" name="mute" parameterValue="0"/>
          </component>
          <component componentGuid="18286f47-c4da-48d4-a731-1f4d21927ee6" componentID="Audition.StereoPanner" id="clipPan" name="StereoPanner" powered="true">
            <parameter index="0" name="Pan" parameterValue="0"/>
          </component>
          <fadeIn crossFadeLinkType="linkedAsymmetric" endPoint="5909" shape="19" startPoint="0" type="log"/>
          <fadeOut crossFadeLinkType="linkedAsymmetric" endPoint="40151" shape="19" startPoint="40151" type="log"/>
          <clipStretch adaptiveWindowSize="37" pitchAdjustment="0" preserveFormants="true" stretchMode="realtime" stretchQuality="high" stretchRatio="0.843951655281135" stretchType="solo" transientSensitivity="40"/>
          <editParameter parameterIndex="0" slotIndex="4294967281"/>
          <editParameter parameterIndex="0" slotIndex="4294967280"/>
          <channelMap>
            <channel index="0" sourceIndex="0"/>
          </channelMap>
        </audioClip>
        <audioClip clipAutoCrossfade="true" crossFadeHeadClipID="-1" crossFadeTailClipID="-1" endPoint="2517027" fileID="93" hue="-1" id="35" lockedInTime="false" looped="false" name="Akira_086" offline="false" select="false" sourceInPoint="126798" sourceOutPoint="213897" startPoint="2429928" zOrder="2145914173">
          <component componentGuid="372a5bd1-f297-4d00-b00d-d7a6bf42c088" componentID="Audition.Fader" id="clipGain" name="volume" powered="true">
            <parameter index="0" name="volume" parameterValue="0.8341589">
              <parameterKeyframes enableSplines="false">
                <parameterKeyframe sampleOffset="122567" select="false" type="linear" value="0.5993143"/>
                <parameterKeyframe sampleOffset="136266" select="true" type="linear" value="0.8124616"/>
              </parameterKeyframes>
            </parameter>
            <parameter index="1" name="static gain" parameterValue="1"/>
          </component>
          <component componentGuid="7cf65340-0a9e-46ee-bdc9-537a6fa59b8e" componentID="Audition.Mute" id="clipMute" name="Mute" powered="true">
            <parameter index="0" parameterValue="0"/>
            <parameter index="1" name="mute" parameterValue="0"/>
          </component>
          <component componentGuid="99d80564-12ce-4dd6-bf45-4b9a44fc59c5" componentID="Audition.StereoPanner" id="clipPan" name="StereoPanner" powered="true">
            <parameter index="0" name="Pan" parameterValue="0"/>
          </component>
          <fadeIn crossFadeLinkType="linkedAsymmetric" endPoint="0" shape="18" startPoint="0" type="log"/>
          <fadeOut crossFadeLinkType="linkedAsymmetric" endPoint="87099" shape="7" startPoint="71562" type="log"/>
          <take sourceInPoint="0"/>
          <editParameter parameterIndex="0" slotIndex="4294967281"/>
          <editParameter parameterIndex="0" slotIndex="4294967280"/>
          <channelMap>
            <channel index="0" sourceIndex="0"/>
          </channelMap>
        </audioClip>
        <audioClip clipAutoCrossfade="true" crossFadeHeadClipID="-1" crossFadeTailClipID="-1" endPoint="2656812" fileID="94" hue="-1" id="36" lockedInTime="false" looped="false" name="Akira_087" offline="false" select="false" sourceInPoint="146316" sourceOutPoint="245328" startPoint="2557800" zOrder="2145914176">
          <component componentGuid="82dcc7b8-4b63-4eb6-9f68-269f9ea4cdb5" componentID="Audition.Fader" id="clipGain" name="volume" powered="true">
            <parameter index="0" name="volume" parameterValue="1.8692125"/>
            <parameter index="1" name="static gain" parameterValue="1"/>
          </component>
          <component componentGuid="f8cfb100-77f5-47b8-a39e-ae6b110a42ff" componentID="Audition.Mute" id="clipMute" name="Mute" powered="true">
            <parameter index="0" parameterValue="0"/>
            <parameter index="1" name="mute" parameterValue="0"/>
          </component>
          <component componentGuid="580dc299-6abd-4274-8b13-84a89ad64447" componentID="Audition.StereoPanner" id="clipPan" name="StereoPanner" powered="true">
            <parameter index="0" name="Pan" parameterValue="0"/>
          </component>
          <fadeIn crossFadeLinkType="linkedAsymmetric" endPoint="15913" shape="19" startPoint="0" type="log"/>
          <fadeOut crossFadeLinkType="linkedAsymmetric" endPoint="99012" shape="0" startPoint="81773" type="log"/>
          <take sourceInPoint="0"/>
          <editParameter parameterIndex="0" slotIndex="4294967281"/>
          <editParameter parameterIndex="0" slotIndex="4294967280"/>
          <channelMap>
            <channel index="0" sourceIndex="0"/>
          </channelMap>
        </audioClip>
        <audioClip clipAutoCrossfade="true" crossFadeHeadClipID="-1" crossFadeTailClipID="-1" endPoint="2734200" fileID="16" hue="-1" id="37" lockedInTime="false" looped="false" name="Akira" offline="false" select="false" sourceInPoint="68720" sourceOutPoint="108871" startPoint="2694049" zOrder="2145914178">
          <component componentGuid="47d5dde0-8424-4b96-894d-94e5b86b26c0" componentID="Audition.Fader" id="clipGain" name="volume" powered="true">
            <parameter index="0" name="volume" parameterValue="0.7344227"/>
            <parameter index="1" name="static gain" parameterValue="1"/>
          </component>
          <component componentGuid="c7765c23-4107-4bc9-aa91-0ee403e106b0" componentID="Audition.Mute" id="clipMute" name="Mute" powered="true">
            <parameter index="0" parameterValue="0"/>
            <parameter index="1" name="mute" parameterValue="0"/>
          </component>
          <component componentGuid="a8a53b4b-d2e7-4b48-8024-a2f38852fa13" componentID="Audition.StereoPanner" id="clipPan" name="StereoPanner" powered="true">
            <parameter index="0" name="Pan" parameterValue="0"/>
          </component>
          <fadeIn crossFadeLinkType="linkedAsymmetric" endPoint="5909" shape="19" startPoint="0" type="log"/>
          <fadeOut crossFadeLinkType="linkedAsymmetric" endPoint="40151" shape="19" startPoint="40151" type="log"/>
          <clipStretch adaptiveWindowSize="37" pitchAdjustment="0" preserveFormants="true" stretchMode="realtime" stretchQuality="high" stretchRatio="0.843951655281135" stretchType="solo" transientSensitivity="40"/>
          <editParameter parameterIndex="0" slotIndex="4294967281"/>
          <editParameter parameterIndex="0" slotIndex="4294967280"/>
          <channelMap>
            <channel index="0" sourceIndex="0"/>
          </channelMap>
        </audioClip>
        <audioClip clipAutoCrossfade="true" crossFadeHeadClipID="-1" crossFadeTailClipID="-1" endPoint="2787062" fileID="95" hue="-1" id="38" lockedInTime="false" looped="false" name="Akira_088" offline="false" select="false" sourceInPoint="35354" sourceOutPoint="88216" startPoint="2734200" zOrder="2145914188">
          <component componentGuid="3890eec9-fc2f-4933-a37b-a646d3e4bd21" componentID="Audition.Fader" id="clipGain" name="volume" powered="true">
            <parameter index="0" name="volume" parameterValue="0.7202255">
              <parameterKeyframes enableSplines="false">
                <parameterKeyframe sampleOffset="33657" select="false" type="linear" value="0.5611755"/>
                <parameterKeyframe sampleOffset="46545" select="true" type="linear" value="0.8050771"/>
              </parameterKeyframes>
            </parameter>
            <parameter index="1" name="static gain" parameterValue="1"/>
          </component>
          <component componentGuid="81a0a63f-1492-4579-8bdb-a259936fffd3" componentID="Audition.Mute" id="clipMute" name="Mute" powered="true">
            <parameter index="0" parameterValue="0"/>
            <parameter index="1" name="mute" parameterValue="0"/>
          </component>
          <component componentGuid="92e28bf8-7ff6-413d-845c-47ca67385997" componentID="Audition.StereoPanner" id="clipPan" name="StereoPanner" powered="true">
            <parameter index="0" name="Pan" parameterValue="0"/>
          </component>
          <fadeIn crossFadeLinkType="linkedAsymmetric" endPoint="0" shape="18" startPoint="0" type="log"/>
          <fadeOut crossFadeLinkType="linkedAsymmetric" endPoint="52862" shape="0" startPoint="52862" type="cosine"/>
          <take sourceInPoint="0"/>
          <editParameter parameterIndex="0" slotIndex="4294967281"/>
          <editParameter parameterIndex="0" slotIndex="4294967280"/>
          <channelMap>
            <channel index="0" sourceIndex="0"/>
          </channelMap>
        </audioClip>
        <audioClip clipAutoCrossfade="true" crossFadeHeadClipID="-1" crossFadeTailClipID="-1" endPoint="2883236" fileID="95" hue="-1" id="39" lockedInTime="false" looped="false" name="Akira_088" offline="false" select="false" sourceInPoint="379085" sourceOutPoint="475259" startPoint="2787062" zOrder="2145914185">
          <component componentGuid="e819963c-e057-4e1a-865e-6e5fc2305b24" componentID="Audition.Fader" id="clipGain" name="volume" powered="true">
            <parameter index="0" name="volume" parameterValue="1.8692142"/>
            <parameter index="1" name="static gain" parameterValue="1"/>
          </component>
          <component componentGuid="c2274ba4-883a-4358-b4e3-5f91773f0620" componentID="Audition.Mute" id="clipMute" name="Mute" powered="true">
            <parameter index="0" parameterValue="0"/>
            <parameter index="1" name="mute" parameterValue="0"/>
          </component>
          <component componentGuid="bc7075ed-8c9f-4b49-b2dd-2cdaab992a93" componentID="Audition.StereoPanner" id="clipPan" name="StereoPanner" powered="true">
            <parameter index="0" name="Pan" parameterValue="0"/>
          </component>
          <fadeIn crossFadeLinkType="linkedAsymmetric" endPoint="0" shape="0" startPoint="0" type="cosine"/>
          <fadeOut crossFadeLinkType="linkedAsymmetric" endPoint="96174" shape="6" startPoint="82680" type="log"/>
          <editParameter parameterIndex="0" slotIndex="4294967281"/>
          <editParameter parameterIndex="0" slotIndex="4294967280"/>
          <channelMap>
            <channel index="0" sourceIndex="0"/>
          </channelMap>
        </audioClip>
        <audioClip clipAutoCrossfade="true" crossFadeHeadClipID="-1" crossFadeTailClipID="-1" endPoint="3004845" fileID="95" hue="-1" id="40" lockedInTime="false" looped="false" name="Akira_088" offline="false" select="false" sourceInPoint="202361" sourceOutPoint="279201" startPoint="2928005" zOrder="2145914189">
          <component componentGuid="5ff7b152-f115-4de2-be34-afd3047fad2e" componentID="Audition.Fader" id="clipGain" name="volume" powered="true">
            <parameter index="0" name="volume" parameterValue="1.8382088"/>
            <parameter index="1" name="static gain" parameterValue="1"/>
          </component>
          <component componentGuid="675cba7d-6578-403a-ad2b-dc4846465c1c" componentID="Audition.Mute" id="clipMute" name="Mute" powered="true">
            <parameter index="0" parameterValue="0"/>
            <parameter index="1" name="mute" parameterValue="0"/>
          </component>
          <component componentGuid="cd702194-166b-47e5-b59a-590ab667bb25" componentID="Audition.StereoPanner" id="clipPan" name="StereoPanner" powered="true">
            <parameter index="0" name="Pan" parameterValue="0"/>
          </component>
          <fadeIn crossFadeLinkType="linkedAsymmetric" endPoint="21217" shape="19" startPoint="0" type="log"/>
          <fadeOut crossFadeLinkType="linkedAsymmetric" endPoint="76840" shape="9" startPoint="63945" type="log"/>
          <editParameter parameterIndex="0" slotIndex="4294967281"/>
          <editParameter parameterIndex="0" slotIndex="4294967280"/>
          <channelMap>
            <channel index="0" sourceIndex="0"/>
          </channelMap>
        </audioClip>
        <audioClip clipAutoCrossfade="true" crossFadeHeadClipID="-1" crossFadeTailClipID="42" endPoint="3090961" fileID="16" hue="-1" id="41" lockedInTime="false" looped="false" name="Akira" offline="false" select="false" sourceInPoint="68720" sourceOutPoint="108871" startPoint="3050810" zOrder="2145914191">
          <component componentGuid="c56796ee-e498-479c-8c09-2dac8f8230e6" componentID="Audition.Fader" id="clipGain" name="volume" powered="true">
            <parameter index="0" name="volume" parameterValue="0.7237667"/>
            <parameter index="1" name="static gain" parameterValue="1"/>
          </component>
          <component componentGuid="ebad1cbe-ef08-4bba-baa6-3f4a4e9edbea" componentID="Audition.Mute" id="clipMute" name="Mute" powered="true">
            <parameter index="0" parameterValue="0"/>
            <parameter index="1" name="mute" parameterValue="0"/>
          </component>
          <component componentGuid="009db18d-2faf-4989-85a6-5f513903b187" componentID="Audition.StereoPanner" id="clipPan" name="StereoPanner" powered="true">
            <parameter index="0" name="Pan" parameterValue="0"/>
          </component>
          <fadeIn crossFadeLinkType="linkedAsymmetric" endPoint="5909" shape="19" startPoint="0" type="log"/>
          <fadeOut crossFadeLinkType="linkedAsymmetric" endPoint="40151" shape="19" startPoint="39777" type="log"/>
          <clipStretch adaptiveWindowSize="37" pitchAdjustment="0" preserveFormants="true" stretchMode="realtime" stretchQuality="high" stretchRatio="0.843951655281135" stretchType="solo" transientSensitivity="40"/>
          <editParameter parameterIndex="0" slotIndex="4294967281"/>
          <editParameter parameterIndex="0" slotIndex="4294967280"/>
          <channelMap>
            <channel index="0" sourceIndex="0"/>
          </channelMap>
        </audioClip>
        <audioClip clipAutoCrossfade="true" crossFadeHeadClipID="41" crossFadeTailClipID="43" endPoint="3295041" fileID="96" hue="-1" id="42" lockedInTime="false" looped="false" name="Akira_090" offline="false" select="false" sourceInPoint="28914" sourceOutPoint="233368" startPoint="3090587" zOrder="2145914203">
          <component componentGuid="7a30f535-6973-418f-8c04-3f471dadc2a0" componentID="Audition.Fader" id="clipGain" name="volume" powered="true">
            <parameter index="0" name="volume" parameterValue="0.7308786">
              <parameterKeyframes enableSplines="false">
                <parameterKeyframe sampleOffset="26992" select="false" type="linear" value="0.5648768"/>
                <parameterKeyframe sampleOffset="48468" select="false" type="linear" value="0.7903078"/>
              </parameterKeyframes>
            </parameter>
            <parameter index="1" name="static gain" parameterValue="1"/>
          </component>
          <component componentGuid="f8fa0b40-6f59-4bf0-8f30-8736f5a54a5e" componentID="Audition.Mute" id="clipMute" name="Mute" powered="true">
            <parameter index="0" parameterValue="0"/>
            <parameter index="1" name="mute" parameterValue="0"/>
          </component>
          <component componentGuid="439a9118-f1c1-4607-bb51-f260dae0a5ee" componentID="Audition.StereoPanner" id="clipPan" name="StereoPanner" powered="true">
            <parameter index="0" name="Pan" parameterValue="0"/>
          </component>
          <fadeIn crossFadeLinkType="linkedAsymmetric" endPoint="374" shape="18" startPoint="0" type="log"/>
          <fadeOut crossFadeLinkType="linkedAsymmetric" endPoint="204454" shape="18" startPoint="200640" type="log"/>
          <take sourceInPoint="0"/>
          <editParameter parameterIndex="0" slotIndex="4294967281"/>
          <editParameter parameterIndex="0" slotIndex="4294967280"/>
          <channelMap>
            <channel index="0" sourceIndex="0"/>
          </channelMap>
        </audioClip>
        <audioClip clipAutoCrossfade="true" crossFadeHeadClipID="42" crossFadeTailClipID="-1" endPoint="3376803" fileID="96" hue="-1" id="43" lockedInTime="false" looped="false" name="Akira_090" offline="false" select="false" sourceInPoint="553952" sourceOutPoint="639528" startPoint="3291227" zOrder="2145914197">
          <component componentGuid="5731deac-4f3d-4030-bad8-92dc4388bc87" componentID="Audition.Fader" id="clipGain" name="volume" powered="true">
            <parameter index="0" name="volume" parameterValue="1.693833"/>
            <parameter index="1" name="static gain" parameterValue="1"/>
          </component>
          <component componentGuid="a85d3437-5d4a-44e3-a5ee-df6f5bc294cb" componentID="Audition.Mute" id="clipMute" name="Mute" powered="true">
            <parameter index="0" parameterValue="0"/>
            <parameter index="1" name="mute" parameterValue="0"/>
          </component>
          <component componentGuid="aa536799-7766-4182-a01c-34f3e711ac83" componentID="Audition.StereoPanner" id="clipPan" name="StereoPanner" powered="true">
            <parameter index="0" name="Pan" parameterValue="0"/>
          </component>
          <fadeIn crossFadeLinkType="linkedAsymmetric" endPoint="3814" shape="19" startPoint="0" type="log"/>
          <fadeOut crossFadeLinkType="linkedAsymmetric" endPoint="85576" shape="0" startPoint="61707" type="log"/>
          <editParameter parameterIndex="0" slotIndex="4294967281"/>
          <editParameter parameterIndex="0" slotIndex="4294967280"/>
          <channelMap>
            <channel index="0" sourceIndex="0"/>
          </channelMap>
        </audioClip>
        <audioClip clipAutoCrossfade="true" crossFadeHeadClipID="-1" crossFadeTailClipID="-1" endPoint="3590886" fileID="96" hue="-1" id="44" lockedInTime="false" looped="false" name="Akira_090" offline="false" select="false" sourceInPoint="782176" sourceOutPoint="962613" startPoint="3410449" zOrder="2145914199">
          <component componentGuid="bacb7ea6-6ae7-4773-85d7-ca9b21427265" componentID="Audition.Fader" id="clipGain" name="volume" powered="true">
            <parameter index="0" name="volume" parameterValue="1.6669376"/>
            <parameter index="1" name="static gain" parameterValue="1"/>
          </component>
          <component componentGuid="a82a3db0-73c3-48a0-bbe1-3d9f6c8f1078" componentID="Audition.Mute" id="clipMute" name="Mute" powered="true">
            <parameter index="0" parameterValue="0"/>
            <parameter index="1" name="mute" parameterValue="0"/>
          </component>
          <component componentGuid="07eda17b-eece-43ac-a6f5-948b91682830" componentID="Audition.StereoPanner" id="clipPan" name="StereoPanner" powered="true">
            <parameter index="0" name="Pan" parameterValue="0"/>
          </component>
          <fadeIn crossFadeLinkType="linkedAsymmetric" endPoint="31075" shape="19" startPoint="0" type="log"/>
          <fadeOut crossFadeLinkType="linkedAsymmetric" endPoint="180437" shape="18" startPoint="180437" type="log"/>
          <editParameter parameterIndex="0" slotIndex="4294967281"/>
          <editParameter parameterIndex="0" slotIndex="4294967280"/>
          <channelMap>
            <channel index="0" sourceIndex="0"/>
          </channelMap>
        </audioClip>
        <audioClip clipAutoCrossfade="true" crossFadeHeadClipID="-1" crossFadeTailClipID="-1" endPoint="3634986" fileID="97" hue="-1" id="45" lockedInTime="false" looped="false" name="Akira_089" offline="false" select="false" sourceInPoint="624317" sourceOutPoint="668417" startPoint="3590886" zOrder="2145914204">
          <component componentGuid="33e45685-788a-4b10-b655-9ae09209155a" componentID="Audition.Fader" id="clipGain" name="volume" powered="true">
            <parameter index="0" name="volume" parameterValue="1.6669365"/>
            <parameter index="1" name="static gain" parameterValue="1"/>
          </component>
          <component componentGuid="2a885648-a08b-4b74-a84b-6734c628d8e8" componentID="Audition.Mute" id="clipMute" name="Mute" powered="true">
            <parameter index="0" parameterValue="0"/>
            <parameter index="1" name="mute" parameterValue="0"/>
          </component>
          <component componentGuid="594a6b30-2202-4951-b140-d7a8d93fa840" componentID="Audition.StereoPanner" id="clipPan" name="StereoPanner" powered="true">
            <parameter index="0" name="Pan" parameterValue="0"/>
          </component>
          <fadeIn crossFadeLinkType="linkedAsymmetric" endPoint="0" shape="19" startPoint="0" type="log"/>
          <fadeOut crossFadeLinkType="linkedAsymmetric" endPoint="44100" shape="-15" startPoint="39537" type="log"/>
          <take sourceInPoint="0"/>
          <editParameter parameterIndex="0" slotIndex="4294967281"/>
          <editParameter parameterIndex="0" slotIndex="4294967280"/>
          <channelMap>
            <channel index="0" sourceIndex="0"/>
          </channelMap>
        </audioClip>
        <audioClip clipAutoCrossfade="true" crossFadeHeadClipID="-1" crossFadeTailClipID="47" endPoint="3760943" fileID="16" hue="-1" id="46" lockedInTime="false" looped="false" name="Akira" offline="false" select="false" sourceInPoint="68720" sourceOutPoint="108871" startPoint="3720792" zOrder="2145914207">
          <component componentGuid="d1e24337-dbc7-4c3a-b1eb-cbfba2543039" componentID="Audition.Fader" id="clipGain" name="volume" powered="true">
            <parameter index="0" name="volume" parameterValue="0.7202328"/>
            <parameter index="1" name="static gain" parameterValue="1"/>
          </component>
          <component componentGuid="9c1b620f-8d4e-4c9d-bc7f-20240fefe3bc" componentID="Audition.Mute" id="clipMute" name="Mute" powered="true">
            <parameter index="0" parameterValue="0"/>
            <parameter index="1" name="mute" parameterValue="0"/>
          </component>
          <component componentGuid="4667555a-fba0-4090-8060-9f2882d836d9" componentID="Audition.StereoPanner" id="clipPan" name="StereoPanner" powered="true">
            <parameter index="0" name="Pan" parameterValue="0"/>
          </component>
          <fadeIn crossFadeLinkType="linkedAsymmetric" endPoint="5909" shape="19" startPoint="0" type="log"/>
          <fadeOut crossFadeLinkType="linkedAsymmetric" endPoint="40151" shape="18" startPoint="39101" type="log"/>
          <clipStretch adaptiveWindowSize="37" pitchAdjustment="0" preserveFormants="true" stretchMode="realtime" stretchQuality="high" stretchRatio="0.843951655281135" stretchType="solo" transientSensitivity="40"/>
          <editParameter parameterIndex="0" slotIndex="4294967281"/>
          <editParameter parameterIndex="0" slotIndex="4294967280"/>
          <channelMap>
            <channel index="0" sourceIndex="0"/>
          </channelMap>
        </audioClip>
        <audioClip clipAutoCrossfade="true" crossFadeHeadClipID="46" crossFadeTailClipID="-1" endPoint="4157633" fileID="98" hue="-1" id="47" lockedInTime="false" looped="false" name="Akira_092" offline="false" select="false" sourceInPoint="111436" sourceOutPoint="509176" startPoint="3759893" zOrder="2145914364">
          <component componentGuid="e4b19f40-7558-4d86-8c46-ebf66f849ead" componentID="Audition.Fader" id="clipGain" name="volume" powered="true">
            <parameter index="0" name="volume" parameterValue="0.227119">
              <parameterKeyframes enableSplines="false">
                <parameterKeyframe sampleOffset="110765" select="false" type="linear" value="0.334729"/>
                <parameterKeyframe sampleOffset="111541" select="false" type="linear" value="0.5717077"/>
                <parameterKeyframe sampleOffset="126766" select="true" type="linear" value="0.7730765"/>
              </parameterKeyframes>
            </parameter>
            <parameter index="1" name="static gain" parameterValue="1"/>
          </component>
          <component componentGuid="aa7f8c12-0c48-41a0-be41-c96bb9ab8d3c" componentID="Audition.Mute" id="clipMute" name="Mute" powered="true">
            <parameter index="0" parameterValue="0"/>
            <parameter index="1" name="mute" parameterValue="0"/>
          </component>
          <component componentGuid="8fd16f8e-b7bb-4fef-8d54-e78417204562" componentID="Audition.StereoPanner" id="clipPan" name="StereoPanner" powered="true">
            <parameter index="0" name="Pan" parameterValue="0"/>
          </component>
          <fadeIn crossFadeLinkType="linkedAsymmetric" endPoint="1050" shape="19" startPoint="0" type="log"/>
          <fadeOut crossFadeLinkType="linkedAsymmetric" endPoint="397740" shape="7" startPoint="397740" type="log"/>
          <take sourceInPoint="0"/>
          <editParameter parameterIndex="0" slotIndex="4294967281"/>
          <editParameter parameterIndex="0" slotIndex="4294967280"/>
          <channelMap>
            <channel index="0" sourceIndex="0"/>
          </channelMap>
        </audioClip>
        <audioClip clipAutoCrossfade="true" crossFadeHeadClipID="-1" crossFadeTailClipID="-1" endPoint="4426949" fileID="98" hue="-1" id="48" lockedInTime="false" looped="false" name="Akira_092" offline="false" select="false" sourceInPoint="509176" sourceOutPoint="778492" startPoint="4157633" zOrder="2145914365">
          <component componentGuid="685ec2bb-5020-432c-8850-70d72f7b9f21" componentID="Audition.Fader" id="clipGain" name="volume" powered="true">
            <parameter index="0" name="volume" parameterValue="0.227119">
              <parameterKeyframes enableSplines="false">
                <parameterKeyframe sampleOffset="110765" select="false" type="linear" value="0.334729"/>
                <parameterKeyframe sampleOffset="111541" select="false" type="linear" value="0.5717077"/>
                <parameterKeyframe sampleOffset="126766" select="true" type="linear" value="0.7730765"/>
              </parameterKeyframes>
            </parameter>
            <parameter index="1" name="static gain" parameterValue="1"/>
          </component>
          <component componentGuid="dc9427b5-e72e-48b6-a2f6-9eaa42135f1d" componentID="Audition.Mute" id="clipMute" name="Mute" powered="true">
            <parameter index="0" parameterValue="0"/>
            <parameter index="1" name="mute" parameterValue="0"/>
          </component>
          <component componentGuid="e1907569-d3ed-49f9-b379-a239758867a3" componentID="Audition.StereoPanner" id="clipPan" name="StereoPanner" powered="true">
            <parameter index="0" name="Pan" parameterValue="0"/>
          </component>
          <fadeIn crossFadeLinkType="linkedAsymmetric" endPoint="0" shape="0" startPoint="0" type="cosine"/>
          <fadeOut crossFadeLinkType="linkedAsymmetric" endPoint="269316" shape="7" startPoint="219605" type="log"/>
          <editParameter parameterIndex="0" slotIndex="4294967281"/>
          <editParameter parameterIndex="0" slotIndex="4294967280"/>
          <channelMap>
            <channel index="0" sourceIndex="0"/>
          </channelMap>
        </audioClip>
      </audioTrack>
      <audioTrack automationLaneOpenState="false" id="10006" index="6" select="false" visible="true">
        <trackParameters trackHeight="173" trackHue="219.5247316360473633" trackMinimized="false">
          <name>Jodee</name>
        </trackParameters>
        <trackAudioParameters audioChannelType="stereo" automationMode="1" monitoring="false" recordArmed="false" solo="false" soloSafe="false">
          <trackOutput outputID="10000" type="trackID"/>
          <trackInput inputID="1"/>
          <component componentGuid="3fb25cd0-e14a-4ac4-930d-9d9af6a384dd" componentID="Audition.Fader" id="trackFader" name="volume" powered="true">
            <parameter index="0" name="volume" parameterValue="1"/>
            <parameter index="1" name="static gain" parameterValue="1"/>
          </component>
          <component componentGuid="9720ddfa-8b4c-4209-80b4-d69f32da3eae" componentID="Audition.Mute" id="trackMute" name="Mute" powered="true">
            <parameter index="0" parameterValue="0"/>
            <parameter index="1" name="mute" parameterValue="0"/>
          </component>
          <component componentGuid="1636487e-5c19-4e3e-b8c3-7285e87a3b26" componentID="Audition.StereoPanner" id="trackPan" name="StereoPanner" powered="true">
            <parameter index="0" name="Pan" parameterValue="0"/>
          </component>
          <component componentGuid="d800fd5e-7a11-419a-86cd-37baa717fa4f" componentID="Audition.EQ" id="trackEQ" name="EQ" powered="false">
            <parameter index="0" name="Low Shelf Frequency" parameterValue="0.0009079"/>
            <parameter index="1" name="Low Shelf Gain" parameterValue="0.5"/>
            <parameter index="2" name="High Shelf Frequency" parameterValue="0.8161598"/>
            <parameter index="3" name="High Shelf Gain" parameterValue="0.5"/>
            <parameter index="4" name="EQ Band 1 Center Frequency" parameterValue="0.0013618"/>
            <parameter index="5" name="EQ Band 1 Q" parameterValue="0.0002"/>
            <parameter index="6" name="EQ Band 1 Gain" parameterValue="0.5"/>
            <parameter index="7" name="EQ Band 1 Enable" parameterValue="1"/>
            <parameter index="8" name="EQ Band 2 Center Frequency" parameterValue="0.0081707"/>
            <parameter index="9" name="EQ Band 2 Q" parameterValue="0.0002"/>
            <parameter index="10" name="EQ Band 2 Gain" parameterValue="0.5"/>
            <parameter index="11" name="EQ Band 2 Enable" parameterValue="1"/>
            <parameter index="12" name="EQ Band 3 Center Frequency" parameterValue="0.0354063"/>
            <parameter index="13" name="EQ Band 3 Q" parameterValue="0.0002"/>
            <parameter index="14" name="EQ Band 3 Gain" parameterValue="0.5"/>
            <parameter index="15" name="EQ Band 3 Enable" parameterValue="1"/>
            <parameter index="16" name="EQ Band 4 Center Frequency" parameterValue="0.1443486"/>
            <parameter index="17" name="EQ Band 4 Q" parameterValue="0.0002"/>
            <parameter index="18" name="EQ Band 4 Gain" parameterValue="0.5"/>
            <parameter index="19" name="EQ Band 4 Enable" parameterValue="1"/>
            <parameter index="20" name="EQ Band 5 Center Frequency" parameterValue="0.580118"/>
            <parameter index="21" name="EQ Band 5 Q" parameterValue="0.0002"/>
            <parameter index="22" name="EQ Band 5 Gain" parameterValue="0.5"/>
            <parameter index="23" name="EQ Band 5 Enable" parameterValue="1"/>
            <parameter index="24" name="Master Gain" parameterValue="0.6666667"/>
            <parameter index="25" name="ConstantQ" parameterValue="1"/>
            <parameter index="26" name="Low Shelf Filter Order" parameterValue="0"/>
            <parameter index="27" name="High Shelf Filter Order" parameterValue="0"/>
            <parameter index="28" name="Ultra-Quiet Mode" parameterValue="0"/>
            <parameter index="29" name="Low Shelf Enable" parameterValue="1"/>
            <parameter index="30" name="High Shelf Enable" parameterValue="1"/>
            <parameter index="31" name="Original Sample Rate" parameterValue="0.2296875"/>
            <parameter index="32" name="EQ Band 1 Bandwidth" parameterValue="0.0025"/>
            <parameter index="33" name="EQ Band 2 Bandwidth" parameterValue="0.01"/>
            <parameter index="34" name="EQ Band 3 Bandwidth" parameterValue="0.04"/>
            <parameter index="35" name="EQ Band 4 Bandwidth" parameterValue="0.16"/>
            <parameter index="36" name="EQ Band 5 Bandwidth" parameterValue="0.64"/>
            <parameter index="37" name="High-Pass Filter Enable" parameterValue="0"/>
            <parameter index="38" name="High-Pass Cutoff Frequency" parameterValue="0"/>
            <parameter index="39" name="High-Pass Slope" parameterValue="0.4"/>
            <parameter index="40" name="Low-Pass Filter Enable" parameterValue="0"/>
            <parameter index="41" name="Low-Pass Cutoff Frequency" parameterValue="0.906945"/>
            <parameter index="42" name="Low-Pass Slope" parameterValue="0.4"/>
            <parameter index="43" name="Bypass" parameterValue="0"/>
            <parameter index="44" name="LowGraphRange" parameterValue="1"/>
          </component>
        </trackAudioParameters>
        <editParameter parameterIndex="0" slotIndex="4294967280"/>
        <sendList>
          <sendSlot preFader="false" sendOutputID="0" slotIndex="0">
            <component componentGuid="3694de8d-504c-4fbc-868c-d63d3fbec88c" id="sendComponent" powered="false">
              <parameter index="0" name="Power On/Off" parameterValue="0"/>
              <parameter index="1" name="Level" parameterValue="0"/>
            </component>
            <component id="sendPan" powered="true"/>
          </sendSlot>
          <sendSlot preFader="false" sendOutputID="0" slotIndex="1">
            <component componentGuid="1a2060b6-2577-4953-9ccb-3bdd60ad26e7" id="sendComponent" powered="false">
              <parameter index="0" name="Power On/Off" parameterValue="0"/>
              <parameter index="1" name="Level" parameterValue="0"/>
            </component>
            <component id="sendPan" powered="true"/>
          </sendSlot>
          <sendSlot preFader="false" sendOutputID="0" slotIndex="2">
            <component componentGuid="45351578-f3cd-4bec-9313-ed474fbe8a2a" id="sendComponent" powered="false">
              <parameter index="0" name="Power On/Off" parameterValue="0"/>
              <parameter index="1" name="Level" parameterValue="0"/>
            </component>
            <component id="sendPan" powered="true"/>
          </sendSlot>
          <sendSlot preFader="false" sendOutputID="0" slotIndex="3">
            <component componentGuid="b9807217-5ca0-4214-8d7e-8faa011096c2" id="sendComponent" powered="false">
              <parameter index="0" name="Power On/Off" parameterValue="0"/>
              <parameter index="1" name="Level" parameterValue="0"/>
            </component>
            <component id="sendPan" powered="true"/>
          </sendSlot>
          <sendSlot preFader="false" sendOutputID="0" slotIndex="4">
            <component componentGuid="59d30aa2-54aa-4929-b229-7ed4df528708" id="sendComponent" powered="false">
              <parameter index="0" name="Power On/Off" parameterValue="0"/>
              <parameter index="1" name="Level" parameterValue="0"/>
            </component>
            <component id="sendPan" powered="true"/>
          </sendSlot>
          <sendSlot preFader="false" sendOutputID="0" slotIndex="5">
            <component componentGuid="b727d7a7-53a4-4551-94e0-196f57da1eff" id="sendComponent" powered="false">
              <parameter index="0" name="Power On/Off" parameterValue="0"/>
              <parameter index="1" name="Level" parameterValue="0"/>
            </component>
            <component id="sendPan" powered="true"/>
          </sendSlot>
          <sendSlot preFader="false" sendOutputID="0" slotIndex="6">
            <component componentGuid="4d6f50a8-7f26-48b3-84c3-1f777b12bcac" id="sendComponent" powered="false">
              <parameter index="0" name="Power On/Off" parameterValue="0"/>
              <parameter index="1" name="Level" parameterValue="0"/>
            </component>
            <component id="sendPan" powered="true"/>
          </sendSlot>
          <sendSlot preFader="false" sendOutputID="0" slotIndex="7">
            <component componentGuid="84da77ea-62be-4ac9-b365-58430c53cc8a" id="sendComponent" powered="false">
              <parameter index="0" name="Power On/Off" parameterValue="0"/>
              <parameter index="1" name="Level" parameterValue="0"/>
            </component>
            <component id="sendPan" powered="true"/>
          </sendSlot>
          <sendSlot preFader="false" sendOutputID="0" slotIndex="8">
            <component componentGuid="3528aaf9-5a7b-4d05-83dd-890847449872" id="sendComponent" powered="false">
              <parameter index="0" name="Power On/Off" parameterValue="0"/>
              <parameter index="1" name="Level" parameterValue="0"/>
            </component>
            <component id="sendPan" powered="true"/>
          </sendSlot>
          <sendSlot preFader="false" sendOutputID="0" slotIndex="9">
            <component componentGuid="5c33ab90-d79c-4e5e-809f-8ace72df0ce6" id="sendComponent" powered="false">
              <parameter index="0" name="Power On/Off" parameterValue="0"/>
              <parameter index="1" name="Level" parameterValue="0"/>
            </component>
            <component id="sendPan" powered="true"/>
          </sendSlot>
          <sendSlot preFader="false" sendOutputID="0" slotIndex="10">
            <component componentGuid="cee9b80a-2607-4d9e-b3d6-b7292eb89d3e" id="sendComponent" powered="false">
              <parameter index="0" name="Power On/Off" parameterValue="0"/>
              <parameter index="1" name="Level" parameterValue="0"/>
            </component>
            <component id="sendPan" powered="true"/>
          </sendSlot>
          <sendSlot preFader="false" sendOutputID="0" slotIndex="11">
            <component componentGuid="080f7a9f-6a9b-4073-8089-5e0a33e0a92d" id="sendComponent" powered="false">
              <parameter index="0" name="Power On/Off" parameterValue="0"/>
              <parameter index="1" name="Level" parameterValue="0"/>
            </component>
            <component id="sendPan" powered="true"/>
          </sendSlot>
          <sendSlot preFader="false" sendOutputID="0" slotIndex="12">
            <component componentGuid="5e3bb786-3790-462a-980e-a1fdc635fb02" id="sendComponent" powered="false">
              <parameter index="0" name="Power On/Off" parameterValue="0"/>
              <parameter index="1" name="Level" parameterValue="0"/>
            </component>
            <component id="sendPan" powered="true"/>
          </sendSlot>
          <sendSlot preFader="false" sendOutputID="0" slotIndex="13">
            <component componentGuid="e9af5fe3-6574-4879-9802-ef9edafc0d9a" id="sendComponent" powered="false">
              <parameter index="0" name="Power On/Off" parameterValue="0"/>
              <parameter index="1" name="Level" parameterValue="0"/>
            </component>
            <component id="sendPan" powered="true"/>
          </sendSlot>
          <sendSlot preFader="false" sendOutputID="0" slotIndex="14">
            <component componentGuid="cbd54d62-c017-438d-89fe-f1ca8400ca3c" id="sendComponent" powered="false">
              <parameter index="0" name="Power On/Off" parameterValue="0"/>
              <parameter index="1" name="Level" parameterValue="0"/>
            </component>
            <component id="sendPan" powered="true"/>
          </sendSlot>
          <sendSlot preFader="false" sendOutputID="0" slotIndex="15">
            <component componentGuid="3fcd8019-e68f-4fc4-9767-4ad33c69c13c" id="sendComponent" powered="false">
              <parameter index="0" name="Power On/Off" parameterValue="0"/>
              <parameter index="1" name="Level" parameterValue="0"/>
            </component>
            <component id="sendPan" powered="true"/>
          </sendSlot>
        </sendList>
        <audioClip clipAutoCrossfade="true" crossFadeHeadClipID="-1" crossFadeTailClipID="1" endPoint="39962" fileID="16" hue="-1" id="0" lockedInTime="false" looped="false" name="Track 3_013" offline="false" select="false" sourceInPoint="285928" sourceOutPoint="323178" startPoint="2712" zOrder="2145914276">
          <component componentGuid="eaa97b98-e1bc-4d42-af48-e0d6cefe396a" componentID="Audition.Fader" id="clipGain" name="volume" powered="true">
            <parameter index="0" name="volume" parameterValue="1.0684434"/>
            <parameter index="1" name="static gain" parameterValue="1"/>
          </component>
          <component componentGuid="63a84fdc-4152-4b7b-8607-e2916f51fb3e" componentID="Audition.Mute" id="clipMute" name="Mute" powered="true">
            <parameter index="0" parameterValue="0"/>
            <parameter index="1" name="mute" parameterValue="0"/>
          </component>
          <component componentGuid="8eab8e3b-e527-4377-9049-571fcaac83c3" componentID="Audition.StereoPanner" id="clipPan" name="StereoPanner" powered="true">
            <parameter index="0" name="Pan" parameterValue="0"/>
          </component>
          <fadeIn crossFadeLinkType="linkedAsymmetric" endPoint="7013" shape="19" startPoint="0" type="log"/>
          <fadeOut crossFadeLinkType="linkedAsymmetric" endPoint="37250" shape="19" startPoint="34805" type="log"/>
          <clipStretch adaptiveWindowSize="37" pitchAdjustment="0" preserveFormants="true" stretchMode="realtime" stretchQuality="high" stretchRatio="0.811741375928872" stretchType="solo" transientSensitivity="40"/>
          <editParameter parameterIndex="0" slotIndex="4294967281"/>
          <editParameter parameterIndex="0" slotIndex="4294967280"/>
          <channelMap>
            <channel index="0" sourceIndex="0"/>
          </channelMap>
        </audioClip>
        <audioClip clipAutoCrossfade="true" crossFadeHeadClipID="0" crossFadeTailClipID="-1" endPoint="181313" fileID="99" hue="-1" id="1" lockedInTime="false" looped="false" name="Jodee_093" offline="false" select="false" sourceInPoint="25917" sourceOutPoint="169713" startPoint="37517" zOrder="2145915017">
          <component componentGuid="eaea612a-ef49-4c9a-8fe9-2fb79963750d" componentID="Audition.Fader" id="clipGain" name="volume" powered="true">
            <parameter index="0" name="volume" parameterValue="1.4671788">
              <parameterKeyframes enableSplines="false">
                <parameterKeyframe sampleOffset="23318" select="false" type="linear" value="0.3593596"/>
                <parameterKeyframe sampleOffset="24811" select="false" type="linear" value="0.6727803"/>
                <parameterKeyframe sampleOffset="60246" select="true" type="linear" value="0.7525114"/>
              </parameterKeyframes>
            </parameter>
            <parameter index="1" name="static gain" parameterValue="1"/>
          </component>
          <component componentGuid="feb1f361-bbbd-4cc5-9aad-30eded6e7362" componentID="Audition.Mute" id="clipMute" name="Mute" powered="true">
            <parameter index="0" parameterValue="0"/>
            <parameter index="1" name="mute" parameterValue="0"/>
          </component>
          <component componentGuid="82a8aab4-1f42-463a-bbfa-c0cdadaf18d2" componentID="Audition.StereoPanner" id="clipPan" name="StereoPanner" powered="true">
            <parameter index="0" name="Pan" parameterValue="0"/>
          </component>
          <fadeIn crossFadeLinkType="linkedAsymmetric" endPoint="2445" shape="18" startPoint="0" type="log"/>
          <fadeOut crossFadeLinkType="linkedAsymmetric" endPoint="143796" shape="19" startPoint="143796" type="log"/>
          <take sourceInPoint="0"/>
          <editParameter parameterIndex="0" slotIndex="4294967281"/>
          <editParameter parameterIndex="0" slotIndex="4294967280"/>
          <channelMap>
            <channel index="0" sourceIndex="0"/>
          </channelMap>
        </audioClip>
        <audioClip clipAutoCrossfade="true" crossFadeHeadClipID="-1" crossFadeTailClipID="-1" endPoint="402925" fileID="99" hue="-1" id="2" lockedInTime="false" looped="false" name="Jodee_093" offline="false" select="false" sourceInPoint="182267" sourceOutPoint="359842" startPoint="225350" zOrder="2145915018">
          <component componentGuid="eec94924-3685-4afc-bab9-8c5f5a642ad9" componentID="Audition.Fader" id="clipGain" name="volume" powered="true">
            <parameter index="0" name="volume" parameterValue="1.4336559"/>
            <parameter index="1" name="static gain" parameterValue="1"/>
          </component>
          <component componentGuid="d16693a3-5ec7-4d2c-9208-2419e3e3171b" componentID="Audition.Mute" id="clipMute" name="Mute" powered="true">
            <parameter index="0" parameterValue="0"/>
            <parameter index="1" name="mute" parameterValue="0"/>
          </component>
          <component componentGuid="082c8a81-02a0-474e-9794-b6b8b9123f58" componentID="Audition.StereoPanner" id="clipPan" name="StereoPanner" powered="true">
            <parameter index="0" name="Pan" parameterValue="0"/>
          </component>
          <fadeIn crossFadeLinkType="linkedAsymmetric" endPoint="22746" shape="19" startPoint="0" type="log"/>
          <fadeOut crossFadeLinkType="linkedAsymmetric" endPoint="177575" shape="8" startPoint="150905" type="log"/>
          <editParameter parameterIndex="0" slotIndex="4294967281"/>
          <editParameter parameterIndex="0" slotIndex="4294967280"/>
          <channelMap>
            <channel index="0" sourceIndex="0"/>
          </channelMap>
        </audioClip>
        <audioClip clipAutoCrossfade="true" crossFadeHeadClipID="-1" crossFadeTailClipID="-1" endPoint="485569" fileID="16" hue="-1" id="3" lockedInTime="false" looped="false" name="Track 3_013" offline="false" select="false" sourceInPoint="285928" sourceOutPoint="323178" startPoint="448319" zOrder="2145914283">
          <component componentGuid="76ae13ad-7159-483e-a604-6586de2613b0" componentID="Audition.Fader" id="clipGain" name="volume" powered="true">
            <parameter index="0" name="volume" parameterValue="1.0621122"/>
            <parameter index="1" name="static gain" parameterValue="1"/>
          </component>
          <component componentGuid="33a4d559-8ca4-4232-bdb4-7a10e08f3c1f" componentID="Audition.Mute" id="clipMute" name="Mute" powered="true">
            <parameter index="0" parameterValue="0"/>
            <parameter index="1" name="mute" parameterValue="0"/>
          </component>
          <component componentGuid="6f5a3150-9035-46dd-aa32-b8516c01e4b8" componentID="Audition.StereoPanner" id="clipPan" name="StereoPanner" powered="true">
            <parameter index="0" name="Pan" parameterValue="0"/>
          </component>
          <fadeIn crossFadeLinkType="linkedAsymmetric" endPoint="7013" shape="19" startPoint="0" type="log"/>
          <fadeOut crossFadeLinkType="linkedAsymmetric" endPoint="37250" shape="0" startPoint="37250" type="cosine"/>
          <clipStretch adaptiveWindowSize="37" pitchAdjustment="0" preserveFormants="true" stretchMode="realtime" stretchQuality="high" stretchRatio="0.811741375928872" stretchType="solo" transientSensitivity="40"/>
          <editParameter parameterIndex="0" slotIndex="4294967281"/>
          <editParameter parameterIndex="0" slotIndex="4294967280"/>
          <channelMap>
            <channel index="0" sourceIndex="0"/>
          </channelMap>
        </audioClip>
        <audioClip clipAutoCrossfade="true" crossFadeHeadClipID="-1" crossFadeTailClipID="-1" endPoint="601171" fileID="100" hue="-1" id="4" lockedInTime="false" looped="false" name="Jodee_098" offline="false" select="false" sourceInPoint="437353" sourceOutPoint="552955" startPoint="485569" zOrder="2145915019">
          <component componentGuid="b4fb3b88-038e-4253-893d-73ff1ff05ad8" componentID="Audition.Fader" id="clipGain" name="volume" powered="true">
            <parameter index="0" name="volume" parameterValue="1.1686394">
              <parameterKeyframes enableSplines="false">
                <parameterKeyframe sampleOffset="426996" select="false" type="linear" value="0.3544335"/>
                <parameterKeyframe sampleOffset="436029" select="false" type="linear" value="0.6664371"/>
                <parameterKeyframe sampleOffset="462430" select="true" type="linear" value="0.6938065"/>
              </parameterKeyframes>
            </parameter>
            <parameter index="1" name="static gain" parameterValue="1"/>
          </component>
          <component componentGuid="85d6d3a0-99f7-4a4e-98fd-bcdfe455e1ea" componentID="Audition.Mute" id="clipMute" name="Mute" powered="true">
            <parameter index="0" parameterValue="0"/>
            <parameter index="1" name="mute" parameterValue="0"/>
          </component>
          <component componentGuid="ca624113-cf4f-4932-b292-04eecb5dde63" componentID="Audition.StereoPanner" id="clipPan" name="StereoPanner" powered="true">
            <parameter index="0" name="Pan" parameterValue="0"/>
          </component>
          <fadeIn crossFadeLinkType="linkedAsymmetric" endPoint="0" shape="18" startPoint="0" type="log"/>
          <fadeOut crossFadeLinkType="linkedAsymmetric" endPoint="115602" shape="11" startPoint="108310" type="log"/>
          <take sourceInPoint="0"/>
          <editParameter parameterIndex="0" slotIndex="4294967281"/>
          <editParameter parameterIndex="0" slotIndex="4294967280"/>
          <channelMap>
            <channel index="0" sourceIndex="0"/>
          </channelMap>
        </audioClip>
        <audioClip clipAutoCrossfade="true" crossFadeHeadClipID="-1" crossFadeTailClipID="-1" endPoint="684758" fileID="16" hue="-1" id="5" lockedInTime="false" looped="false" name="Track 3_013" offline="false" select="false" sourceInPoint="285928" sourceOutPoint="323178" startPoint="647508" zOrder="2145914289">
          <component componentGuid="fd4d13d4-9918-43a8-91f6-d14666038913" componentID="Audition.Fader" id="clipGain" name="volume" powered="true">
            <parameter index="0" name="volume" parameterValue="1"/>
            <parameter index="1" name="static gain" parameterValue="1"/>
          </component>
          <component componentGuid="678cd3c5-09f9-4de2-a162-dfd2b9fb18c5" componentID="Audition.Mute" id="clipMute" name="Mute" powered="true">
            <parameter index="0" parameterValue="0"/>
            <parameter index="1" name="mute" parameterValue="0"/>
          </component>
          <component componentGuid="fa8a5be1-93d1-45fe-a3af-18863f5994c5" componentID="Audition.StereoPanner" id="clipPan" name="StereoPanner" powered="true">
            <parameter index="0" name="Pan" parameterValue="0"/>
          </component>
          <fadeIn crossFadeLinkType="linkedAsymmetric" endPoint="7013" shape="19" startPoint="0" type="log"/>
          <fadeOut crossFadeLinkType="linkedAsymmetric" endPoint="37250" shape="0" startPoint="37250" type="cosine"/>
          <clipStretch adaptiveWindowSize="37" pitchAdjustment="0" preserveFormants="true" stretchMode="realtime" stretchQuality="high" stretchRatio="0.811741375928872" stretchType="solo" transientSensitivity="40"/>
          <editParameter parameterIndex="0" slotIndex="4294967281"/>
          <editParameter parameterIndex="0" slotIndex="4294967280"/>
          <channelMap>
            <channel index="0" sourceIndex="0"/>
          </channelMap>
        </audioClip>
        <audioClip clipAutoCrossfade="true" crossFadeHeadClipID="-1" crossFadeTailClipID="-1" endPoint="794231" fileID="101" hue="-1" id="6" lockedInTime="false" looped="false" name="Jodee_099" offline="false" select="false" sourceInPoint="41455" sourceOutPoint="150739" startPoint="684947" zOrder="2145915020">
          <component componentGuid="bf9b5d09-0c30-49c6-9e97-7eee3195ee3d" componentID="Audition.Fader" id="clipGain" name="volume" powered="true">
            <parameter index="0" name="volume" parameterValue="1.0902992">
              <parameterKeyframes enableSplines="false">
                <parameterKeyframe sampleOffset="39556" select="false" type="linear" value="0.65"/>
                <parameterKeyframe sampleOffset="60345" select="true" type="linear" value="0.6746786"/>
              </parameterKeyframes>
            </parameter>
            <parameter index="1" name="static gain" parameterValue="1"/>
          </component>
          <component componentGuid="5583341b-ef7f-4ec7-bf2a-7f124293c3dd" componentID="Audition.Mute" id="clipMute" name="Mute" powered="true">
            <parameter index="0" parameterValue="0"/>
            <parameter index="1" name="mute" parameterValue="0"/>
          </component>
          <component componentGuid="0d97b480-ba98-48f8-82e5-ad1d26feeef8" componentID="Audition.StereoPanner" id="clipPan" name="StereoPanner" powered="true">
            <parameter index="0" name="Pan" parameterValue="0"/>
          </component>
          <fadeIn crossFadeLinkType="linkedAsymmetric" endPoint="0" shape="0" startPoint="0" type="log"/>
          <fadeOut crossFadeLinkType="linkedAsymmetric" endPoint="109284" shape="9" startPoint="81939" type="log"/>
          <take sourceInPoint="0"/>
          <editParameter parameterIndex="0" slotIndex="4294967281"/>
          <editParameter parameterIndex="0" slotIndex="4294967280"/>
          <channelMap>
            <channel index="0" sourceIndex="0"/>
          </channelMap>
        </audioClip>
        <audioClip clipAutoCrossfade="true" crossFadeHeadClipID="-1" crossFadeTailClipID="-1" endPoint="992757" fileID="102" hue="-1" id="7" lockedInTime="false" looped="false" name="Jodee_100" offline="false" select="false" sourceInPoint="254399" sourceOutPoint="368223" startPoint="878933" zOrder="2145915026">
          <component componentGuid="4e04f3f9-2588-4c65-b706-40bb252bed84" componentID="Audition.Fader" id="clipGain" name="volume" powered="true">
            <parameter index="0" name="volume" parameterValue="1.357537"/>
            <parameter index="1" name="static gain" parameterValue="1"/>
          </component>
          <component componentGuid="f9e1e171-2463-48a3-97bb-c1301377ff0e" componentID="Audition.Mute" id="clipMute" name="Mute" powered="true">
            <parameter index="0" parameterValue="0"/>
            <parameter index="1" name="mute" parameterValue="0"/>
          </component>
          <component componentGuid="51870218-5c6c-4bc1-add6-f49315ac127f" componentID="Audition.StereoPanner" id="clipPan" name="StereoPanner" powered="true">
            <parameter index="0" name="Pan" parameterValue="0"/>
          </component>
          <fadeIn crossFadeLinkType="linkedAsymmetric" endPoint="30528" shape="19" startPoint="0" type="log"/>
          <fadeOut crossFadeLinkType="linkedAsymmetric" endPoint="113824" shape="0" startPoint="98295" type="log"/>
          <take sourceInPoint="0"/>
          <editParameter parameterIndex="0" slotIndex="4294967281"/>
          <editParameter parameterIndex="0" slotIndex="4294967280"/>
          <channelMap>
            <channel index="0" sourceIndex="0"/>
          </channelMap>
        </audioClip>
        <audioClip clipAutoCrossfade="true" crossFadeHeadClipID="-1" crossFadeTailClipID="-1" endPoint="1109752" fileID="102" hue="-1" id="8" lockedInTime="false" looped="false" name="Jodee_100" offline="false" select="false" sourceInPoint="412679" sourceOutPoint="489217" startPoint="1033214" zOrder="2145915028">
          <component componentGuid="3c6c5eaa-74b0-4cc3-b59c-34e6bee4172d" componentID="Audition.Fader" id="clipGain" name="volume" powered="true">
            <parameter index="0" name="volume" parameterValue="1.3066444"/>
            <parameter index="1" name="static gain" parameterValue="1"/>
          </component>
          <component componentGuid="5e4c8475-a845-4311-b320-2aa44af23eeb" componentID="Audition.Mute" id="clipMute" name="Mute" powered="true">
            <parameter index="0" parameterValue="0"/>
            <parameter index="1" name="mute" parameterValue="0"/>
          </component>
          <component componentGuid="b9c33608-478c-466f-a77a-0df8b65c629a" componentID="Audition.StereoPanner" id="clipPan" name="StereoPanner" powered="true">
            <parameter index="0" name="Pan" parameterValue="0"/>
          </component>
          <fadeIn crossFadeLinkType="linkedAsymmetric" endPoint="13568" shape="19" startPoint="0" type="log"/>
          <fadeOut crossFadeLinkType="linkedAsymmetric" endPoint="76538" shape="5" startPoint="58321" type="log"/>
          <editParameter parameterIndex="0" slotIndex="4294967281"/>
          <editParameter parameterIndex="0" slotIndex="4294967280"/>
          <channelMap>
            <channel index="0" sourceIndex="0"/>
          </channelMap>
        </audioClip>
        <audioClip clipAutoCrossfade="true" crossFadeHeadClipID="-1" crossFadeTailClipID="-1" endPoint="1233026" fileID="16" hue="-1" id="9" lockedInTime="false" looped="false" name="Track 3_013" offline="false" select="false" sourceInPoint="285928" sourceOutPoint="323178" startPoint="1195776" zOrder="2145913201">
          <component componentGuid="5d71b3dd-47e5-4ce1-b6d2-04cdbd0a8fae" componentID="Audition.Fader" id="clipGain" name="volume" powered="true">
            <parameter index="0" name="volume" parameterValue="1"/>
            <parameter index="1" name="static gain" parameterValue="1"/>
          </component>
          <component componentGuid="15dc8ea2-ab8b-4df3-a284-c08eded8cccd" componentID="Audition.Mute" id="clipMute" name="Mute" powered="true">
            <parameter index="0" parameterValue="0"/>
            <parameter index="1" name="mute" parameterValue="0"/>
          </component>
          <component componentGuid="d891b401-5198-435f-ac89-db43abc45d1b" componentID="Audition.StereoPanner" id="clipPan" name="StereoPanner" powered="true">
            <parameter index="0" name="Pan" parameterValue="0"/>
          </component>
          <fadeIn crossFadeLinkType="linkedAsymmetric" endPoint="7013" shape="19" startPoint="0" type="log"/>
          <fadeOut crossFadeLinkType="linkedAsymmetric" endPoint="37250" shape="19" startPoint="37250" type="log"/>
          <clipStretch adaptiveWindowSize="37" pitchAdjustment="0" preserveFormants="true" stretchMode="realtime" stretchQuality="high" stretchRatio="0.811741375928872" stretchType="solo" transientSensitivity="40"/>
          <editParameter parameterIndex="0" slotIndex="4294967281"/>
          <editParameter parameterIndex="0" slotIndex="4294967280"/>
          <channelMap>
            <channel index="0" sourceIndex="0"/>
          </channelMap>
        </audioClip>
        <audioClip clipAutoCrossfade="true" crossFadeHeadClipID="-1" crossFadeTailClipID="-1" endPoint="1349059" fileID="103" hue="-1" id="10" lockedInTime="false" looped="false" name="Jodee_104" offline="false" select="false" sourceInPoint="9934" sourceOutPoint="125967" startPoint="1233026" zOrder="2145913217">
          <component componentGuid="1ca3eded-5303-4b5c-9bc5-0bec9b306a95" componentID="Audition.Fader" id="clipGain" name="volume" powered="true">
            <parameter index="0" name="volume" parameterValue="0.6136222">
              <parameterKeyframes enableSplines="false">
                <parameterKeyframe sampleOffset="12183" select="false" type="linear" value="0.5223382"/>
                <parameterKeyframe sampleOffset="32206" select="true" type="linear" value="0.8856782"/>
              </parameterKeyframes>
            </parameter>
            <parameter index="1" name="static gain" parameterValue="1"/>
          </component>
          <component componentGuid="34394ba1-2ace-43ae-be4b-9b1ade12ed0e" componentID="Audition.Mute" id="clipMute" name="Mute" powered="true">
            <parameter index="0" parameterValue="0"/>
            <parameter index="1" name="mute" parameterValue="0"/>
          </component>
          <component componentGuid="d28a10fa-ec1e-4a85-9828-2fb3122262ad" componentID="Audition.StereoPanner" id="clipPan" name="StereoPanner" powered="true">
            <parameter index="0" name="Pan" parameterValue="0"/>
          </component>
          <fadeIn crossFadeLinkType="linkedAsymmetric" endPoint="14048" shape="25" startPoint="0" type="log"/>
          <fadeOut crossFadeLinkType="linkedAsymmetric" endPoint="116033" shape="0" startPoint="116033" type="cosine"/>
          <take sourceInPoint="0"/>
          <editParameter parameterIndex="0" slotIndex="4294967281"/>
          <editParameter parameterIndex="0" slotIndex="4294967280"/>
          <channelMap>
            <channel index="0" sourceIndex="0"/>
          </channelMap>
        </audioClip>
        <audioClip clipAutoCrossfade="true" crossFadeHeadClipID="-1" crossFadeTailClipID="-1" endPoint="1448447" fileID="103" hue="-1" id="11" lockedInTime="false" looped="false" name="Jodee_104" offline="false" select="false" sourceInPoint="136809" sourceOutPoint="236197" startPoint="1349059" zOrder="2145913214">
          <component componentGuid="2c733a2a-c736-49d9-a3cb-fe8bd6a76369" componentID="Audition.Fader" id="clipGain" name="volume" powered="true">
            <parameter index="0" name="volume" parameterValue="2.5160441"/>
            <parameter index="1" name="static gain" parameterValue="1"/>
          </component>
          <component componentGuid="9267f7a3-6cf7-4fd1-96a9-950878872f37" componentID="Audition.Mute" id="clipMute" name="Mute" powered="true">
            <parameter index="0" parameterValue="0"/>
            <parameter index="1" name="mute" parameterValue="0"/>
          </component>
          <component componentGuid="2aeb165b-90a5-477e-aee4-ab06a9b55c9b" componentID="Audition.StereoPanner" id="clipPan" name="StereoPanner" powered="true">
            <parameter index="0" name="Pan" parameterValue="0"/>
          </component>
          <fadeIn crossFadeLinkType="linkedAsymmetric" endPoint="0" shape="0" startPoint="0" type="cosine"/>
          <fadeOut crossFadeLinkType="linkedAsymmetric" endPoint="99388" shape="37" startPoint="77194" type="log"/>
          <editParameter parameterIndex="0" slotIndex="4294967281"/>
          <editParameter parameterIndex="0" slotIndex="4294967280"/>
          <channelMap>
            <channel index="0" sourceIndex="0"/>
          </channelMap>
        </audioClip>
        <audioClip clipAutoCrossfade="true" crossFadeHeadClipID="-1" crossFadeTailClipID="-1" endPoint="1603403" fileID="103" hue="-1" id="12" lockedInTime="false" looped="false" name="Jodee_104" offline="false" select="false" sourceInPoint="281187" sourceOutPoint="384994" startPoint="1499596" zOrder="2145913225">
          <component componentGuid="2b2762fc-f505-45b5-b85a-f94cfc92038f" componentID="Audition.Fader" id="clipGain" name="volume" powered="true">
            <parameter index="0" name="volume" parameterValue="2.3222606"/>
            <parameter index="1" name="static gain" parameterValue="1"/>
          </component>
          <component componentGuid="82f82f72-f116-4be6-ae28-df0e98f56ff2" componentID="Audition.Mute" id="clipMute" name="Mute" powered="true">
            <parameter index="0" parameterValue="0"/>
            <parameter index="1" name="mute" parameterValue="0"/>
          </component>
          <component componentGuid="da99ff84-65ef-48c4-ab8e-0e1eac8c7ae5" componentID="Audition.StereoPanner" id="clipPan" name="StereoPanner" powered="true">
            <parameter index="0" name="Pan" parameterValue="0"/>
          </component>
          <fadeIn crossFadeLinkType="linkedAsymmetric" endPoint="22358" shape="19" startPoint="0" type="log"/>
          <fadeOut crossFadeLinkType="linkedAsymmetric" endPoint="103807" shape="0" startPoint="103807" type="cosine"/>
          <editParameter parameterIndex="0" slotIndex="4294967281"/>
          <editParameter parameterIndex="0" slotIndex="4294967280"/>
          <channelMap>
            <channel index="0" sourceIndex="0"/>
          </channelMap>
        </audioClip>
        <audioClip clipAutoCrossfade="true" crossFadeHeadClipID="-1" crossFadeTailClipID="-1" endPoint="1645370" fileID="104" hue="-1" id="13" lockedInTime="false" looped="false" name="Jodee_101" offline="false" select="false" sourceInPoint="450696" sourceOutPoint="492663" startPoint="1603403" zOrder="2145913222">
          <component componentGuid="b873ccec-3906-40db-ac13-bcef707a7815" componentID="Audition.Fader" id="clipGain" name="volume" powered="true">
            <parameter index="0" name="volume" parameterValue="2.1493545"/>
            <parameter index="1" name="static gain" parameterValue="1"/>
          </component>
          <component componentGuid="9d02d724-060a-4eb7-ae1b-d396efe20400" componentID="Audition.Mute" id="clipMute" name="Mute" powered="true">
            <parameter index="0" parameterValue="0"/>
            <parameter index="1" name="mute" parameterValue="0"/>
          </component>
          <component componentGuid="5f2e72ac-bd10-4492-bfb6-8e6f1bc328c4" componentID="Audition.StereoPanner" id="clipPan" name="StereoPanner" powered="true">
            <parameter index="0" name="Pan" parameterValue="0"/>
          </component>
          <fadeIn crossFadeLinkType="linkedAsymmetric" endPoint="0" shape="0" startPoint="0" type="cosine"/>
          <fadeOut crossFadeLinkType="linkedAsymmetric" endPoint="41967" shape="27" startPoint="30208" type="log"/>
          <editParameter parameterIndex="0" slotIndex="4294967281"/>
          <editParameter parameterIndex="0" slotIndex="4294967280"/>
          <channelMap>
            <channel index="0" sourceIndex="0"/>
          </channelMap>
        </audioClip>
        <audioClip clipAutoCrossfade="true" crossFadeHeadClipID="-1" crossFadeTailClipID="-1" endPoint="1738769" fileID="16" hue="-1" id="14" lockedInTime="false" looped="false" name="Track 3_013" offline="false" select="false" sourceInPoint="285928" sourceOutPoint="323178" startPoint="1701519" zOrder="2145913244">
          <component componentGuid="3bd56a61-6b41-4069-8747-2a4f66907b19" componentID="Audition.Fader" id="clipGain" name="volume" powered="true">
            <parameter index="0" name="volume" parameterValue="1"/>
            <parameter index="1" name="static gain" parameterValue="1"/>
          </component>
          <component componentGuid="8ee4d8e7-efb2-4f38-955f-c878f85f7ddd" componentID="Audition.Mute" id="clipMute" name="Mute" powered="true">
            <parameter index="0" parameterValue="0"/>
            <parameter index="1" name="mute" parameterValue="0"/>
          </component>
          <component componentGuid="eeebef9f-5542-4cd7-a940-73d4ab4222b8" componentID="Audition.StereoPanner" id="clipPan" name="StereoPanner" powered="true">
            <parameter index="0" name="Pan" parameterValue="0"/>
          </component>
          <fadeIn crossFadeLinkType="linkedAsymmetric" endPoint="7013" shape="19" startPoint="0" type="log"/>
          <fadeOut crossFadeLinkType="linkedAsymmetric" endPoint="37250" shape="19" startPoint="37250" type="log"/>
          <clipStretch adaptiveWindowSize="37" pitchAdjustment="0" preserveFormants="true" stretchMode="realtime" stretchQuality="high" stretchRatio="0.811741375928872" stretchType="solo" transientSensitivity="40"/>
          <editParameter parameterIndex="0" slotIndex="4294967281"/>
          <editParameter parameterIndex="0" slotIndex="4294967280"/>
          <channelMap>
            <channel index="0" sourceIndex="0"/>
          </channelMap>
        </audioClip>
        <audioClip clipAutoCrossfade="true" crossFadeHeadClipID="-1" crossFadeTailClipID="16" endPoint="1873663" fileID="105" hue="-1" id="15" lockedInTime="false" looped="false" name="Jodee_105" offline="false" select="false" sourceInPoint="623417" sourceOutPoint="758311" startPoint="1738769" zOrder="2145913264">
          <component componentGuid="efa76883-9a74-4ed7-9430-7e690dd65541" componentID="Audition.Fader" id="clipGain" name="volume" powered="true">
            <parameter index="0" name="volume" parameterValue="1.8552614"/>
            <parameter index="1" name="static gain" parameterValue="1"/>
          </component>
          <component componentGuid="eae4d3a1-2c64-4c75-be25-88f1739bd793" componentID="Audition.Mute" id="clipMute" name="Mute" powered="true">
            <parameter index="0" parameterValue="0"/>
            <parameter index="1" name="mute" parameterValue="0"/>
          </component>
          <component componentGuid="6c6fdeb7-8df2-4720-9ff0-3366604d65e1" componentID="Audition.StereoPanner" id="clipPan" name="StereoPanner" powered="true">
            <parameter index="0" name="Pan" parameterValue="0"/>
          </component>
          <fadeIn crossFadeLinkType="linkedAsymmetric" endPoint="15051" shape="19" startPoint="0" type="log"/>
          <fadeOut crossFadeLinkType="linkedAsymmetric" endPoint="134894" shape="18" startPoint="134392" type="log"/>
          <editParameter parameterIndex="0" slotIndex="4294967281"/>
          <editParameter parameterIndex="0" slotIndex="4294967280"/>
          <channelMap>
            <channel index="0" sourceIndex="0"/>
          </channelMap>
        </audioClip>
        <audioClip clipAutoCrossfade="true" crossFadeHeadClipID="15" crossFadeTailClipID="-1" endPoint="1927831" fileID="105" hue="-1" id="16" lockedInTime="false" looped="false" name="Jodee_105" offline="false" select="false" sourceInPoint="194074" sourceOutPoint="248744" startPoint="1873161" zOrder="2145913263">
          <component componentGuid="37acc686-76c9-4e95-b8ea-f51f822ffc0d" componentID="Audition.Fader" id="clipGain" name="volume" powered="true">
            <parameter index="0" name="volume" parameterValue="1.9944839"/>
            <parameter index="1" name="static gain" parameterValue="1"/>
          </component>
          <component componentGuid="05092b47-1169-4a79-b470-4ede0dbad47a" componentID="Audition.Mute" id="clipMute" name="Mute" powered="true">
            <parameter index="0" parameterValue="0"/>
            <parameter index="1" name="mute" parameterValue="0"/>
          </component>
          <component componentGuid="506acfc7-cccc-44a7-a77d-6d9d765d82f5" componentID="Audition.StereoPanner" id="clipPan" name="StereoPanner" powered="true">
            <parameter index="0" name="Pan" parameterValue="0"/>
          </component>
          <fadeIn crossFadeLinkType="linkedAsymmetric" endPoint="502" shape="19" startPoint="0" type="log"/>
          <fadeOut crossFadeLinkType="linkedAsymmetric" endPoint="54670" shape="13" startPoint="44686" type="log"/>
          <editParameter parameterIndex="0" slotIndex="4294967281"/>
          <editParameter parameterIndex="0" slotIndex="4294967280"/>
          <channelMap>
            <channel index="0" sourceIndex="0"/>
          </channelMap>
        </audioClip>
        <audioClip clipAutoCrossfade="true" crossFadeHeadClipID="-1" crossFadeTailClipID="-1" endPoint="2146684" fileID="106" hue="-1" id="17" lockedInTime="false" looped="false" name="Jodee_105" offline="false" select="false" sourceInPoint="368185" sourceOutPoint="522365" startPoint="1992504" zOrder="2145913268">
          <component componentGuid="4c853351-10d3-4740-8b90-9a9373f7069f" componentID="Audition.Fader" id="clipGain" name="volume" powered="true">
            <parameter index="0" name="volume" parameterValue="2.5160527"/>
            <parameter index="1" name="static gain" parameterValue="1"/>
          </component>
          <component componentGuid="fc9ce0f9-17be-468f-a060-198dfff221cc" componentID="Audition.Mute" id="clipMute" name="Mute" powered="true">
            <parameter index="0" parameterValue="0"/>
            <parameter index="1" name="mute" parameterValue="0"/>
          </component>
          <component componentGuid="46da57da-ff21-4ac2-9492-d3bb729d936f" componentID="Audition.StereoPanner" id="clipPan" name="StereoPanner" powered="true">
            <parameter index="0" name="Pan" parameterValue="0"/>
          </component>
          <fadeIn crossFadeLinkType="linkedAsymmetric" endPoint="29733" shape="14" startPoint="0" type="log"/>
          <fadeOut crossFadeLinkType="linkedAsymmetric" endPoint="154180" shape="5" startPoint="138531" type="log"/>
          <editParameter parameterIndex="0" slotIndex="4294967281"/>
          <editParameter parameterIndex="0" slotIndex="4294967280"/>
          <channelMap>
            <channel index="0" sourceIndex="0"/>
          </channelMap>
        </audioClip>
        <audioClip clipAutoCrossfade="true" crossFadeHeadClipID="-1" crossFadeTailClipID="-1" endPoint="2246692" fileID="16" hue="-1" id="18" lockedInTime="false" looped="false" name="Track 3_013" offline="false" select="false" sourceInPoint="285928" sourceOutPoint="323178" startPoint="2209442" zOrder="2145913270">
          <component componentGuid="1f36887e-196a-469f-9069-7d4b13573a0c" componentID="Audition.Fader" id="clipGain" name="volume" powered="true">
            <parameter index="0" name="volume" parameterValue="1"/>
            <parameter index="1" name="static gain" parameterValue="1"/>
          </component>
          <component componentGuid="1bff1d29-d0df-47c4-bac1-df880b33cba6" componentID="Audition.Mute" id="clipMute" name="Mute" powered="true">
            <parameter index="0" parameterValue="0"/>
            <parameter index="1" name="mute" parameterValue="0"/>
          </component>
          <component componentGuid="bd28135e-1f54-4952-88dd-02ec90e53dd3" componentID="Audition.StereoPanner" id="clipPan" name="StereoPanner" powered="true">
            <parameter index="0" name="Pan" parameterValue="0"/>
          </component>
          <fadeIn crossFadeLinkType="linkedAsymmetric" endPoint="7013" shape="19" startPoint="0" type="log"/>
          <fadeOut crossFadeLinkType="linkedAsymmetric" endPoint="37250" shape="0" startPoint="37250" type="cosine"/>
          <clipStretch adaptiveWindowSize="37" pitchAdjustment="0" preserveFormants="true" stretchMode="realtime" stretchQuality="high" stretchRatio="0.811741375928872" stretchType="solo" transientSensitivity="40"/>
          <editParameter parameterIndex="0" slotIndex="4294967281"/>
          <editParameter parameterIndex="0" slotIndex="4294967280"/>
          <channelMap>
            <channel index="0" sourceIndex="0"/>
          </channelMap>
        </audioClip>
        <audioClip clipAutoCrossfade="true" crossFadeHeadClipID="-1" crossFadeTailClipID="-1" endPoint="2411528" fileID="107" hue="-1" id="19" lockedInTime="false" looped="false" name="Jodee_110" offline="false" select="false" sourceInPoint="0" sourceOutPoint="164836" startPoint="2246692" zOrder="2145913276">
          <component componentGuid="e967189a-2879-4486-81ed-c3f17d50bb42" componentID="Audition.Fader" id="clipGain" name="volume" powered="true">
            <parameter index="0" name="volume" parameterValue="1">
              <parameterKeyframes enableSplines="false">
                <parameterKeyframe sampleOffset="0" select="false" type="linear" value="0.65"/>
                <parameterKeyframe sampleOffset="28160" select="true" type="linear" value="0.8253845"/>
              </parameterKeyframes>
            </parameter>
            <parameter index="1" name="static gain" parameterValue="1"/>
          </component>
          <component componentGuid="1c84f411-cbf1-425d-956c-299bbef51bd2" componentID="Audition.Mute" id="clipMute" name="Mute" powered="true">
            <parameter index="0" parameterValue="0"/>
            <parameter index="1" name="mute" parameterValue="0"/>
          </component>
          <component componentGuid="2e4bc6a5-eeb0-4c92-9d7f-a2cb3919e8cd" componentID="Audition.StereoPanner" id="clipPan" name="StereoPanner" powered="true">
            <parameter index="0" name="Pan" parameterValue="0"/>
          </component>
          <fadeIn crossFadeLinkType="linkedAsymmetric" endPoint="0" shape="19" startPoint="0" type="log"/>
          <fadeOut crossFadeLinkType="linkedAsymmetric" endPoint="164836" shape="18" startPoint="164836" type="log"/>
          <take sourceInPoint="0"/>
          <editParameter parameterIndex="0" slotIndex="4294967281"/>
          <editParameter parameterIndex="0" slotIndex="4294967280"/>
          <channelMap>
            <channel index="0" sourceIndex="0"/>
          </channelMap>
        </audioClip>
        <audioClip clipAutoCrossfade="true" crossFadeHeadClipID="-1" crossFadeTailClipID="-1" endPoint="2505344" fileID="107" hue="-1" id="20" lockedInTime="false" looped="false" name="Jodee_110" offline="false" select="false" sourceInPoint="178504" sourceOutPoint="272320" startPoint="2411528" zOrder="2145913275">
          <component componentGuid="657fef1a-b4d4-455a-902f-2f8fbae9f548" componentID="Audition.Fader" id="clipGain" name="volume" powered="true">
            <parameter index="0" name="volume" parameterValue="2.0185306"/>
            <parameter index="1" name="static gain" parameterValue="1"/>
          </component>
          <component componentGuid="5d54d367-c2ff-433e-b7ca-76943434fb69" componentID="Audition.Mute" id="clipMute" name="Mute" powered="true">
            <parameter index="0" parameterValue="0"/>
            <parameter index="1" name="mute" parameterValue="0"/>
          </component>
          <component componentGuid="80ce97ae-7d11-4f42-a3fc-1e7bd9cbeefc" componentID="Audition.StereoPanner" id="clipPan" name="StereoPanner" powered="true">
            <parameter index="0" name="Pan" parameterValue="0"/>
          </component>
          <fadeIn crossFadeLinkType="linkedAsymmetric" endPoint="0" shape="0" startPoint="0" type="cosine"/>
          <fadeOut crossFadeLinkType="linkedAsymmetric" endPoint="93816" shape="10" startPoint="60056" type="log"/>
          <editParameter parameterIndex="0" slotIndex="4294967281"/>
          <editParameter parameterIndex="0" slotIndex="4294967280"/>
          <channelMap>
            <channel index="0" sourceIndex="0"/>
          </channelMap>
        </audioClip>
        <audioClip clipAutoCrossfade="true" crossFadeHeadClipID="-1" crossFadeTailClipID="-1" endPoint="2657257" fileID="108" hue="-1" id="21" lockedInTime="false" looped="false" name="Jodee_108" offline="false" select="false" sourceInPoint="277343" sourceOutPoint="371774" startPoint="2562826" zOrder="2145913281">
          <component componentGuid="5e79f9ee-12c2-4e1a-a5b5-7b2d99b48738" componentID="Audition.Fader" id="clipGain" name="volume" powered="true">
            <parameter index="0" name="volume" parameterValue="2.0185306"/>
            <parameter index="1" name="static gain" parameterValue="1"/>
          </component>
          <component componentGuid="e235657b-3813-44a4-88e9-a8e8929691c2" componentID="Audition.Mute" id="clipMute" name="Mute" powered="true">
            <parameter index="0" parameterValue="0"/>
            <parameter index="1" name="mute" parameterValue="0"/>
          </component>
          <component componentGuid="1c0498a3-32ce-490b-a32e-28f333072304" componentID="Audition.StereoPanner" id="clipPan" name="StereoPanner" powered="true">
            <parameter index="0" name="Pan" parameterValue="0"/>
          </component>
          <fadeIn crossFadeLinkType="linkedAsymmetric" endPoint="19596" shape="14" startPoint="0" type="log"/>
          <fadeOut crossFadeLinkType="linkedAsymmetric" endPoint="94431" shape="18" startPoint="94431" type="log"/>
          <editParameter parameterIndex="0" slotIndex="4294967281"/>
          <editParameter parameterIndex="0" slotIndex="4294967280"/>
          <channelMap>
            <channel index="0" sourceIndex="0"/>
          </channelMap>
        </audioClip>
        <audioClip clipAutoCrossfade="true" crossFadeHeadClipID="-1" crossFadeTailClipID="-1" endPoint="2714058" fileID="109" hue="-1" id="22" lockedInTime="false" looped="false" name="Jodee_109" offline="false" select="false" sourceInPoint="421570" sourceOutPoint="478371" startPoint="2657257" zOrder="2145913280">
          <component componentGuid="8177280e-ed42-41a9-b31b-41cef1928ce0" componentID="Audition.Fader" id="clipGain" name="volume" powered="true">
            <parameter index="0" name="volume" parameterValue="2.0185306"/>
            <parameter index="1" name="static gain" parameterValue="1"/>
          </component>
          <component componentGuid="00c8b8fc-06e0-435b-9f1f-cd1718b6c820" componentID="Audition.Mute" id="clipMute" name="Mute" powered="true">
            <parameter index="0" parameterValue="0"/>
            <parameter index="1" name="mute" parameterValue="0"/>
          </component>
          <component componentGuid="bfd1b1c7-6a4b-43b4-abd0-bf535359fa11" componentID="Audition.StereoPanner" id="clipPan" name="StereoPanner" powered="true">
            <parameter index="0" name="Pan" parameterValue="0"/>
          </component>
          <fadeIn crossFadeLinkType="linkedAsymmetric" endPoint="0" shape="0" startPoint="0" type="cosine"/>
          <fadeOut crossFadeLinkType="linkedAsymmetric" endPoint="56801" shape="5" startPoint="38676" type="log"/>
          <editParameter parameterIndex="0" slotIndex="4294967281"/>
          <editParameter parameterIndex="0" slotIndex="4294967280"/>
          <channelMap>
            <channel index="0" sourceIndex="0"/>
          </channelMap>
        </audioClip>
        <audioClip clipAutoCrossfade="true" crossFadeHeadClipID="-1" crossFadeTailClipID="-1" endPoint="2822400" fileID="16" hue="-1" id="23" lockedInTime="false" looped="false" name="Track 3_013" offline="false" select="false" sourceInPoint="285928" sourceOutPoint="323178" startPoint="2785150" zOrder="2145914085">
          <component componentGuid="9b263254-a32f-4eca-81c4-fc5e2f91454d" componentID="Audition.Fader" id="clipGain" name="volume" powered="true">
            <parameter index="0" name="volume" parameterValue="1"/>
            <parameter index="1" name="static gain" parameterValue="1"/>
          </component>
          <component componentGuid="67f869f0-2cfa-45e9-ac7a-845b5bfd2fb4" componentID="Audition.Mute" id="clipMute" name="Mute" powered="true">
            <parameter index="0" parameterValue="0"/>
            <parameter index="1" name="mute" parameterValue="0"/>
          </component>
          <component componentGuid="3c755e07-b9b3-445b-800a-bf5c77be1a0d" componentID="Audition.StereoPanner" id="clipPan" name="StereoPanner" powered="true">
            <parameter index="0" name="Pan" parameterValue="0"/>
          </component>
          <fadeIn crossFadeLinkType="linkedAsymmetric" endPoint="7013" shape="19" startPoint="0" type="log"/>
          <fadeOut crossFadeLinkType="linkedAsymmetric" endPoint="37250" shape="0" startPoint="37250" type="cosine"/>
          <clipStretch adaptiveWindowSize="37" pitchAdjustment="0" preserveFormants="true" stretchMode="realtime" stretchQuality="high" stretchRatio="0.811741375928872" stretchType="solo" transientSensitivity="40"/>
          <editParameter parameterIndex="0" slotIndex="4294967281"/>
          <editParameter parameterIndex="0" slotIndex="4294967280"/>
          <channelMap>
            <channel index="0" sourceIndex="0"/>
          </channelMap>
        </audioClip>
        <audioClip clipAutoCrossfade="true" crossFadeHeadClipID="-1" crossFadeTailClipID="25" endPoint="2969329" fileID="110" hue="-1" id="24" lockedInTime="false" looped="false" name="Jodee_112" offline="false" select="false" sourceInPoint="274796" sourceOutPoint="421574" startPoint="2822551" zOrder="2145914090">
          <component componentGuid="20850a65-86ea-48ef-867e-293e02b1a0df" componentID="Audition.Fader" id="clipGain" name="volume" powered="true">
            <parameter index="0" name="volume" parameterValue="0.2743677">
              <parameterKeyframes enableSplines="false">
                <parameterKeyframe sampleOffset="271639" select="false" type="linear" value="0.3642857"/>
                <parameterKeyframe sampleOffset="273884" select="false" type="linear" value="0.65"/>
                <parameterKeyframe sampleOffset="295290" select="true" type="linear" value="0.8253843"/>
              </parameterKeyframes>
            </parameter>
            <parameter index="1" name="static gain" parameterValue="1"/>
          </component>
          <component componentGuid="f074f003-0d34-47c1-af59-4baf8788de32" componentID="Audition.Mute" id="clipMute" name="Mute" powered="true">
            <parameter index="0" parameterValue="0"/>
            <parameter index="1" name="mute" parameterValue="0"/>
          </component>
          <component componentGuid="5a176a12-f5d9-441d-953b-a71bd2c3634a" componentID="Audition.StereoPanner" id="clipPan" name="StereoPanner" powered="true">
            <parameter index="0" name="Pan" parameterValue="0"/>
          </component>
          <fadeIn crossFadeLinkType="linkedAsymmetric" endPoint="0" shape="18" startPoint="0" type="log"/>
          <fadeOut crossFadeLinkType="linkedAsymmetric" endPoint="146778" shape="18" startPoint="140123" type="log"/>
          <editParameter parameterIndex="0" slotIndex="4294967281"/>
          <editParameter parameterIndex="0" slotIndex="4294967280"/>
          <channelMap>
            <channel index="0" sourceIndex="0"/>
          </channelMap>
        </audioClip>
        <audioClip clipAutoCrossfade="true" crossFadeHeadClipID="24" crossFadeTailClipID="-1" endPoint="3052821" fileID="111" hue="-1" id="25" lockedInTime="false" looped="false" name="Jodee_115" offline="false" select="false" sourceInPoint="206750" sourceOutPoint="296897" startPoint="2962674" zOrder="2145914097">
          <component componentGuid="13a7ddc9-4c21-416b-ac39-01a187139bbb" componentID="Audition.Fader" id="clipGain" name="volume" powered="true">
            <parameter index="0" name="volume" parameterValue="2.0185306"/>
            <parameter index="1" name="static gain" parameterValue="1"/>
          </component>
          <component componentGuid="c82a13c3-d37b-4c09-aa66-ec2b9aaa4d39" componentID="Audition.Mute" id="clipMute" name="Mute" powered="true">
            <parameter index="0" parameterValue="0"/>
            <parameter index="1" name="mute" parameterValue="0"/>
          </component>
          <component componentGuid="7706b20d-65be-4381-9698-994fb58c25ce" componentID="Audition.StereoPanner" id="clipPan" name="StereoPanner" powered="true">
            <parameter index="0" name="Pan" parameterValue="0"/>
          </component>
          <fadeIn crossFadeLinkType="linkedAsymmetric" endPoint="6655" shape="19" startPoint="0" type="log"/>
          <fadeOut crossFadeLinkType="linkedAsymmetric" endPoint="90147" shape="9" startPoint="74845" type="log"/>
          <take sourceInPoint="0"/>
          <editParameter parameterIndex="0" slotIndex="4294967281"/>
          <editParameter parameterIndex="0" slotIndex="4294967280"/>
          <channelMap>
            <channel index="0" sourceIndex="0"/>
          </channelMap>
        </audioClip>
        <audioClip clipAutoCrossfade="true" crossFadeHeadClipID="-1" crossFadeTailClipID="-1" endPoint="3327599" fileID="112" hue="-1" id="26" lockedInTime="false" looped="false" name="Jodee_111" offline="false" select="false" sourceInPoint="286060" sourceOutPoint="504652" startPoint="3109007" zOrder="2145914098">
          <component componentGuid="596bd902-be5c-4112-a26e-9eb9a2503983" componentID="Audition.Fader" id="clipGain" name="volume" powered="true">
            <parameter index="0" name="volume" parameterValue="2.1090524"/>
            <parameter index="1" name="static gain" parameterValue="1"/>
          </component>
          <component componentGuid="5c0576dc-16fd-4201-87ea-0347a32c3c1d" componentID="Audition.Mute" id="clipMute" name="Mute" powered="true">
            <parameter index="0" parameterValue="0"/>
            <parameter index="1" name="mute" parameterValue="0"/>
          </component>
          <component componentGuid="e4bb8ced-4b6e-41b7-a316-4531b213957f" componentID="Audition.StereoPanner" id="clipPan" name="StereoPanner" powered="true">
            <parameter index="0" name="Pan" parameterValue="0"/>
          </component>
          <fadeIn crossFadeLinkType="linkedAsymmetric" endPoint="32224" shape="12" startPoint="0" type="log"/>
          <fadeOut crossFadeLinkType="linkedAsymmetric" endPoint="218592" shape="7" startPoint="184672" type="log"/>
          <editParameter parameterIndex="0" slotIndex="4294967281"/>
          <editParameter parameterIndex="0" slotIndex="4294967280"/>
          <channelMap>
            <channel index="0" sourceIndex="0"/>
          </channelMap>
        </audioClip>
        <audioClip clipAutoCrossfade="true" crossFadeHeadClipID="-1" crossFadeTailClipID="-1" endPoint="3420559" fileID="16" hue="-1" id="27" lockedInTime="false" looped="false" name="Track 3_013" offline="false" select="false" sourceInPoint="285928" sourceOutPoint="323178" startPoint="3383309" zOrder="2145914100">
          <component componentGuid="cf0c52c7-6bd7-4e6f-8ba3-252633ea43a3" componentID="Audition.Fader" id="clipGain" name="volume" powered="true">
            <parameter index="0" name="volume" parameterValue="1"/>
            <parameter index="1" name="static gain" parameterValue="1"/>
          </component>
          <component componentGuid="d48c6982-6d14-4d20-b503-2f6af2aa07e6" componentID="Audition.Mute" id="clipMute" name="Mute" powered="true">
            <parameter index="0" parameterValue="0"/>
            <parameter index="1" name="mute" parameterValue="0"/>
          </component>
          <component componentGuid="9bfa5e9a-5439-4443-9932-373439ae24d4" componentID="Audition.StereoPanner" id="clipPan" name="StereoPanner" powered="true">
            <parameter index="0" name="Pan" parameterValue="0"/>
          </component>
          <fadeIn crossFadeLinkType="linkedAsymmetric" endPoint="7013" shape="19" startPoint="0" type="log"/>
          <fadeOut crossFadeLinkType="linkedAsymmetric" endPoint="37250" shape="0" startPoint="37250" type="cosine"/>
          <clipStretch adaptiveWindowSize="37" pitchAdjustment="0" preserveFormants="true" stretchMode="realtime" stretchQuality="high" stretchRatio="0.811741375928872" stretchType="solo" transientSensitivity="40"/>
          <editParameter parameterIndex="0" slotIndex="4294967281"/>
          <editParameter parameterIndex="0" slotIndex="4294967280"/>
          <channelMap>
            <channel index="0" sourceIndex="0"/>
          </channelMap>
        </audioClip>
        <audioClip clipAutoCrossfade="true" crossFadeHeadClipID="-1" crossFadeTailClipID="-1" endPoint="3634986" fileID="113" hue="-1" id="28" lockedInTime="false" looped="false" name="Jodee_116" offline="false" select="false" sourceInPoint="37445" sourceOutPoint="251872" startPoint="3420559" zOrder="2145914112">
          <component componentGuid="81ba37be-48b5-41b1-8a2b-b4804c115a3c" componentID="Audition.Fader" id="clipGain" name="volume" powered="true">
            <parameter index="0" name="volume" parameterValue="0.2423217">
              <parameterKeyframes enableSplines="false">
                <parameterKeyframe sampleOffset="35880" select="false" type="linear" value="0.3445813"/>
                <parameterKeyframe sampleOffset="35881" select="true" type="linear" value="0.65"/>
                <parameterKeyframe sampleOffset="52869" select="false" type="linear" value="0.8309955"/>
              </parameterKeyframes>
            </parameter>
            <parameter index="1" name="static gain" parameterValue="1"/>
          </component>
          <component componentGuid="7b9456b0-5d78-4b28-bb32-7450ec015479" componentID="Audition.Mute" id="clipMute" name="Mute" powered="true">
            <parameter index="0" parameterValue="0"/>
            <parameter index="1" name="mute" parameterValue="0"/>
          </component>
          <component componentGuid="f505ac6b-6c77-4dd8-899d-5c52f64e2371" componentID="Audition.StereoPanner" id="clipPan" name="StereoPanner" powered="true">
            <parameter index="0" name="Pan" parameterValue="0"/>
          </component>
          <fadeIn crossFadeLinkType="linkedAsymmetric" endPoint="2320" shape="13" startPoint="0" type="log"/>
          <fadeOut crossFadeLinkType="linkedAsymmetric" endPoint="214427" shape="0" startPoint="191474" type="log"/>
          <take sourceInPoint="0"/>
          <editParameter parameterIndex="0" slotIndex="4294967281"/>
          <editParameter parameterIndex="0" slotIndex="4294967280"/>
          <channelMap>
            <channel index="0" sourceIndex="0"/>
          </channelMap>
        </audioClip>
        <audioClip clipAutoCrossfade="true" crossFadeHeadClipID="-1" crossFadeTailClipID="-1" endPoint="3702092" fileID="114" hue="-1" id="29" lockedInTime="false" looped="false" name="Jodee_118" offline="false" select="false" sourceInPoint="42022" sourceOutPoint="73306" startPoint="3670808" zOrder="2145914114">
          <component componentGuid="d611125d-7fc3-4942-bda3-d3152ea758ee" componentID="Audition.Fader" id="clipGain" name="volume" powered="true">
            <parameter index="0" name="volume" parameterValue="2.0728681"/>
            <parameter index="1" name="static gain" parameterValue="1"/>
          </component>
          <component componentGuid="9e430e8c-36b7-4bd4-8b94-fe338503abdc" componentID="Audition.Mute" id="clipMute" name="Mute" powered="true">
            <parameter index="0" parameterValue="0"/>
            <parameter index="1" name="mute" parameterValue="0"/>
          </component>
          <component componentGuid="5b03ef7b-c017-4567-982d-59c651fe9a0f" componentID="Audition.StereoPanner" id="clipPan" name="StereoPanner" powered="true">
            <parameter index="0" name="Pan" parameterValue="0"/>
          </component>
          <fadeIn crossFadeLinkType="linkedAsymmetric" endPoint="9048" shape="14" startPoint="0" type="log"/>
          <fadeOut crossFadeLinkType="linkedAsymmetric" endPoint="31284" shape="0" startPoint="31284" type="cosine"/>
          <take sourceInPoint="0"/>
          <editParameter parameterIndex="0" slotIndex="4294967281"/>
          <editParameter parameterIndex="0" slotIndex="4294967280"/>
          <channelMap>
            <channel index="0" sourceIndex="0"/>
          </channelMap>
        </audioClip>
        <audioClip clipAutoCrossfade="true" crossFadeHeadClipID="-1" crossFadeTailClipID="-1" endPoint="3762301" fileID="114" hue="-1" id="30" lockedInTime="false" looped="false" name="Jodee_118" offline="false" select="false" sourceInPoint="88794" sourceOutPoint="149003" startPoint="3702092" zOrder="2145914109">
          <component componentGuid="b8e8a1e9-90c4-4a5f-b46d-0e560b090ca7" componentID="Audition.Fader" id="clipGain" name="volume" powered="true">
            <parameter index="0" name="volume" parameterValue="2.1090519"/>
            <parameter index="1" name="static gain" parameterValue="1"/>
          </component>
          <component componentGuid="8f10d663-2528-4c8b-a265-23d89666a947" componentID="Audition.Mute" id="clipMute" name="Mute" powered="true">
            <parameter index="0" parameterValue="0"/>
            <parameter index="1" name="mute" parameterValue="0"/>
          </component>
          <component componentGuid="b5cf2444-71cb-4728-bae4-b8e52b719578" componentID="Audition.StereoPanner" id="clipPan" name="StereoPanner" powered="true">
            <parameter index="0" name="Pan" parameterValue="0"/>
          </component>
          <fadeIn crossFadeLinkType="linkedAsymmetric" endPoint="0" shape="0" startPoint="0" type="cosine"/>
          <fadeOut crossFadeLinkType="linkedAsymmetric" endPoint="60209" shape="0" startPoint="60209" type="cosine"/>
          <editParameter parameterIndex="0" slotIndex="4294967281"/>
          <editParameter parameterIndex="0" slotIndex="4294967280"/>
          <channelMap>
            <channel index="0" sourceIndex="0"/>
          </channelMap>
        </audioClip>
        <audioClip clipAutoCrossfade="true" crossFadeHeadClipID="-1" crossFadeTailClipID="-1" endPoint="3811550" fileID="115" hue="-1" id="31" lockedInTime="false" looped="false" name="Jodee_119" offline="false" select="false" sourceInPoint="33761" sourceOutPoint="83010" startPoint="3762301" zOrder="2145914115">
          <component componentGuid="e0fa0bfc-253b-4ba2-99c4-6adb33ceb553" componentID="Audition.Fader" id="clipGain" name="volume" powered="true">
            <parameter index="0" name="volume" parameterValue="2.1090534"/>
            <parameter index="1" name="static gain" parameterValue="1"/>
          </component>
          <component componentGuid="9f507514-fb30-4337-8922-806a11333bc2" componentID="Audition.Mute" id="clipMute" name="Mute" powered="true">
            <parameter index="0" parameterValue="0"/>
            <parameter index="1" name="mute" parameterValue="0"/>
          </component>
          <component componentGuid="f0c8ff89-2b8e-47ba-8dc5-d2ca65220dc7" componentID="Audition.StereoPanner" id="clipPan" name="StereoPanner" powered="true">
            <parameter index="0" name="Pan" parameterValue="0"/>
          </component>
          <fadeIn crossFadeLinkType="linkedAsymmetric" endPoint="0" shape="0" startPoint="0" type="cosine"/>
          <fadeOut crossFadeLinkType="linkedAsymmetric" endPoint="49249" shape="9" startPoint="38951" type="log"/>
          <take sourceInPoint="0"/>
          <editParameter parameterIndex="0" slotIndex="4294967281"/>
          <editParameter parameterIndex="0" slotIndex="4294967280"/>
          <channelMap>
            <channel index="0" sourceIndex="0"/>
          </channelMap>
        </audioClip>
        <audioClip clipAutoCrossfade="true" crossFadeHeadClipID="-1" crossFadeTailClipID="-1" endPoint="3880800" fileID="16" hue="-1" id="32" lockedInTime="false" looped="false" name="Track 3_013" offline="false" select="false" sourceInPoint="285928" sourceOutPoint="323178" startPoint="3843550" zOrder="2145914133">
          <component componentGuid="5c68a2af-e09e-4420-8428-fa4fd285b074" componentID="Audition.Fader" id="clipGain" name="volume" powered="true">
            <parameter index="0" name="volume" parameterValue="1"/>
            <parameter index="1" name="static gain" parameterValue="1"/>
          </component>
          <component componentGuid="29efb0d7-0636-4c22-ac34-b2937a501f41" componentID="Audition.Mute" id="clipMute" name="Mute" powered="true">
            <parameter index="0" parameterValue="0"/>
            <parameter index="1" name="mute" parameterValue="0"/>
          </component>
          <component componentGuid="661d00f8-c883-41f2-9ee0-17428753b041" componentID="Audition.StereoPanner" id="clipPan" name="StereoPanner" powered="true">
            <parameter index="0" name="Pan" parameterValue="0"/>
          </component>
          <fadeIn crossFadeLinkType="linkedAsymmetric" endPoint="7013" shape="19" startPoint="0" type="log"/>
          <fadeOut crossFadeLinkType="linkedAsymmetric" endPoint="37250" shape="19" startPoint="37250" type="log"/>
          <clipStretch adaptiveWindowSize="37" pitchAdjustment="0" preserveFormants="true" stretchMode="realtime" stretchQuality="high" stretchRatio="0.811741375928872" stretchType="solo" transientSensitivity="40"/>
          <editParameter parameterIndex="0" slotIndex="4294967281"/>
          <editParameter parameterIndex="0" slotIndex="4294967280"/>
          <channelMap>
            <channel index="0" sourceIndex="0"/>
          </channelMap>
        </audioClip>
        <audioClip clipAutoCrossfade="true" crossFadeHeadClipID="-1" crossFadeTailClipID="-1" endPoint="4047300" fileID="116" hue="-1" id="33" lockedInTime="false" looped="false" name="Jodee_121" offline="false" select="false" sourceInPoint="444153" sourceOutPoint="610653" startPoint="3880800" zOrder="2145914144">
          <component componentGuid="3081e8ea-bde4-47b9-acbf-6bf4706f02e6" componentID="Audition.Fader" id="clipGain" name="volume" powered="true">
            <parameter index="0" name="volume" parameterValue="0.2346525">
              <parameterKeyframes enableSplines="false">
                <parameterKeyframe sampleOffset="442821" select="false" type="linear" value="0.3396552"/>
                <parameterKeyframe sampleOffset="442822" select="false" type="linear" value="0.5753505"/>
                <parameterKeyframe sampleOffset="442823" select="false" type="linear" value="0.65"/>
                <parameterKeyframe sampleOffset="458382" select="false" type="linear" value="0.8418553"/>
              </parameterKeyframes>
            </parameter>
            <parameter index="1" name="static gain" parameterValue="1"/>
          </component>
          <component componentGuid="b2ddf1e2-6001-4419-bcee-ddd3d9d826fe" componentID="Audition.Mute" id="clipMute" name="Mute" powered="true">
            <parameter index="0" parameterValue="0"/>
            <parameter index="1" name="mute" parameterValue="0"/>
          </component>
          <component componentGuid="e31734e5-80c3-427b-a5e9-d0396840b475" componentID="Audition.StereoPanner" id="clipPan" name="StereoPanner" powered="true">
            <parameter index="0" name="Pan" parameterValue="0"/>
          </component>
          <fadeIn crossFadeLinkType="linkedAsymmetric" endPoint="0" shape="18" startPoint="0" type="log"/>
          <fadeOut crossFadeLinkType="linkedAsymmetric" endPoint="166500" shape="0" startPoint="156515" type="log"/>
          <editParameter parameterIndex="0" slotIndex="4294967281"/>
          <editParameter parameterIndex="0" slotIndex="4294967280"/>
          <channelMap>
            <channel index="0" sourceIndex="0"/>
          </channelMap>
        </audioClip>
        <audioClip clipAutoCrossfade="true" crossFadeHeadClipID="-1" crossFadeTailClipID="-1" endPoint="4257499" fileID="117" hue="-1" id="34" lockedInTime="false" looped="false" name="Jodee_120" offline="false" select="false" sourceInPoint="247276" sourceOutPoint="426841" startPoint="4077934" zOrder="2145914145">
          <component componentGuid="c4a408ce-4900-4849-be85-a7891df3ab81" componentID="Audition.Fader" id="clipGain" name="volume" powered="true">
            <parameter index="0" name="volume" parameterValue="2.2633278">
              <parameterKeyframes enableSplines="false">
                <parameterKeyframe sampleOffset="260721" select="false" type="linear" value="0.8490952"/>
                <parameterKeyframe sampleOffset="278258" select="true" type="linear" value="0.7115387"/>
                <parameterKeyframe sampleOffset="296879" select="false" type="linear" value="0.8418553"/>
              </parameterKeyframes>
            </parameter>
            <parameter index="1" name="static gain" parameterValue="1"/>
          </component>
          <component componentGuid="461e0240-8b32-4fc9-b44f-8fbf2ea5b8d4" componentID="Audition.Mute" id="clipMute" name="Mute" powered="true">
            <parameter index="0" parameterValue="0"/>
            <parameter index="1" name="mute" parameterValue="0"/>
          </component>
          <component componentGuid="7aa7efe7-2f0f-4220-ad40-d313e327df04" componentID="Audition.StereoPanner" id="clipPan" name="StereoPanner" powered="true">
            <parameter index="0" name="Pan" parameterValue="0"/>
          </component>
          <fadeIn crossFadeLinkType="linkedAsymmetric" endPoint="33920" shape="13" startPoint="0" type="log"/>
          <fadeOut crossFadeLinkType="linkedAsymmetric" endPoint="179565" shape="13" startPoint="150733" type="log"/>
          <editParameter parameterIndex="0" slotIndex="4294967281"/>
          <editParameter parameterIndex="0" slotIndex="4294967280"/>
          <channelMap>
            <channel index="0" sourceIndex="0"/>
          </channelMap>
        </audioClip>
        <audioClip clipAutoCrossfade="true" crossFadeHeadClipID="-1" crossFadeTailClipID="-1" endPoint="4342934" fileID="16" hue="-1" id="35" lockedInTime="false" looped="false" name="Track 3_013" offline="false" select="false" sourceInPoint="285928" sourceOutPoint="323178" startPoint="4305684" zOrder="2145914148">
          <component componentGuid="e5806b9a-3c9b-48ee-8152-05a2f2a5cbcc" componentID="Audition.Fader" id="clipGain" name="volume" powered="true">
            <parameter index="0" name="volume" parameterValue="1"/>
            <parameter index="1" name="static gain" parameterValue="1"/>
          </component>
          <component componentGuid="d07c68da-d841-48b6-9b16-5fb84aa52625" componentID="Audition.Mute" id="clipMute" name="Mute" powered="true">
            <parameter index="0" parameterValue="0"/>
            <parameter index="1" name="mute" parameterValue="0"/>
          </component>
          <component componentGuid="8ceac25f-014c-48ee-8f07-d4cfc38c245b" componentID="Audition.StereoPanner" id="clipPan" name="StereoPanner" powered="true">
            <parameter index="0" name="Pan" parameterValue="0"/>
          </component>
          <fadeIn crossFadeLinkType="linkedAsymmetric" endPoint="7013" shape="19" startPoint="0" type="log"/>
          <fadeOut crossFadeLinkType="linkedAsymmetric" endPoint="37250" shape="0" startPoint="37250" type="cosine"/>
          <clipStretch adaptiveWindowSize="37" pitchAdjustment="0" preserveFormants="true" stretchMode="realtime" stretchQuality="high" stretchRatio="0.811741375928872" stretchType="solo" transientSensitivity="40"/>
          <editParameter parameterIndex="0" slotIndex="4294967281"/>
          <editParameter parameterIndex="0" slotIndex="4294967280"/>
          <channelMap>
            <channel index="0" sourceIndex="0"/>
          </channelMap>
        </audioClip>
        <audioClip clipAutoCrossfade="true" crossFadeHeadClipID="-1" crossFadeTailClipID="-1" endPoint="4544023" fileID="118" hue="-1" id="36" lockedInTime="false" looped="false" name="Jodee_122" offline="false" select="false" sourceInPoint="224583" sourceOutPoint="425672" startPoint="4342934" zOrder="2145914211">
          <component componentGuid="a340a5fa-b762-46ae-93c6-60cd148dc9d0" componentID="Audition.Fader" id="clipGain" name="volume" powered="true">
            <parameter index="0" name="volume" parameterValue="0.1847489">
              <parameterKeyframes enableSplines="false">
                <parameterKeyframe sampleOffset="219851" select="false" type="linear" value="0.3051724"/>
                <parameterKeyframe sampleOffset="222818" select="false" type="linear" value="0.65"/>
                <parameterKeyframe sampleOffset="243005" select="true" type="linear" value="0.8454752"/>
              </parameterKeyframes>
            </parameter>
            <parameter index="1" name="static gain" parameterValue="1"/>
          </component>
          <component componentGuid="d831e5c3-fd1b-4f9c-a973-9e07aa2e66c3" componentID="Audition.Mute" id="clipMute" name="Mute" powered="true">
            <parameter index="0" parameterValue="0"/>
            <parameter index="1" name="mute" parameterValue="0"/>
          </component>
          <component componentGuid="3ca4e7f2-75d1-49ec-ae47-2e4160ddb884" componentID="Audition.StereoPanner" id="clipPan" name="StereoPanner" powered="true">
            <parameter index="0" name="Pan" parameterValue="0"/>
          </component>
          <fadeIn crossFadeLinkType="linkedAsymmetric" endPoint="0" shape="9" startPoint="0" type="log"/>
          <fadeOut crossFadeLinkType="linkedAsymmetric" endPoint="201089" shape="0" startPoint="201089" type="cosine"/>
          <take sourceInPoint="0"/>
          <editParameter parameterIndex="0" slotIndex="4294967281"/>
          <editParameter parameterIndex="0" slotIndex="4294967280"/>
          <channelMap>
            <channel index="0" sourceIndex="0"/>
          </channelMap>
        </audioClip>
        <audioClip clipAutoCrossfade="true" crossFadeHeadClipID="-1" crossFadeTailClipID="-1" endPoint="4624483" fileID="119" hue="-1" id="37" lockedInTime="false" looped="false" name="Jodee_123" offline="false" select="false" sourceInPoint="274101" sourceOutPoint="354561" startPoint="4544023" zOrder="2145914230">
          <component componentGuid="20431a4f-bf68-4c48-800e-e1b3f5b84b6b" componentID="Audition.Fader" id="clipGain" name="volume" powered="true">
            <parameter index="0" name="volume" parameterValue="2.2232637"/>
            <parameter index="1" name="static gain" parameterValue="1"/>
          </component>
          <component componentGuid="f0078630-07b9-4eec-bef6-4cafa29f02fa" componentID="Audition.Mute" id="clipMute" name="Mute" powered="true">
            <parameter index="0" parameterValue="0"/>
            <parameter index="1" name="mute" parameterValue="0"/>
          </component>
          <component componentGuid="7bda5a08-6dbd-4e4b-840b-23ce817a758f" componentID="Audition.StereoPanner" id="clipPan" name="StereoPanner" powered="true">
            <parameter index="0" name="Pan" parameterValue="0"/>
          </component>
          <fadeIn crossFadeLinkType="linkedAsymmetric" endPoint="0" shape="19" startPoint="0" type="log"/>
          <fadeOut crossFadeLinkType="linkedAsymmetric" endPoint="80460" shape="14" startPoint="59522" type="log"/>
          <editParameter parameterIndex="0" slotIndex="4294967281"/>
          <editParameter parameterIndex="0" slotIndex="4294967280"/>
          <channelMap>
            <channel index="0" sourceIndex="0"/>
          </channelMap>
        </audioClip>
        <audioClip clipAutoCrossfade="true" crossFadeHeadClipID="-1" crossFadeTailClipID="39" endPoint="4797189" fileID="118" hue="-1" id="38" lockedInTime="false" looped="false" name="Jodee_122" offline="false" select="false" sourceInPoint="539905" sourceOutPoint="662019" startPoint="4675075" zOrder="2145914218">
          <component componentGuid="8d66a498-36cb-42cb-b552-e4f098a19323" componentID="Audition.Fader" id="clipGain" name="volume" powered="true">
            <parameter index="0" name="volume" parameterValue="2.2169025">
              <parameterKeyframes enableSplines="false">
                <parameterKeyframe sampleOffset="651695" select="false" type="linear" value="0.8448917"/>
                <parameterKeyframe sampleOffset="662018" select="true" type="linear" value="0.8026792"/>
                <parameterKeyframe sampleOffset="662019" select="false" type="linear" value="0.65"/>
              </parameterKeyframes>
            </parameter>
            <parameter index="1" name="static gain" parameterValue="1"/>
          </component>
          <component componentGuid="d87526bb-021a-4e91-9896-6c27c839bda8" componentID="Audition.Mute" id="clipMute" name="Mute" powered="true">
            <parameter index="0" parameterValue="0"/>
            <parameter index="1" name="mute" parameterValue="0"/>
          </component>
          <component componentGuid="7d5204b2-6846-4fe9-ab62-df2c6faf623b" componentID="Audition.StereoPanner" id="clipPan" name="StereoPanner" powered="true">
            <parameter index="0" name="Pan" parameterValue="0"/>
          </component>
          <fadeIn crossFadeLinkType="linkedAsymmetric" endPoint="16014" shape="6" startPoint="0" type="log"/>
          <fadeOut crossFadeLinkType="linkedAsymmetric" endPoint="122114" shape="18" startPoint="121595" type="log"/>
          <editParameter parameterIndex="0" slotIndex="4294967281"/>
          <editParameter parameterIndex="0" slotIndex="4294967280"/>
          <channelMap>
            <channel index="0" sourceIndex="0"/>
          </channelMap>
        </audioClip>
        <audioClip clipAutoCrossfade="true" crossFadeHeadClipID="38" crossFadeTailClipID="-1" endPoint="4862047" fileID="120" hue="-1" id="39" lockedInTime="false" looped="false" name="Jodee_124" offline="false" select="false" sourceInPoint="514000" sourceOutPoint="579377" startPoint="4796670" zOrder="2145914231">
          <component componentGuid="1fd8d3b5-4bc7-453c-9798-d358baae9143" componentID="Audition.Fader" id="clipGain" name="volume" powered="true">
            <parameter index="0" name="volume" parameterValue="1.510421">
              <parameterKeyframes enableSplines="false">
                <parameterKeyframe sampleOffset="508071" select="false" type="linear" value="0.7595854"/>
                <parameterKeyframe sampleOffset="512553" select="true" type="linear" value="0.7252282"/>
              </parameterKeyframes>
            </parameter>
            <parameter index="1" name="static gain" parameterValue="1"/>
          </component>
          <component componentGuid="7aec16ff-8440-47a8-8b4a-aff27cd1fb36" componentID="Audition.Mute" id="clipMute" name="Mute" powered="true">
            <parameter index="0" parameterValue="0"/>
            <parameter index="1" name="mute" parameterValue="0"/>
          </component>
          <component componentGuid="909998ac-bc67-4db7-a8bb-4fff2e975ee4" componentID="Audition.StereoPanner" id="clipPan" name="StereoPanner" powered="true">
            <parameter index="0" name="Pan" parameterValue="0"/>
          </component>
          <fadeIn crossFadeLinkType="linkedAsymmetric" endPoint="519" shape="19" startPoint="0" type="log"/>
          <fadeOut crossFadeLinkType="linkedAsymmetric" endPoint="65377" shape="12" startPoint="52545" type="log"/>
          <editParameter parameterIndex="0" slotIndex="4294967281"/>
          <editParameter parameterIndex="0" slotIndex="4294967280"/>
          <channelMap>
            <channel index="0" sourceIndex="0"/>
          </channelMap>
        </audioClip>
        <audioClip clipAutoCrossfade="true" crossFadeHeadClipID="-1" crossFadeTailClipID="-1" endPoint="4965575" fileID="16" hue="-1" id="40" lockedInTime="false" looped="false" name="Track 3_013" offline="false" select="false" sourceInPoint="285928" sourceOutPoint="323178" startPoint="4928325" zOrder="2145914234">
          <component componentGuid="bfe7121d-bd6b-46a9-9027-620f2eae8879" componentID="Audition.Fader" id="clipGain" name="volume" powered="true">
            <parameter index="0" name="volume" parameterValue="1"/>
            <parameter index="1" name="static gain" parameterValue="1"/>
          </component>
          <component componentGuid="4e0c9dab-7d28-40ee-80a5-d43a619bed98" componentID="Audition.Mute" id="clipMute" name="Mute" powered="true">
            <parameter index="0" parameterValue="0"/>
            <parameter index="1" name="mute" parameterValue="0"/>
          </component>
          <component componentGuid="55b36a07-181d-4ac0-84f5-910a85cfc9db" componentID="Audition.StereoPanner" id="clipPan" name="StereoPanner" powered="true">
            <parameter index="0" name="Pan" parameterValue="0"/>
          </component>
          <fadeIn crossFadeLinkType="linkedAsymmetric" endPoint="7013" shape="19" startPoint="0" type="log"/>
          <fadeOut crossFadeLinkType="linkedAsymmetric" endPoint="37250" shape="0" startPoint="37250" type="cosine"/>
          <clipStretch adaptiveWindowSize="37" pitchAdjustment="0" preserveFormants="true" stretchMode="realtime" stretchQuality="high" stretchRatio="0.811741375928872" stretchType="solo" transientSensitivity="40"/>
          <editParameter parameterIndex="0" slotIndex="4294967281"/>
          <editParameter parameterIndex="0" slotIndex="4294967280"/>
          <channelMap>
            <channel index="0" sourceIndex="0"/>
          </channelMap>
        </audioClip>
        <audioClip clipAutoCrossfade="true" crossFadeHeadClipID="-1" crossFadeTailClipID="-1" endPoint="5115600" fileID="121" hue="-1" id="41" lockedInTime="false" looped="false" name="Jodee_126" offline="false" select="false" sourceInPoint="50803" sourceOutPoint="199548" startPoint="4966855" zOrder="2145914240">
          <component componentGuid="b49b7c15-50c0-4180-a341-99a32e184018" componentID="Audition.Fader" id="clipGain" name="volume" powered="true">
            <parameter index="0" name="volume" parameterValue="0.25807">
              <parameterKeyframes enableSplines="false">
                <parameterKeyframe sampleOffset="48442" select="false" type="linear" value="0.3544335"/>
                <parameterKeyframe sampleOffset="50314" select="false" type="linear" value="0.65"/>
                <parameterKeyframe sampleOffset="69512" select="true" type="linear" value="0.8201358"/>
              </parameterKeyframes>
            </parameter>
            <parameter index="1" name="static gain" parameterValue="1"/>
          </component>
          <component componentGuid="b183d897-550e-48bc-bc77-c41bf2629bf3" componentID="Audition.Mute" id="clipMute" name="Mute" powered="true">
            <parameter index="0" parameterValue="0"/>
            <parameter index="1" name="mute" parameterValue="0"/>
          </component>
          <component componentGuid="fedf3970-cdde-4cbd-b59d-1398662a8699" componentID="Audition.StereoPanner" id="clipPan" name="StereoPanner" powered="true">
            <parameter index="0" name="Pan" parameterValue="0"/>
          </component>
          <fadeIn crossFadeLinkType="linkedAsymmetric" endPoint="1903" shape="19" startPoint="0" type="log"/>
          <fadeOut crossFadeLinkType="linkedAsymmetric" endPoint="148745" shape="19" startPoint="143404" type="log"/>
          <take sourceInPoint="0"/>
          <editParameter parameterIndex="0" slotIndex="4294967281"/>
          <editParameter parameterIndex="0" slotIndex="4294967280"/>
          <channelMap>
            <channel index="0" sourceIndex="0"/>
          </channelMap>
        </audioClip>
        <audioClip clipAutoCrossfade="true" crossFadeHeadClipID="-1" crossFadeTailClipID="-1" endPoint="5312555" fileID="121" hue="-1" id="42" lockedInTime="false" looped="false" name="Jodee_126" offline="false" select="false" sourceInPoint="244185" sourceOutPoint="397764" startPoint="5158976" zOrder="2145914241">
          <component componentGuid="c870d4f1-951b-4935-94fd-04783bb30e41" componentID="Audition.Fader" id="clipGain" name="volume" powered="true">
            <parameter index="0" name="volume" parameterValue="1.9367669"/>
            <parameter index="1" name="static gain" parameterValue="1"/>
          </component>
          <component componentGuid="6884d3f3-be3f-4287-b735-1364e99b42c1" componentID="Audition.Mute" id="clipMute" name="Mute" powered="true">
            <parameter index="0" parameterValue="0"/>
            <parameter index="1" name="mute" parameterValue="0"/>
          </component>
          <component componentGuid="ae0a8987-8b51-4c19-8369-d1d3a095dc95" componentID="Audition.StereoPanner" id="clipPan" name="StereoPanner" powered="true">
            <parameter index="0" name="Pan" parameterValue="0"/>
          </component>
          <fadeIn crossFadeLinkType="linkedAsymmetric" endPoint="13352" shape="19" startPoint="0" type="log"/>
          <fadeOut crossFadeLinkType="linkedAsymmetric" endPoint="153579" shape="11" startPoint="141562" type="log"/>
          <editParameter parameterIndex="0" slotIndex="4294967281"/>
          <editParameter parameterIndex="0" slotIndex="4294967280"/>
          <channelMap>
            <channel index="0" sourceIndex="0"/>
          </channelMap>
        </audioClip>
        <audioClip clipAutoCrossfade="true" crossFadeHeadClipID="-1" crossFadeTailClipID="-1" endPoint="5382694" fileID="16" hue="-1" id="43" lockedInTime="false" looped="false" name="Track 3_013" offline="false" select="false" sourceInPoint="285928" sourceOutPoint="323178" startPoint="5345444" zOrder="2145914243">
          <component componentGuid="973b354c-6990-4aa0-98a1-c6ddc82f25ba" componentID="Audition.Fader" id="clipGain" name="volume" powered="true">
            <parameter index="0" name="volume" parameterValue="1"/>
            <parameter index="1" name="static gain" parameterValue="1"/>
          </component>
          <component componentGuid="e556ea60-5a24-40a1-98d3-e8060c1f71bc" componentID="Audition.Mute" id="clipMute" name="Mute" powered="true">
            <parameter index="0" parameterValue="0"/>
            <parameter index="1" name="mute" parameterValue="0"/>
          </component>
          <component componentGuid="74f305fd-333d-478c-8e89-a58c7b0e6f6f" componentID="Audition.StereoPanner" id="clipPan" name="StereoPanner" powered="true">
            <parameter index="0" name="Pan" parameterValue="0"/>
          </component>
          <fadeIn crossFadeLinkType="linkedAsymmetric" endPoint="7013" shape="19" startPoint="0" type="log"/>
          <fadeOut crossFadeLinkType="linkedAsymmetric" endPoint="37250" shape="19" startPoint="37250" type="log"/>
          <clipStretch adaptiveWindowSize="37" pitchAdjustment="0" preserveFormants="true" stretchMode="realtime" stretchQuality="high" stretchRatio="0.811741375928872" stretchType="solo" transientSensitivity="40"/>
          <editParameter parameterIndex="0" slotIndex="4294967281"/>
          <editParameter parameterIndex="0" slotIndex="4294967280"/>
          <channelMap>
            <channel index="0" sourceIndex="0"/>
          </channelMap>
        </audioClip>
        <audioClip clipAutoCrossfade="true" crossFadeHeadClipID="-1" crossFadeTailClipID="-1" endPoint="5504895" fileID="122" hue="-1" id="44" lockedInTime="false" looped="false" name="Jodee_128" offline="false" select="false" sourceInPoint="591945" sourceOutPoint="714146" startPoint="5382694" zOrder="2145914249">
          <component componentGuid="c6e43ffa-9fa1-41d2-ae98-ef8849ba6bfe" componentID="Audition.Fader" id="clipGain" name="volume" powered="true">
            <parameter index="0" name="volume" parameterValue="1">
              <parameterKeyframes enableSplines="false">
                <parameterKeyframe sampleOffset="588027" select="false" type="linear" value="0.65"/>
                <parameterKeyframe sampleOffset="609375" select="true" type="linear" value="0.8237557"/>
              </parameterKeyframes>
            </parameter>
            <parameter index="1" name="static gain" parameterValue="1"/>
          </component>
          <component componentGuid="02be1cb3-434f-45d0-a671-31d02ac4a166" componentID="Audition.Mute" id="clipMute" name="Mute" powered="true">
            <parameter index="0" parameterValue="0"/>
            <parameter index="1" name="mute" parameterValue="0"/>
          </component>
          <component componentGuid="e608cec7-bdb2-4478-962a-c2d964bc7a28" componentID="Audition.StereoPanner" id="clipPan" name="StereoPanner" powered="true">
            <parameter index="0" name="Pan" parameterValue="0"/>
          </component>
          <fadeIn crossFadeLinkType="linkedAsymmetric" endPoint="0" shape="18" startPoint="0" type="log"/>
          <fadeOut crossFadeLinkType="linkedAsymmetric" endPoint="122201" shape="0" startPoint="122201" type="cosine"/>
          <editParameter parameterIndex="0" slotIndex="4294967281"/>
          <editParameter parameterIndex="0" slotIndex="4294967280"/>
          <channelMap>
            <channel index="0" sourceIndex="0"/>
          </channelMap>
        </audioClip>
        <audioClip clipAutoCrossfade="true" crossFadeHeadClipID="-1" crossFadeTailClipID="-1" endPoint="5572923" fileID="122" hue="-1" id="45" lockedInTime="false" looped="false" name="Jodee_128" offline="false" select="false" sourceInPoint="729356" sourceOutPoint="797384" startPoint="5504895" zOrder="2145914248">
          <component componentGuid="e0c6e162-4ff7-404c-84e2-5d94f37b9581" componentID="Audition.Fader" id="clipGain" name="volume" powered="true">
            <parameter index="0" name="volume" parameterValue="2.0031455"/>
            <parameter index="1" name="static gain" parameterValue="1"/>
          </component>
          <component componentGuid="3126c690-2562-451d-8058-6cb0fb2aa13f" componentID="Audition.Mute" id="clipMute" name="Mute" powered="true">
            <parameter index="0" parameterValue="0"/>
            <parameter index="1" name="mute" parameterValue="0"/>
          </component>
          <component componentGuid="7fa7741e-88f1-4fd3-93de-bf08129036e5" componentID="Audition.StereoPanner" id="clipPan" name="StereoPanner" powered="true">
            <parameter index="0" name="Pan" parameterValue="0"/>
          </component>
          <fadeIn crossFadeLinkType="linkedAsymmetric" endPoint="0" shape="0" startPoint="0" type="cosine"/>
          <fadeOut crossFadeLinkType="linkedAsymmetric" endPoint="68028" shape="0" startPoint="54676" type="log"/>
          <editParameter parameterIndex="0" slotIndex="4294967281"/>
          <editParameter parameterIndex="0" slotIndex="4294967280"/>
          <channelMap>
            <channel index="0" sourceIndex="0"/>
          </channelMap>
        </audioClip>
        <audioClip clipAutoCrossfade="true" crossFadeHeadClipID="-1" crossFadeTailClipID="-1" endPoint="5856493" fileID="122" hue="-1" id="46" lockedInTime="false" looped="false" name="Jodee_128" offline="false" select="false" sourceInPoint="264935" sourceOutPoint="503076" startPoint="5618352" zOrder="2145914254">
          <component componentGuid="69060421-e87e-47ee-b0ab-8972b08d4557" componentID="Audition.Fader" id="clipGain" name="volume" powered="true">
            <parameter index="0" name="volume" parameterValue="1.9695512"/>
            <parameter index="1" name="static gain" parameterValue="1"/>
          </component>
          <component componentGuid="80678062-3312-4bd7-8857-e94c71e2ec7e" componentID="Audition.Mute" id="clipMute" name="Mute" powered="true">
            <parameter index="0" parameterValue="0"/>
            <parameter index="1" name="mute" parameterValue="0"/>
          </component>
          <component componentGuid="249f72ae-fdef-4a2f-8be1-c2337cf25cfd" componentID="Audition.StereoPanner" id="clipPan" name="StereoPanner" powered="true">
            <parameter index="0" name="Pan" parameterValue="0"/>
          </component>
          <fadeIn crossFadeLinkType="linkedAsymmetric" endPoint="14055" shape="19" startPoint="0" type="log"/>
          <fadeOut crossFadeLinkType="linkedAsymmetric" endPoint="238141" shape="19" startPoint="223083" type="log"/>
          <editParameter parameterIndex="0" slotIndex="4294967281"/>
          <editParameter parameterIndex="0" slotIndex="4294967280"/>
          <channelMap>
            <channel index="0" sourceIndex="0"/>
          </channelMap>
        </audioClip>
        <audioClip clipAutoCrossfade="true" crossFadeHeadClipID="-1" crossFadeTailClipID="-1" endPoint="5936953" fileID="16" hue="-1" id="47" lockedInTime="false" looped="false" name="Track 3_013" offline="false" select="false" sourceInPoint="285928" sourceOutPoint="323178" startPoint="5899703" zOrder="2145914256">
          <component componentGuid="5ea4921e-1a37-4e7c-b9f0-61ae339c83f5" componentID="Audition.Fader" id="clipGain" name="volume" powered="true">
            <parameter index="0" name="volume" parameterValue="1"/>
            <parameter index="1" name="static gain" parameterValue="1"/>
          </component>
          <component componentGuid="83b33fc1-4912-4b56-a7e3-7b2a927cdeb2" componentID="Audition.Mute" id="clipMute" name="Mute" powered="true">
            <parameter index="0" parameterValue="0"/>
            <parameter index="1" name="mute" parameterValue="0"/>
          </component>
          <component componentGuid="06060776-69ab-4efb-9d91-82a9df21ac71" componentID="Audition.StereoPanner" id="clipPan" name="StereoPanner" powered="true">
            <parameter index="0" name="Pan" parameterValue="0"/>
          </component>
          <fadeIn crossFadeLinkType="linkedAsymmetric" endPoint="7013" shape="19" startPoint="0" type="log"/>
          <fadeOut crossFadeLinkType="linkedAsymmetric" endPoint="37250" shape="19" startPoint="37250" type="log"/>
          <clipStretch adaptiveWindowSize="37" pitchAdjustment="0" preserveFormants="true" stretchMode="realtime" stretchQuality="high" stretchRatio="0.811741375928872" stretchType="solo" transientSensitivity="40"/>
          <editParameter parameterIndex="0" slotIndex="4294967281"/>
          <editParameter parameterIndex="0" slotIndex="4294967280"/>
          <channelMap>
            <channel index="0" sourceIndex="0"/>
          </channelMap>
        </audioClip>
        <audioClip clipAutoCrossfade="true" crossFadeHeadClipID="-1" crossFadeTailClipID="-1" endPoint="6177832" fileID="123" hue="-1" id="48" lockedInTime="false" looped="false" name="Jodee_130" offline="false" select="false" sourceInPoint="76606" sourceOutPoint="317485" startPoint="5936953" zOrder="2145914264">
          <component componentGuid="d0dd20c7-f193-47a4-b0b7-dacf7e8f8639" componentID="Audition.Fader" id="clipGain" name="volume" powered="true">
            <parameter index="0" name="volume" parameterValue="1">
              <parameterKeyframes enableSplines="false">
                <parameterKeyframe sampleOffset="76361" select="false" type="linear" value="0.65"/>
                <parameterKeyframe sampleOffset="95625" select="true" type="linear" value="0.8038463"/>
              </parameterKeyframes>
            </parameter>
            <parameter index="1" name="static gain" parameterValue="1"/>
          </component>
          <component componentGuid="7adf42c0-e12a-4167-8d49-ae9e2911aa58" componentID="Audition.Mute" id="clipMute" name="Mute" powered="true">
            <parameter index="0" parameterValue="0"/>
            <parameter index="1" name="mute" parameterValue="0"/>
          </component>
          <component componentGuid="af9254ff-01ce-4264-8b29-c02b81eafece" componentID="Audition.StereoPanner" id="clipPan" name="StereoPanner" powered="true">
            <parameter index="0" name="Pan" parameterValue="0"/>
          </component>
          <fadeIn crossFadeLinkType="linkedAsymmetric" endPoint="875" shape="19" startPoint="0" type="log"/>
          <fadeOut crossFadeLinkType="linkedAsymmetric" endPoint="240879" shape="0" startPoint="240879" type="cosine"/>
          <take sourceInPoint="0"/>
          <editParameter parameterIndex="0" slotIndex="4294967281"/>
          <editParameter parameterIndex="0" slotIndex="4294967280"/>
          <channelMap>
            <channel index="0" sourceIndex="0"/>
          </channelMap>
        </audioClip>
        <audioClip clipAutoCrossfade="true" crossFadeHeadClipID="-1" crossFadeTailClipID="-1" endPoint="6304991" fileID="124" hue="-1" id="49" lockedInTime="false" looped="false" name="Jodee_131" offline="false" select="false" sourceInPoint="262780" sourceOutPoint="389939" startPoint="6177832" zOrder="2145914261">
          <component componentGuid="4afab140-c102-4b15-bd61-f85885bf567b" componentID="Audition.Fader" id="clipGain" name="volume" powered="true">
            <parameter index="0" name="volume" parameterValue="1.8280379"/>
            <parameter index="1" name="static gain" parameterValue="1"/>
          </component>
          <component componentGuid="28ec7e07-3631-4167-a32a-f3816e51de12" componentID="Audition.Mute" id="clipMute" name="Mute" powered="true">
            <parameter index="0" parameterValue="0"/>
            <parameter index="1" name="mute" parameterValue="0"/>
          </component>
          <component componentGuid="be65fa94-9ebb-4ecc-a5de-3d5c4a941c88" componentID="Audition.StereoPanner" id="clipPan" name="StereoPanner" powered="true">
            <parameter index="0" name="Pan" parameterValue="0"/>
          </component>
          <fadeIn crossFadeLinkType="linkedAsymmetric" endPoint="0" shape="19" startPoint="0" type="log"/>
          <fadeOut crossFadeLinkType="linkedAsymmetric" endPoint="127159" shape="18" startPoint="127159" type="log"/>
          <editParameter parameterIndex="0" slotIndex="4294967281"/>
          <editParameter parameterIndex="0" slotIndex="4294967280"/>
          <channelMap>
            <channel index="0" sourceIndex="0"/>
          </channelMap>
        </audioClip>
        <audioClip clipAutoCrossfade="true" crossFadeHeadClipID="-1" crossFadeTailClipID="-1" endPoint="6557866" fileID="125" hue="-1" id="50" lockedInTime="false" looped="false" name="Jodee_133" offline="false" select="false" sourceInPoint="96787" sourceOutPoint="349662" startPoint="6304991" zOrder="2145914265">
          <component componentGuid="52e54580-470d-4e9f-86bf-d3908de6c7a6" componentID="Audition.Fader" id="clipGain" name="volume" powered="true">
            <parameter index="0" name="volume" parameterValue="1.7463791"/>
            <parameter index="1" name="static gain" parameterValue="1"/>
          </component>
          <component componentGuid="0f9b3b12-576b-469b-81b2-270d2690a215" componentID="Audition.Mute" id="clipMute" name="Mute" powered="true">
            <parameter index="0" parameterValue="0"/>
            <parameter index="1" name="mute" parameterValue="0"/>
          </component>
          <component componentGuid="3d158d72-5920-49fd-88f7-2ee79a87964e" componentID="Audition.StereoPanner" id="clipPan" name="StereoPanner" powered="true">
            <parameter index="0" name="Pan" parameterValue="0"/>
          </component>
          <fadeIn crossFadeLinkType="linkedAsymmetric" endPoint="0" shape="19" startPoint="0" type="log"/>
          <fadeOut crossFadeLinkType="linkedAsymmetric" endPoint="252875" shape="12" startPoint="238194" type="log"/>
          <take sourceInPoint="0"/>
          <editParameter parameterIndex="0" slotIndex="4294967281"/>
          <editParameter parameterIndex="0" slotIndex="4294967280"/>
          <channelMap>
            <channel index="0" sourceIndex="0"/>
          </channelMap>
        </audioClip>
        <audioClip clipAutoCrossfade="true" crossFadeHeadClipID="-1" crossFadeTailClipID="-1" endPoint="6753637" fileID="126" hue="-1" id="51" lockedInTime="false" looped="false" name="Jodee_134" offline="false" select="false" sourceInPoint="39007" sourceOutPoint="177644" startPoint="6615000" zOrder="2145914267">
          <component componentGuid="0580fbb3-627e-4c07-82b3-cfcf12ad5530" componentID="Audition.Fader" id="clipGain" name="volume" powered="true">
            <parameter index="0" name="volume" parameterValue="0.8181898"/>
            <parameter index="1" name="static gain" parameterValue="1"/>
          </component>
          <component componentGuid="8e7e3c0b-053f-40c4-ab71-23fe9f25b415" componentID="Audition.Mute" id="clipMute" name="Mute" powered="true">
            <parameter index="0" parameterValue="0"/>
            <parameter index="1" name="mute" parameterValue="0"/>
          </component>
          <component componentGuid="563319f4-ef4c-4219-a45b-9a03d8c13a1d" componentID="Audition.StereoPanner" id="clipPan" name="StereoPanner" powered="true">
            <parameter index="0" name="Pan" parameterValue="0"/>
          </component>
          <fadeIn crossFadeLinkType="linkedAsymmetric" endPoint="23431" shape="19" startPoint="0" type="log"/>
          <fadeOut crossFadeLinkType="linkedAsymmetric" endPoint="138637" shape="0" startPoint="138637" type="cosine"/>
          <take sourceInPoint="0"/>
          <editParameter parameterIndex="0" slotIndex="4294967281"/>
          <editParameter parameterIndex="0" slotIndex="4294967280"/>
          <channelMap>
            <channel index="0" sourceIndex="0"/>
          </channelMap>
        </audioClip>
        <audioClip clipAutoCrossfade="true" crossFadeHeadClipID="-1" crossFadeTailClipID="-1" endPoint="6810263" fileID="126" hue="-1" id="52" lockedInTime="false" looped="false" name="Jodee_134" offline="false" select="false" sourceInPoint="304565" sourceOutPoint="361191" startPoint="6753637" zOrder="2145914269">
          <component componentGuid="5b6cc76e-0d86-4c5b-8175-4da76e858051" componentID="Audition.Fader" id="clipGain" name="volume" powered="true">
            <parameter index="0" name="volume" parameterValue="0.8373995"/>
            <parameter index="1" name="static gain" parameterValue="1"/>
          </component>
          <component componentGuid="b941cc38-2237-4a9a-a80f-f8bbc61eac4f" componentID="Audition.Mute" id="clipMute" name="Mute" powered="true">
            <parameter index="0" parameterValue="0"/>
            <parameter index="1" name="mute" parameterValue="0"/>
          </component>
          <component componentGuid="7b2023b4-d62a-4135-921a-2c864de73008" componentID="Audition.StereoPanner" id="clipPan" name="StereoPanner" powered="true">
            <parameter index="0" name="Pan" parameterValue="0"/>
          </component>
          <fadeIn crossFadeLinkType="linkedAsymmetric" endPoint="0" shape="0" startPoint="0" type="cosine"/>
          <fadeOut crossFadeLinkType="linkedAsymmetric" endPoint="56626" shape="0" startPoint="56626" type="cosine"/>
          <editParameter parameterIndex="0" slotIndex="4294967281"/>
          <editParameter parameterIndex="0" slotIndex="4294967280"/>
          <channelMap>
            <channel index="0" sourceIndex="0"/>
          </channelMap>
        </audioClip>
        <audioClip clipAutoCrossfade="true" crossFadeHeadClipID="-1" crossFadeTailClipID="-1" endPoint="6845517" fileID="126" hue="-1" id="53" lockedInTime="false" looped="false" name="Jodee_134" offline="false" select="false" sourceInPoint="437343" sourceOutPoint="472597" startPoint="6810263" zOrder="2145914273">
          <component componentGuid="6d0d8f9e-a24f-4e1e-a411-be6458a2f27c" componentID="Audition.Fader" id="clipGain" name="volume" powered="true">
            <parameter index="0" name="volume" parameterValue="0.8373995"/>
            <parameter index="1" name="static gain" parameterValue="1"/>
          </component>
          <component componentGuid="0e6e5ac5-baf9-4c06-8146-9e0e291b8bad" componentID="Audition.Mute" id="clipMute" name="Mute" powered="true">
            <parameter index="0" parameterValue="0"/>
            <parameter index="1" name="mute" parameterValue="0"/>
          </component>
          <component componentGuid="d2094d89-3433-4c9b-bdd4-7262553358c9" componentID="Audition.StereoPanner" id="clipPan" name="StereoPanner" powered="true">
            <parameter index="0" name="Pan" parameterValue="0"/>
          </component>
          <fadeIn crossFadeLinkType="linkedAsymmetric" endPoint="0" shape="0" startPoint="0" type="cosine"/>
          <fadeOut crossFadeLinkType="linkedAsymmetric" endPoint="35254" shape="0" startPoint="31684" type="log"/>
          <editParameter parameterIndex="0" slotIndex="4294967281"/>
          <editParameter parameterIndex="0" slotIndex="4294967280"/>
          <channelMap>
            <channel index="0" sourceIndex="0"/>
          </channelMap>
        </audioClip>
      </audioTrack>
      <audioTrack automationLaneOpenState="false" id="10007" index="7" select="false" visible="true">
        <trackParameters trackHeight="173" trackHue="16.078791618347168" trackMinimized="false">
          <name>Minnie</name>
        </trackParameters>
        <trackAudioParameters audioChannelType="mono" automationMode="1" monitoring="false" recordArmed="false" solo="false" soloSafe="false">
          <trackOutput outputID="10000" type="trackID"/>
          <trackInput inputID="1"/>
          <component componentGuid="c2af321e-4631-4416-8014-98c1e9582ac6" componentID="Audition.Fader" id="trackFader" name="volume" powered="true">
            <parameter index="0" name="volume" parameterValue="1"/>
            <parameter index="1" name="static gain" parameterValue="1"/>
          </component>
          <component componentGuid="ddae6956-9f6c-43d1-8ce6-5f62387e13b1" componentID="Audition.Mute" id="trackMute" name="Mute" powered="true">
            <parameter index="0" parameterValue="0"/>
            <parameter index="1" name="mute" parameterValue="0"/>
          </component>
          <component componentGuid="1e8cd052-1d4b-43ed-9223-cf7dcc43da6d" componentID="Audition.StereoPanner" id="trackPan" name="StereoPanner" powered="true">
            <parameter index="0" name="Pan" parameterValue="0"/>
          </component>
          <component componentGuid="858b1d27-1364-46d9-ad0f-38992d40d3fa" componentID="Audition.EQ" id="trackEQ" name="EQ" powered="false">
            <parameter index="0" name="Low Shelf Frequency" parameterValue="0.0009079"/>
            <parameter index="1" name="Low Shelf Gain" parameterValue="0.5"/>
            <parameter index="2" name="High Shelf Frequency" parameterValue="0.8161598"/>
            <parameter index="3" name="High Shelf Gain" parameterValue="0.5"/>
            <parameter index="4" name="EQ Band 1 Center Frequency" parameterValue="0.0013618"/>
            <parameter index="5" name="EQ Band 1 Q" parameterValue="0.0002"/>
            <parameter index="6" name="EQ Band 1 Gain" parameterValue="0.5"/>
            <parameter index="7" name="EQ Band 1 Enable" parameterValue="1"/>
            <parameter index="8" name="EQ Band 2 Center Frequency" parameterValue="0.0081707"/>
            <parameter index="9" name="EQ Band 2 Q" parameterValue="0.0002"/>
            <parameter index="10" name="EQ Band 2 Gain" parameterValue="0.5"/>
            <parameter index="11" name="EQ Band 2 Enable" parameterValue="1"/>
            <parameter index="12" name="EQ Band 3 Center Frequency" parameterValue="0.0354063"/>
            <parameter index="13" name="EQ Band 3 Q" parameterValue="0.0002"/>
            <parameter index="14" name="EQ Band 3 Gain" parameterValue="0.5"/>
            <parameter index="15" name="EQ Band 3 Enable" parameterValue="1"/>
            <parameter index="16" name="EQ Band 4 Center Frequency" parameterValue="0.1443486"/>
            <parameter index="17" name="EQ Band 4 Q" parameterValue="0.0002"/>
            <parameter index="18" name="EQ Band 4 Gain" parameterValue="0.5"/>
            <parameter index="19" name="EQ Band 4 Enable" parameterValue="1"/>
            <parameter index="20" name="EQ Band 5 Center Frequency" parameterValue="0.580118"/>
            <parameter index="21" name="EQ Band 5 Q" parameterValue="0.0002"/>
            <parameter index="22" name="EQ Band 5 Gain" parameterValue="0.5"/>
            <parameter index="23" name="EQ Band 5 Enable" parameterValue="1"/>
            <parameter index="24" name="Master Gain" parameterValue="0.6666667"/>
            <parameter index="25" name="ConstantQ" parameterValue="1"/>
            <parameter index="26" name="Low Shelf Filter Order" parameterValue="0"/>
            <parameter index="27" name="High Shelf Filter Order" parameterValue="0"/>
            <parameter index="28" name="Ultra-Quiet Mode" parameterValue="0"/>
            <parameter index="29" name="Low Shelf Enable" parameterValue="1"/>
            <parameter index="30" name="High Shelf Enable" parameterValue="1"/>
            <parameter index="31" name="Original Sample Rate" parameterValue="0.2296875"/>
            <parameter index="32" name="EQ Band 1 Bandwidth" parameterValue="0.0025"/>
            <parameter index="33" name="EQ Band 2 Bandwidth" parameterValue="0.01"/>
            <parameter index="34" name="EQ Band 3 Bandwidth" parameterValue="0.04"/>
            <parameter index="35" name="EQ Band 4 Bandwidth" parameterValue="0.16"/>
            <parameter index="36" name="EQ Band 5 Bandwidth" parameterValue="0.64"/>
            <parameter index="37" name="High-Pass Filter Enable" parameterValue="0"/>
            <parameter index="38" name="High-Pass Cutoff Frequency" parameterValue="0"/>
            <parameter index="39" name="High-Pass Slope" parameterValue="0.4"/>
            <parameter index="40" name="Low-Pass Filter Enable" parameterValue="0"/>
            <parameter index="41" name="Low-Pass Cutoff Frequency" parameterValue="0.906945"/>
            <parameter index="42" name="Low-Pass Slope" parameterValue="0.4"/>
            <parameter index="43" name="Bypass" parameterValue="0"/>
            <parameter index="44" name="LowGraphRange" parameterValue="1"/>
          </component>
        </trackAudioParameters>
        <editParameter parameterIndex="0" slotIndex="4294967280"/>
        <sendList>
          <sendSlot preFader="false" sendOutputID="0" slotIndex="0">
            <component componentGuid="295ea37d-ebfb-4c87-8d0b-a438c9ea840d" id="sendComponent" powered="false">
              <parameter index="0" name="Power On/Off" parameterValue="0"/>
              <parameter index="1" name="Level" parameterValue="0"/>
            </component>
            <component id="sendPan" powered="true"/>
          </sendSlot>
          <sendSlot preFader="false" sendOutputID="0" slotIndex="1">
            <component componentGuid="3e5cf85e-d617-41df-ad2a-5e5266acabef" id="sendComponent" powered="false">
              <parameter index="0" name="Power On/Off" parameterValue="0"/>
              <parameter index="1" name="Level" parameterValue="0"/>
            </component>
            <component id="sendPan" powered="true"/>
          </sendSlot>
          <sendSlot preFader="false" sendOutputID="0" slotIndex="2">
            <component componentGuid="1396ba81-9a2f-4e25-bd99-6c7c5b892480" id="sendComponent" powered="false">
              <parameter index="0" name="Power On/Off" parameterValue="0"/>
              <parameter index="1" name="Level" parameterValue="0"/>
            </component>
            <component id="sendPan" powered="true"/>
          </sendSlot>
          <sendSlot preFader="false" sendOutputID="0" slotIndex="3">
            <component componentGuid="4552c1bf-74ee-4549-9994-59df5ccae141" id="sendComponent" powered="false">
              <parameter index="0" name="Power On/Off" parameterValue="0"/>
              <parameter index="1" name="Level" parameterValue="0"/>
            </component>
            <component id="sendPan" powered="true"/>
          </sendSlot>
          <sendSlot preFader="false" sendOutputID="0" slotIndex="4">
            <component componentGuid="4de68bb3-d1a5-4171-992b-e1cf22cf7c4c" id="sendComponent" powered="false">
              <parameter index="0" name="Power On/Off" parameterValue="0"/>
              <parameter index="1" name="Level" parameterValue="0"/>
            </component>
            <component id="sendPan" powered="true"/>
          </sendSlot>
          <sendSlot preFader="false" sendOutputID="0" slotIndex="5">
            <component componentGuid="9241bbc4-e1cc-48c0-b608-abea0945b585" id="sendComponent" powered="false">
              <parameter index="0" name="Power On/Off" parameterValue="0"/>
              <parameter index="1" name="Level" parameterValue="0"/>
            </component>
            <component id="sendPan" powered="true"/>
          </sendSlot>
          <sendSlot preFader="false" sendOutputID="0" slotIndex="6">
            <component componentGuid="dbb51eb0-a7e0-4feb-bae1-a7c6bd086e7d" id="sendComponent" powered="false">
              <parameter index="0" name="Power On/Off" parameterValue="0"/>
              <parameter index="1" name="Level" parameterValue="0"/>
            </component>
            <component id="sendPan" powered="true"/>
          </sendSlot>
          <sendSlot preFader="false" sendOutputID="0" slotIndex="7">
            <component componentGuid="5814126a-dbf7-4e73-8767-d760b760d0a0" id="sendComponent" powered="false">
              <parameter index="0" name="Power On/Off" parameterValue="0"/>
              <parameter index="1" name="Level" parameterValue="0"/>
            </component>
            <component id="sendPan" powered="true"/>
          </sendSlot>
          <sendSlot preFader="false" sendOutputID="0" slotIndex="8">
            <component componentGuid="0d15017b-f2bf-4a34-b043-ad98154ce148" id="sendComponent" powered="false">
              <parameter index="0" name="Power On/Off" parameterValue="0"/>
              <parameter index="1" name="Level" parameterValue="0"/>
            </component>
            <component id="sendPan" powered="true"/>
          </sendSlot>
          <sendSlot preFader="false" sendOutputID="0" slotIndex="9">
            <component componentGuid="fb538a16-6948-4890-8b0e-3267ddd02fa6" id="sendComponent" powered="false">
              <parameter index="0" name="Power On/Off" parameterValue="0"/>
              <parameter index="1" name="Level" parameterValue="0"/>
            </component>
            <component id="sendPan" powered="true"/>
          </sendSlot>
          <sendSlot preFader="false" sendOutputID="0" slotIndex="10">
            <component componentGuid="56b4942b-ca50-4eac-bad4-c72cec406bd1" id="sendComponent" powered="false">
              <parameter index="0" name="Power On/Off" parameterValue="0"/>
              <parameter index="1" name="Level" parameterValue="0"/>
            </component>
            <component id="sendPan" powered="true"/>
          </sendSlot>
          <sendSlot preFader="false" sendOutputID="0" slotIndex="11">
            <component componentGuid="8ebeb69c-6003-4c57-b21c-03d94eb5bc36" id="sendComponent" powered="false">
              <parameter index="0" name="Power On/Off" parameterValue="0"/>
              <parameter index="1" name="Level" parameterValue="0"/>
            </component>
            <component id="sendPan" powered="true"/>
          </sendSlot>
          <sendSlot preFader="false" sendOutputID="0" slotIndex="12">
            <component componentGuid="93f81a7e-835d-4a51-a70a-6d9cd5349094" id="sendComponent" powered="false">
              <parameter index="0" name="Power On/Off" parameterValue="0"/>
              <parameter index="1" name="Level" parameterValue="0"/>
            </component>
            <component id="sendPan" powered="true"/>
          </sendSlot>
          <sendSlot preFader="false" sendOutputID="0" slotIndex="13">
            <component componentGuid="9ccf4425-1f3d-4916-897b-e4fa755fe721" id="sendComponent" powered="false">
              <parameter index="0" name="Power On/Off" parameterValue="0"/>
              <parameter index="1" name="Level" parameterValue="0"/>
            </component>
            <component id="sendPan" powered="true"/>
          </sendSlot>
          <sendSlot preFader="false" sendOutputID="0" slotIndex="14">
            <component componentGuid="2ed0d1a4-ff40-42bb-b5fc-324fb788e486" id="sendComponent" powered="false">
              <parameter index="0" name="Power On/Off" parameterValue="0"/>
              <parameter index="1" name="Level" parameterValue="0"/>
            </component>
            <component id="sendPan" powered="true"/>
          </sendSlot>
          <sendSlot preFader="false" sendOutputID="0" slotIndex="15">
            <component componentGuid="614369bd-e22e-45f5-abd0-1465c3d091f8" id="sendComponent" powered="false">
              <parameter index="0" name="Power On/Off" parameterValue="0"/>
              <parameter index="1" name="Level" parameterValue="0"/>
            </component>
            <component id="sendPan" powered="true"/>
          </sendSlot>
        </sendList>
        <audioClip clipAutoCrossfade="true" crossFadeHeadClipID="-1" crossFadeTailClipID="-1" endPoint="22050" fileID="16" hue="-1" id="0" lockedInTime="false" looped="false" name="Track 3_013" offline="false" select="false" sourceInPoint="605755" sourceOutPoint="627805" startPoint="0" zOrder="2145913119">
          <component componentGuid="89efb058-6f75-4504-9b2e-eebf294fb91d" componentID="Audition.Fader" id="clipGain" name="volume" powered="true">
            <parameter index="0" name="volume" parameterValue="1.3922505"/>
            <parameter index="1" name="static gain" parameterValue="1"/>
          </component>
          <component componentGuid="9045de79-6fee-4f56-b9fd-ecc8199e05c6" componentID="Audition.Mute" id="clipMute" name="Mute" powered="true">
            <parameter index="0" parameterValue="0"/>
            <parameter index="1" name="mute" parameterValue="0"/>
          </component>
          <component id="clipPan" powered="true"/>
          <fadeIn crossFadeLinkType="linkedAsymmetric" endPoint="4854" shape="19" startPoint="0" type="log"/>
          <fadeOut crossFadeLinkType="linkedAsymmetric" endPoint="22050" shape="0" startPoint="22050" type="cosine"/>
          <clipStretch adaptiveWindowSize="37" pitchAdjustment="0" preserveFormants="true" stretchMode="realtime" stretchQuality="high" stretchRatio="0.8638589618021548" stretchType="solo" transientSensitivity="40"/>
          <editParameter parameterIndex="0" slotIndex="4294967280"/>
          <channelMap>
            <channel index="0" sourceIndex="0"/>
          </channelMap>
        </audioClip>
        <audioClip clipAutoCrossfade="true" crossFadeHeadClipID="-1" crossFadeTailClipID="-1" endPoint="522263" fileID="127" hue="-1" id="1" lockedInTime="false" looped="false" name="Minnie_136" offline="false" select="false" sourceInPoint="30811" sourceOutPoint="531024" startPoint="22050" zOrder="2145913123">
          <component componentGuid="4f50d47a-96a7-4e42-a6bb-86d964608abb" componentID="Audition.Fader" id="clipGain" name="volume" powered="true">
            <parameter index="0" name="volume" parameterValue="2.6030741">
              <parameterKeyframes enableSplines="false">
                <parameterKeyframe sampleOffset="22282" select="false" type="linear" value="0.5725352"/>
                <parameterKeyframe sampleOffset="22283" select="false" type="linear" value="0.548259"/>
                <parameterKeyframe sampleOffset="66931" select="false" type="linear" value="0.8764638"/>
              </parameterKeyframes>
            </parameter>
            <parameter index="1" name="static gain" parameterValue="1"/>
          </component>
          <component componentGuid="30d94bd0-89c2-45c1-b8c5-3e266158cc1b" componentID="Audition.Mute" id="clipMute" name="Mute" powered="true">
            <parameter index="0" parameterValue="0"/>
            <parameter index="1" name="mute" parameterValue="0"/>
          </component>
          <component id="clipPan" powered="true"/>
          <fadeIn crossFadeLinkType="linkedAsymmetric" endPoint="0" shape="-7" startPoint="0" type="log"/>
          <fadeOut crossFadeLinkType="linkedAsymmetric" endPoint="500213" shape="19" startPoint="474069" type="log"/>
          <take sourceInPoint="0"/>
          <editParameter parameterIndex="0" slotIndex="4294967280"/>
          <channelMap>
            <channel index="0" sourceIndex="0"/>
          </channelMap>
        </audioClip>
        <audioClip clipAutoCrossfade="true" crossFadeHeadClipID="-1" crossFadeTailClipID="-1" endPoint="752672" fileID="127" hue="-1" id="2" lockedInTime="false" looped="false" name="Minnie_136" offline="false" select="false" sourceInPoint="531024" sourceOutPoint="761433" startPoint="522263" zOrder="2145913132">
          <component componentGuid="8d7e57ff-becd-4024-8cc9-1d10719b0518" componentID="Audition.Fader" id="clipGain" name="volume" powered="true">
            <parameter index="0" name="volume" parameterValue="2.8198235">
              <parameterKeyframes enableSplines="false">
                <parameterKeyframe sampleOffset="22282" select="false" type="linear" value="0.5725352"/>
                <parameterKeyframe sampleOffset="22283" select="false" type="linear" value="0.548259"/>
                <parameterKeyframe sampleOffset="66931" select="false" type="linear" value="0.8764638"/>
                <parameterKeyframe sampleOffset="566682" select="false" type="linear" value="0.8958383"/>
                <parameterKeyframe sampleOffset="723845" select="true" type="linear" value="0.8988411"/>
              </parameterKeyframes>
            </parameter>
            <parameter index="1" name="static gain" parameterValue="1"/>
          </component>
          <component componentGuid="585b8fe2-3dc6-43bb-adbf-6823d2c99d57" componentID="Audition.Mute" id="clipMute" name="Mute" powered="true">
            <parameter index="0" parameterValue="0"/>
            <parameter index="1" name="mute" parameterValue="0"/>
          </component>
          <component id="clipPan" powered="true"/>
          <fadeIn crossFadeLinkType="linkedAsymmetric" endPoint="31827" shape="19" startPoint="0" type="log"/>
          <fadeOut crossFadeLinkType="linkedAsymmetric" endPoint="230409" shape="19" startPoint="188352" type="log"/>
          <editParameter parameterIndex="0" slotIndex="4294967280"/>
          <channelMap>
            <channel index="0" sourceIndex="0"/>
          </channelMap>
        </audioClip>
        <audioClip clipAutoCrossfade="true" crossFadeHeadClipID="-1" crossFadeTailClipID="-1" endPoint="902070" fileID="127" hue="-1" id="3" lockedInTime="false" looped="false" name="Minnie_136" offline="false" select="false" sourceInPoint="1341553" sourceOutPoint="1490951" startPoint="752672" zOrder="2145913145">
          <component componentGuid="448bffbd-f583-4cf0-b8ac-e98839be443a" componentID="Audition.Fader" id="clipGain" name="volume" powered="true">
            <parameter index="0" name="volume" parameterValue="2.517091">
              <parameterKeyframes enableSplines="false">
                <parameterKeyframe sampleOffset="1439017" select="false" type="linear" value="0.8700462"/>
                <parameterKeyframe sampleOffset="1448562" select="true" type="linear" value="0.8116921"/>
                <parameterKeyframe sampleOffset="1460457" select="false" type="linear" value="0.8700464"/>
              </parameterKeyframes>
            </parameter>
            <parameter index="1" name="static gain" parameterValue="1"/>
          </component>
          <component componentGuid="1c42b033-e7eb-4c0e-ba1f-e4c0625795c9" componentID="Audition.Mute" id="clipMute" name="Mute" powered="true">
            <parameter index="0" parameterValue="0"/>
            <parameter index="1" name="mute" parameterValue="0"/>
          </component>
          <component id="clipPan" powered="true"/>
          <fadeIn crossFadeLinkType="linkedAsymmetric" endPoint="22733" shape="19" startPoint="0" type="log"/>
          <fadeOut crossFadeLinkType="linkedAsymmetric" endPoint="149398" shape="7" startPoint="124882" type="log"/>
          <editParameter parameterIndex="0" slotIndex="4294967280"/>
          <channelMap>
            <channel index="0" sourceIndex="0"/>
          </channelMap>
        </audioClip>
        <audioClip clipAutoCrossfade="true" crossFadeHeadClipID="-1" crossFadeTailClipID="-1" endPoint="1075926" fileID="128" hue="-1" id="4" lockedInTime="false" looped="false" name="Minnie_137" offline="false" select="false" sourceInPoint="233204" sourceOutPoint="342980" startPoint="966150" zOrder="2145914329">
          <component componentGuid="3424bb43-02e2-45aa-aae9-e55d9c13acfd" componentID="Audition.Fader" id="clipGain" name="volume" powered="true">
            <parameter index="0" name="volume" parameterValue="1.6961781"/>
            <parameter index="1" name="static gain" parameterValue="1"/>
          </component>
          <component componentGuid="531d1e71-abbf-4bf8-b04b-a1652e9b59f6" componentID="Audition.Mute" id="clipMute" name="Mute" powered="true">
            <parameter index="0" parameterValue="0"/>
            <parameter index="1" name="mute" parameterValue="0"/>
          </component>
          <component id="clipPan" powered="true"/>
          <fadeIn crossFadeLinkType="linkedAsymmetric" endPoint="0" shape="19" startPoint="0" type="log"/>
          <fadeOut crossFadeLinkType="linkedAsymmetric" endPoint="109776" shape="13" startPoint="97465" type="log"/>
          <take sourceInPoint="0"/>
          <editParameter parameterIndex="0" slotIndex="4294967280"/>
          <channelMap>
            <channel index="0" sourceIndex="0"/>
          </channelMap>
        </audioClip>
        <audioClip clipAutoCrossfade="true" crossFadeHeadClipID="-1" crossFadeTailClipID="-1" endPoint="1136458" fileID="128" hue="-1" id="5" lockedInTime="false" looped="false" name="Minnie_137" offline="false" select="false" sourceInPoint="350179" sourceOutPoint="394480" startPoint="1092157" zOrder="2145914327">
          <component componentGuid="83e88afb-9d5d-4154-9725-bb9d3c586bfa" componentID="Audition.Fader" id="clipGain" name="volume" powered="true">
            <parameter index="0" name="volume" parameterValue="1.5926583"/>
            <parameter index="1" name="static gain" parameterValue="1"/>
          </component>
          <component componentGuid="87c30aec-e7d2-4c90-9316-208ab96a5f3e" componentID="Audition.Mute" id="clipMute" name="Mute" powered="true">
            <parameter index="0" parameterValue="0"/>
            <parameter index="1" name="mute" parameterValue="0"/>
          </component>
          <component id="clipPan" powered="true"/>
          <fadeIn crossFadeLinkType="linkedAsymmetric" endPoint="6186" shape="19" startPoint="0" type="log"/>
          <fadeOut crossFadeLinkType="linkedAsymmetric" endPoint="44301" shape="9" startPoint="39069" type="log"/>
          <editParameter parameterIndex="0" slotIndex="4294967280"/>
          <channelMap>
            <channel index="0" sourceIndex="0"/>
          </channelMap>
        </audioClip>
        <audioClip clipAutoCrossfade="true" crossFadeHeadClipID="-1" crossFadeTailClipID="-1" endPoint="1202208" fileID="16" hue="-1" id="6" lockedInTime="false" looped="false" name="Track 3_013" offline="false" select="false" sourceInPoint="605755" sourceOutPoint="627805" startPoint="1180158" zOrder="2145913228">
          <component componentGuid="918cd31e-e091-405a-9e2b-7ba350670fd0" componentID="Audition.Fader" id="clipGain" name="volume" powered="true">
            <parameter index="0" name="volume" parameterValue="1.5129083"/>
            <parameter index="1" name="static gain" parameterValue="1"/>
          </component>
          <component componentGuid="258639c1-3d26-4ff5-9671-6841a208ed16" componentID="Audition.Mute" id="clipMute" name="Mute" powered="true">
            <parameter index="0" parameterValue="0"/>
            <parameter index="1" name="mute" parameterValue="0"/>
          </component>
          <component id="clipPan" powered="true"/>
          <fadeIn crossFadeLinkType="linkedAsymmetric" endPoint="4854" shape="19" startPoint="0" type="log"/>
          <fadeOut crossFadeLinkType="linkedAsymmetric" endPoint="22050" shape="0" startPoint="22050" type="cosine"/>
          <clipStretch adaptiveWindowSize="37" pitchAdjustment="0" preserveFormants="true" stretchMode="realtime" stretchQuality="high" stretchRatio="0.8638589618021548" stretchType="solo" transientSensitivity="40"/>
          <editParameter parameterIndex="0" slotIndex="4294967280"/>
          <channelMap>
            <channel index="0" sourceIndex="0"/>
          </channelMap>
        </audioClip>
        <audioClip clipAutoCrossfade="true" crossFadeHeadClipID="-1" crossFadeTailClipID="-1" endPoint="1437720" fileID="129" hue="-1" id="7" lockedInTime="false" looped="false" name="Minnie_142" offline="false" select="false" sourceInPoint="30245" sourceOutPoint="265757" startPoint="1202208" zOrder="2145913239">
          <component componentGuid="62db30c4-81ea-4c7b-9600-64940784ec8c" componentID="Audition.Fader" id="clipGain" name="volume" powered="true">
            <parameter index="0" name="volume" parameterValue="1.8552506"/>
            <parameter index="1" name="static gain" parameterValue="1"/>
          </component>
          <component componentGuid="3e9b26de-3489-462a-b61a-3f22df8fdb31" componentID="Audition.Mute" id="clipMute" name="Mute" powered="true">
            <parameter index="0" parameterValue="0"/>
            <parameter index="1" name="mute" parameterValue="0"/>
          </component>
          <component id="clipPan" powered="true"/>
          <fadeIn crossFadeLinkType="linkedAsymmetric" endPoint="12543" shape="19" startPoint="0" type="log"/>
          <fadeOut crossFadeLinkType="linkedAsymmetric" endPoint="235512" shape="22" startPoint="215663" type="log"/>
          <take sourceInPoint="0"/>
          <editParameter parameterIndex="0" slotIndex="4294967280"/>
          <channelMap>
            <channel index="0" sourceIndex="0"/>
          </channelMap>
        </audioClip>
        <audioClip clipAutoCrossfade="true" crossFadeHeadClipID="-1" crossFadeTailClipID="-1" endPoint="1780142" fileID="130" hue="-1" id="8" lockedInTime="false" looped="false" name="Minnie_143" offline="false" select="false" sourceInPoint="770860" sourceOutPoint="1051406" startPoint="1499596" zOrder="2145913242">
          <component componentGuid="7dcfc669-f822-4ca0-a6f0-acc11043f4d8" componentID="Audition.Fader" id="clipGain" name="volume" powered="true">
            <parameter index="0" name="volume" parameterValue="2.3222606"/>
            <parameter index="1" name="static gain" parameterValue="1"/>
          </component>
          <component componentGuid="95c2ba4a-250b-4d48-9518-d70ad44573c5" componentID="Audition.Mute" id="clipMute" name="Mute" powered="true">
            <parameter index="0" parameterValue="0"/>
            <parameter index="1" name="mute" parameterValue="0"/>
          </component>
          <component id="clipPan" powered="true"/>
          <fadeIn crossFadeLinkType="linkedAsymmetric" endPoint="32859" shape="19" startPoint="0" type="log"/>
          <fadeOut crossFadeLinkType="linkedAsymmetric" endPoint="280546" shape="12" startPoint="256056" type="log"/>
          <editParameter parameterIndex="0" slotIndex="4294967280"/>
          <channelMap>
            <channel index="0" sourceIndex="0"/>
          </channelMap>
        </audioClip>
        <audioClip clipAutoCrossfade="true" crossFadeHeadClipID="-1" crossFadeTailClipID="-1" endPoint="1847597" fileID="16" hue="-1" id="9" lockedInTime="false" looped="false" name="Track 3_013" offline="false" select="false" sourceInPoint="605755" sourceOutPoint="627805" startPoint="1825547" zOrder="2145913247">
          <component componentGuid="6ca8d2a2-3145-4994-90bb-109671fdefb3" componentID="Audition.Fader" id="clipGain" name="volume" powered="true">
            <parameter index="0" name="volume" parameterValue="1.5831056">
              <parameterKeyframes enableSplines="false">
                <parameterKeyframe sampleOffset="624804" select="true" type="linear" value="0.7708385"/>
              </parameterKeyframes>
            </parameter>
            <parameter index="1" name="static gain" parameterValue="1"/>
          </component>
          <component componentGuid="7122bd59-5da3-4174-8414-d8e127af25b9" componentID="Audition.Mute" id="clipMute" name="Mute" powered="true">
            <parameter index="0" parameterValue="0"/>
            <parameter index="1" name="mute" parameterValue="0"/>
          </component>
          <component id="clipPan" powered="true"/>
          <fadeIn crossFadeLinkType="linkedAsymmetric" endPoint="4854" shape="19" startPoint="0" type="log"/>
          <fadeOut crossFadeLinkType="linkedAsymmetric" endPoint="22050" shape="18" startPoint="22050" type="log"/>
          <clipStretch adaptiveWindowSize="37" pitchAdjustment="0" preserveFormants="true" stretchMode="realtime" stretchQuality="high" stretchRatio="0.8638589618021548" stretchType="solo" transientSensitivity="40"/>
          <editParameter parameterIndex="0" slotIndex="4294967280"/>
          <channelMap>
            <channel index="0" sourceIndex="0"/>
          </channelMap>
        </audioClip>
        <audioClip clipAutoCrossfade="true" crossFadeHeadClipID="-1" crossFadeTailClipID="-1" endPoint="2022605" fileID="131" hue="-1" id="10" lockedInTime="false" looped="false" name="Minnie_147" offline="false" select="false" sourceInPoint="1649670" sourceOutPoint="1824678" startPoint="1847597" zOrder="2145913255">
          <component componentGuid="8588d6f9-0d29-4b34-b415-e08cab39947d" componentID="Audition.Fader" id="clipGain" name="volume" powered="true">
            <parameter index="0" name="volume" parameterValue="0.3451217">
              <parameterKeyframes enableSplines="false">
                <parameterKeyframe sampleOffset="1641394" select="false" type="linear" value="0.4036946"/>
                <parameterKeyframe sampleOffset="1651067" select="false" type="linear" value="0.7455028"/>
                <parameterKeyframe sampleOffset="1660457" select="true" type="linear" value="0.8782515"/>
              </parameterKeyframes>
            </parameter>
            <parameter index="1" name="static gain" parameterValue="1"/>
          </component>
          <component componentGuid="d0ac0958-77ad-4e7a-bc24-faacdfd3455f" componentID="Audition.Mute" id="clipMute" name="Mute" powered="true">
            <parameter index="0" parameterValue="0"/>
            <parameter index="1" name="mute" parameterValue="0"/>
          </component>
          <component id="clipPan" powered="true"/>
          <fadeIn crossFadeLinkType="linkedAsymmetric" endPoint="0" shape="19" startPoint="0" type="log"/>
          <fadeOut crossFadeLinkType="linkedAsymmetric" endPoint="175008" shape="17" startPoint="152806" type="log"/>
          <editParameter parameterIndex="0" slotIndex="4294967280"/>
          <channelMap>
            <channel index="0" sourceIndex="0"/>
          </channelMap>
        </audioClip>
        <audioClip clipAutoCrossfade="true" crossFadeHeadClipID="-1" crossFadeTailClipID="12" endPoint="2316206" fileID="132" hue="-1" id="11" lockedInTime="false" looped="false" name="Minnie_148" offline="false" select="false" sourceInPoint="0" sourceOutPoint="228291" startPoint="2087915" zOrder="2145914001">
          <component componentGuid="a9f1cea1-cc0f-43d7-8077-da6da5064453" componentID="Audition.Fader" id="clipGain" name="volume" powered="true">
            <parameter index="0" name="volume" parameterValue="2.8246932"/>
            <parameter index="1" name="static gain" parameterValue="1"/>
          </component>
          <component componentGuid="6fcc6df8-7a74-4d71-9b29-0b3ada882748" componentID="Audition.Mute" id="clipMute" name="Mute" powered="true">
            <parameter index="0" parameterValue="0"/>
            <parameter index="1" name="mute" parameterValue="0"/>
          </component>
          <component id="clipPan" powered="true"/>
          <fadeIn crossFadeLinkType="linkedAsymmetric" endPoint="56784" shape="14" startPoint="0" type="log"/>
          <fadeOut crossFadeLinkType="linkedAsymmetric" endPoint="228291" shape="18" startPoint="227185" type="log"/>
          <take sourceInPoint="0"/>
          <editParameter parameterIndex="0" slotIndex="4294967280"/>
          <channelMap>
            <channel index="0" sourceIndex="0"/>
          </channelMap>
        </audioClip>
        <audioClip clipAutoCrossfade="true" crossFadeHeadClipID="11" crossFadeTailClipID="-1" endPoint="2556694" fileID="132" hue="-1" id="12" lockedInTime="false" looped="false" name="Minnie_148" offline="false" select="false" sourceInPoint="634231" sourceOutPoint="875825" startPoint="2315100" zOrder="2145914000">
          <component componentGuid="e3fb5075-9126-454b-a00c-bc8841194e69" componentID="Audition.Fader" id="clipGain" name="volume" powered="true">
            <parameter index="0" name="volume" parameterValue="2.8246849">
              <parameterKeyframes enableSplines="false">
                <parameterKeyframe sampleOffset="780629" select="false" type="linear" value="0.891677"/>
              </parameterKeyframes>
            </parameter>
            <parameter index="1" name="static gain" parameterValue="1"/>
          </component>
          <component componentGuid="cf9e0445-3c87-41d3-ae78-57cbf1575e81" componentID="Audition.Mute" id="clipMute" name="Mute" powered="true">
            <parameter index="0" parameterValue="0"/>
            <parameter index="1" name="mute" parameterValue="0"/>
          </component>
          <component id="clipPan" powered="true"/>
          <fadeIn crossFadeLinkType="linkedAsymmetric" endPoint="1106" shape="19" startPoint="0" type="log"/>
          <fadeOut crossFadeLinkType="linkedAsymmetric" endPoint="241594" shape="19" startPoint="201846" type="log"/>
          <editParameter parameterIndex="0" slotIndex="4294967280"/>
          <channelMap>
            <channel index="0" sourceIndex="0"/>
          </channelMap>
        </audioClip>
        <audioClip clipAutoCrossfade="true" crossFadeHeadClipID="-1" crossFadeTailClipID="-1" endPoint="2651469" fileID="16" hue="-1" id="13" lockedInTime="false" looped="false" name="Track 3_013" offline="false" select="false" sourceInPoint="605755" sourceOutPoint="627805" startPoint="2629419" zOrder="2145914031">
          <component componentGuid="2a3ba16e-6031-4970-bb76-7f5a41bd6116" componentID="Audition.Fader" id="clipGain" name="volume" powered="true">
            <parameter index="0" name="volume" parameterValue="1.8784137"/>
            <parameter index="1" name="static gain" parameterValue="1"/>
          </component>
          <component componentGuid="d7c9766e-41cb-4da9-8298-099676a4d467" componentID="Audition.Mute" id="clipMute" name="Mute" powered="true">
            <parameter index="0" parameterValue="0"/>
            <parameter index="1" name="mute" parameterValue="0"/>
          </component>
          <component id="clipPan" powered="true"/>
          <fadeIn crossFadeLinkType="linkedAsymmetric" endPoint="4854" shape="19" startPoint="0" type="log"/>
          <fadeOut crossFadeLinkType="linkedAsymmetric" endPoint="22050" shape="18" startPoint="22050" type="log"/>
          <clipStretch adaptiveWindowSize="37" pitchAdjustment="0" preserveFormants="true" stretchMode="realtime" stretchQuality="high" stretchRatio="0.8638589618021548" stretchType="solo" transientSensitivity="40"/>
          <editParameter parameterIndex="0" slotIndex="4294967280"/>
          <channelMap>
            <channel index="0" sourceIndex="0"/>
          </channelMap>
        </audioClip>
        <audioClip clipAutoCrossfade="true" crossFadeHeadClipID="-1" crossFadeTailClipID="15" endPoint="2717378" fileID="133" hue="-1" id="14" lockedInTime="false" looped="false" name="Minnie_150" offline="false" select="false" sourceInPoint="36787" sourceOutPoint="102696" startPoint="2651469" zOrder="2145914036">
          <component componentGuid="9b818f50-ae12-4086-b9cb-09f8ea421448" componentID="Audition.Fader" id="clipGain" name="volume" powered="true">
            <parameter index="0" name="volume" parameterValue="0.3451217">
              <parameterKeyframes enableSplines="false">
                <parameterKeyframe sampleOffset="36116" select="false" type="linear" value="0.4036946"/>
                <parameterKeyframe sampleOffset="36117" select="true" type="linear" value="0.8205951"/>
                <parameterKeyframe sampleOffset="38167" select="false" type="linear" value="0.790885"/>
                <parameterKeyframe sampleOffset="52414" select="false" type="linear" value="0.8992302"/>
              </parameterKeyframes>
            </parameter>
            <parameter index="1" name="static gain" parameterValue="1"/>
          </component>
          <component componentGuid="6f6cd3d4-512a-4349-a243-9763b19ea87f" componentID="Audition.Mute" id="clipMute" name="Mute" powered="true">
            <parameter index="0" parameterValue="0"/>
            <parameter index="1" name="mute" parameterValue="0"/>
          </component>
          <component id="clipPan" powered="true"/>
          <fadeIn crossFadeLinkType="linkedAsymmetric" endPoint="0" shape="19" startPoint="0" type="log"/>
          <fadeOut crossFadeLinkType="linkedAsymmetric" endPoint="65909" shape="18" startPoint="61886" type="log"/>
          <take sourceInPoint="0"/>
          <editParameter parameterIndex="0" slotIndex="4294967280"/>
          <channelMap>
            <channel index="0" sourceIndex="0"/>
          </channelMap>
        </audioClip>
        <audioClip clipAutoCrossfade="true" crossFadeHeadClipID="14" crossFadeTailClipID="-1" endPoint="2799175" fileID="133" hue="-1" id="15" lockedInTime="false" looped="false" name="Minnie_150" offline="false" select="false" sourceInPoint="111471" sourceOutPoint="197291" startPoint="2713355" zOrder="2145914042">
          <component componentGuid="62907f60-2e48-4a40-89b1-0960d4459940" componentID="Audition.Fader" id="clipGain" name="volume" powered="true">
            <parameter index="0" name="volume" parameterValue="0.3451217">
              <parameterKeyframes enableSplines="false">
                <parameterKeyframe sampleOffset="36116" select="false" type="linear" value="0.4036946"/>
                <parameterKeyframe sampleOffset="51299" select="false" type="linear" value="0.65"/>
                <parameterKeyframe sampleOffset="110824" select="true" type="linear" value="0.8899997"/>
              </parameterKeyframes>
            </parameter>
            <parameter index="1" name="static gain" parameterValue="1"/>
          </component>
          <component componentGuid="8c2863e3-8175-4bfc-a150-6d35c4604b50" componentID="Audition.Mute" id="clipMute" name="Mute" powered="true">
            <parameter index="0" parameterValue="0"/>
            <parameter index="1" name="mute" parameterValue="0"/>
          </component>
          <component id="clipPan" powered="true"/>
          <fadeIn crossFadeLinkType="linkedAsymmetric" endPoint="4023" shape="19" startPoint="0" type="log"/>
          <fadeOut crossFadeLinkType="linkedAsymmetric" endPoint="85820" shape="13" startPoint="58069" type="log"/>
          <editParameter parameterIndex="0" slotIndex="4294967280"/>
          <channelMap>
            <channel index="0" sourceIndex="0"/>
          </channelMap>
        </audioClip>
        <audioClip clipAutoCrossfade="true" crossFadeHeadClipID="-1" crossFadeTailClipID="-1" endPoint="3095999" fileID="134" hue="-1" id="16" lockedInTime="false" looped="false" name="Minnie_151" offline="false" select="false" sourceInPoint="168644" sourceOutPoint="403339" startPoint="2861304" zOrder="2145914045">
          <component componentGuid="02adf1da-ca71-4fcd-90d8-1a8256589af5" componentID="Audition.Fader" id="clipGain" name="volume" powered="true">
            <parameter index="0" name="volume" parameterValue="2.7989407"/>
            <parameter index="1" name="static gain" parameterValue="1"/>
          </component>
          <component componentGuid="68d5347e-c108-4790-a361-d0eb5ddef7da" componentID="Audition.Mute" id="clipMute" name="Mute" powered="true">
            <parameter index="0" parameterValue="0"/>
            <parameter index="1" name="mute" parameterValue="0"/>
          </component>
          <component id="clipPan" powered="true"/>
          <fadeIn crossFadeLinkType="linkedAsymmetric" endPoint="34155" shape="19" startPoint="0" type="log"/>
          <fadeOut crossFadeLinkType="linkedAsymmetric" endPoint="234695" shape="9" startPoint="198405" type="log"/>
          <take sourceInPoint="0"/>
          <editParameter parameterIndex="0" slotIndex="4294967280"/>
          <channelMap>
            <channel index="0" sourceIndex="0"/>
          </channelMap>
        </audioClip>
        <audioClip clipAutoCrossfade="true" crossFadeHeadClipID="-1" crossFadeTailClipID="18" endPoint="3197967" fileID="16" hue="-1" id="17" lockedInTime="false" looped="false" name="Track 3_013" offline="false" select="false" sourceInPoint="605755" sourceOutPoint="627805" startPoint="3175917" zOrder="2145914047">
          <component componentGuid="3ddc573c-ac9f-40b8-98a7-94b9a2559c98" componentID="Audition.Fader" id="clipGain" name="volume" powered="true">
            <parameter index="0" name="volume" parameterValue="1.9140126"/>
            <parameter index="1" name="static gain" parameterValue="1"/>
          </component>
          <component componentGuid="e1922323-b640-45d6-9530-9d6f97950a1e" componentID="Audition.Mute" id="clipMute" name="Mute" powered="true">
            <parameter index="0" parameterValue="0"/>
            <parameter index="1" name="mute" parameterValue="0"/>
          </component>
          <component id="clipPan" powered="true"/>
          <fadeIn crossFadeLinkType="linkedAsymmetric" endPoint="4854" shape="19" startPoint="0" type="log"/>
          <fadeOut crossFadeLinkType="linkedAsymmetric" endPoint="22050" shape="18" startPoint="20004" type="log"/>
          <clipStretch adaptiveWindowSize="37" pitchAdjustment="0" preserveFormants="true" stretchMode="realtime" stretchQuality="high" stretchRatio="0.8638589618021548" stretchType="solo" transientSensitivity="40"/>
          <editParameter parameterIndex="0" slotIndex="4294967280"/>
          <channelMap>
            <channel index="0" sourceIndex="0"/>
          </channelMap>
        </audioClip>
        <audioClip clipAutoCrossfade="true" crossFadeHeadClipID="17" crossFadeTailClipID="-1" endPoint="3383309" fileID="135" hue="-1" id="18" lockedInTime="false" looped="false" name="Minnie_153" offline="false" select="false" sourceInPoint="275554" sourceOutPoint="462942" startPoint="3195921" zOrder="2145914051">
          <component componentGuid="986f1efc-6aa4-4b79-98a4-034e55404db5" componentID="Audition.Fader" id="clipGain" name="volume" powered="true">
            <parameter index="0" name="volume" parameterValue="1.7921753">
              <parameterKeyframes enableSplines="false">
                <parameterKeyframe sampleOffset="270872" select="false" type="linear" value="0.799425"/>
                <parameterKeyframe sampleOffset="301238" select="true" type="linear" value="0.8668496"/>
              </parameterKeyframes>
            </parameter>
            <parameter index="1" name="static gain" parameterValue="1"/>
          </component>
          <component componentGuid="ab14f413-7a31-45eb-b509-8b966c7ac560" componentID="Audition.Mute" id="clipMute" name="Mute" powered="true">
            <parameter index="0" parameterValue="0"/>
            <parameter index="1" name="mute" parameterValue="0"/>
          </component>
          <component id="clipPan" powered="true"/>
          <fadeIn crossFadeLinkType="linkedAsymmetric" endPoint="2046" shape="19" startPoint="0" type="log"/>
          <fadeOut crossFadeLinkType="linkedAsymmetric" endPoint="187388" shape="19" startPoint="167514" type="log"/>
          <editParameter parameterIndex="0" slotIndex="4294967280"/>
          <channelMap>
            <channel index="0" sourceIndex="0"/>
          </channelMap>
        </audioClip>
        <audioClip clipAutoCrossfade="true" crossFadeHeadClipID="-1" crossFadeTailClipID="-1" endPoint="3549530" fileID="135" hue="-1" id="19" lockedInTime="false" looped="false" name="Minnie_153" offline="false" select="false" sourceInPoint="462942" sourceOutPoint="546324" startPoint="3466148" zOrder="2145914136">
          <component componentGuid="929fd189-0e16-4442-a3f6-ec3a81f4a0f0" componentID="Audition.Fader" id="clipGain" name="volume" powered="true">
            <parameter index="0" name="volume" parameterValue="2.2008288"/>
            <parameter index="1" name="static gain" parameterValue="1"/>
          </component>
          <component componentGuid="6c2f7094-609c-4e36-a21d-2e1064fdf70e" componentID="Audition.Mute" id="clipMute" name="Mute" powered="true">
            <parameter index="0" parameterValue="0"/>
            <parameter index="1" name="mute" parameterValue="0"/>
          </component>
          <component id="clipPan" powered="true"/>
          <fadeIn crossFadeLinkType="linkedAsymmetric" endPoint="20515" shape="19" startPoint="0" type="log"/>
          <fadeOut crossFadeLinkType="linkedAsymmetric" endPoint="83382" shape="19" startPoint="83382" type="log"/>
          <editParameter parameterIndex="0" slotIndex="4294967280"/>
          <channelMap>
            <channel index="0" sourceIndex="0"/>
          </channelMap>
        </audioClip>
        <audioClip clipAutoCrossfade="true" crossFadeHeadClipID="-1" crossFadeTailClipID="-1" endPoint="3714215" fileID="135" hue="-1" id="20" lockedInTime="false" looped="false" name="Minnie_153" offline="false" select="false" sourceInPoint="101904" sourceOutPoint="266589" startPoint="3549530" zOrder="2145914135">
          <component componentGuid="118e30a4-a6ec-4755-af4a-b24a98f21176" componentID="Audition.Fader" id="clipGain" name="volume" powered="true">
            <parameter index="0" name="volume" parameterValue="2.2652576"/>
            <parameter index="1" name="static gain" parameterValue="1"/>
          </component>
          <component componentGuid="246c2510-6744-4c34-a230-e65a0f41e9e5" componentID="Audition.Mute" id="clipMute" name="Mute" powered="true">
            <parameter index="0" parameterValue="0"/>
            <parameter index="1" name="mute" parameterValue="0"/>
          </component>
          <component id="clipPan" powered="true"/>
          <fadeIn crossFadeLinkType="linkedAsymmetric" endPoint="0" shape="19" startPoint="0" type="log"/>
          <fadeOut crossFadeLinkType="linkedAsymmetric" endPoint="164685" shape="11" startPoint="133090" type="log"/>
          <take sourceInPoint="0"/>
          <editParameter parameterIndex="0" slotIndex="4294967280"/>
          <channelMap>
            <channel index="0" sourceIndex="0"/>
          </channelMap>
        </audioClip>
        <audioClip clipAutoCrossfade="true" crossFadeHeadClipID="-1" crossFadeTailClipID="-1" endPoint="3833725" fileID="16" hue="-1" id="21" lockedInTime="false" looped="false" name="Track 3_013" offline="false" select="false" sourceInPoint="605755" sourceOutPoint="627805" startPoint="3811675" zOrder="2145914164">
          <component componentGuid="471eaef4-30d3-46c3-941c-ad920e9e9a33" componentID="Audition.Fader" id="clipGain" name="volume" powered="true">
            <parameter index="0" name="volume" parameterValue="1.9665825">
              <parameterKeyframes enableSplines="false">
                <parameterKeyframe sampleOffset="615557" select="true" type="linear" value="0.8198115"/>
              </parameterKeyframes>
            </parameter>
            <parameter index="1" name="static gain" parameterValue="1"/>
          </component>
          <component componentGuid="909227df-cc75-4229-b6b4-ee04ea246c98" componentID="Audition.Mute" id="clipMute" name="Mute" powered="true">
            <parameter index="0" parameterValue="0"/>
            <parameter index="1" name="mute" parameterValue="0"/>
          </component>
          <component id="clipPan" powered="true"/>
          <fadeIn crossFadeLinkType="linkedAsymmetric" endPoint="4854" shape="19" startPoint="0" type="log"/>
          <fadeOut crossFadeLinkType="linkedAsymmetric" endPoint="22050" shape="0" startPoint="22050" type="cosine"/>
          <clipStretch adaptiveWindowSize="37" pitchAdjustment="0" preserveFormants="true" stretchMode="realtime" stretchQuality="high" stretchRatio="0.8638589618021548" stretchType="solo" transientSensitivity="40"/>
          <editParameter parameterIndex="0" slotIndex="4294967280"/>
          <channelMap>
            <channel index="0" sourceIndex="0"/>
          </channelMap>
        </audioClip>
        <audioClip clipAutoCrossfade="true" crossFadeHeadClipID="-1" crossFadeTailClipID="-1" endPoint="3999663" fileID="136" hue="-1" id="22" lockedInTime="false" looped="false" name="Minnie_157" offline="false" select="false" sourceInPoint="48616" sourceOutPoint="214554" startPoint="3833725" zOrder="2145914142">
          <component componentGuid="2b40fb03-5848-4b4b-b5fc-8836fc1b7a16" componentID="Audition.Fader" id="clipGain" name="volume" powered="true">
            <parameter index="0" name="volume" parameterValue="1.8634535">
              <parameterKeyframes enableSplines="false">
                <parameterKeyframe sampleOffset="47637" select="false" type="linear" value="0.8080901"/>
                <parameterKeyframe sampleOffset="81331" select="true" type="linear" value="0.8609888"/>
              </parameterKeyframes>
            </parameter>
            <parameter index="1" name="static gain" parameterValue="1"/>
          </component>
          <component componentGuid="ef7fd07c-b82f-47b3-87e9-4a84c60f7328" componentID="Audition.Mute" id="clipMute" name="Mute" powered="true">
            <parameter index="0" parameterValue="0"/>
            <parameter index="1" name="mute" parameterValue="0"/>
          </component>
          <component id="clipPan" powered="true"/>
          <fadeIn crossFadeLinkType="linkedAsymmetric" endPoint="0" shape="19" startPoint="0" type="log"/>
          <fadeOut crossFadeLinkType="linkedAsymmetric" endPoint="165938" shape="11" startPoint="143468" type="log"/>
          <take sourceInPoint="0"/>
          <editParameter parameterIndex="0" slotIndex="4294967280"/>
          <channelMap>
            <channel index="0" sourceIndex="0"/>
          </channelMap>
        </audioClip>
        <audioClip clipAutoCrossfade="true" crossFadeHeadClipID="-1" crossFadeTailClipID="-1" endPoint="4133109" fileID="137" hue="-1" id="23" lockedInTime="false" looped="false" name="Minnie_158" offline="false" select="false" sourceInPoint="246091" sourceOutPoint="322000" startPoint="4057200" zOrder="2145914159">
          <component componentGuid="de4cfcba-80c4-452b-a8fe-b57aa215447a" componentID="Audition.Fader" id="clipGain" name="volume" powered="true">
            <parameter index="0" name="volume" parameterValue="2.3324547"/>
            <parameter index="1" name="static gain" parameterValue="1"/>
          </component>
          <component componentGuid="518bbf02-617d-4e07-9181-bc09d2e388bb" componentID="Audition.Mute" id="clipMute" name="Mute" powered="true">
            <parameter index="0" parameterValue="0"/>
            <parameter index="1" name="mute" parameterValue="0"/>
          </component>
          <component id="clipPan" powered="true"/>
          <fadeIn crossFadeLinkType="linkedAsymmetric" endPoint="39748" shape="19" startPoint="0" type="log"/>
          <fadeOut crossFadeLinkType="linkedAsymmetric" endPoint="75909" shape="8" startPoint="75909" type="log"/>
          <take sourceInPoint="0"/>
          <editParameter parameterIndex="0" slotIndex="4294967280"/>
          <channelMap>
            <channel index="0" sourceIndex="0"/>
          </channelMap>
        </audioClip>
        <audioClip clipAutoCrossfade="true" crossFadeHeadClipID="-1" crossFadeTailClipID="-1" endPoint="4335952" fileID="137" hue="-1" id="24" lockedInTime="false" looped="false" name="Minnie_158" offline="false" select="false" sourceInPoint="334291" sourceOutPoint="537134" startPoint="4133109" zOrder="2145914158">
          <component componentGuid="fb253c16-823d-4c57-a4de-fa92d5917e4b" componentID="Audition.Fader" id="clipGain" name="volume" powered="true">
            <parameter index="0" name="volume" parameterValue="2.2008231">
              <parameterKeyframes enableSplines="false">
                <parameterKeyframe sampleOffset="489114" select="true" type="linear" value="0.843406"/>
                <parameterKeyframe sampleOffset="502842" select="false" type="linear" value="0.7932367"/>
                <parameterKeyframe sampleOffset="740657" select="false" type="linear" value="0.7906584"/>
              </parameterKeyframes>
            </parameter>
            <parameter index="1" name="static gain" parameterValue="1"/>
          </component>
          <component componentGuid="9022f678-cf74-45fa-be8d-2a9a648e8e48" componentID="Audition.Mute" id="clipMute" name="Mute" powered="true">
            <parameter index="0" parameterValue="0"/>
            <parameter index="1" name="mute" parameterValue="0"/>
          </component>
          <component id="clipPan" powered="true"/>
          <fadeIn crossFadeLinkType="linkedAsymmetric" endPoint="0" shape="0" startPoint="0" type="cosine"/>
          <fadeOut crossFadeLinkType="linkedAsymmetric" endPoint="202843" shape="8" startPoint="175647" type="log"/>
          <editParameter parameterIndex="0" slotIndex="4294967280"/>
          <channelMap>
            <channel index="0" sourceIndex="0"/>
          </channelMap>
        </audioClip>
        <audioClip clipAutoCrossfade="true" crossFadeHeadClipID="-1" crossFadeTailClipID="-1" endPoint="4420420" fileID="16" hue="-1" id="25" lockedInTime="false" looped="false" name="Track 3_013" offline="false" select="false" sourceInPoint="605755" sourceOutPoint="627805" startPoint="4398370" zOrder="2145914166">
          <component componentGuid="26986794-35dd-4774-9745-52e6f6ebae3a" componentID="Audition.Fader" id="clipGain" name="volume" powered="true">
            <parameter index="0" name="volume" parameterValue="1.9153501"/>
            <parameter index="1" name="static gain" parameterValue="1"/>
          </component>
          <component componentGuid="ee9501a1-7c3f-4a3f-9370-09f5912715b3" componentID="Audition.Mute" id="clipMute" name="Mute" powered="true">
            <parameter index="0" parameterValue="0"/>
            <parameter index="1" name="mute" parameterValue="0"/>
          </component>
          <component id="clipPan" powered="true"/>
          <fadeIn crossFadeLinkType="linkedAsymmetric" endPoint="4854" shape="19" startPoint="0" type="log"/>
          <fadeOut crossFadeLinkType="linkedAsymmetric" endPoint="22050" shape="0" startPoint="22050" type="cosine"/>
          <clipStretch adaptiveWindowSize="37" pitchAdjustment="0" preserveFormants="true" stretchMode="realtime" stretchQuality="high" stretchRatio="0.8638589618021548" stretchType="solo" transientSensitivity="40"/>
          <editParameter parameterIndex="0" slotIndex="4294967280"/>
          <channelMap>
            <channel index="0" sourceIndex="0"/>
          </channelMap>
        </audioClip>
        <audioClip clipAutoCrossfade="true" crossFadeHeadClipID="-1" crossFadeTailClipID="-1" endPoint="4511118" fileID="138" hue="-1" id="26" lockedInTime="false" looped="false" name="Minnie_160" offline="false" select="false" sourceInPoint="421445" sourceOutPoint="512143" startPoint="4420420" zOrder="2145914318">
          <component componentGuid="3676b505-0de9-4ef4-9f5f-c67dcf9c4704" componentID="Audition.Fader" id="clipGain" name="volume" powered="true">
            <parameter index="0" name="volume" parameterValue="0.3265917">
              <parameterKeyframes enableSplines="false">
                <parameterKeyframe sampleOffset="420564" select="false" type="linear" value="0.3938423"/>
                <parameterKeyframe sampleOffset="420565" select="false" type="linear" value="0.8102766"/>
                <parameterKeyframe sampleOffset="430630" select="true" type="linear" value="0.8653846"/>
              </parameterKeyframes>
            </parameter>
            <parameter index="1" name="static gain" parameterValue="1"/>
          </component>
          <component componentGuid="732eee75-415c-46ad-a871-3c8736a91836" componentID="Audition.Mute" id="clipMute" name="Mute" powered="true">
            <parameter index="0" parameterValue="0"/>
            <parameter index="1" name="mute" parameterValue="0"/>
          </component>
          <component id="clipPan" powered="true"/>
          <fadeIn crossFadeLinkType="linkedAsymmetric" endPoint="0" shape="19" startPoint="0" type="log"/>
          <fadeOut crossFadeLinkType="linkedAsymmetric" endPoint="90698" shape="9" startPoint="75273" type="log"/>
          <take sourceInPoint="0"/>
          <editParameter parameterIndex="0" slotIndex="4294967280"/>
          <channelMap>
            <channel index="0" sourceIndex="0"/>
          </channelMap>
        </audioClip>
        <audioClip clipAutoCrossfade="true" crossFadeHeadClipID="-1" crossFadeTailClipID="-1" endPoint="4688214" fileID="138" hue="-1" id="27" lockedInTime="false" looped="false" name="Minnie_160" offline="false" select="false" sourceInPoint="560234" sourceOutPoint="692987" startPoint="4555461" zOrder="2145914319">
          <component componentGuid="efc02322-a997-4b9b-a0c5-7c113ef6443f" componentID="Audition.Fader" id="clipGain" name="volume" powered="true">
            <parameter index="0" name="volume" parameterValue="2.3324552"/>
            <parameter index="1" name="static gain" parameterValue="1"/>
          </component>
          <component componentGuid="e608258e-1135-4c64-a1f6-d0b40305d719" componentID="Audition.Mute" id="clipMute" name="Mute" powered="true">
            <parameter index="0" parameterValue="0"/>
            <parameter index="1" name="mute" parameterValue="0"/>
          </component>
          <component id="clipPan" powered="true"/>
          <fadeIn crossFadeLinkType="linkedAsymmetric" endPoint="13610" shape="19" startPoint="0" type="log"/>
          <fadeOut crossFadeLinkType="linkedAsymmetric" endPoint="132753" shape="5" startPoint="125735" type="log"/>
          <editParameter parameterIndex="0" slotIndex="4294967280"/>
          <channelMap>
            <channel index="0" sourceIndex="0"/>
          </channelMap>
        </audioClip>
      </audioTrack>
      <audioTrack automationLaneOpenState="false" id="10008" index="8" select="false" visible="true">
        <trackParameters trackHeight="173" trackHue="225.8276224136352539" trackMinimized="false">
          <name>Zahra</name>
        </trackParameters>
        <trackAudioParameters audioChannelType="mono" automationMode="1" monitoring="false" recordArmed="false" solo="false" soloSafe="false">
          <trackOutput outputID="10000" type="trackID"/>
          <trackInput inputID="1"/>
          <component componentGuid="91445d63-772f-47d0-bd3c-24c3d7800a2c" componentID="Audition.Fader" id="trackFader" name="volume" powered="true">
            <parameter index="0" name="volume" parameterValue="1"/>
            <parameter index="1" name="static gain" parameterValue="1"/>
          </component>
          <component componentGuid="be4b2899-eb80-4f44-9ae2-f35888529a08" componentID="Audition.Mute" id="trackMute" name="Mute" powered="true">
            <parameter index="0" parameterValue="0"/>
            <parameter index="1" name="mute" parameterValue="0"/>
          </component>
          <component componentGuid="f5e6e4b4-939c-48bf-a9f2-cb4fe338ecbe" componentID="Audition.StereoPanner" id="trackPan" name="StereoPanner" powered="true">
            <parameter index="0" name="Pan" parameterValue="0"/>
          </component>
          <component componentGuid="fc9d8934-3f84-4986-be8b-5a8236c9eba0" componentID="Audition.EQ" id="trackEQ" name="EQ" powered="false">
            <parameter index="0" name="Low Shelf Frequency" parameterValue="0.0009079"/>
            <parameter index="1" name="Low Shelf Gain" parameterValue="0.5"/>
            <parameter index="2" name="High Shelf Frequency" parameterValue="0.8161598"/>
            <parameter index="3" name="High Shelf Gain" parameterValue="0.5"/>
            <parameter index="4" name="EQ Band 1 Center Frequency" parameterValue="0.0013618"/>
            <parameter index="5" name="EQ Band 1 Q" parameterValue="0.0002"/>
            <parameter index="6" name="EQ Band 1 Gain" parameterValue="0.5"/>
            <parameter index="7" name="EQ Band 1 Enable" parameterValue="1"/>
            <parameter index="8" name="EQ Band 2 Center Frequency" parameterValue="0.0081707"/>
            <parameter index="9" name="EQ Band 2 Q" parameterValue="0.0002"/>
            <parameter index="10" name="EQ Band 2 Gain" parameterValue="0.5"/>
            <parameter index="11" name="EQ Band 2 Enable" parameterValue="1"/>
            <parameter index="12" name="EQ Band 3 Center Frequency" parameterValue="0.0354063"/>
            <parameter index="13" name="EQ Band 3 Q" parameterValue="0.0002"/>
            <parameter index="14" name="EQ Band 3 Gain" parameterValue="0.5"/>
            <parameter index="15" name="EQ Band 3 Enable" parameterValue="1"/>
            <parameter index="16" name="EQ Band 4 Center Frequency" parameterValue="0.1443486"/>
            <parameter index="17" name="EQ Band 4 Q" parameterValue="0.0002"/>
            <parameter index="18" name="EQ Band 4 Gain" parameterValue="0.5"/>
            <parameter index="19" name="EQ Band 4 Enable" parameterValue="1"/>
            <parameter index="20" name="EQ Band 5 Center Frequency" parameterValue="0.580118"/>
            <parameter index="21" name="EQ Band 5 Q" parameterValue="0.0002"/>
            <parameter index="22" name="EQ Band 5 Gain" parameterValue="0.5"/>
            <parameter index="23" name="EQ Band 5 Enable" parameterValue="1"/>
            <parameter index="24" name="Master Gain" parameterValue="0.6666667"/>
            <parameter index="25" name="ConstantQ" parameterValue="1"/>
            <parameter index="26" name="Low Shelf Filter Order" parameterValue="0"/>
            <parameter index="27" name="High Shelf Filter Order" parameterValue="0"/>
            <parameter index="28" name="Ultra-Quiet Mode" parameterValue="0"/>
            <parameter index="29" name="Low Shelf Enable" parameterValue="1"/>
            <parameter index="30" name="High Shelf Enable" parameterValue="1"/>
            <parameter index="31" name="Original Sample Rate" parameterValue="0.2296875"/>
            <parameter index="32" name="EQ Band 1 Bandwidth" parameterValue="0.0025"/>
            <parameter index="33" name="EQ Band 2 Bandwidth" parameterValue="0.01"/>
            <parameter index="34" name="EQ Band 3 Bandwidth" parameterValue="0.04"/>
            <parameter index="35" name="EQ Band 4 Bandwidth" parameterValue="0.16"/>
            <parameter index="36" name="EQ Band 5 Bandwidth" parameterValue="0.64"/>
            <parameter index="37" name="High-Pass Filter Enable" parameterValue="0"/>
            <parameter index="38" name="High-Pass Cutoff Frequency" parameterValue="0"/>
            <parameter index="39" name="High-Pass Slope" parameterValue="0.4"/>
            <parameter index="40" name="Low-Pass Filter Enable" parameterValue="0"/>
            <parameter index="41" name="Low-Pass Cutoff Frequency" parameterValue="0.906945"/>
            <parameter index="42" name="Low-Pass Slope" parameterValue="0.4"/>
            <parameter index="43" name="Bypass" parameterValue="0"/>
            <parameter index="44" name="LowGraphRange" parameterValue="1"/>
          </component>
        </trackAudioParameters>
        <editParameter parameterIndex="0" slotIndex="4294967280"/>
        <sendList>
          <sendSlot preFader="false" sendOutputID="0" slotIndex="0">
            <component componentGuid="64a8f0fa-a09f-4fad-acc3-8542d6dad9fe" id="sendComponent" powered="false">
              <parameter index="0" name="Power On/Off" parameterValue="0"/>
              <parameter index="1" name="Level" parameterValue="0"/>
            </component>
            <component id="sendPan" powered="true"/>
          </sendSlot>
          <sendSlot preFader="false" sendOutputID="0" slotIndex="1">
            <component componentGuid="18cdae20-8cbe-436c-a050-d8e75bd6e488" id="sendComponent" powered="false">
              <parameter index="0" name="Power On/Off" parameterValue="0"/>
              <parameter index="1" name="Level" parameterValue="0"/>
            </component>
            <component id="sendPan" powered="true"/>
          </sendSlot>
          <sendSlot preFader="false" sendOutputID="0" slotIndex="2">
            <component componentGuid="807dfdf9-2172-4edd-861e-52eebd859ebf" id="sendComponent" powered="false">
              <parameter index="0" name="Power On/Off" parameterValue="0"/>
              <parameter index="1" name="Level" parameterValue="0"/>
            </component>
            <component id="sendPan" powered="true"/>
          </sendSlot>
          <sendSlot preFader="false" sendOutputID="0" slotIndex="3">
            <component componentGuid="63fbaddd-3e9e-4b80-a7b7-730b9300448f" id="sendComponent" powered="false">
              <parameter index="0" name="Power On/Off" parameterValue="0"/>
              <parameter index="1" name="Level" parameterValue="0"/>
            </component>
            <component id="sendPan" powered="true"/>
          </sendSlot>
          <sendSlot preFader="false" sendOutputID="0" slotIndex="4">
            <component componentGuid="ed1dae29-26c6-4b88-bf5d-012002428bd9" id="sendComponent" powered="false">
              <parameter index="0" name="Power On/Off" parameterValue="0"/>
              <parameter index="1" name="Level" parameterValue="0"/>
            </component>
            <component id="sendPan" powered="true"/>
          </sendSlot>
          <sendSlot preFader="false" sendOutputID="0" slotIndex="5">
            <component componentGuid="5387f7cf-96ef-45e8-b3e4-8625ca76301a" id="sendComponent" powered="false">
              <parameter index="0" name="Power On/Off" parameterValue="0"/>
              <parameter index="1" name="Level" parameterValue="0"/>
            </component>
            <component id="sendPan" powered="true"/>
          </sendSlot>
          <sendSlot preFader="false" sendOutputID="0" slotIndex="6">
            <component componentGuid="0a3b2fa8-3800-443e-b526-ee73b4163a01" id="sendComponent" powered="false">
              <parameter index="0" name="Power On/Off" parameterValue="0"/>
              <parameter index="1" name="Level" parameterValue="0"/>
            </component>
            <component id="sendPan" powered="true"/>
          </sendSlot>
          <sendSlot preFader="false" sendOutputID="0" slotIndex="7">
            <component componentGuid="7f886831-0179-453c-8fba-0435d7dd5190" id="sendComponent" powered="false">
              <parameter index="0" name="Power On/Off" parameterValue="0"/>
              <parameter index="1" name="Level" parameterValue="0"/>
            </component>
            <component id="sendPan" powered="true"/>
          </sendSlot>
          <sendSlot preFader="false" sendOutputID="0" slotIndex="8">
            <component componentGuid="eaee4852-c339-4402-8344-80c4a7c03888" id="sendComponent" powered="false">
              <parameter index="0" name="Power On/Off" parameterValue="0"/>
              <parameter index="1" name="Level" parameterValue="0"/>
            </component>
            <component id="sendPan" powered="true"/>
          </sendSlot>
          <sendSlot preFader="false" sendOutputID="0" slotIndex="9">
            <component componentGuid="0debb79a-3398-471a-8396-7dee192947e7" id="sendComponent" powered="false">
              <parameter index="0" name="Power On/Off" parameterValue="0"/>
              <parameter index="1" name="Level" parameterValue="0"/>
            </component>
            <component id="sendPan" powered="true"/>
          </sendSlot>
          <sendSlot preFader="false" sendOutputID="0" slotIndex="10">
            <component componentGuid="95bb87f7-2064-4f6f-92bd-fcebeaeee0d6" id="sendComponent" powered="false">
              <parameter index="0" name="Power On/Off" parameterValue="0"/>
              <parameter index="1" name="Level" parameterValue="0"/>
            </component>
            <component id="sendPan" powered="true"/>
          </sendSlot>
          <sendSlot preFader="false" sendOutputID="0" slotIndex="11">
            <component componentGuid="a8a863ef-7f7d-4da7-a38e-1d061ed1f30a" id="sendComponent" powered="false">
              <parameter index="0" name="Power On/Off" parameterValue="0"/>
              <parameter index="1" name="Level" parameterValue="0"/>
            </component>
            <component id="sendPan" powered="true"/>
          </sendSlot>
          <sendSlot preFader="false" sendOutputID="0" slotIndex="12">
            <component componentGuid="f7d7df9f-69a9-4af3-bc09-caf62dd79188" id="sendComponent" powered="false">
              <parameter index="0" name="Power On/Off" parameterValue="0"/>
              <parameter index="1" name="Level" parameterValue="0"/>
            </component>
            <component id="sendPan" powered="true"/>
          </sendSlot>
          <sendSlot preFader="false" sendOutputID="0" slotIndex="13">
            <component componentGuid="bdf8e27a-2c45-4c72-a323-f6e3384310de" id="sendComponent" powered="false">
              <parameter index="0" name="Power On/Off" parameterValue="0"/>
              <parameter index="1" name="Level" parameterValue="0"/>
            </component>
            <component id="sendPan" powered="true"/>
          </sendSlot>
          <sendSlot preFader="false" sendOutputID="0" slotIndex="14">
            <component componentGuid="bdc84e45-501e-4c65-b773-ef675275fab2" id="sendComponent" powered="false">
              <parameter index="0" name="Power On/Off" parameterValue="0"/>
              <parameter index="1" name="Level" parameterValue="0"/>
            </component>
            <component id="sendPan" powered="true"/>
          </sendSlot>
          <sendSlot preFader="false" sendOutputID="0" slotIndex="15">
            <component componentGuid="b2e2a672-466e-43f3-a504-615113b48f08" id="sendComponent" powered="false">
              <parameter index="0" name="Power On/Off" parameterValue="0"/>
              <parameter index="1" name="Level" parameterValue="0"/>
            </component>
            <component id="sendPan" powered="true"/>
          </sendSlot>
        </sendList>
        <audioClip clipAutoCrossfade="true" crossFadeHeadClipID="-1" crossFadeTailClipID="-1" endPoint="32661" fileID="139" hue="-1" id="0" lockedInTime="false" looped="false" name="Track 3_017" offline="false" select="false" sourceInPoint="437685" sourceOutPoint="470346" startPoint="0" zOrder="2145914357">
          <component componentGuid="c45a080e-5afb-4d2e-b983-345fbf9f7a91" componentID="Audition.Fader" id="clipGain" name="volume" powered="true">
            <parameter index="0" name="volume" parameterValue="1.2985663"/>
            <parameter index="1" name="static gain" parameterValue="1"/>
          </component>
          <component componentGuid="b801ad52-931f-457d-9ab5-37652dbeba11" componentID="Audition.Mute" id="clipMute" name="Mute" powered="true">
            <parameter index="0" parameterValue="0"/>
            <parameter index="1" name="mute" parameterValue="0"/>
          </component>
          <component id="clipPan" powered="true"/>
          <fadeIn crossFadeLinkType="linkedAsymmetric" endPoint="9898" shape="13" startPoint="0" type="log"/>
          <fadeOut crossFadeLinkType="linkedAsymmetric" endPoint="32661" shape="0" startPoint="32661" type="cosine"/>
          <clipStretch adaptiveWindowSize="37" pitchAdjustment="0" preserveFormants="true" stretchMode="realtime" stretchQuality="high" stretchRatio="0.7804860563481254" stretchType="solo" transientSensitivity="40"/>
          <editParameter parameterIndex="0" slotIndex="4294967280"/>
          <channelMap>
            <channel index="0" sourceIndex="0"/>
          </channelMap>
        </audioClip>
        <audioClip clipAutoCrossfade="true" crossFadeHeadClipID="-1" crossFadeTailClipID="-1" endPoint="165093" fileID="140" hue="-1" id="1" lockedInTime="false" looped="false" name="Zahra_161" offline="false" select="false" sourceInPoint="32310" sourceOutPoint="164742" startPoint="32661" zOrder="2145915148">
          <component componentGuid="c4809fd5-b1ac-489a-bbba-1af44cb38677" componentID="Audition.Fader" id="clipGain" name="volume" powered="true">
            <parameter index="0" name="volume" parameterValue="1.8500289">
              <parameterKeyframes enableSplines="false">
                <parameterKeyframe sampleOffset="30659" select="false" type="linear" value="0.4184729"/>
                <parameterKeyframe sampleOffset="30660" select="false" type="linear" value="0.7322642"/>
                <parameterKeyframe sampleOffset="48699" select="true" type="linear" value="0.8064951"/>
              </parameterKeyframes>
            </parameter>
            <parameter index="1" name="static gain" parameterValue="1"/>
          </component>
          <component componentGuid="85932bee-d051-4071-a381-866676e61fd6" componentID="Audition.Mute" id="clipMute" name="Mute" powered="true">
            <parameter index="0" parameterValue="0"/>
            <parameter index="1" name="mute" parameterValue="0"/>
          </component>
          <component id="clipPan" powered="true"/>
          <fadeIn crossFadeLinkType="linkedAsymmetric" endPoint="0" shape="9" startPoint="0" type="log"/>
          <fadeOut crossFadeLinkType="linkedAsymmetric" endPoint="132432" shape="14" startPoint="100751" type="log"/>
          <take sourceInPoint="0"/>
          <editParameter parameterIndex="0" slotIndex="4294967280"/>
          <channelMap>
            <channel index="0" sourceIndex="0"/>
          </channelMap>
        </audioClip>
        <audioClip clipAutoCrossfade="true" crossFadeHeadClipID="-1" crossFadeTailClipID="-1" endPoint="222857" fileID="139" hue="-1" id="2" lockedInTime="false" looped="false" name="Track 3_017" offline="false" select="false" sourceInPoint="437685" sourceOutPoint="470346" startPoint="190196" zOrder="2145914370">
          <component componentGuid="fce33ff2-f717-4913-a82e-5985fdc90bc3" componentID="Audition.Fader" id="clipGain" name="volume" powered="true">
            <parameter index="0" name="volume" parameterValue="1.2743688"/>
            <parameter index="1" name="static gain" parameterValue="1"/>
          </component>
          <component componentGuid="29ed7f07-9295-4eb8-92a7-763f7cb1a0cb" componentID="Audition.Mute" id="clipMute" name="Mute" powered="true">
            <parameter index="0" parameterValue="0"/>
            <parameter index="1" name="mute" parameterValue="0"/>
          </component>
          <component id="clipPan" powered="true"/>
          <fadeIn crossFadeLinkType="linkedAsymmetric" endPoint="9898" shape="13" startPoint="0" type="log"/>
          <fadeOut crossFadeLinkType="linkedAsymmetric" endPoint="32661" shape="19" startPoint="32661" type="log"/>
          <clipStretch adaptiveWindowSize="37" pitchAdjustment="0" preserveFormants="true" stretchMode="realtime" stretchQuality="high" stretchRatio="0.7804860563481254" stretchType="solo" transientSensitivity="40"/>
          <editParameter parameterIndex="0" slotIndex="4294967280"/>
          <channelMap>
            <channel index="0" sourceIndex="0"/>
          </channelMap>
        </audioClip>
        <audioClip clipAutoCrossfade="true" crossFadeHeadClipID="-1" crossFadeTailClipID="-1" endPoint="343916" fileID="141" hue="-1" id="3" lockedInTime="false" looped="false" name="Zahra_162" offline="false" select="false" sourceInPoint="307683" sourceOutPoint="428742" startPoint="222857" zOrder="2145914374">
          <component componentGuid="7f3c648a-64b7-489c-a38b-2f881fe9d145" componentID="Audition.Fader" id="clipGain" name="volume" powered="true">
            <parameter index="0" name="volume" parameterValue="1.8097281">
              <parameterKeyframes enableSplines="false">
                <parameterKeyframe sampleOffset="305537" select="false" type="linear" value="0.7119726"/>
                <parameterKeyframe sampleOffset="324147" select="true" type="linear" value="0.8016046"/>
              </parameterKeyframes>
            </parameter>
            <parameter index="1" name="static gain" parameterValue="1"/>
          </component>
          <component componentGuid="5a258ce7-4fda-4f02-b1ee-bfd4287aa2f1" componentID="Audition.Mute" id="clipMute" name="Mute" powered="true">
            <parameter index="0" parameterValue="0"/>
            <parameter index="1" name="mute" parameterValue="0"/>
          </component>
          <component id="clipPan" powered="true"/>
          <fadeIn crossFadeLinkType="linkedAsymmetric" endPoint="0" shape="18" startPoint="0" type="log"/>
          <fadeOut crossFadeLinkType="linkedAsymmetric" endPoint="121059" shape="19" startPoint="121059" type="log"/>
          <take sourceInPoint="0"/>
          <editParameter parameterIndex="0" slotIndex="4294967280"/>
          <channelMap>
            <channel index="0" sourceIndex="0"/>
          </channelMap>
        </audioClip>
        <audioClip clipAutoCrossfade="true" crossFadeHeadClipID="-1" crossFadeTailClipID="-1" endPoint="439979" fileID="140" hue="-1" id="4" lockedInTime="false" looped="false" name="Zahra_161" offline="false" select="false" sourceInPoint="651659" sourceOutPoint="747722" startPoint="343916" zOrder="2145915149">
          <component componentGuid="7ef47c81-e086-4d94-a90e-ebba98d4f980" componentID="Audition.Fader" id="clipGain" name="volume" powered="true">
            <parameter index="0" name="volume" parameterValue="1.7706875"/>
            <parameter index="1" name="static gain" parameterValue="1"/>
          </component>
          <component componentGuid="d3a35df1-8724-437b-9f01-11c2c43fb509" componentID="Audition.Mute" id="clipMute" name="Mute" powered="true">
            <parameter index="0" parameterValue="0"/>
            <parameter index="1" name="mute" parameterValue="0"/>
          </component>
          <component id="clipPan" powered="true"/>
          <fadeIn crossFadeLinkType="linkedAsymmetric" endPoint="0" shape="19" startPoint="0" type="log"/>
          <fadeOut crossFadeLinkType="linkedAsymmetric" endPoint="96063" shape="0" startPoint="78595" type="log"/>
          <editParameter parameterIndex="0" slotIndex="4294967280"/>
          <channelMap>
            <channel index="0" sourceIndex="0"/>
          </channelMap>
        </audioClip>
        <audioClip clipAutoCrossfade="true" crossFadeHeadClipID="-1" crossFadeTailClipID="-1" endPoint="502644" fileID="139" hue="-1" id="5" lockedInTime="false" looped="false" name="Track 3_017" offline="false" select="false" sourceInPoint="437685" sourceOutPoint="470346" startPoint="469983" zOrder="2145914363">
          <component componentGuid="87001a8e-5474-4897-a789-2c742494f7ae" componentID="Audition.Fader" id="clipGain" name="volume" powered="true">
            <parameter index="0" name="volume" parameterValue="1.2985663"/>
            <parameter index="1" name="static gain" parameterValue="1"/>
          </component>
          <component componentGuid="f1ea4063-3920-40ca-878e-2c2c0d29cfa5" componentID="Audition.Mute" id="clipMute" name="Mute" powered="true">
            <parameter index="0" parameterValue="0"/>
            <parameter index="1" name="mute" parameterValue="0"/>
          </component>
          <component id="clipPan" powered="true"/>
          <fadeIn crossFadeLinkType="linkedAsymmetric" endPoint="9898" shape="13" startPoint="0" type="log"/>
          <fadeOut crossFadeLinkType="linkedAsymmetric" endPoint="32661" shape="0" startPoint="32661" type="cosine"/>
          <clipStretch adaptiveWindowSize="37" pitchAdjustment="0" preserveFormants="true" stretchMode="realtime" stretchQuality="high" stretchRatio="0.7804860563481254" stretchType="solo" transientSensitivity="40"/>
          <editParameter parameterIndex="0" slotIndex="4294967280"/>
          <channelMap>
            <channel index="0" sourceIndex="0"/>
          </channelMap>
        </audioClip>
        <audioClip clipAutoCrossfade="true" crossFadeHeadClipID="-1" crossFadeTailClipID="-1" endPoint="554653" fileID="142" hue="-1" id="6" lockedInTime="false" looped="false" name="Zahra_164" offline="false" select="false" sourceInPoint="285791" sourceOutPoint="337319" startPoint="503125" zOrder="2145915150">
          <component componentGuid="2c900353-e74b-4bb0-a7ff-d64d348d8000" componentID="Audition.Fader" id="clipGain" name="volume" powered="true">
            <parameter index="0" name="volume" parameterValue="1.2584687">
              <parameterKeyframes enableSplines="false">
                <parameterKeyframe sampleOffset="282199" select="false" type="linear" value="0.423399"/>
                <parameterKeyframe sampleOffset="285791" select="true" type="linear" value="0.7279671"/>
                <parameterKeyframe sampleOffset="292806" select="false" type="linear" value="0.7135761"/>
              </parameterKeyframes>
            </parameter>
            <parameter index="1" name="static gain" parameterValue="1"/>
          </component>
          <component componentGuid="1d5bbce8-5a03-420a-b60b-6caf5b01650e" componentID="Audition.Mute" id="clipMute" name="Mute" powered="true">
            <parameter index="0" parameterValue="0"/>
            <parameter index="1" name="mute" parameterValue="0"/>
          </component>
          <component id="clipPan" powered="true"/>
          <fadeIn crossFadeLinkType="linkedAsymmetric" endPoint="0" shape="13" startPoint="0" type="log"/>
          <fadeOut crossFadeLinkType="linkedAsymmetric" endPoint="51528" shape="19" startPoint="39662" type="log"/>
          <editParameter parameterIndex="0" slotIndex="4294967280"/>
          <channelMap>
            <channel index="0" sourceIndex="0"/>
          </channelMap>
        </audioClip>
        <audioClip clipAutoCrossfade="true" crossFadeHeadClipID="-1" crossFadeTailClipID="-1" endPoint="606334" fileID="139" hue="-1" id="7" lockedInTime="false" looped="false" name="Track 3_017" offline="false" select="false" sourceInPoint="437685" sourceOutPoint="470346" startPoint="573673" zOrder="2145914365">
          <component componentGuid="03274a01-2963-4d35-a45d-cec3868e28e2" componentID="Audition.Fader" id="clipGain" name="volume" powered="true">
            <parameter index="0" name="volume" parameterValue="1.2743678"/>
            <parameter index="1" name="static gain" parameterValue="1"/>
          </component>
          <component componentGuid="314ad8e4-c69c-4893-b3f4-dc2f462cae06" componentID="Audition.Mute" id="clipMute" name="Mute" powered="true">
            <parameter index="0" parameterValue="0"/>
            <parameter index="1" name="mute" parameterValue="0"/>
          </component>
          <component id="clipPan" powered="true"/>
          <fadeIn crossFadeLinkType="linkedAsymmetric" endPoint="9898" shape="13" startPoint="0" type="log"/>
          <fadeOut crossFadeLinkType="linkedAsymmetric" endPoint="32661" shape="19" startPoint="32661" type="log"/>
          <clipStretch adaptiveWindowSize="37" pitchAdjustment="0" preserveFormants="true" stretchMode="realtime" stretchQuality="high" stretchRatio="0.7804860563481254" stretchType="solo" transientSensitivity="40"/>
          <editParameter parameterIndex="0" slotIndex="4294967280"/>
          <channelMap>
            <channel index="0" sourceIndex="0"/>
          </channelMap>
        </audioClip>
        <audioClip clipAutoCrossfade="true" crossFadeHeadClipID="-1" crossFadeTailClipID="-1" endPoint="621404" fileID="142" hue="-1" id="8" lockedInTime="false" looped="false" name="Zahra_164" offline="false" select="false" sourceInPoint="631651" sourceOutPoint="646721" startPoint="606334" zOrder="2145915145">
          <component componentGuid="20918cb5-1c1c-4118-b03b-693259ebf7fb" componentID="Audition.Fader" id="clipGain" name="volume" powered="true">
            <parameter index="0" name="volume" parameterValue="1.2057284">
              <parameterKeyframes enableSplines="false">
                <parameterKeyframe sampleOffset="631651" select="false" type="linear" value="0.7022272"/>
                <parameterKeyframe sampleOffset="637153" select="true" type="linear" value="0.7771524"/>
              </parameterKeyframes>
            </parameter>
            <parameter index="1" name="static gain" parameterValue="1"/>
          </component>
          <component componentGuid="674262fd-33ca-4d96-9b1f-219f7f4ba57e" componentID="Audition.Mute" id="clipMute" name="Mute" powered="true">
            <parameter index="0" parameterValue="0"/>
            <parameter index="1" name="mute" parameterValue="0"/>
          </component>
          <component id="clipPan" powered="true"/>
          <fadeIn crossFadeLinkType="linkedAsymmetric" endPoint="0" shape="18" startPoint="0" type="log"/>
          <fadeOut crossFadeLinkType="linkedAsymmetric" endPoint="15070" shape="0" startPoint="15070" type="cosine"/>
          <editParameter parameterIndex="0" slotIndex="4294967280"/>
          <channelMap>
            <channel index="0" sourceIndex="0"/>
          </channelMap>
        </audioClip>
        <audioClip clipAutoCrossfade="true" crossFadeHeadClipID="-1" crossFadeTailClipID="-1" endPoint="657160" fileID="142" hue="-1" id="9" lockedInTime="false" looped="false" name="Zahra_164" offline="false" select="false" sourceInPoint="119640" sourceOutPoint="155396" startPoint="621404" zOrder="2145915151">
          <component componentGuid="34a67ed5-364a-4070-884a-d73e66c5bb5b" componentID="Audition.Fader" id="clipGain" name="volume" powered="true">
            <parameter index="0" name="volume" parameterValue="1.5926583"/>
            <parameter index="1" name="static gain" parameterValue="1"/>
          </component>
          <component componentGuid="0659ba58-5d43-4ba6-a673-1799c609c441" componentID="Audition.Mute" id="clipMute" name="Mute" powered="true">
            <parameter index="0" parameterValue="0"/>
            <parameter index="1" name="mute" parameterValue="0"/>
          </component>
          <component id="clipPan" powered="true"/>
          <fadeIn crossFadeLinkType="linkedAsymmetric" endPoint="0" shape="19" startPoint="0" type="log"/>
          <fadeOut crossFadeLinkType="linkedAsymmetric" endPoint="35756" shape="11" startPoint="31206" type="log"/>
          <take sourceInPoint="0"/>
          <editParameter parameterIndex="0" slotIndex="4294967280"/>
          <channelMap>
            <channel index="0" sourceIndex="0"/>
          </channelMap>
        </audioClip>
        <audioClip clipAutoCrossfade="true" crossFadeHeadClipID="-1" crossFadeTailClipID="-1" endPoint="780732" fileID="143" hue="-1" id="10" lockedInTime="false" looped="false" name="Zahra_165" offline="false" select="false" sourceInPoint="548792" sourceOutPoint="647340" startPoint="682184" zOrder="2145915158">
          <component componentGuid="b572d047-1b63-49ab-9514-d40d9510cefe" componentID="Audition.Fader" id="clipGain" name="volume" powered="true">
            <parameter index="0" name="volume" parameterValue="1.4980414"/>
            <parameter index="1" name="static gain" parameterValue="1"/>
          </component>
          <component componentGuid="130f1757-2109-4ca9-b4d9-489d6be2e358" componentID="Audition.Mute" id="clipMute" name="Mute" powered="true">
            <parameter index="0" parameterValue="0"/>
            <parameter index="1" name="mute" parameterValue="0"/>
          </component>
          <component id="clipPan" powered="true"/>
          <fadeIn crossFadeLinkType="linkedAsymmetric" endPoint="8691" shape="19" startPoint="0" type="log"/>
          <fadeOut crossFadeLinkType="linkedAsymmetric" endPoint="98548" shape="19" startPoint="93018" type="log"/>
          <editParameter parameterIndex="0" slotIndex="4294967280"/>
          <channelMap>
            <channel index="0" sourceIndex="0"/>
          </channelMap>
        </audioClip>
        <audioClip clipAutoCrossfade="true" crossFadeHeadClipID="-1" crossFadeTailClipID="-1" endPoint="850630" fileID="144" hue="-1" id="11" lockedInTime="false" looped="false" name="Zahra_166" offline="false" select="false" sourceInPoint="578533" sourceOutPoint="635363" startPoint="793800" zOrder="2145915160">
          <component componentGuid="848abc47-fa00-466b-95a9-d2487e70238b" componentID="Audition.Fader" id="clipGain" name="volume" powered="true">
            <parameter index="0" name="volume" parameterValue="1.4980414"/>
            <parameter index="1" name="static gain" parameterValue="1"/>
          </component>
          <component componentGuid="0bd64727-e7ed-44ec-b0f1-7cfae0afad14" componentID="Audition.Mute" id="clipMute" name="Mute" powered="true">
            <parameter index="0" parameterValue="0"/>
            <parameter index="1" name="mute" parameterValue="0"/>
          </component>
          <component id="clipPan" powered="true"/>
          <fadeIn crossFadeLinkType="linkedAsymmetric" endPoint="12082" shape="19" startPoint="0" type="log"/>
          <fadeOut crossFadeLinkType="linkedAsymmetric" endPoint="56830" shape="-6" startPoint="46562" type="log"/>
          <editParameter parameterIndex="0" slotIndex="4294967280"/>
          <channelMap>
            <channel index="0" sourceIndex="0"/>
          </channelMap>
        </audioClip>
        <audioClip clipAutoCrossfade="true" crossFadeHeadClipID="-1" crossFadeTailClipID="13" endPoint="958761" fileID="139" hue="-1" id="12" lockedInTime="false" looped="false" name="Track 3_017" offline="false" select="false" sourceInPoint="437685" sourceOutPoint="470346" startPoint="926100" zOrder="2145912858">
          <component componentGuid="80af6d80-e177-425b-9c79-db117ee65250" componentID="Audition.Fader" id="clipGain" name="volume" powered="true">
            <parameter index="0" name="volume" parameterValue="1.1962899"/>
            <parameter index="1" name="static gain" parameterValue="1"/>
          </component>
          <component componentGuid="4fa3d0c5-2e95-46d2-bf72-41dbe5ace20f" componentID="Audition.Mute" id="clipMute" name="Mute" powered="true">
            <parameter index="0" parameterValue="0"/>
            <parameter index="1" name="mute" parameterValue="0"/>
          </component>
          <component id="clipPan" powered="true"/>
          <fadeIn crossFadeLinkType="linkedAsymmetric" endPoint="9898" shape="13" startPoint="0" type="log"/>
          <fadeOut crossFadeLinkType="linkedAsymmetric" endPoint="32661" shape="19" startPoint="32162" type="log"/>
          <clipStretch adaptiveWindowSize="37" pitchAdjustment="0" preserveFormants="true" stretchMode="realtime" stretchQuality="high" stretchRatio="0.7804860563481254" stretchType="solo" transientSensitivity="40"/>
          <editParameter parameterIndex="0" slotIndex="4294967280"/>
          <channelMap>
            <channel index="0" sourceIndex="0"/>
          </channelMap>
        </audioClip>
        <audioClip clipAutoCrossfade="true" crossFadeHeadClipID="12" crossFadeTailClipID="-1" endPoint="1007803" fileID="145" hue="-1" id="13" lockedInTime="false" looped="false" name="Zahra_169" offline="false" select="false" sourceInPoint="678252" sourceOutPoint="727793" startPoint="958262" zOrder="2145913172">
          <component componentGuid="a6b40c55-7c6a-4d56-8389-35b93283cfe7" componentID="Audition.Fader" id="clipGain" name="volume" powered="true">
            <parameter index="0" name="volume" parameterValue="1.4078999">
              <parameterKeyframes enableSplines="false">
                <parameterKeyframe sampleOffset="677453" select="false" type="linear" value="0.423399"/>
                <parameterKeyframe sampleOffset="685835" select="true" type="linear" value="0.742308"/>
              </parameterKeyframes>
            </parameter>
            <parameter index="1" name="static gain" parameterValue="1"/>
          </component>
          <component componentGuid="6bd2124f-7fd4-4c50-8334-9d76333c27cc" componentID="Audition.Mute" id="clipMute" name="Mute" powered="true">
            <parameter index="0" parameterValue="0"/>
            <parameter index="1" name="mute" parameterValue="0"/>
          </component>
          <component id="clipPan" powered="true"/>
          <fadeIn crossFadeLinkType="linkedAsymmetric" endPoint="499" shape="18" startPoint="0" type="log"/>
          <fadeOut crossFadeLinkType="linkedAsymmetric" endPoint="49541" shape="0" startPoint="49541" type="cosine"/>
          <editParameter parameterIndex="0" slotIndex="4294967280"/>
          <channelMap>
            <channel index="0" sourceIndex="0"/>
          </channelMap>
        </audioClip>
        <audioClip clipAutoCrossfade="true" crossFadeHeadClipID="-1" crossFadeTailClipID="15" endPoint="1085362" fileID="145" hue="-1" id="14" lockedInTime="false" looped="false" name="Zahra_169" offline="false" select="false" sourceInPoint="683614" sourceOutPoint="761173" startPoint="1007803" zOrder="2145913174">
          <component componentGuid="506673ee-f8ab-464b-a669-0cc34399b777" componentID="Audition.Fader" id="clipGain" name="volume" powered="true">
            <parameter index="0" name="volume" parameterValue="1.5639663"/>
            <parameter index="1" name="static gain" parameterValue="1"/>
          </component>
          <component componentGuid="404cbf25-7a34-4663-a409-58ab16386c4a" componentID="Audition.Mute" id="clipMute" name="Mute" powered="true">
            <parameter index="0" parameterValue="0"/>
            <parameter index="1" name="mute" parameterValue="0"/>
          </component>
          <component id="clipPan" powered="true"/>
          <fadeIn crossFadeLinkType="linkedAsymmetric" endPoint="0" shape="0" startPoint="0" type="cosine"/>
          <fadeOut crossFadeLinkType="linkedAsymmetric" endPoint="77559" shape="18" startPoint="76555" type="log"/>
          <clipStretch adaptiveWindowSize="37" pitchAdjustment="0" preserveFormants="true" stretchMode="realtime" stretchQuality="high" stretchRatio="0.9105505991874732" stretchType="solo" transientSensitivity="40"/>
          <editParameter parameterIndex="0" slotIndex="4294967280"/>
          <channelMap>
            <channel index="0" sourceIndex="0"/>
          </channelMap>
        </audioClip>
        <audioClip clipAutoCrossfade="true" crossFadeHeadClipID="14" crossFadeTailClipID="-1" endPoint="1148477" fileID="145" hue="-1" id="15" lockedInTime="false" looped="false" name="Zahra_169" offline="false" select="false" sourceInPoint="214299" sourceOutPoint="278418" startPoint="1084358" zOrder="2145913193">
          <component componentGuid="8cfc2d86-de0e-4302-9e81-615f46f5875b" componentID="Audition.Fader" id="clipGain" name="volume" powered="true">
            <parameter index="0" name="volume" parameterValue="1">
              <parameterKeyframes enableSplines="false">
                <parameterKeyframe sampleOffset="239302" select="true" type="linear" value="0.7628205"/>
                <parameterKeyframe sampleOffset="259994" select="false" type="linear" value="0.65"/>
              </parameterKeyframes>
            </parameter>
            <parameter index="1" name="static gain" parameterValue="1"/>
          </component>
          <component componentGuid="43d2e638-6b20-49c3-88f4-a853336e80b6" componentID="Audition.Mute" id="clipMute" name="Mute" powered="true">
            <parameter index="0" parameterValue="0"/>
            <parameter index="1" name="mute" parameterValue="0"/>
          </component>
          <component id="clipPan" powered="true"/>
          <fadeIn crossFadeLinkType="linkedAsymmetric" endPoint="1004" shape="19" startPoint="0" type="log"/>
          <fadeOut crossFadeLinkType="linkedAsymmetric" endPoint="64119" shape="24" startPoint="48527" type="log"/>
          <take sourceInPoint="0"/>
          <editParameter parameterIndex="0" slotIndex="4294967280"/>
          <channelMap>
            <channel index="0" sourceIndex="0"/>
          </channelMap>
        </audioClip>
        <audioClip clipAutoCrossfade="true" crossFadeHeadClipID="-1" crossFadeTailClipID="-1" endPoint="1437720" fileID="145" hue="-1" id="16" lockedInTime="false" looped="false" name="Zahra_169" offline="false" select="false" sourceInPoint="1417145" sourceOutPoint="1634783" startPoint="1220082" zOrder="2145913199">
          <component componentGuid="f1bf32b6-5bcf-4536-a55b-8f04da41467e" componentID="Audition.Fader" id="clipGain" name="volume" powered="true">
            <parameter index="0" name="volume" parameterValue="2.1619"/>
            <parameter index="1" name="static gain" parameterValue="1"/>
          </component>
          <component componentGuid="ba1a45df-861c-426f-b4e4-fe2401a10588" componentID="Audition.Mute" id="clipMute" name="Mute" powered="true">
            <parameter index="0" parameterValue="0"/>
            <parameter index="1" name="mute" parameterValue="0"/>
          </component>
          <component id="clipPan" powered="true"/>
          <fadeIn crossFadeLinkType="linkedAsymmetric" endPoint="36170" shape="14" startPoint="0" type="log"/>
          <fadeOut crossFadeLinkType="linkedAsymmetric" endPoint="217638" shape="0" startPoint="192589" type="log"/>
          <editParameter parameterIndex="0" slotIndex="4294967280"/>
          <channelMap>
            <channel index="0" sourceIndex="0"/>
          </channelMap>
        </audioClip>
        <audioClip clipAutoCrossfade="true" crossFadeHeadClipID="-1" crossFadeTailClipID="-1" endPoint="1523001" fileID="139" hue="-1" id="17" lockedInTime="false" looped="false" name="Track 3_017" offline="false" select="false" sourceInPoint="437685" sourceOutPoint="470346" startPoint="1490340" zOrder="2145914048">
          <component componentGuid="ace10da0-0916-420c-babc-e4d30ec5e256" componentID="Audition.Fader" id="clipGain" name="volume" powered="true">
            <parameter index="0" name="volume" parameterValue="1.2634636"/>
            <parameter index="1" name="static gain" parameterValue="1"/>
          </component>
          <component componentGuid="1a23b251-e4cf-4290-b330-bc97a9a788ca" componentID="Audition.Mute" id="clipMute" name="Mute" powered="true">
            <parameter index="0" parameterValue="0"/>
            <parameter index="1" name="mute" parameterValue="0"/>
          </component>
          <component id="clipPan" powered="true"/>
          <fadeIn crossFadeLinkType="linkedAsymmetric" endPoint="9898" shape="13" startPoint="0" type="log"/>
          <fadeOut crossFadeLinkType="linkedAsymmetric" endPoint="32661" shape="0" startPoint="32661" type="cosine"/>
          <clipStretch adaptiveWindowSize="37" pitchAdjustment="0" preserveFormants="true" stretchMode="realtime" stretchQuality="high" stretchRatio="0.7804860563481254" stretchType="solo" transientSensitivity="40"/>
          <editParameter parameterIndex="0" slotIndex="4294967280"/>
          <channelMap>
            <channel index="0" sourceIndex="0"/>
          </channelMap>
        </audioClip>
        <audioClip clipAutoCrossfade="true" crossFadeHeadClipID="-1" crossFadeTailClipID="-1" endPoint="1724356" fileID="146" hue="-1" id="18" lockedInTime="false" looped="false" name="Zahra_170" offline="false" select="false" sourceInPoint="233435" sourceOutPoint="434790" startPoint="1523001" zOrder="2145914060">
          <component componentGuid="ef6eec69-6e13-4e19-8698-928b9445664e" componentID="Audition.Fader" id="clipGain" name="volume" powered="true">
            <parameter index="0" name="volume" parameterValue="1.3052837">
              <parameterKeyframes enableSplines="false">
                <parameterKeyframe sampleOffset="233171" select="false" type="linear" value="0.7230879"/>
                <parameterKeyframe sampleOffset="250030" select="true" type="linear" value="0.8253841"/>
              </parameterKeyframes>
            </parameter>
            <parameter index="1" name="static gain" parameterValue="1"/>
          </component>
          <component componentGuid="6763f84f-930e-4d61-82f8-e7237917edba" componentID="Audition.Mute" id="clipMute" name="Mute" powered="true">
            <parameter index="0" parameterValue="0"/>
            <parameter index="1" name="mute" parameterValue="0"/>
          </component>
          <component id="clipPan" powered="true"/>
          <fadeIn crossFadeLinkType="linkedAsymmetric" endPoint="0" shape="9" startPoint="0" type="log"/>
          <fadeOut crossFadeLinkType="linkedAsymmetric" endPoint="201355" shape="14" startPoint="174502" type="log"/>
          <editParameter parameterIndex="0" slotIndex="4294967280"/>
          <channelMap>
            <channel index="0" sourceIndex="0"/>
          </channelMap>
        </audioClip>
        <audioClip clipAutoCrossfade="true" crossFadeHeadClipID="-1" crossFadeTailClipID="-1" endPoint="1846701" fileID="146" hue="-1" id="19" lockedInTime="false" looped="false" name="Zahra_170" offline="false" select="false" sourceInPoint="754175" sourceOutPoint="820734" startPoint="1780142" zOrder="2145914061">
          <component componentGuid="77fdaa7a-bc9a-4d5b-930e-40baf3e552be" componentID="Audition.Fader" id="clipGain" name="volume" powered="true">
            <parameter index="0" name="volume" parameterValue="2.0185325"/>
            <parameter index="1" name="static gain" parameterValue="1"/>
          </component>
          <component componentGuid="7ab90e65-4f44-4b90-bb22-0c2a766bbbab" componentID="Audition.Mute" id="clipMute" name="Mute" powered="true">
            <parameter index="0" parameterValue="0"/>
            <parameter index="1" name="mute" parameterValue="0"/>
          </component>
          <component id="clipPan" powered="true"/>
          <fadeIn crossFadeLinkType="linkedAsymmetric" endPoint="18738" shape="17" startPoint="0" type="log"/>
          <fadeOut crossFadeLinkType="linkedAsymmetric" endPoint="66559" shape="15" startPoint="48238" type="log"/>
          <editParameter parameterIndex="0" slotIndex="4294967280"/>
          <channelMap>
            <channel index="0" sourceIndex="0"/>
          </channelMap>
        </audioClip>
        <audioClip clipAutoCrossfade="true" crossFadeHeadClipID="-1" crossFadeTailClipID="21" endPoint="1926619" fileID="139" hue="-1" id="20" lockedInTime="false" looped="false" name="Track 3_017" offline="false" select="false" sourceInPoint="437685" sourceOutPoint="470346" startPoint="1893958" zOrder="2145914064">
          <component componentGuid="deb4ad29-c5db-4974-9111-f9feff974836" componentID="Audition.Fader" id="clipGain" name="volume" powered="true">
            <parameter index="0" name="volume" parameterValue="1.3564798"/>
            <parameter index="1" name="static gain" parameterValue="1"/>
          </component>
          <component componentGuid="b3956650-7ad9-4575-a803-bf531f0e9e75" componentID="Audition.Mute" id="clipMute" name="Mute" powered="true">
            <parameter index="0" parameterValue="0"/>
            <parameter index="1" name="mute" parameterValue="0"/>
          </component>
          <component id="clipPan" powered="true"/>
          <fadeIn crossFadeLinkType="linkedAsymmetric" endPoint="9898" shape="13" startPoint="0" type="log"/>
          <fadeOut crossFadeLinkType="linkedAsymmetric" endPoint="32661" shape="18" startPoint="32010" type="log"/>
          <clipStretch adaptiveWindowSize="37" pitchAdjustment="0" preserveFormants="true" stretchMode="realtime" stretchQuality="high" stretchRatio="0.7804860563481254" stretchType="solo" transientSensitivity="40"/>
          <editParameter parameterIndex="0" slotIndex="4294967280"/>
          <channelMap>
            <channel index="0" sourceIndex="0"/>
          </channelMap>
        </audioClip>
        <audioClip clipAutoCrossfade="true" crossFadeHeadClipID="20" crossFadeTailClipID="-1" endPoint="1984500" fileID="147" hue="-1" id="21" lockedInTime="false" looped="false" name="Zahra_171" offline="false" select="false" sourceInPoint="54331" sourceOutPoint="112863" startPoint="1925968" zOrder="2145914067">
          <component componentGuid="147246e8-5976-4895-a0c7-f4cc457badff" componentID="Audition.Fader" id="clipGain" name="volume" powered="true">
            <parameter index="0" name="volume" parameterValue="1.4352825">
              <parameterKeyframes enableSplines="false">
                <parameterKeyframe sampleOffset="53945" select="false" type="linear" value="0.747097"/>
                <parameterKeyframe sampleOffset="67298" select="true" type="linear" value="0.8438457"/>
              </parameterKeyframes>
            </parameter>
            <parameter index="1" name="static gain" parameterValue="1"/>
          </component>
          <component componentGuid="7104ba8f-4dfd-4f15-b0eb-bfbf308b7c69" componentID="Audition.Mute" id="clipMute" name="Mute" powered="true">
            <parameter index="0" parameterValue="0"/>
            <parameter index="1" name="mute" parameterValue="0"/>
          </component>
          <component id="clipPan" powered="true"/>
          <fadeIn crossFadeLinkType="linkedAsymmetric" endPoint="651" shape="19" startPoint="0" type="log"/>
          <fadeOut crossFadeLinkType="linkedAsymmetric" endPoint="58532" shape="0" startPoint="58532" type="cosine"/>
          <take sourceInPoint="0"/>
          <editParameter parameterIndex="0" slotIndex="4294967280"/>
          <channelMap>
            <channel index="0" sourceIndex="0"/>
          </channelMap>
        </audioClip>
        <audioClip clipAutoCrossfade="true" crossFadeHeadClipID="-1" crossFadeTailClipID="-1" endPoint="2094718" fileID="147" hue="-1" id="22" lockedInTime="false" looped="false" name="Zahra_171" offline="false" select="false" sourceInPoint="620033" sourceOutPoint="730251" startPoint="1984500" zOrder="2145914078">
          <component componentGuid="5735ccc0-7928-4782-945c-98eae524bb03" componentID="Audition.Fader" id="clipGain" name="volume" powered="true">
            <parameter index="0" name="volume" parameterValue="2.3085999">
              <parameterKeyframes enableSplines="false">
                <parameterKeyframe sampleOffset="669148" select="false" type="linear" value="0.8530758"/>
                <parameterKeyframe sampleOffset="676084" select="false" type="linear" value="0.7607673"/>
                <parameterKeyframe sampleOffset="684690" select="true" type="linear" value="0.8346134"/>
              </parameterKeyframes>
            </parameter>
            <parameter index="1" name="static gain" parameterValue="1"/>
          </component>
          <component componentGuid="1a216e06-ce1b-477e-b1f0-2085704fb486" componentID="Audition.Mute" id="clipMute" name="Mute" powered="true">
            <parameter index="0" parameterValue="0"/>
            <parameter index="1" name="mute" parameterValue="0"/>
          </component>
          <component id="clipPan" powered="true"/>
          <fadeIn crossFadeLinkType="linkedAsymmetric" endPoint="0" shape="0" startPoint="0" type="cosine"/>
          <fadeOut crossFadeLinkType="linkedAsymmetric" endPoint="110218" shape="6" startPoint="99531" type="log"/>
          <editParameter parameterIndex="0" slotIndex="4294967280"/>
          <channelMap>
            <channel index="0" sourceIndex="0"/>
          </channelMap>
        </audioClip>
        <audioClip clipAutoCrossfade="true" crossFadeHeadClipID="-1" crossFadeTailClipID="24" endPoint="2234287" fileID="147" hue="-1" id="23" lockedInTime="false" looped="false" name="Zahra_171" offline="false" select="false" sourceInPoint="919661" sourceOutPoint="1007264" startPoint="2146684" zOrder="2145914080">
          <component componentGuid="b69c0781-059b-476c-b7ff-d7dc0fbbb26c" componentID="Audition.Fader" id="clipGain" name="volume" powered="true">
            <parameter index="0" name="volume" parameterValue="2.0185325"/>
            <parameter index="1" name="static gain" parameterValue="1"/>
          </component>
          <component componentGuid="42859658-8db7-42b7-8fe1-735f1f703404" componentID="Audition.Mute" id="clipMute" name="Mute" powered="true">
            <parameter index="0" parameterValue="0"/>
            <parameter index="1" name="mute" parameterValue="0"/>
          </component>
          <component id="clipPan" powered="true"/>
          <fadeIn crossFadeLinkType="linkedAsymmetric" endPoint="20255" shape="19" startPoint="0" type="log"/>
          <fadeOut crossFadeLinkType="linkedAsymmetric" endPoint="87603" shape="18" startPoint="84984" type="log"/>
          <editParameter parameterIndex="0" slotIndex="4294967280"/>
          <channelMap>
            <channel index="0" sourceIndex="0"/>
          </channelMap>
        </audioClip>
        <audioClip clipAutoCrossfade="true" crossFadeHeadClipID="23" crossFadeTailClipID="-1" endPoint="2400787" fileID="147" hue="-1" id="24" lockedInTime="false" looped="false" name="Zahra_171" offline="false" select="false" sourceInPoint="1014968" sourceOutPoint="1184087" startPoint="2231668" zOrder="2145914083">
          <component componentGuid="ead4d2bf-257b-4954-b168-db917db0cad1" componentID="Audition.Fader" id="clipGain" name="volume" powered="true">
            <parameter index="0" name="volume" parameterValue="2.0185292"/>
            <parameter index="1" name="static gain" parameterValue="1"/>
          </component>
          <component componentGuid="d089425c-c81d-4bcd-a869-d12cc12da24a" componentID="Audition.Mute" id="clipMute" name="Mute" powered="true">
            <parameter index="0" parameterValue="0"/>
            <parameter index="1" name="mute" parameterValue="0"/>
          </component>
          <component id="clipPan" powered="true"/>
          <fadeIn crossFadeLinkType="linkedAsymmetric" endPoint="2619" shape="19" startPoint="0" type="log"/>
          <fadeOut crossFadeLinkType="linkedAsymmetric" endPoint="169119" shape="0" startPoint="162368" type="log"/>
          <editParameter parameterIndex="0" slotIndex="4294967280"/>
          <channelMap>
            <channel index="0" sourceIndex="0"/>
          </channelMap>
        </audioClip>
        <audioClip clipAutoCrossfade="true" crossFadeHeadClipID="-1" crossFadeTailClipID="26" endPoint="2503786" fileID="139" hue="-1" id="25" lockedInTime="false" looped="false" name="Track 3_017" offline="false" select="false" sourceInPoint="437685" sourceOutPoint="470346" startPoint="2471125" zOrder="2145914096">
          <component componentGuid="ef5b6241-790e-45c7-b865-7d45b3d2860b" componentID="Audition.Fader" id="clipGain" name="volume" powered="true">
            <parameter index="0" name="volume" parameterValue="1.2339274"/>
            <parameter index="1" name="static gain" parameterValue="1"/>
          </component>
          <component componentGuid="ac3b3bb7-0237-44d1-8cb2-b5aefba456e9" componentID="Audition.Mute" id="clipMute" name="Mute" powered="true">
            <parameter index="0" parameterValue="0"/>
            <parameter index="1" name="mute" parameterValue="0"/>
          </component>
          <component id="clipPan" powered="true"/>
          <fadeIn crossFadeLinkType="linkedAsymmetric" endPoint="9898" shape="13" startPoint="0" type="log"/>
          <fadeOut crossFadeLinkType="linkedAsymmetric" endPoint="32661" shape="18" startPoint="31999" type="log"/>
          <clipStretch adaptiveWindowSize="37" pitchAdjustment="0" preserveFormants="true" stretchMode="realtime" stretchQuality="high" stretchRatio="0.7804860563481254" stretchType="solo" transientSensitivity="40"/>
          <editParameter parameterIndex="0" slotIndex="4294967280"/>
          <channelMap>
            <channel index="0" sourceIndex="0"/>
          </channelMap>
        </audioClip>
        <audioClip clipAutoCrossfade="true" crossFadeHeadClipID="25" crossFadeTailClipID="-1" endPoint="2656812" fileID="148" hue="-1" id="26" lockedInTime="false" looped="false" name="Zahra_173" offline="false" select="false" sourceInPoint="256175" sourceOutPoint="409863" startPoint="2503124" zOrder="2145914098">
          <component componentGuid="6c925cca-f9da-4c3f-92c6-c7120d9c27ae" componentID="Audition.Fader" id="clipGain" name="volume" powered="true">
            <parameter index="0" name="volume" parameterValue="1.23545">
              <parameterKeyframes enableSplines="false">
                <parameterKeyframe sampleOffset="256107" select="false" type="linear" value="0.7087092"/>
                <parameterKeyframe sampleOffset="272358" select="false" type="linear" value="0.8199636"/>
              </parameterKeyframes>
            </parameter>
            <parameter index="1" name="static gain" parameterValue="1"/>
          </component>
          <component componentGuid="73f1982f-b92c-4576-ae67-e3ac569caa88" componentID="Audition.Mute" id="clipMute" name="Mute" powered="true">
            <parameter index="0" parameterValue="0"/>
            <parameter index="1" name="mute" parameterValue="0"/>
          </component>
          <component id="clipPan" powered="true"/>
          <fadeIn crossFadeLinkType="linkedAsymmetric" endPoint="662" shape="19" startPoint="0" type="log"/>
          <fadeOut crossFadeLinkType="linkedAsymmetric" endPoint="153688" shape="6" startPoint="133382" type="log"/>
          <take sourceInPoint="0"/>
          <editParameter parameterIndex="0" slotIndex="4294967280"/>
          <channelMap>
            <channel index="0" sourceIndex="0"/>
          </channelMap>
        </audioClip>
        <audioClip clipAutoCrossfade="true" crossFadeHeadClipID="-1" crossFadeTailClipID="-1" endPoint="2785150" fileID="148" hue="-1" id="27" lockedInTime="false" looped="false" name="Zahra_173" offline="false" select="false" sourceInPoint="416970" sourceOutPoint="501301" startPoint="2700819" zOrder="2145914131">
          <component componentGuid="3e20b8be-1c44-4893-b111-5fcf13837eba" componentID="Audition.Fader" id="clipGain" name="volume" powered="true">
            <parameter index="0" name="volume" parameterValue="1.8160405"/>
            <parameter index="1" name="static gain" parameterValue="1"/>
          </component>
          <component componentGuid="f380bcd6-6cf5-4d89-8291-90649828ec8d" componentID="Audition.Mute" id="clipMute" name="Mute" powered="true">
            <parameter index="0" parameterValue="0"/>
            <parameter index="1" name="mute" parameterValue="0"/>
          </component>
          <component id="clipPan" powered="true"/>
          <fadeIn crossFadeLinkType="linkedAsymmetric" endPoint="19291" shape="19" startPoint="0" type="log"/>
          <fadeOut crossFadeLinkType="linkedAsymmetric" endPoint="84331" shape="0" startPoint="66055" type="log"/>
          <editParameter parameterIndex="0" slotIndex="4294967280"/>
          <channelMap>
            <channel index="0" sourceIndex="0"/>
          </channelMap>
        </audioClip>
        <audioClip clipAutoCrossfade="true" crossFadeHeadClipID="-1" crossFadeTailClipID="-1" endPoint="2903254" fileID="139" hue="-1" id="28" lockedInTime="false" looped="false" name="Track 3_017" offline="false" select="false" sourceInPoint="437685" sourceOutPoint="470346" startPoint="2870593" zOrder="2145914165">
          <component componentGuid="fee70729-2925-4553-96b8-bcbcb97b9ab3" componentID="Audition.Fader" id="clipGain" name="volume" powered="true">
            <parameter index="0" name="volume" parameterValue="1.3264422">
              <parameterKeyframes enableSplines="false">
                <parameterKeyframe sampleOffset="454051" select="true" type="linear" value="0.7272264"/>
              </parameterKeyframes>
            </parameter>
            <parameter index="1" name="static gain" parameterValue="1"/>
          </component>
          <component componentGuid="ca128495-aa80-4a42-ba98-75762943d678" componentID="Audition.Mute" id="clipMute" name="Mute" powered="true">
            <parameter index="0" parameterValue="0"/>
            <parameter index="1" name="mute" parameterValue="0"/>
          </component>
          <component id="clipPan" powered="true"/>
          <fadeIn crossFadeLinkType="linkedAsymmetric" endPoint="9898" shape="13" startPoint="0" type="log"/>
          <fadeOut crossFadeLinkType="linkedAsymmetric" endPoint="32661" shape="0" startPoint="32661" type="cosine"/>
          <clipStretch adaptiveWindowSize="37" pitchAdjustment="0" preserveFormants="true" stretchMode="realtime" stretchQuality="high" stretchRatio="0.7804860563481254" stretchType="solo" transientSensitivity="40"/>
          <editParameter parameterIndex="0" slotIndex="4294967280"/>
          <channelMap>
            <channel index="0" sourceIndex="0"/>
          </channelMap>
        </audioClip>
        <audioClip clipAutoCrossfade="true" crossFadeHeadClipID="-1" crossFadeTailClipID="-1" endPoint="3123955" fileID="149" hue="-1" id="29" lockedInTime="false" looped="false" name="Zahra_175" offline="false" select="false" sourceInPoint="85778" sourceOutPoint="306479" startPoint="2903254" zOrder="2145914138">
          <component componentGuid="e1cf5028-bfb8-4c8a-8d3d-ed2da28bf00c" componentID="Audition.Fader" id="clipGain" name="volume" powered="true">
            <parameter index="0" name="volume" parameterValue="0.3739791">
              <parameterKeyframes enableSplines="false">
                <parameterKeyframe sampleOffset="84363" select="false" type="linear" value="0.4184729"/>
                <parameterKeyframe sampleOffset="84798" select="false" type="linear" value="0.7280319"/>
                <parameterKeyframe sampleOffset="107096" select="true" type="linear" value="0.8082418"/>
              </parameterKeyframes>
            </parameter>
            <parameter index="1" name="static gain" parameterValue="1"/>
          </component>
          <component componentGuid="82ae4c63-6006-4fd9-b53e-2c5ff94afd37" componentID="Audition.Mute" id="clipMute" name="Mute" powered="true">
            <parameter index="0" parameterValue="0"/>
            <parameter index="1" name="mute" parameterValue="0"/>
          </component>
          <component id="clipPan" powered="true"/>
          <fadeIn crossFadeLinkType="linkedAsymmetric" endPoint="0" shape="19" startPoint="0" type="log"/>
          <fadeOut crossFadeLinkType="linkedAsymmetric" endPoint="220701" shape="8" startPoint="191359" type="log"/>
          <take sourceInPoint="0"/>
          <editParameter parameterIndex="0" slotIndex="4294967280"/>
          <channelMap>
            <channel index="0" sourceIndex="0"/>
          </channelMap>
        </audioClip>
        <audioClip clipAutoCrossfade="true" crossFadeHeadClipID="-1" crossFadeTailClipID="-1" endPoint="3343094" fileID="149" hue="-1" id="30" lockedInTime="false" looped="false" name="Zahra_175" offline="false" select="false" sourceInPoint="823060" sourceOutPoint="976057" startPoint="3190097" zOrder="2145914161">
          <component componentGuid="ce826b3a-9816-4e40-a73e-af089336c120" componentID="Audition.Fader" id="clipGain" name="volume" powered="true">
            <parameter index="0" name="volume" parameterValue="1.6805215"/>
            <parameter index="1" name="static gain" parameterValue="1"/>
          </component>
          <component componentGuid="0c27c4d8-ea3b-4ac3-a2c9-1ae79f44b5ba" componentID="Audition.Mute" id="clipMute" name="Mute" powered="true">
            <parameter index="0" parameterValue="0"/>
            <parameter index="1" name="mute" parameterValue="0"/>
          </component>
          <component id="clipPan" powered="true"/>
          <fadeIn crossFadeLinkType="linkedAsymmetric" endPoint="34946" shape="19" startPoint="0" type="log"/>
          <fadeOut crossFadeLinkType="linkedAsymmetric" endPoint="152997" shape="13" startPoint="152997" type="log"/>
          <editParameter parameterIndex="0" slotIndex="4294967280"/>
          <channelMap>
            <channel index="0" sourceIndex="0"/>
          </channelMap>
        </audioClip>
        <audioClip clipAutoCrossfade="true" crossFadeHeadClipID="-1" crossFadeTailClipID="-1" endPoint="3449067" fileID="149" hue="-1" id="31" lockedInTime="false" looped="false" name="Zahra_175" offline="false" select="false" sourceInPoint="1002332" sourceOutPoint="1108305" startPoint="3343094" zOrder="2145914160">
          <component componentGuid="4243df25-0fb1-4c27-a749-a4670a5e2719" componentID="Audition.Fader" id="clipGain" name="volume" powered="true">
            <parameter index="0" name="volume" parameterValue="1.3478358">
              <parameterKeyframes enableSplines="false">
                <parameterKeyframe sampleOffset="1000404" select="false" type="linear" value="0.7313148"/>
                <parameterKeyframe sampleOffset="1035868" select="true" type="linear" value="0.7906596"/>
              </parameterKeyframes>
            </parameter>
            <parameter index="1" name="static gain" parameterValue="1"/>
          </component>
          <component componentGuid="0baf4e24-2ad8-471e-8e24-e403f5639265" componentID="Audition.Mute" id="clipMute" name="Mute" powered="true">
            <parameter index="0" parameterValue="0"/>
            <parameter index="1" name="mute" parameterValue="0"/>
          </component>
          <component id="clipPan" powered="true"/>
          <fadeIn crossFadeLinkType="linkedAsymmetric" endPoint="0" shape="0" startPoint="0" type="cosine"/>
          <fadeOut crossFadeLinkType="linkedAsymmetric" endPoint="105973" shape="13" startPoint="71285" type="log"/>
          <editParameter parameterIndex="0" slotIndex="4294967280"/>
          <channelMap>
            <channel index="0" sourceIndex="0"/>
          </channelMap>
        </audioClip>
        <audioClip clipAutoCrossfade="true" crossFadeHeadClipID="-1" crossFadeTailClipID="33" endPoint="3570881" fileID="139" hue="-1" id="32" lockedInTime="false" looped="false" name="Track 3_017" offline="false" select="false" sourceInPoint="437685" sourceOutPoint="470346" startPoint="3538220" zOrder="2145914168">
          <component componentGuid="8e435bbd-416e-4311-9444-47c71de5e570" componentID="Audition.Fader" id="clipGain" name="volume" powered="true">
            <parameter index="0" name="volume" parameterValue="1.3517395"/>
            <parameter index="1" name="static gain" parameterValue="1"/>
          </component>
          <component componentGuid="aebd1dcf-c2b1-4498-84d7-36949527707d" componentID="Audition.Mute" id="clipMute" name="Mute" powered="true">
            <parameter index="0" parameterValue="0"/>
            <parameter index="1" name="mute" parameterValue="0"/>
          </component>
          <component id="clipPan" powered="true"/>
          <fadeIn crossFadeLinkType="linkedAsymmetric" endPoint="9898" shape="13" startPoint="0" type="log"/>
          <fadeOut crossFadeLinkType="linkedAsymmetric" endPoint="32661" shape="18" startPoint="31350" type="log"/>
          <clipStretch adaptiveWindowSize="37" pitchAdjustment="0" preserveFormants="true" stretchMode="realtime" stretchQuality="high" stretchRatio="0.7804860563481254" stretchType="solo" transientSensitivity="40"/>
          <editParameter parameterIndex="0" slotIndex="4294967280"/>
          <channelMap>
            <channel index="0" sourceIndex="0"/>
          </channelMap>
        </audioClip>
        <audioClip clipAutoCrossfade="true" crossFadeHeadClipID="32" crossFadeTailClipID="-1" endPoint="3773838" fileID="150" hue="-1" id="33" lockedInTime="false" looped="false" name="Zahra_176" offline="false" select="false" sourceInPoint="4845" sourceOutPoint="209113" startPoint="3569570" zOrder="2145914174">
          <component componentGuid="9a10b771-e9ce-4980-93b2-28d3b3f5d27f" componentID="Audition.Fader" id="clipGain" name="volume" powered="true">
            <parameter index="0" name="volume" parameterValue="1.3168215">
              <parameterKeyframes enableSplines="false">
                <parameterKeyframe sampleOffset="632" select="false" type="linear" value="0.7253566"/>
                <parameterKeyframe sampleOffset="31338" select="true" type="linear" value="0.7628205"/>
              </parameterKeyframes>
            </parameter>
            <parameter index="1" name="static gain" parameterValue="1"/>
          </component>
          <component componentGuid="133a5ad9-67b7-4b03-85b6-4ded3f5542eb" componentID="Audition.Mute" id="clipMute" name="Mute" powered="true">
            <parameter index="0" parameterValue="0"/>
            <parameter index="1" name="mute" parameterValue="0"/>
          </component>
          <component id="clipPan" powered="true"/>
          <fadeIn crossFadeLinkType="linkedAsymmetric" endPoint="1311" shape="19" startPoint="0" type="log"/>
          <fadeOut crossFadeLinkType="linkedAsymmetric" endPoint="204268" shape="12" startPoint="178852" type="log"/>
          <take sourceInPoint="0"/>
          <editParameter parameterIndex="0" slotIndex="4294967280"/>
          <channelMap>
            <channel index="0" sourceIndex="0"/>
          </channelMap>
        </audioClip>
        <audioClip clipAutoCrossfade="true" crossFadeHeadClipID="-1" crossFadeTailClipID="-1" endPoint="3951073" fileID="150" hue="-1" id="34" lockedInTime="false" looped="false" name="Zahra_176" offline="false" select="false" sourceInPoint="217139" sourceOutPoint="353770" startPoint="3814442" zOrder="2145914175">
          <component componentGuid="3292b7f8-5bc5-4b49-a718-4697cab5f5af" componentID="Audition.Fader" id="clipGain" name="volume" powered="true">
            <parameter index="0" name="volume" parameterValue="1.530811"/>
            <parameter index="1" name="static gain" parameterValue="1"/>
          </component>
          <component componentGuid="66ebee13-5cb9-4b85-a64c-c3585b102532" componentID="Audition.Mute" id="clipMute" name="Mute" powered="true">
            <parameter index="0" parameterValue="0"/>
            <parameter index="1" name="mute" parameterValue="0"/>
          </component>
          <component id="clipPan" powered="true"/>
          <fadeIn crossFadeLinkType="linkedAsymmetric" endPoint="28664" shape="19" startPoint="0" type="log"/>
          <fadeOut crossFadeLinkType="linkedAsymmetric" endPoint="136631" shape="11" startPoint="100711" type="log"/>
          <editParameter parameterIndex="0" slotIndex="4294967280"/>
          <channelMap>
            <channel index="0" sourceIndex="0"/>
          </channelMap>
        </audioClip>
        <audioClip clipAutoCrossfade="true" crossFadeHeadClipID="-1" crossFadeTailClipID="-1" endPoint="4040690" fileID="139" hue="-1" id="35" lockedInTime="false" looped="false" name="Track 3_017" offline="false" select="false" sourceInPoint="437685" sourceOutPoint="470346" startPoint="4008029" zOrder="2145914324">
          <component componentGuid="7bc9815d-e7dd-43c2-a158-9438f3ae1c67" componentID="Audition.Fader" id="clipGain" name="volume" powered="true">
            <parameter index="0" name="volume" parameterValue="1.2987702"/>
            <parameter index="1" name="static gain" parameterValue="1"/>
          </component>
          <component componentGuid="173eb732-9360-4384-99eb-650c2434b210" componentID="Audition.Mute" id="clipMute" name="Mute" powered="true">
            <parameter index="0" parameterValue="0"/>
            <parameter index="1" name="mute" parameterValue="0"/>
          </component>
          <component id="clipPan" powered="true"/>
          <fadeIn crossFadeLinkType="linkedAsymmetric" endPoint="9898" shape="13" startPoint="0" type="log"/>
          <fadeOut crossFadeLinkType="linkedAsymmetric" endPoint="32661" shape="0" startPoint="32661" type="cosine"/>
          <clipStretch adaptiveWindowSize="37" pitchAdjustment="0" preserveFormants="true" stretchMode="realtime" stretchQuality="high" stretchRatio="0.7804860563481254" stretchType="solo" transientSensitivity="40"/>
          <editParameter parameterIndex="0" slotIndex="4294967280"/>
          <channelMap>
            <channel index="0" sourceIndex="0"/>
          </channelMap>
        </audioClip>
        <audioClip clipAutoCrossfade="true" crossFadeHeadClipID="-1" crossFadeTailClipID="-1" endPoint="4089793" fileID="151" hue="-1" id="36" lockedInTime="false" looped="false" name="Zahra_178" offline="false" select="false" sourceInPoint="32409" sourceOutPoint="81512" startPoint="4040690" zOrder="2145914337">
          <component componentGuid="a0f34733-e92a-47f2-bdf5-6ce9fd4f06e6" componentID="Audition.Fader" id="clipGain" name="volume" powered="true">
            <parameter index="0" name="volume" parameterValue="1.4047664">
              <parameterKeyframes enableSplines="false">
                <parameterKeyframe sampleOffset="29282" select="false" type="linear" value="0.7417514"/>
                <parameterKeyframe sampleOffset="44724" select="false" type="linear" value="0.803845"/>
              </parameterKeyframes>
            </parameter>
            <parameter index="1" name="static gain" parameterValue="1"/>
          </component>
          <component componentGuid="19d07f2f-a9e8-48b2-8103-6cb16c8385f2" componentID="Audition.Mute" id="clipMute" name="Mute" powered="true">
            <parameter index="0" parameterValue="0"/>
            <parameter index="1" name="mute" parameterValue="0"/>
          </component>
          <component id="clipPan" powered="true"/>
          <fadeIn crossFadeLinkType="linkedAsymmetric" endPoint="0" shape="5" startPoint="0" type="log"/>
          <fadeOut crossFadeLinkType="linkedAsymmetric" endPoint="49103" shape="0" startPoint="49103" type="cosine"/>
          <take sourceInPoint="0"/>
          <editParameter parameterIndex="0" slotIndex="4294967280"/>
          <channelMap>
            <channel index="0" sourceIndex="0"/>
          </channelMap>
        </audioClip>
        <audioClip clipAutoCrossfade="true" crossFadeHeadClipID="-1" crossFadeTailClipID="-1" endPoint="4272097" fileID="151" hue="-1" id="37" lockedInTime="false" looped="false" name="Zahra_178" offline="false" select="false" sourceInPoint="103118" sourceOutPoint="285422" startPoint="4089793" zOrder="2145914340">
          <component componentGuid="f082d1a6-72e3-4fe6-82c0-b34135f98495" componentID="Audition.Fader" id="clipGain" name="volume" powered="true">
            <parameter index="0" name="volume" parameterValue="1.6698916"/>
            <parameter index="1" name="static gain" parameterValue="1"/>
          </component>
          <component componentGuid="7426695d-8898-4493-a9a7-6e5a592499b0" componentID="Audition.Mute" id="clipMute" name="Mute" powered="true">
            <parameter index="0" parameterValue="0"/>
            <parameter index="1" name="mute" parameterValue="0"/>
          </component>
          <component id="clipPan" powered="true"/>
          <fadeIn crossFadeLinkType="linkedAsymmetric" endPoint="0" shape="19" startPoint="0" type="log"/>
          <fadeOut crossFadeLinkType="linkedAsymmetric" endPoint="182304" shape="0" startPoint="182304" type="cosine"/>
          <editParameter parameterIndex="0" slotIndex="4294967280"/>
          <channelMap>
            <channel index="0" sourceIndex="0"/>
          </channelMap>
        </audioClip>
        <audioClip clipAutoCrossfade="true" crossFadeHeadClipID="-1" crossFadeTailClipID="-1" endPoint="4422235" fileID="151" hue="-1" id="38" lockedInTime="false" looped="false" name="Zahra_178" offline="false" select="false" sourceInPoint="301382" sourceOutPoint="451520" startPoint="4272097" zOrder="2145914339">
          <component componentGuid="ca8dfeed-72a8-4dff-9153-d959b3000369" componentID="Audition.Fader" id="clipGain" name="volume" powered="true">
            <parameter index="0" name="volume" parameterValue="1.6698853"/>
            <parameter index="1" name="static gain" parameterValue="1"/>
          </component>
          <component componentGuid="7caf7ecb-8236-47ec-b942-afaf38df5337" componentID="Audition.Mute" id="clipMute" name="Mute" powered="true">
            <parameter index="0" parameterValue="0"/>
            <parameter index="1" name="mute" parameterValue="0"/>
          </component>
          <component id="clipPan" powered="true"/>
          <fadeIn crossFadeLinkType="linkedAsymmetric" endPoint="0" shape="19" startPoint="0" type="log"/>
          <fadeOut crossFadeLinkType="linkedAsymmetric" endPoint="150138" shape="0" startPoint="150138" type="cosine"/>
          <editParameter parameterIndex="0" slotIndex="4294967280"/>
          <channelMap>
            <channel index="0" sourceIndex="0"/>
          </channelMap>
        </audioClip>
        <audioClip clipAutoCrossfade="true" crossFadeHeadClipID="-1" crossFadeTailClipID="-1" endPoint="4478952" fileID="151" hue="-1" id="39" lockedInTime="false" looped="false" name="Zahra_178" offline="false" select="false" sourceInPoint="463674" sourceOutPoint="520391" startPoint="4422235" zOrder="2145914352">
          <component componentGuid="bd25728c-2144-4a38-90dd-86159672c1de" componentID="Audition.Fader" id="clipGain" name="volume" powered="true">
            <parameter index="0" name="volume" parameterValue="1.669889">
              <parameterKeyframes enableSplines="false">
                <parameterKeyframe sampleOffset="473344" select="true" type="linear" value="0.7833326"/>
                <parameterKeyframe sampleOffset="507124" select="false" type="linear" value="0.8141019"/>
              </parameterKeyframes>
            </parameter>
            <parameter index="1" name="static gain" parameterValue="1"/>
          </component>
          <component componentGuid="1ee12795-6d8f-42fd-bcbf-0dc6caafc737" componentID="Audition.Mute" id="clipMute" name="Mute" powered="true">
            <parameter index="0" parameterValue="0"/>
            <parameter index="1" name="mute" parameterValue="0"/>
          </component>
          <component id="clipPan" powered="true"/>
          <fadeIn crossFadeLinkType="linkedAsymmetric" endPoint="0" shape="19" startPoint="0" type="log"/>
          <fadeOut crossFadeLinkType="linkedAsymmetric" endPoint="56717" shape="0" startPoint="56717" type="cosine"/>
          <editParameter parameterIndex="0" slotIndex="4294967280"/>
          <channelMap>
            <channel index="0" sourceIndex="0"/>
          </channelMap>
        </audioClip>
        <audioClip clipAutoCrossfade="true" crossFadeHeadClipID="-1" crossFadeTailClipID="-1" endPoint="4651643" fileID="151" hue="-1" id="40" lockedInTime="false" looped="false" name="Zahra_178" offline="false" select="false" sourceInPoint="529843" sourceOutPoint="702534" startPoint="4478952" zOrder="2145914355">
          <component componentGuid="9674939e-38fd-4427-8a18-e92226879a29" componentID="Audition.Fader" id="clipGain" name="volume" powered="true">
            <parameter index="0" name="volume" parameterValue="1.8280379"/>
            <parameter index="1" name="static gain" parameterValue="1"/>
          </component>
          <component componentGuid="8cb3ccc2-1535-419c-95e6-e500fb3574c3" componentID="Audition.Mute" id="clipMute" name="Mute" powered="true">
            <parameter index="0" parameterValue="0"/>
            <parameter index="1" name="mute" parameterValue="0"/>
          </component>
          <component id="clipPan" powered="true"/>
          <fadeIn crossFadeLinkType="linkedAsymmetric" endPoint="0" shape="19" startPoint="0" type="log"/>
          <fadeOut crossFadeLinkType="linkedAsymmetric" endPoint="172691" shape="0" startPoint="172691" type="cosine"/>
          <editParameter parameterIndex="0" slotIndex="4294967280"/>
          <channelMap>
            <channel index="0" sourceIndex="0"/>
          </channelMap>
        </audioClip>
        <audioClip clipAutoCrossfade="true" crossFadeHeadClipID="-1" crossFadeTailClipID="-1" endPoint="4731676" fileID="152" hue="-1" id="41" lockedInTime="false" looped="false" name="Zahra_179" offline="false" select="false" sourceInPoint="170709" sourceOutPoint="250742" startPoint="4651643" zOrder="2145914354">
          <component componentGuid="025e4146-d51e-418f-8bf3-d51f6e4a4cc2" componentID="Audition.Fader" id="clipGain" name="volume" powered="true">
            <parameter index="0" name="volume" parameterValue="2.0088189"/>
            <parameter index="1" name="static gain" parameterValue="1"/>
          </component>
          <component componentGuid="27405fab-4306-4f03-9276-e6c1b2b0e3a9" componentID="Audition.Mute" id="clipMute" name="Mute" powered="true">
            <parameter index="0" parameterValue="0"/>
            <parameter index="1" name="mute" parameterValue="0"/>
          </component>
          <component id="clipPan" powered="true"/>
          <fadeIn crossFadeLinkType="linkedAsymmetric" endPoint="0" shape="19" startPoint="0" type="log"/>
          <fadeOut crossFadeLinkType="linkedAsymmetric" endPoint="80033" shape="5" startPoint="70895" type="log"/>
          <take sourceInPoint="0"/>
          <editParameter parameterIndex="0" slotIndex="4294967280"/>
          <channelMap>
            <channel index="0" sourceIndex="0"/>
          </channelMap>
        </audioClip>
      </audioTrack>
      <audioTrack automationLaneOpenState="false" id="10009" index="9" select="false" visible="true">
        <trackParameters trackHeight="173" trackHue="220.9249734878540039" trackMinimized="false">
          <name>Track 1</name>
        </trackParameters>
        <trackAudioParameters audioChannelType="stereo" automationMode="1" monitoring="false" recordArmed="false" solo="false" soloSafe="false">
          <trackOutput outputID="10000" type="trackID"/>
          <trackInput inputID="1"/>
          <component componentGuid="216fc32f-db4e-4ef3-a0b6-bbb57345e455" componentID="Audition.Fader" id="trackFader" name="volume" powered="true">
            <parameter index="0" name="volume" parameterValue="1"/>
            <parameter index="1" name="static gain" parameterValue="1"/>
          </component>
          <component componentGuid="b75fe94f-efa8-4c64-81da-d986b5d4bbbb" componentID="Audition.Mute" id="trackMute" name="Mute" powered="true">
            <parameter index="0" parameterValue="0"/>
            <parameter index="1" name="mute" parameterValue="0"/>
          </component>
          <component componentGuid="1f2b5044-bc25-477e-9fb7-c85b9c5299e4" componentID="Audition.StereoPanner" id="trackPan" name="StereoPanner" powered="true">
            <parameter index="0" name="Pan" parameterValue="0"/>
          </component>
          <component componentGuid="a3908460-e573-45b9-93f0-4d86b21d5612" componentID="Audition.EQ" id="trackEQ" name="EQ" powered="false">
            <parameter index="0" name="Low Shelf Frequency" parameterValue="0.0009079"/>
            <parameter index="1" name="Low Shelf Gain" parameterValue="0.5"/>
            <parameter index="2" name="High Shelf Frequency" parameterValue="0.8161598"/>
            <parameter index="3" name="High Shelf Gain" parameterValue="0.5"/>
            <parameter index="4" name="EQ Band 1 Center Frequency" parameterValue="0.0013618"/>
            <parameter index="5" name="EQ Band 1 Q" parameterValue="0.0002"/>
            <parameter index="6" name="EQ Band 1 Gain" parameterValue="0.5"/>
            <parameter index="7" name="EQ Band 1 Enable" parameterValue="1"/>
            <parameter index="8" name="EQ Band 2 Center Frequency" parameterValue="0.0081707"/>
            <parameter index="9" name="EQ Band 2 Q" parameterValue="0.0002"/>
            <parameter index="10" name="EQ Band 2 Gain" parameterValue="0.5"/>
            <parameter index="11" name="EQ Band 2 Enable" parameterValue="1"/>
            <parameter index="12" name="EQ Band 3 Center Frequency" parameterValue="0.0354063"/>
            <parameter index="13" name="EQ Band 3 Q" parameterValue="0.0002"/>
            <parameter index="14" name="EQ Band 3 Gain" parameterValue="0.5"/>
            <parameter index="15" name="EQ Band 3 Enable" parameterValue="1"/>
            <parameter index="16" name="EQ Band 4 Center Frequency" parameterValue="0.1443486"/>
            <parameter index="17" name="EQ Band 4 Q" parameterValue="0.0002"/>
            <parameter index="18" name="EQ Band 4 Gain" parameterValue="0.5"/>
            <parameter index="19" name="EQ Band 4 Enable" parameterValue="1"/>
            <parameter index="20" name="EQ Band 5 Center Frequency" parameterValue="0.580118"/>
            <parameter index="21" name="EQ Band 5 Q" parameterValue="0.0002"/>
            <parameter index="22" name="EQ Band 5 Gain" parameterValue="0.5"/>
            <parameter index="23" name="EQ Band 5 Enable" parameterValue="1"/>
            <parameter index="24" name="Master Gain" parameterValue="0.6666667"/>
            <parameter index="25" name="ConstantQ" parameterValue="1"/>
            <parameter index="26" name="Low Shelf Filter Order" parameterValue="0"/>
            <parameter index="27" name="High Shelf Filter Order" parameterValue="0"/>
            <parameter index="28" name="Ultra-Quiet Mode" parameterValue="0"/>
            <parameter index="29" name="Low Shelf Enable" parameterValue="1"/>
            <parameter index="30" name="High Shelf Enable" parameterValue="1"/>
            <parameter index="31" name="Original Sample Rate" parameterValue="0.2296875"/>
            <parameter index="32" name="EQ Band 1 Bandwidth" parameterValue="0.0025"/>
            <parameter index="33" name="EQ Band 2 Bandwidth" parameterValue="0.01"/>
            <parameter index="34" name="EQ Band 3 Bandwidth" parameterValue="0.04"/>
            <parameter index="35" name="EQ Band 4 Bandwidth" parameterValue="0.16"/>
            <parameter index="36" name="EQ Band 5 Bandwidth" parameterValue="0.64"/>
            <parameter index="37" name="High-Pass Filter Enable" parameterValue="0"/>
            <parameter index="38" name="High-Pass Cutoff Frequency" parameterValue="0"/>
            <parameter index="39" name="High-Pass Slope" parameterValue="0.4"/>
            <parameter index="40" name="Low-Pass Filter Enable" parameterValue="0"/>
            <parameter index="41" name="Low-Pass Cutoff Frequency" parameterValue="0.906945"/>
            <parameter index="42" name="Low-Pass Slope" parameterValue="0.4"/>
            <parameter index="43" name="Bypass" parameterValue="0"/>
            <parameter index="44" name="LowGraphRange" parameterValue="1"/>
          </component>
        </trackAudioParameters>
        <editParameter parameterIndex="0" slotIndex="4294967280"/>
        <sendList>
          <sendSlot preFader="false" sendOutputID="0" slotIndex="0">
            <component componentGuid="8360c5e9-18b1-48ce-9783-c9ef5f1381ac" id="sendComponent" powered="false">
              <parameter index="0" name="Power On/Off" parameterValue="0"/>
              <parameter index="1" name="Level" parameterValue="0"/>
            </component>
            <component id="sendPan" powered="true"/>
          </sendSlot>
          <sendSlot preFader="false" sendOutputID="0" slotIndex="1">
            <component componentGuid="54a423ea-ba2b-4d2b-beeb-43d43a94eb34" id="sendComponent" powered="false">
              <parameter index="0" name="Power On/Off" parameterValue="0"/>
              <parameter index="1" name="Level" parameterValue="0"/>
            </component>
            <component id="sendPan" powered="true"/>
          </sendSlot>
          <sendSlot preFader="false" sendOutputID="0" slotIndex="2">
            <component componentGuid="a55c1084-6375-4bb1-83ae-beb412d631eb" id="sendComponent" powered="false">
              <parameter index="0" name="Power On/Off" parameterValue="0"/>
              <parameter index="1" name="Level" parameterValue="0"/>
            </component>
            <component id="sendPan" powered="true"/>
          </sendSlot>
          <sendSlot preFader="false" sendOutputID="0" slotIndex="3">
            <component componentGuid="fe1bc532-2e70-450c-8b47-58f546ba0f3c" id="sendComponent" powered="false">
              <parameter index="0" name="Power On/Off" parameterValue="0"/>
              <parameter index="1" name="Level" parameterValue="0"/>
            </component>
            <component id="sendPan" powered="true"/>
          </sendSlot>
          <sendSlot preFader="false" sendOutputID="0" slotIndex="4">
            <component componentGuid="e674a614-24ca-4bfa-a15a-6ad306d6e069" id="sendComponent" powered="false">
              <parameter index="0" name="Power On/Off" parameterValue="0"/>
              <parameter index="1" name="Level" parameterValue="0"/>
            </component>
            <component id="sendPan" powered="true"/>
          </sendSlot>
          <sendSlot preFader="false" sendOutputID="0" slotIndex="5">
            <component componentGuid="83e21b8f-e58f-4a16-a35e-66faa9c0c42e" id="sendComponent" powered="false">
              <parameter index="0" name="Power On/Off" parameterValue="0"/>
              <parameter index="1" name="Level" parameterValue="0"/>
            </component>
            <component id="sendPan" powered="true"/>
          </sendSlot>
          <sendSlot preFader="false" sendOutputID="0" slotIndex="6">
            <component componentGuid="1e2f2cd2-10ed-48f9-ac94-54bbff45a2e6" id="sendComponent" powered="false">
              <parameter index="0" name="Power On/Off" parameterValue="0"/>
              <parameter index="1" name="Level" parameterValue="0"/>
            </component>
            <component id="sendPan" powered="true"/>
          </sendSlot>
          <sendSlot preFader="false" sendOutputID="0" slotIndex="7">
            <component componentGuid="9d506d09-285d-450a-a6b9-95e004b9c3bb" id="sendComponent" powered="false">
              <parameter index="0" name="Power On/Off" parameterValue="0"/>
              <parameter index="1" name="Level" parameterValue="0"/>
            </component>
            <component id="sendPan" powered="true"/>
          </sendSlot>
          <sendSlot preFader="false" sendOutputID="0" slotIndex="8">
            <component componentGuid="ba5b06c3-03da-45c8-a453-fc46e2547ade" id="sendComponent" powered="false">
              <parameter index="0" name="Power On/Off" parameterValue="0"/>
              <parameter index="1" name="Level" parameterValue="0"/>
            </component>
            <component id="sendPan" powered="true"/>
          </sendSlot>
          <sendSlot preFader="false" sendOutputID="0" slotIndex="9">
            <component componentGuid="b648ce83-abf0-4e3f-b0ba-f5e51c9d1182" id="sendComponent" powered="false">
              <parameter index="0" name="Power On/Off" parameterValue="0"/>
              <parameter index="1" name="Level" parameterValue="0"/>
            </component>
            <component id="sendPan" powered="true"/>
          </sendSlot>
          <sendSlot preFader="false" sendOutputID="0" slotIndex="10">
            <component componentGuid="120ee0e3-12d0-4a0d-9944-f5552cc9682f" id="sendComponent" powered="false">
              <parameter index="0" name="Power On/Off" parameterValue="0"/>
              <parameter index="1" name="Level" parameterValue="0"/>
            </component>
            <component id="sendPan" powered="true"/>
          </sendSlot>
          <sendSlot preFader="false" sendOutputID="0" slotIndex="11">
            <component componentGuid="bb079ffa-f1f3-4bf3-9c29-53c3c8986715" id="sendComponent" powered="false">
              <parameter index="0" name="Power On/Off" parameterValue="0"/>
              <parameter index="1" name="Level" parameterValue="0"/>
            </component>
            <component id="sendPan" powered="true"/>
          </sendSlot>
          <sendSlot preFader="false" sendOutputID="0" slotIndex="12">
            <component componentGuid="235a620a-2baf-4a6f-8029-7d45e2fb4a3d" id="sendComponent" powered="false">
              <parameter index="0" name="Power On/Off" parameterValue="0"/>
              <parameter index="1" name="Level" parameterValue="0"/>
            </component>
            <component id="sendPan" powered="true"/>
          </sendSlot>
          <sendSlot preFader="false" sendOutputID="0" slotIndex="13">
            <component componentGuid="5c9a1d6e-126e-4db6-a00b-90cbe4f260fb" id="sendComponent" powered="false">
              <parameter index="0" name="Power On/Off" parameterValue="0"/>
              <parameter index="1" name="Level" parameterValue="0"/>
            </component>
            <component id="sendPan" powered="true"/>
          </sendSlot>
          <sendSlot preFader="false" sendOutputID="0" slotIndex="14">
            <component componentGuid="ec2005a1-7f1d-4b70-b322-f6a9d8a7a11d" id="sendComponent" powered="false">
              <parameter index="0" name="Power On/Off" parameterValue="0"/>
              <parameter index="1" name="Level" parameterValue="0"/>
            </component>
            <component id="sendPan" powered="true"/>
          </sendSlot>
          <sendSlot preFader="false" sendOutputID="0" slotIndex="15">
            <component componentGuid="8a9432a2-7727-4122-894f-0046987add0d" id="sendComponent" powered="false">
              <parameter index="0" name="Power On/Off" parameterValue="0"/>
              <parameter index="1" name="Level" parameterValue="0"/>
            </component>
            <component id="sendPan" powered="true"/>
          </sendSlot>
        </sendList>
      </audioTrack>
      <masterTrack automationLaneOpenState="false" id="10000" index="10" select="false" visible="true">
        <trackParameters trackHeight="173" trackHue="-1" trackMinimized="false">
          <name>Master</name>
        </trackParameters>
        <trackAudioParameters audioChannelType="stereo" automationMode="1" monitoring="false" recordArmed="false" solo="false" soloSafe="true">
          <trackOutput outputID="1" type="hardwareOutput"/>
          <trackInput inputID="-1"/>
          <component componentGuid="fd73d7b6-4a87-4e30-a655-94f9ed6f6483" componentID="Audition.Fader" id="trackFader" name="volume" powered="true">
            <parameter index="0" name="volume" parameterValue="1"/>
            <parameter index="1" name="static gain" parameterValue="1"/>
          </component>
          <component componentGuid="e9d25142-6968-4b65-b003-e0e48a19afb8" componentID="Audition.Mute" id="trackMute" name="Mute" powered="true">
            <parameter index="0" parameterValue="0"/>
            <parameter index="1" name="mute" parameterValue="0"/>
          </component>
          <component componentGuid="10d25a7f-888a-4ccd-86af-e545a3557d46" componentID="Audition.StereoPanner" id="trackPan" name="StereoPanner" powered="true">
            <parameter index="0" name="Pan" parameterValue="0"/>
          </component>
          <component componentGuid="9ffdf692-4fbe-4e5e-b49c-6ce77ea9948a" componentID="Audition.EQ" id="trackEQ" name="EQ" powered="false">
            <parameter index="0" name="Low Shelf Frequency" parameterValue="0.0009079"/>
            <parameter index="1" name="Low Shelf Gain" parameterValue="0.5"/>
            <parameter index="2" name="High Shelf Frequency" parameterValue="0.8161598"/>
            <parameter index="3" name="High Shelf Gain" parameterValue="0.5"/>
            <parameter index="4" name="EQ Band 1 Center Frequency" parameterValue="0.0013618"/>
            <parameter index="5" name="EQ Band 1 Q" parameterValue="0.0002"/>
            <parameter index="6" name="EQ Band 1 Gain" parameterValue="0.5"/>
            <parameter index="7" name="EQ Band 1 Enable" parameterValue="1"/>
            <parameter index="8" name="EQ Band 2 Center Frequency" parameterValue="0.0081707"/>
            <parameter index="9" name="EQ Band 2 Q" parameterValue="0.0002"/>
            <parameter index="10" name="EQ Band 2 Gain" parameterValue="0.5"/>
            <parameter index="11" name="EQ Band 2 Enable" parameterValue="1"/>
            <parameter index="12" name="EQ Band 3 Center Frequency" parameterValue="0.0354063"/>
            <parameter index="13" name="EQ Band 3 Q" parameterValue="0.0002"/>
            <parameter index="14" name="EQ Band 3 Gain" parameterValue="0.5"/>
            <parameter index="15" name="EQ Band 3 Enable" parameterValue="1"/>
            <parameter index="16" name="EQ Band 4 Center Frequency" parameterValue="0.1443486"/>
            <parameter index="17" name="EQ Band 4 Q" parameterValue="0.0002"/>
            <parameter index="18" name="EQ Band 4 Gain" parameterValue="0.5"/>
            <parameter index="19" name="EQ Band 4 Enable" parameterValue="1"/>
            <parameter index="20" name="EQ Band 5 Center Frequency" parameterValue="0.580118"/>
            <parameter index="21" name="EQ Band 5 Q" parameterValue="0.0002"/>
            <parameter index="22" name="EQ Band 5 Gain" parameterValue="0.5"/>
            <parameter index="23" name="EQ Band 5 Enable" parameterValue="1"/>
            <parameter index="24" name="Master Gain" parameterValue="0.6666667"/>
            <parameter index="25" name="ConstantQ" parameterValue="1"/>
            <parameter index="26" name="Low Shelf Filter Order" parameterValue="0"/>
            <parameter index="27" name="High Shelf Filter Order" parameterValue="0"/>
            <parameter index="28" name="Ultra-Quiet Mode" parameterValue="0"/>
            <parameter index="29" name="Low Shelf Enable" parameterValue="1"/>
            <parameter index="30" name="High Shelf Enable" parameterValue="1"/>
            <parameter index="31" name="Original Sample Rate" parameterValue="0.2296875"/>
            <parameter index="32" name="EQ Band 1 Bandwidth" parameterValue="0.0025"/>
            <parameter index="33" name="EQ Band 2 Bandwidth" parameterValue="0.01"/>
            <parameter index="34" name="EQ Band 3 Bandwidth" parameterValue="0.04"/>
            <parameter index="35" name="EQ Band 4 Bandwidth" parameterValue="0.16"/>
            <parameter index="36" name="EQ Band 5 Bandwidth" parameterValue="0.64"/>
            <parameter index="37" name="High-Pass Filter Enable" parameterValue="0"/>
            <parameter index="38" name="High-Pass Cutoff Frequency" parameterValue="0"/>
            <parameter index="39" name="High-Pass Slope" parameterValue="0.4"/>
            <parameter index="40" name="Low-Pass Filter Enable" parameterValue="0"/>
            <parameter index="41" name="Low-Pass Cutoff Frequency" parameterValue="0.906945"/>
            <parameter index="42" name="Low-Pass Slope" parameterValue="0.4"/>
            <parameter index="43" name="Bypass" parameterValue="0"/>
            <parameter index="44" name="LowGraphRange" parameterValue="1"/>
          </component>
        </trackAudioParameters>
        <editParameter parameterIndex="0" slotIndex="4294967280"/>
      </masterTrack>
    </tracks>
    <sessionState ctiPosition="1186811" smpteStart="0">
      <selectionState selectionDuration="0" selectionStart="1186811"/>
      <viewState horizontalViewDuration="811767" horizontalViewStart="649859" trackControlsWidth="158" verticalScrollOffset="-1260"/>
      <timeFormatState beatsPerBar="4" beatsPerMinute="120" customFrameRate="12" linkToDefaultTimeSettings="true" noteLength="4" subdivisions="16" timeCodeDropFrame="false" timeCodeFrameRate="30" timeCodeNTSC="false" timeFormat="timeFormatDecimal"/>
      <mixingOptionState defaultPanModeLogarithmic="false" panPower="-3"/>
    </sessionState>
    <xmpMetadata><![CDATA[<?xpacket begin="﻿" id="W5M0MpCehiHzreSzNTczkc9d"?>
<x:xmpmeta xmlns:x="adobe:ns:meta/" x:xmptk="Adobe XMP Core 5.6-c137 79.159768, 2016/08/11-13:24:42        ">
   <rdf:RDF xmlns:rdf="http://www.w3.org/1999/02/22-rdf-syntax-ns#">
      <rdf:Description rdf:about=""
            xmlns:xmp="http://ns.adobe.com/xap/1.0/"
            xmlns:xmpMM="http://ns.adobe.com/xap/1.0/mm/"
            xmlns:stEvt="http://ns.adobe.com/xap/1.0/sType/ResourceEvent#"
            xmlns:stRef="http://ns.adobe.com/xap/1.0/sType/ResourceRef#"
            xmlns:dc="http://purl.org/dc/elements/1.1/"
            xmlns:xmpDM="http://ns.adobe.com/xmp/1.0/DynamicMedia/">
         <xmp:CreatorTool>Adobe Audition CC 2017.0 (Macintosh)</xmp:CreatorTool>
         <xmp:CreateDate>2017-04-09T15:18:31-07:00</xmp:CreateDate>
         <xmp:MetadataDate>2017-04-16T16:11:11-04:00</xmp:MetadataDate>
         <xmp:ModifyDate>2017-04-16T16:11:11-04:00</xmp:ModifyDate>
         <xmpMM:InstanceID>xmp.iid:a4027108-f280-d240-a204-b6690637937e</xmpMM:InstanceID>
         <xmpMM:DocumentID>xmp.did:0c665307-8e86-4b4e-add7-5609e6886986</xmpMM:DocumentID>
         <xmpMM:OriginalDocumentID>xmp.did:c144336c-9b86-42fa-8487-9cc21c996b2d</xmpMM:OriginalDocumentID>
         <xmpMM:History>
            <rdf:Seq>
               <rdf:li rdf:parseType="Resource">
                  <stEvt:action>saved</stEvt:action>
                  <stEvt:instanceID>xmp.iid:c144336c-9b86-42fa-8487-9cc21c996b2d</stEvt:instanceID>
                  <stEvt:when>2017-04-09T15:18:31-07:00</stEvt:when>
                  <stEvt:softwareAgent>Adobe Audition CC 2017.0 (Macintosh)</stEvt:softwareAgent>
                  <stEvt:changed>/metadata</stEvt:changed>
               </rdf:li>
               <rdf:li rdf:parseType="Resource">
                  <stEvt:action>saved</stEvt:action>
                  <stEvt:instanceID>xmp.iid:daa16ac2-67bc-4b51-bc8d-5dc55e9c77bd</stEvt:instanceID>
                  <stEvt:when>2017-04-09T15:18:31-07:00</stEvt:when>
                  <stEvt:softwareAgent>Adobe Audition CC 2017.0 (Macintosh)</stEvt:softwareAgent>
                  <stEvt:changed>/metadata</stEvt:changed>
               </rdf:li>
               <rdf:li rdf:parseType="Resource">
                  <stEvt:action>saved</stEvt:action>
                  <stEvt:instanceID>xmp.iid:aa91cee1-ed2f-4d0f-b9ce-4cde603c1c3a</stEvt:instanceID>
                  <stEvt:when>2017-04-09T15:18:31-07:00</stEvt:when>
                  <stEvt:softwareAgent>Adobe Audition CC 2017.0 (Macintosh)</stEvt:softwareAgent>
                  <stEvt:changed>/</stEvt:changed>
               </rdf:li>
               <rdf:li rdf:parseType="Resource">
                  <stEvt:action>saved</stEvt:action>
                  <stEvt:instanceID>xmp.iid:4877b7aa-7421-43cf-943d-e03481e95603</stEvt:instanceID>
                  <stEvt:when>2017-04-09T15:18:31-07:00</stEvt:when>
                  <stEvt:softwareAgent>Adobe Audition CC 2017.0 (Macintosh)</stEvt:softwareAgent>
                  <stEvt:changed>/metadata</stEvt:changed>
               </rdf:li>
               <rdf:li rdf:parseType="Resource">
                  <stEvt:action>saved</stEvt:action>
                  <stEvt:instanceID>xmp.iid:a84ac72b-1e11-4188-8fa2-188bc4137c1b</stEvt:instanceID>
                  <stEvt:when>2017-04-09T15:18:31-07:00</stEvt:when>
                  <stEvt:softwareAgent>Adobe Audition CC 2017.0 (Macintosh)</stEvt:softwareAgent>
                  <stEvt:changed>/</stEvt:changed>
               </rdf:li>
               <rdf:li rdf:parseType="Resource">
                  <stEvt:action>saved</stEvt:action>
                  <stEvt:instanceID>xmp.iid:972cef97-8af3-4081-bee1-a85b6f235496</stEvt:instanceID>
                  <stEvt:when>2017-04-09T15:24:16-07:00</stEvt:when>
                  <stEvt:softwareAgent>Adobe Audition CC 2017.0 (Macintosh)</stEvt:softwareAgent>
                  <stEvt:changed>/metadata</stEvt:changed>
               </rdf:li>
               <rdf:li rdf:parseType="Resource">
                  <stEvt:action>saved</stEvt:action>
                  <stEvt:instanceID>xmp.iid:e003c8b0-50d2-45b3-9262-8e4c0c0dced9</stEvt:instanceID>
                  <stEvt:when>2017-04-09T15:24:16-07:00</stEvt:when>
                  <stEvt:softwareAgent>Adobe Audition CC 2017.0 (Macintosh)</stEvt:softwareAgent>
                  <stEvt:changed>/</stEvt:changed>
               </rdf:li>
               <rdf:li rdf:parseType="Resource">
                  <stEvt:action>saved</stEvt:action>
                  <stEvt:instanceID>xmp.iid:9ba98435-5fba-40e3-baee-928c407d9d85</stEvt:instanceID>
                  <stEvt:when>2017-04-09T15:24:23-07:00</stEvt:when>
                  <stEvt:softwareAgent>Adobe Audition CC 2017.0 (Macintosh)</stEvt:softwareAgent>
                  <stEvt:changed>/metadata</stEvt:changed>
               </rdf:li>
               <rdf:li rdf:parseType="Resource">
                  <stEvt:action>saved</stEvt:action>
                  <stEvt:instanceID>xmp.iid:594c55a0-4040-4da6-8ac2-052f3ee47fc0</stEvt:instanceID>
                  <stEvt:when>2017-04-09T15:24:23-07:00</stEvt:when>
                  <stEvt:softwareAgent>Adobe Audition CC 2017.0 (Macintosh)</stEvt:softwareAgent>
                  <stEvt:changed>/</stEvt:changed>
               </rdf:li>
               <rdf:li rdf:parseType="Resource">
                  <stEvt:action>saved</stEvt:action>
                  <stEvt:instanceID>xmp.iid:0deb960a-7c9a-4849-a552-62025b614a03</stEvt:instanceID>
                  <stEvt:when>2017-04-09T15:24:31-07:00</stEvt:when>
                  <stEvt:softwareAgent>Adobe Audition CC 2017.0 (Macintosh)</stEvt:softwareAgent>
                  <stEvt:changed>/metadata</stEvt:changed>
               </rdf:li>
               <rdf:li rdf:parseType="Resource">
                  <stEvt:action>saved</stEvt:action>
                  <stEvt:instanceID>xmp.iid:a3cedd67-0e41-45ec-ad53-3a61bfd8f235</stEvt:instanceID>
                  <stEvt:when>2017-04-09T15:24:31-07:00</stEvt:when>
                  <stEvt:softwareAgent>Adobe Audition CC 2017.0 (Macintosh)</stEvt:softwareAgent>
                  <stEvt:changed>/</stEvt:changed>
               </rdf:li>
               <rdf:li rdf:parseType="Resource">
                  <stEvt:action>saved</stEvt:action>
                  <stEvt:instanceID>xmp.iid:fec9371c-f206-4834-a998-54d3b6d949ca</stEvt:instanceID>
                  <stEvt:when>2017-04-09T15:27:31-07:00</stEvt:when>
                  <stEvt:softwareAgent>Adobe Audition CC 2017.0 (Macintosh)</stEvt:softwareAgent>
                  <stEvt:changed>/metadata</stEvt:changed>
               </rdf:li>
               <rdf:li rdf:parseType="Resource">
                  <stEvt:action>saved</stEvt:action>
                  <stEvt:instanceID>xmp.iid:51aa106c-362f-44a4-a496-9bcf7b0f9e21</stEvt:instanceID>
                  <stEvt:when>2017-04-09T15:27:31-07:00</stEvt:when>
                  <stEvt:softwareAgent>Adobe Audition CC 2017.0 (Macintosh)</stEvt:softwareAgent>
                  <stEvt:changed>/</stEvt:changed>
               </rdf:li>
               <rdf:li rdf:parseType="Resource">
                  <stEvt:action>saved</stEvt:action>
                  <stEvt:instanceID>xmp.iid:ad602d48-a8dc-4710-ae83-35889f9a8b7f</stEvt:instanceID>
                  <stEvt:when>2017-04-09T15:28:31-07:00</stEvt:when>
                  <stEvt:softwareAgent>Adobe Audition CC 2017.0 (Macintosh)</stEvt:softwareAgent>
                  <stEvt:changed>/metadata</stEvt:changed>
               </rdf:li>
               <rdf:li rdf:parseType="Resource">
                  <stEvt:action>saved</stEvt:action>
                  <stEvt:instanceID>xmp.iid:6f18b96a-e043-4177-8638-f6867ce34224</stEvt:instanceID>
                  <stEvt:when>2017-04-09T15:28:31-07:00</stEvt:when>
                  <stEvt:softwareAgent>Adobe Audition CC 2017.0 (Macintosh)</stEvt:softwareAgent>
                  <stEvt:changed>/</stEvt:changed>
               </rdf:li>
               <rdf:li rdf:parseType="Resource">
                  <stEvt:action>saved</stEvt:action>
                  <stEvt:instanceID>xmp.iid:588d4777-825f-4236-ae69-7c1ee3b2f858</stEvt:instanceID>
                  <stEvt:when>2017-04-09T15:33:31-07:00</stEvt:when>
                  <stEvt:softwareAgent>Adobe Audition CC 2017.0 (Macintosh)</stEvt:softwareAgent>
                  <stEvt:changed>/metadata</stEvt:changed>
               </rdf:li>
               <rdf:li rdf:parseType="Resource">
                  <stEvt:action>saved</stEvt:action>
                  <stEvt:instanceID>xmp.iid:d6e2889b-c19d-4095-9a83-a873a0585862</stEvt:instanceID>
                  <stEvt:when>2017-04-09T15:33:31-07:00</stEvt:when>
                  <stEvt:softwareAgent>Adobe Audition CC 2017.0 (Macintosh)</stEvt:softwareAgent>
                  <stEvt:changed>/</stEvt:changed>
               </rdf:li>
               <rdf:li rdf:parseType="Resource">
                  <stEvt:action>saved</stEvt:action>
                  <stEvt:instanceID>xmp.iid:441520fc-7262-4b43-8d53-ca4d92db02e6</stEvt:instanceID>
                  <stEvt:when>2017-04-09T15:38:31-07:00</stEvt:when>
                  <stEvt:softwareAgent>Adobe Audition CC 2017.0 (Macintosh)</stEvt:softwareAgent>
                  <stEvt:changed>/metadata</stEvt:changed>
               </rdf:li>
               <rdf:li rdf:parseType="Resource">
                  <stEvt:action>saved</stEvt:action>
                  <stEvt:instanceID>xmp.iid:89c93839-c49e-4885-a3ad-f01851eef408</stEvt:instanceID>
                  <stEvt:when>2017-04-09T15:38:31-07:00</stEvt:when>
                  <stEvt:softwareAgent>Adobe Audition CC 2017.0 (Macintosh)</stEvt:softwareAgent>
                  <stEvt:changed>/</stEvt:changed>
               </rdf:li>
               <rdf:li rdf:parseType="Resource">
                  <stEvt:action>saved</stEvt:action>
                  <stEvt:instanceID>xmp.iid:d8cfe313-a21d-4dec-8e84-302c5d12c606</stEvt:instanceID>
                  <stEvt:when>2017-04-09T15:41:16-07:00</stEvt:when>
                  <stEvt:softwareAgent>Adobe Audition CC 2017.0 (Macintosh)</stEvt:softwareAgent>
                  <stEvt:changed>/metadata</stEvt:changed>
               </rdf:li>
               <rdf:li rdf:parseType="Resource">
                  <stEvt:action>saved</stEvt:action>
                  <stEvt:instanceID>xmp.iid:b03c2006-e4a7-48bf-a618-0ecbd538813a</stEvt:instanceID>
                  <stEvt:when>2017-04-09T15:41:16-07:00</stEvt:when>
                  <stEvt:softwareAgent>Adobe Audition CC 2017.0 (Macintosh)</stEvt:softwareAgent>
                  <stEvt:changed>/</stEvt:changed>
               </rdf:li>
               <rdf:li rdf:parseType="Resource">
                  <stEvt:action>saved</stEvt:action>
                  <stEvt:instanceID>xmp.iid:4ea00469-ceca-4519-9c90-163a06e1a0c3</stEvt:instanceID>
                  <stEvt:when>2017-04-09T15:44:16-07:00</stEvt:when>
                  <stEvt:softwareAgent>Adobe Audition CC 2017.0 (Macintosh)</stEvt:softwareAgent>
                  <stEvt:changed>/metadata</stEvt:changed>
               </rdf:li>
               <rdf:li rdf:parseType="Resource">
                  <stEvt:action>saved</stEvt:action>
                  <stEvt:instanceID>xmp.iid:d07ac62a-a1bc-4f5e-80a7-d9ac54ffdcdf</stEvt:instanceID>
                  <stEvt:when>2017-04-09T15:44:16-07:00</stEvt:when>
                  <stEvt:softwareAgent>Adobe Audition CC 2017.0 (Macintosh)</stEvt:softwareAgent>
                  <stEvt:changed>/</stEvt:changed>
               </rdf:li>
               <rdf:li rdf:parseType="Resource">
                  <stEvt:action>saved</stEvt:action>
                  <stEvt:instanceID>xmp.iid:cdc4721c-3a0f-4a2e-883f-dee46144c95e</stEvt:instanceID>
                  <stEvt:when>2017-04-09T15:47:41-07:00</stEvt:when>
                  <stEvt:softwareAgent>Adobe Audition CC 2017.0 (Macintosh)</stEvt:softwareAgent>
                  <stEvt:changed>/metadata</stEvt:changed>
               </rdf:li>
               <rdf:li rdf:parseType="Resource">
                  <stEvt:action>saved</stEvt:action>
                  <stEvt:instanceID>xmp.iid:248dfb50-30a1-457a-ac18-6805b114b446</stEvt:instanceID>
                  <stEvt:when>2017-04-09T15:47:41-07:00</stEvt:when>
                  <stEvt:softwareAgent>Adobe Audition CC 2017.0 (Macintosh)</stEvt:softwareAgent>
                  <stEvt:changed>/</stEvt:changed>
               </rdf:li>
               <rdf:li rdf:parseType="Resource">
                  <stEvt:action>saved</stEvt:action>
                  <stEvt:instanceID>xmp.iid:dd8239ee-5970-43a5-bf57-b7f681b54d4e</stEvt:instanceID>
                  <stEvt:when>2017-04-09T15:48:31-07:00</stEvt:when>
                  <stEvt:softwareAgent>Adobe Audition CC 2017.0 (Macintosh)</stEvt:softwareAgent>
                  <stEvt:changed>/metadata</stEvt:changed>
               </rdf:li>
               <rdf:li rdf:parseType="Resource">
                  <stEvt:action>saved</stEvt:action>
                  <stEvt:instanceID>xmp.iid:70b80722-7207-4c7c-95d7-e239f367ee57</stEvt:instanceID>
                  <stEvt:when>2017-04-09T15:48:31-07:00</stEvt:when>
                  <stEvt:softwareAgent>Adobe Audition CC 2017.0 (Macintosh)</stEvt:softwareAgent>
                  <stEvt:changed>/</stEvt:changed>
               </rdf:li>
               <rdf:li rdf:parseType="Resource">
                  <stEvt:action>saved</stEvt:action>
                  <stEvt:instanceID>xmp.iid:071a4c5c-b13b-4a2f-837d-4c9712078ff8</stEvt:instanceID>
                  <stEvt:when>2017-04-09T15:50:41-07:00</stEvt:when>
                  <stEvt:softwareAgent>Adobe Audition CC 2017.0 (Macintosh)</stEvt:softwareAgent>
                  <stEvt:changed>/metadata</stEvt:changed>
               </rdf:li>
               <rdf:li rdf:parseType="Resource">
                  <stEvt:action>saved</stEvt:action>
                  <stEvt:instanceID>xmp.iid:e368861c-f232-4dff-809c-d94403f38a01</stEvt:instanceID>
                  <stEvt:when>2017-04-09T15:50:41-07:00</stEvt:when>
                  <stEvt:softwareAgent>Adobe Audition CC 2017.0 (Macintosh)</stEvt:softwareAgent>
                  <stEvt:changed>/</stEvt:changed>
               </rdf:li>
               <rdf:li rdf:parseType="Resource">
                  <stEvt:action>saved</stEvt:action>
                  <stEvt:instanceID>xmp.iid:d76924e9-07fc-4f73-b5f5-336addcfdeab</stEvt:instanceID>
                  <stEvt:when>2017-04-09T15:53:41-07:00</stEvt:when>
                  <stEvt:softwareAgent>Adobe Audition CC 2017.0 (Macintosh)</stEvt:softwareAgent>
                  <stEvt:changed>/metadata</stEvt:changed>
               </rdf:li>
               <rdf:li rdf:parseType="Resource">
                  <stEvt:action>saved</stEvt:action>
                  <stEvt:instanceID>xmp.iid:0f5f8fa5-8e11-4747-9e7a-dc74277fd645</stEvt:instanceID>
                  <stEvt:when>2017-04-09T15:53:41-07:00</stEvt:when>
                  <stEvt:softwareAgent>Adobe Audition CC 2017.0 (Macintosh)</stEvt:softwareAgent>
                  <stEvt:changed>/</stEvt:changed>
               </rdf:li>
               <rdf:li rdf:parseType="Resource">
                  <stEvt:action>saved</stEvt:action>
                  <stEvt:instanceID>xmp.iid:804f805b-2bbb-4dfd-8501-78ad488caa4f</stEvt:instanceID>
                  <stEvt:when>2017-04-09T15:58:06-07:00</stEvt:when>
                  <stEvt:softwareAgent>Adobe Audition CC 2017.0 (Macintosh)</stEvt:softwareAgent>
                  <stEvt:changed>/metadata</stEvt:changed>
               </rdf:li>
               <rdf:li rdf:parseType="Resource">
                  <stEvt:action>saved</stEvt:action>
                  <stEvt:instanceID>xmp.iid:7a1c577d-5866-4bdd-b224-ef12d750c783</stEvt:instanceID>
                  <stEvt:when>2017-04-09T15:58:06-07:00</stEvt:when>
                  <stEvt:softwareAgent>Adobe Audition CC 2017.0 (Macintosh)</stEvt:softwareAgent>
                  <stEvt:changed>/</stEvt:changed>
               </rdf:li>
               <rdf:li rdf:parseType="Resource">
                  <stEvt:action>saved</stEvt:action>
                  <stEvt:instanceID>xmp.iid:e0fccc65-9afa-40dc-8cbf-0ac719044cf5</stEvt:instanceID>
                  <stEvt:when>2017-04-09T15:58:31-07:00</stEvt:when>
                  <stEvt:softwareAgent>Adobe Audition CC 2017.0 (Macintosh)</stEvt:softwareAgent>
                  <stEvt:changed>/metadata</stEvt:changed>
               </rdf:li>
               <rdf:li rdf:parseType="Resource">
                  <stEvt:action>saved</stEvt:action>
                  <stEvt:instanceID>xmp.iid:94d79e98-40e0-4227-8e50-bf02c747d372</stEvt:instanceID>
                  <stEvt:when>2017-04-09T15:58:31-07:00</stEvt:when>
                  <stEvt:softwareAgent>Adobe Audition CC 2017.0 (Macintosh)</stEvt:softwareAgent>
                  <stEvt:changed>/</stEvt:changed>
               </rdf:li>
               <rdf:li rdf:parseType="Resource">
                  <stEvt:action>saved</stEvt:action>
                  <stEvt:instanceID>xmp.iid:34638675-c3df-4d6e-b1e8-6155b1aaf085</stEvt:instanceID>
                  <stEvt:when>2017-04-09T16:08:31-07:00</stEvt:when>
                  <stEvt:softwareAgent>Adobe Audition CC 2017.0 (Macintosh)</stEvt:softwareAgent>
                  <stEvt:changed>/metadata</stEvt:changed>
               </rdf:li>
               <rdf:li rdf:parseType="Resource">
                  <stEvt:action>saved</stEvt:action>
                  <stEvt:instanceID>xmp.iid:44b9a7d7-55d0-4f62-bb9a-02cdfd37fb46</stEvt:instanceID>
                  <stEvt:when>2017-04-09T16:08:31-07:00</stEvt:when>
                  <stEvt:softwareAgent>Adobe Audition CC 2017.0 (Macintosh)</stEvt:softwareAgent>
                  <stEvt:changed>/</stEvt:changed>
               </rdf:li>
               <rdf:li rdf:parseType="Resource">
                  <stEvt:action>saved</stEvt:action>
                  <stEvt:instanceID>xmp.iid:211d8fc4-bf3e-47f8-91d3-b5fe612a945c</stEvt:instanceID>
                  <stEvt:when>2017-04-09T16:10:06-07:00</stEvt:when>
                  <stEvt:softwareAgent>Adobe Audition CC 2017.0 (Macintosh)</stEvt:softwareAgent>
                  <stEvt:changed>/metadata</stEvt:changed>
               </rdf:li>
               <rdf:li rdf:parseType="Resource">
                  <stEvt:action>saved</stEvt:action>
                  <stEvt:instanceID>xmp.iid:d2dfd2d7-6711-42ec-a1ee-d9ce4caf43b6</stEvt:instanceID>
                  <stEvt:when>2017-04-09T16:10:06-07:00</stEvt:when>
                  <stEvt:softwareAgent>Adobe Audition CC 2017.0 (Macintosh)</stEvt:softwareAgent>
                  <stEvt:changed>/</stEvt:changed>
               </rdf:li>
               <rdf:li rdf:parseType="Resource">
                  <stEvt:action>saved</stEvt:action>
                  <stEvt:instanceID>xmp.iid:fd728395-087f-4873-aafc-e84e91c00668</stEvt:instanceID>
                  <stEvt:when>2017-04-09T16:13:06-07:00</stEvt:when>
                  <stEvt:softwareAgent>Adobe Audition CC 2017.0 (Macintosh)</stEvt:softwareAgent>
                  <stEvt:changed>/metadata</stEvt:changed>
               </rdf:li>
               <rdf:li rdf:parseType="Resource">
                  <stEvt:action>saved</stEvt:action>
                  <stEvt:instanceID>xmp.iid:083c605e-a75f-4670-a744-9cc3696ba666</stEvt:instanceID>
                  <stEvt:when>2017-04-09T16:13:06-07:00</stEvt:when>
                  <stEvt:softwareAgent>Adobe Audition CC 2017.0 (Macintosh)</stEvt:softwareAgent>
                  <stEvt:changed>/</stEvt:changed>
               </rdf:li>
               <rdf:li rdf:parseType="Resource">
                  <stEvt:action>saved</stEvt:action>
                  <stEvt:instanceID>xmp.iid:3e8c9102-d00f-4372-8906-85e8f9bb9348</stEvt:instanceID>
                  <stEvt:when>2017-04-09T16:16:06-07:00</stEvt:when>
                  <stEvt:softwareAgent>Adobe Audition CC 2017.0 (Macintosh)</stEvt:softwareAgent>
                  <stEvt:changed>/metadata</stEvt:changed>
               </rdf:li>
               <rdf:li rdf:parseType="Resource">
                  <stEvt:action>saved</stEvt:action>
                  <stEvt:instanceID>xmp.iid:6c172a0c-9c46-403f-b6b7-21ebba437245</stEvt:instanceID>
                  <stEvt:when>2017-04-09T16:16:06-07:00</stEvt:when>
                  <stEvt:softwareAgent>Adobe Audition CC 2017.0 (Macintosh)</stEvt:softwareAgent>
                  <stEvt:changed>/</stEvt:changed>
               </rdf:li>
               <rdf:li rdf:parseType="Resource">
                  <stEvt:action>saved</stEvt:action>
                  <stEvt:instanceID>xmp.iid:c630fb52-4286-482d-a66c-b8ce5109ee26</stEvt:instanceID>
                  <stEvt:when>2017-04-09T16:19:06-07:00</stEvt:when>
                  <stEvt:softwareAgent>Adobe Audition CC 2017.0 (Macintosh)</stEvt:softwareAgent>
                  <stEvt:changed>/metadata</stEvt:changed>
               </rdf:li>
               <rdf:li rdf:parseType="Resource">
                  <stEvt:action>saved</stEvt:action>
                  <stEvt:instanceID>xmp.iid:329293d4-c245-4daa-bd1f-1f65680dae92</stEvt:instanceID>
                  <stEvt:when>2017-04-09T16:19:06-07:00</stEvt:when>
                  <stEvt:softwareAgent>Adobe Audition CC 2017.0 (Macintosh)</stEvt:softwareAgent>
                  <stEvt:changed>/</stEvt:changed>
               </rdf:li>
               <rdf:li rdf:parseType="Resource">
                  <stEvt:action>saved</stEvt:action>
                  <stEvt:instanceID>xmp.iid:819cc071-ff55-46e3-86c4-54d9923378b0</stEvt:instanceID>
                  <stEvt:when>2017-04-09T16:22:06-07:00</stEvt:when>
                  <stEvt:softwareAgent>Adobe Audition CC 2017.0 (Macintosh)</stEvt:softwareAgent>
                  <stEvt:changed>/metadata</stEvt:changed>
               </rdf:li>
               <rdf:li rdf:parseType="Resource">
                  <stEvt:action>saved</stEvt:action>
                  <stEvt:instanceID>xmp.iid:d7fbc9d7-1813-4d25-8287-267564e4021b</stEvt:instanceID>
                  <stEvt:when>2017-04-09T16:22:06-07:00</stEvt:when>
                  <stEvt:softwareAgent>Adobe Audition CC 2017.0 (Macintosh)</stEvt:softwareAgent>
                  <stEvt:changed>/</stEvt:changed>
               </rdf:li>
               <rdf:li rdf:parseType="Resource">
                  <stEvt:action>saved</stEvt:action>
                  <stEvt:instanceID>xmp.iid:b0f03576-c184-458e-ba92-68e313878f68</stEvt:instanceID>
                  <stEvt:when>2017-04-09T16:25:11-07:00</stEvt:when>
                  <stEvt:softwareAgent>Adobe Audition CC 2017.0 (Macintosh)</stEvt:softwareAgent>
                  <stEvt:changed>/metadata</stEvt:changed>
               </rdf:li>
               <rdf:li rdf:parseType="Resource">
                  <stEvt:action>saved</stEvt:action>
                  <stEvt:instanceID>xmp.iid:99bcfc64-afb1-434a-b1c2-8c94d14c6946</stEvt:instanceID>
                  <stEvt:when>2017-04-09T16:25:11-07:00</stEvt:when>
                  <stEvt:softwareAgent>Adobe Audition CC 2017.0 (Macintosh)</stEvt:softwareAgent>
                  <stEvt:changed>/</stEvt:changed>
               </rdf:li>
               <rdf:li rdf:parseType="Resource">
                  <stEvt:action>saved</stEvt:action>
                  <stEvt:instanceID>xmp.iid:ab98c310-5f7c-478f-aeae-f9a344927eb8</stEvt:instanceID>
                  <stEvt:when>2017-04-09T16:34:11-07:00</stEvt:when>
                  <stEvt:softwareAgent>Adobe Audition CC 2017.0 (Macintosh)</stEvt:softwareAgent>
                  <stEvt:changed>/metadata</stEvt:changed>
               </rdf:li>
               <rdf:li rdf:parseType="Resource">
                  <stEvt:action>saved</stEvt:action>
                  <stEvt:instanceID>xmp.iid:362e78bc-e3ea-4d84-b881-b6b28e0cc867</stEvt:instanceID>
                  <stEvt:when>2017-04-09T16:34:11-07:00</stEvt:when>
                  <stEvt:softwareAgent>Adobe Audition CC 2017.0 (Macintosh)</stEvt:softwareAgent>
                  <stEvt:changed>/</stEvt:changed>
               </rdf:li>
               <rdf:li rdf:parseType="Resource">
                  <stEvt:action>saved</stEvt:action>
                  <stEvt:instanceID>xmp.iid:66ee6dda-3ac1-4153-b28f-a1e76b24bf73</stEvt:instanceID>
                  <stEvt:when>2017-04-09T16:46:08-07:00</stEvt:when>
                  <stEvt:softwareAgent>Adobe Audition CC 2017.0 (Macintosh)</stEvt:softwareAgent>
                  <stEvt:changed>/metadata</stEvt:changed>
               </rdf:li>
               <rdf:li rdf:parseType="Resource">
                  <stEvt:action>saved</stEvt:action>
                  <stEvt:instanceID>xmp.iid:749bb99c-059c-4d4b-90c8-91a4ff746b53</stEvt:instanceID>
                  <stEvt:when>2017-04-09T16:46:08-07:00</stEvt:when>
                  <stEvt:softwareAgent>Adobe Audition CC 2017.0 (Macintosh)</stEvt:softwareAgent>
                  <stEvt:changed>/</stEvt:changed>
               </rdf:li>
               <rdf:li rdf:parseType="Resource">
                  <stEvt:action>saved</stEvt:action>
                  <stEvt:instanceID>xmp.iid:2e82076a-ab92-454e-bd99-35dc5760d1cd</stEvt:instanceID>
                  <stEvt:when>2017-04-09T16:48:31-07:00</stEvt:when>
                  <stEvt:softwareAgent>Adobe Audition CC 2017.0 (Macintosh)</stEvt:softwareAgent>
                  <stEvt:changed>/metadata</stEvt:changed>
               </rdf:li>
               <rdf:li rdf:parseType="Resource">
                  <stEvt:action>saved</stEvt:action>
                  <stEvt:instanceID>xmp.iid:473b69e3-38b4-4450-83c5-8e3d0e2f1dd7</stEvt:instanceID>
                  <stEvt:when>2017-04-09T16:48:31-07:00</stEvt:when>
                  <stEvt:softwareAgent>Adobe Audition CC 2017.0 (Macintosh)</stEvt:softwareAgent>
                  <stEvt:changed>/</stEvt:changed>
               </rdf:li>
               <rdf:li rdf:parseType="Resource">
                  <stEvt:action>saved</stEvt:action>
                  <stEvt:instanceID>xmp.iid:bdc87105-73b2-4f08-9a93-1c1baeac3a20</stEvt:instanceID>
                  <stEvt:when>2017-04-09T16:49:11-07:00</stEvt:when>
                  <stEvt:softwareAgent>Adobe Audition CC 2017.0 (Macintosh)</stEvt:softwareAgent>
                  <stEvt:changed>/metadata</stEvt:changed>
               </rdf:li>
               <rdf:li rdf:parseType="Resource">
                  <stEvt:action>saved</stEvt:action>
                  <stEvt:instanceID>xmp.iid:4278ae73-1346-484e-bec7-231eea927edb</stEvt:instanceID>
                  <stEvt:when>2017-04-09T16:49:11-07:00</stEvt:when>
                  <stEvt:softwareAgent>Adobe Audition CC 2017.0 (Macintosh)</stEvt:softwareAgent>
                  <stEvt:changed>/</stEvt:changed>
               </rdf:li>
               <rdf:li rdf:parseType="Resource">
                  <stEvt:action>saved</stEvt:action>
                  <stEvt:instanceID>xmp.iid:4aa462ec-bacd-4cce-a94a-fd4f679367d8</stEvt:instanceID>
                  <stEvt:when>2017-04-09T16:52:49-07:00</stEvt:when>
                  <stEvt:softwareAgent>Adobe Audition CC 2017.0 (Macintosh)</stEvt:softwareAgent>
                  <stEvt:changed>/metadata</stEvt:changed>
               </rdf:li>
               <rdf:li rdf:parseType="Resource">
                  <stEvt:action>saved</stEvt:action>
                  <stEvt:instanceID>xmp.iid:21079668-7978-401a-80ca-552902fcc366</stEvt:instanceID>
                  <stEvt:when>2017-04-09T16:52:49-07:00</stEvt:when>
                  <stEvt:softwareAgent>Adobe Audition CC 2017.0 (Macintosh)</stEvt:softwareAgent>
                  <stEvt:changed>/</stEvt:changed>
               </rdf:li>
               <rdf:li rdf:parseType="Resource">
                  <stEvt:action>saved</stEvt:action>
                  <stEvt:instanceID>xmp.iid:ba192cb3-0d7c-4daf-b77b-fa05e917e8d8</stEvt:instanceID>
                  <stEvt:when>2017-04-09T16:53:52-07:00</stEvt:when>
                  <stEvt:softwareAgent>Adobe Audition CC 2017.0 (Macintosh)</stEvt:softwareAgent>
                  <stEvt:changed>/metadata</stEvt:changed>
               </rdf:li>
               <rdf:li rdf:parseType="Resource">
                  <stEvt:action>saved</stEvt:action>
                  <stEvt:instanceID>xmp.iid:a77e5ebf-0dd5-42ef-93af-7eb127cc2395</stEvt:instanceID>
                  <stEvt:when>2017-04-09T16:53:52-07:00</stEvt:when>
                  <stEvt:softwareAgent>Adobe Audition CC 2017.0 (Macintosh)</stEvt:softwareAgent>
                  <stEvt:changed>/</stEvt:changed>
               </rdf:li>
               <rdf:li rdf:parseType="Resource">
                  <stEvt:action>saved</stEvt:action>
                  <stEvt:instanceID>xmp.iid:4ddb52d3-a53e-40b2-81e1-a16480a17688</stEvt:instanceID>
                  <stEvt:when>2017-04-09T18:06:06-07:00</stEvt:when>
                  <stEvt:softwareAgent>Adobe Audition CC 2017.0 (Macintosh)</stEvt:softwareAgent>
                  <stEvt:changed>/metadata</stEvt:changed>
               </rdf:li>
               <rdf:li rdf:parseType="Resource">
                  <stEvt:action>saved</stEvt:action>
                  <stEvt:instanceID>xmp.iid:d88bfb71-4d89-4214-b162-b238a1e8e19c</stEvt:instanceID>
                  <stEvt:when>2017-04-09T18:06:06-07:00</stEvt:when>
                  <stEvt:softwareAgent>Adobe Audition CC 2017.0 (Macintosh)</stEvt:softwareAgent>
                  <stEvt:changed>/</stEvt:changed>
               </rdf:li>
               <rdf:li rdf:parseType="Resource">
                  <stEvt:action>saved</stEvt:action>
                  <stEvt:instanceID>xmp.iid:979c8aaa-c6a6-4c9c-bce3-f85a908176ef</stEvt:instanceID>
                  <stEvt:when>2017-04-09T18:06:06-07:00</stEvt:when>
                  <stEvt:softwareAgent>Adobe Audition CC 2017.0 (Macintosh)</stEvt:softwareAgent>
                  <stEvt:changed>/metadata</stEvt:changed>
               </rdf:li>
               <rdf:li rdf:parseType="Resource">
                  <stEvt:action>saved</stEvt:action>
                  <stEvt:instanceID>xmp.iid:7368780d-295d-42a8-9636-0b5e727416cc</stEvt:instanceID>
                  <stEvt:when>2017-04-09T18:06:06-07:00</stEvt:when>
                  <stEvt:softwareAgent>Adobe Audition CC 2017.0 (Macintosh)</stEvt:softwareAgent>
                  <stEvt:changed>/</stEvt:changed>
               </rdf:li>
               <rdf:li rdf:parseType="Resource">
                  <stEvt:action>saved</stEvt:action>
                  <stEvt:instanceID>xmp.iid:97fcb98d-fabc-424c-ac5c-29d9d9eed42a</stEvt:instanceID>
                  <stEvt:when>2017-04-09T18:09:06-07:00</stEvt:when>
                  <stEvt:softwareAgent>Adobe Audition CC 2017.0 (Macintosh)</stEvt:softwareAgent>
                  <stEvt:changed>/metadata</stEvt:changed>
               </rdf:li>
               <rdf:li rdf:parseType="Resource">
                  <stEvt:action>saved</stEvt:action>
                  <stEvt:instanceID>xmp.iid:944cb492-bb94-44b3-b847-04098858b448</stEvt:instanceID>
                  <stEvt:when>2017-04-09T18:09:06-07:00</stEvt:when>
                  <stEvt:softwareAgent>Adobe Audition CC 2017.0 (Macintosh)</stEvt:softwareAgent>
                  <stEvt:changed>/</stEvt:changed>
               </rdf:li>
               <rdf:li rdf:parseType="Resource">
                  <stEvt:action>saved</stEvt:action>
                  <stEvt:instanceID>xmp.iid:8b912006-9ede-4f4f-a563-7cad06cdde79</stEvt:instanceID>
                  <stEvt:when>2017-04-09T18:12:06-07:00</stEvt:when>
                  <stEvt:softwareAgent>Adobe Audition CC 2017.0 (Macintosh)</stEvt:softwareAgent>
                  <stEvt:changed>/metadata</stEvt:changed>
               </rdf:li>
               <rdf:li rdf:parseType="Resource">
                  <stEvt:action>saved</stEvt:action>
                  <stEvt:instanceID>xmp.iid:d9838f27-7aaa-4966-ad9d-747ffff4cb63</stEvt:instanceID>
                  <stEvt:when>2017-04-09T18:12:06-07:00</stEvt:when>
                  <stEvt:softwareAgent>Adobe Audition CC 2017.0 (Macintosh)</stEvt:softwareAgent>
                  <stEvt:changed>/</stEvt:changed>
               </rdf:li>
               <rdf:li rdf:parseType="Resource">
                  <stEvt:action>saved</stEvt:action>
                  <stEvt:instanceID>xmp.iid:32c93dfd-f600-4bb7-a941-5a09cc5e0754</stEvt:instanceID>
                  <stEvt:when>2017-04-09T18:15:06-07:00</stEvt:when>
                  <stEvt:softwareAgent>Adobe Audition CC 2017.0 (Macintosh)</stEvt:softwareAgent>
                  <stEvt:changed>/metadata</stEvt:changed>
               </rdf:li>
               <rdf:li rdf:parseType="Resource">
                  <stEvt:action>saved</stEvt:action>
                  <stEvt:instanceID>xmp.iid:411f82ee-5a26-4711-8ffe-a6b3ec7b5917</stEvt:instanceID>
                  <stEvt:when>2017-04-09T18:15:06-07:00</stEvt:when>
                  <stEvt:softwareAgent>Adobe Audition CC 2017.0 (Macintosh)</stEvt:softwareAgent>
                  <stEvt:changed>/</stEvt:changed>
               </rdf:li>
               <rdf:li rdf:parseType="Resource">
                  <stEvt:action>saved</stEvt:action>
                  <stEvt:instanceID>xmp.iid:d5cd8348-c719-430f-98b2-9a181865dda6</stEvt:instanceID>
                  <stEvt:when>2017-04-09T18:21:07-07:00</stEvt:when>
                  <stEvt:softwareAgent>Adobe Audition CC 2017.0 (Macintosh)</stEvt:softwareAgent>
                  <stEvt:changed>/metadata</stEvt:changed>
               </rdf:li>
               <rdf:li rdf:parseType="Resource">
                  <stEvt:action>saved</stEvt:action>
                  <stEvt:instanceID>xmp.iid:8bd95529-f45d-48b3-85ae-a83e64f1cb1f</stEvt:instanceID>
                  <stEvt:when>2017-04-09T18:21:07-07:00</stEvt:when>
                  <stEvt:softwareAgent>Adobe Audition CC 2017.0 (Macintosh)</stEvt:softwareAgent>
                  <stEvt:changed>/</stEvt:changed>
               </rdf:li>
               <rdf:li rdf:parseType="Resource">
                  <stEvt:action>saved</stEvt:action>
                  <stEvt:instanceID>xmp.iid:3e799aa9-4db3-47ea-9643-0c3663fec79a</stEvt:instanceID>
                  <stEvt:when>2017-04-09T18:24:28-07:00</stEvt:when>
                  <stEvt:softwareAgent>Adobe Audition CC 2017.0 (Macintosh)</stEvt:softwareAgent>
                  <stEvt:changed>/metadata</stEvt:changed>
               </rdf:li>
               <rdf:li rdf:parseType="Resource">
                  <stEvt:action>saved</stEvt:action>
                  <stEvt:instanceID>xmp.iid:e475c9a0-884c-481d-a525-16fa40456d88</stEvt:instanceID>
                  <stEvt:when>2017-04-09T18:24:28-07:00</stEvt:when>
                  <stEvt:softwareAgent>Adobe Audition CC 2017.0 (Macintosh)</stEvt:softwareAgent>
                  <stEvt:changed>/</stEvt:changed>
               </rdf:li>
               <rdf:li rdf:parseType="Resource">
                  <stEvt:action>saved</stEvt:action>
                  <stEvt:instanceID>xmp.iid:ebd97862-9e7f-429a-ab0b-7121560e80e4</stEvt:instanceID>
                  <stEvt:when>2017-04-09T18:26:06-07:00</stEvt:when>
                  <stEvt:softwareAgent>Adobe Audition CC 2017.0 (Macintosh)</stEvt:softwareAgent>
                  <stEvt:changed>/metadata</stEvt:changed>
               </rdf:li>
               <rdf:li rdf:parseType="Resource">
                  <stEvt:action>saved</stEvt:action>
                  <stEvt:instanceID>xmp.iid:319e590e-7451-4d12-a2bb-73d5ded973c6</stEvt:instanceID>
                  <stEvt:when>2017-04-09T18:26:06-07:00</stEvt:when>
                  <stEvt:softwareAgent>Adobe Audition CC 2017.0 (Macintosh)</stEvt:softwareAgent>
                  <stEvt:changed>/</stEvt:changed>
               </rdf:li>
               <rdf:li rdf:parseType="Resource">
                  <stEvt:action>saved</stEvt:action>
                  <stEvt:instanceID>xmp.iid:24c48382-87cf-4d0d-92ed-9adb65de1712</stEvt:instanceID>
                  <stEvt:when>2017-04-09T18:27:28-07:00</stEvt:when>
                  <stEvt:softwareAgent>Adobe Audition CC 2017.0 (Macintosh)</stEvt:softwareAgent>
                  <stEvt:changed>/metadata</stEvt:changed>
               </rdf:li>
               <rdf:li rdf:parseType="Resource">
                  <stEvt:action>saved</stEvt:action>
                  <stEvt:instanceID>xmp.iid:cb666422-23de-439b-82e7-3311ecca3d2f</stEvt:instanceID>
                  <stEvt:when>2017-04-09T18:27:28-07:00</stEvt:when>
                  <stEvt:softwareAgent>Adobe Audition CC 2017.0 (Macintosh)</stEvt:softwareAgent>
                  <stEvt:changed>/</stEvt:changed>
               </rdf:li>
               <rdf:li rdf:parseType="Resource">
                  <stEvt:action>saved</stEvt:action>
                  <stEvt:instanceID>xmp.iid:b38d5e60-67c5-4620-8a18-1d18dc9d5258</stEvt:instanceID>
                  <stEvt:when>2017-04-09T18:30:48-07:00</stEvt:when>
                  <stEvt:softwareAgent>Adobe Audition CC 2017.0 (Macintosh)</stEvt:softwareAgent>
                  <stEvt:changed>/metadata</stEvt:changed>
               </rdf:li>
               <rdf:li rdf:parseType="Resource">
                  <stEvt:action>saved</stEvt:action>
                  <stEvt:instanceID>xmp.iid:7b62f1c2-ba25-4e43-b815-b770e505b7c3</stEvt:instanceID>
                  <stEvt:when>2017-04-09T18:30:48-07:00</stEvt:when>
                  <stEvt:softwareAgent>Adobe Audition CC 2017.0 (Macintosh)</stEvt:softwareAgent>
                  <stEvt:changed>/</stEvt:changed>
               </rdf:li>
               <rdf:li rdf:parseType="Resource">
                  <stEvt:action>saved</stEvt:action>
                  <stEvt:instanceID>xmp.iid:ec07c813-fa4f-4b5e-ae37-25a686018c29</stEvt:instanceID>
                  <stEvt:when>2017-04-09T18:33:48-07:00</stEvt:when>
                  <stEvt:softwareAgent>Adobe Audition CC 2017.0 (Macintosh)</stEvt:softwareAgent>
                  <stEvt:changed>/metadata</stEvt:changed>
               </rdf:li>
               <rdf:li rdf:parseType="Resource">
                  <stEvt:action>saved</stEvt:action>
                  <stEvt:instanceID>xmp.iid:d7cdd9de-a207-4ecb-9492-9b83eb06f424</stEvt:instanceID>
                  <stEvt:when>2017-04-09T18:33:48-07:00</stEvt:when>
                  <stEvt:softwareAgent>Adobe Audition CC 2017.0 (Macintosh)</stEvt:softwareAgent>
                  <stEvt:changed>/</stEvt:changed>
               </rdf:li>
               <rdf:li rdf:parseType="Resource">
                  <stEvt:action>saved</stEvt:action>
                  <stEvt:instanceID>xmp.iid:05bd7829-fb85-4af5-a0d3-04adf926eb75</stEvt:instanceID>
                  <stEvt:when>2017-04-09T18:36:06-07:00</stEvt:when>
                  <stEvt:softwareAgent>Adobe Audition CC 2017.0 (Macintosh)</stEvt:softwareAgent>
                  <stEvt:changed>/metadata</stEvt:changed>
               </rdf:li>
               <rdf:li rdf:parseType="Resource">
                  <stEvt:action>saved</stEvt:action>
                  <stEvt:instanceID>xmp.iid:0a38d89d-9ccb-4c4e-8d37-ac70b9aeff51</stEvt:instanceID>
                  <stEvt:when>2017-04-09T18:36:06-07:00</stEvt:when>
                  <stEvt:softwareAgent>Adobe Audition CC 2017.0 (Macintosh)</stEvt:softwareAgent>
                  <stEvt:changed>/</stEvt:changed>
               </rdf:li>
               <rdf:li rdf:parseType="Resource">
                  <stEvt:action>saved</stEvt:action>
                  <stEvt:instanceID>xmp.iid:f4e3a333-c744-4461-86aa-ec96217f6f22</stEvt:instanceID>
                  <stEvt:when>2017-04-09T18:36:48-07:00</stEvt:when>
                  <stEvt:softwareAgent>Adobe Audition CC 2017.0 (Macintosh)</stEvt:softwareAgent>
                  <stEvt:changed>/metadata</stEvt:changed>
               </rdf:li>
               <rdf:li rdf:parseType="Resource">
                  <stEvt:action>saved</stEvt:action>
                  <stEvt:instanceID>xmp.iid:636421a7-dd52-4d5e-8740-63d7e917834b</stEvt:instanceID>
                  <stEvt:when>2017-04-09T18:36:48-07:00</stEvt:when>
                  <stEvt:softwareAgent>Adobe Audition CC 2017.0 (Macintosh)</stEvt:softwareAgent>
                  <stEvt:changed>/</stEvt:changed>
               </rdf:li>
               <rdf:li rdf:parseType="Resource">
                  <stEvt:action>saved</stEvt:action>
                  <stEvt:instanceID>xmp.iid:44005c89-a4ca-4d01-b073-3d1d6742bbd5</stEvt:instanceID>
                  <stEvt:when>2017-04-09T18:39:48-07:00</stEvt:when>
                  <stEvt:softwareAgent>Adobe Audition CC 2017.0 (Macintosh)</stEvt:softwareAgent>
                  <stEvt:changed>/metadata</stEvt:changed>
               </rdf:li>
               <rdf:li rdf:parseType="Resource">
                  <stEvt:action>saved</stEvt:action>
                  <stEvt:instanceID>xmp.iid:27d67a7e-e34e-4603-b6ab-556b24dcf7c3</stEvt:instanceID>
                  <stEvt:when>2017-04-09T18:39:48-07:00</stEvt:when>
                  <stEvt:softwareAgent>Adobe Audition CC 2017.0 (Macintosh)</stEvt:softwareAgent>
                  <stEvt:changed>/</stEvt:changed>
               </rdf:li>
               <rdf:li rdf:parseType="Resource">
                  <stEvt:action>saved</stEvt:action>
                  <stEvt:instanceID>xmp.iid:ed32a79e-0fc2-4365-800e-cc68a4edd11b</stEvt:instanceID>
                  <stEvt:when>2017-04-09T18:42:48-07:00</stEvt:when>
                  <stEvt:softwareAgent>Adobe Audition CC 2017.0 (Macintosh)</stEvt:softwareAgent>
                  <stEvt:changed>/metadata</stEvt:changed>
               </rdf:li>
               <rdf:li rdf:parseType="Resource">
                  <stEvt:action>saved</stEvt:action>
                  <stEvt:instanceID>xmp.iid:015482ce-3ce9-4241-a2a4-1a8dbab5a0aa</stEvt:instanceID>
                  <stEvt:when>2017-04-09T18:42:48-07:00</stEvt:when>
                  <stEvt:softwareAgent>Adobe Audition CC 2017.0 (Macintosh)</stEvt:softwareAgent>
                  <stEvt:changed>/</stEvt:changed>
               </rdf:li>
               <rdf:li rdf:parseType="Resource">
                  <stEvt:action>saved</stEvt:action>
                  <stEvt:instanceID>xmp.iid:8a2b336b-edf6-401b-a270-5aca02b485e4</stEvt:instanceID>
                  <stEvt:when>2017-04-09T18:45:48-07:00</stEvt:when>
                  <stEvt:softwareAgent>Adobe Audition CC 2017.0 (Macintosh)</stEvt:softwareAgent>
                  <stEvt:changed>/metadata</stEvt:changed>
               </rdf:li>
               <rdf:li rdf:parseType="Resource">
                  <stEvt:action>saved</stEvt:action>
                  <stEvt:instanceID>xmp.iid:f4d911ef-525f-4fdc-ab01-c27024b843d8</stEvt:instanceID>
                  <stEvt:when>2017-04-09T18:45:48-07:00</stEvt:when>
                  <stEvt:softwareAgent>Adobe Audition CC 2017.0 (Macintosh)</stEvt:softwareAgent>
                  <stEvt:changed>/</stEvt:changed>
               </rdf:li>
               <rdf:li rdf:parseType="Resource">
                  <stEvt:action>saved</stEvt:action>
                  <stEvt:instanceID>xmp.iid:ca196c46-fffa-4652-99fe-6fe106c2a77c</stEvt:instanceID>
                  <stEvt:when>2017-04-09T18:48:48-07:00</stEvt:when>
                  <stEvt:softwareAgent>Adobe Audition CC 2017.0 (Macintosh)</stEvt:softwareAgent>
                  <stEvt:changed>/metadata</stEvt:changed>
               </rdf:li>
               <rdf:li rdf:parseType="Resource">
                  <stEvt:action>saved</stEvt:action>
                  <stEvt:instanceID>xmp.iid:97ff4fd0-a49b-4044-ade7-eeb2286f7e06</stEvt:instanceID>
                  <stEvt:when>2017-04-09T18:48:48-07:00</stEvt:when>
                  <stEvt:softwareAgent>Adobe Audition CC 2017.0 (Macintosh)</stEvt:softwareAgent>
                  <stEvt:changed>/</stEvt:changed>
               </rdf:li>
               <rdf:li rdf:parseType="Resource">
                  <stEvt:action>saved</stEvt:action>
                  <stEvt:instanceID>xmp.iid:4c9d2711-d7f1-4e42-bb94-d9c6ab8ae627</stEvt:instanceID>
                  <stEvt:when>2017-04-09T18:51:48-07:00</stEvt:when>
                  <stEvt:softwareAgent>Adobe Audition CC 2017.0 (Macintosh)</stEvt:softwareAgent>
                  <stEvt:changed>/metadata</stEvt:changed>
               </rdf:li>
               <rdf:li rdf:parseType="Resource">
                  <stEvt:action>saved</stEvt:action>
                  <stEvt:instanceID>xmp.iid:db1c89a0-9f7a-48b4-9344-8ff9aa366606</stEvt:instanceID>
                  <stEvt:when>2017-04-09T18:51:48-07:00</stEvt:when>
                  <stEvt:softwareAgent>Adobe Audition CC 2017.0 (Macintosh)</stEvt:softwareAgent>
                  <stEvt:changed>/</stEvt:changed>
               </rdf:li>
               <rdf:li rdf:parseType="Resource">
                  <stEvt:action>saved</stEvt:action>
                  <stEvt:instanceID>xmp.iid:63c3e29c-bc17-4855-90a1-c5ed4986ea8d</stEvt:instanceID>
                  <stEvt:when>2017-04-09T18:54:48-07:00</stEvt:when>
                  <stEvt:softwareAgent>Adobe Audition CC 2017.0 (Macintosh)</stEvt:softwareAgent>
                  <stEvt:changed>/metadata</stEvt:changed>
               </rdf:li>
               <rdf:li rdf:parseType="Resource">
                  <stEvt:action>saved</stEvt:action>
                  <stEvt:instanceID>xmp.iid:8c57f423-c55e-4077-aba9-ab6f3df5e50d</stEvt:instanceID>
                  <stEvt:when>2017-04-09T18:54:48-07:00</stEvt:when>
                  <stEvt:softwareAgent>Adobe Audition CC 2017.0 (Macintosh)</stEvt:softwareAgent>
                  <stEvt:changed>/</stEvt:changed>
               </rdf:li>
               <rdf:li rdf:parseType="Resource">
                  <stEvt:action>saved</stEvt:action>
                  <stEvt:instanceID>xmp.iid:07fcd7d3-8c4f-4ca9-8872-a6d2993de3dd</stEvt:instanceID>
                  <stEvt:when>2017-04-09T18:57:48-07:00</stEvt:when>
                  <stEvt:softwareAgent>Adobe Audition CC 2017.0 (Macintosh)</stEvt:softwareAgent>
                  <stEvt:changed>/metadata</stEvt:changed>
               </rdf:li>
               <rdf:li rdf:parseType="Resource">
                  <stEvt:action>saved</stEvt:action>
                  <stEvt:instanceID>xmp.iid:015b2a3a-c6f3-440c-a4c8-1e389f218ec8</stEvt:instanceID>
                  <stEvt:when>2017-04-09T18:57:48-07:00</stEvt:when>
                  <stEvt:softwareAgent>Adobe Audition CC 2017.0 (Macintosh)</stEvt:softwareAgent>
                  <stEvt:changed>/</stEvt:changed>
               </rdf:li>
               <rdf:li rdf:parseType="Resource">
                  <stEvt:action>saved</stEvt:action>
                  <stEvt:instanceID>xmp.iid:14be292b-bfd6-4e55-a9d4-f46ce57f0433</stEvt:instanceID>
                  <stEvt:when>2017-04-09T19:00:48-07:00</stEvt:when>
                  <stEvt:softwareAgent>Adobe Audition CC 2017.0 (Macintosh)</stEvt:softwareAgent>
                  <stEvt:changed>/metadata</stEvt:changed>
               </rdf:li>
               <rdf:li rdf:parseType="Resource">
                  <stEvt:action>saved</stEvt:action>
                  <stEvt:instanceID>xmp.iid:45792a6d-ed01-49be-a9c3-e25f87648fa7</stEvt:instanceID>
                  <stEvt:when>2017-04-09T19:00:48-07:00</stEvt:when>
                  <stEvt:softwareAgent>Adobe Audition CC 2017.0 (Macintosh)</stEvt:softwareAgent>
                  <stEvt:changed>/</stEvt:changed>
               </rdf:li>
               <rdf:li rdf:parseType="Resource">
                  <stEvt:action>saved</stEvt:action>
                  <stEvt:instanceID>xmp.iid:55012baa-8835-4a42-b4d4-5af78334175f</stEvt:instanceID>
                  <stEvt:when>2017-04-09T19:06:48-07:00</stEvt:when>
                  <stEvt:softwareAgent>Adobe Audition CC 2017.0 (Macintosh)</stEvt:softwareAgent>
                  <stEvt:changed>/metadata</stEvt:changed>
               </rdf:li>
               <rdf:li rdf:parseType="Resource">
                  <stEvt:action>saved</stEvt:action>
                  <stEvt:instanceID>xmp.iid:3badb85c-babb-485b-8ed0-c32cd7c35b55</stEvt:instanceID>
                  <stEvt:when>2017-04-09T19:06:48-07:00</stEvt:when>
                  <stEvt:softwareAgent>Adobe Audition CC 2017.0 (Macintosh)</stEvt:softwareAgent>
                  <stEvt:changed>/</stEvt:changed>
               </rdf:li>
               <rdf:li rdf:parseType="Resource">
                  <stEvt:action>saved</stEvt:action>
                  <stEvt:instanceID>xmp.iid:25d310a0-7ff1-47df-aa55-0892b13c8cb2</stEvt:instanceID>
                  <stEvt:when>2017-04-09T19:12:49-07:00</stEvt:when>
                  <stEvt:softwareAgent>Adobe Audition CC 2017.0 (Macintosh)</stEvt:softwareAgent>
                  <stEvt:changed>/metadata</stEvt:changed>
               </rdf:li>
               <rdf:li rdf:parseType="Resource">
                  <stEvt:action>saved</stEvt:action>
                  <stEvt:instanceID>xmp.iid:040efb1b-f246-4a08-a5c4-f8bc0258fa93</stEvt:instanceID>
                  <stEvt:when>2017-04-09T19:12:49-07:00</stEvt:when>
                  <stEvt:softwareAgent>Adobe Audition CC 2017.0 (Macintosh)</stEvt:softwareAgent>
                  <stEvt:changed>/</stEvt:changed>
               </rdf:li>
               <rdf:li rdf:parseType="Resource">
                  <stEvt:action>saved</stEvt:action>
                  <stEvt:instanceID>xmp.iid:f45318ae-08d9-4b5f-b5e6-ec62822fc036</stEvt:instanceID>
                  <stEvt:when>2017-04-09T19:15:37-07:00</stEvt:when>
                  <stEvt:softwareAgent>Adobe Audition CC 2017.0 (Macintosh)</stEvt:softwareAgent>
                  <stEvt:changed>/metadata</stEvt:changed>
               </rdf:li>
               <rdf:li rdf:parseType="Resource">
                  <stEvt:action>saved</stEvt:action>
                  <stEvt:instanceID>xmp.iid:ee4c030a-2ac9-4c47-9efc-3258f63755f9</stEvt:instanceID>
                  <stEvt:when>2017-04-09T19:15:37-07:00</stEvt:when>
                  <stEvt:softwareAgent>Adobe Audition CC 2017.0 (Macintosh)</stEvt:softwareAgent>
                  <stEvt:changed>/</stEvt:changed>
               </rdf:li>
               <rdf:li rdf:parseType="Resource">
                  <stEvt:action>saved</stEvt:action>
                  <stEvt:instanceID>xmp.iid:d8d4f26b-8dda-4daf-8f56-e6c53e9b0070</stEvt:instanceID>
                  <stEvt:when>2017-04-09T19:15:49-07:00</stEvt:when>
                  <stEvt:softwareAgent>Adobe Audition CC 2017.0 (Macintosh)</stEvt:softwareAgent>
                  <stEvt:changed>/metadata</stEvt:changed>
               </rdf:li>
               <rdf:li rdf:parseType="Resource">
                  <stEvt:action>saved</stEvt:action>
                  <stEvt:instanceID>xmp.iid:09b538d0-e01f-463e-b30d-769471442619</stEvt:instanceID>
                  <stEvt:when>2017-04-09T19:15:49-07:00</stEvt:when>
                  <stEvt:softwareAgent>Adobe Audition CC 2017.0 (Macintosh)</stEvt:softwareAgent>
                  <stEvt:changed>/</stEvt:changed>
               </rdf:li>
               <rdf:li rdf:parseType="Resource">
                  <stEvt:action>saved</stEvt:action>
                  <stEvt:instanceID>xmp.iid:0991dd80-ece9-4efb-a953-3ecd9c54adb5</stEvt:instanceID>
                  <stEvt:when>2017-04-09T19:21:49-07:00</stEvt:when>
                  <stEvt:softwareAgent>Adobe Audition CC 2017.0 (Macintosh)</stEvt:softwareAgent>
                  <stEvt:changed>/metadata</stEvt:changed>
               </rdf:li>
               <rdf:li rdf:parseType="Resource">
                  <stEvt:action>saved</stEvt:action>
                  <stEvt:instanceID>xmp.iid:9eae0a2d-3e6d-4c9e-8702-8ab53ba8cd55</stEvt:instanceID>
                  <stEvt:when>2017-04-09T19:21:49-07:00</stEvt:when>
                  <stEvt:softwareAgent>Adobe Audition CC 2017.0 (Macintosh)</stEvt:softwareAgent>
                  <stEvt:changed>/</stEvt:changed>
               </rdf:li>
               <rdf:li rdf:parseType="Resource">
                  <stEvt:action>saved</stEvt:action>
                  <stEvt:instanceID>xmp.iid:ea8696a5-781b-4145-a47e-6282fe0b39ad</stEvt:instanceID>
                  <stEvt:when>2017-04-09T19:26:06-07:00</stEvt:when>
                  <stEvt:softwareAgent>Adobe Audition CC 2017.0 (Macintosh)</stEvt:softwareAgent>
                  <stEvt:changed>/metadata</stEvt:changed>
               </rdf:li>
               <rdf:li rdf:parseType="Resource">
                  <stEvt:action>saved</stEvt:action>
                  <stEvt:instanceID>xmp.iid:d5773d33-7b63-4930-83f9-a7841d94fcfb</stEvt:instanceID>
                  <stEvt:when>2017-04-09T19:26:06-07:00</stEvt:when>
                  <stEvt:softwareAgent>Adobe Audition CC 2017.0 (Macintosh)</stEvt:softwareAgent>
                  <stEvt:changed>/</stEvt:changed>
               </rdf:li>
               <rdf:li rdf:parseType="Resource">
                  <stEvt:action>saved</stEvt:action>
                  <stEvt:instanceID>xmp.iid:f32ae39b-d3d2-4740-873f-af3ab429cac7</stEvt:instanceID>
                  <stEvt:when>2017-04-09T19:27:49-07:00</stEvt:when>
                  <stEvt:softwareAgent>Adobe Audition CC 2017.0 (Macintosh)</stEvt:softwareAgent>
                  <stEvt:changed>/metadata</stEvt:changed>
               </rdf:li>
               <rdf:li rdf:parseType="Resource">
                  <stEvt:action>saved</stEvt:action>
                  <stEvt:instanceID>xmp.iid:130b28d8-f025-44eb-9fae-fea5e54ea42f</stEvt:instanceID>
                  <stEvt:when>2017-04-09T19:27:49-07:00</stEvt:when>
                  <stEvt:softwareAgent>Adobe Audition CC 2017.0 (Macintosh)</stEvt:softwareAgent>
                  <stEvt:changed>/</stEvt:changed>
               </rdf:li>
               <rdf:li rdf:parseType="Resource">
                  <stEvt:action>saved</stEvt:action>
                  <stEvt:instanceID>xmp.iid:b277f982-1fbd-4cb4-95a3-96e185907b29</stEvt:instanceID>
                  <stEvt:when>2017-04-09T19:30:22-07:00</stEvt:when>
                  <stEvt:softwareAgent>Adobe Audition CC 2017.0 (Macintosh)</stEvt:softwareAgent>
                  <stEvt:changed>/metadata</stEvt:changed>
               </rdf:li>
               <rdf:li rdf:parseType="Resource">
                  <stEvt:action>saved</stEvt:action>
                  <stEvt:instanceID>xmp.iid:a42eb721-f0dd-4ab5-9fb0-adb70f1bd736</stEvt:instanceID>
                  <stEvt:when>2017-04-09T19:30:22-07:00</stEvt:when>
                  <stEvt:softwareAgent>Adobe Audition CC 2017.0 (Macintosh)</stEvt:softwareAgent>
                  <stEvt:changed>/</stEvt:changed>
               </rdf:li>
               <rdf:li rdf:parseType="Resource">
                  <stEvt:action>saved</stEvt:action>
                  <stEvt:instanceID>xmp.iid:d19a6bc1-f629-462a-bd62-b7771be846fa</stEvt:instanceID>
                  <stEvt:when>2017-04-09T19:36:49-07:00</stEvt:when>
                  <stEvt:softwareAgent>Adobe Audition CC 2017.0 (Macintosh)</stEvt:softwareAgent>
                  <stEvt:changed>/metadata</stEvt:changed>
               </rdf:li>
               <rdf:li rdf:parseType="Resource">
                  <stEvt:action>saved</stEvt:action>
                  <stEvt:instanceID>xmp.iid:004d1f18-4693-4773-bf0a-8c56ca1a4376</stEvt:instanceID>
                  <stEvt:when>2017-04-09T19:36:49-07:00</stEvt:when>
                  <stEvt:softwareAgent>Adobe Audition CC 2017.0 (Macintosh)</stEvt:softwareAgent>
                  <stEvt:changed>/</stEvt:changed>
               </rdf:li>
               <rdf:li rdf:parseType="Resource">
                  <stEvt:action>saved</stEvt:action>
                  <stEvt:instanceID>xmp.iid:578da28a-1da8-4636-aaca-b3a2cd2d1a29</stEvt:instanceID>
                  <stEvt:when>2017-04-09T19:39:49-07:00</stEvt:when>
                  <stEvt:softwareAgent>Adobe Audition CC 2017.0 (Macintosh)</stEvt:softwareAgent>
                  <stEvt:changed>/metadata</stEvt:changed>
               </rdf:li>
               <rdf:li rdf:parseType="Resource">
                  <stEvt:action>saved</stEvt:action>
                  <stEvt:instanceID>xmp.iid:5c8c9d75-819e-45df-9f33-9796fc363e62</stEvt:instanceID>
                  <stEvt:when>2017-04-09T19:39:49-07:00</stEvt:when>
                  <stEvt:softwareAgent>Adobe Audition CC 2017.0 (Macintosh)</stEvt:softwareAgent>
                  <stEvt:changed>/</stEvt:changed>
               </rdf:li>
               <rdf:li rdf:parseType="Resource">
                  <stEvt:action>saved</stEvt:action>
                  <stEvt:instanceID>xmp.iid:224361fe-163c-4234-ab8c-b3f396738afc</stEvt:instanceID>
                  <stEvt:when>2017-04-09T19:42:49-07:00</stEvt:when>
                  <stEvt:softwareAgent>Adobe Audition CC 2017.0 (Macintosh)</stEvt:softwareAgent>
                  <stEvt:changed>/metadata</stEvt:changed>
               </rdf:li>
               <rdf:li rdf:parseType="Resource">
                  <stEvt:action>saved</stEvt:action>
                  <stEvt:instanceID>xmp.iid:1e5285d7-b42a-4e16-94b1-fd3e374d5c8e</stEvt:instanceID>
                  <stEvt:when>2017-04-09T19:42:49-07:00</stEvt:when>
                  <stEvt:softwareAgent>Adobe Audition CC 2017.0 (Macintosh)</stEvt:softwareAgent>
                  <stEvt:changed>/</stEvt:changed>
               </rdf:li>
               <rdf:li rdf:parseType="Resource">
                  <stEvt:action>saved</stEvt:action>
                  <stEvt:instanceID>xmp.iid:7e903a52-3b39-4af8-a6e0-c0d749702197</stEvt:instanceID>
                  <stEvt:when>2017-04-09T19:48:49-07:00</stEvt:when>
                  <stEvt:softwareAgent>Adobe Audition CC 2017.0 (Macintosh)</stEvt:softwareAgent>
                  <stEvt:changed>/metadata</stEvt:changed>
               </rdf:li>
               <rdf:li rdf:parseType="Resource">
                  <stEvt:action>saved</stEvt:action>
                  <stEvt:instanceID>xmp.iid:8304257d-7765-4b0e-a890-ca2d7378d124</stEvt:instanceID>
                  <stEvt:when>2017-04-09T19:48:49-07:00</stEvt:when>
                  <stEvt:softwareAgent>Adobe Audition CC 2017.0 (Macintosh)</stEvt:softwareAgent>
                  <stEvt:changed>/</stEvt:changed>
               </rdf:li>
               <rdf:li rdf:parseType="Resource">
                  <stEvt:action>saved</stEvt:action>
                  <stEvt:instanceID>xmp.iid:0ac11d39-9ecc-4f95-a927-88c0a596d9e0</stEvt:instanceID>
                  <stEvt:when>2017-04-09T19:51:49-07:00</stEvt:when>
                  <stEvt:softwareAgent>Adobe Audition CC 2017.0 (Macintosh)</stEvt:softwareAgent>
                  <stEvt:changed>/metadata</stEvt:changed>
               </rdf:li>
               <rdf:li rdf:parseType="Resource">
                  <stEvt:action>saved</stEvt:action>
                  <stEvt:instanceID>xmp.iid:12e8069d-26c2-4f42-a64d-9df3a7b10147</stEvt:instanceID>
                  <stEvt:when>2017-04-09T19:51:49-07:00</stEvt:when>
                  <stEvt:softwareAgent>Adobe Audition CC 2017.0 (Macintosh)</stEvt:softwareAgent>
                  <stEvt:changed>/</stEvt:changed>
               </rdf:li>
               <rdf:li rdf:parseType="Resource">
                  <stEvt:action>saved</stEvt:action>
                  <stEvt:instanceID>xmp.iid:26bffb06-aca1-4adc-91f6-02139936e802</stEvt:instanceID>
                  <stEvt:when>2017-04-09T19:54:49-07:00</stEvt:when>
                  <stEvt:softwareAgent>Adobe Audition CC 2017.0 (Macintosh)</stEvt:softwareAgent>
                  <stEvt:changed>/metadata</stEvt:changed>
               </rdf:li>
               <rdf:li rdf:parseType="Resource">
                  <stEvt:action>saved</stEvt:action>
                  <stEvt:instanceID>xmp.iid:28585c03-7076-44b0-814e-20188a4fac4c</stEvt:instanceID>
                  <stEvt:when>2017-04-09T19:54:49-07:00</stEvt:when>
                  <stEvt:softwareAgent>Adobe Audition CC 2017.0 (Macintosh)</stEvt:softwareAgent>
                  <stEvt:changed>/</stEvt:changed>
               </rdf:li>
               <rdf:li rdf:parseType="Resource">
                  <stEvt:action>saved</stEvt:action>
                  <stEvt:instanceID>xmp.iid:475b9374-b044-4f70-bdde-6d50a23023ac</stEvt:instanceID>
                  <stEvt:when>2017-04-09T19:56:01-07:00</stEvt:when>
                  <stEvt:softwareAgent>Adobe Audition CC 2017.0 (Macintosh)</stEvt:softwareAgent>
                  <stEvt:changed>/metadata</stEvt:changed>
               </rdf:li>
               <rdf:li rdf:parseType="Resource">
                  <stEvt:action>saved</stEvt:action>
                  <stEvt:instanceID>xmp.iid:5910e6f1-bbe1-44e6-a535-bdb1625c36da</stEvt:instanceID>
                  <stEvt:when>2017-04-09T19:56:01-07:00</stEvt:when>
                  <stEvt:softwareAgent>Adobe Audition CC 2017.0 (Macintosh)</stEvt:softwareAgent>
                  <stEvt:changed>/</stEvt:changed>
               </rdf:li>
               <rdf:li rdf:parseType="Resource">
                  <stEvt:action>saved</stEvt:action>
                  <stEvt:instanceID>xmp.iid:34572991-9adc-4e25-8903-e4106370985f</stEvt:instanceID>
                  <stEvt:when>2017-04-09T19:56:06-07:00</stEvt:when>
                  <stEvt:softwareAgent>Adobe Audition CC 2017.0 (Macintosh)</stEvt:softwareAgent>
                  <stEvt:changed>/metadata</stEvt:changed>
               </rdf:li>
               <rdf:li rdf:parseType="Resource">
                  <stEvt:action>saved</stEvt:action>
                  <stEvt:instanceID>xmp.iid:f93c2ccb-6469-4a13-a21f-cb390d5ee60c</stEvt:instanceID>
                  <stEvt:when>2017-04-09T19:56:06-07:00</stEvt:when>
                  <stEvt:softwareAgent>Adobe Audition CC 2017.0 (Macintosh)</stEvt:softwareAgent>
                  <stEvt:changed>/</stEvt:changed>
               </rdf:li>
               <rdf:li rdf:parseType="Resource">
                  <stEvt:action>saved</stEvt:action>
                  <stEvt:instanceID>xmp.iid:9be7871b-7357-42a7-8dfc-d6659a427bdc</stEvt:instanceID>
                  <stEvt:when>2017-04-09T19:57:49-07:00</stEvt:when>
                  <stEvt:softwareAgent>Adobe Audition CC 2017.0 (Macintosh)</stEvt:softwareAgent>
                  <stEvt:changed>/metadata</stEvt:changed>
               </rdf:li>
               <rdf:li rdf:parseType="Resource">
                  <stEvt:action>saved</stEvt:action>
                  <stEvt:instanceID>xmp.iid:c4974a9e-407a-41d7-a8d8-c5210c80b1f5</stEvt:instanceID>
                  <stEvt:when>2017-04-09T19:57:49-07:00</stEvt:when>
                  <stEvt:softwareAgent>Adobe Audition CC 2017.0 (Macintosh)</stEvt:softwareAgent>
                  <stEvt:changed>/</stEvt:changed>
               </rdf:li>
               <rdf:li rdf:parseType="Resource">
                  <stEvt:action>saved</stEvt:action>
                  <stEvt:instanceID>xmp.iid:176d077b-5dac-4f5d-a423-0a54437781ca</stEvt:instanceID>
                  <stEvt:when>2017-04-09T20:00:50-07:00</stEvt:when>
                  <stEvt:softwareAgent>Adobe Audition CC 2017.0 (Macintosh)</stEvt:softwareAgent>
                  <stEvt:changed>/metadata</stEvt:changed>
               </rdf:li>
               <rdf:li rdf:parseType="Resource">
                  <stEvt:action>saved</stEvt:action>
                  <stEvt:instanceID>xmp.iid:9cea0da8-8911-4717-bae9-d132244f4162</stEvt:instanceID>
                  <stEvt:when>2017-04-09T20:00:50-07:00</stEvt:when>
                  <stEvt:softwareAgent>Adobe Audition CC 2017.0 (Macintosh)</stEvt:softwareAgent>
                  <stEvt:changed>/</stEvt:changed>
               </rdf:li>
               <rdf:li rdf:parseType="Resource">
                  <stEvt:action>saved</stEvt:action>
                  <stEvt:instanceID>xmp.iid:a50f2856-5919-40cb-8082-433b4166a0d0</stEvt:instanceID>
                  <stEvt:when>2017-04-09T20:06:07-07:00</stEvt:when>
                  <stEvt:softwareAgent>Adobe Audition CC 2017.0 (Macintosh)</stEvt:softwareAgent>
                  <stEvt:changed>/metadata</stEvt:changed>
               </rdf:li>
               <rdf:li rdf:parseType="Resource">
                  <stEvt:action>saved</stEvt:action>
                  <stEvt:instanceID>xmp.iid:7033e784-886d-462b-b48d-0e84283b87c8</stEvt:instanceID>
                  <stEvt:when>2017-04-09T20:06:07-07:00</stEvt:when>
                  <stEvt:softwareAgent>Adobe Audition CC 2017.0 (Macintosh)</stEvt:softwareAgent>
                  <stEvt:changed>/</stEvt:changed>
               </rdf:li>
               <rdf:li rdf:parseType="Resource">
                  <stEvt:action>saved</stEvt:action>
                  <stEvt:instanceID>xmp.iid:dbdbead7-8e60-4cb7-a510-8e00e4c9f03d</stEvt:instanceID>
                  <stEvt:when>2017-04-09T20:08:12-07:00</stEvt:when>
                  <stEvt:softwareAgent>Adobe Audition CC 2017.0 (Macintosh)</stEvt:softwareAgent>
                  <stEvt:changed>/metadata</stEvt:changed>
               </rdf:li>
               <rdf:li rdf:parseType="Resource">
                  <stEvt:action>saved</stEvt:action>
                  <stEvt:instanceID>xmp.iid:a927ccc1-a600-46bb-a72f-ced34201b8eb</stEvt:instanceID>
                  <stEvt:when>2017-04-09T20:08:12-07:00</stEvt:when>
                  <stEvt:softwareAgent>Adobe Audition CC 2017.0 (Macintosh)</stEvt:softwareAgent>
                  <stEvt:changed>/</stEvt:changed>
               </rdf:li>
               <rdf:li rdf:parseType="Resource">
                  <stEvt:action>saved</stEvt:action>
                  <stEvt:instanceID>xmp.iid:9200e77b-de9e-48da-a3bd-b5888a6bede9</stEvt:instanceID>
                  <stEvt:when>2017-04-09T20:09:50-07:00</stEvt:when>
                  <stEvt:softwareAgent>Adobe Audition CC 2017.0 (Macintosh)</stEvt:softwareAgent>
                  <stEvt:changed>/metadata</stEvt:changed>
               </rdf:li>
               <rdf:li rdf:parseType="Resource">
                  <stEvt:action>saved</stEvt:action>
                  <stEvt:instanceID>xmp.iid:ec1abe0a-10f6-42bb-ac77-6b646018ff01</stEvt:instanceID>
                  <stEvt:when>2017-04-09T20:09:50-07:00</stEvt:when>
                  <stEvt:softwareAgent>Adobe Audition CC 2017.0 (Macintosh)</stEvt:softwareAgent>
                  <stEvt:changed>/</stEvt:changed>
               </rdf:li>
               <rdf:li rdf:parseType="Resource">
                  <stEvt:action>saved</stEvt:action>
                  <stEvt:instanceID>xmp.iid:66be24e0-5367-48c6-b0d3-cc1ff3ff14e6</stEvt:instanceID>
                  <stEvt:when>2017-04-09T20:13:58-07:00</stEvt:when>
                  <stEvt:softwareAgent>Adobe Audition CC 2017.0 (Macintosh)</stEvt:softwareAgent>
                  <stEvt:changed>/metadata</stEvt:changed>
               </rdf:li>
               <rdf:li rdf:parseType="Resource">
                  <stEvt:action>saved</stEvt:action>
                  <stEvt:instanceID>xmp.iid:7e2e52e9-b1e2-4eda-8f1d-95e670f37fc0</stEvt:instanceID>
                  <stEvt:when>2017-04-09T20:13:58-07:00</stEvt:when>
                  <stEvt:softwareAgent>Adobe Audition CC 2017.0 (Macintosh)</stEvt:softwareAgent>
                  <stEvt:changed>/</stEvt:changed>
               </rdf:li>
               <rdf:li rdf:parseType="Resource">
                  <stEvt:action>saved</stEvt:action>
                  <stEvt:instanceID>xmp.iid:d51d3f89-e56e-4cc7-bcb1-ec82bf1d0e27</stEvt:instanceID>
                  <stEvt:when>2017-04-09T20:39:05-07:00</stEvt:when>
                  <stEvt:softwareAgent>Adobe Audition CC 2017.0 (Macintosh)</stEvt:softwareAgent>
                  <stEvt:changed>/metadata</stEvt:changed>
               </rdf:li>
               <rdf:li rdf:parseType="Resource">
                  <stEvt:action>saved</stEvt:action>
                  <stEvt:instanceID>xmp.iid:0d0bf0a8-9d8c-47f9-a34c-6e7716ae7c2e</stEvt:instanceID>
                  <stEvt:when>2017-04-09T20:39:05-07:00</stEvt:when>
                  <stEvt:softwareAgent>Adobe Audition CC 2017.0 (Macintosh)</stEvt:softwareAgent>
                  <stEvt:changed>/</stEvt:changed>
               </rdf:li>
               <rdf:li rdf:parseType="Resource">
                  <stEvt:action>saved</stEvt:action>
                  <stEvt:instanceID>xmp.iid:589e019c-ef28-40e6-840f-52d4fbf71c38</stEvt:instanceID>
                  <stEvt:when>2017-04-09T20:39:30-07:00</stEvt:when>
                  <stEvt:softwareAgent>Adobe Audition CC 2017.0 (Macintosh)</stEvt:softwareAgent>
                  <stEvt:changed>/metadata</stEvt:changed>
               </rdf:li>
               <rdf:li rdf:parseType="Resource">
                  <stEvt:action>saved</stEvt:action>
                  <stEvt:instanceID>xmp.iid:f79901e0-b635-49dc-9bdb-54311049153f</stEvt:instanceID>
                  <stEvt:when>2017-04-09T20:39:30-07:00</stEvt:when>
                  <stEvt:softwareAgent>Adobe Audition CC 2017.0 (Macintosh)</stEvt:softwareAgent>
                  <stEvt:changed>/</stEvt:changed>
               </rdf:li>
               <rdf:li rdf:parseType="Resource">
                  <stEvt:action>saved</stEvt:action>
                  <stEvt:instanceID>xmp.iid:142ee06d-7602-4665-8f7a-73376365f881</stEvt:instanceID>
                  <stEvt:when>2017-04-09T20:39:47-07:00</stEvt:when>
                  <stEvt:softwareAgent>Adobe Audition CC 2017.0 (Macintosh)</stEvt:softwareAgent>
                  <stEvt:changed>/metadata</stEvt:changed>
               </rdf:li>
               <rdf:li rdf:parseType="Resource">
                  <stEvt:action>saved</stEvt:action>
                  <stEvt:instanceID>xmp.iid:2ea75743-13eb-4ade-9c61-c442b52b21c4</stEvt:instanceID>
                  <stEvt:when>2017-04-09T20:39:47-07:00</stEvt:when>
                  <stEvt:softwareAgent>Adobe Audition CC 2017.0 (Macintosh)</stEvt:softwareAgent>
                  <stEvt:changed>/</stEvt:changed>
               </rdf:li>
               <rdf:li rdf:parseType="Resource">
                  <stEvt:action>saved</stEvt:action>
                  <stEvt:instanceID>xmp.iid:8abd437f-7101-8d4d-8ccd-64d123b37a46</stEvt:instanceID>
                  <stEvt:when>2017-04-10T21:44:24-04:00</stEvt:when>
                  <stEvt:softwareAgent>Adobe Audition CC 2017.0 (Windows)</stEvt:softwareAgent>
                  <stEvt:changed>/metadata</stEvt:changed>
               </rdf:li>
               <rdf:li rdf:parseType="Resource">
                  <stEvt:action>saved</stEvt:action>
                  <stEvt:instanceID>xmp.iid:b2799c6f-91e6-5c4e-9619-3cdb7fba8caf</stEvt:instanceID>
                  <stEvt:when>2017-04-10T21:44:24-04:00</stEvt:when>
                  <stEvt:softwareAgent>Adobe Audition CC 2017.0 (Windows)</stEvt:softwareAgent>
                  <stEvt:changed>/</stEvt:changed>
               </rdf:li>
               <rdf:li rdf:parseType="Resource">
                  <stEvt:action>saved</stEvt:action>
                  <stEvt:instanceID>xmp.iid:b4c73cac-b3d6-6a42-b644-b6a881599026</stEvt:instanceID>
                  <stEvt:when>2017-04-10T21:44:24-04:00</stEvt:when>
                  <stEvt:softwareAgent>Adobe Audition CC 2017.0 (Windows)</stEvt:softwareAgent>
                  <stEvt:changed>/metadata</stEvt:changed>
               </rdf:li>
               <rdf:li rdf:parseType="Resource">
                  <stEvt:action>saved</stEvt:action>
                  <stEvt:instanceID>xmp.iid:f6f5c8a1-7dbf-9f4a-8016-eb02a81e93d1</stEvt:instanceID>
                  <stEvt:when>2017-04-10T21:44:24-04:00</stEvt:when>
                  <stEvt:softwareAgent>Adobe Audition CC 2017.0 (Windows)</stEvt:softwareAgent>
                  <stEvt:changed>/</stEvt:changed>
               </rdf:li>
               <rdf:li rdf:parseType="Resource">
                  <stEvt:action>saved</stEvt:action>
                  <stEvt:instanceID>xmp.iid:eb75d97d-60f8-9142-a7f3-1e8577893ce5</stEvt:instanceID>
                  <stEvt:when>2017-04-10T21:47:24-04:00</stEvt:when>
                  <stEvt:softwareAgent>Adobe Audition CC 2017.0 (Windows)</stEvt:softwareAgent>
                  <stEvt:changed>/metadata</stEvt:changed>
               </rdf:li>
               <rdf:li rdf:parseType="Resource">
                  <stEvt:action>saved</stEvt:action>
                  <stEvt:instanceID>xmp.iid:a2d15952-18ea-ec47-a86b-63790a610cdd</stEvt:instanceID>
                  <stEvt:when>2017-04-10T21:47:24-04:00</stEvt:when>
                  <stEvt:softwareAgent>Adobe Audition CC 2017.0 (Windows)</stEvt:softwareAgent>
                  <stEvt:changed>/</stEvt:changed>
               </rdf:li>
               <rdf:li rdf:parseType="Resource">
                  <stEvt:action>saved</stEvt:action>
                  <stEvt:instanceID>xmp.iid:37b3a5cb-8253-9e4a-af2d-c35cb462cca7</stEvt:instanceID>
                  <stEvt:when>2017-04-10T21:53:24-04:00</stEvt:when>
                  <stEvt:softwareAgent>Adobe Audition CC 2017.0 (Windows)</stEvt:softwareAgent>
                  <stEvt:changed>/metadata</stEvt:changed>
               </rdf:li>
               <rdf:li rdf:parseType="Resource">
                  <stEvt:action>saved</stEvt:action>
                  <stEvt:instanceID>xmp.iid:3f44a59d-222b-2f40-b5ce-dc1913829f6a</stEvt:instanceID>
                  <stEvt:when>2017-04-10T21:53:24-04:00</stEvt:when>
                  <stEvt:softwareAgent>Adobe Audition CC 2017.0 (Windows)</stEvt:softwareAgent>
                  <stEvt:changed>/</stEvt:changed>
               </rdf:li>
               <rdf:li rdf:parseType="Resource">
                  <stEvt:action>saved</stEvt:action>
                  <stEvt:instanceID>xmp.iid:d47cd67a-d419-044f-904d-428a7bd14799</stEvt:instanceID>
                  <stEvt:when>2017-04-10T21:59:24-04:00</stEvt:when>
                  <stEvt:softwareAgent>Adobe Audition CC 2017.0 (Windows)</stEvt:softwareAgent>
                  <stEvt:changed>/metadata</stEvt:changed>
               </rdf:li>
               <rdf:li rdf:parseType="Resource">
                  <stEvt:action>saved</stEvt:action>
                  <stEvt:instanceID>xmp.iid:bd602332-571c-684b-9f08-4415dbec24c8</stEvt:instanceID>
                  <stEvt:when>2017-04-10T21:59:24-04:00</stEvt:when>
                  <stEvt:softwareAgent>Adobe Audition CC 2017.0 (Windows)</stEvt:softwareAgent>
                  <stEvt:changed>/</stEvt:changed>
               </rdf:li>
               <rdf:li rdf:parseType="Resource">
                  <stEvt:action>saved</stEvt:action>
                  <stEvt:instanceID>xmp.iid:71895f8b-4e01-fe43-9e66-34f605893ad3</stEvt:instanceID>
                  <stEvt:when>2017-04-10T22:04:24-04:00</stEvt:when>
                  <stEvt:softwareAgent>Adobe Audition CC 2017.0 (Windows)</stEvt:softwareAgent>
                  <stEvt:changed>/metadata</stEvt:changed>
               </rdf:li>
               <rdf:li rdf:parseType="Resource">
                  <stEvt:action>saved</stEvt:action>
                  <stEvt:instanceID>xmp.iid:61304afa-11f4-2d4b-81d8-b3730e28d80e</stEvt:instanceID>
                  <stEvt:when>2017-04-10T22:04:24-04:00</stEvt:when>
                  <stEvt:softwareAgent>Adobe Audition CC 2017.0 (Windows)</stEvt:softwareAgent>
                  <stEvt:changed>/</stEvt:changed>
               </rdf:li>
               <rdf:li rdf:parseType="Resource">
                  <stEvt:action>saved</stEvt:action>
                  <stEvt:instanceID>xmp.iid:37e257bb-554f-7a42-b7d7-9b9cf39d95d6</stEvt:instanceID>
                  <stEvt:when>2017-04-10T22:57:17-04:00</stEvt:when>
                  <stEvt:softwareAgent>Adobe Audition CC 2017.0 (Windows)</stEvt:softwareAgent>
                  <stEvt:changed>/metadata</stEvt:changed>
               </rdf:li>
               <rdf:li rdf:parseType="Resource">
                  <stEvt:action>saved</stEvt:action>
                  <stEvt:instanceID>xmp.iid:3cc226cb-f9e7-0742-9cd6-a43d9bb051cf</stEvt:instanceID>
                  <stEvt:when>2017-04-10T22:57:17-04:00</stEvt:when>
                  <stEvt:softwareAgent>Adobe Audition CC 2017.0 (Windows)</stEvt:softwareAgent>
                  <stEvt:changed>/</stEvt:changed>
               </rdf:li>
               <rdf:li rdf:parseType="Resource">
                  <stEvt:action>saved</stEvt:action>
                  <stEvt:instanceID>xmp.iid:df55c0c4-fbda-7c4c-b278-8f6a0107e63f</stEvt:instanceID>
                  <stEvt:when>2017-04-10T23:00:17-04:00</stEvt:when>
                  <stEvt:softwareAgent>Adobe Audition CC 2017.0 (Windows)</stEvt:softwareAgent>
                  <stEvt:changed>/metadata</stEvt:changed>
               </rdf:li>
               <rdf:li rdf:parseType="Resource">
                  <stEvt:action>saved</stEvt:action>
                  <stEvt:instanceID>xmp.iid:ef36f530-18d8-6742-bd19-f4cd71e42b25</stEvt:instanceID>
                  <stEvt:when>2017-04-10T23:00:17-04:00</stEvt:when>
                  <stEvt:softwareAgent>Adobe Audition CC 2017.0 (Windows)</stEvt:softwareAgent>
                  <stEvt:changed>/</stEvt:changed>
               </rdf:li>
               <rdf:li rdf:parseType="Resource">
                  <stEvt:action>saved</stEvt:action>
                  <stEvt:instanceID>xmp.iid:9e79b23b-9f2c-4e4e-beba-637d26ac73b1</stEvt:instanceID>
                  <stEvt:when>2017-04-10T23:12:17-04:00</stEvt:when>
                  <stEvt:softwareAgent>Adobe Audition CC 2017.0 (Windows)</stEvt:softwareAgent>
                  <stEvt:changed>/metadata</stEvt:changed>
               </rdf:li>
               <rdf:li rdf:parseType="Resource">
                  <stEvt:action>saved</stEvt:action>
                  <stEvt:instanceID>xmp.iid:1dc2b7e4-6ea6-de4e-89ce-d08624e444a0</stEvt:instanceID>
                  <stEvt:when>2017-04-10T23:12:17-04:00</stEvt:when>
                  <stEvt:softwareAgent>Adobe Audition CC 2017.0 (Windows)</stEvt:softwareAgent>
                  <stEvt:changed>/</stEvt:changed>
               </rdf:li>
               <rdf:li rdf:parseType="Resource">
                  <stEvt:action>saved</stEvt:action>
                  <stEvt:instanceID>xmp.iid:a82c898a-b41b-5341-99e1-8297e422a418</stEvt:instanceID>
                  <stEvt:when>2017-04-10T23:14:24-04:00</stEvt:when>
                  <stEvt:softwareAgent>Adobe Audition CC 2017.0 (Windows)</stEvt:softwareAgent>
                  <stEvt:changed>/metadata</stEvt:changed>
               </rdf:li>
               <rdf:li rdf:parseType="Resource">
                  <stEvt:action>saved</stEvt:action>
                  <stEvt:instanceID>xmp.iid:4caf7a3b-16fd-b54d-828a-841782dc526b</stEvt:instanceID>
                  <stEvt:when>2017-04-10T23:14:24-04:00</stEvt:when>
                  <stEvt:softwareAgent>Adobe Audition CC 2017.0 (Windows)</stEvt:softwareAgent>
                  <stEvt:changed>/</stEvt:changed>
               </rdf:li>
               <rdf:li rdf:parseType="Resource">
                  <stEvt:action>saved</stEvt:action>
                  <stEvt:instanceID>xmp.iid:6758c70e-27ba-1248-96c6-4a61ac894ae6</stEvt:instanceID>
                  <stEvt:when>2017-04-10T23:16:28-04:00</stEvt:when>
                  <stEvt:softwareAgent>Adobe Audition CC 2017.0 (Windows)</stEvt:softwareAgent>
                  <stEvt:changed>/metadata</stEvt:changed>
               </rdf:li>
               <rdf:li rdf:parseType="Resource">
                  <stEvt:action>saved</stEvt:action>
                  <stEvt:instanceID>xmp.iid:06075557-80cd-0741-87d4-36a4becd7915</stEvt:instanceID>
                  <stEvt:when>2017-04-10T23:16:28-04:00</stEvt:when>
                  <stEvt:softwareAgent>Adobe Audition CC 2017.0 (Windows)</stEvt:softwareAgent>
                  <stEvt:changed>/</stEvt:changed>
               </rdf:li>
               <rdf:li rdf:parseType="Resource">
                  <stEvt:action>saved</stEvt:action>
                  <stEvt:instanceID>xmp.iid:6c0c800a-4355-f84d-80f9-4fb99398ca67</stEvt:instanceID>
                  <stEvt:when>2017-04-10T23:16:28-04:00</stEvt:when>
                  <stEvt:softwareAgent>Adobe Audition CC 2017.0 (Windows)</stEvt:softwareAgent>
                  <stEvt:changed>/metadata</stEvt:changed>
               </rdf:li>
               <rdf:li rdf:parseType="Resource">
                  <stEvt:action>saved</stEvt:action>
                  <stEvt:instanceID>xmp.iid:77dbe189-0256-884e-8188-2fb0d51e64a2</stEvt:instanceID>
                  <stEvt:when>2017-04-10T23:16:28-04:00</stEvt:when>
                  <stEvt:softwareAgent>Adobe Audition CC 2017.0 (Windows)</stEvt:softwareAgent>
                  <stEvt:changed>/</stEvt:changed>
               </rdf:li>
               <rdf:li rdf:parseType="Resource">
                  <stEvt:action>saved</stEvt:action>
                  <stEvt:instanceID>xmp.iid:e106c89b-0b6f-ba41-8a5a-cc875ade7380</stEvt:instanceID>
                  <stEvt:when>2017-04-10T23:32:48-04:00</stEvt:when>
                  <stEvt:softwareAgent>Adobe Audition CC 2017.0 (Windows)</stEvt:softwareAgent>
                  <stEvt:changed>/metadata</stEvt:changed>
               </rdf:li>
               <rdf:li rdf:parseType="Resource">
                  <stEvt:action>saved</stEvt:action>
                  <stEvt:instanceID>xmp.iid:7306836f-070d-724d-b212-6fde223ae397</stEvt:instanceID>
                  <stEvt:when>2017-04-10T23:32:48-04:00</stEvt:when>
                  <stEvt:softwareAgent>Adobe Audition CC 2017.0 (Windows)</stEvt:softwareAgent>
                  <stEvt:changed>/</stEvt:changed>
               </rdf:li>
               <rdf:li rdf:parseType="Resource">
                  <stEvt:action>saved</stEvt:action>
                  <stEvt:instanceID>xmp.iid:36e8bbd1-c758-a140-8cd0-5ab1450a4e3c</stEvt:instanceID>
                  <stEvt:when>2017-04-10T23:41:48-04:00</stEvt:when>
                  <stEvt:softwareAgent>Adobe Audition CC 2017.0 (Windows)</stEvt:softwareAgent>
                  <stEvt:changed>/metadata</stEvt:changed>
               </rdf:li>
               <rdf:li rdf:parseType="Resource">
                  <stEvt:action>saved</stEvt:action>
                  <stEvt:instanceID>xmp.iid:a744702f-2e59-f54d-b1e3-75b775543e5a</stEvt:instanceID>
                  <stEvt:when>2017-04-10T23:41:48-04:00</stEvt:when>
                  <stEvt:softwareAgent>Adobe Audition CC 2017.0 (Windows)</stEvt:softwareAgent>
                  <stEvt:changed>/</stEvt:changed>
               </rdf:li>
               <rdf:li rdf:parseType="Resource">
                  <stEvt:action>saved</stEvt:action>
                  <stEvt:instanceID>xmp.iid:72965f55-05f1-b747-9dec-d84356a72772</stEvt:instanceID>
                  <stEvt:when>2017-04-10T23:44:24-04:00</stEvt:when>
                  <stEvt:softwareAgent>Adobe Audition CC 2017.0 (Windows)</stEvt:softwareAgent>
                  <stEvt:changed>/metadata</stEvt:changed>
               </rdf:li>
               <rdf:li rdf:parseType="Resource">
                  <stEvt:action>saved</stEvt:action>
                  <stEvt:instanceID>xmp.iid:50e15bba-0790-0c4f-9c66-2e2567f121ae</stEvt:instanceID>
                  <stEvt:when>2017-04-10T23:44:24-04:00</stEvt:when>
                  <stEvt:softwareAgent>Adobe Audition CC 2017.0 (Windows)</stEvt:softwareAgent>
                  <stEvt:changed>/</stEvt:changed>
               </rdf:li>
               <rdf:li rdf:parseType="Resource">
                  <stEvt:action>saved</stEvt:action>
                  <stEvt:instanceID>xmp.iid:cf40401b-2b66-924f-8040-828d6c2a8034</stEvt:instanceID>
                  <stEvt:when>2017-04-10T23:44:48-04:00</stEvt:when>
                  <stEvt:softwareAgent>Adobe Audition CC 2017.0 (Windows)</stEvt:softwareAgent>
                  <stEvt:changed>/metadata</stEvt:changed>
               </rdf:li>
               <rdf:li rdf:parseType="Resource">
                  <stEvt:action>saved</stEvt:action>
                  <stEvt:instanceID>xmp.iid:9d7b090d-788d-ef4e-a379-4d312c2a37a8</stEvt:instanceID>
                  <stEvt:when>2017-04-10T23:44:48-04:00</stEvt:when>
                  <stEvt:softwareAgent>Adobe Audition CC 2017.0 (Windows)</stEvt:softwareAgent>
                  <stEvt:changed>/</stEvt:changed>
               </rdf:li>
               <rdf:li rdf:parseType="Resource">
                  <stEvt:action>saved</stEvt:action>
                  <stEvt:instanceID>xmp.iid:cee5b3f5-63aa-4e41-8a10-0e3d1b765d69</stEvt:instanceID>
                  <stEvt:when>2017-04-10T23:47:48-04:00</stEvt:when>
                  <stEvt:softwareAgent>Adobe Audition CC 2017.0 (Windows)</stEvt:softwareAgent>
                  <stEvt:changed>/metadata</stEvt:changed>
               </rdf:li>
               <rdf:li rdf:parseType="Resource">
                  <stEvt:action>saved</stEvt:action>
                  <stEvt:instanceID>xmp.iid:a8979b80-6a83-1541-9a39-ae4dc5e625a7</stEvt:instanceID>
                  <stEvt:when>2017-04-10T23:47:48-04:00</stEvt:when>
                  <stEvt:softwareAgent>Adobe Audition CC 2017.0 (Windows)</stEvt:softwareAgent>
                  <stEvt:changed>/</stEvt:changed>
               </rdf:li>
               <rdf:li rdf:parseType="Resource">
                  <stEvt:action>saved</stEvt:action>
                  <stEvt:instanceID>xmp.iid:96da4de8-0e27-9748-be0e-c0f30ab62ae5</stEvt:instanceID>
                  <stEvt:when>2017-04-10T23:50:48-04:00</stEvt:when>
                  <stEvt:softwareAgent>Adobe Audition CC 2017.0 (Windows)</stEvt:softwareAgent>
                  <stEvt:changed>/metadata</stEvt:changed>
               </rdf:li>
               <rdf:li rdf:parseType="Resource">
                  <stEvt:action>saved</stEvt:action>
                  <stEvt:instanceID>xmp.iid:f5573d0f-a140-e042-82f6-7e778c7879e9</stEvt:instanceID>
                  <stEvt:when>2017-04-10T23:50:48-04:00</stEvt:when>
                  <stEvt:softwareAgent>Adobe Audition CC 2017.0 (Windows)</stEvt:softwareAgent>
                  <stEvt:changed>/</stEvt:changed>
               </rdf:li>
               <rdf:li rdf:parseType="Resource">
                  <stEvt:action>saved</stEvt:action>
                  <stEvt:instanceID>xmp.iid:b7eb0a16-bd1a-e143-8669-674ed4d82cb5</stEvt:instanceID>
                  <stEvt:when>2017-04-10T23:53:48-04:00</stEvt:when>
                  <stEvt:softwareAgent>Adobe Audition CC 2017.0 (Windows)</stEvt:softwareAgent>
                  <stEvt:changed>/metadata</stEvt:changed>
               </rdf:li>
               <rdf:li rdf:parseType="Resource">
                  <stEvt:action>saved</stEvt:action>
                  <stEvt:instanceID>xmp.iid:2e6fd922-d1a9-0744-aa15-62af541e2f4d</stEvt:instanceID>
                  <stEvt:when>2017-04-10T23:53:48-04:00</stEvt:when>
                  <stEvt:softwareAgent>Adobe Audition CC 2017.0 (Windows)</stEvt:softwareAgent>
                  <stEvt:changed>/</stEvt:changed>
               </rdf:li>
               <rdf:li rdf:parseType="Resource">
                  <stEvt:action>saved</stEvt:action>
                  <stEvt:instanceID>xmp.iid:f9fd08d0-acf2-fe4a-9735-3359431acd5e</stEvt:instanceID>
                  <stEvt:when>2017-04-10T23:54:24-04:00</stEvt:when>
                  <stEvt:softwareAgent>Adobe Audition CC 2017.0 (Windows)</stEvt:softwareAgent>
                  <stEvt:changed>/metadata</stEvt:changed>
               </rdf:li>
               <rdf:li rdf:parseType="Resource">
                  <stEvt:action>saved</stEvt:action>
                  <stEvt:instanceID>xmp.iid:161f330d-ce74-5d4b-a687-91c042b22c1a</stEvt:instanceID>
                  <stEvt:when>2017-04-10T23:54:24-04:00</stEvt:when>
                  <stEvt:softwareAgent>Adobe Audition CC 2017.0 (Windows)</stEvt:softwareAgent>
                  <stEvt:changed>/</stEvt:changed>
               </rdf:li>
               <rdf:li rdf:parseType="Resource">
                  <stEvt:action>saved</stEvt:action>
                  <stEvt:instanceID>xmp.iid:a6dc2d0a-6583-5240-be36-71857ca780c0</stEvt:instanceID>
                  <stEvt:when>2017-04-10T23:59:48-04:00</stEvt:when>
                  <stEvt:softwareAgent>Adobe Audition CC 2017.0 (Windows)</stEvt:softwareAgent>
                  <stEvt:changed>/metadata</stEvt:changed>
               </rdf:li>
               <rdf:li rdf:parseType="Resource">
                  <stEvt:action>saved</stEvt:action>
                  <stEvt:instanceID>xmp.iid:0f98ab2c-3136-1c46-8584-a6b8ca54c7f6</stEvt:instanceID>
                  <stEvt:when>2017-04-10T23:59:48-04:00</stEvt:when>
                  <stEvt:softwareAgent>Adobe Audition CC 2017.0 (Windows)</stEvt:softwareAgent>
                  <stEvt:changed>/</stEvt:changed>
               </rdf:li>
               <rdf:li rdf:parseType="Resource">
                  <stEvt:action>saved</stEvt:action>
                  <stEvt:instanceID>xmp.iid:cee5eed5-9ddf-4c4a-9d64-cfb89ddf120d</stEvt:instanceID>
                  <stEvt:when>2017-04-11T00:03:01-04:00</stEvt:when>
                  <stEvt:softwareAgent>Adobe Audition CC 2017.0 (Windows)</stEvt:softwareAgent>
                  <stEvt:changed>/metadata</stEvt:changed>
               </rdf:li>
               <rdf:li rdf:parseType="Resource">
                  <stEvt:action>saved</stEvt:action>
                  <stEvt:instanceID>xmp.iid:b2930067-8997-1845-b5a8-67d5313b592d</stEvt:instanceID>
                  <stEvt:when>2017-04-11T00:03:01-04:00</stEvt:when>
                  <stEvt:softwareAgent>Adobe Audition CC 2017.0 (Windows)</stEvt:softwareAgent>
                  <stEvt:changed>/</stEvt:changed>
               </rdf:li>
               <rdf:li rdf:parseType="Resource">
                  <stEvt:action>saved</stEvt:action>
                  <stEvt:instanceID>xmp.iid:90c5b4a4-9cbd-534d-8009-52e81ab66094</stEvt:instanceID>
                  <stEvt:when>2017-04-11T00:04:24-04:00</stEvt:when>
                  <stEvt:softwareAgent>Adobe Audition CC 2017.0 (Windows)</stEvt:softwareAgent>
                  <stEvt:changed>/metadata</stEvt:changed>
               </rdf:li>
               <rdf:li rdf:parseType="Resource">
                  <stEvt:action>saved</stEvt:action>
                  <stEvt:instanceID>xmp.iid:ba048b13-2285-5641-aacc-300286caf725</stEvt:instanceID>
                  <stEvt:when>2017-04-11T00:04:24-04:00</stEvt:when>
                  <stEvt:softwareAgent>Adobe Audition CC 2017.0 (Windows)</stEvt:softwareAgent>
                  <stEvt:changed>/</stEvt:changed>
               </rdf:li>
               <rdf:li rdf:parseType="Resource">
                  <stEvt:action>saved</stEvt:action>
                  <stEvt:instanceID>xmp.iid:039f8bcb-f420-e443-bb47-e3fb25342353</stEvt:instanceID>
                  <stEvt:when>2017-04-11T00:09:01-04:00</stEvt:when>
                  <stEvt:softwareAgent>Adobe Audition CC 2017.0 (Windows)</stEvt:softwareAgent>
                  <stEvt:changed>/metadata</stEvt:changed>
               </rdf:li>
               <rdf:li rdf:parseType="Resource">
                  <stEvt:action>saved</stEvt:action>
                  <stEvt:instanceID>xmp.iid:4ea0be09-21b4-0548-a684-b6a9b1f5749e</stEvt:instanceID>
                  <stEvt:when>2017-04-11T00:09:01-04:00</stEvt:when>
                  <stEvt:softwareAgent>Adobe Audition CC 2017.0 (Windows)</stEvt:softwareAgent>
                  <stEvt:changed>/</stEvt:changed>
               </rdf:li>
               <rdf:li rdf:parseType="Resource">
                  <stEvt:action>saved</stEvt:action>
                  <stEvt:instanceID>xmp.iid:7ee5f749-c226-a04b-b2f6-02dac4ab3c33</stEvt:instanceID>
                  <stEvt:when>2017-04-11T00:21:01-04:00</stEvt:when>
                  <stEvt:softwareAgent>Adobe Audition CC 2017.0 (Windows)</stEvt:softwareAgent>
                  <stEvt:changed>/metadata</stEvt:changed>
               </rdf:li>
               <rdf:li rdf:parseType="Resource">
                  <stEvt:action>saved</stEvt:action>
                  <stEvt:instanceID>xmp.iid:650e2b37-26be-7a4b-8235-266f314bb626</stEvt:instanceID>
                  <stEvt:when>2017-04-11T00:21:01-04:00</stEvt:when>
                  <stEvt:softwareAgent>Adobe Audition CC 2017.0 (Windows)</stEvt:softwareAgent>
                  <stEvt:changed>/</stEvt:changed>
               </rdf:li>
               <rdf:li rdf:parseType="Resource">
                  <stEvt:action>saved</stEvt:action>
                  <stEvt:instanceID>xmp.iid:daa8a235-396f-7f46-ba5e-5dce03153fb5</stEvt:instanceID>
                  <stEvt:when>2017-04-11T00:24:24-04:00</stEvt:when>
                  <stEvt:softwareAgent>Adobe Audition CC 2017.0 (Windows)</stEvt:softwareAgent>
                  <stEvt:changed>/metadata</stEvt:changed>
               </rdf:li>
               <rdf:li rdf:parseType="Resource">
                  <stEvt:action>saved</stEvt:action>
                  <stEvt:instanceID>xmp.iid:58a25728-e362-5f4d-8259-346a0e08ac59</stEvt:instanceID>
                  <stEvt:when>2017-04-11T00:24:24-04:00</stEvt:when>
                  <stEvt:softwareAgent>Adobe Audition CC 2017.0 (Windows)</stEvt:softwareAgent>
                  <stEvt:changed>/</stEvt:changed>
               </rdf:li>
               <rdf:li rdf:parseType="Resource">
                  <stEvt:action>saved</stEvt:action>
                  <stEvt:instanceID>xmp.iid:28a089ea-b3a3-bc45-9d25-11ead8046df3</stEvt:instanceID>
                  <stEvt:when>2017-04-11T00:32:39-04:00</stEvt:when>
                  <stEvt:softwareAgent>Adobe Audition CC 2017.0 (Windows)</stEvt:softwareAgent>
                  <stEvt:changed>/metadata</stEvt:changed>
               </rdf:li>
               <rdf:li rdf:parseType="Resource">
                  <stEvt:action>saved</stEvt:action>
                  <stEvt:instanceID>xmp.iid:ff1cd1ba-0871-a24c-b3b3-04598ea7ad32</stEvt:instanceID>
                  <stEvt:when>2017-04-11T00:32:39-04:00</stEvt:when>
                  <stEvt:softwareAgent>Adobe Audition CC 2017.0 (Windows)</stEvt:softwareAgent>
                  <stEvt:changed>/</stEvt:changed>
               </rdf:li>
               <rdf:li rdf:parseType="Resource">
                  <stEvt:action>saved</stEvt:action>
                  <stEvt:instanceID>xmp.iid:3c7b1e5a-7a19-fb49-a93d-5f0fac4b739f</stEvt:instanceID>
                  <stEvt:when>2017-04-11T00:34:24-04:00</stEvt:when>
                  <stEvt:softwareAgent>Adobe Audition CC 2017.0 (Windows)</stEvt:softwareAgent>
                  <stEvt:changed>/metadata</stEvt:changed>
               </rdf:li>
               <rdf:li rdf:parseType="Resource">
                  <stEvt:action>saved</stEvt:action>
                  <stEvt:instanceID>xmp.iid:cb26ae1f-a864-264b-a3a1-7251cdcfe51c</stEvt:instanceID>
                  <stEvt:when>2017-04-11T00:34:24-04:00</stEvt:when>
                  <stEvt:softwareAgent>Adobe Audition CC 2017.0 (Windows)</stEvt:softwareAgent>
                  <stEvt:changed>/</stEvt:changed>
               </rdf:li>
               <rdf:li rdf:parseType="Resource">
                  <stEvt:action>saved</stEvt:action>
                  <stEvt:instanceID>xmp.iid:6bdfff2e-f51f-dd43-9043-2ff632424327</stEvt:instanceID>
                  <stEvt:when>2017-04-11T00:38:39-04:00</stEvt:when>
                  <stEvt:softwareAgent>Adobe Audition CC 2017.0 (Windows)</stEvt:softwareAgent>
                  <stEvt:changed>/metadata</stEvt:changed>
               </rdf:li>
               <rdf:li rdf:parseType="Resource">
                  <stEvt:action>saved</stEvt:action>
                  <stEvt:instanceID>xmp.iid:1293f26e-8dba-1b4e-aa70-c0e43a13394a</stEvt:instanceID>
                  <stEvt:when>2017-04-11T00:38:39-04:00</stEvt:when>
                  <stEvt:softwareAgent>Adobe Audition CC 2017.0 (Windows)</stEvt:softwareAgent>
                  <stEvt:changed>/</stEvt:changed>
               </rdf:li>
               <rdf:li rdf:parseType="Resource">
                  <stEvt:action>saved</stEvt:action>
                  <stEvt:instanceID>xmp.iid:5a27d2bc-7ad7-1b42-af6a-e13439344f5a</stEvt:instanceID>
                  <stEvt:when>2017-04-11T00:41:39-04:00</stEvt:when>
                  <stEvt:softwareAgent>Adobe Audition CC 2017.0 (Windows)</stEvt:softwareAgent>
                  <stEvt:changed>/metadata</stEvt:changed>
               </rdf:li>
               <rdf:li rdf:parseType="Resource">
                  <stEvt:action>saved</stEvt:action>
                  <stEvt:instanceID>xmp.iid:b3d2b908-3df6-9f4c-b5fd-366c060423e7</stEvt:instanceID>
                  <stEvt:when>2017-04-11T00:41:39-04:00</stEvt:when>
                  <stEvt:softwareAgent>Adobe Audition CC 2017.0 (Windows)</stEvt:softwareAgent>
                  <stEvt:changed>/</stEvt:changed>
               </rdf:li>
               <rdf:li rdf:parseType="Resource">
                  <stEvt:action>saved</stEvt:action>
                  <stEvt:instanceID>xmp.iid:46476a12-b991-1543-8441-5f77a948e467</stEvt:instanceID>
                  <stEvt:when>2017-04-11T00:42:08-04:00</stEvt:when>
                  <stEvt:softwareAgent>Adobe Audition CC 2017.0 (Windows)</stEvt:softwareAgent>
                  <stEvt:changed>/metadata</stEvt:changed>
               </rdf:li>
               <rdf:li rdf:parseType="Resource">
                  <stEvt:action>saved</stEvt:action>
                  <stEvt:instanceID>xmp.iid:8ea21856-106c-1447-9191-02faa691b6d5</stEvt:instanceID>
                  <stEvt:when>2017-04-11T00:42:08-04:00</stEvt:when>
                  <stEvt:softwareAgent>Adobe Audition CC 2017.0 (Windows)</stEvt:softwareAgent>
                  <stEvt:changed>/</stEvt:changed>
               </rdf:li>
               <rdf:li rdf:parseType="Resource">
                  <stEvt:action>saved</stEvt:action>
                  <stEvt:instanceID>xmp.iid:264e959f-d3f1-a342-8d70-a07f2e0440a0</stEvt:instanceID>
                  <stEvt:when>2017-04-11T00:47:39-04:00</stEvt:when>
                  <stEvt:softwareAgent>Adobe Audition CC 2017.0 (Windows)</stEvt:softwareAgent>
                  <stEvt:changed>/metadata</stEvt:changed>
               </rdf:li>
               <rdf:li rdf:parseType="Resource">
                  <stEvt:action>saved</stEvt:action>
                  <stEvt:instanceID>xmp.iid:5b68c105-1f2d-3e4c-9754-a6b1cf27dab1</stEvt:instanceID>
                  <stEvt:when>2017-04-11T00:47:39-04:00</stEvt:when>
                  <stEvt:softwareAgent>Adobe Audition CC 2017.0 (Windows)</stEvt:softwareAgent>
                  <stEvt:changed>/</stEvt:changed>
               </rdf:li>
               <rdf:li rdf:parseType="Resource">
                  <stEvt:action>saved</stEvt:action>
                  <stEvt:instanceID>xmp.iid:e059725a-b9c1-8440-9f4b-be82342c5ca7</stEvt:instanceID>
                  <stEvt:when>2017-04-11T00:50:39-04:00</stEvt:when>
                  <stEvt:softwareAgent>Adobe Audition CC 2017.0 (Windows)</stEvt:softwareAgent>
                  <stEvt:changed>/metadata</stEvt:changed>
               </rdf:li>
               <rdf:li rdf:parseType="Resource">
                  <stEvt:action>saved</stEvt:action>
                  <stEvt:instanceID>xmp.iid:9af06399-6357-3a47-9fe5-4d7033d616a4</stEvt:instanceID>
                  <stEvt:when>2017-04-11T00:50:39-04:00</stEvt:when>
                  <stEvt:softwareAgent>Adobe Audition CC 2017.0 (Windows)</stEvt:softwareAgent>
                  <stEvt:changed>/</stEvt:changed>
               </rdf:li>
               <rdf:li rdf:parseType="Resource">
                  <stEvt:action>saved</stEvt:action>
                  <stEvt:instanceID>xmp.iid:83e6f8b0-0c2e-1c4d-94df-36e19cd455c6</stEvt:instanceID>
                  <stEvt:when>2017-04-11T00:53:39-04:00</stEvt:when>
                  <stEvt:softwareAgent>Adobe Audition CC 2017.0 (Windows)</stEvt:softwareAgent>
                  <stEvt:changed>/metadata</stEvt:changed>
               </rdf:li>
               <rdf:li rdf:parseType="Resource">
                  <stEvt:action>saved</stEvt:action>
                  <stEvt:instanceID>xmp.iid:e88835ac-59df-ac4e-9115-ff14d5a0e0e8</stEvt:instanceID>
                  <stEvt:when>2017-04-11T00:53:39-04:00</stEvt:when>
                  <stEvt:softwareAgent>Adobe Audition CC 2017.0 (Windows)</stEvt:softwareAgent>
                  <stEvt:changed>/</stEvt:changed>
               </rdf:li>
               <rdf:li rdf:parseType="Resource">
                  <stEvt:action>saved</stEvt:action>
                  <stEvt:instanceID>xmp.iid:7da78f97-c003-aa4c-8bd1-6508a09d0728</stEvt:instanceID>
                  <stEvt:when>2017-04-11T00:54:24-04:00</stEvt:when>
                  <stEvt:softwareAgent>Adobe Audition CC 2017.0 (Windows)</stEvt:softwareAgent>
                  <stEvt:changed>/metadata</stEvt:changed>
               </rdf:li>
               <rdf:li rdf:parseType="Resource">
                  <stEvt:action>saved</stEvt:action>
                  <stEvt:instanceID>xmp.iid:1b2a3cf4-ef89-e447-82d2-e069f95bb7ad</stEvt:instanceID>
                  <stEvt:when>2017-04-11T00:54:24-04:00</stEvt:when>
                  <stEvt:softwareAgent>Adobe Audition CC 2017.0 (Windows)</stEvt:softwareAgent>
                  <stEvt:changed>/</stEvt:changed>
               </rdf:li>
               <rdf:li rdf:parseType="Resource">
                  <stEvt:action>saved</stEvt:action>
                  <stEvt:instanceID>xmp.iid:e65100d4-f0ce-6844-aca8-dfcdb1b81b66</stEvt:instanceID>
                  <stEvt:when>2017-04-11T01:11:50-04:00</stEvt:when>
                  <stEvt:softwareAgent>Adobe Audition CC 2017.0 (Windows)</stEvt:softwareAgent>
                  <stEvt:changed>/metadata</stEvt:changed>
               </rdf:li>
               <rdf:li rdf:parseType="Resource">
                  <stEvt:action>saved</stEvt:action>
                  <stEvt:instanceID>xmp.iid:2b1d3712-44a3-7349-a57d-11044d4f54ce</stEvt:instanceID>
                  <stEvt:when>2017-04-11T01:11:50-04:00</stEvt:when>
                  <stEvt:softwareAgent>Adobe Audition CC 2017.0 (Windows)</stEvt:softwareAgent>
                  <stEvt:changed>/</stEvt:changed>
               </rdf:li>
               <rdf:li rdf:parseType="Resource">
                  <stEvt:action>saved</stEvt:action>
                  <stEvt:instanceID>xmp.iid:d0a359f8-a897-db4a-8ea4-68d58ce5d91e</stEvt:instanceID>
                  <stEvt:when>2017-04-11T01:11:50-04:00</stEvt:when>
                  <stEvt:softwareAgent>Adobe Audition CC 2017.0 (Windows)</stEvt:softwareAgent>
                  <stEvt:changed>/metadata</stEvt:changed>
               </rdf:li>
               <rdf:li rdf:parseType="Resource">
                  <stEvt:action>saved</stEvt:action>
                  <stEvt:instanceID>xmp.iid:bb23a1d1-f4bd-1a40-ba83-576ccc24f779</stEvt:instanceID>
                  <stEvt:when>2017-04-11T01:11:50-04:00</stEvt:when>
                  <stEvt:softwareAgent>Adobe Audition CC 2017.0 (Windows)</stEvt:softwareAgent>
                  <stEvt:changed>/</stEvt:changed>
               </rdf:li>
               <rdf:li rdf:parseType="Resource">
                  <stEvt:action>saved</stEvt:action>
                  <stEvt:instanceID>xmp.iid:e752ebc7-5096-1b49-94aa-050563c00854</stEvt:instanceID>
                  <stEvt:when>2017-04-11T01:56:21-04:00</stEvt:when>
                  <stEvt:softwareAgent>Adobe Audition CC 2017.0 (Windows)</stEvt:softwareAgent>
                  <stEvt:changed>/metadata</stEvt:changed>
               </rdf:li>
               <rdf:li rdf:parseType="Resource">
                  <stEvt:action>saved</stEvt:action>
                  <stEvt:instanceID>xmp.iid:254ab85c-26a4-0d4e-84f1-f6d1f8a80e05</stEvt:instanceID>
                  <stEvt:when>2017-04-11T01:56:21-04:00</stEvt:when>
                  <stEvt:softwareAgent>Adobe Audition CC 2017.0 (Windows)</stEvt:softwareAgent>
                  <stEvt:changed>/</stEvt:changed>
               </rdf:li>
               <rdf:li rdf:parseType="Resource">
                  <stEvt:action>saved</stEvt:action>
                  <stEvt:instanceID>xmp.iid:ff191152-4f76-ae40-aaa8-a6139380914e</stEvt:instanceID>
                  <stEvt:when>2017-04-11T01:56:21-04:00</stEvt:when>
                  <stEvt:softwareAgent>Adobe Audition CC 2017.0 (Windows)</stEvt:softwareAgent>
                  <stEvt:changed>/metadata</stEvt:changed>
               </rdf:li>
               <rdf:li rdf:parseType="Resource">
                  <stEvt:action>saved</stEvt:action>
                  <stEvt:instanceID>xmp.iid:840ec877-974a-0748-a42f-ef638cf2d4c3</stEvt:instanceID>
                  <stEvt:when>2017-04-11T01:56:21-04:00</stEvt:when>
                  <stEvt:softwareAgent>Adobe Audition CC 2017.0 (Windows)</stEvt:softwareAgent>
                  <stEvt:changed>/</stEvt:changed>
               </rdf:li>
               <rdf:li rdf:parseType="Resource">
                  <stEvt:action>saved</stEvt:action>
                  <stEvt:instanceID>xmp.iid:4bc4ff31-4f89-df4e-8795-7e005ef41617</stEvt:instanceID>
                  <stEvt:when>2017-04-11T04:14:24-04:00</stEvt:when>
                  <stEvt:softwareAgent>Adobe Audition CC 2017.0 (Windows)</stEvt:softwareAgent>
                  <stEvt:changed>/metadata</stEvt:changed>
               </rdf:li>
               <rdf:li rdf:parseType="Resource">
                  <stEvt:action>saved</stEvt:action>
                  <stEvt:instanceID>xmp.iid:75235669-e93d-a147-85fa-253289034ac5</stEvt:instanceID>
                  <stEvt:when>2017-04-11T04:14:24-04:00</stEvt:when>
                  <stEvt:softwareAgent>Adobe Audition CC 2017.0 (Windows)</stEvt:softwareAgent>
                  <stEvt:changed>/</stEvt:changed>
               </rdf:li>
               <rdf:li rdf:parseType="Resource">
                  <stEvt:action>saved</stEvt:action>
                  <stEvt:instanceID>xmp.iid:53a6b5b6-a8d3-2842-8a4d-bcec5f10c78c</stEvt:instanceID>
                  <stEvt:when>2017-04-11T04:14:45-04:00</stEvt:when>
                  <stEvt:softwareAgent>Adobe Audition CC 2017.0 (Windows)</stEvt:softwareAgent>
                  <stEvt:changed>/metadata</stEvt:changed>
               </rdf:li>
               <rdf:li rdf:parseType="Resource">
                  <stEvt:action>saved</stEvt:action>
                  <stEvt:instanceID>xmp.iid:1c8422e0-e4a3-314e-9de9-5fc488a44c11</stEvt:instanceID>
                  <stEvt:when>2017-04-11T04:14:45-04:00</stEvt:when>
                  <stEvt:softwareAgent>Adobe Audition CC 2017.0 (Windows)</stEvt:softwareAgent>
                  <stEvt:changed>/</stEvt:changed>
               </rdf:li>
               <rdf:li rdf:parseType="Resource">
                  <stEvt:action>saved</stEvt:action>
                  <stEvt:instanceID>xmp.iid:09c5abd8-da94-d54b-a661-3c7983422ca0</stEvt:instanceID>
                  <stEvt:when>2017-04-11T04:19:51-04:00</stEvt:when>
                  <stEvt:softwareAgent>Adobe Audition CC 2017.0 (Windows)</stEvt:softwareAgent>
                  <stEvt:changed>/metadata</stEvt:changed>
               </rdf:li>
               <rdf:li rdf:parseType="Resource">
                  <stEvt:action>saved</stEvt:action>
                  <stEvt:instanceID>xmp.iid:90ef2286-6630-2a4e-add2-7e1fa5a59959</stEvt:instanceID>
                  <stEvt:when>2017-04-11T04:19:51-04:00</stEvt:when>
                  <stEvt:softwareAgent>Adobe Audition CC 2017.0 (Windows)</stEvt:softwareAgent>
                  <stEvt:changed>/</stEvt:changed>
               </rdf:li>
               <rdf:li rdf:parseType="Resource">
                  <stEvt:action>saved</stEvt:action>
                  <stEvt:instanceID>xmp.iid:127115bd-4bdf-6647-b117-55d665b9fbd1</stEvt:instanceID>
                  <stEvt:when>2017-04-11T04:23:45-04:00</stEvt:when>
                  <stEvt:softwareAgent>Adobe Audition CC 2017.0 (Windows)</stEvt:softwareAgent>
                  <stEvt:changed>/metadata</stEvt:changed>
               </rdf:li>
               <rdf:li rdf:parseType="Resource">
                  <stEvt:action>saved</stEvt:action>
                  <stEvt:instanceID>xmp.iid:ef8be2a1-6201-e94a-951c-bc6433d0af74</stEvt:instanceID>
                  <stEvt:when>2017-04-11T04:23:45-04:00</stEvt:when>
                  <stEvt:softwareAgent>Adobe Audition CC 2017.0 (Windows)</stEvt:softwareAgent>
                  <stEvt:changed>/</stEvt:changed>
               </rdf:li>
               <rdf:li rdf:parseType="Resource">
                  <stEvt:action>saved</stEvt:action>
                  <stEvt:instanceID>xmp.iid:2abd65b3-08b2-7e45-8994-de7bf6ac8a6a</stEvt:instanceID>
                  <stEvt:when>2017-04-11T04:32:46-04:00</stEvt:when>
                  <stEvt:softwareAgent>Adobe Audition CC 2017.0 (Windows)</stEvt:softwareAgent>
                  <stEvt:changed>/metadata</stEvt:changed>
               </rdf:li>
               <rdf:li rdf:parseType="Resource">
                  <stEvt:action>saved</stEvt:action>
                  <stEvt:instanceID>xmp.iid:8ad87446-1652-ad4b-8ced-25381c8e1f34</stEvt:instanceID>
                  <stEvt:when>2017-04-11T04:32:46-04:00</stEvt:when>
                  <stEvt:softwareAgent>Adobe Audition CC 2017.0 (Windows)</stEvt:softwareAgent>
                  <stEvt:changed>/</stEvt:changed>
               </rdf:li>
               <rdf:li rdf:parseType="Resource">
                  <stEvt:action>saved</stEvt:action>
                  <stEvt:instanceID>xmp.iid:c18915a4-092a-324c-9bb6-abb60fa06752</stEvt:instanceID>
                  <stEvt:when>2017-04-11T04:35:46-04:00</stEvt:when>
                  <stEvt:softwareAgent>Adobe Audition CC 2017.0 (Windows)</stEvt:softwareAgent>
                  <stEvt:changed>/metadata</stEvt:changed>
               </rdf:li>
               <rdf:li rdf:parseType="Resource">
                  <stEvt:action>saved</stEvt:action>
                  <stEvt:instanceID>xmp.iid:a85e3eb1-4a82-a548-abb3-8d3ad4ce390a</stEvt:instanceID>
                  <stEvt:when>2017-04-11T04:35:46-04:00</stEvt:when>
                  <stEvt:softwareAgent>Adobe Audition CC 2017.0 (Windows)</stEvt:softwareAgent>
                  <stEvt:changed>/</stEvt:changed>
               </rdf:li>
               <rdf:li rdf:parseType="Resource">
                  <stEvt:action>saved</stEvt:action>
                  <stEvt:instanceID>xmp.iid:797a983a-66ae-4840-94e3-fff97f2a48ab</stEvt:instanceID>
                  <stEvt:when>2017-04-11T04:41:46-04:00</stEvt:when>
                  <stEvt:softwareAgent>Adobe Audition CC 2017.0 (Windows)</stEvt:softwareAgent>
                  <stEvt:changed>/metadata</stEvt:changed>
               </rdf:li>
               <rdf:li rdf:parseType="Resource">
                  <stEvt:action>saved</stEvt:action>
                  <stEvt:instanceID>xmp.iid:0b69ba42-2cea-b549-989d-672837c3a85c</stEvt:instanceID>
                  <stEvt:when>2017-04-11T04:41:46-04:00</stEvt:when>
                  <stEvt:softwareAgent>Adobe Audition CC 2017.0 (Windows)</stEvt:softwareAgent>
                  <stEvt:changed>/</stEvt:changed>
               </rdf:li>
               <rdf:li rdf:parseType="Resource">
                  <stEvt:action>saved</stEvt:action>
                  <stEvt:instanceID>xmp.iid:e2f9a079-a18b-e445-8858-282ea90eda37</stEvt:instanceID>
                  <stEvt:when>2017-04-11T04:44:46-04:00</stEvt:when>
                  <stEvt:softwareAgent>Adobe Audition CC 2017.0 (Windows)</stEvt:softwareAgent>
                  <stEvt:changed>/metadata</stEvt:changed>
               </rdf:li>
               <rdf:li rdf:parseType="Resource">
                  <stEvt:action>saved</stEvt:action>
                  <stEvt:instanceID>xmp.iid:2adc3a98-ed55-6b48-802c-9422229c592c</stEvt:instanceID>
                  <stEvt:when>2017-04-11T04:44:46-04:00</stEvt:when>
                  <stEvt:softwareAgent>Adobe Audition CC 2017.0 (Windows)</stEvt:softwareAgent>
                  <stEvt:changed>/</stEvt:changed>
               </rdf:li>
               <rdf:li rdf:parseType="Resource">
                  <stEvt:action>saved</stEvt:action>
                  <stEvt:instanceID>xmp.iid:ec1eed56-677f-8b4d-af1a-d3a6a9880fc9</stEvt:instanceID>
                  <stEvt:when>2017-04-11T04:50:46-04:00</stEvt:when>
                  <stEvt:softwareAgent>Adobe Audition CC 2017.0 (Windows)</stEvt:softwareAgent>
                  <stEvt:changed>/metadata</stEvt:changed>
               </rdf:li>
               <rdf:li rdf:parseType="Resource">
                  <stEvt:action>saved</stEvt:action>
                  <stEvt:instanceID>xmp.iid:d67ce571-1d39-834a-9464-814245a3d498</stEvt:instanceID>
                  <stEvt:when>2017-04-11T04:50:46-04:00</stEvt:when>
                  <stEvt:softwareAgent>Adobe Audition CC 2017.0 (Windows)</stEvt:softwareAgent>
                  <stEvt:changed>/</stEvt:changed>
               </rdf:li>
               <rdf:li rdf:parseType="Resource">
                  <stEvt:action>saved</stEvt:action>
                  <stEvt:instanceID>xmp.iid:7e6184a8-f550-9146-80a3-8cdc5445fcc8</stEvt:instanceID>
                  <stEvt:when>2017-04-11T04:54:24-04:00</stEvt:when>
                  <stEvt:softwareAgent>Adobe Audition CC 2017.0 (Windows)</stEvt:softwareAgent>
                  <stEvt:changed>/metadata</stEvt:changed>
               </rdf:li>
               <rdf:li rdf:parseType="Resource">
                  <stEvt:action>saved</stEvt:action>
                  <stEvt:instanceID>xmp.iid:8e82fafc-3923-ed4b-9230-b45ca0e088dd</stEvt:instanceID>
                  <stEvt:when>2017-04-11T04:54:24-04:00</stEvt:when>
                  <stEvt:softwareAgent>Adobe Audition CC 2017.0 (Windows)</stEvt:softwareAgent>
                  <stEvt:changed>/</stEvt:changed>
               </rdf:li>
               <rdf:li rdf:parseType="Resource">
                  <stEvt:action>saved</stEvt:action>
                  <stEvt:instanceID>xmp.iid:349a2f96-023f-a54a-ae1f-f00ef75c2e9c</stEvt:instanceID>
                  <stEvt:when>2017-04-11T05:04:24-04:00</stEvt:when>
                  <stEvt:softwareAgent>Adobe Audition CC 2017.0 (Windows)</stEvt:softwareAgent>
                  <stEvt:changed>/metadata</stEvt:changed>
               </rdf:li>
               <rdf:li rdf:parseType="Resource">
                  <stEvt:action>saved</stEvt:action>
                  <stEvt:instanceID>xmp.iid:69634d61-93e1-6044-ad5f-4f1f2212e81e</stEvt:instanceID>
                  <stEvt:when>2017-04-11T05:04:24-04:00</stEvt:when>
                  <stEvt:softwareAgent>Adobe Audition CC 2017.0 (Windows)</stEvt:softwareAgent>
                  <stEvt:changed>/</stEvt:changed>
               </rdf:li>
               <rdf:li rdf:parseType="Resource">
                  <stEvt:action>saved</stEvt:action>
                  <stEvt:instanceID>xmp.iid:7783bbcc-6998-1741-b753-c18a924426de</stEvt:instanceID>
                  <stEvt:when>2017-04-11T05:08:28-04:00</stEvt:when>
                  <stEvt:softwareAgent>Adobe Audition CC 2017.0 (Windows)</stEvt:softwareAgent>
                  <stEvt:changed>/metadata</stEvt:changed>
               </rdf:li>
               <rdf:li rdf:parseType="Resource">
                  <stEvt:action>saved</stEvt:action>
                  <stEvt:instanceID>xmp.iid:14f5e15b-a724-084a-b430-889f2c3512b0</stEvt:instanceID>
                  <stEvt:when>2017-04-11T05:08:28-04:00</stEvt:when>
                  <stEvt:softwareAgent>Adobe Audition CC 2017.0 (Windows)</stEvt:softwareAgent>
                  <stEvt:changed>/</stEvt:changed>
               </rdf:li>
               <rdf:li rdf:parseType="Resource">
                  <stEvt:action>saved</stEvt:action>
                  <stEvt:instanceID>xmp.iid:f7cb04d7-a13e-d84d-b597-f85eb162a364</stEvt:instanceID>
                  <stEvt:when>2017-04-11T05:11:46-04:00</stEvt:when>
                  <stEvt:softwareAgent>Adobe Audition CC 2017.0 (Windows)</stEvt:softwareAgent>
                  <stEvt:changed>/metadata</stEvt:changed>
               </rdf:li>
               <rdf:li rdf:parseType="Resource">
                  <stEvt:action>saved</stEvt:action>
                  <stEvt:instanceID>xmp.iid:38458957-ac42-884f-9f1c-81cb120ea46d</stEvt:instanceID>
                  <stEvt:when>2017-04-11T05:11:46-04:00</stEvt:when>
                  <stEvt:softwareAgent>Adobe Audition CC 2017.0 (Windows)</stEvt:softwareAgent>
                  <stEvt:changed>/</stEvt:changed>
               </rdf:li>
               <rdf:li rdf:parseType="Resource">
                  <stEvt:action>saved</stEvt:action>
                  <stEvt:instanceID>xmp.iid:aaf79a7f-76f0-9949-b6ca-31098bc0b7e8</stEvt:instanceID>
                  <stEvt:when>2017-04-11T05:14:46-04:00</stEvt:when>
                  <stEvt:softwareAgent>Adobe Audition CC 2017.0 (Windows)</stEvt:softwareAgent>
                  <stEvt:changed>/metadata</stEvt:changed>
               </rdf:li>
               <rdf:li rdf:parseType="Resource">
                  <stEvt:action>saved</stEvt:action>
                  <stEvt:instanceID>xmp.iid:61d9304b-8016-ff4a-96f5-10df8c7654e2</stEvt:instanceID>
                  <stEvt:when>2017-04-11T05:14:46-04:00</stEvt:when>
                  <stEvt:softwareAgent>Adobe Audition CC 2017.0 (Windows)</stEvt:softwareAgent>
                  <stEvt:changed>/</stEvt:changed>
               </rdf:li>
               <rdf:li rdf:parseType="Resource">
                  <stEvt:action>saved</stEvt:action>
                  <stEvt:instanceID>xmp.iid:183a86f1-02e0-b54f-8917-b60021475370</stEvt:instanceID>
                  <stEvt:when>2017-04-11T05:22:29-04:00</stEvt:when>
                  <stEvt:softwareAgent>Adobe Audition CC 2017.0 (Windows)</stEvt:softwareAgent>
                  <stEvt:changed>/metadata</stEvt:changed>
               </rdf:li>
               <rdf:li rdf:parseType="Resource">
                  <stEvt:action>saved</stEvt:action>
                  <stEvt:instanceID>xmp.iid:588aee20-cc1e-204c-a1d8-e0cf1b7b6894</stEvt:instanceID>
                  <stEvt:when>2017-04-11T05:22:29-04:00</stEvt:when>
                  <stEvt:softwareAgent>Adobe Audition CC 2017.0 (Windows)</stEvt:softwareAgent>
                  <stEvt:changed>/</stEvt:changed>
               </rdf:li>
               <rdf:li rdf:parseType="Resource">
                  <stEvt:action>saved</stEvt:action>
                  <stEvt:instanceID>xmp.iid:dffcf020-2697-9044-8c61-7021b72f853e</stEvt:instanceID>
                  <stEvt:when>2017-04-11T05:26:46-04:00</stEvt:when>
                  <stEvt:softwareAgent>Adobe Audition CC 2017.0 (Windows)</stEvt:softwareAgent>
                  <stEvt:changed>/metadata</stEvt:changed>
               </rdf:li>
               <rdf:li rdf:parseType="Resource">
                  <stEvt:action>saved</stEvt:action>
                  <stEvt:instanceID>xmp.iid:9779c49a-1334-2e46-8819-ff13e4252a31</stEvt:instanceID>
                  <stEvt:when>2017-04-11T05:26:46-04:00</stEvt:when>
                  <stEvt:softwareAgent>Adobe Audition CC 2017.0 (Windows)</stEvt:softwareAgent>
                  <stEvt:changed>/</stEvt:changed>
               </rdf:li>
               <rdf:li rdf:parseType="Resource">
                  <stEvt:action>saved</stEvt:action>
                  <stEvt:instanceID>xmp.iid:ee2d028e-ad35-d34c-805b-5c0a10cf01ff</stEvt:instanceID>
                  <stEvt:when>2017-04-11T05:29:46-04:00</stEvt:when>
                  <stEvt:softwareAgent>Adobe Audition CC 2017.0 (Windows)</stEvt:softwareAgent>
                  <stEvt:changed>/metadata</stEvt:changed>
               </rdf:li>
               <rdf:li rdf:parseType="Resource">
                  <stEvt:action>saved</stEvt:action>
                  <stEvt:instanceID>xmp.iid:35625e29-0e8f-7c47-abbb-82fe0f3f84c3</stEvt:instanceID>
                  <stEvt:when>2017-04-11T05:29:46-04:00</stEvt:when>
                  <stEvt:softwareAgent>Adobe Audition CC 2017.0 (Windows)</stEvt:softwareAgent>
                  <stEvt:changed>/</stEvt:changed>
               </rdf:li>
               <rdf:li rdf:parseType="Resource">
                  <stEvt:action>saved</stEvt:action>
                  <stEvt:instanceID>xmp.iid:61aa9f24-3511-5843-9cee-afd3595d292a</stEvt:instanceID>
                  <stEvt:when>2017-04-11T05:32:46-04:00</stEvt:when>
                  <stEvt:softwareAgent>Adobe Audition CC 2017.0 (Windows)</stEvt:softwareAgent>
                  <stEvt:changed>/metadata</stEvt:changed>
               </rdf:li>
               <rdf:li rdf:parseType="Resource">
                  <stEvt:action>saved</stEvt:action>
                  <stEvt:instanceID>xmp.iid:bed7c610-1d28-2046-b084-a110a0a66a28</stEvt:instanceID>
                  <stEvt:when>2017-04-11T05:32:46-04:00</stEvt:when>
                  <stEvt:softwareAgent>Adobe Audition CC 2017.0 (Windows)</stEvt:softwareAgent>
                  <stEvt:changed>/</stEvt:changed>
               </rdf:li>
               <rdf:li rdf:parseType="Resource">
                  <stEvt:action>saved</stEvt:action>
                  <stEvt:instanceID>xmp.iid:db9b30cd-75f4-dc4a-9a83-63705167678a</stEvt:instanceID>
                  <stEvt:when>2017-04-11T05:41:46-04:00</stEvt:when>
                  <stEvt:softwareAgent>Adobe Audition CC 2017.0 (Windows)</stEvt:softwareAgent>
                  <stEvt:changed>/metadata</stEvt:changed>
               </rdf:li>
               <rdf:li rdf:parseType="Resource">
                  <stEvt:action>saved</stEvt:action>
                  <stEvt:instanceID>xmp.iid:aaa4b0c5-4b20-0045-be30-fbae2e6241d7</stEvt:instanceID>
                  <stEvt:when>2017-04-11T05:41:46-04:00</stEvt:when>
                  <stEvt:softwareAgent>Adobe Audition CC 2017.0 (Windows)</stEvt:softwareAgent>
                  <stEvt:changed>/</stEvt:changed>
               </rdf:li>
               <rdf:li rdf:parseType="Resource">
                  <stEvt:action>saved</stEvt:action>
                  <stEvt:instanceID>xmp.iid:1f0af7d8-501a-4044-9e5b-760cd8e5d8fe</stEvt:instanceID>
                  <stEvt:when>2017-04-11T05:47:46-04:00</stEvt:when>
                  <stEvt:softwareAgent>Adobe Audition CC 2017.0 (Windows)</stEvt:softwareAgent>
                  <stEvt:changed>/metadata</stEvt:changed>
               </rdf:li>
               <rdf:li rdf:parseType="Resource">
                  <stEvt:action>saved</stEvt:action>
                  <stEvt:instanceID>xmp.iid:dcbb3c10-a461-8645-bf48-f8b7da6aecf6</stEvt:instanceID>
                  <stEvt:when>2017-04-11T05:47:46-04:00</stEvt:when>
                  <stEvt:softwareAgent>Adobe Audition CC 2017.0 (Windows)</stEvt:softwareAgent>
                  <stEvt:changed>/</stEvt:changed>
               </rdf:li>
               <rdf:li rdf:parseType="Resource">
                  <stEvt:action>saved</stEvt:action>
                  <stEvt:instanceID>xmp.iid:2ea3f14e-c4f8-5c4d-b362-04fca3d17b0c</stEvt:instanceID>
                  <stEvt:when>2017-04-11T05:56:26-04:00</stEvt:when>
                  <stEvt:softwareAgent>Adobe Audition CC 2017.0 (Windows)</stEvt:softwareAgent>
                  <stEvt:changed>/metadata</stEvt:changed>
               </rdf:li>
               <rdf:li rdf:parseType="Resource">
                  <stEvt:action>saved</stEvt:action>
                  <stEvt:instanceID>xmp.iid:84283d69-be5a-4e42-9e47-48fe0e848777</stEvt:instanceID>
                  <stEvt:when>2017-04-11T05:56:26-04:00</stEvt:when>
                  <stEvt:softwareAgent>Adobe Audition CC 2017.0 (Windows)</stEvt:softwareAgent>
                  <stEvt:changed>/</stEvt:changed>
               </rdf:li>
               <rdf:li rdf:parseType="Resource">
                  <stEvt:action>saved</stEvt:action>
                  <stEvt:instanceID>xmp.iid:30e952a6-c167-cb40-910a-159063e2653b</stEvt:instanceID>
                  <stEvt:when>2017-04-11T05:56:46-04:00</stEvt:when>
                  <stEvt:softwareAgent>Adobe Audition CC 2017.0 (Windows)</stEvt:softwareAgent>
                  <stEvt:changed>/metadata</stEvt:changed>
               </rdf:li>
               <rdf:li rdf:parseType="Resource">
                  <stEvt:action>saved</stEvt:action>
                  <stEvt:instanceID>xmp.iid:892ce372-9cf2-3f47-be90-979a6ccfe6e2</stEvt:instanceID>
                  <stEvt:when>2017-04-11T05:56:46-04:00</stEvt:when>
                  <stEvt:softwareAgent>Adobe Audition CC 2017.0 (Windows)</stEvt:softwareAgent>
                  <stEvt:changed>/</stEvt:changed>
               </rdf:li>
               <rdf:li rdf:parseType="Resource">
                  <stEvt:action>saved</stEvt:action>
                  <stEvt:instanceID>xmp.iid:a9863d14-96de-5643-b787-bedc8bcdae47</stEvt:instanceID>
                  <stEvt:when>2017-04-11T06:02:47-04:00</stEvt:when>
                  <stEvt:softwareAgent>Adobe Audition CC 2017.0 (Windows)</stEvt:softwareAgent>
                  <stEvt:changed>/metadata</stEvt:changed>
               </rdf:li>
               <rdf:li rdf:parseType="Resource">
                  <stEvt:action>saved</stEvt:action>
                  <stEvt:instanceID>xmp.iid:8efe3f37-56ab-364f-917c-a0f67b591ef2</stEvt:instanceID>
                  <stEvt:when>2017-04-11T06:02:47-04:00</stEvt:when>
                  <stEvt:softwareAgent>Adobe Audition CC 2017.0 (Windows)</stEvt:softwareAgent>
                  <stEvt:changed>/</stEvt:changed>
               </rdf:li>
               <rdf:li rdf:parseType="Resource">
                  <stEvt:action>saved</stEvt:action>
                  <stEvt:instanceID>xmp.iid:26120bac-a7dc-354e-ab88-cd48dbb8d801</stEvt:instanceID>
                  <stEvt:when>2017-04-11T06:04:25-04:00</stEvt:when>
                  <stEvt:softwareAgent>Adobe Audition CC 2017.0 (Windows)</stEvt:softwareAgent>
                  <stEvt:changed>/metadata</stEvt:changed>
               </rdf:li>
               <rdf:li rdf:parseType="Resource">
                  <stEvt:action>saved</stEvt:action>
                  <stEvt:instanceID>xmp.iid:965275b9-6d1a-c74d-acc0-d68af6f9add3</stEvt:instanceID>
                  <stEvt:when>2017-04-11T06:04:25-04:00</stEvt:when>
                  <stEvt:softwareAgent>Adobe Audition CC 2017.0 (Windows)</stEvt:softwareAgent>
                  <stEvt:changed>/</stEvt:changed>
               </rdf:li>
               <rdf:li rdf:parseType="Resource">
                  <stEvt:action>saved</stEvt:action>
                  <stEvt:instanceID>xmp.iid:11e95616-629a-ea4a-b083-31f6cf809b26</stEvt:instanceID>
                  <stEvt:when>2017-04-11T06:17:47-04:00</stEvt:when>
                  <stEvt:softwareAgent>Adobe Audition CC 2017.0 (Windows)</stEvt:softwareAgent>
                  <stEvt:changed>/metadata</stEvt:changed>
               </rdf:li>
               <rdf:li rdf:parseType="Resource">
                  <stEvt:action>saved</stEvt:action>
                  <stEvt:instanceID>xmp.iid:39a91888-41db-8942-b365-5ce6bdb8f55f</stEvt:instanceID>
                  <stEvt:when>2017-04-11T06:17:47-04:00</stEvt:when>
                  <stEvt:softwareAgent>Adobe Audition CC 2017.0 (Windows)</stEvt:softwareAgent>
                  <stEvt:changed>/</stEvt:changed>
               </rdf:li>
               <rdf:li rdf:parseType="Resource">
                  <stEvt:action>saved</stEvt:action>
                  <stEvt:instanceID>xmp.iid:32e85cf4-a7b0-f042-83e4-74faaad40ef5</stEvt:instanceID>
                  <stEvt:when>2017-04-11T06:20:47-04:00</stEvt:when>
                  <stEvt:softwareAgent>Adobe Audition CC 2017.0 (Windows)</stEvt:softwareAgent>
                  <stEvt:changed>/metadata</stEvt:changed>
               </rdf:li>
               <rdf:li rdf:parseType="Resource">
                  <stEvt:action>saved</stEvt:action>
                  <stEvt:instanceID>xmp.iid:c5c19eef-dc23-674f-bdce-1c7757537c7c</stEvt:instanceID>
                  <stEvt:when>2017-04-11T06:20:47-04:00</stEvt:when>
                  <stEvt:softwareAgent>Adobe Audition CC 2017.0 (Windows)</stEvt:softwareAgent>
                  <stEvt:changed>/</stEvt:changed>
               </rdf:li>
               <rdf:li rdf:parseType="Resource">
                  <stEvt:action>saved</stEvt:action>
                  <stEvt:instanceID>xmp.iid:90eae9a4-df24-4d47-9a6d-d9ed2e0a83a5</stEvt:instanceID>
                  <stEvt:when>2017-04-11T06:26:47-04:00</stEvt:when>
                  <stEvt:softwareAgent>Adobe Audition CC 2017.0 (Windows)</stEvt:softwareAgent>
                  <stEvt:changed>/metadata</stEvt:changed>
               </rdf:li>
               <rdf:li rdf:parseType="Resource">
                  <stEvt:action>saved</stEvt:action>
                  <stEvt:instanceID>xmp.iid:24edecce-26c7-f644-a42b-39c28bf9f949</stEvt:instanceID>
                  <stEvt:when>2017-04-11T06:26:47-04:00</stEvt:when>
                  <stEvt:softwareAgent>Adobe Audition CC 2017.0 (Windows)</stEvt:softwareAgent>
                  <stEvt:changed>/</stEvt:changed>
               </rdf:li>
               <rdf:li rdf:parseType="Resource">
                  <stEvt:action>saved</stEvt:action>
                  <stEvt:instanceID>xmp.iid:c84cea1f-4979-b64d-9226-45a8fcaa4f3a</stEvt:instanceID>
                  <stEvt:when>2017-04-11T06:28:29-04:00</stEvt:when>
                  <stEvt:softwareAgent>Adobe Audition CC 2017.0 (Windows)</stEvt:softwareAgent>
                  <stEvt:changed>/metadata</stEvt:changed>
               </rdf:li>
               <rdf:li rdf:parseType="Resource">
                  <stEvt:action>saved</stEvt:action>
                  <stEvt:instanceID>xmp.iid:7e6e8c1c-b3e9-0148-889e-792b2b54490a</stEvt:instanceID>
                  <stEvt:when>2017-04-11T06:28:29-04:00</stEvt:when>
                  <stEvt:softwareAgent>Adobe Audition CC 2017.0 (Windows)</stEvt:softwareAgent>
                  <stEvt:changed>/</stEvt:changed>
               </rdf:li>
               <rdf:li rdf:parseType="Resource">
                  <stEvt:action>saved</stEvt:action>
                  <stEvt:instanceID>xmp.iid:f29484f9-5fc2-2b4b-a930-59d602cb4ffa</stEvt:instanceID>
                  <stEvt:when>2017-04-11T06:29:47-04:00</stEvt:when>
                  <stEvt:softwareAgent>Adobe Audition CC 2017.0 (Windows)</stEvt:softwareAgent>
                  <stEvt:changed>/metadata</stEvt:changed>
               </rdf:li>
               <rdf:li rdf:parseType="Resource">
                  <stEvt:action>saved</stEvt:action>
                  <stEvt:instanceID>xmp.iid:b262523f-3ae4-734d-a03f-c5c5a6d65c02</stEvt:instanceID>
                  <stEvt:when>2017-04-11T06:29:47-04:00</stEvt:when>
                  <stEvt:softwareAgent>Adobe Audition CC 2017.0 (Windows)</stEvt:softwareAgent>
                  <stEvt:changed>/</stEvt:changed>
               </rdf:li>
               <rdf:li rdf:parseType="Resource">
                  <stEvt:action>saved</stEvt:action>
                  <stEvt:instanceID>xmp.iid:70b995a1-1ed0-1d43-b439-09e877d21dc6</stEvt:instanceID>
                  <stEvt:when>2017-04-11T06:32:47-04:00</stEvt:when>
                  <stEvt:softwareAgent>Adobe Audition CC 2017.0 (Windows)</stEvt:softwareAgent>
                  <stEvt:changed>/metadata</stEvt:changed>
               </rdf:li>
               <rdf:li rdf:parseType="Resource">
                  <stEvt:action>saved</stEvt:action>
                  <stEvt:instanceID>xmp.iid:85c86659-5b7e-8a47-a6e6-dbb627852139</stEvt:instanceID>
                  <stEvt:when>2017-04-11T06:32:47-04:00</stEvt:when>
                  <stEvt:softwareAgent>Adobe Audition CC 2017.0 (Windows)</stEvt:softwareAgent>
                  <stEvt:changed>/</stEvt:changed>
               </rdf:li>
               <rdf:li rdf:parseType="Resource">
                  <stEvt:action>saved</stEvt:action>
                  <stEvt:instanceID>xmp.iid:e46532a2-70e8-ef42-a2cc-362e350cd8ca</stEvt:instanceID>
                  <stEvt:when>2017-04-11T06:34:25-04:00</stEvt:when>
                  <stEvt:softwareAgent>Adobe Audition CC 2017.0 (Windows)</stEvt:softwareAgent>
                  <stEvt:changed>/metadata</stEvt:changed>
               </rdf:li>
               <rdf:li rdf:parseType="Resource">
                  <stEvt:action>saved</stEvt:action>
                  <stEvt:instanceID>xmp.iid:24fa2b29-c200-184b-abb8-7035aec5feb1</stEvt:instanceID>
                  <stEvt:when>2017-04-11T06:34:25-04:00</stEvt:when>
                  <stEvt:softwareAgent>Adobe Audition CC 2017.0 (Windows)</stEvt:softwareAgent>
                  <stEvt:changed>/</stEvt:changed>
               </rdf:li>
               <rdf:li rdf:parseType="Resource">
                  <stEvt:action>saved</stEvt:action>
                  <stEvt:instanceID>xmp.iid:82dd29b8-4930-e14c-b0c5-204478d099f0</stEvt:instanceID>
                  <stEvt:when>2017-04-11T06:38:47-04:00</stEvt:when>
                  <stEvt:softwareAgent>Adobe Audition CC 2017.0 (Windows)</stEvt:softwareAgent>
                  <stEvt:changed>/metadata</stEvt:changed>
               </rdf:li>
               <rdf:li rdf:parseType="Resource">
                  <stEvt:action>saved</stEvt:action>
                  <stEvt:instanceID>xmp.iid:cc6b2a78-4351-4742-adaf-a775446b5d9b</stEvt:instanceID>
                  <stEvt:when>2017-04-11T06:38:47-04:00</stEvt:when>
                  <stEvt:softwareAgent>Adobe Audition CC 2017.0 (Windows)</stEvt:softwareAgent>
                  <stEvt:changed>/</stEvt:changed>
               </rdf:li>
               <rdf:li rdf:parseType="Resource">
                  <stEvt:action>saved</stEvt:action>
                  <stEvt:instanceID>xmp.iid:732d0a81-e82c-4342-a7da-4b5c3388b89c</stEvt:instanceID>
                  <stEvt:when>2017-04-11T06:50:47-04:00</stEvt:when>
                  <stEvt:softwareAgent>Adobe Audition CC 2017.0 (Windows)</stEvt:softwareAgent>
                  <stEvt:changed>/metadata</stEvt:changed>
               </rdf:li>
               <rdf:li rdf:parseType="Resource">
                  <stEvt:action>saved</stEvt:action>
                  <stEvt:instanceID>xmp.iid:a5c378ed-e17c-8b47-82ed-7207365eec49</stEvt:instanceID>
                  <stEvt:when>2017-04-11T06:50:47-04:00</stEvt:when>
                  <stEvt:softwareAgent>Adobe Audition CC 2017.0 (Windows)</stEvt:softwareAgent>
                  <stEvt:changed>/</stEvt:changed>
               </rdf:li>
               <rdf:li rdf:parseType="Resource">
                  <stEvt:action>saved</stEvt:action>
                  <stEvt:instanceID>xmp.iid:8bee12ad-257e-584f-8937-2cd46c3743c7</stEvt:instanceID>
                  <stEvt:when>2017-04-11T06:50:49-04:00</stEvt:when>
                  <stEvt:softwareAgent>Adobe Audition CC 2017.0 (Windows)</stEvt:softwareAgent>
                  <stEvt:changed>/metadata</stEvt:changed>
               </rdf:li>
               <rdf:li rdf:parseType="Resource">
                  <stEvt:action>saved</stEvt:action>
                  <stEvt:instanceID>xmp.iid:924418af-6860-5445-af83-e97591bfce47</stEvt:instanceID>
                  <stEvt:when>2017-04-11T06:50:49-04:00</stEvt:when>
                  <stEvt:softwareAgent>Adobe Audition CC 2017.0 (Windows)</stEvt:softwareAgent>
                  <stEvt:changed>/</stEvt:changed>
               </rdf:li>
               <rdf:li rdf:parseType="Resource">
                  <stEvt:action>saved</stEvt:action>
                  <stEvt:instanceID>xmp.iid:778536a6-b2e9-2f49-85b8-c12ae9375066</stEvt:instanceID>
                  <stEvt:when>2017-04-11T06:56:47-04:00</stEvt:when>
                  <stEvt:softwareAgent>Adobe Audition CC 2017.0 (Windows)</stEvt:softwareAgent>
                  <stEvt:changed>/metadata</stEvt:changed>
               </rdf:li>
               <rdf:li rdf:parseType="Resource">
                  <stEvt:action>saved</stEvt:action>
                  <stEvt:instanceID>xmp.iid:fda514f7-6df0-9d4a-b244-aacc91e3a3a3</stEvt:instanceID>
                  <stEvt:when>2017-04-11T06:56:47-04:00</stEvt:when>
                  <stEvt:softwareAgent>Adobe Audition CC 2017.0 (Windows)</stEvt:softwareAgent>
                  <stEvt:changed>/</stEvt:changed>
               </rdf:li>
               <rdf:li rdf:parseType="Resource">
                  <stEvt:action>saved</stEvt:action>
                  <stEvt:instanceID>xmp.iid:8637643d-f142-e847-93b4-2cb3d291adaa</stEvt:instanceID>
                  <stEvt:when>2017-04-11T06:59:47-04:00</stEvt:when>
                  <stEvt:softwareAgent>Adobe Audition CC 2017.0 (Windows)</stEvt:softwareAgent>
                  <stEvt:changed>/metadata</stEvt:changed>
               </rdf:li>
               <rdf:li rdf:parseType="Resource">
                  <stEvt:action>saved</stEvt:action>
                  <stEvt:instanceID>xmp.iid:695d4711-c370-6f44-a023-3b5273d5d5a9</stEvt:instanceID>
                  <stEvt:when>2017-04-11T06:59:47-04:00</stEvt:when>
                  <stEvt:softwareAgent>Adobe Audition CC 2017.0 (Windows)</stEvt:softwareAgent>
                  <stEvt:changed>/</stEvt:changed>
               </rdf:li>
               <rdf:li rdf:parseType="Resource">
                  <stEvt:action>saved</stEvt:action>
                  <stEvt:instanceID>xmp.iid:e0920faf-fdae-2543-aab2-a72e170f207c</stEvt:instanceID>
                  <stEvt:when>2017-04-11T07:05:47-04:00</stEvt:when>
                  <stEvt:softwareAgent>Adobe Audition CC 2017.0 (Windows)</stEvt:softwareAgent>
                  <stEvt:changed>/metadata</stEvt:changed>
               </rdf:li>
               <rdf:li rdf:parseType="Resource">
                  <stEvt:action>saved</stEvt:action>
                  <stEvt:instanceID>xmp.iid:68b65381-bbfc-774c-b404-76895bc4a38c</stEvt:instanceID>
                  <stEvt:when>2017-04-11T07:05:47-04:00</stEvt:when>
                  <stEvt:softwareAgent>Adobe Audition CC 2017.0 (Windows)</stEvt:softwareAgent>
                  <stEvt:changed>/</stEvt:changed>
               </rdf:li>
               <rdf:li rdf:parseType="Resource">
                  <stEvt:action>saved</stEvt:action>
                  <stEvt:instanceID>xmp.iid:a5c9ce7a-0410-434b-a97a-5b282c52ff3f</stEvt:instanceID>
                  <stEvt:when>2017-04-11T07:11:48-04:00</stEvt:when>
                  <stEvt:softwareAgent>Adobe Audition CC 2017.0 (Windows)</stEvt:softwareAgent>
                  <stEvt:changed>/metadata</stEvt:changed>
               </rdf:li>
               <rdf:li rdf:parseType="Resource">
                  <stEvt:action>saved</stEvt:action>
                  <stEvt:instanceID>xmp.iid:ef4ee468-2cdb-7f44-bb99-4dc48a798b99</stEvt:instanceID>
                  <stEvt:when>2017-04-11T07:11:48-04:00</stEvt:when>
                  <stEvt:softwareAgent>Adobe Audition CC 2017.0 (Windows)</stEvt:softwareAgent>
                  <stEvt:changed>/</stEvt:changed>
               </rdf:li>
               <rdf:li rdf:parseType="Resource">
                  <stEvt:action>saved</stEvt:action>
                  <stEvt:instanceID>xmp.iid:2f9011f8-704a-6d4c-988a-eb20b6eac40a</stEvt:instanceID>
                  <stEvt:when>2017-04-11T07:17:48-04:00</stEvt:when>
                  <stEvt:softwareAgent>Adobe Audition CC 2017.0 (Windows)</stEvt:softwareAgent>
                  <stEvt:changed>/metadata</stEvt:changed>
               </rdf:li>
               <rdf:li rdf:parseType="Resource">
                  <stEvt:action>saved</stEvt:action>
                  <stEvt:instanceID>xmp.iid:f58cd9cb-ab5d-e243-b04e-0959fe6546a8</stEvt:instanceID>
                  <stEvt:when>2017-04-11T07:17:48-04:00</stEvt:when>
                  <stEvt:softwareAgent>Adobe Audition CC 2017.0 (Windows)</stEvt:softwareAgent>
                  <stEvt:changed>/</stEvt:changed>
               </rdf:li>
               <rdf:li rdf:parseType="Resource">
                  <stEvt:action>saved</stEvt:action>
                  <stEvt:instanceID>xmp.iid:7c651604-99f7-8a49-bdff-116e27216281</stEvt:instanceID>
                  <stEvt:when>2017-04-11T07:19:48-04:00</stEvt:when>
                  <stEvt:softwareAgent>Adobe Audition CC 2017.0 (Windows)</stEvt:softwareAgent>
                  <stEvt:changed>/metadata</stEvt:changed>
               </rdf:li>
               <rdf:li rdf:parseType="Resource">
                  <stEvt:action>saved</stEvt:action>
                  <stEvt:instanceID>xmp.iid:6c1cad90-3e2c-3244-81be-50586a22f9c8</stEvt:instanceID>
                  <stEvt:when>2017-04-11T07:19:48-04:00</stEvt:when>
                  <stEvt:softwareAgent>Adobe Audition CC 2017.0 (Windows)</stEvt:softwareAgent>
                  <stEvt:changed>/</stEvt:changed>
               </rdf:li>
               <rdf:li rdf:parseType="Resource">
                  <stEvt:action>saved</stEvt:action>
                  <stEvt:instanceID>xmp.iid:bfd1e236-6522-d649-960e-ea6c8eb5baaf</stEvt:instanceID>
                  <stEvt:when>2017-04-11T07:20:29-04:00</stEvt:when>
                  <stEvt:softwareAgent>Adobe Audition CC 2017.0 (Windows)</stEvt:softwareAgent>
                  <stEvt:changed>/metadata</stEvt:changed>
               </rdf:li>
               <rdf:li rdf:parseType="Resource">
                  <stEvt:action>saved</stEvt:action>
                  <stEvt:instanceID>xmp.iid:72d90aff-5eaf-284d-bdc7-970b43bdeb9a</stEvt:instanceID>
                  <stEvt:when>2017-04-11T07:20:29-04:00</stEvt:when>
                  <stEvt:softwareAgent>Adobe Audition CC 2017.0 (Windows)</stEvt:softwareAgent>
                  <stEvt:changed>/</stEvt:changed>
               </rdf:li>
               <rdf:li rdf:parseType="Resource">
                  <stEvt:action>saved</stEvt:action>
                  <stEvt:instanceID>xmp.iid:48018a58-8c5a-004b-a787-d48f784f25c8</stEvt:instanceID>
                  <stEvt:when>2017-04-13T08:06:04-04:00</stEvt:when>
                  <stEvt:softwareAgent>Adobe Audition CC 2017.0 (Windows)</stEvt:softwareAgent>
                  <stEvt:changed>/metadata</stEvt:changed>
               </rdf:li>
               <rdf:li rdf:parseType="Resource">
                  <stEvt:action>saved</stEvt:action>
                  <stEvt:instanceID>xmp.iid:0d860efc-f04c-9b4a-bb9c-d203f670e2c1</stEvt:instanceID>
                  <stEvt:when>2017-04-13T08:06:04-04:00</stEvt:when>
                  <stEvt:softwareAgent>Adobe Audition CC 2017.0 (Windows)</stEvt:softwareAgent>
                  <stEvt:changed>/</stEvt:changed>
               </rdf:li>
               <rdf:li rdf:parseType="Resource">
                  <stEvt:action>saved</stEvt:action>
                  <stEvt:instanceID>xmp.iid:020372c1-7cdc-f24d-b989-83d0c572b137</stEvt:instanceID>
                  <stEvt:when>2017-04-13T08:06:05-04:00</stEvt:when>
                  <stEvt:softwareAgent>Adobe Audition CC 2017.0 (Windows)</stEvt:softwareAgent>
                  <stEvt:changed>/metadata</stEvt:changed>
               </rdf:li>
               <rdf:li rdf:parseType="Resource">
                  <stEvt:action>saved</stEvt:action>
                  <stEvt:instanceID>xmp.iid:f901e992-0fdb-484a-87f9-d144be623ea9</stEvt:instanceID>
                  <stEvt:when>2017-04-13T08:06:05-04:00</stEvt:when>
                  <stEvt:softwareAgent>Adobe Audition CC 2017.0 (Windows)</stEvt:softwareAgent>
                  <stEvt:changed>/</stEvt:changed>
               </rdf:li>
               <rdf:li rdf:parseType="Resource">
                  <stEvt:action>saved</stEvt:action>
                  <stEvt:instanceID>xmp.iid:6fbd0482-655e-c94c-a946-05b683a96d41</stEvt:instanceID>
                  <stEvt:when>2017-04-13T08:11:30-04:00</stEvt:when>
                  <stEvt:softwareAgent>Adobe Audition CC 2017.0 (Windows)</stEvt:softwareAgent>
                  <stEvt:changed>/metadata</stEvt:changed>
               </rdf:li>
               <rdf:li rdf:parseType="Resource">
                  <stEvt:action>saved</stEvt:action>
                  <stEvt:instanceID>xmp.iid:e387acd9-43f8-7c43-8347-659689b36238</stEvt:instanceID>
                  <stEvt:when>2017-04-13T08:11:30-04:00</stEvt:when>
                  <stEvt:softwareAgent>Adobe Audition CC 2017.0 (Windows)</stEvt:softwareAgent>
                  <stEvt:changed>/</stEvt:changed>
               </rdf:li>
               <rdf:li rdf:parseType="Resource">
                  <stEvt:action>saved</stEvt:action>
                  <stEvt:instanceID>xmp.iid:fd8af3de-3bca-3746-bd55-c444c4a5a5ca</stEvt:instanceID>
                  <stEvt:when>2017-04-13T08:20:30-04:00</stEvt:when>
                  <stEvt:softwareAgent>Adobe Audition CC 2017.0 (Windows)</stEvt:softwareAgent>
                  <stEvt:changed>/metadata</stEvt:changed>
               </rdf:li>
               <rdf:li rdf:parseType="Resource">
                  <stEvt:action>saved</stEvt:action>
                  <stEvt:instanceID>xmp.iid:cdaaa2e1-a74e-6b4a-8ed2-b1490c0264bf</stEvt:instanceID>
                  <stEvt:when>2017-04-13T08:20:30-04:00</stEvt:when>
                  <stEvt:softwareAgent>Adobe Audition CC 2017.0 (Windows)</stEvt:softwareAgent>
                  <stEvt:changed>/</stEvt:changed>
               </rdf:li>
               <rdf:li rdf:parseType="Resource">
                  <stEvt:action>saved</stEvt:action>
                  <stEvt:instanceID>xmp.iid:9dbe3aab-9c42-f94d-8c0d-c924cbce4e90</stEvt:instanceID>
                  <stEvt:when>2017-04-13T08:23:30-04:00</stEvt:when>
                  <stEvt:softwareAgent>Adobe Audition CC 2017.0 (Windows)</stEvt:softwareAgent>
                  <stEvt:changed>/metadata</stEvt:changed>
               </rdf:li>
               <rdf:li rdf:parseType="Resource">
                  <stEvt:action>saved</stEvt:action>
                  <stEvt:instanceID>xmp.iid:bd3b381d-6fb4-ae42-8446-59556dc91bf2</stEvt:instanceID>
                  <stEvt:when>2017-04-13T08:23:30-04:00</stEvt:when>
                  <stEvt:softwareAgent>Adobe Audition CC 2017.0 (Windows)</stEvt:softwareAgent>
                  <stEvt:changed>/</stEvt:changed>
               </rdf:li>
               <rdf:li rdf:parseType="Resource">
                  <stEvt:action>saved</stEvt:action>
                  <stEvt:instanceID>xmp.iid:65adc577-81d3-f248-8e9d-f45eb8a11efd</stEvt:instanceID>
                  <stEvt:when>2017-04-13T08:26:05-04:00</stEvt:when>
                  <stEvt:softwareAgent>Adobe Audition CC 2017.0 (Windows)</stEvt:softwareAgent>
                  <stEvt:changed>/metadata</stEvt:changed>
               </rdf:li>
               <rdf:li rdf:parseType="Resource">
                  <stEvt:action>saved</stEvt:action>
                  <stEvt:instanceID>xmp.iid:e3e87b1a-1add-b648-a5f8-f2abb965ff9d</stEvt:instanceID>
                  <stEvt:when>2017-04-13T08:26:05-04:00</stEvt:when>
                  <stEvt:softwareAgent>Adobe Audition CC 2017.0 (Windows)</stEvt:softwareAgent>
                  <stEvt:changed>/</stEvt:changed>
               </rdf:li>
               <rdf:li rdf:parseType="Resource">
                  <stEvt:action>saved</stEvt:action>
                  <stEvt:instanceID>xmp.iid:061d792d-a8d1-3948-bdf0-2031b1404267</stEvt:instanceID>
                  <stEvt:when>2017-04-13T08:34:12-04:00</stEvt:when>
                  <stEvt:softwareAgent>Adobe Audition CC 2017.0 (Windows)</stEvt:softwareAgent>
                  <stEvt:changed>/metadata</stEvt:changed>
               </rdf:li>
               <rdf:li rdf:parseType="Resource">
                  <stEvt:action>saved</stEvt:action>
                  <stEvt:instanceID>xmp.iid:f71f75ba-1463-3e4f-8ec4-beae95a40627</stEvt:instanceID>
                  <stEvt:when>2017-04-13T08:34:12-04:00</stEvt:when>
                  <stEvt:softwareAgent>Adobe Audition CC 2017.0 (Windows)</stEvt:softwareAgent>
                  <stEvt:changed>/</stEvt:changed>
               </rdf:li>
               <rdf:li rdf:parseType="Resource">
                  <stEvt:action>saved</stEvt:action>
                  <stEvt:instanceID>xmp.iid:da76e92f-b359-0543-8e02-fb740aad6984</stEvt:instanceID>
                  <stEvt:when>2017-04-13T08:34:58-04:00</stEvt:when>
                  <stEvt:softwareAgent>Adobe Audition CC 2017.0 (Windows)</stEvt:softwareAgent>
                  <stEvt:changed>/metadata</stEvt:changed>
               </rdf:li>
               <rdf:li rdf:parseType="Resource">
                  <stEvt:action>saved</stEvt:action>
                  <stEvt:instanceID>xmp.iid:eaf42a8f-5ead-2843-80ce-93345c6364e1</stEvt:instanceID>
                  <stEvt:when>2017-04-13T08:34:58-04:00</stEvt:when>
                  <stEvt:softwareAgent>Adobe Audition CC 2017.0 (Windows)</stEvt:softwareAgent>
                  <stEvt:changed>/</stEvt:changed>
               </rdf:li>
               <rdf:li rdf:parseType="Resource">
                  <stEvt:action>saved</stEvt:action>
                  <stEvt:instanceID>xmp.iid:d48654ed-c486-2845-980d-0ae576586cb4</stEvt:instanceID>
                  <stEvt:when>2017-04-13T08:43:12-04:00</stEvt:when>
                  <stEvt:softwareAgent>Adobe Audition CC 2017.0 (Windows)</stEvt:softwareAgent>
                  <stEvt:changed>/metadata</stEvt:changed>
               </rdf:li>
               <rdf:li rdf:parseType="Resource">
                  <stEvt:action>saved</stEvt:action>
                  <stEvt:instanceID>xmp.iid:c2da9e1c-1ef4-464f-9f3a-63a269baefaa</stEvt:instanceID>
                  <stEvt:when>2017-04-13T08:43:12-04:00</stEvt:when>
                  <stEvt:softwareAgent>Adobe Audition CC 2017.0 (Windows)</stEvt:softwareAgent>
                  <stEvt:changed>/</stEvt:changed>
               </rdf:li>
               <rdf:li rdf:parseType="Resource">
                  <stEvt:action>saved</stEvt:action>
                  <stEvt:instanceID>xmp.iid:daf75e27-2d07-234d-9852-dd74d87a8b55</stEvt:instanceID>
                  <stEvt:when>2017-04-13T08:49:13-04:00</stEvt:when>
                  <stEvt:softwareAgent>Adobe Audition CC 2017.0 (Windows)</stEvt:softwareAgent>
                  <stEvt:changed>/metadata</stEvt:changed>
               </rdf:li>
               <rdf:li rdf:parseType="Resource">
                  <stEvt:action>saved</stEvt:action>
                  <stEvt:instanceID>xmp.iid:33a562ea-780c-8349-b564-ec0d2a6020e1</stEvt:instanceID>
                  <stEvt:when>2017-04-13T08:49:13-04:00</stEvt:when>
                  <stEvt:softwareAgent>Adobe Audition CC 2017.0 (Windows)</stEvt:softwareAgent>
                  <stEvt:changed>/</stEvt:changed>
               </rdf:li>
               <rdf:li rdf:parseType="Resource">
                  <stEvt:action>saved</stEvt:action>
                  <stEvt:instanceID>xmp.iid:a08e9339-5c73-d946-bf0d-f5bf5215e97b</stEvt:instanceID>
                  <stEvt:when>2017-04-13T08:55:13-04:00</stEvt:when>
                  <stEvt:softwareAgent>Adobe Audition CC 2017.0 (Windows)</stEvt:softwareAgent>
                  <stEvt:changed>/metadata</stEvt:changed>
               </rdf:li>
               <rdf:li rdf:parseType="Resource">
                  <stEvt:action>saved</stEvt:action>
                  <stEvt:instanceID>xmp.iid:83a83533-4fd5-ca4e-b8b8-18543e71b4a2</stEvt:instanceID>
                  <stEvt:when>2017-04-13T08:55:13-04:00</stEvt:when>
                  <stEvt:softwareAgent>Adobe Audition CC 2017.0 (Windows)</stEvt:softwareAgent>
                  <stEvt:changed>/</stEvt:changed>
               </rdf:li>
               <rdf:li rdf:parseType="Resource">
                  <stEvt:action>saved</stEvt:action>
                  <stEvt:instanceID>xmp.iid:d5a4fee7-e956-2943-85f2-957a57036aa0</stEvt:instanceID>
                  <stEvt:when>2017-04-13T08:56:05-04:00</stEvt:when>
                  <stEvt:softwareAgent>Adobe Audition CC 2017.0 (Windows)</stEvt:softwareAgent>
                  <stEvt:changed>/metadata</stEvt:changed>
               </rdf:li>
               <rdf:li rdf:parseType="Resource">
                  <stEvt:action>saved</stEvt:action>
                  <stEvt:instanceID>xmp.iid:f3bf7b9a-16cd-954e-ac06-391ad0778cd8</stEvt:instanceID>
                  <stEvt:when>2017-04-13T08:56:05-04:00</stEvt:when>
                  <stEvt:softwareAgent>Adobe Audition CC 2017.0 (Windows)</stEvt:softwareAgent>
                  <stEvt:changed>/</stEvt:changed>
               </rdf:li>
               <rdf:li rdf:parseType="Resource">
                  <stEvt:action>saved</stEvt:action>
                  <stEvt:instanceID>xmp.iid:d87dbdc1-56cc-a645-9dfd-07c7752d8e68</stEvt:instanceID>
                  <stEvt:when>2017-04-13T08:58:13-04:00</stEvt:when>
                  <stEvt:softwareAgent>Adobe Audition CC 2017.0 (Windows)</stEvt:softwareAgent>
                  <stEvt:changed>/metadata</stEvt:changed>
               </rdf:li>
               <rdf:li rdf:parseType="Resource">
                  <stEvt:action>saved</stEvt:action>
                  <stEvt:instanceID>xmp.iid:7c553929-9d63-a841-b85c-52489b2bf282</stEvt:instanceID>
                  <stEvt:when>2017-04-13T08:58:13-04:00</stEvt:when>
                  <stEvt:softwareAgent>Adobe Audition CC 2017.0 (Windows)</stEvt:softwareAgent>
                  <stEvt:changed>/</stEvt:changed>
               </rdf:li>
               <rdf:li rdf:parseType="Resource">
                  <stEvt:action>saved</stEvt:action>
                  <stEvt:instanceID>xmp.iid:e4dd8af8-4b36-c14a-8779-1530d0e3468a</stEvt:instanceID>
                  <stEvt:when>2017-04-13T09:01:14-04:00</stEvt:when>
                  <stEvt:softwareAgent>Adobe Audition CC 2017.0 (Windows)</stEvt:softwareAgent>
                  <stEvt:changed>/metadata</stEvt:changed>
               </rdf:li>
               <rdf:li rdf:parseType="Resource">
                  <stEvt:action>saved</stEvt:action>
                  <stEvt:instanceID>xmp.iid:f12d28a9-f21a-6148-868f-78e7ebd11bdf</stEvt:instanceID>
                  <stEvt:when>2017-04-13T09:01:14-04:00</stEvt:when>
                  <stEvt:softwareAgent>Adobe Audition CC 2017.0 (Windows)</stEvt:softwareAgent>
                  <stEvt:changed>/</stEvt:changed>
               </rdf:li>
               <rdf:li rdf:parseType="Resource">
                  <stEvt:action>saved</stEvt:action>
                  <stEvt:instanceID>xmp.iid:be0c31df-7025-ec4d-8970-4118da10ec35</stEvt:instanceID>
                  <stEvt:when>2017-04-13T09:04:14-04:00</stEvt:when>
                  <stEvt:softwareAgent>Adobe Audition CC 2017.0 (Windows)</stEvt:softwareAgent>
                  <stEvt:changed>/metadata</stEvt:changed>
               </rdf:li>
               <rdf:li rdf:parseType="Resource">
                  <stEvt:action>saved</stEvt:action>
                  <stEvt:instanceID>xmp.iid:e3067d3a-5609-3941-acbd-110c9696688a</stEvt:instanceID>
                  <stEvt:when>2017-04-13T09:04:14-04:00</stEvt:when>
                  <stEvt:softwareAgent>Adobe Audition CC 2017.0 (Windows)</stEvt:softwareAgent>
                  <stEvt:changed>/</stEvt:changed>
               </rdf:li>
               <rdf:li rdf:parseType="Resource">
                  <stEvt:action>saved</stEvt:action>
                  <stEvt:instanceID>xmp.iid:1873981d-ddd2-dd49-8302-06c4b342d77c</stEvt:instanceID>
                  <stEvt:when>2017-04-13T09:05:50-04:00</stEvt:when>
                  <stEvt:softwareAgent>Adobe Audition CC 2017.0 (Windows)</stEvt:softwareAgent>
                  <stEvt:changed>/metadata</stEvt:changed>
               </rdf:li>
               <rdf:li rdf:parseType="Resource">
                  <stEvt:action>saved</stEvt:action>
                  <stEvt:instanceID>xmp.iid:bead982b-30f4-0145-996f-02ff9787b7f3</stEvt:instanceID>
                  <stEvt:when>2017-04-13T09:05:50-04:00</stEvt:when>
                  <stEvt:softwareAgent>Adobe Audition CC 2017.0 (Windows)</stEvt:softwareAgent>
                  <stEvt:changed>/</stEvt:changed>
               </rdf:li>
               <rdf:li rdf:parseType="Resource">
                  <stEvt:action>saved</stEvt:action>
                  <stEvt:instanceID>xmp.iid:334cda9e-5b6c-3645-8080-dae148233be6</stEvt:instanceID>
                  <stEvt:when>2017-04-13T09:10:14-04:00</stEvt:when>
                  <stEvt:softwareAgent>Adobe Audition CC 2017.0 (Windows)</stEvt:softwareAgent>
                  <stEvt:changed>/metadata</stEvt:changed>
               </rdf:li>
               <rdf:li rdf:parseType="Resource">
                  <stEvt:action>saved</stEvt:action>
                  <stEvt:instanceID>xmp.iid:3763d6bf-1d81-ba42-bbaa-9c7340da0cfd</stEvt:instanceID>
                  <stEvt:when>2017-04-13T09:10:14-04:00</stEvt:when>
                  <stEvt:softwareAgent>Adobe Audition CC 2017.0 (Windows)</stEvt:softwareAgent>
                  <stEvt:changed>/</stEvt:changed>
               </rdf:li>
               <rdf:li rdf:parseType="Resource">
                  <stEvt:action>saved</stEvt:action>
                  <stEvt:instanceID>xmp.iid:fa609aeb-b47d-3140-bf80-3f5d0f55d0d5</stEvt:instanceID>
                  <stEvt:when>2017-04-13T09:13:07-04:00</stEvt:when>
                  <stEvt:softwareAgent>Adobe Audition CC 2017.0 (Windows)</stEvt:softwareAgent>
                  <stEvt:changed>/metadata</stEvt:changed>
               </rdf:li>
               <rdf:li rdf:parseType="Resource">
                  <stEvt:action>saved</stEvt:action>
                  <stEvt:instanceID>xmp.iid:b4f29dd8-577b-4449-9ba6-2475ca947544</stEvt:instanceID>
                  <stEvt:when>2017-04-13T09:13:07-04:00</stEvt:when>
                  <stEvt:softwareAgent>Adobe Audition CC 2017.0 (Windows)</stEvt:softwareAgent>
                  <stEvt:changed>/</stEvt:changed>
               </rdf:li>
               <rdf:li rdf:parseType="Resource">
                  <stEvt:action>saved</stEvt:action>
                  <stEvt:instanceID>xmp.iid:15568801-b694-8141-acbe-e0913ea61d37</stEvt:instanceID>
                  <stEvt:when>2017-04-13T09:13:15-04:00</stEvt:when>
                  <stEvt:softwareAgent>Adobe Audition CC 2017.0 (Windows)</stEvt:softwareAgent>
                  <stEvt:changed>/metadata</stEvt:changed>
               </rdf:li>
               <rdf:li rdf:parseType="Resource">
                  <stEvt:action>saved</stEvt:action>
                  <stEvt:instanceID>xmp.iid:f3b80611-ccb5-6d46-a712-0379ea6bc9d7</stEvt:instanceID>
                  <stEvt:when>2017-04-13T09:13:15-04:00</stEvt:when>
                  <stEvt:softwareAgent>Adobe Audition CC 2017.0 (Windows)</stEvt:softwareAgent>
                  <stEvt:changed>/</stEvt:changed>
               </rdf:li>
               <rdf:li rdf:parseType="Resource">
                  <stEvt:action>saved</stEvt:action>
                  <stEvt:instanceID>xmp.iid:05fbbdd4-7cc8-a441-96a6-40415ccb859a</stEvt:instanceID>
                  <stEvt:when>2017-04-13T09:16:15-04:00</stEvt:when>
                  <stEvt:softwareAgent>Adobe Audition CC 2017.0 (Windows)</stEvt:softwareAgent>
                  <stEvt:changed>/metadata</stEvt:changed>
               </rdf:li>
               <rdf:li rdf:parseType="Resource">
                  <stEvt:action>saved</stEvt:action>
                  <stEvt:instanceID>xmp.iid:c3b3b023-6efa-2b49-bdfa-8a027543ba6c</stEvt:instanceID>
                  <stEvt:when>2017-04-13T09:16:15-04:00</stEvt:when>
                  <stEvt:softwareAgent>Adobe Audition CC 2017.0 (Windows)</stEvt:softwareAgent>
                  <stEvt:changed>/</stEvt:changed>
               </rdf:li>
               <rdf:li rdf:parseType="Resource">
                  <stEvt:action>saved</stEvt:action>
                  <stEvt:instanceID>xmp.iid:03f39edb-214e-054b-9d25-cb718ebbad3e</stEvt:instanceID>
                  <stEvt:when>2017-04-13T09:24:35-04:00</stEvt:when>
                  <stEvt:softwareAgent>Adobe Audition CC 2017.0 (Windows)</stEvt:softwareAgent>
                  <stEvt:changed>/metadata</stEvt:changed>
               </rdf:li>
               <rdf:li rdf:parseType="Resource">
                  <stEvt:action>saved</stEvt:action>
                  <stEvt:instanceID>xmp.iid:1e0e54d8-dce9-074a-9930-980cb310c583</stEvt:instanceID>
                  <stEvt:when>2017-04-13T09:24:35-04:00</stEvt:when>
                  <stEvt:softwareAgent>Adobe Audition CC 2017.0 (Windows)</stEvt:softwareAgent>
                  <stEvt:changed>/</stEvt:changed>
               </rdf:li>
               <rdf:li rdf:parseType="Resource">
                  <stEvt:action>saved</stEvt:action>
                  <stEvt:instanceID>xmp.iid:06983e33-6f6f-324e-92f2-8f77537da6af</stEvt:instanceID>
                  <stEvt:when>2017-04-15T04:35:11-04:00</stEvt:when>
                  <stEvt:softwareAgent>Adobe Audition CC 2017.0 (Windows)</stEvt:softwareAgent>
                  <stEvt:changed>/metadata</stEvt:changed>
               </rdf:li>
               <rdf:li rdf:parseType="Resource">
                  <stEvt:action>saved</stEvt:action>
                  <stEvt:instanceID>xmp.iid:4388468d-a822-2e4c-9d66-5cfd5241cd59</stEvt:instanceID>
                  <stEvt:when>2017-04-15T04:35:11-04:00</stEvt:when>
                  <stEvt:softwareAgent>Adobe Audition CC 2017.0 (Windows)</stEvt:softwareAgent>
                  <stEvt:changed>/</stEvt:changed>
               </rdf:li>
               <rdf:li rdf:parseType="Resource">
                  <stEvt:action>saved</stEvt:action>
                  <stEvt:instanceID>xmp.iid:c702bc23-4f6a-e043-b706-2350a6aa86fd</stEvt:instanceID>
                  <stEvt:when>2017-04-15T04:35:11-04:00</stEvt:when>
                  <stEvt:softwareAgent>Adobe Audition CC 2017.0 (Windows)</stEvt:softwareAgent>
                  <stEvt:changed>/metadata</stEvt:changed>
               </rdf:li>
               <rdf:li rdf:parseType="Resource">
                  <stEvt:action>saved</stEvt:action>
                  <stEvt:instanceID>xmp.iid:ccb21bbb-9a20-7043-8483-f14255e0e9d1</stEvt:instanceID>
                  <stEvt:when>2017-04-15T04:35:11-04:00</stEvt:when>
                  <stEvt:softwareAgent>Adobe Audition CC 2017.0 (Windows)</stEvt:softwareAgent>
                  <stEvt:changed>/</stEvt:changed>
               </rdf:li>
               <rdf:li rdf:parseType="Resource">
                  <stEvt:action>saved</stEvt:action>
                  <stEvt:instanceID>xmp.iid:d9ea5b48-ae1d-584f-9ae1-c8b485938eff</stEvt:instanceID>
                  <stEvt:when>2017-04-15T09:54:22-04:00</stEvt:when>
                  <stEvt:softwareAgent>Adobe Audition CC 2017.0 (Windows)</stEvt:softwareAgent>
                  <stEvt:changed>/metadata</stEvt:changed>
               </rdf:li>
               <rdf:li rdf:parseType="Resource">
                  <stEvt:action>saved</stEvt:action>
                  <stEvt:instanceID>xmp.iid:c37efb72-ddac-694f-a7d5-da3eb3b5e859</stEvt:instanceID>
                  <stEvt:when>2017-04-15T09:54:22-04:00</stEvt:when>
                  <stEvt:softwareAgent>Adobe Audition CC 2017.0 (Windows)</stEvt:softwareAgent>
                  <stEvt:changed>/</stEvt:changed>
               </rdf:li>
               <rdf:li rdf:parseType="Resource">
                  <stEvt:action>saved</stEvt:action>
                  <stEvt:instanceID>xmp.iid:67c016ef-4ab4-0649-a8c0-54f0a3143c2a</stEvt:instanceID>
                  <stEvt:when>2017-04-15T10:01:21-04:00</stEvt:when>
                  <stEvt:softwareAgent>Adobe Audition CC 2017.0 (Windows)</stEvt:softwareAgent>
                  <stEvt:changed>/metadata</stEvt:changed>
               </rdf:li>
               <rdf:li rdf:parseType="Resource">
                  <stEvt:action>saved</stEvt:action>
                  <stEvt:instanceID>xmp.iid:1deb941c-d862-e543-9fba-e0346d12b224</stEvt:instanceID>
                  <stEvt:when>2017-04-15T10:01:21-04:00</stEvt:when>
                  <stEvt:softwareAgent>Adobe Audition CC 2017.0 (Windows)</stEvt:softwareAgent>
                  <stEvt:changed>/</stEvt:changed>
               </rdf:li>
               <rdf:li rdf:parseType="Resource">
                  <stEvt:action>saved</stEvt:action>
                  <stEvt:instanceID>xmp.iid:e8b9e092-3be4-b844-9e96-6e96257c76ce</stEvt:instanceID>
                  <stEvt:when>2017-04-15T10:09:22-04:00</stEvt:when>
                  <stEvt:softwareAgent>Adobe Audition CC 2017.0 (Windows)</stEvt:softwareAgent>
                  <stEvt:changed>/metadata</stEvt:changed>
               </rdf:li>
               <rdf:li rdf:parseType="Resource">
                  <stEvt:action>saved</stEvt:action>
                  <stEvt:instanceID>xmp.iid:6504bc37-d369-8844-bf35-4a5ae2283e55</stEvt:instanceID>
                  <stEvt:when>2017-04-15T10:09:22-04:00</stEvt:when>
                  <stEvt:softwareAgent>Adobe Audition CC 2017.0 (Windows)</stEvt:softwareAgent>
                  <stEvt:changed>/</stEvt:changed>
               </rdf:li>
               <rdf:li rdf:parseType="Resource">
                  <stEvt:action>saved</stEvt:action>
                  <stEvt:instanceID>xmp.iid:b9e82324-93b2-0c47-9a10-3e1060edb91b</stEvt:instanceID>
                  <stEvt:when>2017-04-15T10:57:23-04:00</stEvt:when>
                  <stEvt:softwareAgent>Adobe Audition CC 2017.0 (Windows)</stEvt:softwareAgent>
                  <stEvt:changed>/metadata</stEvt:changed>
               </rdf:li>
               <rdf:li rdf:parseType="Resource">
                  <stEvt:action>saved</stEvt:action>
                  <stEvt:instanceID>xmp.iid:69bfaa5e-fd9c-984a-bade-fef2beb67a5e</stEvt:instanceID>
                  <stEvt:when>2017-04-15T10:57:23-04:00</stEvt:when>
                  <stEvt:softwareAgent>Adobe Audition CC 2017.0 (Windows)</stEvt:softwareAgent>
                  <stEvt:changed>/</stEvt:changed>
               </rdf:li>
               <rdf:li rdf:parseType="Resource">
                  <stEvt:action>saved</stEvt:action>
                  <stEvt:instanceID>xmp.iid:bac92438-016b-5a4a-8e74-b55ba5a3ad9c</stEvt:instanceID>
                  <stEvt:when>2017-04-15T11:01:22-04:00</stEvt:when>
                  <stEvt:softwareAgent>Adobe Audition CC 2017.0 (Windows)</stEvt:softwareAgent>
                  <stEvt:changed>/metadata</stEvt:changed>
               </rdf:li>
               <rdf:li rdf:parseType="Resource">
                  <stEvt:action>saved</stEvt:action>
                  <stEvt:instanceID>xmp.iid:44704f71-9de8-6d49-a748-4bc4b9c029da</stEvt:instanceID>
                  <stEvt:when>2017-04-15T11:01:22-04:00</stEvt:when>
                  <stEvt:softwareAgent>Adobe Audition CC 2017.0 (Windows)</stEvt:softwareAgent>
                  <stEvt:changed>/</stEvt:changed>
               </rdf:li>
               <rdf:li rdf:parseType="Resource">
                  <stEvt:action>saved</stEvt:action>
                  <stEvt:instanceID>xmp.iid:e95fde59-3a9b-9744-a499-e5b06e0ca784</stEvt:instanceID>
                  <stEvt:when>2017-04-15T11:03:23-04:00</stEvt:when>
                  <stEvt:softwareAgent>Adobe Audition CC 2017.0 (Windows)</stEvt:softwareAgent>
                  <stEvt:changed>/metadata</stEvt:changed>
               </rdf:li>
               <rdf:li rdf:parseType="Resource">
                  <stEvt:action>saved</stEvt:action>
                  <stEvt:instanceID>xmp.iid:c23445ec-8ddb-7b44-9da0-f21adf5f2fa4</stEvt:instanceID>
                  <stEvt:when>2017-04-15T11:03:23-04:00</stEvt:when>
                  <stEvt:softwareAgent>Adobe Audition CC 2017.0 (Windows)</stEvt:softwareAgent>
                  <stEvt:changed>/</stEvt:changed>
               </rdf:li>
               <rdf:li rdf:parseType="Resource">
                  <stEvt:action>saved</stEvt:action>
                  <stEvt:instanceID>xmp.iid:41dd48b3-e0e6-e64a-8983-ef4d6368fb69</stEvt:instanceID>
                  <stEvt:when>2017-04-15T11:11:22-04:00</stEvt:when>
                  <stEvt:softwareAgent>Adobe Audition CC 2017.0 (Windows)</stEvt:softwareAgent>
                  <stEvt:changed>/metadata</stEvt:changed>
               </rdf:li>
               <rdf:li rdf:parseType="Resource">
                  <stEvt:action>saved</stEvt:action>
                  <stEvt:instanceID>xmp.iid:a6b937a1-685a-0e41-831c-3ebfb38baac4</stEvt:instanceID>
                  <stEvt:when>2017-04-15T11:11:22-04:00</stEvt:when>
                  <stEvt:softwareAgent>Adobe Audition CC 2017.0 (Windows)</stEvt:softwareAgent>
                  <stEvt:changed>/</stEvt:changed>
               </rdf:li>
               <rdf:li rdf:parseType="Resource">
                  <stEvt:action>saved</stEvt:action>
                  <stEvt:instanceID>xmp.iid:9f71dd6b-9ef1-e642-b5b0-97d587c54cdb</stEvt:instanceID>
                  <stEvt:when>2017-04-15T11:12:24-04:00</stEvt:when>
                  <stEvt:softwareAgent>Adobe Audition CC 2017.0 (Windows)</stEvt:softwareAgent>
                  <stEvt:changed>/metadata</stEvt:changed>
               </rdf:li>
               <rdf:li rdf:parseType="Resource">
                  <stEvt:action>saved</stEvt:action>
                  <stEvt:instanceID>xmp.iid:733b87fe-921e-6d49-a90d-4405017a0043</stEvt:instanceID>
                  <stEvt:when>2017-04-15T11:12:24-04:00</stEvt:when>
                  <stEvt:softwareAgent>Adobe Audition CC 2017.0 (Windows)</stEvt:softwareAgent>
                  <stEvt:changed>/</stEvt:changed>
               </rdf:li>
               <rdf:li rdf:parseType="Resource">
                  <stEvt:action>saved</stEvt:action>
                  <stEvt:instanceID>xmp.iid:b07a765f-4160-0f48-a93e-56158a72df45</stEvt:instanceID>
                  <stEvt:when>2017-04-15T11:21:22-04:00</stEvt:when>
                  <stEvt:softwareAgent>Adobe Audition CC 2017.0 (Windows)</stEvt:softwareAgent>
                  <stEvt:changed>/metadata</stEvt:changed>
               </rdf:li>
               <rdf:li rdf:parseType="Resource">
                  <stEvt:action>saved</stEvt:action>
                  <stEvt:instanceID>xmp.iid:b3d67158-1f72-4d46-9abc-9363bbb42ef0</stEvt:instanceID>
                  <stEvt:when>2017-04-15T11:21:22-04:00</stEvt:when>
                  <stEvt:softwareAgent>Adobe Audition CC 2017.0 (Windows)</stEvt:softwareAgent>
                  <stEvt:changed>/</stEvt:changed>
               </rdf:li>
               <rdf:li rdf:parseType="Resource">
                  <stEvt:action>saved</stEvt:action>
                  <stEvt:instanceID>xmp.iid:4ebaceed-389a-0840-97f2-0adcbc0cdc99</stEvt:instanceID>
                  <stEvt:when>2017-04-15T11:22:14-04:00</stEvt:when>
                  <stEvt:softwareAgent>Adobe Audition CC 2017.0 (Windows)</stEvt:softwareAgent>
                  <stEvt:changed>/metadata</stEvt:changed>
               </rdf:li>
               <rdf:li rdf:parseType="Resource">
                  <stEvt:action>saved</stEvt:action>
                  <stEvt:instanceID>xmp.iid:df2778b7-4cc9-624a-8f31-2671af623ca6</stEvt:instanceID>
                  <stEvt:when>2017-04-15T11:22:14-04:00</stEvt:when>
                  <stEvt:softwareAgent>Adobe Audition CC 2017.0 (Windows)</stEvt:softwareAgent>
                  <stEvt:changed>/</stEvt:changed>
               </rdf:li>
               <rdf:li rdf:parseType="Resource">
                  <stEvt:action>saved</stEvt:action>
                  <stEvt:instanceID>xmp.iid:a1caf543-8ba7-b64e-a205-09f008354cae</stEvt:instanceID>
                  <stEvt:when>2017-04-15T11:41:23-04:00</stEvt:when>
                  <stEvt:softwareAgent>Adobe Audition CC 2017.0 (Windows)</stEvt:softwareAgent>
                  <stEvt:changed>/metadata</stEvt:changed>
               </rdf:li>
               <rdf:li rdf:parseType="Resource">
                  <stEvt:action>saved</stEvt:action>
                  <stEvt:instanceID>xmp.iid:484fe6e9-f82a-764c-ae0c-6948390fb2aa</stEvt:instanceID>
                  <stEvt:when>2017-04-15T11:41:23-04:00</stEvt:when>
                  <stEvt:softwareAgent>Adobe Audition CC 2017.0 (Windows)</stEvt:softwareAgent>
                  <stEvt:changed>/</stEvt:changed>
               </rdf:li>
               <rdf:li rdf:parseType="Resource">
                  <stEvt:action>saved</stEvt:action>
                  <stEvt:instanceID>xmp.iid:6d5905a6-ad9b-ba40-84a3-51607309aaf6</stEvt:instanceID>
                  <stEvt:when>2017-04-15T11:42:24-04:00</stEvt:when>
                  <stEvt:softwareAgent>Adobe Audition CC 2017.0 (Windows)</stEvt:softwareAgent>
                  <stEvt:changed>/metadata</stEvt:changed>
               </rdf:li>
               <rdf:li rdf:parseType="Resource">
                  <stEvt:action>saved</stEvt:action>
                  <stEvt:instanceID>xmp.iid:7303e554-b10b-c44b-b8da-dd1af24ea44d</stEvt:instanceID>
                  <stEvt:when>2017-04-15T11:42:24-04:00</stEvt:when>
                  <stEvt:softwareAgent>Adobe Audition CC 2017.0 (Windows)</stEvt:softwareAgent>
                  <stEvt:changed>/</stEvt:changed>
               </rdf:li>
               <rdf:li rdf:parseType="Resource">
                  <stEvt:action>saved</stEvt:action>
                  <stEvt:instanceID>xmp.iid:1897c8ca-7d1d-bc49-b19e-f6445138dafb</stEvt:instanceID>
                  <stEvt:when>2017-04-15T11:48:24-04:00</stEvt:when>
                  <stEvt:softwareAgent>Adobe Audition CC 2017.0 (Windows)</stEvt:softwareAgent>
                  <stEvt:changed>/metadata</stEvt:changed>
               </rdf:li>
               <rdf:li rdf:parseType="Resource">
                  <stEvt:action>saved</stEvt:action>
                  <stEvt:instanceID>xmp.iid:c10b9560-7303-3340-98b3-fa23a67a7379</stEvt:instanceID>
                  <stEvt:when>2017-04-15T11:48:24-04:00</stEvt:when>
                  <stEvt:softwareAgent>Adobe Audition CC 2017.0 (Windows)</stEvt:softwareAgent>
                  <stEvt:changed>/</stEvt:changed>
               </rdf:li>
               <rdf:li rdf:parseType="Resource">
                  <stEvt:action>saved</stEvt:action>
                  <stEvt:instanceID>xmp.iid:61bb3932-5d30-b94b-82b6-0daf19bcf586</stEvt:instanceID>
                  <stEvt:when>2017-04-15T11:51:23-04:00</stEvt:when>
                  <stEvt:softwareAgent>Adobe Audition CC 2017.0 (Windows)</stEvt:softwareAgent>
                  <stEvt:changed>/metadata</stEvt:changed>
               </rdf:li>
               <rdf:li rdf:parseType="Resource">
                  <stEvt:action>saved</stEvt:action>
                  <stEvt:instanceID>xmp.iid:0fac1f5c-31a4-ef49-8e46-915db7a2ed21</stEvt:instanceID>
                  <stEvt:when>2017-04-15T11:51:23-04:00</stEvt:when>
                  <stEvt:softwareAgent>Adobe Audition CC 2017.0 (Windows)</stEvt:softwareAgent>
                  <stEvt:changed>/</stEvt:changed>
               </rdf:li>
               <rdf:li rdf:parseType="Resource">
                  <stEvt:action>saved</stEvt:action>
                  <stEvt:instanceID>xmp.iid:94a6916e-ba2f-a24c-915b-1070bfaa9bfa</stEvt:instanceID>
                  <stEvt:when>2017-04-15T11:51:24-04:00</stEvt:when>
                  <stEvt:softwareAgent>Adobe Audition CC 2017.0 (Windows)</stEvt:softwareAgent>
                  <stEvt:changed>/metadata</stEvt:changed>
               </rdf:li>
               <rdf:li rdf:parseType="Resource">
                  <stEvt:action>saved</stEvt:action>
                  <stEvt:instanceID>xmp.iid:775e5f50-860c-b74d-a744-9f732985da1a</stEvt:instanceID>
                  <stEvt:when>2017-04-15T11:51:24-04:00</stEvt:when>
                  <stEvt:softwareAgent>Adobe Audition CC 2017.0 (Windows)</stEvt:softwareAgent>
                  <stEvt:changed>/</stEvt:changed>
               </rdf:li>
               <rdf:li rdf:parseType="Resource">
                  <stEvt:action>saved</stEvt:action>
                  <stEvt:instanceID>xmp.iid:824c3a58-5bbc-414a-a6c0-e973f5707fbc</stEvt:instanceID>
                  <stEvt:when>2017-04-15T12:01:23-04:00</stEvt:when>
                  <stEvt:softwareAgent>Adobe Audition CC 2017.0 (Windows)</stEvt:softwareAgent>
                  <stEvt:changed>/metadata</stEvt:changed>
               </rdf:li>
               <rdf:li rdf:parseType="Resource">
                  <stEvt:action>saved</stEvt:action>
                  <stEvt:instanceID>xmp.iid:a0ab829d-8af0-2d41-924e-4a20dc0bf8d3</stEvt:instanceID>
                  <stEvt:when>2017-04-15T12:01:23-04:00</stEvt:when>
                  <stEvt:softwareAgent>Adobe Audition CC 2017.0 (Windows)</stEvt:softwareAgent>
                  <stEvt:changed>/</stEvt:changed>
               </rdf:li>
               <rdf:li rdf:parseType="Resource">
                  <stEvt:action>saved</stEvt:action>
                  <stEvt:instanceID>xmp.iid:a1157ef5-62c9-7a48-be0e-0a0dc621b276</stEvt:instanceID>
                  <stEvt:when>2017-04-15T12:06:24-04:00</stEvt:when>
                  <stEvt:softwareAgent>Adobe Audition CC 2017.0 (Windows)</stEvt:softwareAgent>
                  <stEvt:changed>/metadata</stEvt:changed>
               </rdf:li>
               <rdf:li rdf:parseType="Resource">
                  <stEvt:action>saved</stEvt:action>
                  <stEvt:instanceID>xmp.iid:39d04bf7-764c-8a48-87a8-5e0d76613166</stEvt:instanceID>
                  <stEvt:when>2017-04-15T12:06:24-04:00</stEvt:when>
                  <stEvt:softwareAgent>Adobe Audition CC 2017.0 (Windows)</stEvt:softwareAgent>
                  <stEvt:changed>/</stEvt:changed>
               </rdf:li>
               <rdf:li rdf:parseType="Resource">
                  <stEvt:action>saved</stEvt:action>
                  <stEvt:instanceID>xmp.iid:4539fe6d-0141-7043-8379-0b3a8c090287</stEvt:instanceID>
                  <stEvt:when>2017-04-15T12:10:36-04:00</stEvt:when>
                  <stEvt:softwareAgent>Adobe Audition CC 2017.0 (Windows)</stEvt:softwareAgent>
                  <stEvt:changed>/metadata</stEvt:changed>
               </rdf:li>
               <rdf:li rdf:parseType="Resource">
                  <stEvt:action>saved</stEvt:action>
                  <stEvt:instanceID>xmp.iid:16f595de-572c-9c48-a17e-d35a93f53e06</stEvt:instanceID>
                  <stEvt:when>2017-04-15T12:10:36-04:00</stEvt:when>
                  <stEvt:softwareAgent>Adobe Audition CC 2017.0 (Windows)</stEvt:softwareAgent>
                  <stEvt:changed>/</stEvt:changed>
               </rdf:li>
               <rdf:li rdf:parseType="Resource">
                  <stEvt:action>saved</stEvt:action>
                  <stEvt:instanceID>xmp.iid:dbdcacff-cbc8-6f40-a995-43293230ad1d</stEvt:instanceID>
                  <stEvt:when>2017-04-15T12:11:47-04:00</stEvt:when>
                  <stEvt:softwareAgent>Adobe Audition CC 2017.0 (Windows)</stEvt:softwareAgent>
                  <stEvt:changed>/metadata</stEvt:changed>
               </rdf:li>
               <rdf:li rdf:parseType="Resource">
                  <stEvt:action>saved</stEvt:action>
                  <stEvt:instanceID>xmp.iid:cb338c50-40ad-e347-8b28-39e252a2da73</stEvt:instanceID>
                  <stEvt:when>2017-04-15T12:11:47-04:00</stEvt:when>
                  <stEvt:softwareAgent>Adobe Audition CC 2017.0 (Windows)</stEvt:softwareAgent>
                  <stEvt:changed>/</stEvt:changed>
               </rdf:li>
               <rdf:li rdf:parseType="Resource">
                  <stEvt:action>saved</stEvt:action>
                  <stEvt:instanceID>xmp.iid:e8c3744a-e7d1-2c4f-a1fc-d530a8ed32e1</stEvt:instanceID>
                  <stEvt:when>2017-04-15T12:11:47-04:00</stEvt:when>
                  <stEvt:softwareAgent>Adobe Audition CC 2017.0 (Windows)</stEvt:softwareAgent>
                  <stEvt:changed>/metadata</stEvt:changed>
               </rdf:li>
               <rdf:li rdf:parseType="Resource">
                  <stEvt:action>saved</stEvt:action>
                  <stEvt:instanceID>xmp.iid:07e34c73-0d42-4943-80a3-f33fcb35d1c5</stEvt:instanceID>
                  <stEvt:when>2017-04-15T12:11:47-04:00</stEvt:when>
                  <stEvt:softwareAgent>Adobe Audition CC 2017.0 (Windows)</stEvt:softwareAgent>
                  <stEvt:changed>/</stEvt:changed>
               </rdf:li>
               <rdf:li rdf:parseType="Resource">
                  <stEvt:action>saved</stEvt:action>
                  <stEvt:instanceID>xmp.iid:e676c894-40df-1849-b851-354d7502c1b5</stEvt:instanceID>
                  <stEvt:when>2017-04-15T14:00:03-04:00</stEvt:when>
                  <stEvt:softwareAgent>Adobe Audition CC 2017.0 (Windows)</stEvt:softwareAgent>
                  <stEvt:changed>/metadata</stEvt:changed>
               </rdf:li>
               <rdf:li rdf:parseType="Resource">
                  <stEvt:action>saved</stEvt:action>
                  <stEvt:instanceID>xmp.iid:4bbaa79a-e405-d548-b2f8-9249955e55b9</stEvt:instanceID>
                  <stEvt:when>2017-04-15T14:00:03-04:00</stEvt:when>
                  <stEvt:softwareAgent>Adobe Audition CC 2017.0 (Windows)</stEvt:softwareAgent>
                  <stEvt:changed>/</stEvt:changed>
               </rdf:li>
               <rdf:li rdf:parseType="Resource">
                  <stEvt:action>saved</stEvt:action>
                  <stEvt:instanceID>xmp.iid:11fe7dc7-f46b-f240-95d6-45f8df6ce385</stEvt:instanceID>
                  <stEvt:when>2017-04-15T14:21:44-04:00</stEvt:when>
                  <stEvt:softwareAgent>Adobe Audition CC 2017.0 (Windows)</stEvt:softwareAgent>
                  <stEvt:changed>/metadata</stEvt:changed>
               </rdf:li>
               <rdf:li rdf:parseType="Resource">
                  <stEvt:action>saved</stEvt:action>
                  <stEvt:instanceID>xmp.iid:93944204-d978-4142-88c2-8307d882f182</stEvt:instanceID>
                  <stEvt:when>2017-04-15T14:21:44-04:00</stEvt:when>
                  <stEvt:softwareAgent>Adobe Audition CC 2017.0 (Windows)</stEvt:softwareAgent>
                  <stEvt:changed>/</stEvt:changed>
               </rdf:li>
               <rdf:li rdf:parseType="Resource">
                  <stEvt:action>saved</stEvt:action>
                  <stEvt:instanceID>xmp.iid:663e757e-76a1-1c49-89e8-b6dd53a6596e</stEvt:instanceID>
                  <stEvt:when>2017-04-15T14:57:04-04:00</stEvt:when>
                  <stEvt:softwareAgent>Adobe Audition CC 2017.0 (Windows)</stEvt:softwareAgent>
                  <stEvt:changed>/metadata</stEvt:changed>
               </rdf:li>
               <rdf:li rdf:parseType="Resource">
                  <stEvt:action>saved</stEvt:action>
                  <stEvt:instanceID>xmp.iid:e00fd129-6deb-0745-a874-c8c68e57f159</stEvt:instanceID>
                  <stEvt:when>2017-04-15T14:57:04-04:00</stEvt:when>
                  <stEvt:softwareAgent>Adobe Audition CC 2017.0 (Windows)</stEvt:softwareAgent>
                  <stEvt:changed>/</stEvt:changed>
               </rdf:li>
               <rdf:li rdf:parseType="Resource">
                  <stEvt:action>saved</stEvt:action>
                  <stEvt:instanceID>xmp.iid:d9a78455-0cff-a04e-b6e2-63f5eb40d65f</stEvt:instanceID>
                  <stEvt:when>2017-04-15T15:20:42-04:00</stEvt:when>
                  <stEvt:softwareAgent>Adobe Audition CC 2017.0 (Windows)</stEvt:softwareAgent>
                  <stEvt:changed>/metadata</stEvt:changed>
               </rdf:li>
               <rdf:li rdf:parseType="Resource">
                  <stEvt:action>saved</stEvt:action>
                  <stEvt:instanceID>xmp.iid:3121d1cd-7470-6743-9e60-9eada831f823</stEvt:instanceID>
                  <stEvt:when>2017-04-15T15:20:42-04:00</stEvt:when>
                  <stEvt:softwareAgent>Adobe Audition CC 2017.0 (Windows)</stEvt:softwareAgent>
                  <stEvt:changed>/</stEvt:changed>
               </rdf:li>
               <rdf:li rdf:parseType="Resource">
                  <stEvt:action>saved</stEvt:action>
                  <stEvt:instanceID>xmp.iid:f1223f23-f543-474d-a07f-2d2479450642</stEvt:instanceID>
                  <stEvt:when>2017-04-15T15:31:37-04:00</stEvt:when>
                  <stEvt:softwareAgent>Adobe Audition CC 2017.0 (Windows)</stEvt:softwareAgent>
                  <stEvt:changed>/metadata</stEvt:changed>
               </rdf:li>
               <rdf:li rdf:parseType="Resource">
                  <stEvt:action>saved</stEvt:action>
                  <stEvt:instanceID>xmp.iid:514497f6-b361-dd4c-ab1a-d27a43d38289</stEvt:instanceID>
                  <stEvt:when>2017-04-15T15:31:37-04:00</stEvt:when>
                  <stEvt:softwareAgent>Adobe Audition CC 2017.0 (Windows)</stEvt:softwareAgent>
                  <stEvt:changed>/</stEvt:changed>
               </rdf:li>
               <rdf:li rdf:parseType="Resource">
                  <stEvt:action>saved</stEvt:action>
                  <stEvt:instanceID>xmp.iid:5266ca4d-2d48-4746-9c23-d75cf4d00b71</stEvt:instanceID>
                  <stEvt:when>2017-04-15T15:50:21-04:00</stEvt:when>
                  <stEvt:softwareAgent>Adobe Audition CC 2017.0 (Windows)</stEvt:softwareAgent>
                  <stEvt:changed>/metadata</stEvt:changed>
               </rdf:li>
               <rdf:li rdf:parseType="Resource">
                  <stEvt:action>saved</stEvt:action>
                  <stEvt:instanceID>xmp.iid:403a6a6a-3bb3-634f-8f48-852947083a94</stEvt:instanceID>
                  <stEvt:when>2017-04-15T15:50:21-04:00</stEvt:when>
                  <stEvt:softwareAgent>Adobe Audition CC 2017.0 (Windows)</stEvt:softwareAgent>
                  <stEvt:changed>/</stEvt:changed>
               </rdf:li>
               <rdf:li rdf:parseType="Resource">
                  <stEvt:action>saved</stEvt:action>
                  <stEvt:instanceID>xmp.iid:2cdc0c5b-6e0a-0c45-b04e-132a0cdd851d</stEvt:instanceID>
                  <stEvt:when>2017-04-15T16:11:18-04:00</stEvt:when>
                  <stEvt:softwareAgent>Adobe Audition CC 2017.0 (Windows)</stEvt:softwareAgent>
                  <stEvt:changed>/metadata</stEvt:changed>
               </rdf:li>
               <rdf:li rdf:parseType="Resource">
                  <stEvt:action>saved</stEvt:action>
                  <stEvt:instanceID>xmp.iid:86b238d8-7b17-5c44-a202-9cd27b08c8e6</stEvt:instanceID>
                  <stEvt:when>2017-04-15T16:11:18-04:00</stEvt:when>
                  <stEvt:softwareAgent>Adobe Audition CC 2017.0 (Windows)</stEvt:softwareAgent>
                  <stEvt:changed>/</stEvt:changed>
               </rdf:li>
               <rdf:li rdf:parseType="Resource">
                  <stEvt:action>saved</stEvt:action>
                  <stEvt:instanceID>xmp.iid:46a90b1c-5113-414b-bd94-ffb123ebf80e</stEvt:instanceID>
                  <stEvt:when>2017-04-15T19:14-04:00</stEvt:when>
                  <stEvt:softwareAgent>Adobe Audition CC 2017.0 (Windows)</stEvt:softwareAgent>
                  <stEvt:changed>/metadata</stEvt:changed>
               </rdf:li>
               <rdf:li rdf:parseType="Resource">
                  <stEvt:action>saved</stEvt:action>
                  <stEvt:instanceID>xmp.iid:3cd3faca-9cae-7f46-914e-3ea4f9884a79</stEvt:instanceID>
                  <stEvt:when>2017-04-15T19:14-04:00</stEvt:when>
                  <stEvt:softwareAgent>Adobe Audition CC 2017.0 (Windows)</stEvt:softwareAgent>
                  <stEvt:changed>/</stEvt:changed>
               </rdf:li>
               <rdf:li rdf:parseType="Resource">
                  <stEvt:action>saved</stEvt:action>
                  <stEvt:instanceID>xmp.iid:19f86daa-96cb-3944-929b-62d206189ba6</stEvt:instanceID>
                  <stEvt:when>2017-04-15T19:33:12-04:00</stEvt:when>
                  <stEvt:softwareAgent>Adobe Audition CC 2017.0 (Windows)</stEvt:softwareAgent>
                  <stEvt:changed>/metadata</stEvt:changed>
               </rdf:li>
               <rdf:li rdf:parseType="Resource">
                  <stEvt:action>saved</stEvt:action>
                  <stEvt:instanceID>xmp.iid:4f60f865-a094-d048-aa08-2c54c5855769</stEvt:instanceID>
                  <stEvt:when>2017-04-15T19:33:12-04:00</stEvt:when>
                  <stEvt:softwareAgent>Adobe Audition CC 2017.0 (Windows)</stEvt:softwareAgent>
                  <stEvt:changed>/</stEvt:changed>
               </rdf:li>
               <rdf:li rdf:parseType="Resource">
                  <stEvt:action>saved</stEvt:action>
                  <stEvt:instanceID>xmp.iid:bbbe0a77-28e0-a049-864f-bf6e564c215a</stEvt:instanceID>
                  <stEvt:when>2017-04-15T21:18:57-04:00</stEvt:when>
                  <stEvt:softwareAgent>Adobe Audition CC 2017.0 (Windows)</stEvt:softwareAgent>
                  <stEvt:changed>/metadata</stEvt:changed>
               </rdf:li>
               <rdf:li rdf:parseType="Resource">
                  <stEvt:action>saved</stEvt:action>
                  <stEvt:instanceID>xmp.iid:2476a41d-a2c2-f544-8054-cb7972969265</stEvt:instanceID>
                  <stEvt:when>2017-04-15T21:18:57-04:00</stEvt:when>
                  <stEvt:softwareAgent>Adobe Audition CC 2017.0 (Windows)</stEvt:softwareAgent>
                  <stEvt:changed>/</stEvt:changed>
               </rdf:li>
               <rdf:li rdf:parseType="Resource">
                  <stEvt:action>saved</stEvt:action>
                  <stEvt:instanceID>xmp.iid:2817a9f5-2772-5b44-b605-bef64d34fa62</stEvt:instanceID>
                  <stEvt:when>2017-04-15T21:18:58-04:00</stEvt:when>
                  <stEvt:softwareAgent>Adobe Audition CC 2017.0 (Windows)</stEvt:softwareAgent>
                  <stEvt:changed>/metadata</stEvt:changed>
               </rdf:li>
               <rdf:li rdf:parseType="Resource">
                  <stEvt:action>saved</stEvt:action>
                  <stEvt:instanceID>xmp.iid:7bbc19fa-b190-6d49-b45a-99375bdd2753</stEvt:instanceID>
                  <stEvt:when>2017-04-15T21:18:58-04:00</stEvt:when>
                  <stEvt:softwareAgent>Adobe Audition CC 2017.0 (Windows)</stEvt:softwareAgent>
                  <stEvt:changed>/</stEvt:changed>
               </rdf:li>
               <rdf:li rdf:parseType="Resource">
                  <stEvt:action>saved</stEvt:action>
                  <stEvt:instanceID>xmp.iid:98e0a09c-e3bb-c647-9301-45a1440f37e4</stEvt:instanceID>
                  <stEvt:when>2017-04-15T21:21:58-04:00</stEvt:when>
                  <stEvt:softwareAgent>Adobe Audition CC 2017.0 (Windows)</stEvt:softwareAgent>
                  <stEvt:changed>/metadata</stEvt:changed>
               </rdf:li>
               <rdf:li rdf:parseType="Resource">
                  <stEvt:action>saved</stEvt:action>
                  <stEvt:instanceID>xmp.iid:b6ae1a2c-e69f-544d-8527-699c25b6c8bc</stEvt:instanceID>
                  <stEvt:when>2017-04-15T21:21:58-04:00</stEvt:when>
                  <stEvt:softwareAgent>Adobe Audition CC 2017.0 (Windows)</stEvt:softwareAgent>
                  <stEvt:changed>/</stEvt:changed>
               </rdf:li>
               <rdf:li rdf:parseType="Resource">
                  <stEvt:action>saved</stEvt:action>
                  <stEvt:instanceID>xmp.iid:6ceb2616-a176-cf45-b5c2-3cd22ad05bc9</stEvt:instanceID>
                  <stEvt:when>2017-04-15T21:30:42-04:00</stEvt:when>
                  <stEvt:softwareAgent>Adobe Audition CC 2017.0 (Windows)</stEvt:softwareAgent>
                  <stEvt:changed>/metadata</stEvt:changed>
               </rdf:li>
               <rdf:li rdf:parseType="Resource">
                  <stEvt:action>saved</stEvt:action>
                  <stEvt:instanceID>xmp.iid:a99af081-0825-a246-b68a-4642bfa4f29d</stEvt:instanceID>
                  <stEvt:when>2017-04-15T21:30:42-04:00</stEvt:when>
                  <stEvt:softwareAgent>Adobe Audition CC 2017.0 (Windows)</stEvt:softwareAgent>
                  <stEvt:changed>/</stEvt:changed>
               </rdf:li>
               <rdf:li rdf:parseType="Resource">
                  <stEvt:action>saved</stEvt:action>
                  <stEvt:instanceID>xmp.iid:30056663-2565-0543-b074-c8ed7ca0174c</stEvt:instanceID>
                  <stEvt:when>2017-04-15T21:33:42-04:00</stEvt:when>
                  <stEvt:softwareAgent>Adobe Audition CC 2017.0 (Windows)</stEvt:softwareAgent>
                  <stEvt:changed>/metadata</stEvt:changed>
               </rdf:li>
               <rdf:li rdf:parseType="Resource">
                  <stEvt:action>saved</stEvt:action>
                  <stEvt:instanceID>xmp.iid:96f170ed-9ffa-c349-b40d-5d940940a161</stEvt:instanceID>
                  <stEvt:when>2017-04-15T21:33:42-04:00</stEvt:when>
                  <stEvt:softwareAgent>Adobe Audition CC 2017.0 (Windows)</stEvt:softwareAgent>
                  <stEvt:changed>/</stEvt:changed>
               </rdf:li>
               <rdf:li rdf:parseType="Resource">
                  <stEvt:action>saved</stEvt:action>
                  <stEvt:instanceID>xmp.iid:0a4746dd-9370-a843-bacd-c7b2935dd98e</stEvt:instanceID>
                  <stEvt:when>2017-04-15T21:38:58-04:00</stEvt:when>
                  <stEvt:softwareAgent>Adobe Audition CC 2017.0 (Windows)</stEvt:softwareAgent>
                  <stEvt:changed>/metadata</stEvt:changed>
               </rdf:li>
               <rdf:li rdf:parseType="Resource">
                  <stEvt:action>saved</stEvt:action>
                  <stEvt:instanceID>xmp.iid:fc73a38c-a6f8-4348-83f5-5c8aa679e79f</stEvt:instanceID>
                  <stEvt:when>2017-04-15T21:38:58-04:00</stEvt:when>
                  <stEvt:softwareAgent>Adobe Audition CC 2017.0 (Windows)</stEvt:softwareAgent>
                  <stEvt:changed>/</stEvt:changed>
               </rdf:li>
               <rdf:li rdf:parseType="Resource">
                  <stEvt:action>saved</stEvt:action>
                  <stEvt:instanceID>xmp.iid:e5c2b422-0dbb-0541-b0a9-019b4fac5b75</stEvt:instanceID>
                  <stEvt:when>2017-04-15T21:39:43-04:00</stEvt:when>
                  <stEvt:softwareAgent>Adobe Audition CC 2017.0 (Windows)</stEvt:softwareAgent>
                  <stEvt:changed>/metadata</stEvt:changed>
               </rdf:li>
               <rdf:li rdf:parseType="Resource">
                  <stEvt:action>saved</stEvt:action>
                  <stEvt:instanceID>xmp.iid:b7f027cd-ec03-5c45-a0a3-db7d8e0fefff</stEvt:instanceID>
                  <stEvt:when>2017-04-15T21:39:43-04:00</stEvt:when>
                  <stEvt:softwareAgent>Adobe Audition CC 2017.0 (Windows)</stEvt:softwareAgent>
                  <stEvt:changed>/</stEvt:changed>
               </rdf:li>
               <rdf:li rdf:parseType="Resource">
                  <stEvt:action>saved</stEvt:action>
                  <stEvt:instanceID>xmp.iid:f52fd5e2-d7a4-2e48-90ba-f9c1f9c23956</stEvt:instanceID>
                  <stEvt:when>2017-04-15T21:42:43-04:00</stEvt:when>
                  <stEvt:softwareAgent>Adobe Audition CC 2017.0 (Windows)</stEvt:softwareAgent>
                  <stEvt:changed>/metadata</stEvt:changed>
               </rdf:li>
               <rdf:li rdf:parseType="Resource">
                  <stEvt:action>saved</stEvt:action>
                  <stEvt:instanceID>xmp.iid:7fed1763-95dd-6646-952d-c0191dd42a38</stEvt:instanceID>
                  <stEvt:when>2017-04-15T21:42:43-04:00</stEvt:when>
                  <stEvt:softwareAgent>Adobe Audition CC 2017.0 (Windows)</stEvt:softwareAgent>
                  <stEvt:changed>/</stEvt:changed>
               </rdf:li>
               <rdf:li rdf:parseType="Resource">
                  <stEvt:action>saved</stEvt:action>
                  <stEvt:instanceID>xmp.iid:8624b302-9ee3-8e4d-8c8f-4ec071bdb0da</stEvt:instanceID>
                  <stEvt:when>2017-04-15T21:48:43-04:00</stEvt:when>
                  <stEvt:softwareAgent>Adobe Audition CC 2017.0 (Windows)</stEvt:softwareAgent>
                  <stEvt:changed>/metadata</stEvt:changed>
               </rdf:li>
               <rdf:li rdf:parseType="Resource">
                  <stEvt:action>saved</stEvt:action>
                  <stEvt:instanceID>xmp.iid:191bc298-d29b-9d45-90c9-0bc1e978c74d</stEvt:instanceID>
                  <stEvt:when>2017-04-15T21:48:43-04:00</stEvt:when>
                  <stEvt:softwareAgent>Adobe Audition CC 2017.0 (Windows)</stEvt:softwareAgent>
                  <stEvt:changed>/</stEvt:changed>
               </rdf:li>
               <rdf:li rdf:parseType="Resource">
                  <stEvt:action>saved</stEvt:action>
                  <stEvt:instanceID>xmp.iid:b9161522-b338-8541-9875-a0df6291f4f2</stEvt:instanceID>
                  <stEvt:when>2017-04-15T21:51:43-04:00</stEvt:when>
                  <stEvt:softwareAgent>Adobe Audition CC 2017.0 (Windows)</stEvt:softwareAgent>
                  <stEvt:changed>/metadata</stEvt:changed>
               </rdf:li>
               <rdf:li rdf:parseType="Resource">
                  <stEvt:action>saved</stEvt:action>
                  <stEvt:instanceID>xmp.iid:563f86a8-17bd-4f4c-a6fd-d402cc1f5f48</stEvt:instanceID>
                  <stEvt:when>2017-04-15T21:51:43-04:00</stEvt:when>
                  <stEvt:softwareAgent>Adobe Audition CC 2017.0 (Windows)</stEvt:softwareAgent>
                  <stEvt:changed>/</stEvt:changed>
               </rdf:li>
               <rdf:li rdf:parseType="Resource">
                  <stEvt:action>saved</stEvt:action>
                  <stEvt:instanceID>xmp.iid:084b6c5e-18a6-1046-a2ae-f64324f31a8c</stEvt:instanceID>
                  <stEvt:when>2017-04-15T21:54:43-04:00</stEvt:when>
                  <stEvt:softwareAgent>Adobe Audition CC 2017.0 (Windows)</stEvt:softwareAgent>
                  <stEvt:changed>/metadata</stEvt:changed>
               </rdf:li>
               <rdf:li rdf:parseType="Resource">
                  <stEvt:action>saved</stEvt:action>
                  <stEvt:instanceID>xmp.iid:36fb3477-e9ba-ef4c-9c68-72a6df848bae</stEvt:instanceID>
                  <stEvt:when>2017-04-15T21:54:43-04:00</stEvt:when>
                  <stEvt:softwareAgent>Adobe Audition CC 2017.0 (Windows)</stEvt:softwareAgent>
                  <stEvt:changed>/</stEvt:changed>
               </rdf:li>
               <rdf:li rdf:parseType="Resource">
                  <stEvt:action>saved</stEvt:action>
                  <stEvt:instanceID>xmp.iid:33ca2650-7669-0e49-8df2-b5befde06db1</stEvt:instanceID>
                  <stEvt:when>2017-04-15T21:57:43-04:00</stEvt:when>
                  <stEvt:softwareAgent>Adobe Audition CC 2017.0 (Windows)</stEvt:softwareAgent>
                  <stEvt:changed>/metadata</stEvt:changed>
               </rdf:li>
               <rdf:li rdf:parseType="Resource">
                  <stEvt:action>saved</stEvt:action>
                  <stEvt:instanceID>xmp.iid:9e63f7fa-9c89-6446-85cb-2e7b07c98342</stEvt:instanceID>
                  <stEvt:when>2017-04-15T21:57:43-04:00</stEvt:when>
                  <stEvt:softwareAgent>Adobe Audition CC 2017.0 (Windows)</stEvt:softwareAgent>
                  <stEvt:changed>/</stEvt:changed>
               </rdf:li>
               <rdf:li rdf:parseType="Resource">
                  <stEvt:action>saved</stEvt:action>
                  <stEvt:instanceID>xmp.iid:f3e579b5-ad65-2a4a-9be0-cfc71290d97a</stEvt:instanceID>
                  <stEvt:when>2017-04-15T21:58:58-04:00</stEvt:when>
                  <stEvt:softwareAgent>Adobe Audition CC 2017.0 (Windows)</stEvt:softwareAgent>
                  <stEvt:changed>/metadata</stEvt:changed>
               </rdf:li>
               <rdf:li rdf:parseType="Resource">
                  <stEvt:action>saved</stEvt:action>
                  <stEvt:instanceID>xmp.iid:08b848e4-69ee-9f41-a4e4-3163717ada72</stEvt:instanceID>
                  <stEvt:when>2017-04-15T21:58:58-04:00</stEvt:when>
                  <stEvt:softwareAgent>Adobe Audition CC 2017.0 (Windows)</stEvt:softwareAgent>
                  <stEvt:changed>/</stEvt:changed>
               </rdf:li>
               <rdf:li rdf:parseType="Resource">
                  <stEvt:action>saved</stEvt:action>
                  <stEvt:instanceID>xmp.iid:3aa19b3a-7b74-c549-abea-aee4fe367cac</stEvt:instanceID>
                  <stEvt:when>2017-04-15T22:00:44-04:00</stEvt:when>
                  <stEvt:softwareAgent>Adobe Audition CC 2017.0 (Windows)</stEvt:softwareAgent>
                  <stEvt:changed>/metadata</stEvt:changed>
               </rdf:li>
               <rdf:li rdf:parseType="Resource">
                  <stEvt:action>saved</stEvt:action>
                  <stEvt:instanceID>xmp.iid:6c64eabf-495a-e84e-a5cd-619475795e21</stEvt:instanceID>
                  <stEvt:when>2017-04-15T22:00:44-04:00</stEvt:when>
                  <stEvt:softwareAgent>Adobe Audition CC 2017.0 (Windows)</stEvt:softwareAgent>
                  <stEvt:changed>/</stEvt:changed>
               </rdf:li>
               <rdf:li rdf:parseType="Resource">
                  <stEvt:action>saved</stEvt:action>
                  <stEvt:instanceID>xmp.iid:be7ccf79-72b4-e84e-9f2c-ced20ff4aba4</stEvt:instanceID>
                  <stEvt:when>2017-04-15T22:06:44-04:00</stEvt:when>
                  <stEvt:softwareAgent>Adobe Audition CC 2017.0 (Windows)</stEvt:softwareAgent>
                  <stEvt:changed>/metadata</stEvt:changed>
               </rdf:li>
               <rdf:li rdf:parseType="Resource">
                  <stEvt:action>saved</stEvt:action>
                  <stEvt:instanceID>xmp.iid:0d45ab32-1c8c-0b45-b1c9-874a7dc141d8</stEvt:instanceID>
                  <stEvt:when>2017-04-15T22:06:44-04:00</stEvt:when>
                  <stEvt:softwareAgent>Adobe Audition CC 2017.0 (Windows)</stEvt:softwareAgent>
                  <stEvt:changed>/</stEvt:changed>
               </rdf:li>
               <rdf:li rdf:parseType="Resource">
                  <stEvt:action>saved</stEvt:action>
                  <stEvt:instanceID>xmp.iid:5d8af6dd-75a7-e444-8158-132ac1d39ea3</stEvt:instanceID>
                  <stEvt:when>2017-04-15T22:09:44-04:00</stEvt:when>
                  <stEvt:softwareAgent>Adobe Audition CC 2017.0 (Windows)</stEvt:softwareAgent>
                  <stEvt:changed>/metadata</stEvt:changed>
               </rdf:li>
               <rdf:li rdf:parseType="Resource">
                  <stEvt:action>saved</stEvt:action>
                  <stEvt:instanceID>xmp.iid:bb06ced1-b8d9-9045-bd10-6b4f91a2ca59</stEvt:instanceID>
                  <stEvt:when>2017-04-15T22:09:44-04:00</stEvt:when>
                  <stEvt:softwareAgent>Adobe Audition CC 2017.0 (Windows)</stEvt:softwareAgent>
                  <stEvt:changed>/</stEvt:changed>
               </rdf:li>
               <rdf:li rdf:parseType="Resource">
                  <stEvt:action>saved</stEvt:action>
                  <stEvt:instanceID>xmp.iid:64479f8c-fbcf-7d47-87f1-948736a81efa</stEvt:instanceID>
                  <stEvt:when>2017-04-15T22:12:44-04:00</stEvt:when>
                  <stEvt:softwareAgent>Adobe Audition CC 2017.0 (Windows)</stEvt:softwareAgent>
                  <stEvt:changed>/metadata</stEvt:changed>
               </rdf:li>
               <rdf:li rdf:parseType="Resource">
                  <stEvt:action>saved</stEvt:action>
                  <stEvt:instanceID>xmp.iid:e9e91579-0eda-dc4c-bcae-be810ee3b907</stEvt:instanceID>
                  <stEvt:when>2017-04-15T22:12:44-04:00</stEvt:when>
                  <stEvt:softwareAgent>Adobe Audition CC 2017.0 (Windows)</stEvt:softwareAgent>
                  <stEvt:changed>/</stEvt:changed>
               </rdf:li>
               <rdf:li rdf:parseType="Resource">
                  <stEvt:action>saved</stEvt:action>
                  <stEvt:instanceID>xmp.iid:81d9e23b-e98a-4746-b376-3c5d32001f11</stEvt:instanceID>
                  <stEvt:when>2017-04-15T22:15:44-04:00</stEvt:when>
                  <stEvt:softwareAgent>Adobe Audition CC 2017.0 (Windows)</stEvt:softwareAgent>
                  <stEvt:changed>/metadata</stEvt:changed>
               </rdf:li>
               <rdf:li rdf:parseType="Resource">
                  <stEvt:action>saved</stEvt:action>
                  <stEvt:instanceID>xmp.iid:610da769-0b26-884c-a975-d8d5698c4501</stEvt:instanceID>
                  <stEvt:when>2017-04-15T22:15:44-04:00</stEvt:when>
                  <stEvt:softwareAgent>Adobe Audition CC 2017.0 (Windows)</stEvt:softwareAgent>
                  <stEvt:changed>/</stEvt:changed>
               </rdf:li>
               <rdf:li rdf:parseType="Resource">
                  <stEvt:action>saved</stEvt:action>
                  <stEvt:instanceID>xmp.iid:27f7257c-3ae9-a947-be73-36824e9c22e0</stEvt:instanceID>
                  <stEvt:when>2017-04-15T22:27:44-04:00</stEvt:when>
                  <stEvt:softwareAgent>Adobe Audition CC 2017.0 (Windows)</stEvt:softwareAgent>
                  <stEvt:changed>/metadata</stEvt:changed>
               </rdf:li>
               <rdf:li rdf:parseType="Resource">
                  <stEvt:action>saved</stEvt:action>
                  <stEvt:instanceID>xmp.iid:7786a468-addb-dc47-9e15-bf5bb4aa775a</stEvt:instanceID>
                  <stEvt:when>2017-04-15T22:27:44-04:00</stEvt:when>
                  <stEvt:softwareAgent>Adobe Audition CC 2017.0 (Windows)</stEvt:softwareAgent>
                  <stEvt:changed>/</stEvt:changed>
               </rdf:li>
               <rdf:li rdf:parseType="Resource">
                  <stEvt:action>saved</stEvt:action>
                  <stEvt:instanceID>xmp.iid:f095ac60-f691-6c4c-a423-0c636741090b</stEvt:instanceID>
                  <stEvt:when>2017-04-15T22:28:58-04:00</stEvt:when>
                  <stEvt:softwareAgent>Adobe Audition CC 2017.0 (Windows)</stEvt:softwareAgent>
                  <stEvt:changed>/metadata</stEvt:changed>
               </rdf:li>
               <rdf:li rdf:parseType="Resource">
                  <stEvt:action>saved</stEvt:action>
                  <stEvt:instanceID>xmp.iid:dfb5f8c2-d0cf-9842-a02a-be2fb72c249b</stEvt:instanceID>
                  <stEvt:when>2017-04-15T22:28:58-04:00</stEvt:when>
                  <stEvt:softwareAgent>Adobe Audition CC 2017.0 (Windows)</stEvt:softwareAgent>
                  <stEvt:changed>/</stEvt:changed>
               </rdf:li>
               <rdf:li rdf:parseType="Resource">
                  <stEvt:action>saved</stEvt:action>
                  <stEvt:instanceID>xmp.iid:957d834e-4a20-344c-a924-64a8018fef36</stEvt:instanceID>
                  <stEvt:when>2017-04-15T22:38:01-04:00</stEvt:when>
                  <stEvt:softwareAgent>Adobe Audition CC 2017.0 (Windows)</stEvt:softwareAgent>
                  <stEvt:changed>/metadata</stEvt:changed>
               </rdf:li>
               <rdf:li rdf:parseType="Resource">
                  <stEvt:action>saved</stEvt:action>
                  <stEvt:instanceID>xmp.iid:a0ca3e16-17d1-d943-b75e-524a4f1e14dc</stEvt:instanceID>
                  <stEvt:when>2017-04-15T22:38:01-04:00</stEvt:when>
                  <stEvt:softwareAgent>Adobe Audition CC 2017.0 (Windows)</stEvt:softwareAgent>
                  <stEvt:changed>/</stEvt:changed>
               </rdf:li>
               <rdf:li rdf:parseType="Resource">
                  <stEvt:action>saved</stEvt:action>
                  <stEvt:instanceID>xmp.iid:9bd31cba-e69c-3845-89fc-907f894022cf</stEvt:instanceID>
                  <stEvt:when>2017-04-15T22:38:58-04:00</stEvt:when>
                  <stEvt:softwareAgent>Adobe Audition CC 2017.0 (Windows)</stEvt:softwareAgent>
                  <stEvt:changed>/metadata</stEvt:changed>
               </rdf:li>
               <rdf:li rdf:parseType="Resource">
                  <stEvt:action>saved</stEvt:action>
                  <stEvt:instanceID>xmp.iid:9ddf71c2-b2bd-cd4a-82ab-838c5757005f</stEvt:instanceID>
                  <stEvt:when>2017-04-15T22:38:58-04:00</stEvt:when>
                  <stEvt:softwareAgent>Adobe Audition CC 2017.0 (Windows)</stEvt:softwareAgent>
                  <stEvt:changed>/</stEvt:changed>
               </rdf:li>
               <rdf:li rdf:parseType="Resource">
                  <stEvt:action>saved</stEvt:action>
                  <stEvt:instanceID>xmp.iid:63b99fac-d937-e640-8a9c-db8371cbeb69</stEvt:instanceID>
                  <stEvt:when>2017-04-15T22:41:01-04:00</stEvt:when>
                  <stEvt:softwareAgent>Adobe Audition CC 2017.0 (Windows)</stEvt:softwareAgent>
                  <stEvt:changed>/metadata</stEvt:changed>
               </rdf:li>
               <rdf:li rdf:parseType="Resource">
                  <stEvt:action>saved</stEvt:action>
                  <stEvt:instanceID>xmp.iid:58e945d8-ab29-7244-9bff-77f46848b259</stEvt:instanceID>
                  <stEvt:when>2017-04-15T22:41:01-04:00</stEvt:when>
                  <stEvt:softwareAgent>Adobe Audition CC 2017.0 (Windows)</stEvt:softwareAgent>
                  <stEvt:changed>/</stEvt:changed>
               </rdf:li>
               <rdf:li rdf:parseType="Resource">
                  <stEvt:action>saved</stEvt:action>
                  <stEvt:instanceID>xmp.iid:fa276070-c841-bb42-a6f3-ebd996e87f93</stEvt:instanceID>
                  <stEvt:when>2017-04-15T22:44:01-04:00</stEvt:when>
                  <stEvt:softwareAgent>Adobe Audition CC 2017.0 (Windows)</stEvt:softwareAgent>
                  <stEvt:changed>/metadata</stEvt:changed>
               </rdf:li>
               <rdf:li rdf:parseType="Resource">
                  <stEvt:action>saved</stEvt:action>
                  <stEvt:instanceID>xmp.iid:0d1195db-c71f-8948-b25e-854fcfaed66a</stEvt:instanceID>
                  <stEvt:when>2017-04-15T22:44:01-04:00</stEvt:when>
                  <stEvt:softwareAgent>Adobe Audition CC 2017.0 (Windows)</stEvt:softwareAgent>
                  <stEvt:changed>/</stEvt:changed>
               </rdf:li>
               <rdf:li rdf:parseType="Resource">
                  <stEvt:action>saved</stEvt:action>
                  <stEvt:instanceID>xmp.iid:6a7d11e2-299c-d641-b3c8-c722d9af710b</stEvt:instanceID>
                  <stEvt:when>2017-04-15T22:47:02-04:00</stEvt:when>
                  <stEvt:softwareAgent>Adobe Audition CC 2017.0 (Windows)</stEvt:softwareAgent>
                  <stEvt:changed>/metadata</stEvt:changed>
               </rdf:li>
               <rdf:li rdf:parseType="Resource">
                  <stEvt:action>saved</stEvt:action>
                  <stEvt:instanceID>xmp.iid:2d7b380c-0aa5-b843-8bef-1bcae6f80958</stEvt:instanceID>
                  <stEvt:when>2017-04-15T22:47:02-04:00</stEvt:when>
                  <stEvt:softwareAgent>Adobe Audition CC 2017.0 (Windows)</stEvt:softwareAgent>
                  <stEvt:changed>/</stEvt:changed>
               </rdf:li>
               <rdf:li rdf:parseType="Resource">
                  <stEvt:action>saved</stEvt:action>
                  <stEvt:instanceID>xmp.iid:1958337a-7fc3-6c48-bad2-bcd6b0744902</stEvt:instanceID>
                  <stEvt:when>2017-04-15T22:50:02-04:00</stEvt:when>
                  <stEvt:softwareAgent>Adobe Audition CC 2017.0 (Windows)</stEvt:softwareAgent>
                  <stEvt:changed>/metadata</stEvt:changed>
               </rdf:li>
               <rdf:li rdf:parseType="Resource">
                  <stEvt:action>saved</stEvt:action>
                  <stEvt:instanceID>xmp.iid:9ecedd3c-0acb-0347-871a-4b408837adcc</stEvt:instanceID>
                  <stEvt:when>2017-04-15T22:50:02-04:00</stEvt:when>
                  <stEvt:softwareAgent>Adobe Audition CC 2017.0 (Windows)</stEvt:softwareAgent>
                  <stEvt:changed>/</stEvt:changed>
               </rdf:li>
               <rdf:li rdf:parseType="Resource">
                  <stEvt:action>saved</stEvt:action>
                  <stEvt:instanceID>xmp.iid:d0746fc4-68cd-1e4d-9925-b3a422c556b5</stEvt:instanceID>
                  <stEvt:when>2017-04-15T22:53:02-04:00</stEvt:when>
                  <stEvt:softwareAgent>Adobe Audition CC 2017.0 (Windows)</stEvt:softwareAgent>
                  <stEvt:changed>/metadata</stEvt:changed>
               </rdf:li>
               <rdf:li rdf:parseType="Resource">
                  <stEvt:action>saved</stEvt:action>
                  <stEvt:instanceID>xmp.iid:87e91ca0-ab7b-fd4f-95ec-23bed0e235da</stEvt:instanceID>
                  <stEvt:when>2017-04-15T22:53:02-04:00</stEvt:when>
                  <stEvt:softwareAgent>Adobe Audition CC 2017.0 (Windows)</stEvt:softwareAgent>
                  <stEvt:changed>/</stEvt:changed>
               </rdf:li>
               <rdf:li rdf:parseType="Resource">
                  <stEvt:action>saved</stEvt:action>
                  <stEvt:instanceID>xmp.iid:c8dd532a-8d97-304e-8a36-33ee092fb53e</stEvt:instanceID>
                  <stEvt:when>2017-04-15T22:58:58-04:00</stEvt:when>
                  <stEvt:softwareAgent>Adobe Audition CC 2017.0 (Windows)</stEvt:softwareAgent>
                  <stEvt:changed>/metadata</stEvt:changed>
               </rdf:li>
               <rdf:li rdf:parseType="Resource">
                  <stEvt:action>saved</stEvt:action>
                  <stEvt:instanceID>xmp.iid:52e5d38a-a524-c646-9b44-0831b56c7ae6</stEvt:instanceID>
                  <stEvt:when>2017-04-15T22:58:58-04:00</stEvt:when>
                  <stEvt:softwareAgent>Adobe Audition CC 2017.0 (Windows)</stEvt:softwareAgent>
                  <stEvt:changed>/</stEvt:changed>
               </rdf:li>
               <rdf:li rdf:parseType="Resource">
                  <stEvt:action>saved</stEvt:action>
                  <stEvt:instanceID>xmp.iid:5255a83a-f7e2-7e47-a825-bc4b868cff00</stEvt:instanceID>
                  <stEvt:when>2017-04-15T23:05:43-04:00</stEvt:when>
                  <stEvt:softwareAgent>Adobe Audition CC 2017.0 (Windows)</stEvt:softwareAgent>
                  <stEvt:changed>/metadata</stEvt:changed>
               </rdf:li>
               <rdf:li rdf:parseType="Resource">
                  <stEvt:action>saved</stEvt:action>
                  <stEvt:instanceID>xmp.iid:bdf1042b-9ff2-5140-a1e6-d742cf41df45</stEvt:instanceID>
                  <stEvt:when>2017-04-15T23:05:43-04:00</stEvt:when>
                  <stEvt:softwareAgent>Adobe Audition CC 2017.0 (Windows)</stEvt:softwareAgent>
                  <stEvt:changed>/</stEvt:changed>
               </rdf:li>
               <rdf:li rdf:parseType="Resource">
                  <stEvt:action>saved</stEvt:action>
                  <stEvt:instanceID>xmp.iid:e5fd68d4-3a9c-e940-96a4-8357b93740c5</stEvt:instanceID>
                  <stEvt:when>2017-04-15T23:08:58-04:00</stEvt:when>
                  <stEvt:softwareAgent>Adobe Audition CC 2017.0 (Windows)</stEvt:softwareAgent>
                  <stEvt:changed>/metadata</stEvt:changed>
               </rdf:li>
               <rdf:li rdf:parseType="Resource">
                  <stEvt:action>saved</stEvt:action>
                  <stEvt:instanceID>xmp.iid:eabd8821-a15d-3f46-af60-7870f08dd7ad</stEvt:instanceID>
                  <stEvt:when>2017-04-15T23:08:58-04:00</stEvt:when>
                  <stEvt:softwareAgent>Adobe Audition CC 2017.0 (Windows)</stEvt:softwareAgent>
                  <stEvt:changed>/</stEvt:changed>
               </rdf:li>
               <rdf:li rdf:parseType="Resource">
                  <stEvt:action>saved</stEvt:action>
                  <stEvt:instanceID>xmp.iid:d7114d9a-0442-0440-8432-e0fae65f5787</stEvt:instanceID>
                  <stEvt:when>2017-04-15T23:11:43-04:00</stEvt:when>
                  <stEvt:softwareAgent>Adobe Audition CC 2017.0 (Windows)</stEvt:softwareAgent>
                  <stEvt:changed>/metadata</stEvt:changed>
               </rdf:li>
               <rdf:li rdf:parseType="Resource">
                  <stEvt:action>saved</stEvt:action>
                  <stEvt:instanceID>xmp.iid:5f1aa71f-ce2b-e046-8f4d-aa032d6f0276</stEvt:instanceID>
                  <stEvt:when>2017-04-15T23:11:43-04:00</stEvt:when>
                  <stEvt:softwareAgent>Adobe Audition CC 2017.0 (Windows)</stEvt:softwareAgent>
                  <stEvt:changed>/</stEvt:changed>
               </rdf:li>
               <rdf:li rdf:parseType="Resource">
                  <stEvt:action>saved</stEvt:action>
                  <stEvt:instanceID>xmp.iid:8c72fced-bfc0-c544-b6ff-06868092323b</stEvt:instanceID>
                  <stEvt:when>2017-04-15T23:14:44-04:00</stEvt:when>
                  <stEvt:softwareAgent>Adobe Audition CC 2017.0 (Windows)</stEvt:softwareAgent>
                  <stEvt:changed>/metadata</stEvt:changed>
               </rdf:li>
               <rdf:li rdf:parseType="Resource">
                  <stEvt:action>saved</stEvt:action>
                  <stEvt:instanceID>xmp.iid:e183cfc6-7ae1-264d-b69c-1cac5a2e6e03</stEvt:instanceID>
                  <stEvt:when>2017-04-15T23:14:44-04:00</stEvt:when>
                  <stEvt:softwareAgent>Adobe Audition CC 2017.0 (Windows)</stEvt:softwareAgent>
                  <stEvt:changed>/</stEvt:changed>
               </rdf:li>
               <rdf:li rdf:parseType="Resource">
                  <stEvt:action>saved</stEvt:action>
                  <stEvt:instanceID>xmp.iid:2f123c76-e45d-fd44-a8f7-0a00ece5ec7b</stEvt:instanceID>
                  <stEvt:when>2017-04-15T23:18:59-04:00</stEvt:when>
                  <stEvt:softwareAgent>Adobe Audition CC 2017.0 (Windows)</stEvt:softwareAgent>
                  <stEvt:changed>/metadata</stEvt:changed>
               </rdf:li>
               <rdf:li rdf:parseType="Resource">
                  <stEvt:action>saved</stEvt:action>
                  <stEvt:instanceID>xmp.iid:9c0ab03d-ce86-3f47-98bb-07c8ec47cd38</stEvt:instanceID>
                  <stEvt:when>2017-04-15T23:18:59-04:00</stEvt:when>
                  <stEvt:softwareAgent>Adobe Audition CC 2017.0 (Windows)</stEvt:softwareAgent>
                  <stEvt:changed>/</stEvt:changed>
               </rdf:li>
               <rdf:li rdf:parseType="Resource">
                  <stEvt:action>saved</stEvt:action>
                  <stEvt:instanceID>xmp.iid:22361ef5-707f-b44c-8b40-add0eadfa03b</stEvt:instanceID>
                  <stEvt:when>2017-04-15T23:19:51-04:00</stEvt:when>
                  <stEvt:softwareAgent>Adobe Audition CC 2017.0 (Windows)</stEvt:softwareAgent>
                  <stEvt:changed>/metadata</stEvt:changed>
               </rdf:li>
               <rdf:li rdf:parseType="Resource">
                  <stEvt:action>saved</stEvt:action>
                  <stEvt:instanceID>xmp.iid:eeb5884e-8227-d743-8092-a9f93b1f10e5</stEvt:instanceID>
                  <stEvt:when>2017-04-15T23:19:51-04:00</stEvt:when>
                  <stEvt:softwareAgent>Adobe Audition CC 2017.0 (Windows)</stEvt:softwareAgent>
                  <stEvt:changed>/</stEvt:changed>
               </rdf:li>
               <rdf:li rdf:parseType="Resource">
                  <stEvt:action>saved</stEvt:action>
                  <stEvt:instanceID>xmp.iid:bc42d6a6-1280-5149-88dc-58e6d5513c81</stEvt:instanceID>
                  <stEvt:when>2017-04-15T23:24:30-04:00</stEvt:when>
                  <stEvt:softwareAgent>Adobe Audition CC 2017.0 (Windows)</stEvt:softwareAgent>
                  <stEvt:changed>/metadata</stEvt:changed>
               </rdf:li>
               <rdf:li rdf:parseType="Resource">
                  <stEvt:action>saved</stEvt:action>
                  <stEvt:instanceID>xmp.iid:a4c09f13-8b61-3b4e-8b90-c64be7fff385</stEvt:instanceID>
                  <stEvt:when>2017-04-15T23:24:30-04:00</stEvt:when>
                  <stEvt:softwareAgent>Adobe Audition CC 2017.0 (Windows)</stEvt:softwareAgent>
                  <stEvt:changed>/</stEvt:changed>
               </rdf:li>
               <rdf:li rdf:parseType="Resource">
                  <stEvt:action>saved</stEvt:action>
                  <stEvt:instanceID>xmp.iid:4efcb2aa-7b41-1c4f-b0f0-4d66b3f3bb89</stEvt:instanceID>
                  <stEvt:when>2017-04-15T23:25:52-04:00</stEvt:when>
                  <stEvt:softwareAgent>Adobe Audition CC 2017.0 (Windows)</stEvt:softwareAgent>
                  <stEvt:changed>/metadata</stEvt:changed>
               </rdf:li>
               <rdf:li rdf:parseType="Resource">
                  <stEvt:action>saved</stEvt:action>
                  <stEvt:instanceID>xmp.iid:88d0f9ae-74ae-154d-afa4-33167ccd076a</stEvt:instanceID>
                  <stEvt:when>2017-04-15T23:25:52-04:00</stEvt:when>
                  <stEvt:softwareAgent>Adobe Audition CC 2017.0 (Windows)</stEvt:softwareAgent>
                  <stEvt:changed>/</stEvt:changed>
               </rdf:li>
               <rdf:li rdf:parseType="Resource">
                  <stEvt:action>saved</stEvt:action>
                  <stEvt:instanceID>xmp.iid:b46932f1-3d9f-2a41-8373-7199ef9e28ba</stEvt:instanceID>
                  <stEvt:when>2017-04-16T00:01:17-04:00</stEvt:when>
                  <stEvt:softwareAgent>Adobe Audition CC 2017.0 (Windows)</stEvt:softwareAgent>
                  <stEvt:changed>/metadata</stEvt:changed>
               </rdf:li>
               <rdf:li rdf:parseType="Resource">
                  <stEvt:action>saved</stEvt:action>
                  <stEvt:instanceID>xmp.iid:2b0c5db3-9193-1249-8463-c66c68b82e4b</stEvt:instanceID>
                  <stEvt:when>2017-04-16T00:01:17-04:00</stEvt:when>
                  <stEvt:softwareAgent>Adobe Audition CC 2017.0 (Windows)</stEvt:softwareAgent>
                  <stEvt:changed>/</stEvt:changed>
               </rdf:li>
               <rdf:li rdf:parseType="Resource">
                  <stEvt:action>saved</stEvt:action>
                  <stEvt:instanceID>xmp.iid:b8c55e04-f06f-7446-a27c-67762a47f469</stEvt:instanceID>
                  <stEvt:when>2017-04-16T00:04:17-04:00</stEvt:when>
                  <stEvt:softwareAgent>Adobe Audition CC 2017.0 (Windows)</stEvt:softwareAgent>
                  <stEvt:changed>/metadata</stEvt:changed>
               </rdf:li>
               <rdf:li rdf:parseType="Resource">
                  <stEvt:action>saved</stEvt:action>
                  <stEvt:instanceID>xmp.iid:efe8fbca-d7f0-754b-bfab-253a1db9cadd</stEvt:instanceID>
                  <stEvt:when>2017-04-16T00:04:17-04:00</stEvt:when>
                  <stEvt:softwareAgent>Adobe Audition CC 2017.0 (Windows)</stEvt:softwareAgent>
                  <stEvt:changed>/</stEvt:changed>
               </rdf:li>
               <rdf:li rdf:parseType="Resource">
                  <stEvt:action>saved</stEvt:action>
                  <stEvt:instanceID>xmp.iid:7c8fa1a2-5c33-db4e-9146-285e760da21f</stEvt:instanceID>
                  <stEvt:when>2017-04-16T00:16:17-04:00</stEvt:when>
                  <stEvt:softwareAgent>Adobe Audition CC 2017.0 (Windows)</stEvt:softwareAgent>
                  <stEvt:changed>/metadata</stEvt:changed>
               </rdf:li>
               <rdf:li rdf:parseType="Resource">
                  <stEvt:action>saved</stEvt:action>
                  <stEvt:instanceID>xmp.iid:1886769b-9cc7-594c-8414-bdec92ce1782</stEvt:instanceID>
                  <stEvt:when>2017-04-16T00:16:17-04:00</stEvt:when>
                  <stEvt:softwareAgent>Adobe Audition CC 2017.0 (Windows)</stEvt:softwareAgent>
                  <stEvt:changed>/</stEvt:changed>
               </rdf:li>
               <rdf:li rdf:parseType="Resource">
                  <stEvt:action>saved</stEvt:action>
                  <stEvt:instanceID>xmp.iid:f3626dfa-3cff-ad40-9498-a4510015c651</stEvt:instanceID>
                  <stEvt:when>2017-04-16T00:18:59-04:00</stEvt:when>
                  <stEvt:softwareAgent>Adobe Audition CC 2017.0 (Windows)</stEvt:softwareAgent>
                  <stEvt:changed>/metadata</stEvt:changed>
               </rdf:li>
               <rdf:li rdf:parseType="Resource">
                  <stEvt:action>saved</stEvt:action>
                  <stEvt:instanceID>xmp.iid:f3a87351-f02a-b140-8566-45b89391dc45</stEvt:instanceID>
                  <stEvt:when>2017-04-16T00:18:59-04:00</stEvt:when>
                  <stEvt:softwareAgent>Adobe Audition CC 2017.0 (Windows)</stEvt:softwareAgent>
                  <stEvt:changed>/</stEvt:changed>
               </rdf:li>
               <rdf:li rdf:parseType="Resource">
                  <stEvt:action>saved</stEvt:action>
                  <stEvt:instanceID>xmp.iid:cd5a90f3-c878-b74d-a576-9adf47aabd73</stEvt:instanceID>
                  <stEvt:when>2017-04-16T00:21:58-04:00</stEvt:when>
                  <stEvt:softwareAgent>Adobe Audition CC 2017.0 (Windows)</stEvt:softwareAgent>
                  <stEvt:changed>/metadata</stEvt:changed>
               </rdf:li>
               <rdf:li rdf:parseType="Resource">
                  <stEvt:action>saved</stEvt:action>
                  <stEvt:instanceID>xmp.iid:e10acf56-4446-8f49-9aca-45ec2ad6cecd</stEvt:instanceID>
                  <stEvt:when>2017-04-16T00:21:58-04:00</stEvt:when>
                  <stEvt:softwareAgent>Adobe Audition CC 2017.0 (Windows)</stEvt:softwareAgent>
                  <stEvt:changed>/</stEvt:changed>
               </rdf:li>
               <rdf:li rdf:parseType="Resource">
                  <stEvt:action>saved</stEvt:action>
                  <stEvt:instanceID>xmp.iid:da8708cf-923e-c043-9f45-59072e6be345</stEvt:instanceID>
                  <stEvt:when>2017-04-16T00:28:17-04:00</stEvt:when>
                  <stEvt:softwareAgent>Adobe Audition CC 2017.0 (Windows)</stEvt:softwareAgent>
                  <stEvt:changed>/metadata</stEvt:changed>
               </rdf:li>
               <rdf:li rdf:parseType="Resource">
                  <stEvt:action>saved</stEvt:action>
                  <stEvt:instanceID>xmp.iid:95ba972c-8112-9c45-b822-9d5699cfc4d0</stEvt:instanceID>
                  <stEvt:when>2017-04-16T00:28:17-04:00</stEvt:when>
                  <stEvt:softwareAgent>Adobe Audition CC 2017.0 (Windows)</stEvt:softwareAgent>
                  <stEvt:changed>/</stEvt:changed>
               </rdf:li>
               <rdf:li rdf:parseType="Resource">
                  <stEvt:action>saved</stEvt:action>
                  <stEvt:instanceID>xmp.iid:5bd38d81-aa4c-1e47-96ab-be1571d5494a</stEvt:instanceID>
                  <stEvt:when>2017-04-16T00:28:30-04:00</stEvt:when>
                  <stEvt:softwareAgent>Adobe Audition CC 2017.0 (Windows)</stEvt:softwareAgent>
                  <stEvt:changed>/metadata</stEvt:changed>
               </rdf:li>
               <rdf:li rdf:parseType="Resource">
                  <stEvt:action>saved</stEvt:action>
                  <stEvt:instanceID>xmp.iid:1c664eb0-74d5-5741-ba4c-b0b46032da22</stEvt:instanceID>
                  <stEvt:when>2017-04-16T00:28:30-04:00</stEvt:when>
                  <stEvt:softwareAgent>Adobe Audition CC 2017.0 (Windows)</stEvt:softwareAgent>
                  <stEvt:changed>/</stEvt:changed>
               </rdf:li>
               <rdf:li rdf:parseType="Resource">
                  <stEvt:action>saved</stEvt:action>
                  <stEvt:instanceID>xmp.iid:6f0d3868-4611-7b4e-9181-49741cbfb636</stEvt:instanceID>
                  <stEvt:when>2017-04-16T00:31:17-04:00</stEvt:when>
                  <stEvt:softwareAgent>Adobe Audition CC 2017.0 (Windows)</stEvt:softwareAgent>
                  <stEvt:changed>/metadata</stEvt:changed>
               </rdf:li>
               <rdf:li rdf:parseType="Resource">
                  <stEvt:action>saved</stEvt:action>
                  <stEvt:instanceID>xmp.iid:1207addc-fa1c-7143-a9ae-ff417e26f07d</stEvt:instanceID>
                  <stEvt:when>2017-04-16T00:31:17-04:00</stEvt:when>
                  <stEvt:softwareAgent>Adobe Audition CC 2017.0 (Windows)</stEvt:softwareAgent>
                  <stEvt:changed>/</stEvt:changed>
               </rdf:li>
               <rdf:li rdf:parseType="Resource">
                  <stEvt:action>saved</stEvt:action>
                  <stEvt:instanceID>xmp.iid:b61cda4c-70d2-9548-bf3d-382a1107310e</stEvt:instanceID>
                  <stEvt:when>2017-04-16T01:16:47-04:00</stEvt:when>
                  <stEvt:softwareAgent>Adobe Audition CC 2017.0 (Windows)</stEvt:softwareAgent>
                  <stEvt:changed>/metadata</stEvt:changed>
               </rdf:li>
               <rdf:li rdf:parseType="Resource">
                  <stEvt:action>saved</stEvt:action>
                  <stEvt:instanceID>xmp.iid:2efa40d9-25a0-474b-a041-b551ea2d42b6</stEvt:instanceID>
                  <stEvt:when>2017-04-16T01:16:47-04:00</stEvt:when>
                  <stEvt:softwareAgent>Adobe Audition CC 2017.0 (Windows)</stEvt:softwareAgent>
                  <stEvt:changed>/</stEvt:changed>
               </rdf:li>
               <rdf:li rdf:parseType="Resource">
                  <stEvt:action>saved</stEvt:action>
                  <stEvt:instanceID>xmp.iid:fb31b7f3-18a8-3144-ba93-8af622482555</stEvt:instanceID>
                  <stEvt:when>2017-04-16T01:25:47-04:00</stEvt:when>
                  <stEvt:softwareAgent>Adobe Audition CC 2017.0 (Windows)</stEvt:softwareAgent>
                  <stEvt:changed>/metadata</stEvt:changed>
               </rdf:li>
               <rdf:li rdf:parseType="Resource">
                  <stEvt:action>saved</stEvt:action>
                  <stEvt:instanceID>xmp.iid:40471e31-6331-cf46-8297-5375cb9d93c3</stEvt:instanceID>
                  <stEvt:when>2017-04-16T01:25:47-04:00</stEvt:when>
                  <stEvt:softwareAgent>Adobe Audition CC 2017.0 (Windows)</stEvt:softwareAgent>
                  <stEvt:changed>/</stEvt:changed>
               </rdf:li>
               <rdf:li rdf:parseType="Resource">
                  <stEvt:action>saved</stEvt:action>
                  <stEvt:instanceID>xmp.iid:9341dfbe-3630-1c45-830b-9e3b8ff6774a</stEvt:instanceID>
                  <stEvt:when>2017-04-16T01:28:59-04:00</stEvt:when>
                  <stEvt:softwareAgent>Adobe Audition CC 2017.0 (Windows)</stEvt:softwareAgent>
                  <stEvt:changed>/metadata</stEvt:changed>
               </rdf:li>
               <rdf:li rdf:parseType="Resource">
                  <stEvt:action>saved</stEvt:action>
                  <stEvt:instanceID>xmp.iid:006d93b0-46d3-3547-b7f7-2bf7fa67a01d</stEvt:instanceID>
                  <stEvt:when>2017-04-16T01:28:59-04:00</stEvt:when>
                  <stEvt:softwareAgent>Adobe Audition CC 2017.0 (Windows)</stEvt:softwareAgent>
                  <stEvt:changed>/</stEvt:changed>
               </rdf:li>
               <rdf:li rdf:parseType="Resource">
                  <stEvt:action>saved</stEvt:action>
                  <stEvt:instanceID>xmp.iid:8cf909d6-6890-7441-88e1-a94d011e5750</stEvt:instanceID>
                  <stEvt:when>2017-04-16T01:30:31-04:00</stEvt:when>
                  <stEvt:softwareAgent>Adobe Audition CC 2017.0 (Windows)</stEvt:softwareAgent>
                  <stEvt:changed>/metadata</stEvt:changed>
               </rdf:li>
               <rdf:li rdf:parseType="Resource">
                  <stEvt:action>saved</stEvt:action>
                  <stEvt:instanceID>xmp.iid:6af82c72-aeda-0946-a7f0-04d89b0596be</stEvt:instanceID>
                  <stEvt:when>2017-04-16T01:30:31-04:00</stEvt:when>
                  <stEvt:softwareAgent>Adobe Audition CC 2017.0 (Windows)</stEvt:softwareAgent>
                  <stEvt:changed>/</stEvt:changed>
               </rdf:li>
               <rdf:li rdf:parseType="Resource">
                  <stEvt:action>saved</stEvt:action>
                  <stEvt:instanceID>xmp.iid:f3ae89d2-3693-3046-9b7b-190da7401db0</stEvt:instanceID>
                  <stEvt:when>2017-04-16T01:42:32-04:00</stEvt:when>
                  <stEvt:softwareAgent>Adobe Audition CC 2017.0 (Windows)</stEvt:softwareAgent>
                  <stEvt:changed>/metadata</stEvt:changed>
               </rdf:li>
               <rdf:li rdf:parseType="Resource">
                  <stEvt:action>saved</stEvt:action>
                  <stEvt:instanceID>xmp.iid:ace66ef1-3991-6946-80bb-b2b6948d2ff2</stEvt:instanceID>
                  <stEvt:when>2017-04-16T01:42:32-04:00</stEvt:when>
                  <stEvt:softwareAgent>Adobe Audition CC 2017.0 (Windows)</stEvt:softwareAgent>
                  <stEvt:changed>/</stEvt:changed>
               </rdf:li>
               <rdf:li rdf:parseType="Resource">
                  <stEvt:action>saved</stEvt:action>
                  <stEvt:instanceID>xmp.iid:34d76699-560d-b44e-931e-03e762762f90</stEvt:instanceID>
                  <stEvt:when>2017-04-16T01:45:32-04:00</stEvt:when>
                  <stEvt:softwareAgent>Adobe Audition CC 2017.0 (Windows)</stEvt:softwareAgent>
                  <stEvt:changed>/metadata</stEvt:changed>
               </rdf:li>
               <rdf:li rdf:parseType="Resource">
                  <stEvt:action>saved</stEvt:action>
                  <stEvt:instanceID>xmp.iid:9e513340-a8e3-9a4b-aa7f-8aec2eecdb24</stEvt:instanceID>
                  <stEvt:when>2017-04-16T01:45:32-04:00</stEvt:when>
                  <stEvt:softwareAgent>Adobe Audition CC 2017.0 (Windows)</stEvt:softwareAgent>
                  <stEvt:changed>/</stEvt:changed>
               </rdf:li>
               <rdf:li rdf:parseType="Resource">
                  <stEvt:action>saved</stEvt:action>
                  <stEvt:instanceID>xmp.iid:eed29536-553a-a740-8232-1987c9b974d8</stEvt:instanceID>
                  <stEvt:when>2017-04-16T01:48:59-04:00</stEvt:when>
                  <stEvt:softwareAgent>Adobe Audition CC 2017.0 (Windows)</stEvt:softwareAgent>
                  <stEvt:changed>/metadata</stEvt:changed>
               </rdf:li>
               <rdf:li rdf:parseType="Resource">
                  <stEvt:action>saved</stEvt:action>
                  <stEvt:instanceID>xmp.iid:4a135123-6f0c-4443-a8c0-e455e60d89b9</stEvt:instanceID>
                  <stEvt:when>2017-04-16T01:48:59-04:00</stEvt:when>
                  <stEvt:softwareAgent>Adobe Audition CC 2017.0 (Windows)</stEvt:softwareAgent>
                  <stEvt:changed>/</stEvt:changed>
               </rdf:li>
               <rdf:li rdf:parseType="Resource">
                  <stEvt:action>saved</stEvt:action>
                  <stEvt:instanceID>xmp.iid:86ac6069-e91d-0240-a6c8-8954507e8b7b</stEvt:instanceID>
                  <stEvt:when>2017-04-16T01:52:02-04:00</stEvt:when>
                  <stEvt:softwareAgent>Adobe Audition CC 2017.0 (Windows)</stEvt:softwareAgent>
                  <stEvt:changed>/metadata</stEvt:changed>
               </rdf:li>
               <rdf:li rdf:parseType="Resource">
                  <stEvt:action>saved</stEvt:action>
                  <stEvt:instanceID>xmp.iid:4a419982-3c62-524f-8eca-094dee7e5403</stEvt:instanceID>
                  <stEvt:when>2017-04-16T01:52:02-04:00</stEvt:when>
                  <stEvt:softwareAgent>Adobe Audition CC 2017.0 (Windows)</stEvt:softwareAgent>
                  <stEvt:changed>/</stEvt:changed>
               </rdf:li>
               <rdf:li rdf:parseType="Resource">
                  <stEvt:action>saved</stEvt:action>
                  <stEvt:instanceID>xmp.iid:3d30c46a-824a-ea46-b51c-1ec5e805b618</stEvt:instanceID>
                  <stEvt:when>2017-04-16T01:58:02-04:00</stEvt:when>
                  <stEvt:softwareAgent>Adobe Audition CC 2017.0 (Windows)</stEvt:softwareAgent>
                  <stEvt:changed>/metadata</stEvt:changed>
               </rdf:li>
               <rdf:li rdf:parseType="Resource">
                  <stEvt:action>saved</stEvt:action>
                  <stEvt:instanceID>xmp.iid:ddf0a178-280e-834f-b130-ff7c85257ef3</stEvt:instanceID>
                  <stEvt:when>2017-04-16T01:58:02-04:00</stEvt:when>
                  <stEvt:softwareAgent>Adobe Audition CC 2017.0 (Windows)</stEvt:softwareAgent>
                  <stEvt:changed>/</stEvt:changed>
               </rdf:li>
               <rdf:li rdf:parseType="Resource">
                  <stEvt:action>saved</stEvt:action>
                  <stEvt:instanceID>xmp.iid:b3fff419-510d-1145-85f5-b1f583243831</stEvt:instanceID>
                  <stEvt:when>2017-04-16T02:01:36-04:00</stEvt:when>
                  <stEvt:softwareAgent>Adobe Audition CC 2017.0 (Windows)</stEvt:softwareAgent>
                  <stEvt:changed>/metadata</stEvt:changed>
               </rdf:li>
               <rdf:li rdf:parseType="Resource">
                  <stEvt:action>saved</stEvt:action>
                  <stEvt:instanceID>xmp.iid:08c7fa84-22d3-4c44-8906-d35ad95db2d4</stEvt:instanceID>
                  <stEvt:when>2017-04-16T02:01:36-04:00</stEvt:when>
                  <stEvt:softwareAgent>Adobe Audition CC 2017.0 (Windows)</stEvt:softwareAgent>
                  <stEvt:changed>/</stEvt:changed>
               </rdf:li>
               <rdf:li rdf:parseType="Resource">
                  <stEvt:action>saved</stEvt:action>
                  <stEvt:instanceID>xmp.iid:8a019a5f-96d3-2547-af19-b5013c7f74d0</stEvt:instanceID>
                  <stEvt:when>2017-04-16T02:04:02-04:00</stEvt:when>
                  <stEvt:softwareAgent>Adobe Audition CC 2017.0 (Windows)</stEvt:softwareAgent>
                  <stEvt:changed>/metadata</stEvt:changed>
               </rdf:li>
               <rdf:li rdf:parseType="Resource">
                  <stEvt:action>saved</stEvt:action>
                  <stEvt:instanceID>xmp.iid:2361856e-4520-7f42-ba4f-12b3a2c660e8</stEvt:instanceID>
                  <stEvt:when>2017-04-16T02:04:02-04:00</stEvt:when>
                  <stEvt:softwareAgent>Adobe Audition CC 2017.0 (Windows)</stEvt:softwareAgent>
                  <stEvt:changed>/</stEvt:changed>
               </rdf:li>
               <rdf:li rdf:parseType="Resource">
                  <stEvt:action>saved</stEvt:action>
                  <stEvt:instanceID>xmp.iid:3954d4fe-a4bc-2042-bceb-ea6ee7ec8ec9</stEvt:instanceID>
                  <stEvt:when>2017-04-16T02:04:11-04:00</stEvt:when>
                  <stEvt:softwareAgent>Adobe Audition CC 2017.0 (Windows)</stEvt:softwareAgent>
                  <stEvt:changed>/metadata</stEvt:changed>
               </rdf:li>
               <rdf:li rdf:parseType="Resource">
                  <stEvt:action>saved</stEvt:action>
                  <stEvt:instanceID>xmp.iid:1d531d00-f8cc-ef44-8a88-c07c4756bf63</stEvt:instanceID>
                  <stEvt:when>2017-04-16T02:04:11-04:00</stEvt:when>
                  <stEvt:softwareAgent>Adobe Audition CC 2017.0 (Windows)</stEvt:softwareAgent>
                  <stEvt:changed>/</stEvt:changed>
               </rdf:li>
               <rdf:li rdf:parseType="Resource">
                  <stEvt:action>saved</stEvt:action>
                  <stEvt:instanceID>xmp.iid:c5abf874-ab40-804c-811c-59fa09fb1fec</stEvt:instanceID>
                  <stEvt:when>2017-04-16T02:07:02-04:00</stEvt:when>
                  <stEvt:softwareAgent>Adobe Audition CC 2017.0 (Windows)</stEvt:softwareAgent>
                  <stEvt:changed>/metadata</stEvt:changed>
               </rdf:li>
               <rdf:li rdf:parseType="Resource">
                  <stEvt:action>saved</stEvt:action>
                  <stEvt:instanceID>xmp.iid:3fad976f-2e97-1140-90b3-19816b82e79b</stEvt:instanceID>
                  <stEvt:when>2017-04-16T02:07:02-04:00</stEvt:when>
                  <stEvt:softwareAgent>Adobe Audition CC 2017.0 (Windows)</stEvt:softwareAgent>
                  <stEvt:changed>/</stEvt:changed>
               </rdf:li>
               <rdf:li rdf:parseType="Resource">
                  <stEvt:action>saved</stEvt:action>
                  <stEvt:instanceID>xmp.iid:b652ef0c-c4c0-5245-9681-d6fa67e43a7b</stEvt:instanceID>
                  <stEvt:when>2017-04-16T02:11:52-04:00</stEvt:when>
                  <stEvt:softwareAgent>Adobe Audition CC 2017.0 (Windows)</stEvt:softwareAgent>
                  <stEvt:changed>/metadata</stEvt:changed>
               </rdf:li>
               <rdf:li rdf:parseType="Resource">
                  <stEvt:action>saved</stEvt:action>
                  <stEvt:instanceID>xmp.iid:80288e25-1d63-e946-b3d1-c5b6d14f2b83</stEvt:instanceID>
                  <stEvt:when>2017-04-16T02:11:52-04:00</stEvt:when>
                  <stEvt:softwareAgent>Adobe Audition CC 2017.0 (Windows)</stEvt:softwareAgent>
                  <stEvt:changed>/</stEvt:changed>
               </rdf:li>
               <rdf:li rdf:parseType="Resource">
                  <stEvt:action>saved</stEvt:action>
                  <stEvt:instanceID>xmp.iid:74f2a780-9cc2-9e46-a5e8-8194a9581ea7</stEvt:instanceID>
                  <stEvt:when>2017-04-16T02:14:52-04:00</stEvt:when>
                  <stEvt:softwareAgent>Adobe Audition CC 2017.0 (Windows)</stEvt:softwareAgent>
                  <stEvt:changed>/metadata</stEvt:changed>
               </rdf:li>
               <rdf:li rdf:parseType="Resource">
                  <stEvt:action>saved</stEvt:action>
                  <stEvt:instanceID>xmp.iid:5c371a1f-afc8-104f-b689-dd576a2d7524</stEvt:instanceID>
                  <stEvt:when>2017-04-16T02:14:52-04:00</stEvt:when>
                  <stEvt:softwareAgent>Adobe Audition CC 2017.0 (Windows)</stEvt:softwareAgent>
                  <stEvt:changed>/</stEvt:changed>
               </rdf:li>
               <rdf:li rdf:parseType="Resource">
                  <stEvt:action>saved</stEvt:action>
                  <stEvt:instanceID>xmp.iid:e66244d2-cdeb-7f40-a5b2-9ed5000a2e40</stEvt:instanceID>
                  <stEvt:when>2017-04-16T02:23:52-04:00</stEvt:when>
                  <stEvt:softwareAgent>Adobe Audition CC 2017.0 (Windows)</stEvt:softwareAgent>
                  <stEvt:changed>/metadata</stEvt:changed>
               </rdf:li>
               <rdf:li rdf:parseType="Resource">
                  <stEvt:action>saved</stEvt:action>
                  <stEvt:instanceID>xmp.iid:af5ec9ff-c730-9f49-aae4-f966cc7ada85</stEvt:instanceID>
                  <stEvt:when>2017-04-16T02:23:52-04:00</stEvt:when>
                  <stEvt:softwareAgent>Adobe Audition CC 2017.0 (Windows)</stEvt:softwareAgent>
                  <stEvt:changed>/</stEvt:changed>
               </rdf:li>
               <rdf:li rdf:parseType="Resource">
                  <stEvt:action>saved</stEvt:action>
                  <stEvt:instanceID>xmp.iid:149180c3-f49f-ab4d-a1a9-6618e1cedd8b</stEvt:instanceID>
                  <stEvt:when>2017-04-16T02:28:59-04:00</stEvt:when>
                  <stEvt:softwareAgent>Adobe Audition CC 2017.0 (Windows)</stEvt:softwareAgent>
                  <stEvt:changed>/metadata</stEvt:changed>
               </rdf:li>
               <rdf:li rdf:parseType="Resource">
                  <stEvt:action>saved</stEvt:action>
                  <stEvt:instanceID>xmp.iid:ffed88e5-e26f-4043-be6f-163da1eacf37</stEvt:instanceID>
                  <stEvt:when>2017-04-16T02:28:59-04:00</stEvt:when>
                  <stEvt:softwareAgent>Adobe Audition CC 2017.0 (Windows)</stEvt:softwareAgent>
                  <stEvt:changed>/</stEvt:changed>
               </rdf:li>
               <rdf:li rdf:parseType="Resource">
                  <stEvt:action>saved</stEvt:action>
                  <stEvt:instanceID>xmp.iid:623a0a6d-cae5-6c43-8e4c-e54ff8a5f88e</stEvt:instanceID>
                  <stEvt:when>2017-04-16T02:39:34-04:00</stEvt:when>
                  <stEvt:softwareAgent>Adobe Audition CC 2017.0 (Windows)</stEvt:softwareAgent>
                  <stEvt:changed>/metadata</stEvt:changed>
               </rdf:li>
               <rdf:li rdf:parseType="Resource">
                  <stEvt:action>saved</stEvt:action>
                  <stEvt:instanceID>xmp.iid:61323eae-39ab-8b4c-8bf5-738299a11c0c</stEvt:instanceID>
                  <stEvt:when>2017-04-16T02:39:34-04:00</stEvt:when>
                  <stEvt:softwareAgent>Adobe Audition CC 2017.0 (Windows)</stEvt:softwareAgent>
                  <stEvt:changed>/</stEvt:changed>
               </rdf:li>
               <rdf:li rdf:parseType="Resource">
                  <stEvt:action>saved</stEvt:action>
                  <stEvt:instanceID>xmp.iid:86983c13-4356-8f43-acb1-e0ab5b18b2c5</stEvt:instanceID>
                  <stEvt:when>2017-04-16T02:45:35-04:00</stEvt:when>
                  <stEvt:softwareAgent>Adobe Audition CC 2017.0 (Windows)</stEvt:softwareAgent>
                  <stEvt:changed>/metadata</stEvt:changed>
               </rdf:li>
               <rdf:li rdf:parseType="Resource">
                  <stEvt:action>saved</stEvt:action>
                  <stEvt:instanceID>xmp.iid:7e2925fd-3275-b847-9536-7ed81d3d2b65</stEvt:instanceID>
                  <stEvt:when>2017-04-16T02:45:35-04:00</stEvt:when>
                  <stEvt:softwareAgent>Adobe Audition CC 2017.0 (Windows)</stEvt:softwareAgent>
                  <stEvt:changed>/</stEvt:changed>
               </rdf:li>
               <rdf:li rdf:parseType="Resource">
                  <stEvt:action>saved</stEvt:action>
                  <stEvt:instanceID>xmp.iid:4539cf44-3392-b842-afe9-64973c357c2b</stEvt:instanceID>
                  <stEvt:when>2017-04-16T02:51:23-04:00</stEvt:when>
                  <stEvt:softwareAgent>Adobe Audition CC 2017.0 (Windows)</stEvt:softwareAgent>
                  <stEvt:changed>/metadata</stEvt:changed>
               </rdf:li>
               <rdf:li rdf:parseType="Resource">
                  <stEvt:action>saved</stEvt:action>
                  <stEvt:instanceID>xmp.iid:174ab071-a730-a54b-bd9e-d5c758c0ace9</stEvt:instanceID>
                  <stEvt:when>2017-04-16T02:51:23-04:00</stEvt:when>
                  <stEvt:softwareAgent>Adobe Audition CC 2017.0 (Windows)</stEvt:softwareAgent>
                  <stEvt:changed>/</stEvt:changed>
               </rdf:li>
               <rdf:li rdf:parseType="Resource">
                  <stEvt:action>saved</stEvt:action>
                  <stEvt:instanceID>xmp.iid:28195372-e15a-2c45-83a4-713c03b1963f</stEvt:instanceID>
                  <stEvt:when>2017-04-16T02:51:35-04:00</stEvt:when>
                  <stEvt:softwareAgent>Adobe Audition CC 2017.0 (Windows)</stEvt:softwareAgent>
                  <stEvt:changed>/metadata</stEvt:changed>
               </rdf:li>
               <rdf:li rdf:parseType="Resource">
                  <stEvt:action>saved</stEvt:action>
                  <stEvt:instanceID>xmp.iid:b22dff02-be22-6643-89f7-8c5779bab60b</stEvt:instanceID>
                  <stEvt:when>2017-04-16T02:51:35-04:00</stEvt:when>
                  <stEvt:softwareAgent>Adobe Audition CC 2017.0 (Windows)</stEvt:softwareAgent>
                  <stEvt:changed>/</stEvt:changed>
               </rdf:li>
               <rdf:li rdf:parseType="Resource">
                  <stEvt:action>saved</stEvt:action>
                  <stEvt:instanceID>xmp.iid:92f11b8b-5168-6c4f-9af6-5729bc56f23c</stEvt:instanceID>
                  <stEvt:when>2017-04-16T02:57:35-04:00</stEvt:when>
                  <stEvt:softwareAgent>Adobe Audition CC 2017.0 (Windows)</stEvt:softwareAgent>
                  <stEvt:changed>/metadata</stEvt:changed>
               </rdf:li>
               <rdf:li rdf:parseType="Resource">
                  <stEvt:action>saved</stEvt:action>
                  <stEvt:instanceID>xmp.iid:37960b05-738e-5449-b669-622655b13bc2</stEvt:instanceID>
                  <stEvt:when>2017-04-16T02:57:35-04:00</stEvt:when>
                  <stEvt:softwareAgent>Adobe Audition CC 2017.0 (Windows)</stEvt:softwareAgent>
                  <stEvt:changed>/</stEvt:changed>
               </rdf:li>
               <rdf:li rdf:parseType="Resource">
                  <stEvt:action>saved</stEvt:action>
                  <stEvt:instanceID>xmp.iid:e2090f85-9cc1-dd4c-82db-9a7cb8ed101a</stEvt:instanceID>
                  <stEvt:when>2017-04-16T02:58:59-04:00</stEvt:when>
                  <stEvt:softwareAgent>Adobe Audition CC 2017.0 (Windows)</stEvt:softwareAgent>
                  <stEvt:changed>/metadata</stEvt:changed>
               </rdf:li>
               <rdf:li rdf:parseType="Resource">
                  <stEvt:action>saved</stEvt:action>
                  <stEvt:instanceID>xmp.iid:a91ea700-80bf-144a-9a1f-dadac6dc5efc</stEvt:instanceID>
                  <stEvt:when>2017-04-16T02:58:59-04:00</stEvt:when>
                  <stEvt:softwareAgent>Adobe Audition CC 2017.0 (Windows)</stEvt:softwareAgent>
                  <stEvt:changed>/</stEvt:changed>
               </rdf:li>
               <rdf:li rdf:parseType="Resource">
                  <stEvt:action>saved</stEvt:action>
                  <stEvt:instanceID>xmp.iid:ce4a2d96-6fb1-0448-947f-120517444407</stEvt:instanceID>
                  <stEvt:when>2017-04-16T03:00:35-04:00</stEvt:when>
                  <stEvt:softwareAgent>Adobe Audition CC 2017.0 (Windows)</stEvt:softwareAgent>
                  <stEvt:changed>/metadata</stEvt:changed>
               </rdf:li>
               <rdf:li rdf:parseType="Resource">
                  <stEvt:action>saved</stEvt:action>
                  <stEvt:instanceID>xmp.iid:fbf04bdb-b1a2-7a41-9052-d645c71a590e</stEvt:instanceID>
                  <stEvt:when>2017-04-16T03:00:35-04:00</stEvt:when>
                  <stEvt:softwareAgent>Adobe Audition CC 2017.0 (Windows)</stEvt:softwareAgent>
                  <stEvt:changed>/</stEvt:changed>
               </rdf:li>
               <rdf:li rdf:parseType="Resource">
                  <stEvt:action>saved</stEvt:action>
                  <stEvt:instanceID>xmp.iid:5799f91b-a3a0-8341-9f40-d3e3ad65e7ef</stEvt:instanceID>
                  <stEvt:when>2017-04-16T03:09:37-04:00</stEvt:when>
                  <stEvt:softwareAgent>Adobe Audition CC 2017.0 (Windows)</stEvt:softwareAgent>
                  <stEvt:changed>/metadata</stEvt:changed>
               </rdf:li>
               <rdf:li rdf:parseType="Resource">
                  <stEvt:action>saved</stEvt:action>
                  <stEvt:instanceID>xmp.iid:1db06e2f-12b2-6941-a76f-4db176e877b3</stEvt:instanceID>
                  <stEvt:when>2017-04-16T03:09:37-04:00</stEvt:when>
                  <stEvt:softwareAgent>Adobe Audition CC 2017.0 (Windows)</stEvt:softwareAgent>
                  <stEvt:changed>/</stEvt:changed>
               </rdf:li>
               <rdf:li rdf:parseType="Resource">
                  <stEvt:action>saved</stEvt:action>
                  <stEvt:instanceID>xmp.iid:ae86ef57-23cf-0747-a710-e8c297d14633</stEvt:instanceID>
                  <stEvt:when>2017-04-16T03:18:37-04:00</stEvt:when>
                  <stEvt:softwareAgent>Adobe Audition CC 2017.0 (Windows)</stEvt:softwareAgent>
                  <stEvt:changed>/metadata</stEvt:changed>
               </rdf:li>
               <rdf:li rdf:parseType="Resource">
                  <stEvt:action>saved</stEvt:action>
                  <stEvt:instanceID>xmp.iid:26e0ff6d-099f-1445-8c98-3253edaa154d</stEvt:instanceID>
                  <stEvt:when>2017-04-16T03:18:37-04:00</stEvt:when>
                  <stEvt:softwareAgent>Adobe Audition CC 2017.0 (Windows)</stEvt:softwareAgent>
                  <stEvt:changed>/</stEvt:changed>
               </rdf:li>
               <rdf:li rdf:parseType="Resource">
                  <stEvt:action>saved</stEvt:action>
                  <stEvt:instanceID>xmp.iid:47137bdc-4542-0942-a6f2-ca0fa613a9fb</stEvt:instanceID>
                  <stEvt:when>2017-04-16T03:20:47-04:00</stEvt:when>
                  <stEvt:softwareAgent>Adobe Audition CC 2017.0 (Windows)</stEvt:softwareAgent>
                  <stEvt:changed>/metadata</stEvt:changed>
               </rdf:li>
               <rdf:li rdf:parseType="Resource">
                  <stEvt:action>saved</stEvt:action>
                  <stEvt:instanceID>xmp.iid:d864c9f4-ed68-ee41-82c2-7eca9614378c</stEvt:instanceID>
                  <stEvt:when>2017-04-16T03:20:47-04:00</stEvt:when>
                  <stEvt:softwareAgent>Adobe Audition CC 2017.0 (Windows)</stEvt:softwareAgent>
                  <stEvt:changed>/</stEvt:changed>
               </rdf:li>
               <rdf:li rdf:parseType="Resource">
                  <stEvt:action>saved</stEvt:action>
                  <stEvt:instanceID>xmp.iid:f37708b8-878c-2649-9e69-20af3dbc90c5</stEvt:instanceID>
                  <stEvt:when>2017-04-16T03:21:37-04:00</stEvt:when>
                  <stEvt:softwareAgent>Adobe Audition CC 2017.0 (Windows)</stEvt:softwareAgent>
                  <stEvt:changed>/metadata</stEvt:changed>
               </rdf:li>
               <rdf:li rdf:parseType="Resource">
                  <stEvt:action>saved</stEvt:action>
                  <stEvt:instanceID>xmp.iid:362ae1d4-e752-ed4a-b171-ef5ed5014b98</stEvt:instanceID>
                  <stEvt:when>2017-04-16T03:21:37-04:00</stEvt:when>
                  <stEvt:softwareAgent>Adobe Audition CC 2017.0 (Windows)</stEvt:softwareAgent>
                  <stEvt:changed>/</stEvt:changed>
               </rdf:li>
               <rdf:li rdf:parseType="Resource">
                  <stEvt:action>saved</stEvt:action>
                  <stEvt:instanceID>xmp.iid:c6c51755-4f84-3f42-a0d2-f2e0755d177d</stEvt:instanceID>
                  <stEvt:when>2017-04-16T03:48:48-04:00</stEvt:when>
                  <stEvt:softwareAgent>Adobe Audition CC 2017.0 (Windows)</stEvt:softwareAgent>
                  <stEvt:changed>/metadata</stEvt:changed>
               </rdf:li>
               <rdf:li rdf:parseType="Resource">
                  <stEvt:action>saved</stEvt:action>
                  <stEvt:instanceID>xmp.iid:7a6f1824-47d0-744d-b25d-44b6758becd9</stEvt:instanceID>
                  <stEvt:when>2017-04-16T03:48:48-04:00</stEvt:when>
                  <stEvt:softwareAgent>Adobe Audition CC 2017.0 (Windows)</stEvt:softwareAgent>
                  <stEvt:changed>/</stEvt:changed>
               </rdf:li>
               <rdf:li rdf:parseType="Resource">
                  <stEvt:action>saved</stEvt:action>
                  <stEvt:instanceID>xmp.iid:cb9addda-098b-f543-a267-fbdc456d286e</stEvt:instanceID>
                  <stEvt:when>2017-04-16T03:51:48-04:00</stEvt:when>
                  <stEvt:softwareAgent>Adobe Audition CC 2017.0 (Windows)</stEvt:softwareAgent>
                  <stEvt:changed>/metadata</stEvt:changed>
               </rdf:li>
               <rdf:li rdf:parseType="Resource">
                  <stEvt:action>saved</stEvt:action>
                  <stEvt:instanceID>xmp.iid:2541080c-ee88-7647-8db5-3ae0d5a3dd07</stEvt:instanceID>
                  <stEvt:when>2017-04-16T03:51:48-04:00</stEvt:when>
                  <stEvt:softwareAgent>Adobe Audition CC 2017.0 (Windows)</stEvt:softwareAgent>
                  <stEvt:changed>/</stEvt:changed>
               </rdf:li>
               <rdf:li rdf:parseType="Resource">
                  <stEvt:action>saved</stEvt:action>
                  <stEvt:instanceID>xmp.iid:5171aaf8-6290-2340-ab55-d1b86af08386</stEvt:instanceID>
                  <stEvt:when>2017-04-16T04:48:15-04:00</stEvt:when>
                  <stEvt:softwareAgent>Adobe Audition CC 2017.0 (Windows)</stEvt:softwareAgent>
                  <stEvt:changed>/metadata</stEvt:changed>
               </rdf:li>
               <rdf:li rdf:parseType="Resource">
                  <stEvt:action>saved</stEvt:action>
                  <stEvt:instanceID>xmp.iid:52f182f8-342b-4342-97f9-a186ab8d252e</stEvt:instanceID>
                  <stEvt:when>2017-04-16T04:48:15-04:00</stEvt:when>
                  <stEvt:softwareAgent>Adobe Audition CC 2017.0 (Windows)</stEvt:softwareAgent>
                  <stEvt:changed>/</stEvt:changed>
               </rdf:li>
               <rdf:li rdf:parseType="Resource">
                  <stEvt:action>saved</stEvt:action>
                  <stEvt:instanceID>xmp.iid:3e3f36ee-05a8-0843-b190-d969e7cb03f9</stEvt:instanceID>
                  <stEvt:when>2017-04-16T04:48:17-04:00</stEvt:when>
                  <stEvt:softwareAgent>Adobe Audition CC 2017.0 (Windows)</stEvt:softwareAgent>
                  <stEvt:changed>/metadata</stEvt:changed>
               </rdf:li>
               <rdf:li rdf:parseType="Resource">
                  <stEvt:action>saved</stEvt:action>
                  <stEvt:instanceID>xmp.iid:29fdfa1c-9265-6c49-9941-febdbc3445ac</stEvt:instanceID>
                  <stEvt:when>2017-04-16T04:48:17-04:00</stEvt:when>
                  <stEvt:softwareAgent>Adobe Audition CC 2017.0 (Windows)</stEvt:softwareAgent>
                  <stEvt:changed>/</stEvt:changed>
               </rdf:li>
               <rdf:li rdf:parseType="Resource">
                  <stEvt:action>saved</stEvt:action>
                  <stEvt:instanceID>xmp.iid:451f36f9-2f0e-fa4d-b9fc-731b602cbf37</stEvt:instanceID>
                  <stEvt:when>2017-04-16T04:48:32-04:00</stEvt:when>
                  <stEvt:softwareAgent>Adobe Audition CC 2017.0 (Windows)</stEvt:softwareAgent>
                  <stEvt:changed>/metadata</stEvt:changed>
               </rdf:li>
               <rdf:li rdf:parseType="Resource">
                  <stEvt:action>saved</stEvt:action>
                  <stEvt:instanceID>xmp.iid:3604db44-d208-b44b-814d-0c1c9d9d39f1</stEvt:instanceID>
                  <stEvt:when>2017-04-16T04:48:32-04:00</stEvt:when>
                  <stEvt:softwareAgent>Adobe Audition CC 2017.0 (Windows)</stEvt:softwareAgent>
                  <stEvt:changed>/</stEvt:changed>
               </rdf:li>
               <rdf:li rdf:parseType="Resource">
                  <stEvt:action>saved</stEvt:action>
                  <stEvt:instanceID>xmp.iid:77fbe271-ace0-ad46-945d-f370cd69d256</stEvt:instanceID>
                  <stEvt:when>2017-04-16T12:21:40-04:00</stEvt:when>
                  <stEvt:softwareAgent>Adobe Audition CC 2017.0 (Windows)</stEvt:softwareAgent>
                  <stEvt:changed>/metadata</stEvt:changed>
               </rdf:li>
               <rdf:li rdf:parseType="Resource">
                  <stEvt:action>saved</stEvt:action>
                  <stEvt:instanceID>xmp.iid:1c57df63-f407-b541-967e-331147e04674</stEvt:instanceID>
                  <stEvt:when>2017-04-16T12:21:40-04:00</stEvt:when>
                  <stEvt:softwareAgent>Adobe Audition CC 2017.0 (Windows)</stEvt:softwareAgent>
                  <stEvt:changed>/</stEvt:changed>
               </rdf:li>
               <rdf:li rdf:parseType="Resource">
                  <stEvt:action>saved</stEvt:action>
                  <stEvt:instanceID>xmp.iid:a8f8e31e-cdf8-b84e-8a9f-fc054d5aa7ac</stEvt:instanceID>
                  <stEvt:when>2017-04-16T12:21:41-04:00</stEvt:when>
                  <stEvt:softwareAgent>Adobe Audition CC 2017.0 (Windows)</stEvt:softwareAgent>
                  <stEvt:changed>/metadata</stEvt:changed>
               </rdf:li>
               <rdf:li rdf:parseType="Resource">
                  <stEvt:action>saved</stEvt:action>
                  <stEvt:instanceID>xmp.iid:3cf5df0f-74b8-444f-b7cf-0d9d6dcc0a24</stEvt:instanceID>
                  <stEvt:when>2017-04-16T12:21:41-04:00</stEvt:when>
                  <stEvt:softwareAgent>Adobe Audition CC 2017.0 (Windows)</stEvt:softwareAgent>
                  <stEvt:changed>/</stEvt:changed>
               </rdf:li>
               <rdf:li rdf:parseType="Resource">
                  <stEvt:action>saved</stEvt:action>
                  <stEvt:instanceID>xmp.iid:8b281f41-cb83-e246-9ce4-631e2a72b817</stEvt:instanceID>
                  <stEvt:when>2017-04-16T12:24:41-04:00</stEvt:when>
                  <stEvt:softwareAgent>Adobe Audition CC 2017.0 (Windows)</stEvt:softwareAgent>
                  <stEvt:changed>/metadata</stEvt:changed>
               </rdf:li>
               <rdf:li rdf:parseType="Resource">
                  <stEvt:action>saved</stEvt:action>
                  <stEvt:instanceID>xmp.iid:19bd3b26-983f-064d-80c4-fbb23428f885</stEvt:instanceID>
                  <stEvt:when>2017-04-16T12:24:41-04:00</stEvt:when>
                  <stEvt:softwareAgent>Adobe Audition CC 2017.0 (Windows)</stEvt:softwareAgent>
                  <stEvt:changed>/</stEvt:changed>
               </rdf:li>
               <rdf:li rdf:parseType="Resource">
                  <stEvt:action>saved</stEvt:action>
                  <stEvt:instanceID>xmp.iid:2482a8de-2493-624d-a201-57fa2ea5ddd6</stEvt:instanceID>
                  <stEvt:when>2017-04-16T12:27:41-04:00</stEvt:when>
                  <stEvt:softwareAgent>Adobe Audition CC 2017.0 (Windows)</stEvt:softwareAgent>
                  <stEvt:changed>/metadata</stEvt:changed>
               </rdf:li>
               <rdf:li rdf:parseType="Resource">
                  <stEvt:action>saved</stEvt:action>
                  <stEvt:instanceID>xmp.iid:44b7254b-ca07-914c-84c6-ba8049bbb310</stEvt:instanceID>
                  <stEvt:when>2017-04-16T12:27:41-04:00</stEvt:when>
                  <stEvt:softwareAgent>Adobe Audition CC 2017.0 (Windows)</stEvt:softwareAgent>
                  <stEvt:changed>/</stEvt:changed>
               </rdf:li>
               <rdf:li rdf:parseType="Resource">
                  <stEvt:action>saved</stEvt:action>
                  <stEvt:instanceID>xmp.iid:5915d80a-33ad-8648-bb1a-6239d2a325ef</stEvt:instanceID>
                  <stEvt:when>2017-04-16T12:33:41-04:00</stEvt:when>
                  <stEvt:softwareAgent>Adobe Audition CC 2017.0 (Windows)</stEvt:softwareAgent>
                  <stEvt:changed>/metadata</stEvt:changed>
               </rdf:li>
               <rdf:li rdf:parseType="Resource">
                  <stEvt:action>saved</stEvt:action>
                  <stEvt:instanceID>xmp.iid:f554d106-fd53-444a-88ef-ed05509a99ea</stEvt:instanceID>
                  <stEvt:when>2017-04-16T12:33:41-04:00</stEvt:when>
                  <stEvt:softwareAgent>Adobe Audition CC 2017.0 (Windows)</stEvt:softwareAgent>
                  <stEvt:changed>/</stEvt:changed>
               </rdf:li>
               <rdf:li rdf:parseType="Resource">
                  <stEvt:action>saved</stEvt:action>
                  <stEvt:instanceID>xmp.iid:28157513-1385-0d44-9938-23c8441266b5</stEvt:instanceID>
                  <stEvt:when>2017-04-16T12:36:41-04:00</stEvt:when>
                  <stEvt:softwareAgent>Adobe Audition CC 2017.0 (Windows)</stEvt:softwareAgent>
                  <stEvt:changed>/metadata</stEvt:changed>
               </rdf:li>
               <rdf:li rdf:parseType="Resource">
                  <stEvt:action>saved</stEvt:action>
                  <stEvt:instanceID>xmp.iid:75b44664-089e-6a4b-85e5-7ce873059c24</stEvt:instanceID>
                  <stEvt:when>2017-04-16T12:36:41-04:00</stEvt:when>
                  <stEvt:softwareAgent>Adobe Audition CC 2017.0 (Windows)</stEvt:softwareAgent>
                  <stEvt:changed>/</stEvt:changed>
               </rdf:li>
               <rdf:li rdf:parseType="Resource">
                  <stEvt:action>saved</stEvt:action>
                  <stEvt:instanceID>xmp.iid:0c95f302-f297-ac47-9efc-f06201806a3d</stEvt:instanceID>
                  <stEvt:when>2017-04-16T12:45:41-04:00</stEvt:when>
                  <stEvt:softwareAgent>Adobe Audition CC 2017.0 (Windows)</stEvt:softwareAgent>
                  <stEvt:changed>/metadata</stEvt:changed>
               </rdf:li>
               <rdf:li rdf:parseType="Resource">
                  <stEvt:action>saved</stEvt:action>
                  <stEvt:instanceID>xmp.iid:6469721b-141a-2444-bb32-34b46bb0c9d9</stEvt:instanceID>
                  <stEvt:when>2017-04-16T12:45:41-04:00</stEvt:when>
                  <stEvt:softwareAgent>Adobe Audition CC 2017.0 (Windows)</stEvt:softwareAgent>
                  <stEvt:changed>/</stEvt:changed>
               </rdf:li>
               <rdf:li rdf:parseType="Resource">
                  <stEvt:action>saved</stEvt:action>
                  <stEvt:instanceID>xmp.iid:5acf54b9-7161-924e-8f74-dfdea20d15a0</stEvt:instanceID>
                  <stEvt:when>2017-04-16T12:48:42-04:00</stEvt:when>
                  <stEvt:softwareAgent>Adobe Audition CC 2017.0 (Windows)</stEvt:softwareAgent>
                  <stEvt:changed>/metadata</stEvt:changed>
               </rdf:li>
               <rdf:li rdf:parseType="Resource">
                  <stEvt:action>saved</stEvt:action>
                  <stEvt:instanceID>xmp.iid:0eac56e0-eebb-5143-894b-d6fa4b511ea4</stEvt:instanceID>
                  <stEvt:when>2017-04-16T12:48:42-04:00</stEvt:when>
                  <stEvt:softwareAgent>Adobe Audition CC 2017.0 (Windows)</stEvt:softwareAgent>
                  <stEvt:changed>/</stEvt:changed>
               </rdf:li>
               <rdf:li rdf:parseType="Resource">
                  <stEvt:action>saved</stEvt:action>
                  <stEvt:instanceID>xmp.iid:ade877a7-675b-fd4b-9dc4-a433a76d702c</stEvt:instanceID>
                  <stEvt:when>2017-04-16T12:51:41-04:00</stEvt:when>
                  <stEvt:softwareAgent>Adobe Audition CC 2017.0 (Windows)</stEvt:softwareAgent>
                  <stEvt:changed>/metadata</stEvt:changed>
               </rdf:li>
               <rdf:li rdf:parseType="Resource">
                  <stEvt:action>saved</stEvt:action>
                  <stEvt:instanceID>xmp.iid:56afe518-2487-1f4c-a4bd-91fb71c92fa3</stEvt:instanceID>
                  <stEvt:when>2017-04-16T12:51:41-04:00</stEvt:when>
                  <stEvt:softwareAgent>Adobe Audition CC 2017.0 (Windows)</stEvt:softwareAgent>
                  <stEvt:changed>/</stEvt:changed>
               </rdf:li>
               <rdf:li rdf:parseType="Resource">
                  <stEvt:action>saved</stEvt:action>
                  <stEvt:instanceID>xmp.iid:01970263-ffb0-1441-b741-d3a9f4258c76</stEvt:instanceID>
                  <stEvt:when>2017-04-16T12:51:42-04:00</stEvt:when>
                  <stEvt:softwareAgent>Adobe Audition CC 2017.0 (Windows)</stEvt:softwareAgent>
                  <stEvt:changed>/metadata</stEvt:changed>
               </rdf:li>
               <rdf:li rdf:parseType="Resource">
                  <stEvt:action>saved</stEvt:action>
                  <stEvt:instanceID>xmp.iid:3dd4aa78-8a11-fa43-a882-04547a2dff8f</stEvt:instanceID>
                  <stEvt:when>2017-04-16T12:51:42-04:00</stEvt:when>
                  <stEvt:softwareAgent>Adobe Audition CC 2017.0 (Windows)</stEvt:softwareAgent>
                  <stEvt:changed>/</stEvt:changed>
               </rdf:li>
               <rdf:li rdf:parseType="Resource">
                  <stEvt:action>saved</stEvt:action>
                  <stEvt:instanceID>xmp.iid:80d60046-e050-fa4a-9051-94bdee8aaf4e</stEvt:instanceID>
                  <stEvt:when>2017-04-16T12:57:42-04:00</stEvt:when>
                  <stEvt:softwareAgent>Adobe Audition CC 2017.0 (Windows)</stEvt:softwareAgent>
                  <stEvt:changed>/metadata</stEvt:changed>
               </rdf:li>
               <rdf:li rdf:parseType="Resource">
                  <stEvt:action>saved</stEvt:action>
                  <stEvt:instanceID>xmp.iid:24ad1c1c-0d38-4a4d-87a0-76bf40c2c9ed</stEvt:instanceID>
                  <stEvt:when>2017-04-16T12:57:42-04:00</stEvt:when>
                  <stEvt:softwareAgent>Adobe Audition CC 2017.0 (Windows)</stEvt:softwareAgent>
                  <stEvt:changed>/</stEvt:changed>
               </rdf:li>
               <rdf:li rdf:parseType="Resource">
                  <stEvt:action>saved</stEvt:action>
                  <stEvt:instanceID>xmp.iid:7ecf1ee0-901b-7249-848e-e6e6a21dfe79</stEvt:instanceID>
                  <stEvt:when>2017-04-16T13:00:42-04:00</stEvt:when>
                  <stEvt:softwareAgent>Adobe Audition CC 2017.0 (Windows)</stEvt:softwareAgent>
                  <stEvt:changed>/metadata</stEvt:changed>
               </rdf:li>
               <rdf:li rdf:parseType="Resource">
                  <stEvt:action>saved</stEvt:action>
                  <stEvt:instanceID>xmp.iid:22c5c3b2-fe95-c74e-9480-cc2948e51c64</stEvt:instanceID>
                  <stEvt:when>2017-04-16T13:00:42-04:00</stEvt:when>
                  <stEvt:softwareAgent>Adobe Audition CC 2017.0 (Windows)</stEvt:softwareAgent>
                  <stEvt:changed>/</stEvt:changed>
               </rdf:li>
               <rdf:li rdf:parseType="Resource">
                  <stEvt:action>saved</stEvt:action>
                  <stEvt:instanceID>xmp.iid:752c4dd1-9c4a-224c-b064-13ebb34cee97</stEvt:instanceID>
                  <stEvt:when>2017-04-16T13:01:41-04:00</stEvt:when>
                  <stEvt:softwareAgent>Adobe Audition CC 2017.0 (Windows)</stEvt:softwareAgent>
                  <stEvt:changed>/metadata</stEvt:changed>
               </rdf:li>
               <rdf:li rdf:parseType="Resource">
                  <stEvt:action>saved</stEvt:action>
                  <stEvt:instanceID>xmp.iid:2a6a5c0b-5a35-be47-a68f-3e775bb7208b</stEvt:instanceID>
                  <stEvt:when>2017-04-16T13:01:41-04:00</stEvt:when>
                  <stEvt:softwareAgent>Adobe Audition CC 2017.0 (Windows)</stEvt:softwareAgent>
                  <stEvt:changed>/</stEvt:changed>
               </rdf:li>
               <rdf:li rdf:parseType="Resource">
                  <stEvt:action>saved</stEvt:action>
                  <stEvt:instanceID>xmp.iid:0f994a19-3da5-c042-9d55-5cbe3bee207f</stEvt:instanceID>
                  <stEvt:when>2017-04-16T13:06:42-04:00</stEvt:when>
                  <stEvt:softwareAgent>Adobe Audition CC 2017.0 (Windows)</stEvt:softwareAgent>
                  <stEvt:changed>/metadata</stEvt:changed>
               </rdf:li>
               <rdf:li rdf:parseType="Resource">
                  <stEvt:action>saved</stEvt:action>
                  <stEvt:instanceID>xmp.iid:45639cd9-967a-cd48-b9f0-7598cfe1f4cd</stEvt:instanceID>
                  <stEvt:when>2017-04-16T13:06:42-04:00</stEvt:when>
                  <stEvt:softwareAgent>Adobe Audition CC 2017.0 (Windows)</stEvt:softwareAgent>
                  <stEvt:changed>/</stEvt:changed>
               </rdf:li>
               <rdf:li rdf:parseType="Resource">
                  <stEvt:action>saved</stEvt:action>
                  <stEvt:instanceID>xmp.iid:0b66f147-906b-9a4b-9da1-44ba1c772d6e</stEvt:instanceID>
                  <stEvt:when>2017-04-16T13:11:41-04:00</stEvt:when>
                  <stEvt:softwareAgent>Adobe Audition CC 2017.0 (Windows)</stEvt:softwareAgent>
                  <stEvt:changed>/metadata</stEvt:changed>
               </rdf:li>
               <rdf:li rdf:parseType="Resource">
                  <stEvt:action>saved</stEvt:action>
                  <stEvt:instanceID>xmp.iid:d2c71d08-40f9-7744-bf1b-1dbd299903ce</stEvt:instanceID>
                  <stEvt:when>2017-04-16T13:11:41-04:00</stEvt:when>
                  <stEvt:softwareAgent>Adobe Audition CC 2017.0 (Windows)</stEvt:softwareAgent>
                  <stEvt:changed>/</stEvt:changed>
               </rdf:li>
               <rdf:li rdf:parseType="Resource">
                  <stEvt:action>saved</stEvt:action>
                  <stEvt:instanceID>xmp.iid:0366ca00-f3f9-7d46-94fb-90004f584afd</stEvt:instanceID>
                  <stEvt:when>2017-04-16T13:12:42-04:00</stEvt:when>
                  <stEvt:softwareAgent>Adobe Audition CC 2017.0 (Windows)</stEvt:softwareAgent>
                  <stEvt:changed>/metadata</stEvt:changed>
               </rdf:li>
               <rdf:li rdf:parseType="Resource">
                  <stEvt:action>saved</stEvt:action>
                  <stEvt:instanceID>xmp.iid:78dc67bc-e1a1-3f4b-9b1d-7af36b3f53d6</stEvt:instanceID>
                  <stEvt:when>2017-04-16T13:12:42-04:00</stEvt:when>
                  <stEvt:softwareAgent>Adobe Audition CC 2017.0 (Windows)</stEvt:softwareAgent>
                  <stEvt:changed>/</stEvt:changed>
               </rdf:li>
               <rdf:li rdf:parseType="Resource">
                  <stEvt:action>saved</stEvt:action>
                  <stEvt:instanceID>xmp.iid:a380b5a1-a0cc-8746-b843-50169e239d4d</stEvt:instanceID>
                  <stEvt:when>2017-04-16T13:27:27-04:00</stEvt:when>
                  <stEvt:softwareAgent>Adobe Audition CC 2017.0 (Windows)</stEvt:softwareAgent>
                  <stEvt:changed>/metadata</stEvt:changed>
               </rdf:li>
               <rdf:li rdf:parseType="Resource">
                  <stEvt:action>saved</stEvt:action>
                  <stEvt:instanceID>xmp.iid:08448aa5-ee11-8349-88f3-c1fd0dda88c3</stEvt:instanceID>
                  <stEvt:when>2017-04-16T13:27:27-04:00</stEvt:when>
                  <stEvt:softwareAgent>Adobe Audition CC 2017.0 (Windows)</stEvt:softwareAgent>
                  <stEvt:changed>/</stEvt:changed>
               </rdf:li>
               <rdf:li rdf:parseType="Resource">
                  <stEvt:action>saved</stEvt:action>
                  <stEvt:instanceID>xmp.iid:2cd9e450-c0de-4c40-aeba-337d3b67e2f2</stEvt:instanceID>
                  <stEvt:when>2017-04-16T13:30:28-04:00</stEvt:when>
                  <stEvt:softwareAgent>Adobe Audition CC 2017.0 (Windows)</stEvt:softwareAgent>
                  <stEvt:changed>/metadata</stEvt:changed>
               </rdf:li>
               <rdf:li rdf:parseType="Resource">
                  <stEvt:action>saved</stEvt:action>
                  <stEvt:instanceID>xmp.iid:d633e094-7dc9-5149-b79a-3cb71528b6da</stEvt:instanceID>
                  <stEvt:when>2017-04-16T13:30:28-04:00</stEvt:when>
                  <stEvt:softwareAgent>Adobe Audition CC 2017.0 (Windows)</stEvt:softwareAgent>
                  <stEvt:changed>/</stEvt:changed>
               </rdf:li>
               <rdf:li rdf:parseType="Resource">
                  <stEvt:action>saved</stEvt:action>
                  <stEvt:instanceID>xmp.iid:d574566c-45f6-b046-ab3d-efdd46204584</stEvt:instanceID>
                  <stEvt:when>2017-04-16T13:36:28-04:00</stEvt:when>
                  <stEvt:softwareAgent>Adobe Audition CC 2017.0 (Windows)</stEvt:softwareAgent>
                  <stEvt:changed>/metadata</stEvt:changed>
               </rdf:li>
               <rdf:li rdf:parseType="Resource">
                  <stEvt:action>saved</stEvt:action>
                  <stEvt:instanceID>xmp.iid:117461b6-c744-4149-a5d7-e003bc222223</stEvt:instanceID>
                  <stEvt:when>2017-04-16T13:36:28-04:00</stEvt:when>
                  <stEvt:softwareAgent>Adobe Audition CC 2017.0 (Windows)</stEvt:softwareAgent>
                  <stEvt:changed>/</stEvt:changed>
               </rdf:li>
               <rdf:li rdf:parseType="Resource">
                  <stEvt:action>saved</stEvt:action>
                  <stEvt:instanceID>xmp.iid:d610e448-5dec-c343-b3c9-e7cf4bce28cf</stEvt:instanceID>
                  <stEvt:when>2017-04-16T13:41:41-04:00</stEvt:when>
                  <stEvt:softwareAgent>Adobe Audition CC 2017.0 (Windows)</stEvt:softwareAgent>
                  <stEvt:changed>/metadata</stEvt:changed>
               </rdf:li>
               <rdf:li rdf:parseType="Resource">
                  <stEvt:action>saved</stEvt:action>
                  <stEvt:instanceID>xmp.iid:9b9a5978-c135-ca4c-8b38-4863918cd0fa</stEvt:instanceID>
                  <stEvt:when>2017-04-16T13:41:41-04:00</stEvt:when>
                  <stEvt:softwareAgent>Adobe Audition CC 2017.0 (Windows)</stEvt:softwareAgent>
                  <stEvt:changed>/</stEvt:changed>
               </rdf:li>
               <rdf:li rdf:parseType="Resource">
                  <stEvt:action>saved</stEvt:action>
                  <stEvt:instanceID>xmp.iid:fcc8fe3d-887c-3c46-b36d-88e938aaf149</stEvt:instanceID>
                  <stEvt:when>2017-04-16T13:42:28-04:00</stEvt:when>
                  <stEvt:softwareAgent>Adobe Audition CC 2017.0 (Windows)</stEvt:softwareAgent>
                  <stEvt:changed>/metadata</stEvt:changed>
               </rdf:li>
               <rdf:li rdf:parseType="Resource">
                  <stEvt:action>saved</stEvt:action>
                  <stEvt:instanceID>xmp.iid:808263da-57cc-a04e-8e57-74d3b6458712</stEvt:instanceID>
                  <stEvt:when>2017-04-16T13:42:28-04:00</stEvt:when>
                  <stEvt:softwareAgent>Adobe Audition CC 2017.0 (Windows)</stEvt:softwareAgent>
                  <stEvt:changed>/</stEvt:changed>
               </rdf:li>
               <rdf:li rdf:parseType="Resource">
                  <stEvt:action>saved</stEvt:action>
                  <stEvt:instanceID>xmp.iid:f634fdfe-84df-3c42-9fa1-fb881d63b2c8</stEvt:instanceID>
                  <stEvt:when>2017-04-16T14:33:32-04:00</stEvt:when>
                  <stEvt:softwareAgent>Adobe Audition CC 2017.0 (Windows)</stEvt:softwareAgent>
                  <stEvt:changed>/metadata</stEvt:changed>
               </rdf:li>
               <rdf:li rdf:parseType="Resource">
                  <stEvt:action>saved</stEvt:action>
                  <stEvt:instanceID>xmp.iid:1ed0c627-00d9-d249-9a74-057f04e663bb</stEvt:instanceID>
                  <stEvt:when>2017-04-16T14:33:32-04:00</stEvt:when>
                  <stEvt:softwareAgent>Adobe Audition CC 2017.0 (Windows)</stEvt:softwareAgent>
                  <stEvt:changed>/</stEvt:changed>
               </rdf:li>
               <rdf:li rdf:parseType="Resource">
                  <stEvt:action>saved</stEvt:action>
                  <stEvt:instanceID>xmp.iid:59ee3fa0-27dc-0d45-ae75-5bbc93b4572e</stEvt:instanceID>
                  <stEvt:when>2017-04-16T14:42:24-04:00</stEvt:when>
                  <stEvt:softwareAgent>Adobe Audition CC 2017.0 (Windows)</stEvt:softwareAgent>
                  <stEvt:changed>/metadata</stEvt:changed>
               </rdf:li>
               <rdf:li rdf:parseType="Resource">
                  <stEvt:action>saved</stEvt:action>
                  <stEvt:instanceID>xmp.iid:b2211711-7925-9a49-b651-9794fec6c60f</stEvt:instanceID>
                  <stEvt:when>2017-04-16T14:42:24-04:00</stEvt:when>
                  <stEvt:softwareAgent>Adobe Audition CC 2017.0 (Windows)</stEvt:softwareAgent>
                  <stEvt:changed>/</stEvt:changed>
               </rdf:li>
               <rdf:li rdf:parseType="Resource">
                  <stEvt:action>saved</stEvt:action>
                  <stEvt:instanceID>xmp.iid:55179270-4006-0048-ad94-1ceb7e06e913</stEvt:instanceID>
                  <stEvt:when>2017-04-16T14:42:32-04:00</stEvt:when>
                  <stEvt:softwareAgent>Adobe Audition CC 2017.0 (Windows)</stEvt:softwareAgent>
                  <stEvt:changed>/metadata</stEvt:changed>
               </rdf:li>
               <rdf:li rdf:parseType="Resource">
                  <stEvt:action>saved</stEvt:action>
                  <stEvt:instanceID>xmp.iid:39afd228-ad58-e949-a986-6a4829cb17b8</stEvt:instanceID>
                  <stEvt:when>2017-04-16T14:42:32-04:00</stEvt:when>
                  <stEvt:softwareAgent>Adobe Audition CC 2017.0 (Windows)</stEvt:softwareAgent>
                  <stEvt:changed>/</stEvt:changed>
               </rdf:li>
               <rdf:li rdf:parseType="Resource">
                  <stEvt:action>saved</stEvt:action>
                  <stEvt:instanceID>xmp.iid:ed6cfd8a-2496-8443-ad32-2b1539aa2a58</stEvt:instanceID>
                  <stEvt:when>2017-04-16T14:45:33-04:00</stEvt:when>
                  <stEvt:softwareAgent>Adobe Audition CC 2017.0 (Windows)</stEvt:softwareAgent>
                  <stEvt:changed>/metadata</stEvt:changed>
               </rdf:li>
               <rdf:li rdf:parseType="Resource">
                  <stEvt:action>saved</stEvt:action>
                  <stEvt:instanceID>xmp.iid:a033af23-d385-cd4b-b850-1fca9a15b27c</stEvt:instanceID>
                  <stEvt:when>2017-04-16T14:45:33-04:00</stEvt:when>
                  <stEvt:softwareAgent>Adobe Audition CC 2017.0 (Windows)</stEvt:softwareAgent>
                  <stEvt:changed>/</stEvt:changed>
               </rdf:li>
               <rdf:li rdf:parseType="Resource">
                  <stEvt:action>saved</stEvt:action>
                  <stEvt:instanceID>xmp.iid:8c37e3c9-ab9c-8848-a71e-f07e2002aabd</stEvt:instanceID>
                  <stEvt:when>2017-04-16T14:52:24-04:00</stEvt:when>
                  <stEvt:softwareAgent>Adobe Audition CC 2017.0 (Windows)</stEvt:softwareAgent>
                  <stEvt:changed>/metadata</stEvt:changed>
               </rdf:li>
               <rdf:li rdf:parseType="Resource">
                  <stEvt:action>saved</stEvt:action>
                  <stEvt:instanceID>xmp.iid:c782cf66-002c-7d49-8171-c48d27a985cb</stEvt:instanceID>
                  <stEvt:when>2017-04-16T14:52:24-04:00</stEvt:when>
                  <stEvt:softwareAgent>Adobe Audition CC 2017.0 (Windows)</stEvt:softwareAgent>
                  <stEvt:changed>/</stEvt:changed>
               </rdf:li>
               <rdf:li rdf:parseType="Resource">
                  <stEvt:action>saved</stEvt:action>
                  <stEvt:instanceID>xmp.iid:0a10a871-1440-0945-9ff3-14ee9216cf2b</stEvt:instanceID>
                  <stEvt:when>2017-04-16T15:34:35-04:00</stEvt:when>
                  <stEvt:softwareAgent>Adobe Audition CC 2017.0 (Windows)</stEvt:softwareAgent>
                  <stEvt:changed>/metadata</stEvt:changed>
               </rdf:li>
               <rdf:li rdf:parseType="Resource">
                  <stEvt:action>saved</stEvt:action>
                  <stEvt:instanceID>xmp.iid:393e952e-c2ec-5e41-97ca-24dff9b3a5df</stEvt:instanceID>
                  <stEvt:when>2017-04-16T15:34:35-04:00</stEvt:when>
                  <stEvt:softwareAgent>Adobe Audition CC 2017.0 (Windows)</stEvt:softwareAgent>
                  <stEvt:changed>/</stEvt:changed>
               </rdf:li>
               <rdf:li rdf:parseType="Resource">
                  <stEvt:action>saved</stEvt:action>
                  <stEvt:instanceID>xmp.iid:c18eea7c-7992-4147-8967-0d2e259932b5</stEvt:instanceID>
                  <stEvt:when>2017-04-16T15:37:35-04:00</stEvt:when>
                  <stEvt:softwareAgent>Adobe Audition CC 2017.0 (Windows)</stEvt:softwareAgent>
                  <stEvt:changed>/metadata</stEvt:changed>
               </rdf:li>
               <rdf:li rdf:parseType="Resource">
                  <stEvt:action>saved</stEvt:action>
                  <stEvt:instanceID>xmp.iid:d6b6c654-390a-a54c-a15b-5769c68fa584</stEvt:instanceID>
                  <stEvt:when>2017-04-16T15:37:35-04:00</stEvt:when>
                  <stEvt:softwareAgent>Adobe Audition CC 2017.0 (Windows)</stEvt:softwareAgent>
                  <stEvt:changed>/</stEvt:changed>
               </rdf:li>
               <rdf:li rdf:parseType="Resource">
                  <stEvt:action>saved</stEvt:action>
                  <stEvt:instanceID>xmp.iid:5c97c704-16f0-e941-9324-edb85b5b9e0b</stEvt:instanceID>
                  <stEvt:when>2017-04-16T15:42:24-04:00</stEvt:when>
                  <stEvt:softwareAgent>Adobe Audition CC 2017.0 (Windows)</stEvt:softwareAgent>
                  <stEvt:changed>/metadata</stEvt:changed>
               </rdf:li>
               <rdf:li rdf:parseType="Resource">
                  <stEvt:action>saved</stEvt:action>
                  <stEvt:instanceID>xmp.iid:68c2b82e-c7c5-1c4f-9db2-5fc2ac9b13c9</stEvt:instanceID>
                  <stEvt:when>2017-04-16T15:42:24-04:00</stEvt:when>
                  <stEvt:softwareAgent>Adobe Audition CC 2017.0 (Windows)</stEvt:softwareAgent>
                  <stEvt:changed>/</stEvt:changed>
               </rdf:li>
               <rdf:li rdf:parseType="Resource">
                  <stEvt:action>saved</stEvt:action>
                  <stEvt:instanceID>xmp.iid:a31dcbe6-691f-0e40-b134-b76d42517982</stEvt:instanceID>
                  <stEvt:when>2017-04-16T15:48:42-04:00</stEvt:when>
                  <stEvt:softwareAgent>Adobe Audition CC 2017.0 (Windows)</stEvt:softwareAgent>
                  <stEvt:changed>/metadata</stEvt:changed>
               </rdf:li>
               <rdf:li rdf:parseType="Resource">
                  <stEvt:action>saved</stEvt:action>
                  <stEvt:instanceID>xmp.iid:68dbd278-c091-d146-a701-a39c9e1eded8</stEvt:instanceID>
                  <stEvt:when>2017-04-16T15:48:42-04:00</stEvt:when>
                  <stEvt:softwareAgent>Adobe Audition CC 2017.0 (Windows)</stEvt:softwareAgent>
                  <stEvt:changed>/</stEvt:changed>
               </rdf:li>
               <rdf:li rdf:parseType="Resource">
                  <stEvt:action>saved</stEvt:action>
                  <stEvt:instanceID>xmp.iid:5b50bda5-7cdf-9f4b-ab5d-01520b89ccb6</stEvt:instanceID>
                  <stEvt:when>2017-04-16T15:52:24-04:00</stEvt:when>
                  <stEvt:softwareAgent>Adobe Audition CC 2017.0 (Windows)</stEvt:softwareAgent>
                  <stEvt:changed>/metadata</stEvt:changed>
               </rdf:li>
               <rdf:li rdf:parseType="Resource">
                  <stEvt:action>saved</stEvt:action>
                  <stEvt:instanceID>xmp.iid:0d321162-a222-524e-823a-6291a734545c</stEvt:instanceID>
                  <stEvt:when>2017-04-16T15:52:24-04:00</stEvt:when>
                  <stEvt:softwareAgent>Adobe Audition CC 2017.0 (Windows)</stEvt:softwareAgent>
                  <stEvt:changed>/</stEvt:changed>
               </rdf:li>
               <rdf:li rdf:parseType="Resource">
                  <stEvt:action>saved</stEvt:action>
                  <stEvt:instanceID>xmp.iid:0e0d7614-37ed-5c4c-8dfd-e79d0fe9e472</stEvt:instanceID>
                  <stEvt:when>2017-04-16T15:57:42-04:00</stEvt:when>
                  <stEvt:softwareAgent>Adobe Audition CC 2017.0 (Windows)</stEvt:softwareAgent>
                  <stEvt:changed>/metadata</stEvt:changed>
               </rdf:li>
               <rdf:li rdf:parseType="Resource">
                  <stEvt:action>saved</stEvt:action>
                  <stEvt:instanceID>xmp.iid:0831588d-33a6-d344-bb49-f858034fff56</stEvt:instanceID>
                  <stEvt:when>2017-04-16T15:57:42-04:00</stEvt:when>
                  <stEvt:softwareAgent>Adobe Audition CC 2017.0 (Windows)</stEvt:softwareAgent>
                  <stEvt:changed>/</stEvt:changed>
               </rdf:li>
               <rdf:li rdf:parseType="Resource">
                  <stEvt:action>saved</stEvt:action>
                  <stEvt:instanceID>xmp.iid:8c152d40-a581-4b49-9b3e-65e96c320fd1</stEvt:instanceID>
                  <stEvt:when>2017-04-16T16:00:42-04:00</stEvt:when>
                  <stEvt:softwareAgent>Adobe Audition CC 2017.0 (Windows)</stEvt:softwareAgent>
                  <stEvt:changed>/metadata</stEvt:changed>
               </rdf:li>
               <rdf:li rdf:parseType="Resource">
                  <stEvt:action>saved</stEvt:action>
                  <stEvt:instanceID>xmp.iid:92dd3acf-44eb-834a-8c89-386901292549</stEvt:instanceID>
                  <stEvt:when>2017-04-16T16:00:42-04:00</stEvt:when>
                  <stEvt:softwareAgent>Adobe Audition CC 2017.0 (Windows)</stEvt:softwareAgent>
                  <stEvt:changed>/</stEvt:changed>
               </rdf:li>
               <rdf:li rdf:parseType="Resource">
                  <stEvt:action>saved</stEvt:action>
                  <stEvt:instanceID>xmp.iid:e402d6c8-a7c0-7a43-a424-3642fae28cd9</stEvt:instanceID>
                  <stEvt:when>2017-04-16T16:00:54-04:00</stEvt:when>
                  <stEvt:softwareAgent>Adobe Audition CC 2017.0 (Windows)</stEvt:softwareAgent>
                  <stEvt:changed>/metadata</stEvt:changed>
               </rdf:li>
               <rdf:li rdf:parseType="Resource">
                  <stEvt:action>saved</stEvt:action>
                  <stEvt:instanceID>xmp.iid:ea05cb81-d6c7-6140-a6bd-d51a8f254546</stEvt:instanceID>
                  <stEvt:when>2017-04-16T16:00:54-04:00</stEvt:when>
                  <stEvt:softwareAgent>Adobe Audition CC 2017.0 (Windows)</stEvt:softwareAgent>
                  <stEvt:changed>/</stEvt:changed>
               </rdf:li>
               <rdf:li rdf:parseType="Resource">
                  <stEvt:action>saved</stEvt:action>
                  <stEvt:instanceID>xmp.iid:9f0e0da3-fe1f-6142-9b45-59fb9617e4c8</stEvt:instanceID>
                  <stEvt:when>2017-04-16T16:09:42-04:00</stEvt:when>
                  <stEvt:softwareAgent>Adobe Audition CC 2017.0 (Windows)</stEvt:softwareAgent>
                  <stEvt:changed>/metadata</stEvt:changed>
               </rdf:li>
               <rdf:li rdf:parseType="Resource">
                  <stEvt:action>saved</stEvt:action>
                  <stEvt:instanceID>xmp.iid:0c665307-8e86-4b4e-add7-5609e6886986</stEvt:instanceID>
                  <stEvt:when>2017-04-16T16:09:42-04:00</stEvt:when>
                  <stEvt:softwareAgent>Adobe Audition CC 2017.0 (Windows)</stEvt:softwareAgent>
                  <stEvt:changed>/</stEvt:changed>
               </rdf:li>
               <rdf:li rdf:parseType="Resource">
                  <stEvt:action>saved</stEvt:action>
                  <stEvt:instanceID>xmp.iid:bbe27ecd-26c0-544b-8b20-47cde77edd83</stEvt:instanceID>
                  <stEvt:when>2017-04-16T16:11:11-04:00</stEvt:when>
                  <stEvt:softwareAgent>Adobe Audition CC 2017.0 (Windows)</stEvt:softwareAgent>
                  <stEvt:changed>/metadata</stEvt:changed>
               </rdf:li>
               <rdf:li rdf:parseType="Resource">
                  <stEvt:action>saved</stEvt:action>
                  <stEvt:instanceID>xmp.iid:a4027108-f280-d240-a204-b6690637937e</stEvt:instanceID>
                  <stEvt:when>2017-04-16T16:11:11-04:00</stEvt:when>
                  <stEvt:softwareAgent>Adobe Audition CC 2017.0 (Windows)</stEvt:softwareAgent>
                  <stEvt:changed>/</stEvt:changed>
               </rdf:li>
            </rdf:Seq>
         </xmpMM:History>
         <xmpMM:DerivedFrom rdf:parseType="Resource">
            <stRef:instanceID>xmp.iid:9f0e0da3-fe1f-6142-9b45-59fb9617e4c8</stRef:instanceID>
            <stRef:documentID>xmp.did:92dd3acf-44eb-834a-8c89-386901292549</stRef:documentID>
            <stRef:originalDocumentID>xmp.did:c144336c-9b86-42fa-8487-9cc21c996b2d</stRef:originalDocumentID>
         </xmpMM:DerivedFrom>
         <dc:format>application/xml</dc:format>
         <xmpDM:Tracks>
            <rdf:Bag>
               <rdf:li rdf:parseType="Resource">
                  <xmpDM:trackName>CuePoint Markers</xmpDM:trackName>
                  <xmpDM:trackType>Cue</xmpDM:trackType>
                  <xmpDM:frameRate>f44100</xmpDM:frameRate>
               </rdf:li>
               <rdf:li rdf:parseType="Resource">
                  <xmpDM:trackName>CD Track Markers</xmpDM:trackName>
                  <xmpDM:trackType>Track</xmpDM:trackType>
                  <xmpDM:frameRate>f44100</xmpDM:frameRate>
               </rdf:li>
               <rdf:li rdf:parseType="Resource">
                  <xmpDM:trackName>Subclip Markers</xmpDM:trackName>
                  <xmpDM:trackType>InOut</xmpDM:trackType>
                  <xmpDM:frameRate>f44100</xmpDM:frameRate>
               </rdf:li>
            </rdf:Bag>
         </xmpDM:Tracks>
      </rdf:Description>
   </rdf:RDF>
</x:xmpmeta>
                                                                                                    
                                                                                                    
                                                                                                    
                                                                                                    
                                                                                                    
                                                                                                    
                                                                                                    
                                                                                                    
                                                                                                    
                                                                                                    
                                                                                                    
                                                                                                    
                                                                                                    
                                                                                                    
                                                                                                    
                                                                                                    
                                                                                                    
                                                                                                    
                                                                                                    
                                                                                                    
                           
<?xpacket end="w"?>]]></xmpMetadata>
    <clipGroups/>
    <metronome enabled="false" pattern="downBeat subdivision subdivision subdivision " soundSet="sticks">
      <metronomeTrack automationLaneOpenState="false" id="40000" index="0" select="false" visible="false">
        <trackParameters trackHeight="77" trackHue="-1" trackMinimized="false">
          <name>Metronome</name>
        </trackParameters>
        <trackAudioParameters audioChannelType="mono" automationMode="1" monitoring="false" recordArmed="false" solo="false" soloSafe="true">
          <trackOutput outputID="10000" type="trackID"/>
          <trackInput inputID="-1"/>
          <component componentGuid="3f389e98-6160-4482-8d63-ede26919d4f5" componentID="Audition.Fader" id="trackFader" name="volume" powered="true">
            <parameter index="0" name="volume" parameterValue="0.5011872"/>
            <parameter index="1" name="static gain" parameterValue="1"/>
          </component>
          <component componentGuid="0b53c545-2090-4c6d-b127-5b34bce65fb9" componentID="Audition.Mute" id="trackMute" name="Mute" powered="true">
            <parameter index="0" parameterValue="0"/>
            <parameter index="1" name="mute" parameterValue="0"/>
          </component>
          <component componentGuid="f6524149-66dc-420d-8259-9efe9aca5a3c" componentID="Audition.StereoPanner" id="trackPan" name="StereoPanner" powered="true">
            <parameter index="0" name="Pan" parameterValue="0"/>
          </component>
          <component componentGuid="8403cb7c-f417-444d-af31-6726971b66be" componentID="Audition.EQ" id="trackEQ" name="EQ" powered="false">
            <parameter index="0" name="Low Shelf Frequency" parameterValue="0.0009079"/>
            <parameter index="1" name="Low Shelf Gain" parameterValue="0.5"/>
            <parameter index="2" name="High Shelf Frequency" parameterValue="0.8161598"/>
            <parameter index="3" name="High Shelf Gain" parameterValue="0.5"/>
            <parameter index="4" name="EQ Band 1 Center Frequency" parameterValue="0.0013618"/>
            <parameter index="5" name="EQ Band 1 Q" parameterValue="0.0002"/>
            <parameter index="6" name="EQ Band 1 Gain" parameterValue="0.5"/>
            <parameter index="7" name="EQ Band 1 Enable" parameterValue="1"/>
            <parameter index="8" name="EQ Band 2 Center Frequency" parameterValue="0.0081707"/>
            <parameter index="9" name="EQ Band 2 Q" parameterValue="0.0002"/>
            <parameter index="10" name="EQ Band 2 Gain" parameterValue="0.5"/>
            <parameter index="11" name="EQ Band 2 Enable" parameterValue="1"/>
            <parameter index="12" name="EQ Band 3 Center Frequency" parameterValue="0.0354063"/>
            <parameter index="13" name="EQ Band 3 Q" parameterValue="0.0002"/>
            <parameter index="14" name="EQ Band 3 Gain" parameterValue="0.5"/>
            <parameter index="15" name="EQ Band 3 Enable" parameterValue="1"/>
            <parameter index="16" name="EQ Band 4 Center Frequency" parameterValue="0.1443486"/>
            <parameter index="17" name="EQ Band 4 Q" parameterValue="0.0002"/>
            <parameter index="18" name="EQ Band 4 Gain" parameterValue="0.5"/>
            <parameter index="19" name="EQ Band 4 Enable" parameterValue="1"/>
            <parameter index="20" name="EQ Band 5 Center Frequency" parameterValue="0.580118"/>
            <parameter index="21" name="EQ Band 5 Q" parameterValue="0.0002"/>
            <parameter index="22" name="EQ Band 5 Gain" parameterValue="0.5"/>
            <parameter index="23" name="EQ Band 5 Enable" parameterValue="1"/>
            <parameter index="24" name="Master Gain" parameterValue="0.6666667"/>
            <parameter index="25" name="ConstantQ" parameterValue="1"/>
            <parameter index="26" name="Low Shelf Filter Order" parameterValue="0"/>
            <parameter index="27" name="High Shelf Filter Order" parameterValue="0"/>
            <parameter index="28" name="Ultra-Quiet Mode" parameterValue="0"/>
            <parameter index="29" name="Low Shelf Enable" parameterValue="1"/>
            <parameter index="30" name="High Shelf Enable" parameterValue="1"/>
            <parameter index="31" name="Original Sample Rate" parameterValue="0.2296875"/>
            <parameter index="32" name="EQ Band 1 Bandwidth" parameterValue="0.0025"/>
            <parameter index="33" name="EQ Band 2 Bandwidth" parameterValue="0.01"/>
            <parameter index="34" name="EQ Band 3 Bandwidth" parameterValue="0.04"/>
            <parameter index="35" name="EQ Band 4 Bandwidth" parameterValue="0.16"/>
            <parameter index="36" name="EQ Band 5 Bandwidth" parameterValue="0.64"/>
            <parameter index="37" name="High-Pass Filter Enable" parameterValue="0"/>
            <parameter index="38" name="High-Pass Cutoff Frequency" parameterValue="0"/>
            <parameter index="39" name="High-Pass Slope" parameterValue="0.4"/>
            <parameter index="40" name="Low-Pass Filter Enable" parameterValue="0"/>
            <parameter index="41" name="Low-Pass Cutoff Frequency" parameterValue="0.906945"/>
            <parameter index="42" name="Low-Pass Slope" parameterValue="0.4"/>
            <parameter index="43" name="Bypass" parameterValue="0"/>
            <parameter index="44" name="LowGraphRange" parameterValue="1"/>
          </component>
        </trackAudioParameters>
        <editParameter parameterIndex="0" slotIndex="4294967280"/>
        <sendList>
          <sendSlot preFader="false" sendOutputID="0" slotIndex="0">
            <component componentGuid="6c0dc009-dea4-4189-a1e8-94e11984abcf" id="sendComponent" powered="false">
              <parameter index="0" name="Power On/Off" parameterValue="0"/>
              <parameter index="1" name="Level" parameterValue="0"/>
            </component>
            <component id="sendPan" powered="true"/>
          </sendSlot>
          <sendSlot preFader="false" sendOutputID="0" slotIndex="1">
            <component componentGuid="0a3c8dc9-ecdf-4a2f-867b-f5121a0baaa8" id="sendComponent" powered="false">
              <parameter index="0" name="Power On/Off" parameterValue="0"/>
              <parameter index="1" name="Level" parameterValue="0"/>
            </component>
            <component id="sendPan" powered="true"/>
          </sendSlot>
          <sendSlot preFader="false" sendOutputID="0" slotIndex="2">
            <component componentGuid="0e3b1326-ea46-49d0-9097-db0b5e30690f" id="sendComponent" powered="false">
              <parameter index="0" name="Power On/Off" parameterValue="0"/>
              <parameter index="1" name="Level" parameterValue="0"/>
            </component>
            <component id="sendPan" powered="true"/>
          </sendSlot>
          <sendSlot preFader="false" sendOutputID="0" slotIndex="3">
            <component componentGuid="f1a2f4bd-5d1a-42bd-9a36-79a15c73af6a" id="sendComponent" powered="false">
              <parameter index="0" name="Power On/Off" parameterValue="0"/>
              <parameter index="1" name="Level" parameterValue="0"/>
            </component>
            <component id="sendPan" powered="true"/>
          </sendSlot>
          <sendSlot preFader="false" sendOutputID="0" slotIndex="4">
            <component componentGuid="1da3076b-9a9b-45e6-b951-9bf3d59e4077" id="sendComponent" powered="false">
              <parameter index="0" name="Power On/Off" parameterValue="0"/>
              <parameter index="1" name="Level" parameterValue="0"/>
            </component>
            <component id="sendPan" powered="true"/>
          </sendSlot>
          <sendSlot preFader="false" sendOutputID="0" slotIndex="5">
            <component componentGuid="f4f85fae-ff13-43f0-ba18-8885a5ca037c" id="sendComponent" powered="false">
              <parameter index="0" name="Power On/Off" parameterValue="0"/>
              <parameter index="1" name="Level" parameterValue="0"/>
            </component>
            <component id="sendPan" powered="true"/>
          </sendSlot>
          <sendSlot preFader="false" sendOutputID="0" slotIndex="6">
            <component componentGuid="9ee46916-bd8e-4324-a33a-cfa0e6281638" id="sendComponent" powered="false">
              <parameter index="0" name="Power On/Off" parameterValue="0"/>
              <parameter index="1" name="Level" parameterValue="0"/>
            </component>
            <component id="sendPan" powered="true"/>
          </sendSlot>
          <sendSlot preFader="false" sendOutputID="0" slotIndex="7">
            <component componentGuid="fd5b5e14-8046-45cf-965b-e9aba4c9b3c4" id="sendComponent" powered="false">
              <parameter index="0" name="Power On/Off" parameterValue="0"/>
              <parameter index="1" name="Level" parameterValue="0"/>
            </component>
            <component id="sendPan" powered="true"/>
          </sendSlot>
          <sendSlot preFader="false" sendOutputID="0" slotIndex="8">
            <component componentGuid="6fa9baca-6874-4f02-8d90-257cb20ef99d" id="sendComponent" powered="false">
              <parameter index="0" name="Power On/Off" parameterValue="0"/>
              <parameter index="1" name="Level" parameterValue="0"/>
            </component>
            <component id="sendPan" powered="true"/>
          </sendSlot>
          <sendSlot preFader="false" sendOutputID="0" slotIndex="9">
            <component componentGuid="a806715a-3b80-4e7a-ab64-454bc7e9d770" id="sendComponent" powered="false">
              <parameter index="0" name="Power On/Off" parameterValue="0"/>
              <parameter index="1" name="Level" parameterValue="0"/>
            </component>
            <component id="sendPan" powered="true"/>
          </sendSlot>
          <sendSlot preFader="false" sendOutputID="0" slotIndex="10">
            <component componentGuid="29e6c388-a50a-4ebd-aded-bd769bd7407d" id="sendComponent" powered="false">
              <parameter index="0" name="Power On/Off" parameterValue="0"/>
              <parameter index="1" name="Level" parameterValue="0"/>
            </component>
            <component id="sendPan" powered="true"/>
          </sendSlot>
          <sendSlot preFader="false" sendOutputID="0" slotIndex="11">
            <component componentGuid="45f02453-373f-4c06-aaf8-2cffde3d9fb9" id="sendComponent" powered="false">
              <parameter index="0" name="Power On/Off" parameterValue="0"/>
              <parameter index="1" name="Level" parameterValue="0"/>
            </component>
            <component id="sendPan" powered="true"/>
          </sendSlot>
          <sendSlot preFader="false" sendOutputID="0" slotIndex="12">
            <component componentGuid="653e29f3-c666-4b05-aa8f-980b64b0b24c" id="sendComponent" powered="false">
              <parameter index="0" name="Power On/Off" parameterValue="0"/>
              <parameter index="1" name="Level" parameterValue="0"/>
            </component>
            <component id="sendPan" powered="true"/>
          </sendSlot>
          <sendSlot preFader="false" sendOutputID="0" slotIndex="13">
            <component componentGuid="c13d8558-1ffa-45e4-b276-3d15e8ee40fe" id="sendComponent" powered="false">
              <parameter index="0" name="Power On/Off" parameterValue="0"/>
              <parameter index="1" name="Level" parameterValue="0"/>
            </component>
            <component id="sendPan" powered="true"/>
          </sendSlot>
          <sendSlot preFader="false" sendOutputID="0" slotIndex="14">
            <component componentGuid="681dde09-53cb-448f-890d-60f7a836739d" id="sendComponent" powered="false">
              <parameter index="0" name="Power On/Off" parameterValue="0"/>
              <parameter index="1" name="Level" parameterValue="0"/>
            </component>
            <component id="sendPan" powered="true"/>
          </sendSlot>
          <sendSlot preFader="false" sendOutputID="0" slotIndex="15">
            <component componentGuid="f7dc2ca9-5046-4c8a-a9c7-eff4dd5441ea" id="sendComponent" powered="false">
              <parameter index="0" name="Power On/Off" parameterValue="0"/>
              <parameter index="1" name="Level" parameterValue="0"/>
            </component>
            <component id="sendPan" powered="true"/>
          </sendSlot>
        </sendList>
      </metronomeTrack>
    </metronome>
    <properties>
      <property key="EssentialSoundConfigurations">[{"Guid":"a8b40e3e-13e7-4c1f-b382-96058f1f691d","Name":"$$$/app/Presets/DefaultPresetName=(Default)","PresetData":{"ModeID":"ambience","Models":{"model_loudness":{"DefaultLoudness":{"type":"float","value":-30},"LoudnessStandard":{"type":"std::uint32_t","value":0},"MaxLoudness":{"type":"float","value":-12},"MinLoudness":{"type":"float","value":-35}},"model_soundeffects":{"ReverbPresets":{"type":"tree::any","value":{"$$$/app/Presets/EssentialSound/ReverbPreset/LargeRoomAmbience=Large Room Ambience":{"type":"array::float","value":[0.051507499068975449,0.32432401180267334,0.29292899370193481,0.30000001192092896,0.20000000298023224,0,0.14285700023174286,0.40000000596046448,0.5,0.69999998807907104,0.30000001192092896,0.25125628709793091,0.03125]},"$$$/app/Presets/EssentialSound/ReverbPreset/OutsideAmbience=Outside Ambience":{"type":"array::float","value":[0.091708503663539886,0.043893899768590927,1,0.5,0.20000000298023224,0.80000001192092896,0.18367299437522888,1,0.5,0,0.80000001192092896,0.25125628709793091,0.03125]},"$$$/app/Presets/EssentialSound/ReverbPreset/RoomAmbience=Room Ambience":{"type":"array::float","value":[0.057788901031017303,0.44944900274276733,0.49494898319244385,0.89999997615814209,0.10000000149011612,0.15000000596046448,0.081632703542709351,0.40000000596046448,0.5,0.80000001192092896,0.20000000298023224,0.25125628709793091,0.03125]},"$$$/app/Presets/EssentialSound/ReverbPreset/WindEffect=Wind Effect":{"type":"array::float","value":[0.19597999751567841,0.6896899938583374,0.69696998596191406,0.25,0.5,0.5,0.23469400405883789,0.51999998092651367,0.5,0.75,0.25,0.25125628709793091,0.03125]}}}},"model_stereowidth":{},"model_volume":{"MaxGain":{"type":"float","value":6},"MinGain":{"type":"float","value":-15}}}},"Type":"1c19ca71-c24c-49cd-8dd5-2cc46018507a","Version":1},{"Guid":"58dc27a8-6a2a-480c-bd0c-4b45fff346a6","Name":"$$$/app/Presets/DefaultPresetName=(Default)","PresetData":{"ModeID":"dialog","Models":{"model_clarity":{"EQPresets":{"type":"tree::any","value":{"$$$/app/Presets/EssentialSound/EQPreset/BackgroundVoice=Background Voice":{"type":"array::float","value":[0.12099699676036835,0.5,0.39240506291389465,0,0.5,0.5,0.5,0.5,0.5,0.47827938199043274,0.45772689580917358,0.45778733491897583,0.47946760058403015,0.5,0]},"$$$/app/Presets/EssentialSound/EQPreset/Intercom=Intercom":{"type":"array::float","value":[0.19432899355888367,0.5,1,0,0.071499988436698914,0.071499988436698914,0.071499988436698914,0.40238627791404724,0.48571401834487915,0.5,0.55155748128890991,0.59602576494216919,0.22246670722961426,0.071499988436698914,0]},"$$$/app/Presets/EssentialSound/EQPreset/LockedInTheTrunk=Locked in the Trunk":{"type":"array::float","value":[0.12099699676036835,0.5,0.79746836423873901,0,0.5,0.5,0.5,0.5,0.5,0.32846158742904663,0.15721426904201508,0.15721426904201508,0.15721426904201508,0.15721426904201508,0]},"$$$/app/Presets/EssentialSound/EQPreset/OldRadio=Old Radio":{"type":"array::float","value":[0.12099699676036835,0.5,0.79746836423873901,0,0.15721426904201508,0.15721426904201508,0.15721426904201508,0.28442040085792542,0.48315632343292236,0.36498492956161499,0.52853888273239136,0.43511500954627991,0.27154684066772461,0.15721426904201508,0]},"$$$/app/Presets/EssentialSound/EQPreset/OnTheTelephone=On the Telephone":{"type":"array::float","value":[0.12099699676036835,0.5,0.39240506291389465,0,0.32864287495613098,0.32864287495613098,0.32864287495613098,0.32864287495613098,0.48571401834487915,0.53071397542953491,0.53071397542953491,0.48357096314430237,0.32864287495613098,0.32864287495613098,0]},"$$$/app/Presets/EssentialSound/EQPreset/OutsideOfTheRoom=Outside of the Room":{"type":"array::float","value":[0.12099699676036835,0.5,0.79746836423873901,0,0.42539370059967041,0.47865453362464905,0.5,0.5,0.48571401834487915,0.40073278546333313,0.25656309723854065,0.15721426904201508,0.15721426904201508,0.15721426904201508,0]},"$$$/app/Presets/EssentialSound/EQPreset/PodcastVoice=Podcast Voice":{"type":"array::float","value":[0.12099699676036835,0.5,0.39240506291389465,0,0.5,0.5,0.5,0.51789408922195435,0.50770342350006104,0.5,0.51789408922195435,0.528114914894104,0.5102812647819519,0.5,0]},"$$$/app/Presets/EssentialSound/EQPreset/SubtleBoostFemale=Subtle Boost (Female)":{"type":"array::float","value":[0.096553400158882141,0.5,0.29113924503326416,0,0.5,0.5,0.5,0.5,0.5,0.51933407783508301,0.54642897844314575,0.52706766128540039,0.5,0.5,0]},"$$$/app/Presets/EssentialSound/EQPreset/SubtleBoostMale=Subtle Boost (Male)":{"type":"array::float","value":[0.096553400158882141,0.5,0.29113924503326416,0,0.5,0.5,0.5,0.5,0.5,0.5135338306427002,0.54642897844314575,0.51933407783508301,0.5,0.5,0]},"$$$/app/Presets/EssentialSound/EQPreset/ThatPublicRadioSound=That Public Radio Sound":{"type":"array::float","value":[0.12099699676036835,0.5,0.79746836423873901,0,0.15721426904201508,0.15721426904201508,0.15721426904201508,0.36334344744682312,0.49468311667442322,0.5,0.5,0.5,0.5,0.5,0]},"$$$/app/Presets/EssentialSound/EQPreset/VocalPresence=Vocal Presence":{"type":"array::float","value":[0.096553400158882141,0.5,0.32489451766014099,0,0.3572143018245697,0.3572143018245697,0.46428570151329041,0.47857141494750977,0.4763694703578949,0.49570354819297791,0.55924957990646362,0.56523394584655762,0.50859290361404419,0.46992480754852295,0]}}}},"model_loudness":{"DefaultLoudness":{"type":"float","value":-23},"LoudnessStandard":{"type":"std::uint32_t","value":0},"MaxLoudness":{"type":"float","value":-12},"MinLoudness":{"type":"float","value":-35}},"model_restoration":{"ReduceNoiseMaxSetting":{"type":"array::float","value":[0.60000002384185791,0.40000000596046448,0.5,0.5,0.2465750128030777,0.60000002384185791,2048,0,0]},"ReduceNoiseMinSetting":{"type":"array::float","value":[0.375,0.20000000298023224,0.60000002384185791,0.5625,0.10958899557590485,0.30000001192092896,512,0,0]},"ReduceRumbleMaxSetting":{"type":"array::float","value":[1,0.084112152457237244,0.375,0,0,0.00083333335351198912,1,0,1,0.0390625,0.00083408987848088145,0,0.0041666668839752674,0.00022554649331141263,0.0046875001862645149,0.75,0.0052083334885537624,0.75,1,0.75,0.0040520834736526012,0.75,0.0042629167437553406,0.00022554649331141263,0.0064883334562182426,0.00022554649331141263,0.006866666954010725,0.75,0.0071704164147377014,0.00022554649331141263,0.01041458360850811,0.00022554649331141263,0.010900000110268593,0.75,0.011407917365431786,0.00022554649331141263,0.015606249682605267,0.00022554649331141263,0.016333334147930145,0.75,0.017094582319259644,0.00022554649331141263,0.026243748143315315,0.00022554649331141263,0.0274666678160429,0.75,0.028746666386723518,0.00022554649331141263,0.041658751666545868,0.00022554649331141263,0.043600000441074371,0.75,0.045631669461727142,0.00022554649331141263,0.062424581497907639,0.00022554649331141263,0.065333336591720581,0.75,0.068377502262592316,0.00022554649331141263,0.10497540980577469,0.00022554649331141263,0.1098666712641716,0.75,0.11498583108186722,0.00022554649331141263,0.16663584113121033,0.00022554649331141263,0.17440000176429749,0.75,0.18252624571323395,0.00022554649331141263,0.91874998807907104,0.00022554649331141263,1,0.00022554649331141263,0,0,0,0,0,0,0,0,0,0,0,0,0,0,0,0,0,0,0,0,0,0,0,0,0,0,0,0,0,0,0,0,0,0,0,0,0,0,0,0,0,0,0,0,0,0,0,0,0,0,0,0,0,0,0,0,0,0,0,0,0,0,0,0,0,0,0,0,0,0,0,0,0,0,0,0,0,0,0,0,0,0,0,0,0,0,0,0,0,0,0,0,0,0,0,0,0,0,0,0,0,0,0,0,0,0,0,0,0,0,0,0,0,0,0,0,0,0,0,0,0,0,0,0,0,0,0,0,0,0,0,0,0,0,0,0,0,0,0,0,0,0,0,0,0,0,0,0,0,0,0,0,0,0,0,0,0,0,0,0,0,0,0,0,0,0,0,0,0,0,0,0,0,0,0,0,0,0,0,0,0,0,0,0,0,0,0,0,0,0]},"ReduceRumbleMinSetting":{"type":"array::float","value":[1,0.084112152457237244,0.375,0,0,0.00083333335351198912,1,0,1,0.0390625,0.00083408987848088145,0.75,0.0041666668839752674,0.75,0.0046875001862645149,0.75,0.0052083334885537624,0.75,1,0.75,0.91874998807907104,0.61237245798110962,1,0.61237245798110962,0,0,0,0,0,0,0,0,0,0,0,0,0,0,0,0,0,0,0,0,0,0,0,0,0,0,0,0,0,0,0,0,0,0,0,0,0,0,0,0,0,0,0,0,0,0,0,0,0,0,0,0,0,0,0,0,0,0,0,0,0,0,0,0,0,0,0,0,0,0,0,0,0,0,0,0,0,0,0,0,0,0,0,0,0,0,0,0,0,0,0,0,0,0,0,0,0,0,0,0,0,0,0,0,0,0,0,0,0,0,0,0,0,0,0,0,0,0,0,0,0,0,0,0,0,0,0,0,0,0,0,0,0,0,0,0,0,0,0,0,0,0,0,0,0,0,0,0,0,0,0,0,0,0,0,0,0,0,0,0,0,0,0,0,0,0,0,0,0,0,0,0,0,0,0,0,0,0,0,0,0,0,0,0,0,0,0,0,0,0,0,0,0,0,0,0,0,0,0,0,0,0,0,0,0,0,0,0,0,0,0,0,0,0,0,0,0,0,0,0,0,0,0,0,0,0,0,0,0,0,0,0,0,0,0,0,0,0,0,0,0,0]},"ReduceSibilanceMaxSetting":{"type":"array::float","value":[0.5,0.19983997941017151,0.18367347121238708,0.26086956262588501,0.52702701091766357,0,1,0,0,0,0,0.75,1,1,0.40000000596046448]},"ReduceSibilanceMinSetting":{"type":"array::float","value":[0.875,0.19983997941017151,0.18367347121238708,0.19130434095859528,0.25675675272941589,0,1,0,0,0,0,0.75,1,1,0.40000000596046448]}},"model_soundeffects":{"ReverbPresets":{"type":"tree::any","value":{"$$$/app/Presets/EssentialSound/ReverbPreset/Auditorium=Auditorium":{"type":"array::float","value":[0.013047545216977596,0.15895412862300873,1,0.89999997615814209,0,0.52007436752319336,0.41663265228271484,0.46000000834465027,0.5,0.73000001907348633,0.15999999642372131,0.75376886129379272,0.03125]},"$$$/app/Presets/EssentialSound/ReverbPreset/Church=Church":{"type":"array::float","value":[0.032663315534591675,0.39939939975738525,0.79797977209091187,0.25,0.5,0.5,0.2297959178686142,0.72000002861022949,0.5,0.62999999523162842,0.87999999523162842,0.25125628709793091,0.03125]},"$$$/app/Presets/EssentialSound/ReverbPreset/LargeReflectiveRoom=Large Reflective Room":{"type":"array::float","value":[0.0074449013918638229,0.098988421261310577,0.79890537261962891,0.89999997615814209,0.10000000149011612,0.40110713243484497,0.060284845530986786,0.27522978186607361,0.5,0.73000001907348633,0.31999999284744263,0.25125628709793091,0.03125]},"$$$/app/Presets/EssentialSound/ReverbPreset/OutsideTheClub=Outside the Club":{"type":"array::float","value":[0.020615793764591217,0.050136558711528778,0.69696998596191406,0.25,0.094355784356594086,0.22242647409439087,0.1071428582072258,0.2800000011920929,0.5,0.73000001907348633,0.46000000834465027,0.25125628709793091,0.03125]},"$$$/app/Presets/EssentialSound/ReverbPreset/SmallDryRoom=Small Dry Room":{"type":"array::float","value":[0.24623115360736847,0.69975000619888306,0.29292899370193481,0.40000000596046448,0.20000000298023224,0.40000000596046448,0.039285715669393539,0.10000000149011612,0.5,1,0.5,0.75376886129379272,0.03125]},"$$$/app/Presets/EssentialSound/ReverbPreset/ThickenVoice=Thicken Voice":{"type":"array::float","value":[0.19597999751567841,0.23931467533111572,0.69696998596191406,0.25,0.5,0.53999996185302734,0.020408162847161293,0.20945435762405396,0.5,1,0.34999999403953552,0.25125628709793091,0.03125]},"$$$/app/Presets/EssentialSound/ReverbPreset/WarmRoom=Warm Room":{"type":"array::float","value":[0.020100502297282219,0.074074074625968933,0.49494948983192444,0.40000000596046448,0.74960309267044067,0.40000000596046448,0.1239795908331871,0.67000001668930054,0.5,0.85000002384185791,0.56000000238418579,0.25125628709793091,0.03125]},"$$$/app/Presets/EssentialSound/ReverbPreset/WarmVoice=Warm Voice":{"type":"array::float","value":[0.19597989320755005,0.89989989995956421,0,0.40000000596046448,0.20000000298023224,0.40000000596046448,0.10204081982374191,0.090000003576278687,0.5,1,0.30000001192092896,0.25125628709793091,0.03125]}}}},"model_volume":{"MaxGain":{"type":"float","value":6},"MinGain":{"type":"float","value":-15}}}},"Type":"1c19ca71-c24c-49cd-8dd5-2cc46018507a","Version":1},{"Guid":"31ba96a6-5d3e-4d89-b1e1-1dbe3c055d0c","Name":"$$$/app/Presets/DefaultPresetName=(Default)","PresetData":{"ModeID":"music","Models":{"model_duration":{},"model_loudness":{"DefaultLoudness":{"type":"float","value":-25},"LoudnessStandard":{"type":"std::uint32_t","value":0},"MaxLoudness":{"type":"float","value":-12},"MinLoudness":{"type":"float","value":-35}},"model_volume":{"MaxGain":{"type":"float","value":6},"MinGain":{"type":"float","value":-15}}}},"Type":"1c19ca71-c24c-49cd-8dd5-2cc46018507a","Version":1},{"Guid":"cea63332-1adc-44a9-a6eb-5490f965859b","Name":"$$$/app/Presets/DefaultPresetName=(Default)","PresetData":{"ModeID":"sfx","Models":{"model_loudness":{"DefaultLoudness":{"type":"float","value":-21},"LoudnessStandard":{"type":"std::uint32_t","value":0},"MaxLoudness":{"type":"float","value":-12},"MinLoudness":{"type":"float","value":-35}},"model_pan":{},"model_soundeffects":{"ReverbPresets":{"type":"tree::any","value":{"$$$/app/Presets/EssentialSound/ReverbPreset/HeavyReverb=Heavy Reverb":{"type":"array::float","value":[0.13316600024700165,0.29929900169372559,1,0.95999997854232788,0.85000002384185791,0.5,0.51530599594116211,0.30000001192092896,0.5,0.5,0.5,0.25125628709793091,0.0625]},"$$$/app/Presets/EssentialSound/ReverbPreset/LightReverb=Light Reverb":{"type":"array::float","value":[0.095477402210235596,0.29929900169372559,0.090909101068973541,1,1,0.80000001192092896,0.22449000179767609,0.60000002384185791,0.5,0.69999998807907104,0.30000001192092896,0.25125628709793091,0.0625]},"$$$/app/Presets/EssentialSound/ReverbPreset/OutsideReverb=Outside Reverb":{"type":"array::float","value":[0.091708503663539886,0.043893899768590927,1,0.5,0.20000000298023224,0.80000001192092896,0.18367299437522888,1,0.5,0,0.80000001192092896,0.25125628709793091,0.0625]},"$$$/app/Presets/EssentialSound/ReverbPreset/RoomReverb=Room Reverb":{"type":"array::float","value":[0.057788901031017303,0.44944900274276733,0.49494898319244385,0.89999997615814209,0.10000000149011612,0.15000000596046448,0.081632703542709351,0.40000000596046448,0.5,0.80000001192092896,0.20000000298023224,0.25125628709793091,0.0625]}}}},"model_volume":{"MaxGain":{"type":"float","value":6},"MinGain":{"type":"float","value":-15}}}},"Type":"1c19ca71-c24c-49cd-8dd5-2cc46018507a","Version":1}]</property>
    </properties>
  </session>

  <files>
    <file absolutePath="F:\Script\Imported Files\Track 3_014.wav" id="0" importerPrivateSettings="Compression:0:0;LargeFileSupport:0:0;SampleType:0:1;" mediaHandler="AmioWav" relativePath="Imported Files/Track 3_014.wav"/>
    <file absolutePath="F:\Script\Imported Files\Track 1_002_merged.wav" id="1" importerPrivateSettings="Compression:0:0;LargeFileSupport:0:0;SampleType:0:1;" mediaHandler="AmioWav" relativePath="Imported Files/Track 1_002_merged.wav"/>
    <file absolutePath="F:\Script\Imported Files\Eddie_004.wav" id="2" importerPrivateSettings="Compression:0:0;LargeFileSupport:0:0;SampleType:0:1;" mediaHandler="AmioWav" relativePath="Imported Files/Eddie_004.wav"/>
    <file absolutePath="F:\Script\Imported Files\Eddie_007.wav" id="3" importerPrivateSettings="Compression:0:0;LargeFileSupport:0:0;SampleType:0:1;" mediaHandler="AmioWav" relativePath="Imported Files/Eddie_007.wav"/>
    <file absolutePath="F:\Script\Imported Files\Eddie_010.wav" id="4" importerPrivateSettings="Compression:0:0;LargeFileSupport:0:0;SampleType:0:1;" mediaHandler="AmioWav" relativePath="Imported Files/Eddie_010.wav"/>
    <file absolutePath="F:\Script\Imported Files\Eddie_009.wav" id="5" importerPrivateSettings="Compression:0:0;LargeFileSupport:0:0;SampleType:0:1;" mediaHandler="AmioWav" relativePath="Imported Files/Eddie_009.wav"/>
    <file absolutePath="F:\Script\Conformed Files\SomeoneCallingLevyDing 44100 1.wav" id="6" importerPrivateSettings="Compression:0:0;LargeFileSupport:0:0;SampleType:0:1;" mediaHandler="AmioWav" relativePath="Conformed Files/SomeoneCallingLevyDing 44100 1.wav"/>
    <file absolutePath="F:\Script\Imported Files\Eddie_011.wav" id="7" importerPrivateSettings="Compression:0:0;LargeFileSupport:0:0;SampleType:0:1;" mediaHandler="AmioWav" relativePath="Imported Files/Eddie_011.wav"/>
    <file absolutePath="F:\Script\Imported Files\Eddie_008.wav" id="8" importerPrivateSettings="Compression:0:0;LargeFileSupport:0:0;SampleType:0:1;" mediaHandler="AmioWav" relativePath="Imported Files/Eddie_008.wav"/>
    <file absolutePath="F:\Script\Imported Files\Eddie_013.wav" id="9" importerPrivateSettings="Compression:0:0;LargeFileSupport:0:0;SampleType:0:1;" mediaHandler="AmioWav" relativePath="Imported Files/Eddie_013.wav"/>
    <file absolutePath="F:\Script\Imported Files\Eddie_016.wav" id="10" importerPrivateSettings="Compression:0:0;LargeFileSupport:0:0;SampleType:0:1;" mediaHandler="AmioWav" relativePath="Imported Files/Eddie_016.wav"/>
    <file absolutePath="F:\Script\Imported Files\Eddie_017.wav" id="11" importerPrivateSettings="Compression:0:0;LargeFileSupport:0:0;SampleType:0:1;" mediaHandler="AmioWav" relativePath="Imported Files/Eddie_017.wav"/>
    <file absolutePath="F:\Script\Imported Files\Eddie_018.wav" id="12" importerPrivateSettings="Compression:0:0;LargeFileSupport:0:0;SampleType:0:1;" mediaHandler="AmioWav" relativePath="Imported Files/Eddie_018.wav"/>
    <file absolutePath="F:\Script\Imported Files\Eddie_020.wav" id="13" importerPrivateSettings="Compression:0:0;LargeFileSupport:0:0;SampleType:0:1;" mediaHandler="AmioWav" relativePath="Imported Files/Eddie_020.wav"/>
    <file absolutePath="F:\Script\Imported Files\Eddie_019.wav" id="14" importerPrivateSettings="Compression:0:0;LargeFileSupport:0:0;SampleType:0:1;" mediaHandler="AmioWav" relativePath="Imported Files/Eddie_019.wav"/>
    <file absolutePath="F:\Script\Imported Files\Eddie_021.wav" id="15" importerPrivateSettings="Compression:0:0;LargeFileSupport:0:0;SampleType:0:1;" mediaHandler="AmioWav" relativePath="Imported Files/Eddie_021.wav"/>
    <file absolutePath="F:\Script\Imported Files\Track 3_013.wav" id="16" importerPrivateSettings="Compression:0:0;LargeFileSupport:0:0;SampleType:0:1;" mediaHandler="AmioWav" relativePath="Imported Files/Track 3_013.wav"/>
    <file absolutePath="F:\Script\Imported Files\James_030.wav" id="17" importerPrivateSettings="Compression:0:0;LargeFileSupport:0:0;SampleType:0:1;" mediaHandler="AmioWav" relativePath="Imported Files/James_030.wav"/>
    <file absolutePath="F:\Script\Imported Files\James_029.wav" id="18" importerPrivateSettings="Compression:0:0;LargeFileSupport:0:0;SampleType:0:1;" mediaHandler="AmioWav" relativePath="Imported Files/James_029.wav"/>
    <file absolutePath="F:\Script\Imported Files\James_031.wav" id="19" importerPrivateSettings="Compression:0:0;LargeFileSupport:0:0;SampleType:0:1;" mediaHandler="AmioWav" relativePath="Imported Files/James_031.wav"/>
    <file absolutePath="F:\Script\Imported Files\James_034.wav" id="20" importerPrivateSettings="Compression:0:0;LargeFileSupport:0:0;SampleType:0:1;" mediaHandler="AmioWav" relativePath="Imported Files/James_034.wav"/>
    <file absolutePath="F:\Script\Imported Files\James_039.wav" id="21" importerPrivateSettings="Compression:0:0;LargeFileSupport:0:0;SampleType:0:1;" mediaHandler="AmioWav" relativePath="Imported Files/James_039.wav"/>
    <file absolutePath="F:\Script\Imported Files\James_041.wav" id="22" importerPrivateSettings="Compression:0:0;LargeFileSupport:0:0;SampleType:0:1;" mediaHandler="AmioWav" relativePath="Imported Files/James_041.wav"/>
    <file absolutePath="F:\Script\Imported Files\James_037.wav" id="23" importerPrivateSettings="Compression:0:0;LargeFileSupport:0:0;SampleType:0:1;" mediaHandler="AmioWav" relativePath="Imported Files/James_037.wav"/>
    <file absolutePath="F:\Script\Imported Files\James_042.wav" id="24" importerPrivateSettings="Compression:0:0;LargeFileSupport:0:0;SampleType:0:1;" mediaHandler="AmioWav" relativePath="Imported Files/James_042.wav"/>
    <file absolutePath="F:\Script\Imported Files\James_047.wav" id="25" importerPrivateSettings="Compression:0:0;LargeFileSupport:0:0;SampleType:0:1;" mediaHandler="AmioWav" relativePath="Imported Files/James_047.wav"/>
    <file absolutePath="F:\Script\Imported Files\James_053.wav" id="26" importerPrivateSettings="Compression:0:0;LargeFileSupport:0:0;SampleType:0:1;" mediaHandler="AmioWav" relativePath="Imported Files/James_053.wav"/>
    <file absolutePath="F:\Script\Imported Files\James_050.wav" id="27" importerPrivateSettings="Compression:0:0;LargeFileSupport:0:0;SampleType:0:1;" mediaHandler="AmioWav" relativePath="Imported Files/James_050.wav"/>
    <file absolutePath="F:\Script\Merged Files\James_051_merged.wav" id="28" importerPrivateSettings="Compression:0:0;LargeFileSupport:0:0;SampleType:0:1;" mediaHandler="AmioWav" relativePath="Merged Files/James_051_merged.wav"/>
    <file absolutePath="F:\Script\Imported Files\James_058.wav" id="29" importerPrivateSettings="Compression:0:0;LargeFileSupport:0:0;SampleType:0:1;" mediaHandler="AmioWav" relativePath="Imported Files/James_058.wav"/>
    <file absolutePath="F:\Script\Imported Files\James_055.wav" id="30" importerPrivateSettings="Compression:0:0;LargeFileSupport:0:0;SampleType:0:1;" mediaHandler="AmioWav" relativePath="Imported Files/James_055.wav"/>
    <file absolutePath="F:\Script\Imported Files\James_060.wav" id="31" importerPrivateSettings="Compression:0:0;LargeFileSupport:0:0;SampleType:0:1;" mediaHandler="AmioWav" relativePath="Imported Files/James_060.wav"/>
    <file absolutePath="F:\Script\Imported Files\James_062.wav" id="32" importerPrivateSettings="Compression:0:0;LargeFileSupport:0:0;SampleType:0:1;" mediaHandler="AmioWav" relativePath="Imported Files/James_062.wav"/>
    <file absolutePath="F:\Script\Imported Files\James_063.wav" id="33" importerPrivateSettings="Compression:0:0;LargeFileSupport:0:0;SampleType:0:1;" mediaHandler="AmioWav" relativePath="Imported Files/James_063.wav"/>
    <file absolutePath="F:\Script\Imported Files\James_065.wav" id="34" importerPrivateSettings="Compression:0:0;LargeFileSupport:0:0;SampleType:0:1;" mediaHandler="AmioWav" relativePath="Imported Files/James_065.wav"/>
    <file absolutePath="F:\Script\Imported Files\Track 3_016.wav" id="35" importerPrivateSettings="Compression:0:0;LargeFileSupport:0:0;SampleType:0:1;" mediaHandler="AmioWav" relativePath="Imported Files/Track 3_016.wav"/>
    <file absolutePath="F:\Script\Imported Files\William_184.wav" id="36" importerPrivateSettings="Compression:0:0;LargeFileSupport:0:0;SampleType:0:1;" mediaHandler="AmioWav" relativePath="Imported Files/William_184.wav"/>
    <file absolutePath="F:\Script\Imported Files\William_185.wav" id="37" importerPrivateSettings="Compression:0:0;LargeFileSupport:0:0;SampleType:0:1;" mediaHandler="AmioWav" relativePath="Imported Files/William_185.wav"/>
    <file absolutePath="F:\Script\Imported Files\William_186.wav" id="38" importerPrivateSettings="Compression:0:0;LargeFileSupport:0:0;SampleType:0:1;" mediaHandler="AmioWav" relativePath="Imported Files/William_186.wav"/>
    <file absolutePath="F:\Script\Imported Files\William_188.wav" id="39" importerPrivateSettings="Compression:0:0;LargeFileSupport:0:0;SampleType:0:1;" mediaHandler="AmioWav" relativePath="Imported Files/William_188.wav"/>
    <file absolutePath="F:\Script\Imported Files\William_187.wav" id="40" importerPrivateSettings="Compression:0:0;LargeFileSupport:0:0;SampleType:0:1;" mediaHandler="AmioWav" relativePath="Imported Files/William_187.wav"/>
    <file absolutePath="F:\Script\Imported Files\William_189.wav" id="41" importerPrivateSettings="Compression:0:0;LargeFileSupport:0:0;SampleType:0:1;" mediaHandler="AmioWav" relativePath="Imported Files/William_189.wav"/>
    <file absolutePath="F:\Script\Imported Files\William_190.wav" id="42" importerPrivateSettings="Compression:0:0;LargeFileSupport:0:0;SampleType:0:1;" mediaHandler="AmioWav" relativePath="Imported Files/William_190.wav"/>
    <file absolutePath="F:\Script\Imported Files\William_192.wav" id="43" importerPrivateSettings="Compression:0:0;LargeFileSupport:0:0;SampleType:0:1;" mediaHandler="AmioWav" relativePath="Imported Files/William_192.wav"/>
    <file absolutePath="F:\Script\Imported Files\William_194.wav" id="44" importerPrivateSettings="Compression:0:0;LargeFileSupport:0:0;SampleType:0:1;" mediaHandler="AmioWav" relativePath="Imported Files/William_194.wav"/>
    <file absolutePath="F:\Script\Imported Files\William_195.wav" id="45" importerPrivateSettings="Compression:0:0;LargeFileSupport:0:0;SampleType:0:1;" mediaHandler="AmioWav" relativePath="Imported Files/William_195.wav"/>
    <file absolutePath="F:\Script\Imported Files\William_196.wav" id="46" importerPrivateSettings="Compression:0:0;LargeFileSupport:0:0;SampleType:0:1;" mediaHandler="AmioWav" relativePath="Imported Files/William_196.wav"/>
    <file absolutePath="F:\Script\Imported Files\William_197.wav" id="47" importerPrivateSettings="Compression:0:0;LargeFileSupport:0:0;SampleType:0:1;" mediaHandler="AmioWav" relativePath="Imported Files/William_197.wav"/>
    <file absolutePath="F:\Script\Imported Files\William_199.wav" id="48" importerPrivateSettings="Compression:0:0;LargeFileSupport:0:0;SampleType:0:1;" mediaHandler="AmioWav" relativePath="Imported Files/William_199.wav"/>
    <file absolutePath="F:\Script\Imported Files\William_202.wav" id="49" importerPrivateSettings="Compression:0:0;LargeFileSupport:0:0;SampleType:0:1;" mediaHandler="AmioWav" relativePath="Imported Files/William_202.wav"/>
    <file absolutePath="F:\Script\Imported Files\William_207.wav" id="50" importerPrivateSettings="Compression:0:0;LargeFileSupport:0:0;SampleType:0:1;" mediaHandler="AmioWav" relativePath="Imported Files/William_207.wav"/>
    <file absolutePath="F:\Script\Imported Files\William_211.wav" id="51" importerPrivateSettings="Compression:0:0;LargeFileSupport:0:0;SampleType:0:1;" mediaHandler="AmioWav" relativePath="Imported Files/William_211.wav"/>
    <file absolutePath="F:\Script\Imported Files\William_210.wav" id="52" importerPrivateSettings="Compression:0:0;LargeFileSupport:0:0;SampleType:0:1;" mediaHandler="AmioWav" relativePath="Imported Files/William_210.wav"/>
    <file absolutePath="F:\Script\Imported Files\William_213.wav" id="53" importerPrivateSettings="Compression:0:0;LargeFileSupport:0:0;SampleType:0:1;" mediaHandler="AmioWav" relativePath="Imported Files/William_213.wav"/>
    <file absolutePath="F:\Script\Imported Files\William_216.wav" id="54" importerPrivateSettings="Compression:0:0;LargeFileSupport:0:0;SampleType:0:1;" mediaHandler="AmioWav" relativePath="Imported Files/William_216.wav"/>
    <file absolutePath="F:\Script\Imported Files\William_214.wav" id="55" importerPrivateSettings="Compression:0:0;LargeFileSupport:0:0;SampleType:0:1;" mediaHandler="AmioWav" relativePath="Imported Files/William_214.wav"/>
    <file absolutePath="F:\Script\Imported Files\William_219.wav" id="56" importerPrivateSettings="Compression:0:0;LargeFileSupport:0:0;SampleType:0:1;" mediaHandler="AmioWav" relativePath="Imported Files/William_219.wav"/>
    <file absolutePath="F:\Script\Imported Files\William_221.wav" id="57" importerPrivateSettings="Compression:0:0;LargeFileSupport:0:0;SampleType:0:1;" mediaHandler="AmioWav" relativePath="Imported Files/William_221.wav"/>
    <file absolutePath="F:\Script\Imported Files\William_223.wav" id="58" importerPrivateSettings="Compression:0:0;LargeFileSupport:0:0;SampleType:0:1;" mediaHandler="AmioWav" relativePath="Imported Files/William_223.wav"/>
    <file absolutePath="F:\Script\Imported Files\Leon_024.wav" id="59" importerPrivateSettings="Compression:0:0;LargeFileSupport:0:0;SampleType:0:1;" mediaHandler="AmioWav" relativePath="Imported Files/Leon_024.wav"/>
    <file absolutePath="F:\Script\Imported Files\Leon_025.wav" id="60" importerPrivateSettings="Compression:0:0;LargeFileSupport:0:0;SampleType:0:1;" mediaHandler="AmioWav" relativePath="Imported Files/Leon_025.wav"/>
    <file absolutePath="F:\Script\Imported Files\Leon_026.wav" id="61" importerPrivateSettings="Compression:0:0;LargeFileSupport:0:0;SampleType:0:1;" mediaHandler="AmioWav" relativePath="Imported Files/Leon_026.wav"/>
    <file absolutePath="F:\Script\Imported Files\Leon_028.wav" id="62" importerPrivateSettings="Compression:0:0;LargeFileSupport:0:0;SampleType:0:1;" mediaHandler="AmioWav" relativePath="Imported Files/Leon_028.wav"/>
    <file absolutePath="F:\Script\Imported Files\Leon_031.wav" id="63" importerPrivateSettings="Compression:0:0;LargeFileSupport:0:0;SampleType:0:1;" mediaHandler="AmioWav" relativePath="Imported Files/Leon_031.wav"/>
    <file absolutePath="F:\Script\Imported Files\Leon_037.wav" id="64" importerPrivateSettings="Compression:0:0;LargeFileSupport:0:0;SampleType:0:1;" mediaHandler="AmioWav" relativePath="Imported Files/Leon_037.wav"/>
    <file absolutePath="F:\Script\Imported Files\Leon_038.wav" id="65" importerPrivateSettings="Compression:0:0;LargeFileSupport:0:0;SampleType:0:1;" mediaHandler="AmioWav" relativePath="Imported Files/Leon_038.wav"/>
    <file absolutePath="F:\Script\Imported Files\Leon_041.wav" id="66" importerPrivateSettings="Compression:0:0;LargeFileSupport:0:0;SampleType:0:1;" mediaHandler="AmioWav" relativePath="Imported Files/Leon_041.wav"/>
    <file absolutePath="F:\Script\Imported Files\Leon_040.wav" id="67" importerPrivateSettings="Compression:0:0;LargeFileSupport:0:0;SampleType:0:1;" mediaHandler="AmioWav" relativePath="Imported Files/Leon_040.wav"/>
    <file absolutePath="F:\Script\Imported Files\Leon_043.wav" id="68" importerPrivateSettings="Compression:0:0;LargeFileSupport:0:0;SampleType:0:1;" mediaHandler="AmioWav" relativePath="Imported Files/Leon_043.wav"/>
    <file absolutePath="F:\Script\Imported Files\Leon_045.wav" id="69" importerPrivateSettings="Compression:0:0;LargeFileSupport:0:0;SampleType:0:1;" mediaHandler="AmioWav" relativePath="Imported Files/Leon_045.wav"/>
    <file absolutePath="F:\Script\Imported Files\Leon_042.wav" id="70" importerPrivateSettings="Compression:0:0;LargeFileSupport:0:0;SampleType:0:1;" mediaHandler="AmioWav" relativePath="Imported Files/Leon_042.wav"/>
    <file absolutePath="F:\Script\Imported Files\Leon_046.wav" id="71" importerPrivateSettings="Compression:0:0;LargeFileSupport:0:0;SampleType:0:1;" mediaHandler="AmioWav" relativePath="Imported Files/Leon_046.wav"/>
    <file absolutePath="F:\Script\Imported Files\Leon_047.wav" id="72" importerPrivateSettings="Compression:0:0;LargeFileSupport:0:0;SampleType:0:1;" mediaHandler="AmioWav" relativePath="Imported Files/Leon_047.wav"/>
    <file absolutePath="F:\Script\Imported Files\Leon_048.wav" id="73" importerPrivateSettings="Compression:0:0;LargeFileSupport:0:0;SampleType:0:1;" mediaHandler="AmioWav" relativePath="Imported Files/Leon_048.wav"/>
    <file absolutePath="F:\Script\Imported Files\Leon_049.wav" id="74" importerPrivateSettings="Compression:0:0;LargeFileSupport:0:0;SampleType:0:1;" mediaHandler="AmioWav" relativePath="Imported Files/Leon_049.wav"/>
    <file absolutePath="F:\Script\Imported Files\Leon_052.wav" id="75" importerPrivateSettings="Compression:0:0;LargeFileSupport:0:0;SampleType:0:1;" mediaHandler="AmioWav" relativePath="Imported Files/Leon_052.wav"/>
    <file absolutePath="F:\Script\Imported Files\Leon_055.wav" id="76" importerPrivateSettings="Compression:0:0;LargeFileSupport:0:0;SampleType:0:1;" mediaHandler="AmioWav" relativePath="Imported Files/Leon_055.wav"/>
    <file absolutePath="F:\Script\Imported Files\Leon_057.wav" id="77" importerPrivateSettings="Compression:0:0;LargeFileSupport:0:0;SampleType:0:1;" mediaHandler="AmioWav" relativePath="Imported Files/Leon_057.wav"/>
    <file absolutePath="F:\Script\Imported Files\Leon_061.wav" id="78" importerPrivateSettings="Compression:0:0;LargeFileSupport:0:0;SampleType:0:1;" mediaHandler="AmioWav" relativePath="Imported Files/Leon_061.wav"/>
    <file absolutePath="F:\Script\Imported Files\Leon_059.wav" id="79" importerPrivateSettings="Compression:0:0;LargeFileSupport:0:0;SampleType:0:1;" mediaHandler="AmioWav" relativePath="Imported Files/Leon_059.wav"/>
    <file absolutePath="F:\Script\Imported Files\Akira_064.wav" id="80" importerPrivateSettings="Compression:0:0;LargeFileSupport:0:0;SampleType:0:1;" mediaHandler="AmioWav" relativePath="Imported Files/Akira_064.wav"/>
    <file absolutePath="F:\Script\Imported Files\Akira_063.wav" id="81" importerPrivateSettings="Compression:0:0;LargeFileSupport:0:0;SampleType:0:1;" mediaHandler="AmioWav" relativePath="Imported Files/Akira_063.wav"/>
    <file absolutePath="F:\Script\Imported Files\Akira_068_merged.wav" id="82" importerPrivateSettings="Compression:0:0;LargeFileSupport:0:0;SampleType:0:1;" mediaHandler="AmioWav" relativePath="Imported Files/Akira_068_merged.wav"/>
    <file absolutePath="F:\Script\Imported Files\Akira_065.wav" id="83" importerPrivateSettings="Compression:0:0;LargeFileSupport:0:0;SampleType:0:1;" mediaHandler="AmioWav" relativePath="Imported Files/Akira_065.wav"/>
    <file absolutePath="F:\Script\Imported Files\Akira_070.wav" id="84" importerPrivateSettings="Compression:0:0;LargeFileSupport:0:0;SampleType:0:1;" mediaHandler="AmioWav" relativePath="Imported Files/Akira_070.wav"/>
    <file absolutePath="F:\Script\Imported Files\Akira_076.wav" id="85" importerPrivateSettings="Compression:0:0;LargeFileSupport:0:0;SampleType:0:1;" mediaHandler="AmioWav" relativePath="Imported Files/Akira_076.wav"/>
    <file absolutePath="F:\Script\Imported Files\Akira_074.wav" id="86" importerPrivateSettings="Compression:0:0;LargeFileSupport:0:0;SampleType:0:1;" mediaHandler="AmioWav" relativePath="Imported Files/Akira_074.wav"/>
    <file absolutePath="F:\Script\Imported Files\Akira_077.wav" id="87" importerPrivateSettings="Compression:0:0;LargeFileSupport:0:0;SampleType:0:1;" mediaHandler="AmioWav" relativePath="Imported Files/Akira_077.wav"/>
    <file absolutePath="F:\Script\Imported Files\Akira_078.wav" id="88" importerPrivateSettings="Compression:0:0;LargeFileSupport:0:0;SampleType:0:1;" mediaHandler="AmioWav" relativePath="Imported Files/Akira_078.wav"/>
    <file absolutePath="F:\Script\Imported Files\Akira_082.wav" id="89" importerPrivateSettings="Compression:0:0;LargeFileSupport:0:0;SampleType:0:1;" mediaHandler="AmioWav" relativePath="Imported Files/Akira_082.wav"/>
    <file absolutePath="F:\Script\Imported Files\Akira_083.wav" id="90" importerPrivateSettings="Compression:0:0;LargeFileSupport:0:0;SampleType:0:1;" mediaHandler="AmioWav" relativePath="Imported Files/Akira_083.wav"/>
    <file absolutePath="F:\Script\Imported Files\Akira_084.wav" id="91" importerPrivateSettings="Compression:0:0;LargeFileSupport:0:0;SampleType:0:1;" mediaHandler="AmioWav" relativePath="Imported Files/Akira_084.wav"/>
    <file absolutePath="F:\Script\Imported Files\Akira_085.wav" id="92" importerPrivateSettings="Compression:0:0;LargeFileSupport:0:0;SampleType:0:1;" mediaHandler="AmioWav" relativePath="Imported Files/Akira_085.wav"/>
    <file absolutePath="F:\Script\Imported Files\Akira_086.wav" id="93" importerPrivateSettings="Compression:0:0;LargeFileSupport:0:0;SampleType:0:1;" mediaHandler="AmioWav" relativePath="Imported Files/Akira_086.wav"/>
    <file absolutePath="F:\Script\Imported Files\Akira_087.wav" id="94" importerPrivateSettings="Compression:0:0;LargeFileSupport:0:0;SampleType:0:1;" mediaHandler="AmioWav" relativePath="Imported Files/Akira_087.wav"/>
    <file absolutePath="F:\Script\Imported Files\Akira_088.wav" id="95" importerPrivateSettings="Compression:0:0;LargeFileSupport:0:0;SampleType:0:1;" mediaHandler="AmioWav" relativePath="Imported Files/Akira_088.wav"/>
    <file absolutePath="F:\Script\Imported Files\Akira_090.wav" id="96" importerPrivateSettings="Compression:0:0;LargeFileSupport:0:0;SampleType:0:1;" mediaHandler="AmioWav" relativePath="Imported Files/Akira_090.wav"/>
    <file absolutePath="F:\Script\Imported Files\Akira_089.wav" id="97" importerPrivateSettings="Compression:0:0;LargeFileSupport:0:0;SampleType:0:1;" mediaHandler="AmioWav" relativePath="Imported Files/Akira_089.wav"/>
    <file absolutePath="F:\Script\Imported Files\Akira_092.wav" id="98" importerPrivateSettings="Compression:0:0;LargeFileSupport:0:0;SampleType:0:1;" mediaHandler="AmioWav" relativePath="Imported Files/Akira_092.wav"/>
    <file absolutePath="F:\Script\Imported Files\Jodee_093.wav" id="99" importerPrivateSettings="Compression:0:0;LargeFileSupport:0:0;SampleType:0:1;" mediaHandler="AmioWav" relativePath="Imported Files/Jodee_093.wav"/>
    <file absolutePath="F:\Script\Imported Files\Jodee_098.wav" id="100" importerPrivateSettings="Compression:0:0;LargeFileSupport:0:0;SampleType:0:1;" mediaHandler="AmioWav" relativePath="Imported Files/Jodee_098.wav"/>
    <file absolutePath="F:\Script\Imported Files\Jodee_099.wav" id="101" importerPrivateSettings="Compression:0:0;LargeFileSupport:0:0;SampleType:0:1;" mediaHandler="AmioWav" relativePath="Imported Files/Jodee_099.wav"/>
    <file absolutePath="F:\Script\Imported Files\Jodee_100.wav" id="102" importerPrivateSettings="Compression:0:0;LargeFileSupport:0:0;SampleType:0:1;" mediaHandler="AmioWav" relativePath="Imported Files/Jodee_100.wav"/>
    <file absolutePath="F:\Script\Imported Files\Jodee_104.wav" id="103" importerPrivateSettings="Compression:0:0;LargeFileSupport:0:0;SampleType:0:1;" mediaHandler="AmioWav" relativePath="Imported Files/Jodee_104.wav"/>
    <file absolutePath="F:\Script\Imported Files\Jodee_101.wav" id="104" importerPrivateSettings="Compression:0:0;LargeFileSupport:0:0;SampleType:0:1;" mediaHandler="AmioWav" relativePath="Imported Files/Jodee_101.wav"/>
    <file absolutePath="F:\Script\Imported Files\Jodee_105.wav" id="105" importerPrivateSettings="Compression:0:0;LargeFileSupport:0:0;SampleType:0:1;" mediaHandler="AmioWav" relativePath="Imported Files/Jodee_105.wav"/>
    <file absolutePath="F:\Script\Imported Files\Jodee_105 Copy.wav" id="106" importerPrivateSettings="Compression:0:0;LargeFileSupport:0:0;SampleType:0:1;" mediaHandler="AmioWav" relativePath="Imported Files/Jodee_105 Copy.wav"/>
    <file absolutePath="F:\Script\Imported Files\Jodee_110.wav" id="107" importerPrivateSettings="Compression:0:0;LargeFileSupport:0:0;SampleType:0:1;" mediaHandler="AmioWav" relativePath="Imported Files/Jodee_110.wav"/>
    <file absolutePath="F:\Script\Imported Files\Jodee_108.wav" id="108" importerPrivateSettings="Compression:0:0;LargeFileSupport:0:0;SampleType:0:1;" mediaHandler="AmioWav" relativePath="Imported Files/Jodee_108.wav"/>
    <file absolutePath="F:\Script\Imported Files\Jodee_109.wav" id="109" importerPrivateSettings="Compression:0:0;LargeFileSupport:0:0;SampleType:0:1;" mediaHandler="AmioWav" relativePath="Imported Files/Jodee_109.wav"/>
    <file absolutePath="F:\Script\Imported Files\Jodee_112.wav" id="110" importerPrivateSettings="Compression:0:0;LargeFileSupport:0:0;SampleType:0:1;" mediaHandler="AmioWav" relativePath="Imported Files/Jodee_112.wav"/>
    <file absolutePath="F:\Script\Imported Files\Jodee_115.wav" id="111" importerPrivateSettings="Compression:0:0;LargeFileSupport:0:0;SampleType:0:1;" mediaHandler="AmioWav" relativePath="Imported Files/Jodee_115.wav"/>
    <file absolutePath="F:\Script\Imported Files\Jodee_111.wav" id="112" importerPrivateSettings="Compression:0:0;LargeFileSupport:0:0;SampleType:0:1;" mediaHandler="AmioWav" relativePath="Imported Files/Jodee_111.wav"/>
    <file absolutePath="F:\Script\Imported Files\Jodee_116.wav" id="113" importerPrivateSettings="Compression:0:0;LargeFileSupport:0:0;SampleType:0:1;" mediaHandler="AmioWav" relativePath="Imported Files/Jodee_116.wav"/>
    <file absolutePath="F:\Script\Imported Files\Jodee_118.wav" id="114" importerPrivateSettings="Compression:0:0;LargeFileSupport:0:0;SampleType:0:1;" mediaHandler="AmioWav" relativePath="Imported Files/Jodee_118.wav"/>
    <file absolutePath="F:\Script\Imported Files\Jodee_119.wav" id="115" importerPrivateSettings="Compression:0:0;LargeFileSupport:0:0;SampleType:0:1;" mediaHandler="AmioWav" relativePath="Imported Files/Jodee_119.wav"/>
    <file absolutePath="F:\Script\Imported Files\Jodee_121.wav" id="116" importerPrivateSettings="Compression:0:0;LargeFileSupport:0:0;SampleType:0:1;" mediaHandler="AmioWav" relativePath="Imported Files/Jodee_121.wav"/>
    <file absolutePath="F:\Script\Imported Files\Jodee_120.wav" id="117" importerPrivateSettings="Compression:0:0;LargeFileSupport:0:0;SampleType:0:1;" mediaHandler="AmioWav" relativePath="Imported Files/Jodee_120.wav"/>
    <file absolutePath="F:\Script\Imported Files\Jodee_122.wav" id="118" importerPrivateSettings="Compression:0:0;LargeFileSupport:0:0;SampleType:0:1;" mediaHandler="AmioWav" relativePath="Imported Files/Jodee_122.wav"/>
    <file absolutePath="F:\Script\Imported Files\Jodee_123.wav" id="119" importerPrivateSettings="Compression:0:0;LargeFileSupport:0:0;SampleType:0:1;" mediaHandler="AmioWav" relativePath="Imported Files/Jodee_123.wav"/>
    <file absolutePath="F:\Script\Imported Files\Jodee_124.wav" id="120" importerPrivateSettings="Compression:0:0;LargeFileSupport:0:0;SampleType:0:1;" mediaHandler="AmioWav" relativePath="Imported Files/Jodee_124.wav"/>
    <file absolutePath="F:\Script\Imported Files\Jodee_126.wav" id="121" importerPrivateSettings="Compression:0:0;LargeFileSupport:0:0;SampleType:0:1;" mediaHandler="AmioWav" relativePath="Imported Files/Jodee_126.wav"/>
    <file absolutePath="F:\Script\Imported Files\Jodee_128.wav" id="122" importerPrivateSettings="Compression:0:0;LargeFileSupport:0:0;SampleType:0:1;" mediaHandler="AmioWav" relativePath="Imported Files/Jodee_128.wav"/>
    <file absolutePath="F:\Script\Imported Files\Jodee_130.wav" id="123" importerPrivateSettings="Compression:0:0;LargeFileSupport:0:0;SampleType:0:1;" mediaHandler="AmioWav" relativePath="Imported Files/Jodee_130.wav"/>
    <file absolutePath="F:\Script\Imported Files\Jodee_131.wav" id="124" importerPrivateSettings="Compression:0:0;LargeFileSupport:0:0;SampleType:0:1;" mediaHandler="AmioWav" relativePath="Imported Files/Jodee_131.wav"/>
    <file absolutePath="F:\Script\Imported Files\Jodee_133.wav" id="125" importerPrivateSettings="Compression:0:0;LargeFileSupport:0:0;SampleType:0:1;" mediaHandler="AmioWav" relativePath="Imported Files/Jodee_133.wav"/>
    <file absolutePath="F:\Script\Imported Files\Jodee_134.wav" id="126" importerPrivateSettings="Compression:0:0;LargeFileSupport:0:0;SampleType:0:1;" mediaHandler="AmioWav" relativePath="Imported Files/Jodee_134.wav"/>
    <file absolutePath="F:\Script\Imported Files\Minnie_136.wav" id="127" importerPrivateSettings="Compression:0:0;LargeFileSupport:0:0;SampleType:0:1;" mediaHandler="AmioWav" relativePath="Imported Files/Minnie_136.wav"/>
    <file absolutePath="F:\Script\Imported Files\Minnie_137.wav" id="128" importerPrivateSettings="Compression:0:0;LargeFileSupport:0:0;SampleType:0:1;" mediaHandler="AmioWav" relativePath="Imported Files/Minnie_137.wav"/>
    <file absolutePath="F:\Script\Imported Files\Minnie_142.wav" id="129" importerPrivateSettings="Compression:0:0;LargeFileSupport:0:0;SampleType:0:1;" mediaHandler="AmioWav" relativePath="Imported Files/Minnie_142.wav"/>
    <file absolutePath="F:\Script\Imported Files\Minnie_143.wav" id="130" importerPrivateSettings="Compression:0:0;LargeFileSupport:0:0;SampleType:0:1;" mediaHandler="AmioWav" relativePath="Imported Files/Minnie_143.wav"/>
    <file absolutePath="F:\Script\Imported Files\Minnie_147.wav" id="131" importerPrivateSettings="Compression:0:0;LargeFileSupport:0:0;SampleType:0:1;" mediaHandler="AmioWav" relativePath="Imported Files/Minnie_147.wav"/>
    <file absolutePath="F:\Script\Imported Files\Minnie_148.wav" id="132" importerPrivateSettings="Compression:0:0;LargeFileSupport:0:0;SampleType:0:1;" mediaHandler="AmioWav" relativePath="Imported Files/Minnie_148.wav"/>
    <file absolutePath="F:\Script\Imported Files\Minnie_150.wav" id="133" importerPrivateSettings="Compression:0:0;LargeFileSupport:0:0;SampleType:0:1;" mediaHandler="AmioWav" relativePath="Imported Files/Minnie_150.wav"/>
    <file absolutePath="F:\Script\Imported Files\Minnie_151.wav" id="134" importerPrivateSettings="Compression:0:0;LargeFileSupport:0:0;SampleType:0:1;" mediaHandler="AmioWav" relativePath="Imported Files/Minnie_151.wav"/>
    <file absolutePath="F:\Script\Imported Files\Minnie_153.wav" id="135" importerPrivateSettings="Compression:0:0;LargeFileSupport:0:0;SampleType:0:1;" mediaHandler="AmioWav" relativePath="Imported Files/Minnie_153.wav"/>
    <file absolutePath="F:\Script\Imported Files\Minnie_157.wav" id="136" importerPrivateSettings="Compression:0:0;LargeFileSupport:0:0;SampleType:0:1;" mediaHandler="AmioWav" relativePath="Imported Files/Minnie_157.wav"/>
    <file absolutePath="F:\Script\Imported Files\Minnie_158.wav" id="137" importerPrivateSettings="Compression:0:0;LargeFileSupport:0:0;SampleType:0:1;" mediaHandler="AmioWav" relativePath="Imported Files/Minnie_158.wav"/>
    <file absolutePath="F:\Script\Imported Files\Minnie_160.wav" id="138" importerPrivateSettings="Compression:0:0;LargeFileSupport:0:0;SampleType:0:1;" mediaHandler="AmioWav" relativePath="Imported Files/Minnie_160.wav"/>
    <file absolutePath="F:\Script\Imported Files\Track 3_017.wav" id="139" importerPrivateSettings="Compression:0:0;LargeFileSupport:0:0;SampleType:0:1;" mediaHandler="AmioWav" relativePath="Imported Files/Track 3_017.wav"/>
    <file absolutePath="F:\Script\Imported Files\Zahra_161.wav" id="140" importerPrivateSettings="Compression:0:0;LargeFileSupport:0:0;SampleType:0:1;" mediaHandler="AmioWav" relativePath="Imported Files/Zahra_161.wav"/>
    <file absolutePath="F:\Script\Imported Files\Zahra_162.wav" id="141" importerPrivateSettings="Compression:0:0;LargeFileSupport:0:0;SampleType:0:1;" mediaHandler="AmioWav" relativePath="Imported Files/Zahra_162.wav"/>
    <file absolutePath="F:\Script\Imported Files\Zahra_164.wav" id="142" importerPrivateSettings="Compression:0:0;LargeFileSupport:0:0;SampleType:0:1;" mediaHandler="AmioWav" relativePath="Imported Files/Zahra_164.wav"/>
    <file absolutePath="F:\Script\Imported Files\Zahra_165.wav" id="143" importerPrivateSettings="Compression:0:0;LargeFileSupport:0:0;SampleType:0:1;" mediaHandler="AmioWav" relativePath="Imported Files/Zahra_165.wav"/>
    <file absolutePath="F:\Script\Imported Files\Zahra_166.wav" id="144" importerPrivateSettings="Compression:0:0;LargeFileSupport:0:0;SampleType:0:1;" mediaHandler="AmioWav" relativePath="Imported Files/Zahra_166.wav"/>
    <file absolutePath="F:\Script\Imported Files\Zahra_169.wav" id="145" importerPrivateSettings="Compression:0:0;LargeFileSupport:0:0;SampleType:0:1;" mediaHandler="AmioWav" relativePath="Imported Files/Zahra_169.wav"/>
    <file absolutePath="F:\Script\Imported Files\Zahra_170.wav" id="146" importerPrivateSettings="Compression:0:0;LargeFileSupport:0:0;SampleType:0:1;" mediaHandler="AmioWav" relativePath="Imported Files/Zahra_170.wav"/>
    <file absolutePath="F:\Script\Imported Files\Zahra_171.wav" id="147" importerPrivateSettings="Compression:0:0;LargeFileSupport:0:0;SampleType:0:1;" mediaHandler="AmioWav" relativePath="Imported Files/Zahra_171.wav"/>
    <file absolutePath="F:\Script\Imported Files\Zahra_173.wav" id="148" importerPrivateSettings="Compression:0:0;LargeFileSupport:0:0;SampleType:0:1;" mediaHandler="AmioWav" relativePath="Imported Files/Zahra_173.wav"/>
    <file absolutePath="F:\Script\Imported Files\Zahra_175.wav" id="149" importerPrivateSettings="Compression:0:0;LargeFileSupport:0:0;SampleType:0:1;" mediaHandler="AmioWav" relativePath="Imported Files/Zahra_175.wav"/>
    <file absolutePath="F:\Script\Imported Files\Zahra_176.wav" id="150" importerPrivateSettings="Compression:0:0;LargeFileSupport:0:0;SampleType:0:1;" mediaHandler="AmioWav" relativePath="Imported Files/Zahra_176.wav"/>
    <file absolutePath="F:\Script\Imported Files\Zahra_178.wav" id="151" importerPrivateSettings="Compression:0:0;LargeFileSupport:0:0;SampleType:0:1;" mediaHandler="AmioWav" relativePath="Imported Files/Zahra_178.wav"/>
    <file absolutePath="F:\Script\Imported Files\Zahra_179.wav" id="152" importerPrivateSettings="Compression:0:0;LargeFileSupport:0:0;SampleType:0:1;" mediaHandler="AmioWav" relativePath="Imported Files/Zahra_179.wav"/>
  </files>

  <audioDevice inputID="AppleUSBAudioEngine:C-Media Electronics Inc.:USB Audio Device:14400000:2,1" outputID="AppleHDAEngineOutput:1B,0,1,2:0">
    <inputPort id="1" name="Default Stereo Input"/>
    <inputPort id="2" name="[01M] USB Audio Device: In 1"/>
    <inputPort id="3" name="[01S] USB Audio Device: In 1"/>
    <outputPort id="1" name="Default Output"/>
    <outputPort id="2" name="[01M] Built-in Output: Headphones 1"/>
    <outputPort id="3" name="[02M] Built-in Output: Headphones 2"/>
    <outputPort id="4" name="Default Stereo Output"/>
    <outputPort id="5" name="[01S] Built-in Output: Headphones 1"/>
    <outputPort id="6" name="Default Surround Output"/>
  </audioDevice>

</sesx>
